<svg id="Layer_1" data-name="Layer 1" xmlns="http://www.w3.org/2000/svg" xmlns:xlink="http://www.w3.org/1999/xlink" viewBox="0 0 1100.01 609.92"><defs><style>.cls-1,.cls-10,.cls-12,.cls-2,.cls-20,.cls-3,.cls-4,.cls-50,.cls-51{fill:#fff;}.cls-1,.cls-10,.cls-12,.cls-2,.cls-20,.cls-3,.cls-50{stroke:#fff;}.cls-1,.cls-10,.cls-12,.cls-2,.cls-20,.cls-3,.cls-50,.cls-52{stroke-miterlimit:10;}.cls-1,.cls-2{stroke-width:0.26px;}.cls-1{opacity:0.15;}.cls-2,.cls-50{opacity:0.1;}.cls-3{stroke-width:0.02px;}.cls-5{fill:url(#radial-gradient);}.cls-6{fill:url(#radial-gradient-2);}.cls-7{fill:url(#radial-gradient-3);}.cls-8{opacity:0.6;}.cls-9{fill:url(#radial-gradient-4);}.cls-10{stroke-width:0.01px;}.cls-11{fill:url(#radial-gradient-5);}.cls-12{stroke-width:0.01px;}.cls-13{fill:url(#radial-gradient-6);}.cls-14{fill:url(#radial-gradient-7);}.cls-15{fill:url(#radial-gradient-8);}.cls-16{fill:url(#radial-gradient-9);}.cls-17{fill:url(#radial-gradient-10);}.cls-18{fill:url(#radial-gradient-11);}.cls-19{fill:url(#radial-gradient-12);}.cls-20{stroke-width:0.01px;}.cls-21{fill:url(#radial-gradient-13);}.cls-22{fill:url(#radial-gradient-14);}.cls-23{fill:url(#radial-gradient-15);}.cls-24{fill:url(#radial-gradient-16);}.cls-25{fill:url(#radial-gradient-17);}.cls-26{fill:url(#radial-gradient-18);}.cls-27{fill:url(#radial-gradient-19);}.cls-28{fill:url(#radial-gradient-20);}.cls-29{fill:url(#radial-gradient-21);}.cls-30{fill:url(#radial-gradient-22);}.cls-31{fill:url(#radial-gradient-23);}.cls-32{fill:url(#radial-gradient-24);}.cls-33{fill:url(#radial-gradient-25);}.cls-34{fill:url(#radial-gradient-26);}.cls-35{fill:url(#radial-gradient-27);}.cls-36{fill:url(#radial-gradient-28);}.cls-37{fill:url(#radial-gradient-29);}.cls-38{fill:url(#radial-gradient-30);}.cls-39{fill:url(#radial-gradient-31);}.cls-40{fill:url(#radial-gradient-32);}.cls-41{fill:url(#radial-gradient-33);}.cls-42{fill:url(#radial-gradient-34);}.cls-43{fill:url(#radial-gradient-35);}.cls-44{fill:url(#radial-gradient-36);}.cls-45{fill:url(#radial-gradient-37);}.cls-46{fill:url(#radial-gradient-38);}.cls-47{fill:url(#radial-gradient-39);}.cls-48{fill:url(#radial-gradient-40);}.cls-49{fill:url(#radial-gradient-41);}.cls-50{stroke-width:0.25px;}.cls-51{opacity:0.5;}.cls-52{font-size:15.25px;fill:#231f20;stroke:#231f20;stroke-width:0.52px;font-family:Harrington;}</style><radialGradient id="radial-gradient" cx="26199.39" cy="13865.09" r="131.91" gradientTransform="translate(-1247.66 -744.95) scale(0.06 0.07)" gradientUnits="userSpaceOnUse"><stop offset="0.11" stop-color="#fff"/><stop offset="0.16" stop-color="#fff" stop-opacity="0.92"/><stop offset="0.33" stop-color="#fff" stop-opacity="0.64"/><stop offset="0.5" stop-color="#fff" stop-opacity="0.41"/><stop offset="0.65" stop-color="#fff" stop-opacity="0.23"/><stop offset="0.79" stop-color="#fff" stop-opacity="0.11"/><stop offset="0.9" stop-color="#fff" stop-opacity="0.03"/><stop offset="0.98" stop-color="#fff" stop-opacity="0"/></radialGradient><radialGradient id="radial-gradient-2" cx="23517.94" cy="13626.36" r="131.91" xlink:href="#radial-gradient"/><radialGradient id="radial-gradient-3" cx="23434.14" cy="15050.99" r="131.91" xlink:href="#radial-gradient"/><radialGradient id="radial-gradient-4" cx="25079.11" cy="15461.95" r="131.91" xlink:href="#radial-gradient"/><radialGradient id="radial-gradient-5" cx="30748.85" cy="16668.66" r="131.91" gradientTransform="translate(-1017.69 -454.51) scale(0.04 0.05)" xlink:href="#radial-gradient"/><radialGradient id="radial-gradient-6" cx="38763.12" cy="17015.11" r="131.91" gradientTransform="translate(-933.99 -141.95) scale(0.03 0.03)" xlink:href="#radial-gradient"/><radialGradient id="radial-gradient-7" cx="37260.25" cy="16383.96" r="131.91" gradientTransform="translate(-933.99 -141.95) scale(0.03 0.03)" xlink:href="#radial-gradient"/><radialGradient id="radial-gradient-8" cx="35696.56" cy="17210.33" r="131.91" gradientTransform="translate(-933.99 -141.95) scale(0.03 0.03)" xlink:href="#radial-gradient"/><radialGradient id="radial-gradient-9" cx="39522.35" cy="17383.43" r="131.91" gradientTransform="translate(-933.99 -141.95) scale(0.03 0.03)" xlink:href="#radial-gradient"/><radialGradient id="radial-gradient-10" cx="38698.34" cy="18050.8" r="131.91" gradientTransform="translate(-933.99 -141.95) scale(0.03 0.03)" xlink:href="#radial-gradient"/><radialGradient id="radial-gradient-11" cx="38193.86" cy="17639.71" r="131.91" gradientTransform="translate(-933.99 -141.95) scale(0.03 0.03)" xlink:href="#radial-gradient"/><radialGradient id="radial-gradient-12" cx="36059.85" cy="15080.64" r="131.91" gradientTransform="translate(-933.99 -141.95) scale(0.03 0.03)" xlink:href="#radial-gradient"/><radialGradient id="radial-gradient-13" cx="59336.76" cy="16035.24" r="131.91" gradientTransform="translate(-881.15 -46.88) scale(0.02 0.02)" xlink:href="#radial-gradient"/><radialGradient id="radial-gradient-14" cx="33736.82" cy="17514.08" r="131.91" gradientTransform="translate(-1017.69 -454.51) scale(0.04 0.05)" xlink:href="#radial-gradient"/><radialGradient id="radial-gradient-15" cx="35498.22" cy="16174.97" r="131.91" gradientTransform="translate(-1017.69 -454.51) scale(0.04 0.05)" xlink:href="#radial-gradient"/><radialGradient id="radial-gradient-16" cx="37388.46" cy="14921.8" r="131.91" gradientTransform="translate(-1017.69 -454.51) scale(0.04 0.05)" xlink:href="#radial-gradient"/><radialGradient id="radial-gradient-17" cx="39415.53" cy="18754.56" r="131.91" gradientTransform="translate(-1017.69 -454.51) scale(0.04 0.05)" xlink:href="#radial-gradient"/><radialGradient id="radial-gradient-18" cx="33530.03" cy="19904.97" r="131.91" gradientTransform="translate(-1017.69 -454.51) scale(0.04 0.05)" xlink:href="#radial-gradient"/><radialGradient id="radial-gradient-19" cx="30724.33" cy="20651.23" r="131.91" gradientTransform="translate(-1017.69 -454.51) scale(0.04 0.05)" xlink:href="#radial-gradient"/><radialGradient id="radial-gradient-20" cx="45212.4" cy="12765.85" r="131.91" gradientTransform="translate(-1017.69 -454.51) scale(0.04 0.05)" xlink:href="#radial-gradient"/><radialGradient id="radial-gradient-21" cx="44317.94" cy="13766.41" r="131.91" gradientTransform="translate(-1017.69 -454.51) scale(0.04 0.05)" xlink:href="#radial-gradient"/><radialGradient id="radial-gradient-22" cx="46496.22" cy="13797.36" r="131.91" gradientTransform="translate(-1017.69 -454.51) scale(0.04 0.05)" xlink:href="#radial-gradient"/><radialGradient id="radial-gradient-23" cx="44614.21" cy="11675.49" r="131.91" gradientTransform="translate(-1017.69 -454.51) scale(0.04 0.05)" xlink:href="#radial-gradient"/><radialGradient id="radial-gradient-24" cx="42951.46" cy="15046.3" r="131.91" gradientTransform="translate(-1017.69 -454.51) scale(0.04 0.05)" xlink:href="#radial-gradient"/><radialGradient id="radial-gradient-25" cx="43937.69" cy="18976.66" r="131.91" gradientTransform="translate(-1017.69 -454.51) scale(0.04 0.05)" xlink:href="#radial-gradient"/><radialGradient id="radial-gradient-26" cx="45110.12" cy="18798.59" r="131.91" gradientTransform="translate(-1017.69 -454.51) scale(0.04 0.05)" xlink:href="#radial-gradient"/><radialGradient id="radial-gradient-27" cx="46634.45" cy="19663.76" r="131.91" gradientTransform="translate(-1017.69 -454.51) scale(0.04 0.05)" xlink:href="#radial-gradient"/><radialGradient id="radial-gradient-28" cx="45826.31" cy="18435.37" r="131.91" gradientTransform="translate(-1017.69 -454.51) scale(0.04 0.05)" xlink:href="#radial-gradient"/><radialGradient id="radial-gradient-29" cx="44930.45" cy="16932.96" r="131.91" gradientTransform="translate(-1017.69 -454.51) scale(0.04 0.05)" xlink:href="#radial-gradient"/><radialGradient id="radial-gradient-30" cx="47945.22" cy="19427.28" r="131.91" gradientTransform="translate(-1017.69 -454.51) scale(0.04 0.05)" xlink:href="#radial-gradient"/><radialGradient id="radial-gradient-31" cx="46349.16" cy="17729.92" r="131.91" gradientTransform="translate(-1017.69 -454.51) scale(0.04 0.05)" xlink:href="#radial-gradient"/><radialGradient id="radial-gradient-32" cx="43008.71" cy="20007.68" r="131.91" gradientTransform="translate(-1017.69 -454.51) scale(0.04 0.05)" xlink:href="#radial-gradient"/><radialGradient id="radial-gradient-33" cx="38277.11" cy="16761.22" r="131.91" gradientTransform="translate(-1017.69 -454.51) scale(0.04 0.05)" xlink:href="#radial-gradient"/><radialGradient id="radial-gradient-34" cx="33172.31" cy="21026.72" r="131.91" gradientTransform="translate(-1017.69 -454.51) scale(0.04 0.05)" xlink:href="#radial-gradient"/><radialGradient id="radial-gradient-35" cx="32206.02" cy="19995.41" r="131.91" gradientTransform="translate(-1017.69 -454.51) scale(0.04 0.05)" xlink:href="#radial-gradient"/><radialGradient id="radial-gradient-36" cx="35096.28" cy="21216.57" r="131.91" gradientTransform="translate(-1017.69 -454.51) scale(0.04 0.05)" xlink:href="#radial-gradient"/><radialGradient id="radial-gradient-37" cx="31343.87" cy="21712.33" r="131.91" gradientTransform="translate(-1017.69 -454.51) scale(0.04 0.05)" xlink:href="#radial-gradient"/><radialGradient id="radial-gradient-38" cx="39239.04" cy="13935.86" r="131.91" gradientTransform="translate(-1017.69 -454.51) scale(0.04 0.05)" xlink:href="#radial-gradient"/><radialGradient id="radial-gradient-39" cx="41574.99" cy="13437.65" r="131.91" gradientTransform="translate(-1017.69 -454.51) scale(0.04 0.05)" xlink:href="#radial-gradient"/><radialGradient id="radial-gradient-40" cx="35909.91" cy="12698.96" r="131.91" gradientTransform="translate(-1017.69 -454.51) scale(0.04 0.05)" xlink:href="#radial-gradient"/><radialGradient id="radial-gradient-41" cx="31681.18" cy="18967.5" r="131.91" xlink:href="#radial-gradient"/></defs><title>MainMap.Top</title><path class="cls-1" d="M310.9,178.62l-5.36-.43L807.22,585.71l207.68,5.47Z" transform="translate(6.85 -56.05)"/><path class="cls-2" d="M322.29,219.21l-22.41,2.2Q338,434.13,376.21,646.83l110.3-7.24Z" transform="translate(6.85 -56.05)"/><path class="cls-1" d="M294.77,185.67q1.56-16.95,3.13-33.88L142.7,420.31q0,59.83,0,119.65Q218.71,362.81,294.77,185.67Z" transform="translate(6.85 -56.05)"/><path class="cls-2" d="M262.84,181.71q.65-11.9,1.3-23.78L116,133.57l-6.08,73Z" transform="translate(6.85 -56.05)"/><path class="cls-3" d="M394.87,226.58a3.86,3.86,0,0,0-2.39,1.21,4.37,4.37,0,0,0-1.12,2.47,4.43,4.43,0,0,0-1.13-2.46,4,4,0,0,0-2.37-1.22,4.08,4.08,0,0,0,2.1-1,4.52,4.52,0,0,0,1.4-2.68,5,5,0,0,0,1.15,2.31A4.58,4.58,0,0,0,394.87,226.58Z" transform="translate(6.85 -56.05)"/><path class="cls-4" d="M391.36,218.62c.15,1.35.21,2.7.27,4s.05,2.69.08,4,0,2.7-.08,4-.12,2.7-.27,4.05c-.14-1.35-.21-2.7-.26-4.05s-.06-2.69-.08-4,0-2.7.08-4S391.22,220,391.36,218.62Z" transform="translate(6.85 -56.05)"/><path class="cls-4" d="M396.94,226.58a47.11,47.11,0,0,1-11.3,0,45.78,45.78,0,0,1,11.3,0Z" transform="translate(6.85 -56.05)"/><ellipse class="cls-5" cx="398.14" cy="170.53" rx="8.7" ry="9.14"/><path class="cls-3" d="M226.43,210.81A3.93,3.93,0,0,0,224,212a4.3,4.3,0,0,0-1.12,2.47,4.37,4.37,0,0,0-1.14-2.46,4,4,0,0,0-2.37-1.23,4.06,4.06,0,0,0,2.1-1,4.5,4.5,0,0,0,1.41-2.68,4.8,4.8,0,0,0,1.15,2.31A4.4,4.4,0,0,0,226.43,210.81Z" transform="translate(6.85 -56.05)"/><path class="cls-4" d="M222.92,202.86c.14,1.35.21,2.69.27,4s.05,2.7.08,4,0,2.69-.08,4-.12,2.7-.27,4c-.14-1.35-.21-2.7-.27-4s-.05-2.7-.08-4,0-2.7.08-4S222.78,204.21,222.92,202.86Z" transform="translate(6.85 -56.05)"/><path class="cls-4" d="M228.5,210.81a45.78,45.78,0,0,1-11.3,0,47.11,47.11,0,0,1,11.3,0Z" transform="translate(6.85 -56.05)"/><ellipse class="cls-6" cx="229.7" cy="154.76" rx="8.7" ry="9.14"/><path class="cls-3" d="M221.16,304.88a3.86,3.86,0,0,0-2.39,1.21,4.26,4.26,0,0,0-1.11,2.47,4.5,4.5,0,0,0-1.14-2.45,4,4,0,0,0-2.37-1.23,4.09,4.09,0,0,0,2.1-1,4.66,4.66,0,0,0,1.41-2.69,4.81,4.81,0,0,0,1.14,2.31A4.58,4.58,0,0,0,221.16,304.88Z" transform="translate(6.85 -56.05)"/><path class="cls-4" d="M217.66,296.92c.14,1.35.21,2.7.26,4.05s.05,2.69.08,4,0,2.7-.08,4-.12,2.7-.26,4.05c-.15-1.35-.22-2.7-.27-4.05s0-2.69-.08-4,0-2.7.08-4S217.51,298.27,217.66,296.92Z" transform="translate(6.85 -56.05)"/><path class="cls-4" d="M223.24,304.88a43,43,0,0,1-5.65.35,41.11,41.11,0,0,1-5.65-.35,39.6,39.6,0,0,1,5.65-.35A41.31,41.31,0,0,1,223.24,304.88Z" transform="translate(6.85 -56.05)"/><ellipse class="cls-7" cx="224.43" cy="248.83" rx="8.7" ry="9.14"/><g class="cls-8"><path class="cls-3" d="M324.5,332a4,4,0,0,0-2.39,1.21A4.34,4.34,0,0,0,321,335.7a4.34,4.34,0,0,0-1.14-2.46,4,4,0,0,0-2.37-1.23,4.06,4.06,0,0,0,2.1-1,4.5,4.5,0,0,0,1.41-2.68,4.8,4.8,0,0,0,1.15,2.31A4.4,4.4,0,0,0,324.5,332Z" transform="translate(6.85 -56.05)"/><path class="cls-4" d="M321,324.06c.14,1.34.21,2.69.27,4s.05,2.7.08,4,0,2.69-.08,4-.13,2.7-.27,4c-.14-1.34-.21-2.69-.27-4s-.05-2.7-.08-4,0-2.7.08-4S320.85,325.4,321,324.06Z" transform="translate(6.85 -56.05)"/><path class="cls-4" d="M326.57,332a45.78,45.78,0,0,1-11.3,0,47.11,47.11,0,0,1,11.3,0Z" transform="translate(6.85 -56.05)"/><ellipse class="cls-9" cx="327.77" cy="275.96" rx="8.7" ry="9.14"/></g><path class="cls-10" d="M323.53,373.61a2.74,2.74,0,0,0-1.67.85,3,3,0,0,0-.77,1.74,3.11,3.11,0,0,0-.8-1.73,2.79,2.79,0,0,0-1.65-.86,2.83,2.83,0,0,0,1.47-.7,3.3,3.3,0,0,0,1-1.88,3.37,3.37,0,0,0,.79,1.61A3.07,3.07,0,0,0,323.53,373.61Z" transform="translate(6.85 -56.05)"/><path class="cls-4" d="M321.09,368c.2,1.89.21,3.78.24,5.67s0,3.79-.24,5.68c-.21-1.89-.22-3.79-.25-5.68S320.88,369.92,321.09,368Z" transform="translate(6.85 -56.05)"/><path class="cls-4" d="M325,373.61a32.38,32.38,0,0,1-7.87,0,32.38,32.38,0,0,1,7.87,0Z" transform="translate(6.85 -56.05)"/><ellipse class="cls-11" cx="327.88" cy="317.56" rx="6.06" ry="6.42"/><path class="cls-12" d="M257.77,422.29a2,2,0,0,0-1.18.55A1.89,1.89,0,0,0,256,424a1.91,1.91,0,0,0-.56-1.11,2.06,2.06,0,0,0-1.16-.56,2.15,2.15,0,0,0,1-.45,2,2,0,0,0,.69-1.22,2.18,2.18,0,0,0,.57,1.05A2.25,2.25,0,0,0,257.77,422.29Z" transform="translate(6.85 -56.05)"/><path class="cls-4" d="M256,418.69c.14,1.22.15,2.44.17,3.66s0,2.44-.17,3.66c-.13-1.22-.14-2.44-.16-3.66S255.91,419.91,256,418.69Z" transform="translate(6.85 -56.05)"/><path class="cls-4" d="M258.78,422.29a24.14,24.14,0,0,1-5.55,0,21.6,21.6,0,0,1,2.78-.16A23.39,23.39,0,0,1,258.78,422.29Z" transform="translate(6.85 -56.05)"/><ellipse class="cls-13" cx="262.86" cy="366.24" rx="4.28" ry="4.14"/><path class="cls-12" d="M211.36,403.44a2,2,0,0,0-1.17.55,1.83,1.83,0,0,0-.55,1.12,1.93,1.93,0,0,0-.56-1.12,2.09,2.09,0,0,0-1.16-.55,2.19,2.19,0,0,0,1-.45,2,2,0,0,0,.69-1.22,2.13,2.13,0,0,0,.56,1.05A2.32,2.32,0,0,0,211.36,403.44Z" transform="translate(6.85 -56.05)"/><path class="cls-4" d="M209.64,399.84c.13,1.22.14,2.44.16,3.66s0,2.44-.16,3.66a34.47,34.47,0,0,1-.16-3.66C209.5,402.28,209.5,401.06,209.64,399.84Z" transform="translate(6.85 -56.05)"/><path class="cls-4" d="M212.38,403.44a23.43,23.43,0,0,1-2.78.16,21.44,21.44,0,0,1-2.77-.16,24.14,24.14,0,0,1,5.55,0Z" transform="translate(6.85 -56.05)"/><ellipse class="cls-14" cx="216.45" cy="347.39" rx="4.28" ry="4.14"/><path class="cls-12" d="M163.08,428.12a2,2,0,0,0-1.17.55,1.83,1.83,0,0,0-.55,1.12,1.91,1.91,0,0,0-.56-1.11,2.06,2.06,0,0,0-1.16-.56,2.19,2.19,0,0,0,1-.45,2.08,2.08,0,0,0,.69-1.22,2.09,2.09,0,0,0,.56,1.05A2.32,2.32,0,0,0,163.08,428.12Z" transform="translate(6.85 -56.05)"/><path class="cls-4" d="M161.36,424.52c.13,1.22.14,2.44.16,3.66s0,2.44-.16,3.66a41.94,41.94,0,0,1,0-7.32Z" transform="translate(6.85 -56.05)"/><path class="cls-4" d="M164.1,428.12a21.49,21.49,0,0,1-2.78.16,19.8,19.8,0,0,1-2.77-.16,21.44,21.44,0,0,1,2.77-.16A23.43,23.43,0,0,1,164.1,428.12Z" transform="translate(6.85 -56.05)"/><ellipse class="cls-15" cx="168.17" cy="372.07" rx="4.28" ry="4.14"/><path class="cls-12" d="M281.21,433.29a2,2,0,0,0-1.18.55,1.89,1.89,0,0,0-.55,1.12,1.91,1.91,0,0,0-.56-1.11,2.06,2.06,0,0,0-1.16-.56,2.15,2.15,0,0,0,1-.45,2,2,0,0,0,.69-1.22,2.14,2.14,0,0,0,.57,1.05A2.25,2.25,0,0,0,281.21,433.29Z" transform="translate(6.85 -56.05)"/><path class="cls-4" d="M279.48,429.69c.14,1.22.15,2.44.17,3.66s0,2.44-.17,3.66c-.13-1.22-.14-2.44-.16-3.66S279.35,430.91,279.48,429.69Z" transform="translate(6.85 -56.05)"/><path class="cls-4" d="M282.23,433.29a24.23,24.23,0,0,1-5.56,0,21.6,21.6,0,0,1,2.78-.16A23.68,23.68,0,0,1,282.23,433.29Z" transform="translate(6.85 -56.05)"/><ellipse class="cls-16" cx="286.3" cy="377.24" rx="4.28" ry="4.14"/><path class="cls-12" d="M255.77,453.22a2.08,2.08,0,0,0-1.18.55,1.94,1.94,0,0,0-.55,1.12,1.91,1.91,0,0,0-.56-1.11.67.67,0,1,1-.13-1,2,2,0,0,0,.69-1.21,2.16,2.16,0,0,0,.57,1A2.25,2.25,0,0,0,255.77,453.22Z" transform="translate(6.85 -56.05)"/><path class="cls-4" d="M254,449.62c.14,1.22.15,2.44.17,3.66s0,2.44-.17,3.66c-.13-1.22-.14-2.44-.16-3.66S253.91,450.84,254,449.62Z" transform="translate(6.85 -56.05)"/><path class="cls-4" d="M256.78,453.22a22.73,22.73,0,0,1-5.55,0,24.14,24.14,0,0,1,5.55,0Z" transform="translate(6.85 -56.05)"/><ellipse class="cls-17" cx="260.85" cy="397.17" rx="4.28" ry="4.14"/><path class="cls-12" d="M240.19,441a2,2,0,0,0-1.18.54,1.85,1.85,0,0,0-.54,1.12,2,2,0,0,0-.56-1.11,2,2,0,0,0-1.17-.55,2.09,2.09,0,0,0,1-.46,2,2,0,0,0,.7-1.21,2.08,2.08,0,0,0,.56,1A2.21,2.21,0,0,0,240.19,441Z" transform="translate(6.85 -56.05)"/><path class="cls-4" d="M238.47,437.35c.13,1.22.14,2.44.16,3.65s0,2.44-.16,3.66c-.14-1.22-.15-2.44-.17-3.66S238.33,438.57,238.47,437.35Z" transform="translate(6.85 -56.05)"/><path class="cls-4" d="M241.21,441a24.23,24.23,0,0,1-5.56,0,22.82,22.82,0,0,1,5.56,0Z" transform="translate(6.85 -56.05)"/><ellipse class="cls-18" cx="245.28" cy="384.89" rx="4.28" ry="4.14"/><g class="cls-8"><path class="cls-12" d="M174.3,364.51a2.08,2.08,0,0,0-1.18.55,1.85,1.85,0,0,0-.54,1.12,2,2,0,0,0-.56-1.11,2,2,0,0,0-1.17-.56,1.93,1.93,0,0,0,1-.45,2,2,0,0,0,.7-1.21,2.11,2.11,0,0,0,.56,1A2.29,2.29,0,0,0,174.3,364.51Z" transform="translate(6.85 -56.05)"/><path class="cls-4" d="M172.58,360.91c.13,1.22.14,2.44.16,3.66s0,2.44-.16,3.66c-.14-1.22-.15-2.44-.17-3.66S172.44,362.13,172.58,360.91Z" transform="translate(6.85 -56.05)"/><path class="cls-4" d="M175.32,364.51a22.82,22.82,0,0,1-5.56,0,24.23,24.23,0,0,1,5.56,0Z" transform="translate(6.85 -56.05)"/><ellipse class="cls-19" cx="179.39" cy="308.46" rx="4.28" ry="4.14"/></g><path class="cls-20" d="M252,368.35a1.17,1.17,0,0,0-.73.41,1.63,1.63,0,0,0-.35.84,1.51,1.51,0,0,0-.34-.83,1.2,1.2,0,0,0-.73-.42,1.17,1.17,0,0,0,.65-.34,1.53,1.53,0,0,0,.42-.91,1.9,1.9,0,0,0,.35.79A1.34,1.34,0,0,0,252,368.35Z" transform="translate(6.85 -56.05)"/><path class="cls-4" d="M251,365.65c.1.92.1,1.83.12,2.75s0,1.83-.12,2.74c-.09-.91-.09-1.83-.11-2.74S250.87,366.57,251,365.65Z" transform="translate(6.85 -56.05)"/><path class="cls-4" d="M252.67,368.35a12.58,12.58,0,0,1-1.73.12,12.43,12.43,0,0,1-1.72-.12,12.42,12.42,0,0,1,1.72-.11A14.35,14.35,0,0,1,252.67,368.35Z" transform="translate(6.85 -56.05)"/><ellipse class="cls-21" cx="257.79" cy="312.3" rx="2.66" ry="3.1"/><path class="cls-10" d="M454.28,412.77a2.67,2.67,0,0,0-1.66.85,3,3,0,0,0-.78,1.73,3.16,3.16,0,0,0-.79-1.72,2.75,2.75,0,0,0-1.65-.86,2.8,2.8,0,0,0,1.46-.7,3.23,3.23,0,0,0,1-1.89,3.4,3.4,0,0,0,.8,1.62A3.09,3.09,0,0,0,454.28,412.77Z" transform="translate(6.85 -56.05)"/><path class="cls-4" d="M451.84,407.19c.2,1.89.21,3.78.24,5.67s0,3.78-.24,5.68c-.2-1.9-.21-3.79-.24-5.68S451.64,409.08,451.84,407.19Z" transform="translate(6.85 -56.05)"/><path class="cls-4" d="M455.73,412.77a32.46,32.46,0,0,1-7.88,0,29,29,0,0,1,3.94-.24A30.75,30.75,0,0,1,455.73,412.77Z" transform="translate(6.85 -56.05)"/><ellipse class="cls-22" cx="458.64" cy="356.72" rx="6.06" ry="6.42"/><g class="cls-8"><path class="cls-10" d="M531.36,350.74a2.76,2.76,0,0,0-1.66.85,3,3,0,0,0-.78,1.74,3.18,3.18,0,0,0-.79-1.73,2.84,2.84,0,0,0-1.65-.86,2.8,2.8,0,0,0,1.46-.7,3.25,3.25,0,0,0,1-1.88,3.44,3.44,0,0,0,.8,1.62A3.12,3.12,0,0,0,531.36,350.74Z" transform="translate(6.85 -56.05)"/><path class="cls-4" d="M528.92,345.16c.2,1.89.21,3.78.24,5.68s0,3.78-.24,5.67c-.2-1.89-.22-3.78-.24-5.67S528.72,347.05,528.92,345.16Z" transform="translate(6.85 -56.05)"/><path class="cls-4" d="M532.81,350.74a30.77,30.77,0,0,1-3.94.25,29.06,29.06,0,0,1-3.94-.25,32.46,32.46,0,0,1,7.88,0Z" transform="translate(6.85 -56.05)"/><ellipse class="cls-23" cx="535.72" cy="294.69" rx="6.06" ry="6.42"/></g><path class="cls-10" d="M614.08,292.7a2.68,2.68,0,0,0-1.67.85,3,3,0,0,0-.77,1.73,3.09,3.09,0,0,0-.8-1.72,2.73,2.73,0,0,0-1.65-.86,2.86,2.86,0,0,0,1.47-.71,3.25,3.25,0,0,0,1-1.88,3.35,3.35,0,0,0,.79,1.62A3.11,3.11,0,0,0,614.08,292.7Z" transform="translate(6.85 -56.05)"/><path class="cls-4" d="M611.64,287.12c.2,1.89.21,3.78.24,5.67s0,3.78-.24,5.68c-.21-1.9-.22-3.79-.25-5.68S611.44,289,611.64,287.12Z" transform="translate(6.85 -56.05)"/><path class="cls-4" d="M615.52,292.7a32.38,32.38,0,0,1-7.87,0,32.38,32.38,0,0,1,7.87,0Z" transform="translate(6.85 -56.05)"/><ellipse class="cls-24" cx="618.43" cy="236.65" rx="6.06" ry="6.42"/><path class="cls-10" d="M702.78,470.23a2.67,2.67,0,0,0-1.66.85,3.09,3.09,0,0,0-.78,1.73,3.06,3.06,0,0,0-.79-1.72,2.75,2.75,0,0,0-1.65-.86,2.93,2.93,0,0,0,1.46-.71,3.18,3.18,0,0,0,1-1.88,3.4,3.4,0,0,0,.8,1.62A3.16,3.16,0,0,0,702.78,470.23Z" transform="translate(6.85 -56.05)"/><path class="cls-4" d="M700.34,464.65c.2,1.89.21,3.78.24,5.67s0,3.78-.24,5.67c-.2-1.89-.21-3.78-.24-5.67S700.14,466.54,700.34,464.65Z" transform="translate(6.85 -56.05)"/><path class="cls-4" d="M704.23,470.23a32.38,32.38,0,0,1-7.87,0,28.81,28.81,0,0,1,3.93-.25A30.65,30.65,0,0,1,704.23,470.23Z" transform="translate(6.85 -56.05)"/><ellipse class="cls-25" cx="707.14" cy="414.18" rx="6.06" ry="6.42"/><path class="cls-10" d="M445.23,523.51a2.79,2.79,0,0,0-1.66.85,3,3,0,0,0-.78,1.74,3.1,3.1,0,0,0-.79-1.73,2.82,2.82,0,0,0-1.65-.86,2.8,2.8,0,0,0,1.46-.7,3.21,3.21,0,0,0,1-1.88,3.44,3.44,0,0,0,.8,1.62A3.12,3.12,0,0,0,445.23,523.51Z" transform="translate(6.85 -56.05)"/><path class="cls-4" d="M442.79,517.93c.2,1.89.21,3.78.24,5.67s0,3.79-.24,5.68c-.2-1.89-.21-3.78-.24-5.68S442.59,519.82,442.79,517.93Z" transform="translate(6.85 -56.05)"/><path class="cls-4" d="M446.68,523.51a32.46,32.46,0,0,1-7.88,0,32.46,32.46,0,0,1,7.88,0Z" transform="translate(6.85 -56.05)"/><ellipse class="cls-26" cx="449.59" cy="467.46" rx="6.06" ry="6.42"/><path class="cls-10" d="M322.45,558.08a2.67,2.67,0,0,0-1.66.85,3.09,3.09,0,0,0-.78,1.73,3.06,3.06,0,0,0-.79-1.72,2.75,2.75,0,0,0-1.65-.86,2.84,2.84,0,0,0,1.46-.71,3.18,3.18,0,0,0,1-1.88,3.5,3.5,0,0,0,.8,1.62A3.09,3.09,0,0,0,322.45,558.08Z" transform="translate(6.85 -56.05)"/><path class="cls-4" d="M320,552.5c.2,1.89.22,3.78.24,5.67s0,3.78-.24,5.67c-.2-1.89-.21-3.78-.24-5.67S319.81,554.39,320,552.5Z" transform="translate(6.85 -56.05)"/><path class="cls-4" d="M323.9,558.08a32.38,32.38,0,0,1-7.87,0,32.38,32.38,0,0,1,7.87,0Z" transform="translate(6.85 -56.05)"/><ellipse class="cls-27" cx="326.81" cy="502.03" rx="6.06" ry="6.42"/><g class="cls-8"><path class="cls-10" d="M956.46,192.84a2.66,2.66,0,0,0-1.67.85,3.09,3.09,0,0,0-.78,1.73,3.06,3.06,0,0,0-.79-1.72,2.75,2.75,0,0,0-1.65-.86,2.93,2.93,0,0,0,1.46-.71,3.18,3.18,0,0,0,1-1.88,3.5,3.5,0,0,0,.8,1.62A3.14,3.14,0,0,0,956.46,192.84Z" transform="translate(6.85 -56.05)"/><path class="cls-4" d="M954,187.26c.2,1.89.22,3.78.25,5.67s0,3.78-.25,5.67c-.2-1.89-.21-3.78-.24-5.67S953.81,189.15,954,187.26Z" transform="translate(6.85 -56.05)"/><path class="cls-4" d="M957.9,192.84a32.38,32.38,0,0,1-7.87,0,31.09,31.09,0,0,1,7.87,0Z" transform="translate(6.85 -56.05)"/><ellipse class="cls-28" cx="960.81" cy="136.79" rx="6.06" ry="6.42"/></g><path class="cls-10" d="M917.31,239.18a2.79,2.79,0,0,0-1.66.85,1,1,0,1,1-1.57,0,2.82,2.82,0,0,0-1.65-.86,2.8,2.8,0,0,0,1.46-.7,3.21,3.21,0,0,0,1-1.88,3.44,3.44,0,0,0,.8,1.62A3.12,3.12,0,0,0,917.31,239.18Z" transform="translate(6.85 -56.05)"/><path class="cls-4" d="M914.87,233.6c.2,1.89.22,3.78.24,5.67s0,3.79-.24,5.68c-.2-1.89-.21-3.78-.24-5.68S914.67,235.49,914.87,233.6Z" transform="translate(6.85 -56.05)"/><path class="cls-4" d="M918.76,239.18a32.38,32.38,0,0,1-7.87,0,32.38,32.38,0,0,1,7.87,0Z" transform="translate(6.85 -56.05)"/><ellipse class="cls-29" cx="921.67" cy="183.13" rx="6.06" ry="6.42"/><path class="cls-10" d="M1012.64,240.62a2.66,2.66,0,0,0-1.67.85,1,1,0,1,1-1.57,0,2.75,2.75,0,0,0-1.65-.86,2.93,2.93,0,0,0,1.46-.71,3.18,3.18,0,0,0,1-1.88,3.5,3.5,0,0,0,.8,1.62A3.14,3.14,0,0,0,1012.64,240.62Z" transform="translate(6.85 -56.05)"/><path class="cls-4" d="M1010.19,235c.2,1.9.22,3.79.25,5.68s0,3.78-.25,5.67c-.2-1.89-.21-3.78-.24-5.67S1010,236.93,1010.19,235Z" transform="translate(6.85 -56.05)"/><path class="cls-4" d="M1014.08,240.62a32.38,32.38,0,0,1-7.87,0,28.81,28.81,0,0,1,3.93-.25A30.54,30.54,0,0,1,1014.08,240.62Z" transform="translate(6.85 -56.05)"/><ellipse class="cls-30" cx="1016.99" cy="184.56" rx="6.06" ry="6.42"/><path class="cls-10" d="M930.28,142.33a2.8,2.8,0,0,0-1.67.85,3,3,0,0,0-.77,1.74,3.14,3.14,0,0,0-.8-1.73,2.79,2.79,0,0,0-1.65-.86,2.83,2.83,0,0,0,1.47-.7,3.25,3.25,0,0,0,1-1.88,3.39,3.39,0,0,0,.79,1.62A3.14,3.14,0,0,0,930.28,142.33Z" transform="translate(6.85 -56.05)"/><path class="cls-4" d="M927.84,136.75c.2,1.89.21,3.78.24,5.68s0,3.78-.24,5.67c-.21-1.89-.22-3.78-.25-5.67S927.64,138.64,927.84,136.75Z" transform="translate(6.85 -56.05)"/><path class="cls-4" d="M931.72,142.33a30.5,30.5,0,0,1-3.93.25,28.85,28.85,0,0,1-3.94-.25,32.38,32.38,0,0,1,7.87,0Z" transform="translate(6.85 -56.05)"/><ellipse class="cls-31" cx="934.63" cy="86.28" rx="6.06" ry="6.42"/><path class="cls-10" d="M857.52,298.47a2.69,2.69,0,0,0-1.67.84,3.11,3.11,0,0,0-.78,1.74,3.06,3.06,0,0,0-.79-1.72,2.75,2.75,0,0,0-1.65-.86,2.93,2.93,0,0,0,1.46-.71,3.12,3.12,0,0,0,1-1.88,3.5,3.5,0,0,0,.8,1.62A3.22,3.22,0,0,0,857.52,298.47Z" transform="translate(6.85 -56.05)"/><path class="cls-4" d="M855.07,292.88c.2,1.89.22,3.79.25,5.68s0,3.78-.25,5.67c-.2-1.89-.21-3.78-.24-5.67S854.87,294.77,855.07,292.88Z" transform="translate(6.85 -56.05)"/><path class="cls-4" d="M859,298.47a32.38,32.38,0,0,1-7.87,0,31.09,31.09,0,0,1,7.87,0Z" transform="translate(6.85 -56.05)"/><ellipse class="cls-32" cx="861.87" cy="242.41" rx="6.06" ry="6.42"/><g class="cls-8"><path class="cls-10" d="M900.67,480.51a2.79,2.79,0,0,0-1.66.85,1,1,0,1,1-1.57,0,2.88,2.88,0,0,0-1.65-.86,2.8,2.8,0,0,0,1.46-.7,3.18,3.18,0,0,0,1-1.88,3.4,3.4,0,0,0,.8,1.62A3.12,3.12,0,0,0,900.67,480.51Z" transform="translate(6.85 -56.05)"/><path class="cls-4" d="M898.23,474.93c.2,1.89.21,3.79.24,5.68s0,3.78-.24,5.67c-.2-1.89-.21-3.78-.24-5.67S898,476.82,898.23,474.93Z" transform="translate(6.85 -56.05)"/><path class="cls-4" d="M902.12,480.51a30.65,30.65,0,0,1-3.94.25,28.81,28.81,0,0,1-3.93-.25,32.38,32.38,0,0,1,7.87,0Z" transform="translate(6.85 -56.05)"/><ellipse class="cls-33" cx="905.03" cy="424.46" rx="6.06" ry="6.42"/></g><path class="cls-10" d="M952,472.27a2.68,2.68,0,0,0-1.67.85,3,3,0,0,0-.77,1.73,3.09,3.09,0,0,0-.8-1.72,2.73,2.73,0,0,0-1.65-.86,3,3,0,0,0,1.47-.71,3.25,3.25,0,0,0,1-1.88,3.4,3.4,0,0,0,.8,1.62A3.13,3.13,0,0,0,952,472.27Z" transform="translate(6.85 -56.05)"/><path class="cls-4" d="M949.54,466.68c.2,1.9.21,3.79.24,5.68s0,3.78-.24,5.67c-.2-1.89-.22-3.78-.25-5.67S949.34,468.58,949.54,466.68Z" transform="translate(6.85 -56.05)"/><path class="cls-4" d="M953.42,472.27a32.38,32.38,0,0,1-7.87,0,29,29,0,0,1,3.94-.25A30.5,30.5,0,0,1,953.42,472.27Z" transform="translate(6.85 -56.05)"/><ellipse class="cls-34" cx="956.34" cy="416.21" rx="6.06" ry="6.42"/><path class="cls-10" d="M1018.68,512.34a2.73,2.73,0,0,0-1.66.85,3.11,3.11,0,0,0-.78,1.74,3.08,3.08,0,0,0-.79-1.73,2.82,2.82,0,0,0-1.65-.86,2.8,2.8,0,0,0,1.46-.7,3.23,3.23,0,0,0,1-1.89,3.4,3.4,0,0,0,.8,1.62A3.09,3.09,0,0,0,1018.68,512.34Z" transform="translate(6.85 -56.05)"/><path class="cls-4" d="M1016.24,506.76c.2,1.89.22,3.78.24,5.67s0,3.79-.24,5.68c-.2-1.89-.21-3.79-.24-5.68S1016,508.65,1016.24,506.76Z" transform="translate(6.85 -56.05)"/><path class="cls-4" d="M1020.13,512.34a32.38,32.38,0,0,1-7.87,0,32.38,32.38,0,0,1,7.87,0Z" transform="translate(6.85 -56.05)"/><ellipse class="cls-35" cx="1023.04" cy="456.29" rx="6.06" ry="6.42"/><path class="cls-10" d="M983.32,455.44a2.76,2.76,0,0,0-1.66.85,3,3,0,0,0-.78,1.74,3.14,3.14,0,0,0-.8-1.73,2.8,2.8,0,0,0-1.64-.86,2.84,2.84,0,0,0,1.46-.7,3.27,3.27,0,0,0,1-1.88,3.44,3.44,0,0,0,.8,1.62A3.12,3.12,0,0,0,983.32,455.44Z" transform="translate(6.85 -56.05)"/><path class="cls-4" d="M980.88,449.86c.2,1.89.21,3.78.24,5.67s0,3.79-.24,5.68c-.2-1.89-.22-3.78-.24-5.68S980.68,451.75,980.88,449.86Z" transform="translate(6.85 -56.05)"/><path class="cls-4" d="M984.76,455.44a32.38,32.38,0,0,1-7.87,0,32.38,32.38,0,0,1,7.87,0Z" transform="translate(6.85 -56.05)"/><ellipse class="cls-36" cx="987.68" cy="399.39" rx="6.06" ry="6.42"/><path class="cls-10" d="M944.12,385.85a2.8,2.8,0,0,0-1.67.85,3.11,3.11,0,0,0-.78,1.74,3,3,0,0,0-.79-1.73,2.82,2.82,0,0,0-1.65-.86,2.83,2.83,0,0,0,1.47-.7,3.18,3.18,0,0,0,1-1.88,3.54,3.54,0,0,0,.8,1.62A3.11,3.11,0,0,0,944.12,385.85Z" transform="translate(6.85 -56.05)"/><path class="cls-4" d="M941.67,380.27c.21,1.89.22,3.78.25,5.68s0,3.78-.25,5.67c-.2-1.89-.21-3.78-.24-5.67S941.47,382.16,941.67,380.27Z" transform="translate(6.85 -56.05)"/><path class="cls-4" d="M945.56,385.85a32.38,32.38,0,0,1-7.87,0,32.38,32.38,0,0,1,7.87,0Z" transform="translate(6.85 -56.05)"/><ellipse class="cls-37" cx="948.47" cy="329.8" rx="6.06" ry="6.42"/><path class="cls-10" d="M1076,501.39a2.67,2.67,0,0,0-1.66.85,3.09,3.09,0,0,0-.78,1.73,3.06,3.06,0,0,0-.79-1.72,2.75,2.75,0,0,0-1.65-.86,2.93,2.93,0,0,0,1.46-.71,3.18,3.18,0,0,0,1-1.88,3.4,3.4,0,0,0,.8,1.62A3.16,3.16,0,0,0,1076,501.39Z" transform="translate(6.85 -56.05)"/><path class="cls-4" d="M1073.6,495.8c.2,1.9.22,3.79.24,5.68s0,3.78-.24,5.67c-.2-1.89-.21-3.78-.24-5.67S1073.4,497.7,1073.6,495.8Z" transform="translate(6.85 -56.05)"/><path class="cls-4" d="M1077.49,501.39a32.38,32.38,0,0,1-7.87,0,28.81,28.81,0,0,1,3.93-.25A30.65,30.65,0,0,1,1077.49,501.39Z" transform="translate(6.85 -56.05)"/><ellipse class="cls-38" cx="1080.4" cy="445.33" rx="6.06" ry="6.42"/><g class="cls-8"><path class="cls-10" d="M1006.2,422.77a2.65,2.65,0,0,0-1.66.85,3,3,0,0,0-.78,1.73,3.09,3.09,0,0,0-.8-1.72,2.73,2.73,0,0,0-1.65-.86,3,3,0,0,0,1.47-.71,3.25,3.25,0,0,0,1-1.88,3.4,3.4,0,0,0,.8,1.62A3.16,3.16,0,0,0,1006.2,422.77Z" transform="translate(6.85 -56.05)"/><path class="cls-4" d="M1003.76,417.18c.2,1.9.21,3.79.24,5.68s0,3.78-.24,5.67c-.2-1.89-.22-3.78-.24-5.67S1003.56,419.08,1003.76,417.18Z" transform="translate(6.85 -56.05)"/><path class="cls-4" d="M1007.64,422.77a32.38,32.38,0,0,1-7.87,0,29,29,0,0,1,3.94-.25A30.5,30.5,0,0,1,1007.64,422.77Z" transform="translate(6.85 -56.05)"/><ellipse class="cls-39" cx="1010.56" cy="366.71" rx="6.06" ry="6.42"/></g><path class="cls-10" d="M860,528.27a2.65,2.65,0,0,0-1.66.85,3,3,0,0,0-.78,1.73,3.16,3.16,0,0,0-.79-1.72,2.78,2.78,0,0,0-1.65-.86,2.8,2.8,0,0,0,1.46-.7,3.29,3.29,0,0,0,1-1.89,3.4,3.4,0,0,0,.8,1.62A3.09,3.09,0,0,0,860,528.27Z" transform="translate(6.85 -56.05)"/><path class="cls-4" d="M857.58,522.69c.2,1.89.21,3.78.24,5.67s0,3.78-.24,5.68c-.2-1.9-.22-3.79-.24-5.68S857.38,524.58,857.58,522.69Z" transform="translate(6.85 -56.05)"/><path class="cls-4" d="M861.47,528.27a32.46,32.46,0,0,1-7.88,0,29,29,0,0,1,3.94-.24A30.75,30.75,0,0,1,861.47,528.27Z" transform="translate(6.85 -56.05)"/><ellipse class="cls-40" cx="864.38" cy="472.22" rx="6.06" ry="6.42"/><path class="cls-10" d="M653,377.9a2.66,2.66,0,0,0-1.67.85,3.09,3.09,0,0,0-.78,1.73,3.06,3.06,0,0,0-.79-1.72,2.75,2.75,0,0,0-1.65-.86,2.84,2.84,0,0,0,1.46-.71,3.12,3.12,0,0,0,1-1.88,3.5,3.5,0,0,0,.8,1.62A3.14,3.14,0,0,0,653,377.9Z" transform="translate(6.85 -56.05)"/><path class="cls-4" d="M650.52,372.32c.2,1.89.22,3.78.25,5.67s0,3.78-.25,5.67c-.2-1.89-.21-3.78-.24-5.67S650.32,374.21,650.52,372.32Z" transform="translate(6.85 -56.05)"/><path class="cls-4" d="M654.41,377.9a32.38,32.38,0,0,1-7.87,0,32.38,32.38,0,0,1,7.87,0Z" transform="translate(6.85 -56.05)"/><ellipse class="cls-41" cx="657.32" cy="321.85" rx="6.06" ry="6.42"/><path class="cls-10" d="M429.58,575.47a2.74,2.74,0,0,0-1.67.85,3,3,0,0,0-.77,1.74,3.11,3.11,0,0,0-.8-1.73,2.79,2.79,0,0,0-1.65-.86,2.83,2.83,0,0,0,1.47-.7,3.29,3.29,0,0,0,1-1.89,3.35,3.35,0,0,0,.79,1.62A3.11,3.11,0,0,0,429.58,575.47Z" transform="translate(6.85 -56.05)"/><path class="cls-4" d="M427.14,569.89c.2,1.89.21,3.78.24,5.67s0,3.79-.24,5.68c-.21-1.89-.22-3.79-.25-5.68S426.94,571.78,427.14,569.89Z" transform="translate(6.85 -56.05)"/><path class="cls-4" d="M431,575.47a32.38,32.38,0,0,1-7.87,0,32.38,32.38,0,0,1,7.87,0Z" transform="translate(6.85 -56.05)"/><ellipse class="cls-42" cx="433.94" cy="519.42" rx="6.06" ry="6.42"/><path class="cls-10" d="M387.29,527.7a2.73,2.73,0,0,0-1.66.85,3.11,3.11,0,0,0-.78,1.74,3.08,3.08,0,0,0-.79-1.73,2.82,2.82,0,0,0-1.65-.86,2.8,2.8,0,0,0,1.46-.7,3.21,3.21,0,0,0,1-1.88,3.42,3.42,0,0,0,.8,1.61A3.09,3.09,0,0,0,387.29,527.7Z" transform="translate(6.85 -56.05)"/><path class="cls-4" d="M384.85,522.12c.2,1.89.22,3.78.24,5.67s0,3.79-.24,5.68c-.2-1.89-.21-3.78-.24-5.68S384.65,524,384.85,522.12Z" transform="translate(6.85 -56.05)"/><path class="cls-4" d="M388.74,527.7a30.64,30.64,0,0,1-3.94.24,28.8,28.8,0,0,1-3.93-.24,32.38,32.38,0,0,1,7.87,0Z" transform="translate(6.85 -56.05)"/><ellipse class="cls-43" cx="391.65" cy="471.65" rx="6.06" ry="6.42"/><path class="cls-10" d="M513.77,584.26a2.79,2.79,0,0,0-1.66.85,3,3,0,0,0-.78,1.74,3.18,3.18,0,0,0-.79-1.73,2.88,2.88,0,0,0-1.65-.86,2.8,2.8,0,0,0,1.46-.7,3.18,3.18,0,0,0,1-1.88,3.4,3.4,0,0,0,.8,1.62A3.12,3.12,0,0,0,513.77,584.26Z" transform="translate(6.85 -56.05)"/><path class="cls-4" d="M511.33,578.68c.2,1.89.21,3.79.24,5.68s0,3.78-.24,5.67c-.2-1.89-.21-3.78-.24-5.67S511.13,580.57,511.33,578.68Z" transform="translate(6.85 -56.05)"/><path class="cls-4" d="M515.22,584.26a30.77,30.77,0,0,1-3.94.25,29.06,29.06,0,0,1-3.94-.25,32.46,32.46,0,0,1,7.88,0Z" transform="translate(6.85 -56.05)"/><ellipse class="cls-44" cx="518.13" cy="528.21" rx="6.06" ry="6.42"/><path class="cls-10" d="M349.57,607.23a2.66,2.66,0,0,0-1.67.85,3.09,3.09,0,0,0-.78,1.73,3.06,3.06,0,0,0-.79-1.72,2.75,2.75,0,0,0-1.65-.86,2.93,2.93,0,0,0,1.46-.71,3.12,3.12,0,0,0,1-1.88,3.5,3.5,0,0,0,.8,1.62A3.14,3.14,0,0,0,349.57,607.23Z" transform="translate(6.85 -56.05)"/><path class="cls-4" d="M347.12,601.64c.2,1.9.22,3.79.25,5.68s0,3.78-.25,5.67c-.2-1.89-.21-3.78-.24-5.67S346.92,603.54,347.12,601.64Z" transform="translate(6.85 -56.05)"/><path class="cls-4" d="M351,607.23a32.38,32.38,0,0,1-7.87,0,28.81,28.81,0,0,1,3.93-.25A30.54,30.54,0,0,1,351,607.23Z" transform="translate(6.85 -56.05)"/><ellipse class="cls-45" cx="353.92" cy="551.17" rx="6.06" ry="6.42"/><path class="cls-10" d="M695.06,247a2.7,2.7,0,0,0-1.66.85,3,3,0,0,0-.78,1.74,3.11,3.11,0,0,0-.8-1.73,2.79,2.79,0,0,0-1.65-.86,2.83,2.83,0,0,0,1.47-.7,3.27,3.27,0,0,0,1-1.88,3.42,3.42,0,0,0,.8,1.61A3.09,3.09,0,0,0,695.06,247Z" transform="translate(6.85 -56.05)"/><path class="cls-4" d="M692.62,241.45c.2,1.89.21,3.78.24,5.67s0,3.79-.24,5.68c-.2-1.89-.22-3.79-.24-5.68S692.42,243.34,692.62,241.45Z" transform="translate(6.85 -56.05)"/><path class="cls-4" d="M696.5,247a30.49,30.49,0,0,1-3.93.24,28.94,28.94,0,0,1-3.94-.24,32.38,32.38,0,0,1,7.87,0Z" transform="translate(6.85 -56.05)"/><ellipse class="cls-46" cx="699.42" cy="190.98" rx="6.06" ry="6.42"/><g class="cls-8"><path class="cls-10" d="M797.28,224a2.79,2.79,0,0,0-1.66.85,3,3,0,0,0-.78,1.74,3.18,3.18,0,0,0-.79-1.73,2.88,2.88,0,0,0-1.65-.86,2.8,2.8,0,0,0,1.46-.7,3.25,3.25,0,0,0,1-1.88,3.4,3.4,0,0,0,.8,1.62A3.12,3.12,0,0,0,797.28,224Z" transform="translate(6.85 -56.05)"/><path class="cls-4" d="M794.84,218.37c.2,1.89.21,3.79.24,5.68s0,3.78-.24,5.67c-.2-1.89-.22-3.78-.24-5.67S794.64,220.26,794.84,218.37Z" transform="translate(6.85 -56.05)"/><path class="cls-4" d="M798.73,224a31.17,31.17,0,0,1-7.88,0,32.46,32.46,0,0,1,7.88,0Z" transform="translate(6.85 -56.05)"/><ellipse class="cls-47" cx="801.64" cy="167.9" rx="6.06" ry="6.42"/></g><path class="cls-10" d="M549.38,189.74a2.66,2.66,0,0,0-1.67.85,3.12,3.12,0,0,0-.78,1.73,3.08,3.08,0,0,0-.79-1.72,2.75,2.75,0,0,0-1.65-.86A2.8,2.8,0,0,0,546,189a3.17,3.17,0,0,0,1-1.89,3.5,3.5,0,0,0,.8,1.62A3.07,3.07,0,0,0,549.38,189.74Z" transform="translate(6.85 -56.05)"/><path class="cls-4" d="M546.93,184.16c.2,1.89.22,3.78.25,5.67s0,3.78-.25,5.68c-.2-1.9-.21-3.79-.24-5.68S546.73,186.05,546.93,184.16Z" transform="translate(6.85 -56.05)"/><path class="cls-4" d="M550.82,189.74a32.38,32.38,0,0,1-7.87,0,32.38,32.38,0,0,1,7.87,0Z" transform="translate(6.85 -56.05)"/><ellipse class="cls-48" cx="553.73" cy="133.69" rx="6.06" ry="6.42"/><g class="cls-8"><path class="cls-3" d="M739.23,563.47a3.93,3.93,0,0,0-2.39,1.22,4.3,4.3,0,0,0-1.12,2.47,4.37,4.37,0,0,0-1.14-2.46,4,4,0,0,0-2.37-1.23,4.06,4.06,0,0,0,2.1-1,4.5,4.5,0,0,0,1.41-2.68,4.8,4.8,0,0,0,1.15,2.31A4.4,4.4,0,0,0,739.23,563.47Z" transform="translate(6.85 -56.05)"/><path class="cls-4" d="M735.72,555.52c.14,1.35.21,2.69.27,4s0,2.7.08,4.05,0,2.69-.08,4-.13,2.7-.27,4.05c-.14-1.35-.21-2.7-.27-4.05s-.05-2.7-.08-4,0-2.7.08-4.05S735.58,556.87,735.72,555.52Z" transform="translate(6.85 -56.05)"/><path class="cls-4" d="M741.3,563.47a45.78,45.78,0,0,1-11.3,0,47.11,47.11,0,0,1,11.3,0Z" transform="translate(6.85 -56.05)"/><ellipse class="cls-49" cx="742.5" cy="507.42" rx="8.7" ry="9.14"/></g><path class="cls-2" d="M315.49,162.93q1,8.87,2,17.74l775.56,195,0-2.11-.75-93.12Z" transform="translate(6.85 -56.05)"/><path class="cls-2" d="M327.87,148.78l2.4,6.3L886.4,56.63l-314.89-.45Z" transform="translate(6.85 -56.05)"/><path class="cls-2" d="M300.1,153.61l2-2-94.65-95h-40Z" transform="translate(6.85 -56.05)"/><path class="cls-50" d="M300.48,170.53c.14-.94.29-1.88.44-2.82q23.49-55.54,47-111.08h26.61Z" transform="translate(6.85 -56.05)"/><path class="cls-51" d="M0,666V56.63l142.84.7q-.12,304.32-.23,608.64Z" transform="translate(6.85 -56.05)"/><text class="cls-52" transform="translate(16.55 28.15) scale(1.12 1)">Quick Navigation</text></svg>