<svg id="Layer_1" data-name="Layer 1" xmlns="http://www.w3.org/2000/svg" xmlns:xlink="http://www.w3.org/1999/xlink" viewBox="0 0 274.22 156.4"><defs><style>.cls-1{fill:#00a5cb;stroke:#52c8eb;stroke-width:1.53px;}.cls-1,.cls-10,.cls-11,.cls-12,.cls-13,.cls-14,.cls-17,.cls-4,.cls-7,.cls-8,.cls-9{stroke-miterlimit:10;}.cls-2,.cls-8{fill:#f2f2f2;}.cls-3{fill:url(#linear-gradient);}.cls-4{fill:#01a3d6;stroke-width:0.08px;}.cls-4,.cls-8{stroke:#2da9e1;}.cls-5{fill:#8dd4ea;}.cls-6{fill:#6ccbed;}.cls-7{fill:#f9ed21;stroke:#f89522;stroke-width:1.27px;}.cls-8{stroke-width:1.39px;}.cls-9{fill:#29aae1;stroke:#29aae1;stroke-width:0.28px;}.cls-10,.cls-11,.cls-12,.cls-13,.cls-14{fill:#0b6c8b;stroke:#04677d;}.cls-10{stroke-width:0.66px;}.cls-11{stroke-width:0.69px;}.cls-12{stroke-width:0.73px;}.cls-13{stroke-width:1.21px;}.cls-14{stroke-width:0.55px;}.cls-15{font-size:12.88px;fill:#3499cc;font-family:Loopiejuice-Regular, Loopiejuice;}.cls-16{letter-spacing:-0.02em;}.cls-17{fill:#fff;stroke:#29abe2;stroke-width:3.52px;}.cls-18{font-size:11.12px;fill:#010101;font-family:Helvetica-Light, Helvetica;font-weight:300;}.cls-19{fill:none;}</style><linearGradient id="linear-gradient" x1="5291.91" y1="-997.39" x2="5384.84" y2="-997.39" gradientTransform="matrix(-0.14, -0.99, 0.95, -0.19, 1730.74, 5109.47)" gradientUnits="userSpaceOnUse"><stop offset="0" stop-color="#00a5cb"/><stop offset="0.22" stop-color="#1ab0d5"/><stop offset="0.54" stop-color="#39bde1"/><stop offset="0.81" stop-color="#4bc5e8"/><stop offset="1" stop-color="#52c8eb"/></linearGradient></defs><title>MainMap.MemoryMission</title><path class="cls-1" d="M32.64,57.1C34.57,62.39,42,66.9,47.7,69.05c7.4,2.8,10,.92,21.55,3.33a95.6,95.6,0,0,1,12,3.39A87.9,87.9,0,0,1,70,68.71C60.32,61.6,59.86,58.1,52.81,54.37s-17-5.66-19.86-2.5C31.36,53.61,32.37,56.36,32.64,57.1Z"/><path class="cls-1" d="M48.37,14.85c1.93,5.28,9.38,9.79,15.06,11.94,7.4,2.8,10,.93,21.55,3.34a92.06,92.06,0,0,1,12,3.39,88.62,88.62,0,0,1-11.29-7.06c-9.67-7.11-10.14-10.62-17.18-14.34s-17-5.67-19.86-2.5C47.09,11.36,48.1,14.1,48.37,14.85Z"/><path class="cls-2" d="M55.49,15.74a.39.39,0,0,1,.21-.53,1.2,1.2,0,0,1,.62-.1,3.88,3.88,0,0,1,1.21.33,3.73,3.73,0,0,1,1.07.7,1.69,1.69,0,0,1,.41.56.86.86,0,0,1,0,.81,1.48,1.48,0,0,1-1.36.52,4.84,4.84,0,0,1-1.28-.25,6.71,6.71,0,0,1-2.28-1.25,3.21,3.21,0,0,1-.87-1.12,1.56,1.56,0,0,1-.14-.85,1.37,1.37,0,0,1,.43-.86A2.43,2.43,0,0,1,55,13.19a5.56,5.56,0,0,1,1.36.11A10.31,10.31,0,0,1,61,15.57,4.45,4.45,0,0,1,62.55,18a2.12,2.12,0,0,1-.43,1.77,2.64,2.64,0,0,1-1.44.84,9.31,9.31,0,0,1-5.24-.71A16.49,16.49,0,0,1,51,17.33a10.58,10.58,0,0,1-1.84-1.88,4.72,4.72,0,0,1-1-2.68,2.89,2.89,0,0,1,.43-1.57,3,3,0,0,1,1.19-1,5.82,5.82,0,0,1,2.68-.57,13.59,13.59,0,0,1,5,1.08,30.83,30.83,0,0,1,4.31,2.46c1.37.9,2.71,1.84,4,2.79,2.66,1.9,5.23,3.88,7.91,5.73,1.33.93,2.68,1.83,4.09,2.64a14,14,0,0,0,4.45,1.89,14,14,0,0,1-4.58-1.65c-1.45-.76-2.85-1.61-4.23-2.48-2.75-1.76-5.44-3.6-8.13-5.43C64,15.71,62.6,14.81,61.22,14A30.15,30.15,0,0,0,57,11.69a10,10,0,0,0-1.09-.37c-.38-.09-.77-.18-1.15-.24a11.2,11.2,0,0,0-2.3-.14,4.68,4.68,0,0,0-2,.47,1.36,1.36,0,0,0-.79,1.32c.08,1.21,1.18,2.44,2.35,3.37a16.44,16.44,0,0,0,4,2.28,8.15,8.15,0,0,0,4.29.7,1.27,1.27,0,0,0,.65-.33.57.57,0,0,0,.13-.53A3.14,3.14,0,0,0,60,16.62a10,10,0,0,0-4-2.15A5,5,0,0,0,55,14.31a1.44,1.44,0,0,0-.81.19c-.12.1-.18.25-.08.54a2.35,2.35,0,0,0,.58.81,6.23,6.23,0,0,0,1.91,1.22,4.43,4.43,0,0,0,1.08.32,1.07,1.07,0,0,0,.87-.16c.14-.15,0-.54-.24-.81a3.81,3.81,0,0,0-.91-.72,3.88,3.88,0,0,0-1.1-.43,1.1,1.1,0,0,0-.57,0A.35.35,0,0,0,55.49,15.74Z"/><path class="cls-2" d="M40.89,56.34c-.38.29-.12.79.14,1a3.38,3.38,0,0,0,1,.67,3,3,0,0,0,1.14.27c.39,0,.7-.17.75-.43a1.23,1.23,0,0,0-.34-.89,3.61,3.61,0,0,0-.86-.73,5.14,5.14,0,0,0-2.14-.8,1.82,1.82,0,0,0-1,.11.62.62,0,0,0-.36.52,2.55,2.55,0,0,0,.93,1.67,8.16,8.16,0,0,0,4.07,2,2.58,2.58,0,0,0,1.84-.26,1.14,1.14,0,0,0,.32-1.38,4.73,4.73,0,0,0-1.09-1.79,10.24,10.24,0,0,0-1.76-1.5,13.76,13.76,0,0,0-4.26-1.93c-1.48-.36-3.14-.37-4,.43s-.82,2.34-.1,3.68a12.22,12.22,0,0,0,3,3.6,16,16,0,0,0,4.3,2.14c1.55.57,3.15,1.05,4.76,1.5C50.49,65.14,53.74,66,57,67a48.06,48.06,0,0,1,4.75,1.71A12.58,12.58,0,0,1,66,71.4,12.67,12.67,0,0,0,61.6,69a46.49,46.49,0,0,0-4.79-1.47C53.57,66.65,50.28,66,47,65.17c-1.63-.4-3.27-.83-4.89-1.36a16.2,16.2,0,0,1-4.72-2.21,13,13,0,0,1-3.58-3.9A6.25,6.25,0,0,1,33,55a3.68,3.68,0,0,1,1.15-2.9A4.62,4.62,0,0,1,36.94,51a9.32,9.32,0,0,1,2.76.23,14.34,14.34,0,0,1,4.86,2.19,8.46,8.46,0,0,1,3.49,4.28,3.18,3.18,0,0,1,0,1.68,2.6,2.6,0,0,1-1,1.45,4.12,4.12,0,0,1-3,.47,9.12,9.12,0,0,1-4.76-2.56,5.22,5.22,0,0,1-.84-1.16A2.7,2.7,0,0,1,38.09,56a1.75,1.75,0,0,1,1.11-1.37,2.77,2.77,0,0,1,1.52-.1,5.62,5.62,0,0,1,2.46,1.13,4.47,4.47,0,0,1,1,1,1.74,1.74,0,0,1,.32,1.46,1.07,1.07,0,0,1-.56.6,1.61,1.61,0,0,1-.74.09A3.46,3.46,0,0,1,40.9,57.5a1.47,1.47,0,0,1-.26-.6A.53.53,0,0,1,40.89,56.34Z"/><ellipse class="cls-3" cx="53.21" cy="37.43" rx="17.99" ry="47" transform="translate(-2.95 70.27) rotate(-65.45)"/><path class="cls-4" d="M109.45,79.73c-2.12-1.31-21.67-13.47-21.38-18.13a24.09,24.09,0,0,1,.81-4.12c.37-1.33.55-1.53,1.22-3.68s.61-2.27,1-3.3a15.5,15.5,0,0,1,1.74-3.28c1.67-2.24,12.23-.57,25.46,3.59a34.33,34.33,0,0,1-.8,16.36A29,29,0,0,1,109.45,79.73Z"/><path class="cls-5" d="M14.73,17.33A5.83,5.83,0,0,1,17,14.08a9.39,9.39,0,0,1,3.72-1.58,22.74,22.74,0,0,1,8,.08,67.07,67.07,0,0,1,7.74,1.85q3.81,1.13,7.54,2.46a138.57,138.57,0,0,1,14.55,6.26Q62.06,25,65.47,27a40,40,0,0,1,6.42,4.62,48.43,48.43,0,0,0-6.79-3.95c-2.34-1.19-4.72-2.3-7.1-3.39-4.78-2.14-9.63-4.13-14.56-5.9C41,17.44,38.5,16.63,36,15.83s-5-1.56-7.54-2.07a23.64,23.64,0,0,0-7.67-.52,8.87,8.87,0,0,0-3.62,1.17A6.06,6.06,0,0,0,14.73,17.33Z"/><path class="cls-6" d="M91.49,54.15a9.74,9.74,0,0,1,1.19-3.43,5.39,5.39,0,0,1,2.86-2.34A8.09,8.09,0,0,1,99.25,48c1.2.13,2.4.27,3.59.46a71.41,71.41,0,0,1,7.1,1.44,51.5,51.5,0,0,1,6.86,2.27c-2.35-.54-4.68-1.08-7-1.53s-4.71-.89-7.07-1.28l-3.55-.55a7.89,7.89,0,0,0-3.42.14,5.23,5.23,0,0,0-1.52.74A6.71,6.71,0,0,0,93,50.93,10.79,10.79,0,0,0,91.49,54.15Z"/><path class="cls-7" d="M112.65,76.2c1.3,4.54,7,8.21,11.43,9.88,5.76,2.19,7.93.46,17,2.16a64.41,64.41,0,0,1,9.41,2.54A61,61,0,0,1,141.8,85c-7.36-5.86-7.58-8.9-13-11.9s-13.23-4.35-15.67-1.49C111.79,73.2,112.47,75.56,112.65,76.2Z"/><path class="cls-7" d="M118,59.66c1.3,4.54,7,8.21,11.43,9.89,5.76,2.18,7.93.45,17,2.15a64.41,64.41,0,0,1,9.41,2.54,61,61,0,0,1-8.66-5.76c-7.36-5.86-7.58-8.9-13-11.9s-13.23-4.35-15.67-1.49C117.16,56.66,117.84,59,118,59.66Z"/><path class="cls-2" d="M125.7,61.09a.48.48,0,0,1,.2-.55,1.18,1.18,0,0,1,.61-.13,3.09,3.09,0,0,1,1.2.35,3.36,3.36,0,0,1,1,.76,1.3,1.3,0,0,1,.35,1.36,1.38,1.38,0,0,1-1.3.65,4.28,4.28,0,0,1-1.3-.24,5.77,5.77,0,0,1-2.19-1.36,3.14,3.14,0,0,1-.79-1.16,2.1,2.1,0,0,1-.12-.8,1.56,1.56,0,0,1,.32-.84,2.06,2.06,0,0,1,1.42-.73,4.23,4.23,0,0,1,1.38.05A9,9,0,0,1,131,60.87a4.62,4.62,0,0,1,1.4,2.46,2.43,2.43,0,0,1-1.55,2.76,5.45,5.45,0,0,1-2.8.23,11.05,11.05,0,0,1-2.49-.73,14,14,0,0,1-4.3-2.71,10.1,10.1,0,0,1-1.69-2,5.15,5.15,0,0,1-.9-2.64,3.3,3.3,0,0,1,1.21-2.74,4.88,4.88,0,0,1,2.62-1,11.21,11.21,0,0,1,5,.89,22.83,22.83,0,0,1,4.2,2.61c1.3,1,2.55,2,3.79,3,2.48,2,4.87,4.2,7.37,6.21,1.24,1,2.51,2,3.84,2.88a12.39,12.39,0,0,0,4.3,2.06,12.13,12.13,0,0,1-4.45-1.83c-1.38-.83-2.7-1.77-4-2.72-2.58-1.92-5.1-3.92-7.62-5.91-1.26-1-2.53-2-3.83-2.88a21.93,21.93,0,0,0-4-2.38,9.73,9.73,0,0,0-4.42-.55,3.45,3.45,0,0,0-1.83.71,1.76,1.76,0,0,0-.6,1.53,5.78,5.78,0,0,0,2.14,3.5,13.74,13.74,0,0,0,3.82,2.39,9.36,9.36,0,0,0,2.12.64,3.76,3.76,0,0,0,1.94-.1.9.9,0,0,0,.65-1.07,3.24,3.24,0,0,0-.94-1.67,8.42,8.42,0,0,0-3.75-2.24c-.66-.18-1.46-.14-1.71.16a.71.71,0,0,0-.09.65,2.5,2.5,0,0,0,.51.84,5.52,5.52,0,0,0,1.8,1.28,3.1,3.1,0,0,0,1,.31c.34,0,.69,0,.8-.24a.87.87,0,0,0-.19-.86,3.07,3.07,0,0,0-.84-.76,3.2,3.2,0,0,0-1.06-.45,1,1,0,0,0-.56,0A.44.44,0,0,0,125.7,61.09Z"/><path class="cls-2" d="M121.6,76.39a.74.74,0,0,0,0,1.06,2.41,2.41,0,0,0,1,.68c.67.32,1.66.35,1.91-.22s-.28-1.26-.87-1.65a4.53,4.53,0,0,0-2-.78,2.29,2.29,0,0,0-1,.12,1,1,0,0,0-.54.53,1.84,1.84,0,0,0,.51,1.65,6.39,6.39,0,0,0,3.8,2,3.15,3.15,0,0,0,1.92-.23,1.51,1.51,0,0,0,.79-1.29,3.27,3.27,0,0,0-.61-1.8,6.55,6.55,0,0,0-1.5-1.57,11.22,11.22,0,0,0-4.06-2,5.62,5.62,0,0,0-4.13.29,3,3,0,0,0-1.3,3.38,8.44,8.44,0,0,0,2.27,3.83,10.73,10.73,0,0,0,.86.79,6.62,6.62,0,0,0,.92.6,13.06,13.06,0,0,0,2.19.84,36.86,36.86,0,0,0,4.76,1c3.23.51,6.51.88,9.77,1.45a38.63,38.63,0,0,1,4.85,1.1,15.81,15.81,0,0,1,2.3.93,6.18,6.18,0,0,1,2,1.5A9.38,9.38,0,0,0,141,86.5a39.49,39.49,0,0,0-4.84-.84c-3.26-.4-6.55-.58-9.84-1a39,39,0,0,1-4.94-.86,13.39,13.39,0,0,1-2.44-.86,7.36,7.36,0,0,1-1.16-.71c-.35-.27-.68-.54-1-.84a9.25,9.25,0,0,1-2.86-4.46A5.12,5.12,0,0,1,114,74a4.4,4.4,0,0,1,1.87-2.32,7.34,7.34,0,0,1,5.47-.56,12.21,12.21,0,0,1,4.75,2.33,8.22,8.22,0,0,1,1.87,2,4.77,4.77,0,0,1,.85,2.83A3.22,3.22,0,0,1,127,81a4.93,4.93,0,0,1-2.92.32,7.54,7.54,0,0,1-2.55-1,6.9,6.9,0,0,1-2.07-1.79,3.88,3.88,0,0,1-.65-1.32,2.32,2.32,0,0,1,.11-1.63,2.14,2.14,0,0,1,1.25-1.08,3.23,3.23,0,0,1,1.47-.09,5,5,0,0,1,2.43,1.15,3.28,3.28,0,0,1,.86,1.09,1.58,1.58,0,0,1,0,1.48,1.4,1.4,0,0,1-1.3.61,3,3,0,0,1-1.26-.38,2.64,2.64,0,0,1-.94-.88C121.24,77.19,121.2,76.61,121.6,76.39Z"/><ellipse class="cls-8" cx="39.31" cy="31.37" rx="8.52" ry="10.13" transform="translate(-9.65 42.85) rotate(-51.79)"/><path class="cls-9" d="M41.25,32.47a4,4,0,0,1,.27-2.35,3.74,3.74,0,0,1,1.26-1.5"/><path class="cls-9" d="M39.74,36.26A3.84,3.84,0,0,1,40,33.94a3.53,3.53,0,0,1,1.25-1.47"/><path class="cls-9" d="M37.56,33.1a.54.54,0,0,1,.35,0,1.24,1.24,0,0,1,.36.19.78.78,0,0,1,.22.3.46.46,0,0,1,0,.28.39.39,0,0,1-.15.23.57.57,0,0,1-.31.1,1.44,1.44,0,0,1-.4-.06,1.76,1.76,0,0,1-.39-.19,1.35,1.35,0,0,1-.32-.26.89.89,0,0,1-.21-.32.74.74,0,0,1,0-.58.66.66,0,0,1,.42-.39,1.44,1.44,0,0,1,.37-.05,1.51,1.51,0,0,1,.41.06,2.47,2.47,0,0,1,.8.35,2,2,0,0,1,.34.26l.08.07,0,0,0,0a1.53,1.53,0,0,1,.13.16,1.61,1.61,0,0,1,.29.65,1.12,1.12,0,0,1,0,.58,1,1,0,0,1-.32.45l-.06,0-.07,0-.07,0-.08,0a1.69,1.69,0,0,1-.34.09,2.42,2.42,0,0,1-.39,0l-.2,0H38l-.11,0A3.63,3.63,0,0,1,37,35a4.46,4.46,0,0,1-.77-.43,4,4,0,0,1-.65-.57,2.57,2.57,0,0,1-.44-.65A1.76,1.76,0,0,1,35,32.13a1.56,1.56,0,0,1,.62-.9l.26-.15.08,0,.07,0,.16,0a2.63,2.63,0,0,1,.7-.09l.38,0h.19l.19,0,.19,0,.19.05.18.05.19.06a11.83,11.83,0,0,1,1.43.57l.35.16.34.17.68.36c-.47-.19-.94-.37-1.41-.53s-.94-.31-1.39-.42a5.94,5.94,0,0,0-.67-.12l-.16,0h-.45a2.5,2.5,0,0,0-.52.11l-.11.05,0,0-.05,0a.86.86,0,0,0-.18.14,1.18,1.18,0,0,0-.4.74,1.68,1.68,0,0,0,.13.9.94.94,0,0,0,.12.22,1.7,1.7,0,0,0,.15.22,1.89,1.89,0,0,0,.2.2,1.5,1.5,0,0,0,.23.2,2.4,2.4,0,0,0,.26.18l.27.16a3.38,3.38,0,0,0,.58.21h.14l.14,0h.27l.23-.05.06,0,0,0,0,0,0,0a.8.8,0,0,0,.33-.74,1.13,1.13,0,0,0-.17-.45l-.09-.11,0,0,0,0-.05-.06L38.49,33a2.32,2.32,0,0,0-.57-.28,1.47,1.47,0,0,0-.29-.05.74.74,0,0,0-.26,0A.49.49,0,0,0,37,33a.55.55,0,0,0,0,.44.92.92,0,0,0,.37.43,1.06,1.06,0,0,0,.59.21.45.45,0,0,0,.24-.06.36.36,0,0,0,.14-.16.44.44,0,0,0-.15-.47.83.83,0,0,0-.3-.18.48.48,0,0,0-.31,0"/><line class="cls-9" x1="40.28" y1="36.56" x2="43.32" y2="28.92"/><path class="cls-9" d="M39.19,29.09a.66.66,0,0,0,.25.28,1.37,1.37,0,0,0,.38.15.67.67,0,0,0,.35,0,.46.46,0,0,0,.21-.18.45.45,0,0,0,0-.27.61.61,0,0,0-.14-.31,1.4,1.4,0,0,0-.31-.28,3.39,3.39,0,0,0-.39-.18,1.89,1.89,0,0,0-.4-.08,1.25,1.25,0,0,0-.36,0,.67.67,0,0,0-.41.38.7.7,0,0,0,0,.6,1.26,1.26,0,0,0,.21.32,1.78,1.78,0,0,0,.32.29,2.62,2.62,0,0,0,.78.4,2.71,2.71,0,0,0,.41.09h.4a1.31,1.31,0,0,0,.63-.21,1.06,1.06,0,0,0,.37-.42,1.08,1.08,0,0,0,.1-.57v-.08a.24.24,0,0,0,0-.08l0-.08,0-.09a1.73,1.73,0,0,0-.17-.33,2.43,2.43,0,0,0-.24-.32L41,28l-.08-.07-.08-.08a4.79,4.79,0,0,0-.75-.48,4.22,4.22,0,0,0-.81-.31,3.52,3.52,0,0,0-.83-.14,2.41,2.41,0,0,0-.74.1,1.53,1.53,0,0,0-.92.72,1.67,1.67,0,0,0-.2,1.09c0,.1,0,.21.08.31l0,.08,0,.08a.8.8,0,0,0,.08.16,3.83,3.83,0,0,0,.41.61l.27.28.08.07.07.06.16.13.15.12.16.12.17.11.16.11a15.05,15.05,0,0,0,1.36.75l.35.16.35.16.7.29q-.67-.36-1.32-.75c-.43-.27-.84-.54-1.23-.83-.19-.14-.37-.29-.54-.44L38,30.3,38,30.25l-.05-.06a2.12,2.12,0,0,1-.2-.24,2.45,2.45,0,0,1-.28-.49s0-.08,0-.12l0-.05v-.06a1,1,0,0,1,0-.23,1.23,1.23,0,0,1,.24-.82,1.41,1.41,0,0,1,.7-.51l.24-.06.25,0H39l.29,0a1.71,1.71,0,0,1,.3.09l.29.11a2.82,2.82,0,0,1,.54.31l0,.05.06.05.11.1a1.68,1.68,0,0,1,.18.21,1.19,1.19,0,0,1,.12.22.17.17,0,0,1,0,.05l0,.06s0,0,0,.05V29a.79.79,0,0,1-.29.76.83.83,0,0,1-.42.17h-.27l-.3-.05a2.27,2.27,0,0,1-.57-.26,1.5,1.5,0,0,1-.23-.2.82.82,0,0,1-.16-.22.53.53,0,0,1,0-.44.5.5,0,0,1,.28-.31.79.79,0,0,1,.55,0,1.2,1.2,0,0,1,.54.33.47.47,0,0,1,.12.23.33.33,0,0,1,0,.22.38.38,0,0,1-.42.2.94.94,0,0,1-.32-.11.56.56,0,0,1-.23-.23"/><line class="cls-9" x1="39.77" y1="36.28" x2="42.82" y2="28.63"/><path class="cls-10" d="M92.41,55.2A9,9,0,0,1,92,60.63a8,8,0,0,1-2.84,3.42"/><path class="cls-11" d="M95.77,46a9.15,9.15,0,0,1-.37,5.64,8,8,0,0,1-3,3.53"/><path class="cls-12" d="M101.48,53a1.29,1.29,0,0,1-.87,0,2.29,2.29,0,0,1-.86-.48,1.73,1.73,0,0,1-.52-.77,1.36,1.36,0,0,1,0-.77,1.19,1.19,0,0,1,.38-.63,1.34,1.34,0,0,1,.77-.31,2.33,2.33,0,0,1,1,.1,3.66,3.66,0,0,1,.94.44,3.59,3.59,0,0,1,.78.67,2.52,2.52,0,0,1,.49.82,2.21,2.21,0,0,1,0,1.58,1.88,1.88,0,0,1-1.07,1.11,2.76,2.76,0,0,1-.89.19,4.33,4.33,0,0,1-1-.09A5.52,5.52,0,0,1,98.65,54a5.8,5.8,0,0,1-.83-.65l-.19-.19-.09-.09-.08-.1a3.68,3.68,0,0,1-.31-.41,4.08,4.08,0,0,1-.67-1.7,3.46,3.46,0,0,1,.13-1.58A3,3,0,0,1,97.43,48l.15-.14.16-.12.17-.12.19-.1a3.89,3.89,0,0,1,.85-.3,4.19,4.19,0,0,1,1-.11,4,4,0,0,1,.49,0l.25,0,.26,0a8.25,8.25,0,0,1,2,.59,10.29,10.29,0,0,1,1.85,1.06,8.87,8.87,0,0,1,1.57,1.43,6.54,6.54,0,0,1,1,1.71,5.11,5.11,0,0,1,.25,3.26,4.76,4.76,0,0,1-1.56,2.51,4.46,4.46,0,0,1-.66.44l-.18.1-.19.09-.39.15a6.73,6.73,0,0,1-1.71.32,5.66,5.66,0,0,1-.92,0h-.24l-.23,0a3.81,3.81,0,0,1-.47-.07l-.46-.08-.46-.11-.45-.11-.45-.13A28.58,28.58,0,0,1,95.79,57L95,56.56l-.83-.41c-.56-.27-1.1-.56-1.64-.87q1.71.67,3.42,1.23a31.14,31.14,0,0,0,3.39.93,13.65,13.65,0,0,0,1.63.24c.13,0,.26,0,.38,0h.38a5.49,5.49,0,0,0,.72-.07,4.33,4.33,0,0,0,1.28-.37l.28-.14.12-.07.13-.09a2.67,2.67,0,0,0,.44-.38,3.77,3.77,0,0,0,1-2.07,4.75,4.75,0,0,0-.27-2.43,5.12,5.12,0,0,0-.28-.58,3.87,3.87,0,0,0-.37-.56c-.13-.18-.29-.35-.45-.53s-.36-.34-.56-.5-.41-.31-.62-.45-.44-.27-.67-.38a5.54,5.54,0,0,0-1.4-.48l-.17,0-.17,0-.35,0a3.36,3.36,0,0,0-.65,0,2.6,2.6,0,0,0-.58.16l-.13.06-.12.08-.12.07-.11.09a2.33,2.33,0,0,0-.84,2,2.65,2.65,0,0,0,.39,1.21,2.75,2.75,0,0,0,.19.28l0,.07.06.06.13.14a4.57,4.57,0,0,0,.57.49,4.06,4.06,0,0,0,1.37.67,2.9,2.9,0,0,0,.71.1,2.08,2.08,0,0,0,.63-.09,1.4,1.4,0,0,0,.83-.75,1.67,1.67,0,0,0,.09-1.19,2.15,2.15,0,0,0-.87-1.12,2.45,2.45,0,0,0-1.43-.49,1,1,0,0,0-.6.2,1,1,0,0,0-.35.47,1.21,1.21,0,0,0,.35,1.25,2.19,2.19,0,0,0,.7.44,1.25,1.25,0,0,0,.76,0"/><line class="cls-13" x1="93.56" y1="45.76" x2="87.75" y2="62.31"/><path class="cls-12" d="M97.26,64a1.53,1.53,0,0,0-.6-.7,2.42,2.42,0,0,0-.91-.35,1.42,1.42,0,0,0-.86.12,1.19,1.19,0,0,0-.53.51,1.3,1.3,0,0,0-.14.74,1.67,1.67,0,0,0,.33.83,2.79,2.79,0,0,0,.75.7,3.66,3.66,0,0,0,.94.44,3.27,3.27,0,0,0,1,.15,2.19,2.19,0,0,0,.88-.18,2,2,0,0,0,1-1.09,2.22,2.22,0,0,0,0-1.62,3.45,3.45,0,0,0-.5-.84,4.45,4.45,0,0,0-.76-.74A5.8,5.8,0,0,0,95,60.86l-.25,0h-.25a3.73,3.73,0,0,0-.48,0,3.2,3.2,0,0,0-1.57.66,3.16,3.16,0,0,0-.93,1.19,3.45,3.45,0,0,0-.26,1.55l0,.21a.85.85,0,0,0,0,.22l0,.22.06.22a4.6,4.6,0,0,0,.4.88,5.72,5.72,0,0,0,.59.83c.11.13.22.25.35.38a1.7,1.7,0,0,0,.19.19l.2.18a8.31,8.31,0,0,0,1.8,1.2,9.77,9.77,0,0,0,2,.73,7.35,7.35,0,0,0,2,.24,5.05,5.05,0,0,0,1.83-.36A4.43,4.43,0,0,0,103,67.34a5.17,5.17,0,0,0,.53-3,6.44,6.44,0,0,0-.17-.83l-.07-.21c0-.07,0-.14-.07-.21s-.11-.28-.18-.42a8,8,0,0,0-1-1.58c-.2-.25-.42-.49-.65-.73l-.17-.17-.18-.17c-.13-.11-.24-.22-.37-.32l-.38-.31-.39-.29-.39-.28-.39-.26a30.43,30.43,0,0,0-3.29-1.83l-.84-.4L94.19,56q-.85-.36-1.71-.69c1.08.6,2.15,1.21,3.18,1.85a33.68,33.68,0,0,1,3,2,14.43,14.43,0,0,1,1.3,1.13c.1.09.18.19.28.29l.14.15.12.15a6.5,6.5,0,0,1,.46.61,6.23,6.23,0,0,1,.66,1.28c0,.11.07.21.1.32a.83.83,0,0,0,0,.15l0,.15q0,.31.06.63a3.9,3.9,0,0,1-2.39,3.72,3.47,3.47,0,0,1-.57.19,4.22,4.22,0,0,1-.62.1,3.64,3.64,0,0,1-.66,0,6,6,0,0,1-.71-.09,6.47,6.47,0,0,1-.73-.18,6.09,6.09,0,0,1-.71-.27,5.38,5.38,0,0,1-1.29-.77L94,66.63l-.13-.13-.26-.25a5.46,5.46,0,0,1-.43-.55,3.07,3.07,0,0,1-.29-.57l0-.15,0-.15s0-.09,0-.14l0-.15a2.43,2.43,0,0,1,.74-2.1,2.23,2.23,0,0,1,1-.53l.32,0h.34a3.7,3.7,0,0,1,.72.11,4.15,4.15,0,0,1,1.39.62,3.26,3.26,0,0,1,.55.49,2.89,2.89,0,0,1,.39.57,1.65,1.65,0,0,1,.09,1.19,1.49,1.49,0,0,1-.71.89,1.8,1.8,0,0,1-1.33.09A2.47,2.47,0,0,1,95,65a1.25,1.25,0,0,1-.3-.61,1.11,1.11,0,0,1,.07-.6,1,1,0,0,1,1.05-.59,1.79,1.79,0,0,1,.78.25,1.37,1.37,0,0,1,.55.57"/><line class="cls-14" x1="95.77" y1="46.01" x2="89.04" y2="64.01"/><text class="cls-15" transform="matrix(0.96, 0.37, -0.27, 0.96, 50.52, 41.52)"><tspan class="cls-16">J</tspan><tspan x="5.22" y="0">ames</tspan></text><path class="cls-17" d="M259.75,147.26Q234.08,133.71,206.12,120q-27.19-13.33-53-25,1.76-4.32,4-8.87,2.61-5.4,5.38-10.14,25.89,11.61,53.19,24.94,27.87,13.67,53.42,27.36-2.15,5.15-4.82,10.54C262.78,141.74,261.27,144.57,259.75,147.26Z"/><text class="cls-18" transform="matrix(0.99, 0.49, -0.44, 0.9, 163.25, 90.94)">My Memory Mission</text><path class="cls-19" d="M4.12,15.82c6.33-16.07,42.05-18.08,67-14C113.34,8.73,118,31.9,174.91,65.36c56.39,33.16,95.92,36.35,99.1,62.37.85,7-.7,17.26-7.58,22.74-17.5,13.95-49.45-19.18-114.83-43.14C92,85.49,69.09,94.92,34.36,65.47,29.86,61.65-3,33.81,4.12,15.82Z"/></svg>