<svg xmlns="http://www.w3.org/2000/svg" viewBox="24.08 0 161 161">
    <defs>
        <style>.cls-1{fill:#00adee;}.cls-2,.cls-6,.cls-8{fill:#fff;}.cls-2,.cls-3,.cls-8{stroke:#fff;}.cls-2,.cls-3,.cls-4,.cls-7,.cls-8{stroke-miterlimit:10;}.cls-2{stroke-width:3px;}.cls-3,.cls-4,.cls-5{fill:none;}.cls-3{stroke-width:6px;}.cls-4{stroke:#00adee;stroke-linecap:round;stroke-width:5px;}.cls-7{font-size:18px;fill:#240000;stroke:#231f20;font-family:Geneva;}.cls-8{stroke-linecap:square;}</style>
    </defs>
    <title>buy button3</title>
    <g id="Layer_3" data-name="Layer 3">
        <rect class="cls-1" x="24.08" width="160.5" height="160.5"/>
        <path class="cls-2" d="M229.17,344c34.08,0,72.2-.64,106.28-.64" transform="translate(-173 -283.97)"/>
        <line class="cls-2" x1="110.82" y1="109.7" x2="141.71" y2="59.29"/>
        <line class="cls-2" x1="110.31" y1="58.1" x2="109.63" y2="111.32"/>
        <line class="cls-2" x1="78.53" y1="59.03" x2="108.44" y2="111.58"/>
        <polygon class="cls-3" points="109.47 115.49 162.45 59.61 135.25 30.92 81.91 30.92 53.99 60.37 109.47 115.49"/>
    </g>
    <g id="Layer_1" data-name="Layer 1">
        <path class="cls-4" d="M341.87,321.6" transform="translate(-173 -283.97)"/>
        <line class="cls-5" y1="99.45" y2="100.04"/>
        <rect class="cls-6" x="34.71" y="127.24" width="137" height="22"/>
        <text x="-173" y="-283.97"/>
        <text class="cls-7" transform="translate(71 145.35) scale(0.87 1)">BUY NOW</text>
        <path class="cls-8" d="M217,321.15a5.19,5.19,0,0,1-1.87,1.12,8.13,8.13,0,0,1,3.32,6.92,7.4,7.4,0,0,1,1.72-5,7.07,7.07,0,0,1,2.24-1.67,5.8,5.8,0,0,1-1.9-1.23,6.54,6.54,0,0,1-1.86-4.31A5.68,5.68,0,0,1,217,321.15Z" transform="translate(-173 -283.97)"/>
        <polygon class="cls-6" points="45.56 27.59 46.17 33.03 45.17 33.05 45.56 27.59"/>
        <polygon class="cls-6" points="45.59 51.1 45.97 45.16 44.96 45.19 45.59 51.1"/>
        <path class="cls-8" d="M272,371.48a5.15,5.15,0,0,1-1.88,1.12,8.23,8.23,0,0,1,2,2.18,8.5,8.5,0,0,1,1.29,4.75,7.31,7.31,0,0,1,1.71-5,6.69,6.69,0,0,1,2.25-1.67,6.05,6.05,0,0,1-1.91-1.24,6.45,6.45,0,0,1-1.85-4.3A5.76,5.76,0,0,1,272,371.48Z" transform="translate(-173 -283.97)"/>
        <polygon class="cls-6" points="100.53 77.92 101.15 83.36 100.14 83.39 100.53 77.92"/>
        <polygon class="cls-6" points="100.56 101.44 100.94 95.5 99.94 95.52 100.56 101.44"/>
        <path class="cls-8" d="M334.52,324.65a3.71,3.71,0,0,0,1.39,1.12A7.8,7.8,0,0,0,334.4,328a10.8,10.8,0,0,0-.95,4.75,9.17,9.17,0,0,0-1.27-5,5.38,5.38,0,0,0-1.66-1.67,4.64,4.64,0,0,0,1.41-1.24,7.87,7.87,0,0,0,1.37-4.3A7,7,0,0,0,334.52,324.65Z" transform="translate(-173 -283.97)"/>
        <polygon class="cls-6" points="160.42 31.49 159.78 36.93 160.76 36.95 160.42 31.49"/>
        <polygon class="cls-6" points="160.07 54.61 159.79 48.67 160.54 48.69 160.07 54.61"/>
        <path class="cls-2" d="M276.14,392.25" transform="translate(-173 -283.97)"/>
    </g>
</svg>