<?xml version="1.0" encoding="utf-8"?>
<!-- Generator: Adobe Illustrator 23.0.3, SVG Export Plug-In . SVG Version: 6.00 Build 0)  -->
<svg version="1.1" id="Layer_1" xmlns="http://www.w3.org/2000/svg" xmlns:xlink="http://www.w3.org/1999/xlink" x="0px" y="0px"
	 viewBox="11.7 9.2 160.5 160.5" style="enable-background:new 11.7 9.2 160.5 160.5;" xml:space="preserve">
<style type="text/css">
	.st0{fill:#FFFF3C;}
	.st1{fill:none;stroke:#FF4BBD;stroke-width:3;stroke-linecap:round;stroke-miterlimit:10;}
	.st2{fill:#FF4BBD;stroke:#FF4BBD;stroke-miterlimit:10;}
	.st3{fill:none;stroke:#6CB5FB;stroke-width:3;stroke-linecap:round;stroke-miterlimit:10;}
	.st4{fill:#6CB5FB;stroke:#6CB5FB;stroke-miterlimit:10;}
	.st5{fill:#FFFFFF;stroke:#FFFFFF;stroke-linecap:square;stroke-miterlimit:10;}
	.st6{fill:#FFFFFF;}
	.st7{fill:none;}
	.st8{font-family:'Actor';}
	.st9{font-size:20px;}
</style>
<rect x="11.7" y="9.2" class="st0" width="160.5" height="160.5"/>
<g>
	<path class="st1" d="M34,106.8c-0.8,1-1,2.3-0.1,3.3c1.1,1.3,2.9,1.5,4.1,0.3c1.5-1.5,1.7-3.8,0.3-5.5c-1.8-2.1-4.5-2.1-6.4-0.2
		c-2.3,2.3-2.5,5.8-0.4,8.1c2.7,2.9,7,3.8,9.9,0.8c3.6-3.7,4.2-9.5,0.7-13.5c-4.5-5.1-10.6-5.1-15.6-0.6c-5.8,5.2-5.6,16.5-0.7,19.9
		c0.9,0.7,2.7,1.5,8.7,0.7c9.7-1.3,16.6-5,16.8-5c18.3-9.6,43.2,7.9,58.1-0.7c6.2-3.6,8.3-15.4,3.1-20.9c-4.4-4.6-12.9-3.5-17.1,1.6
		c-3.1,3.7-5.4,10.6-1.3,14.6c3.1,3.1,8.1,1.6,11-1.5c2.1-2.3,3.3-6.4,0.8-8.9c-2-1.9-5.2-1.4-7,0.7c-1.3,1.5-2.2,4.3-0.5,6
		c1.2,1.2,3.3,0.9,4.5-0.5c0.8-1,0.9-2.6,0.3-3.8"/>
</g>
<path class="st2" d="M48.2,115c-0.3-1.5-1.9-10.6,3.8-18.5c6.8-9.5,17.9-8.7,19.3-8.5c1.8,0.2,8.3,0.9,13.7,6.7
	c7.4,8.1,6.1,19.1,5.9,20.4"/>
<g>
	<path class="st3" d="M102.3,64.3c-1.3,0-2.3,0.8-2.4,2.1c-0.1,1.7,1,3.1,2.7,3.2c2.1,0.1,3.8-1.3,4-3.4c0.2-2.7-1.7-4.7-4.3-4.9
		c-3.2-0.2-5.8,1.9-5.9,5.1c-0.1,4,2.3,7.6,6.4,7.9c5.1,0.3,9.6-3.1,9.8-8.4c0.4-6.6-3.9-11.2-10.6-12c-8.3-1-13.6,6.1-14.3,12.5
		c-0.4,4.3,3.9,8.6,4.5,9.4c3.4,4.6,14.9,5.6,16.5,6.7c16.9,11.2,26.9,37.9,41.3,42.7c6.9,2.3,16.5-4,16.6-11.4
		c0.1-6.3-6.6-11.8-13.1-11.6c-4.7,0.1-11.1,2.9-11,8.6c0.1,4.3,4.6,7.1,8.7,7.2c3.1,0.1,6.8-1.8,6.7-5.3c-0.1-2.7-2.7-4.8-5.4-4.8
		c-2,0-4.5,1.2-4.5,3.5c0,1.7,1.6,3,3.5,3c1.2,0,2.4-1,2.9-2.2"/>
</g>
<path class="st4" d="M106.6,80.2c0.8-1.2,6-8.3,15.4-9.3c11.3-1.2,18.6,7.6,19.5,8.7c1.1,1.4,5.3,6.8,5,14.5
	c-0.3,10.8-8.9,17-9.9,17.8"/>
<path class="st5" d="M57.6,96.1c-0.7,0.6-1.4,0.9-1.9,1.1c0.6,0.4,1.4,1.1,2,2.2c1.2,1.9,1.3,3.9,1.3,4.8c0-0.7,0-3,1.7-5
	c0.8-0.9,1.6-1.4,2.2-1.7c-0.5-0.2-1.2-0.6-1.9-1.2c-1.7-1.6-1.8-3.7-1.8-4.3C59.2,92.4,59.2,94.5,57.6,96.1z"/>
<polygon class="st6" points="59.1,86.5 59.7,91.9 58.7,91.9 "/>
<polygon class="st6" points="59.1,110 59.5,104 58.5,104.1 "/>
<path class="st5" d="M118.1,72.3c-0.7,0.6-1.4,0.9-1.9,1.1c0.6,0.4,1.4,1.1,2,2.2c1.2,1.9,1.3,3.9,1.3,4.8c0-0.7,0-3,1.7-5
	c0.8-0.9,1.6-1.4,2.2-1.7c-0.5-0.2-1.2-0.6-1.9-1.2c-1.7-1.6-1.8-3.7-1.8-4.3C119.8,68.6,119.8,70.7,118.1,72.3z"/>
<polygon class="st6" points="119.7,62.7 120.3,68.1 119.3,68.1 "/>
<polygon class="st6" points="119.7,86.2 120.1,80.3 119.1,80.3 "/>
<path class="st5" d="M132.6,104.8c-0.7,0.6-1.4,0.9-1.9,1.1c0.6,0.4,1.4,1.1,2,2.2c1.2,1.9,1.3,3.9,1.3,4.8c0-0.7,0-3,1.7-5
	c0.8-0.9,1.6-1.4,2.2-1.7c-0.5-0.2-1.2-0.6-1.9-1.2c-1.6-1.6-1.8-3.7-1.9-4.3C134.2,101.1,134.2,103.2,132.6,104.8z"/>
<polygon class="st6" points="134.1,95.2 134.7,100.6 133.7,100.6 "/>
<polygon class="st6" points="134.1,118.7 134.5,112.7 133.5,112.8 "/>
<path class="st6" d="M150.4,158.8H33.8c-4.6,0-8.3-3.7-8.3-8.3v-9c0-4.6,3.7-8.3,8.3-8.3h116.6c4.6,0,8.3,3.7,8.3,8.3v9
	C158.7,155.1,155,158.8,150.4,158.8z"/>
<rect x="29.2" y="136.6" class="st7" width="124.8" height="17.9"/>
<text transform="matrix(1 0 0 1 58.8467 150.7529)" class="st8 st9">Contact</text>
</svg>
