<?xml version="1.0" encoding="utf-8"?>
<!-- Generator: Adobe Illustrator 23.0.3, SVG Export Plug-In . SVG Version: 6.00 Build 0)  -->
<svg version="1.1" id="Layer_1" xmlns="http://www.w3.org/2000/svg" xmlns:xlink="http://www.w3.org/1999/xlink" x="0px" y="0px"
	 viewBox="0 0 161.5 161.5" style="enable-background:new 0 0 161.5 161.5;" xml:space="preserve">
<style type="text/css">
	.st0{fill:none;stroke:#61AAEA;stroke-width:5;stroke-linecap:round;stroke-miterlimit:10;}
	.st1{fill:none;}
	.st2{fill:#FF4BBD;stroke:#FF4BBD;stroke-miterlimit:10;}
	.st3{fill:none;stroke:#FFFF3C;stroke-width:6;stroke-linecap:round;stroke-miterlimit:10;}
	.st4{fill:#FAF038;stroke:#FAF038;stroke-width:4;stroke-linecap:round;stroke-miterlimit:10;}
	.st5{fill:#FAF038;stroke:#FFFF3C;stroke-width:6;stroke-linecap:round;stroke-miterlimit:10;}
	.st6{fill:#FAF038;stroke:#FFFF3C;stroke-width:6;stroke-miterlimit:10;}
	.st7{fill:#FFFFFF;stroke:#FFFFFF;stroke-linecap:square;stroke-miterlimit:10;}
	.st8{fill:#FFFFFF;}
	.st9{font-family:'Actor';}
	.st10{font-size:20px;}
</style>
<path class="st0" d="M168.5,37.7"/>
<line class="st1" x1="-0.4" y1="99.5" x2="-0.4" y2="100.1"/>
<rect x="0.5" y="0.5" class="st2" width="160.5" height="160.5"/>
<path class="st3" d="M80.1,80.7c0-19.5-17.5-35.3-39.1-35.3C23.8,45.4,9.8,58,9.8,73.6c0,12.5,11.2,22.6,25,22.6
	c11,0,20-8.1,20-18.1c0-8-7.2-14.5-16-14.5c-7.1,0-12.8,5.2-12.8,11.6c0,5.1,4.6,9.3,10.2,9.3c4.5,0,8.2-3.3,8.2-7.4
	c0-3.1-3.6-6.2-6.5-5.9c-1.2,0.1-3.1,0.8-3.5,2.4c-0.5,1.6,0.8,3,0.9,3.2"/>
<path class="st4" d="M80.1,80.7c0.1,5.2,0.3,10.4,0.4,15.5"/>
<path class="st3" d="M80.8,80.7c0-19.5,17.8-35.3,39.7-35.3c17.6,0,31.8,12.6,31.8,28.3c0,12.5-11.4,22.6-25.4,22.6
	c-11.2,0-20.3-8.1-20.3-18.1c0-8,7.3-14.5,16.3-14.5c7.2,0,13,5.2,13,11.6c0,5.1-4.7,9.3-10.4,9.3c-4.6,0-8.3-3.3-8.3-7.4
	c0-3.1,3.6-6.2,6.7-5.9c1.2,0.1,3.1,0.8,3.6,2.4c0.5,1.6-0.8,3-0.9,3.2"/>
<path class="st5" d="M80.3,80.7c0,5.2,0,10.4,0,15.6"/>
<path class="st6" d="M146.3,96.1L146.3,96.1l-126.7,0c-1.4,0-2.5,0.1-2.5,0.1c0,0.1,1.1,0.1,2.5,0.1l0,0l126.7,0
	c1.4,0,2.5-0.1,2.5-0.1C148.8,96.2,147.7,96.1,146.3,96.1z"/>
<path class="st7" d="M43.7,37.2c-0.7,0.6-1.4,1-1.9,1.1c0.6,0.4,1.4,1.1,2,2.2c1.2,2,1.3,3.9,1.3,4.8c0-0.7,0-3,1.7-5
	c0.8-0.9,1.6-1.4,2.2-1.7c-0.5-0.2-1.2-0.6-1.9-1.2c-1.7-1.6-1.8-3.7-1.8-4.3C45.3,33.5,45.3,35.7,43.7,37.2z"/>
<polygon class="st8" points="45.2,27.6 45.8,33 44.8,33.1 "/>
<polygon class="st8" points="45.2,51.1 45.6,45.2 44.6,45.2 "/>
<path class="st7" d="M98.6,87.5c-0.7,0.6-1.4,0.9-1.9,1.1c0.6,0.4,1.4,1.1,2,2.2c1.2,1.9,1.3,3.9,1.3,4.8c0-0.7,0-3,1.7-5
	c0.8-0.9,1.6-1.4,2.2-1.7c-0.5-0.2-1.2-0.6-1.9-1.2c-1.7-1.6-1.8-3.7-1.8-4.3C100.3,83.9,100.2,86,98.6,87.5z"/>
<polygon class="st8" points="100.2,77.9 100.8,83.4 99.8,83.4 "/>
<polygon class="st8" points="100.2,101.5 100.6,95.5 99.6,95.5 "/>
<path class="st7" d="M151.4,48.7c0.5,0.6,1,1,1.4,1.1c-0.4,0.4-1,1.1-1.5,2.2c-0.9,2-1,3.9-0.9,4.8c0-0.7,0-3-1.3-5
	c-0.6-0.9-1.2-1.4-1.7-1.7c0.4-0.2,0.9-0.6,1.4-1.2c1.2-1.6,1.4-3.7,1.4-4.3C150.2,45.1,150.2,47.2,151.4,48.7z"/>
<polygon class="st8" points="150.3,39.2 149.9,44.6 150.6,44.6 "/>
<polygon class="st8" points="150.3,62.7 150,56.7 150.8,56.8 "/>
<path class="st8" d="M137.7,146.3H22.2c-4.9,0-8.9-4-8.9-8.9v-7.9c0-4.9,4-8.9,8.9-8.9h115.4c4.9,0,8.9,4,8.9,8.9v7.9
	C146.5,142.3,142.6,146.3,137.7,146.3z"/>
<rect x="18.9" y="125" class="st1" width="127.8" height="16.7"/>
<text transform="matrix(1 0 0 1 36.373 139.1641)" class="st9 st10">Curriculum</text>
</svg>
