<svg id="Layer_1" data-name="Layer 1" xmlns="http://www.w3.org/2000/svg" viewBox="0 0 160.5 160.5"><defs><style>.cls-1{fill:#ffff3c;}.cls-2,.cls-6{fill:#fff;}.cls-3,.cls-4{fill:#ff4bbd;}.cls-4,.cls-5{stroke:#ff4bbd;stroke-linecap:round;}.cls-4,.cls-5,.cls-6{stroke-miterlimit:10;}.cls-5{fill:none;stroke-width:2px;}.cls-6{stroke:#fff;stroke-linecap:square;}.cls-7{font-size:20px;font-family:Actor;}</style></defs><title>home</title><rect class="cls-1" width="160.5" height="160.5"/><rect class="cls-2" x="79.22" y="50.41" width="46.21" height="58.31"/><rect class="cls-2" x="33.01" y="67.38" width="46.21" height="41.34"/><polygon class="cls-2" points="102.32 16.86 79.22 50.41 125.43 50.41 102.32 16.86"/><polygon class="cls-2" points="56.11 53.83 33.01 67.38 79.22 67.38 56.11 53.83"/><rect class="cls-3" x="104.46" y="64.01" width="7.43" height="20.08"/><rect class="cls-3" x="95.6" y="64.01" width="7.59" height="20.08"/><circle class="cls-3" cx="103.38" cy="45.2" r="6.95"/><rect class="cls-2" x="49.25" y="71.42" width="13.72" height="25.36"/><ellipse class="cls-2" cx="103.38" cy="45.2" rx="3.99" ry="3.81"/><rect class="cls-4" x="49.57" y="68.21" width="13.08" height="28.21"/><path class="cls-5" d="M102.53,17.35l9.58,13.91c3.07,4.46,4.79,6.84,7.31,10.61,1.61,2.41,2.76,4.59,5.6,8.65a8.57,8.57,0,0,0,2.52,2.58,9.32,9.32,0,0,0,6.69,1c.62-.13,5.53-1.23,7.27-5.82a9.48,9.48,0,0,0-.21-6.9,6.89,6.89,0,0,0-2-2.91,7.2,7.2,0,0,0-5-1.43c-.38,0-5.32.36-6.72,4.12A5.79,5.79,0,0,0,128,46a5.42,5.42,0,0,0,6.27,2.3c1.37-.55,2.89-2,2.66-3.58a2.49,2.49,0,0,0-1.43-1.86,2.2,2.2,0,0,0-2.57.43,2.07,2.07,0,0,0,0,2.43" transform="translate(-0.21 -0.49)"/><path class="cls-5" d="M102.53,17.35,93.27,30.47l-4.5,6.38-2.55,3.62L78.87,50.89a6.39,6.39,0,0,1-3.05,1.19,7.05,7.05,0,0,1-5.44-2.16A7.31,7.31,0,0,1,68,45.69a6.38,6.38,0,0,1,.64-4,6.57,6.57,0,0,1,3.86-3.06,6.29,6.29,0,0,1,4.76.23,4.75,4.75,0,0,1,2.38,2.38,5.06,5.06,0,0,1-.79,4.65,4,4,0,0,1-3,1.7,3.83,3.83,0,0,1-2.39-1A3,3,0,0,1,72,44.39c0-1,.69-2.28,1.86-2.3a2.09,2.09,0,0,1,2,1.95" transform="translate(-0.21 -0.49)"/><polygon class="cls-3" points="102.32 14.75 104.12 17.87 100.52 17.87 102.32 14.75"/><path class="cls-5" d="M56.32,54.32,44.83,61.06,33.22,67.87a7,7,0,0,1-5.94.18,4.67,4.67,0,0,1-2.6-2.9,4.57,4.57,0,0,1,1.71-4.44c1.5-1.21,4-1.65,5.56-.37.94.77,1.88,2.42,1.17,3.77a2.74,2.74,0,0,1-3,1.28c-.64-.19-1.65-.82-1.53-1.63a1.68,1.68,0,0,1,1.63-1.19" transform="translate(-0.21 -0.49)"/><path class="cls-5" d="M57,54.34q4.82,3.1,9.7,6.36,6.79,4.53,13.27,9a6.36,6.36,0,0,0,4.82,1.56c2.86-.39,5.52-3.15,5.16-6a5.24,5.24,0,0,0-3-3.94,4.76,4.76,0,0,0-4.06-.12,3.89,3.89,0,0,0-2.09,2.43,3.44,3.44,0,0,0,1.65,3.9c1.18.52,3,.28,3.38-.78a2.48,2.48,0,0,0-1.42-2.56" transform="translate(-0.21 -0.49)"/><polygon class="cls-3" points="56.48 52.14 60.04 55 52.91 55 56.48 52.14"/><rect class="cls-2" x="52.11" y="70.87" width="8.02" height="11.61"/><circle class="cls-2" cx="61.61" cy="84.85" r="0.84"/><path class="cls-5" d="M109.81-12.56" transform="translate(-0.21 -0.49)"/><rect class="cls-3" x="33.01" y="85.69" width="14.15" height="1.14"/><rect class="cls-3" x="45.78" y="85.69" width="1.38" height="23.03"/><rect class="cls-3" x="39.43" y="86.15" width="1.31" height="22.58"/><rect class="cls-3" x="122.93" y="49" width="2.49" height="59.72"/><rect class="cls-3" x="79.22" y="47.53" width="2.21" height="61.19"/><rect class="cls-3" x="33.01" y="66.61" width="1.85" height="42.12"/><rect class="cls-3" x="66.35" y="85.69" width="13.18" height="1.14"/><rect class="cls-3" x="66.35" y="86.15" width="1.5" height="22.58"/><rect class="cls-3" x="73.11" y="86.26" width="1.5" height="22.46"/><rect class="cls-3" x="71.37" y="34.41" width="40.38" height="2.65" transform="translate(9.99 90.38) rotate(-55.45)"/><rect class="cls-3" x="111.95" y="15.55" width="2.65" height="40.38" transform="translate(-0.5 70.06) rotate(-34.55)"/><rect class="cls-3" x="31.9" y="60.97" width="28.17" height="2.65" transform="translate(-25.2 30.85) rotate(-30)"/><rect class="cls-3" x="67.71" y="50.43" width="2.65" height="28.17" transform="translate(-23.46 84.29) rotate(-55.45)"/><path class="cls-6" d="M124.22,115a5,5,0,0,1-1.87,1.12,8.33,8.33,0,0,1,2,2.17,8.5,8.5,0,0,1,1.29,4.75,7.28,7.28,0,0,1,1.72-5,6.91,6.91,0,0,1,2.24-1.67,6.05,6.05,0,0,1-1.91-1.24,6.43,6.43,0,0,1-1.85-4.3A5.79,5.79,0,0,1,124.22,115Z" transform="translate(-0.21 -0.49)"/><polygon class="cls-2" points="125.55 104.89 126.16 110.33 125.16 110.35 125.55 104.89"/><polygon class="cls-2" points="125.57 128.4 125.95 122.47 124.95 122.49 125.57 128.4"/><path class="cls-6" d="M129.42,43.12a5,5,0,0,1-1.87,1.12,8.33,8.33,0,0,1,2,2.17,8.5,8.5,0,0,1,1.29,4.75,7.28,7.28,0,0,1,1.72-5,6.91,6.91,0,0,1,2.24-1.67,6.05,6.05,0,0,1-1.91-1.24,6.43,6.43,0,0,1-1.85-4.3A5.75,5.75,0,0,1,129.42,43.12Z" transform="translate(-0.21 -0.49)"/><polygon class="cls-2" points="130.75 33.04 131.36 38.48 130.36 38.5 130.75 33.04"/><polygon class="cls-2" points="130.78 56.56 131.16 50.62 130.15 50.64 130.78 56.56"/><path class="cls-6" d="M39.62,52.17a5,5,0,0,1-1.87,1.12,8.33,8.33,0,0,1,2,2.17,8.5,8.5,0,0,1,1.29,4.75,7.28,7.28,0,0,1,1.72-5A6.91,6.91,0,0,1,45,53.58a6.05,6.05,0,0,1-1.91-1.24A6.43,6.43,0,0,1,41.28,48,5.81,5.81,0,0,1,39.62,52.17Z" transform="translate(-0.21 -0.49)"/><polygon class="cls-2" points="40.95 42.09 41.56 47.53 40.56 47.55 40.95 42.09"/><polygon class="cls-2" points="40.97 65.61 41.35 59.67 40.35 59.69 40.97 65.61"/><rect class="cls-2" x="14.9" y="121.36" width="133.14" height="25.6" rx="9.38"/><text class="cls-7" transform="translate(56.21 139.79)">Home</text></svg>