<?xml version="1.0" encoding="utf-8"?>
<!-- Generator: Adobe Illustrator 23.0.3, SVG Export Plug-In . SVG Version: 6.00 Build 0)  -->
<svg version="1.1" id="Layer_1" xmlns="http://www.w3.org/2000/svg" xmlns:xlink="http://www.w3.org/1999/xlink" x="0px" y="0px"
	 viewBox="0 0 160.5 160.5" style="enable-background:new 0 0 160.5 160.5;" xml:space="preserve">
<style type="text/css">
	.st0{fill:none;stroke:#28B7FF;stroke-width:0.5;stroke-miterlimit:10;}
	.st1{fill:#FF4BBD;}
	.st2{fill:none;stroke:#FFFF00;stroke-width:3;stroke-miterlimit:10;}
	.st3{fill:none;stroke:#FFFFFF;stroke-miterlimit:10;}
	.st4{fill:none;stroke:#FFFF00;stroke-width:1.5;stroke-linecap:round;stroke-miterlimit:10;}
	.st5{fill:none;stroke:#FFFF00;stroke-width:3;stroke-linecap:round;stroke-miterlimit:10;}
	.st6{fill:none;stroke:#FFFF00;stroke-width:4;stroke-linecap:round;stroke-miterlimit:10;}
	.st7{fill:#FFFF00;}
	.st8{fill:none;stroke:#FFFF00;stroke-width:11;stroke-linecap:round;stroke-miterlimit:10;}
	.st9{fill:none;stroke:#FFFF00;stroke-width:5;stroke-linecap:round;stroke-miterlimit:10;}
	.st10{fill:#FF4BBD;stroke:#28B7FF;stroke-miterlimit:10;}
	.st11{fill:#28B7FF;stroke:#FF4BBD;stroke-miterlimit:10;}
	.st12{fill:none;stroke:#28B7FF;stroke-miterlimit:10;}
	.st13{fill:#28B7FF;stroke:#28B7FF;stroke-miterlimit:10;}
	.st14{fill:none;stroke:#28B7FF;stroke-width:2.5;stroke-linecap:round;stroke-miterlimit:10;}
	.st15{fill:none;stroke:#28B7FF;stroke-width:2;stroke-miterlimit:10;}
	.st16{fill:#FFFFFF;stroke:#FFFFFF;stroke-linecap:square;stroke-miterlimit:10;}
	.st17{fill:#FFFFFF;}
	.st18{fill:none;}
	.st19{font-family:'Actor';}
	.st20{font-size:20px;}
</style>
<path class="st0" d="M59,122.5c0.7,1.2,0.5,3.1-0.5,4.2c-0.8,0.9-1.9,0.9-2.5-0.1c-0.5-0.8-0.3-2,0.3-2.7c0.5-0.6,1.2-0.6,1.6,0.1
	c0.3,0.5,0.2,1.3-0.2,1.7c-0.3,0.4-0.8,0.4-1,0c-0.2-0.3-0.1-0.8,0.1-1.1c0.2-0.2,0.5-0.2,0.7,0c0.1,0.2,0.1,0.5-0.1,0.7
	c-0.1,0.2-0.3,0.2-0.4,0"/>
<path class="st0" d="M59.3,123.1c-0.7-1.2-0.5-3.1,0.5-4.2c0.8-0.9,1.8-0.9,2.4,0.1c0.5,0.8,0.3,2-0.3,2.7c-0.5,0.6-1.2,0.6-1.5,0
	c-0.3-0.5-0.2-1.2,0.2-1.7c0.3-0.4,0.8-0.4,1,0c0.2,0.3,0.1,0.8-0.1,1.1c-0.2,0.2-0.5,0.2-0.6,0c-0.1-0.2-0.1-0.5,0.1-0.7
	c0.1-0.2,0.3-0.2,0.4,0"/>
<path class="st0" d="M52,119.4c-1.4-0.4-3.2,0.4-4,1.7c-0.6,1.1-0.2,2.2,0.9,2.5c0.9,0.2,2.1-0.2,2.6-1.1c0.4-0.7,0.2-1.4-0.6-1.6
	c-0.6-0.2-1.3,0.2-1.7,0.7c-0.3,0.4-0.1,0.9,0.4,1c0.4,0.1,0.8-0.1,1.1-0.5c0.2-0.3,0.1-0.6-0.2-0.7c-0.2-0.1-0.5,0.1-0.7,0.3
	c-0.1,0.2,0,0.4,0.2,0.4"/>
<path class="st0" d="M51.3,119.3c1.4,0.4,3.2-0.4,4-1.7c0.6-1.1,0.3-2.1-0.9-2.4c-0.9-0.2-2,0.3-2.5,1.1c-0.4,0.7-0.2,1.4,0.5,1.6
	c0.6,0.2,1.3-0.2,1.6-0.7c0.3-0.4,0.1-0.9-0.3-1c-0.4-0.1-0.8,0.1-1,0.4c-0.2,0.3-0.1,0.6,0.2,0.6c0.2,0.1,0.5-0.1,0.7-0.3
	c0.1-0.2,0-0.4-0.1-0.4"/>
<rect class="st1" width="160.5" height="160.5"/>
<path class="st2" d="M95.9,108.4c0.1-30.8,0.3-61.5,0.4-92.3c2.2-0.4,6-0.8,10.4,0.4c1.9,0.5,6.3,1.7,9.7,5.4
	c2.7,2.8,3.9,5.7,4.6,7.4c1.5,3.9,2.3,8.9,2.3,8.9c2.4,3.4,5.5,5.5,8.1,5c2.2-0.5,3.6-2.7,5-4.8c1.9-2.9,1.5-4,3-5
	c2.3-1.6,6.3-1.2,7.6,0.8c0.3,0.5,1.2,2.1-0.9,6.4c-5.2,10.3-39.9,59.7-46.1,68.4"/>
<line class="st3" x1="115.8" y1="106.5" x2="115.8" y2="106.5"/>
<path class="st4" d="M118.8,108.4c2.1,0.1,3.6-0.2,5.5,1.4c2.4,2.2,2.8,6.1,0.6,8.8c-1.8,2.2-4.8,3.4-7.6,2.2
	c-2.3-1.1-2.9-3.5-1.7-5.6c0.9-1.7,3-2.3,4.8-1.4c1.4,0.7,1.8,2.2,1.1,3.6c-0.6,1.1-2,1.4-3.1,0.9c-1-0.5-1.2-1.4-0.8-2.3
	c0.3-0.7,1.3-0.9,1.9-0.6c0.6,0.4,0.3,0.6,0.2,1.2"/>
<path class="st4" d="M119.4,108.6c-7.6,0.2-15.2,0.3-22.7,0.5"/>
<path class="st4" d="M96.9,109c-2.3,0.2-4.1-0.1-6.1,1.7c-2.5,2.2-2.8,6.1-0.1,8.6c2.2,2,5.8,3,8.7,1.7c2.4-1.1,3.1-3.5,1.6-5.6
	c-1.2-1.6-3.7-2-5.5-1.1c-1.5,0.7-2,2.2-1,3.6c0.8,1,2.3,1.3,3.5,0.7c1-0.5,1.3-1.4,0.6-2.3c-0.5-0.6-1.5-0.9-2.3-0.4
	c-0.5,0.3-0.1,0.8,0.1,1.3"/>
<path class="st2" d="M99.3,15.7c-0.3,30.9-0.7,61.8-1,92.7"/>
<line class="st5" x1="95.3" y1="32.1" x2="93.2" y2="11.9"/>
<line class="st5" x1="100.8" y1="31.9" x2="102.1" y2="12.1"/>
<line class="st5" x1="94.3" y1="11.9" x2="101.5" y2="12"/>
<line class="st6" x1="94.5" y1="13.9" x2="101.5" y2="13.9"/>
<line class="st6" x1="98" y1="23.5" x2="97.3" y2="16.5"/>
<path class="st6" d="M102.8,29.3c2.2,0.1,5.6,0.5,8.6,2.6c1.8,1.2,2.9,2.8,5.2,6c4.7,6.6,4.4,8,6.8,9.4c3,1.8,6.8,1.7,9.6,0.6
	c2.5-1,5.4-3.3,7.1-6.3c0.9-1.6,1.3-3,2.4-3.3c1.2-0.3,2.6,1,3.5,2"/>
<line class="st2" x1="146.1" y1="40.2" x2="117.1" y2="108.3"/>
<path class="st7" d="M117.1,108.3c-5.7,0.1-11.4,0.2-17.2,0.3c12.8-18,25.6-36,38.4-54.1C131.3,72.5,124.2,90.4,117.1,108.3z"/>
<path class="st8" d="M101.5,21.8c0.8-0.1,7.4-0.8,11.5,4c1.4,1.6,2,3.3,2.3,4.6"/>
<path class="st9" d="M118.8,34.3c0.2,1.2,0.8,4.8,3.8,7.7c0.5,0.5,4.9,4.5,9,3.2c2.9-0.9,5.7-4.5,6.9-7.1c0.5-1,1.1-2.5,2.6-3.1
	c1.1-0.4,2.2-0.2,2.9,0.1"/>
<ellipse transform="matrix(0.4708 -0.8823 0.8823 0.4708 5.5315 84.5981)" class="st10" cx="73.3" cy="37.7" rx="1.6" ry="0.4"/>
<path class="st11" d="M64.7,92.2"/>
<line class="st12" x1="70.2" y1="36.5" x2="73.3" y2="37.7"/>
<g>
	<line class="st12" x1="58.9" y1="47.7" x2="58.9" y2="47.7"/>
	<path class="st13" d="M57.2,81.5c-0.5-0.6-1.4-1.4-2.6-1.5c-3.3-0.1-7.6,5.8-5.7,8.8c0.8,1.3,2.7,1.7,3.8,1.9
		c0,0.6,0.1,7.2-5.8,11.5c-4.7,3.4-11.2,4-16.2,1.4c-0.3-0.2-7.4-4-6.8-11.3c0.4-5.8,5.3-9.3,6-9.8c1.4,1.8,2.6,2,3.1,2
		c3.6,0,7.5-7.2,5.5-9.5c-0.4-0.4-1.3-1-3.6-0.8c2-5.7,6-10.1,10.4-10.7c2.2-0.3,4.6,0.4,6.3,0.9c2,0.6,5.2,1.6,7,3.7
		C61.2,71.2,60.5,76.6,57.2,81.5z"/>
	<line class="st12" x1="56.3" y1="54.5" x2="56.3" y2="54.5"/>
	<line class="st14" x1="53.2" y1="65.1" x2="70.7" y2="33.1"/>
	<path class="st13" d="M67.9,36.8c-1.2-0.5-2.5-1-3.8-1.5"/>
	<path class="st13" d="M68.2,39.3c1.2,0.5,2.3,0.9,3.4,1.4"/>
	<line class="st12" x1="67.6" y1="40.9" x2="62.3" y2="38.9"/>
	<ellipse transform="matrix(0.4708 -0.8823 0.8823 0.4708 2.7531 75.1348)" class="st13" cx="64" cy="35.3" rx="1.6" ry="0.4"/>
	<ellipse transform="matrix(0.4708 -0.8823 0.8823 0.4708 -1.3497 75.3784)" class="st13" cx="62.2" cy="38.8" rx="1.6" ry="0.4"/>
</g>
<ellipse transform="matrix(0.4708 -0.8823 0.8823 0.4708 1.7488 84.825)" class="st10" cx="71.6" cy="41" rx="1.6" ry="0.4"/>
<g>
	<line class="st15" x1="60.9" y1="88.6" x2="115.1" y2="49.2"/>
	<line class="st12" x1="116.1" y1="52.1" x2="63" y2="90.8"/>
	<polygon class="st13" points="116.5,52.6 109.4,52.3 116.8,46.6 	"/>
	<polygon class="st13" points="61.9,92.4 58.4,89.2 61.8,86.6 65.2,89.8 	"/>
</g>
<path class="st16" d="M43.9,101.8c-0.7,0.6-1.4,0.9-1.9,1.1c0.6,0.4,1.4,1.1,2,2.2c1.2,1.9,1.3,3.9,1.3,4.8c0-0.7,0-3,1.7-5
	c0.8-0.9,1.6-1.4,2.2-1.7c-0.5-0.2-1.2-0.6-1.9-1.2c-1.7-1.6-1.8-3.7-1.8-4.3C45.6,98.1,45.5,100.3,43.9,101.8z"/>
<polygon class="st17" points="45.5,92.2 46.1,97.7 45.1,97.7 "/>
<polygon class="st17" points="45.5,115.7 45.9,109.8 44.9,109.8 "/>
<path class="st16" d="M137,80.1c-0.7,0.6-1.4,0.9-1.9,1.1c0.6,0.4,1.4,1.1,2,2.2c1.2,1.9,1.3,3.9,1.3,4.8c0-0.7,0-3,1.7-5
	c0.8-0.9,1.6-1.4,2.2-1.7c-0.5-0.2-1.2-0.6-1.9-1.2c-1.6-1.6-1.8-3.7-1.9-4.3C138.7,76.4,138.6,78.5,137,80.1z"/>
<polygon class="st17" points="138.6,70.5 139.2,75.9 138.2,76 "/>
<polygon class="st17" points="138.6,94 139,88.1 138,88.1 "/>
<path class="st16" d="M76.9,17.9c-0.7,0.6-1.4,1-1.9,1.1c0.6,0.4,1.4,1.1,2,2.2c1.2,2,1.3,3.9,1.3,4.8c0-0.7,0-3,1.7-5
	c0.8-0.9,1.6-1.4,2.2-1.7c-0.5-0.2-1.2-0.6-1.9-1.2c-1.7-1.6-1.8-3.7-1.8-4.3C78.5,14.2,78.5,16.3,76.9,17.9z"/>
<polygon class="st17" points="78.4,8.3 79,13.7 78,13.7 "/>
<polygon class="st17" points="78.4,31.8 78.8,25.8 77.8,25.9 "/>
<path class="st17" d="M140,148.5H21.4c-4,0-7.3-3.2-7.3-7.3v-11.1c0-4,3.2-7.3,7.3-7.3H140c4,0,7.3,3.2,7.3,7.3v11.1
	C147.3,145.2,144,148.5,140,148.5z"/>
<rect x="18.4" y="128.1" class="st18" width="125.8" height="20"/>
<text transform="matrix(1 0 0 1 41.8076 142.3271)" class="st19 st20">Our Story</text>
</svg>
