<svg id="Layer_1" data-name="Layer 1" xmlns="http://www.w3.org/2000/svg" viewBox="0 0 161.5 161.5"><defs><style>.cls-1{fill:#d05f9d;}.cls-2,.cls-8{fill:#28b7ff;}.cls-10,.cls-2{stroke:#28b7ff;}.cls-10,.cls-11,.cls-2,.cls-3,.cls-5,.cls-6{stroke-miterlimit:10;}.cls-10,.cls-3,.cls-4,.cls-6{fill:none;}.cls-11,.cls-3,.cls-4,.cls-5,.cls-6{stroke:#fff;}.cls-10,.cls-3,.cls-4{stroke-linecap:round;}.cls-3,.cls-4{stroke-width:6px;}.cls-4{stroke-linejoin:round;}.cls-11,.cls-5,.cls-7{fill:#fff;}.cls-9{fill:#61aaea;}.cls-11{stroke-linecap:square;}.cls-12{font-size:20px;font-family:Actor;}.cls-13{letter-spacing:-0.07em;}</style></defs><title>Testimonials</title><path class="cls-1" d="M104.26,4"/><rect class="cls-2" x="0.5" y="0.5" width="160.5" height="160.5"/><line class="cls-3" x1="56.24" y1="41.77" x2="82.7" y2="23.75"/><line class="cls-4" x1="111.23" y1="42" x2="83.8" y2="24.15"/><line class="cls-4" x1="82.82" y1="28.97" x2="82.82" y2="91.92"/><rect class="cls-5" x="57.67" y="75.19" width="50.3" height="43.91"/><path class="cls-6" d="M77.47,27.32A68.8,68.8,0,0,1,61.24,41.05a13.28,13.28,0,0,1-5.32,1.87,11.76,11.76,0,0,1-12.78-9.75,8.42,8.42,0,0,1,7.2-10,7.52,7.52,0,0,1,8.18,6.24,5.39,5.39,0,0,1-4.61,6.37,4.81,4.81,0,0,1-5.23-4,3.45,3.45,0,0,1,3-4.08A3.08,3.08,0,0,1,55,30.32a2.24,2.24,0,0,1-1,2.3,1.77,1.77,0,0,1-.89.31A2.43,2.43,0,0,1,51,31.29"/><path class="cls-7" d="M58.27,26.85a8.33,8.33,0,0,0-5.63-3.28,8.16,8.16,0,0,0-2.85.11l.06,0c.56-.31.06-1.17-.5-.86-2.57,1.41-4.82,3.6-5.39,6.29,0-.61-1-.6-1,0a9.93,9.93,0,0,0,.63,4.08.46.46,0,0,0-.15.36,3.37,3.37,0,0,0,.33,1.29.53.53,0,0,0-.32.86l.38.39a.41.41,0,0,0,0,.36c1.4,3.66,4.34,7.75,8.43,8.51a5.57,5.57,0,0,0,5-.38.5.5,0,0,0-.5-.86,5.51,5.51,0,0,1-.78.37,2.05,2.05,0,0,0,.43-.86,2.54,2.54,0,0,0-1.75-3.08l-.14,0c.13,0,.25-.12.38-.18H55c.21-.07.44-.13.64-.22a.53.53,0,0,0,.32-.58,8.1,8.1,0,0,1,1.18-.48c.61-.19.35-1.16-.27-1-1.17.36-2.19,1.18-3.39,1.44a7.1,7.1,0,0,1-3.7-.41,12.74,12.74,0,0,1-4.43-5.89,6.16,6.16,0,0,1,1.32-6.73A.46.46,0,0,0,46.9,26c.62-.34,1.23-.85,1.87-1.14a8.79,8.79,0,0,1,4.42-.24,7.64,7.64,0,0,1,4.37,2.91C58,28.05,58.67,27.34,58.27,26.85Z"/><path class="cls-8" d="M65.82,38.78A33.67,33.67,0,0,1,58,42.22c-.76.2-10.46,1.79-10.57.78-.07-.63-1.07-.64-1,0s.44.9,1.15,1.07c2.07.49,4.9.11,7-.15A33.6,33.6,0,0,0,61.2,42.3a30.6,30.6,0,0,0,5.11-2.66c.58-.3.08-1.17-.49-.86Z"/><path class="cls-8" d="M49.56,43.38A5,5,0,0,1,46.83,42l-.61.79a16.25,16.25,0,0,0,4,1.82c.62.16.89-.81.27-1a14.73,14.73,0,0,1-3.79-1.72c-.48-.27-1,.41-.61.79a6.18,6.18,0,0,0,3.44,1.7c.64,0,.64-1,0-1Z"/><path class="cls-8" d="M51.21,43.3c-2.56-.11-5-2.4-6.68-4.06l-.61.79C48.25,43.18,54.69,47,60,44a.5.5,0,0,0-.25-.93,30.21,30.21,0,0,0-5,.61.5.5,0,0,0,0,1c1.56.52,4.95,0,5.83-1.55a.5.5,0,0,0-.56-.73c-3.14.66-5.35,3.47-8.9,1.94l-.39.91c.94.23,2.5.76,3.4.16a.5.5,0,0,0-.12-.91A5.32,5.32,0,0,0,52.29,44c-.63-.1-.9.86-.27,1a5.08,5.08,0,0,1,1.75.45l-.12-.91c-.56.37-2-.12-2.63-.26s-.93.68-.39.91a6.9,6.9,0,0,0,4.07.41c2.11-.34,3.56-1.82,5.6-2.25l-.56-.73c-.54.94-3.91,1.35-4.7,1.09v1A28,28,0,0,1,59.78,44c-.08-.31-.17-.62-.25-.93-5,2.87-11.13-1-15.11-3.92-.46-.34-1,.4-.61.79,2,1.93,4.47,4.22,7.39,4.35.65,0,.65-1,0-1Z"/><path class="cls-8" d="M54.67,43.55c-.69,0-1.38,0-2.08,0s-1.25.2-1.9.17-.64,1,0,1,1.25-.15,1.9-.17,1.39,0,2.08,0a.5.5,0,0,0,0-1Z"/><path class="cls-8" d="M43.24,38.63c2,4,8.17,5.86,12.31,5.38.63-.07.64-1.07,0-1-3.78.44-9.64-1.19-11.44-4.89-.29-.57-1.15-.07-.87.51Z"/><path class="cls-8" d="M43.47,38.53A38.12,38.12,0,0,0,51.53,46c.53.37,1-.5.5-.86a37.15,37.15,0,0,1-7.86-7.32c-.39-.5-1.1.21-.7.71Z"/><path class="cls-8" d="M44.88,30.51c0,3.64,2,7.9,6,8.38.64.08.63-.92,0-1-3.38-.41-5-4.37-5-7.38a.5.5,0,0,0-1,0Z"/><path class="cls-8" d="M48.75,23c.41,0,.78-.14,1.19-.14a.5.5,0,0,0,0-1c-.4,0-.79.16-1.19.14-.65,0-.65,1,0,1Z"/><path class="cls-6" d="M101.84,37.69a11.11,11.11,0,0,0,6.88,4.16c5.15.74,10.37-2.86,11.91-7.79,1.44-4.61-.49-9.3-4.31-10.48-3.06-.94-6.47,1.29-7.62,5-.92,3,.31,5.95,2.76,6.71,2,.6,4.14-.83,4.88-3.19.59-1.89-.2-3.81-1.76-4.29a2.67,2.67,0,0,0-3.12,2,2.33,2.33,0,0,0,.45,2.33,1.32,1.32,0,0,0,.68.41,2.08,2.08,0,0,0,2-1.31"/><path class="cls-7" d="M109.36,26.18a6.85,6.85,0,0,1,5.09-2.45,5.65,5.65,0,0,1,2.3.47l0,0c-.41-.37.13-1.13.54-.77a9.51,9.51,0,0,1,3.41,6.71.41.41,0,1,1,.8.15,11,11,0,0,1-1.15,3.83.48.48,0,0,1,.06.37,3.66,3.66,0,0,1-.47,1.19.53.53,0,0,1,.12.86l-.37.33a.46.46,0,0,1,0,.34c-1.7,3.34-4.74,6.89-8.17,7.11a4,4,0,0,1-4-1c-.4-.38.14-1.15.54-.77a3.74,3.74,0,0,0,.57.45,2.28,2.28,0,0,1-.22-.88c0-1.19.74-2.69,1.9-2.73h.12l-.28-.22-.06,0c-.16-.09-.33-.18-.49-.29a.53.53,0,0,1-.17-.6,6.09,6.09,0,0,0-.89-.61c-.47-.26-.11-1.15.37-.89.9.49,1.6,1.41,2.54,1.8a5.05,5.05,0,0,0,3.08.07,12.51,12.51,0,0,0,4.52-5.09,6.76,6.76,0,0,0,0-6.62.32.32,0,0,1-.17-.09c-.46-.4-.87-1-1.34-1.33a6.21,6.21,0,0,0-3.56-.78,6.4,6.4,0,0,0-4,2.25C109.41,27.38,109,26.61,109.36,26.18Z"/><path class="cls-8" d="M104.1,45c3.47.7,6.68,1.53,10.24.55,3.08-.85,5.54-3,7.88-5.06,1.45-1.28-.68-3.4-2.12-2.12-1.95,1.73-4,3.57-6.56,4.29-3.05.85-5.68,0-8.65-.55-1.88-.38-2.68,2.51-.79,2.89Z"/><path class="cls-7" d="M107.36,39.25a13.4,13.4,0,0,0,7.27.78,14.1,14.1,0,0,0,5.61-3.25c1.5-1.22-.64-3.33-2.12-2.12a10.43,10.43,0,0,1-4.29,2.48,10.88,10.88,0,0,1-5.68-.78c-1.83-.63-2.61,2.27-.79,2.89Z"/><path class="cls-9" d="M120.56,35.63c0,.44-.47.79-.71,1.13a3.94,3.94,0,0,0-.53,1.27.5.5,0,0,0,1,.27,3.7,3.7,0,0,1,.73-1.42,2.44,2.44,0,0,0,.55-1.25c.08-.64-.92-.63-1,0Z"/><path class="cls-9" d="M100.87,40.17a16.4,16.4,0,0,0,11.55,1.23c3.42-.92,7.92-2.69,9.83-5.83.34-.55-.53-1-.86-.5-1.72,2.83-6.18,4.54-9.23,5.37a15.31,15.31,0,0,1-10.78-1.13c-.59-.29-1.09.57-.51.86Z"/><path class="cls-8" d="M106.4,45.11a30.34,30.34,0,0,0,15-4.27c2.21-1.31.2-4.77-2-3.45a26,26,0,0,1-13,3.73c-2.56,0-2.57,4,0,4Z"/><path class="cls-8" d="M106.8,40.78c-2,.14-3.85-1.21-5.56-2.13l-5.32-2.84c-2.27-1.21-4.29,2.24-2,3.45l6.84,3.65c1.93,1,3.81,2,6.06,1.86,2.55-.17,2.57-4.17,0-4Z"/><path class="cls-8" d="M107.1,41c-3.19-1.46-6.73-2.67-9.61-4.68l-.77,1.83c3.64,1.48,7.42,3.48,11.3,4.26,3.12.63,5.94-.16,8.87-1.24,1.2-.44.68-2.37-.53-1.93-3.54,1.3-6.56,1.79-10.18.55-3-1-6-2.38-8.93-3.58-1.11-.45-1.64,1.22-.77,1.83,2.89,2,6.42,3.22,9.61,4.68,1.16.54,2.18-1.18,1-1.72Z"/><path class="cls-8" d="M122,32.25c-.72,2.82-3.14,5.46-5.18,7.44-.92.9.49,2.31,1.41,1.41,2.28-2.21,4.9-5.18,5.7-8.32.31-1.24-1.62-1.78-1.93-.53Z"/><path class="cls-8" d="M96.22,37.92a1,1,0,0,0,0-2,1,1,0,0,0,0,2Z"/><line class="cls-10" x1="67.22" y1="84.15" x2="66.85" y2="123.99"/><line class="cls-10" x1="82.82" y1="84.15" x2="82.82" y2="122.47"/><line class="cls-10" x1="98.53" y1="84.15" x2="98.53" y2="127.5"/><path class="cls-11" d="M94.45,21a5,5,0,0,1-1.87,1.12,8.33,8.33,0,0,1,2,2.17A8.5,8.5,0,0,1,95.91,29a7.28,7.28,0,0,1,1.72-5,6.91,6.91,0,0,1,2.24-1.67A6.05,6.05,0,0,1,98,21.15a6.43,6.43,0,0,1-1.85-4.3A5.83,5.83,0,0,1,94.45,21Z"/><polygon class="cls-7" points="95.98 11.4 96.6 16.84 95.59 16.86 95.98 11.4"/><polygon class="cls-7" points="96.01 34.91 96.39 28.98 95.39 29 96.01 34.91"/><path class="cls-11" d="M50.92,71.35a5,5,0,0,1-1.87,1.12,8.33,8.33,0,0,1,2,2.17,8.5,8.5,0,0,1,1.29,4.75,7.28,7.28,0,0,1,1.72-5,6.91,6.91,0,0,1,2.24-1.67,6.05,6.05,0,0,1-1.91-1.24,6.43,6.43,0,0,1-1.85-4.3A5.83,5.83,0,0,1,50.92,71.35Z"/><polygon class="cls-7" points="52.45 61.77 53.07 67.21 52.06 67.23 52.45 61.77"/><polygon class="cls-7" points="52.48 85.28 52.86 79.34 51.86 79.37 52.48 85.28"/><path class="cls-11" d="M115.77,109.32a5,5,0,0,1-1.87,1.12,8.33,8.33,0,0,1,2,2.17,8.5,8.5,0,0,1,1.29,4.75,7.28,7.28,0,0,1,1.72-5,6.91,6.91,0,0,1,2.24-1.67,6.05,6.05,0,0,1-1.91-1.24,6.43,6.43,0,0,1-1.85-4.3A5.79,5.79,0,0,1,115.77,109.32Z"/><polygon class="cls-7" points="117.31 99.74 117.92 105.18 116.92 105.2 117.31 99.74"/><polygon class="cls-7" points="117.33 123.25 117.71 117.31 116.71 117.33 117.33 123.25"/><rect class="cls-7" x="13.11" y="125.85" width="133.14" height="25.6" rx="10.49"/><text class="cls-12" transform="translate(28.33 145.3)"><tspan class="cls-13">T</tspan><tspan x="8.52" y="0">estimonials</tspan></text></svg>