<svg xmlns="http://www.w3.org/2000/svg" viewBox="0 0 74.842 37.969"><g fill="#aaa"><path d="M37.6 32.584s9.853-3.34 18.598-3.34c8.744 0 17.505 3.154 18.209 3.45.703.296.481 1.148-.148 1.185-.63.037-72.006.284-72.677.351-.67.067-.838-.871-.167-1.173.67-.302 7.776-3.821 18.502-3.855C30.642 29.17 37.6 32.584 37.6 32.584zM1.11 35.975s71.64-.215 72.744-.215c1.104 0 1.367 1.788.21 1.788-1.156 0-71.294.42-72.83.42-1.737.028-1.511-1.988-.125-1.993z"/><path d="M18.69 0C4.222-.094 1.224 9.954 1.252 15.058c.029 5.268 3.151 14.13 12.098 14.13 8.946 0 11.356-7.603 11.356-7.603s-4.313 5.058-11.247 5.3c-4.647-.08-8.313-3.445-8.721-8.577-.34-4.281 2.752-8.697 6.714-11.25 3.962-2.553 11.733-4.202 18.313 1.189 6.58 5.39 7.836 24.338 7.836 24.338.029-3.442.04-6.054.045-8.24.006 2.186-.075 4.798-.045 8.24 0 0 1.347-18.947 7.927-24.338 6.58-5.39 14.351-3.742 18.313-1.19 3.962 2.554 7.055 6.97 6.714 11.25-.408 5.133-4.074 8.497-8.722 8.577-6.933-.24-11.246-5.3-11.246-5.3s2.41 7.605 11.357 7.605c8.946 0 12.069-8.863 12.097-14.131.03-5.268-3.167-15.805-18.874-15.015-15.708.791-17.52 18.573-17.52 18.573S35.833.833 20.126.042c-.491-.024-.97-.038-1.437-.041z"/><path d="M61.726 5.21c-.632 0-1.262.05-1.886.15 1.556.438 6.024.49 9.048 4.933 2.022 2.97 2.552 8.174-.654 12.304-3.88 6.153-12.606 2.36-14.341.167-1.735-2.193-2.53-7.1 1.138-9.426 3.669-2.326 8.289.71 8.497 2.93.208 2.217-1.073 5.623-4.431 4.767-3.358-.856-2.403-4.784-2.02-5.207.279-.308-.076-.704-.405-.394-1.107 1.042-1.423 3.965.204 5.693 1.626 1.728 5.388 1.22 7.014-.509 1.627-1.728 2.104-5.366-.446-8.022-2.55-2.656-6.969-3.235-10.494-.716-2 1.429-2.887 3.885-3.17 6.078a11.97 11.97 0 0020.613 7.48c1.605-1.879 2.62-4.21 3.163-6.435.093-.603.14-1.212.14-1.822 0-6.61-5.36-11.97-11.97-11.97zM13.567 5.21c.632 0 1.262.05 1.886.15-1.556.438-6.024.49-9.048 4.933-2.022 2.97-2.552 8.174.654 12.304 3.88 6.153 12.606 2.36 14.341.167 1.735-2.193 2.53-7.1-1.138-9.426-3.669-2.326-8.289.71-8.497 2.93-.208 2.217 1.073 5.623 4.431 4.767 3.358-.856 2.403-4.784 2.02-5.207-.279-.308.076-.704.405-.394 1.107 1.042 1.423 3.965-.204 5.693-1.626 1.728-5.388 1.22-7.014-.509-1.627-1.728-2.104-5.366.446-8.022 2.55-2.656 6.969-3.235 10.494-.716 2 1.429 2.887 3.885 3.17 6.078A11.97 11.97 0 014.9 25.438c-1.605-1.879-2.62-4.21-3.163-6.435a11.966 11.966 0 01-.14-1.822c0-6.61 5.36-11.97 11.97-11.97z"/></g></svg>