<svg xmlns="http://www.w3.org/2000/svg" viewBox="0 -18 75 75"><path fill="#00aeef" d="M0-18h75v75H0z"/><g fill="#fff"><path d="M37.68 29.067s7.882-2.672 14.878-2.672 14.004 2.523 14.568 2.76c.562.237.384.919-.119.948-.504.03-57.605.227-58.141.281-.536.054-.67-.697-.134-.938.536-.242 6.22-3.057 14.802-3.084 8.58-.026 14.146 2.705 14.146 2.705zM8.488 31.78s57.312-.172 58.195-.172c.883 0 1.094 1.43.168 1.43-.925 0-57.035.336-58.264.336-1.39.023-1.209-1.59-.1-1.594z"/><path d="M22.552 3c-11.574-.075-13.973 7.963-13.95 12.046.023 4.215 2.52 11.304 9.678 11.304 7.157 0 9.085-6.082 9.085-6.082s-3.45 4.046-8.998 4.24c-3.717-.064-6.65-2.756-6.977-6.862-.272-3.424 2.202-6.957 5.372-9 3.17-2.042 9.386-3.361 14.65.952 5.264 4.312 6.269 19.47 6.269 19.47.023-2.754.032-4.843.036-6.592.005 1.749-.06 3.838-.036 6.592 0 0 1.077-15.158 6.341-19.47 5.264-4.312 11.481-2.994 14.65-.952 3.17 2.043 5.645 5.576 5.372 9-.326 4.106-3.26 6.797-6.978 6.861-5.546-.192-8.996-4.24-8.996-4.24s1.928 6.084 9.085 6.084c7.157 0 9.655-7.09 9.678-11.305.024-4.214-2.534-12.644-15.1-12.012-12.566.633-14.015 14.859-14.015 14.859S36.266 3.666 23.7 3.033c-.393-.019-.776-.03-1.15-.032z"/><path d="M56.98 7.168c-.505 0-1.009.04-1.508.12 1.245.35 4.82.392 7.238 3.946 1.618 2.376 2.042 6.54-.523 9.844-3.104 4.922-10.085 1.888-11.473.133-1.388-1.754-2.024-5.68.91-7.54 2.936-1.861 6.632.567 6.798 2.343.167 1.774-.858 4.499-3.544 3.814-2.687-.685-1.923-3.827-1.616-4.166.223-.246-.061-.563-.324-.315-.886.834-1.139 3.172.163 4.555 1.3 1.382 4.31.976 5.611-.408 1.302-1.382 1.683-4.292-.357-6.417s-5.575-2.588-8.395-.573c-1.6 1.143-2.31 3.108-2.536 4.862a9.576 9.576 0 0016.49 5.984c1.284-1.503 2.096-3.368 2.53-5.148.075-.482.113-.97.113-1.457 0-5.288-4.288-9.576-9.576-9.576zm-38.526 0c.505 0 1.01.04 1.508.12-1.244.35-4.819.392-7.238 3.946-1.618 2.376-2.042 6.54.523 9.844 3.104 4.922 10.085 1.888 11.473.133 1.388-1.754 2.024-5.68-.91-7.54-2.936-1.861-6.632.567-6.798 2.343-.166 1.774.858 4.499 3.545 3.814 2.686-.685 1.922-3.827 1.616-4.166-.223-.246.06-.563.324-.315.885.834 1.138 3.172-.163 4.555-1.301 1.382-4.31.976-5.612-.408-1.301-1.382-1.683-4.292.357-6.417s5.575-2.588 8.395-.573c1.6 1.143 2.31 3.108 2.536 4.862a9.576 9.576 0 01-16.49 5.984c-1.284-1.503-2.096-3.368-2.53-5.148a9.573 9.573 0 01-.112-1.457c0-5.288 4.288-9.576 9.576-9.576z"/></g></svg>