<svg id="Layer_1" data-name="Layer 1" xmlns="http://www.w3.org/2000/svg" xmlns:xlink="http://www.w3.org/1999/xlink" viewBox="0 0 363.59 218.26"><defs><style>.cls-1{fill:#00a6cc;stroke:#51c8ec;stroke-width:4.29px;}.cls-1,.cls-10,.cls-11,.cls-12,.cls-13,.cls-14,.cls-4,.cls-7,.cls-8,.cls-9{stroke-miterlimit:10;}.cls-2,.cls-8{fill:#f2f2f2;}.cls-3{fill:url(#linear-gradient);}.cls-4{fill:#04a4d6;stroke-width:0.22px;}.cls-4,.cls-8{stroke:#2bace2;}.cls-5{fill:#8cd6ec;}.cls-6{fill:#6bceef;}.cls-7{fill:#fcee23;stroke:#f89521;stroke-width:3.57px;}.cls-8{stroke-width:3.31px;}.cls-9{fill:#29abe2;stroke:#29abe2;stroke-width:0.49px;}.cls-10,.cls-11,.cls-12,.cls-13,.cls-14{fill:#076b8c;stroke:#04667d;}.cls-10{stroke-width:1.85px;}.cls-11{stroke-width:1.93px;}.cls-12{stroke-width:2.04px;}.cls-13{stroke-width:3.41px;}.cls-14{stroke-width:1.55px;}</style><linearGradient id="linear-gradient" x1="-675.35" y1="-213" x2="-466.24" y2="-213" gradientTransform="translate(849.55 260.49) rotate(-6.38)" gradientUnits="userSpaceOnUse"><stop offset="0" stop-color="#00a6cc"/><stop offset="0.22" stop-color="#19b1d6"/><stop offset="0.54" stop-color="#38bde2"/><stop offset="0.81" stop-color="#4ac5e9"/><stop offset="1" stop-color="#51c8ec"/></linearGradient></defs><title>rocketShip</title><path class="cls-1" d="M290.27,20.25C282.48,5.9,263.45,1.83,249.83,2.9c-17.76,1.39-22.09,11.18-48.36,19.64a142.17,142.17,0,0,1-28.05,6,127.52,127.52,0,0,1,29,6.88c25.57,9.36,29,20,46.63,22.12,17.78,2.12,40.19-5.65,44.16-19.94C295.43,29.74,291.37,22.28,290.27,20.25Z" transform="translate(-1.37 -0.59)"/><path class="cls-1" d="M286,179.06c-7.79-14.36-26.83-18.43-40.45-17.36-17.75,1.39-22.09,11.18-48.35,19.64a142.23,142.23,0,0,1-28.06,6,127.82,127.82,0,0,1,29,6.88c25.58,9.36,29,20,46.64,22.13s40.18-5.66,44.16-20C291.14,188.54,287.09,181.08,286,179.06Z" transform="translate(-1.37 -0.59)"/><path class="cls-2" d="M270.17,186.21a2,2,0,0,1,.2,1.5,2.54,2.54,0,0,1-.9,1.29,5,5,0,0,1-3,1,6.18,6.18,0,0,1-3.15-.72,3.89,3.89,0,0,1-2.07-2.8,4,4,0,0,1,1.21-3.41,6.68,6.68,0,0,1,3-1.69,10.5,10.5,0,0,1,6.63.39,8,8,0,0,1,2.94,2.05,6.41,6.41,0,0,1,1.5,3.55,6.33,6.33,0,0,1-1,3.79,8.45,8.45,0,0,1-2.66,2.57,11.33,11.33,0,0,1-3.23,1.38,16.34,16.34,0,0,1-3.33.5,16.06,16.06,0,0,1-6.66-1.05,12,12,0,0,1-5.66-4.34,9.79,9.79,0,0,1-1.42-3.53,9,9,0,0,1,.13-3.89,11,11,0,0,1,4.22-6,16.83,16.83,0,0,1,6.26-2.83,24.94,24.94,0,0,1,13,.43,22,22,0,0,1,6,2.89,15.5,15.5,0,0,1,4.72,5.09,13.22,13.22,0,0,1-.33,13.54,19.4,19.4,0,0,1-10.43,7.84,27.64,27.64,0,0,1-3.08.87,15.75,15.75,0,0,1-3.32.39,30.85,30.85,0,0,1-6.29-.65,102.66,102.66,0,0,1-11.75-3.23c-7.67-2.5-15.12-5.42-22.72-7.88a103,103,0,0,0-11.53-3.17,39.13,39.13,0,0,0-5.91-.74,14,14,0,0,0-5.87.86,14.43,14.43,0,0,1,5.87-1.29,36,36,0,0,1,6.05.36,97.08,97.08,0,0,1,11.82,2.53c7.76,2.11,15.39,4.65,23,6.86a101.28,101.28,0,0,0,11.53,2.71,29.74,29.74,0,0,0,5.67.42,10.91,10.91,0,0,0,2.62-.39,22.48,22.48,0,0,0,2.66-.9,16.57,16.57,0,0,0,8.2-6.63,9.3,9.3,0,0,0,1.28-4.71,9.68,9.68,0,0,0-1.3-4.66c-1.61-2.81-4.82-4.82-8.25-5.82a21.79,21.79,0,0,0-10.73-.39,12.57,12.57,0,0,0-4.65,2,7,7,0,0,0-2.69,3.58,5.16,5.16,0,0,0,.6,4.1,7.92,7.92,0,0,0,3.68,2.93,13.31,13.31,0,0,0,5.1,1,12.78,12.78,0,0,0,2.62-.25,8.13,8.13,0,0,0,2.32-.84,5.32,5.32,0,0,0,1.73-1.47,3.53,3.53,0,0,0,.65-1.89,3.57,3.57,0,0,0-.66-2,5.29,5.29,0,0,0-1.85-1.48,8.66,8.66,0,0,0-5.14-.71,5,5,0,0,0-2.28,1,2.38,2.38,0,0,0-.94,2c0,1.58,1.92,2.77,3.76,2.89a4.64,4.64,0,0,0,2.74-.52,2.27,2.27,0,0,0,.94-1A1.87,1.87,0,0,0,270.17,186.21Z" transform="translate(-1.37 -0.59)"/><path class="cls-2" d="M273.18,34.35a2.65,2.65,0,0,0-.61-2.82,4.14,4.14,0,0,0-2.62-1.2,4.34,4.34,0,0,0-2.72.57A2.85,2.85,0,0,0,265.87,33a4.09,4.09,0,0,0,2.53,4.1,7.06,7.06,0,0,0,5.2.27,4.61,4.61,0,0,0,2-1.35,3.77,3.77,0,0,0,.59-1,5.37,5.37,0,0,0,.31-1.14A5.59,5.59,0,0,0,275,29.48,8.61,8.61,0,0,0,270.49,27a10.83,10.83,0,0,0-5.25.08,7.45,7.45,0,0,0-4,2.62,5.43,5.43,0,0,0-.59,1,7.28,7.28,0,0,0-.42,1.13,7.39,7.39,0,0,0-.28,2.39,9.27,9.27,0,0,0,1.66,4.65,12,12,0,0,0,3.86,3.52,17,17,0,0,0,5.16,1.86,18.29,18.29,0,0,0,5.52.19,13,13,0,0,0,9.11-4.94,12.36,12.36,0,0,0,2-4.83,13.1,13.1,0,0,0-.1-5.36,18.12,18.12,0,0,0-5.85-9.44,22.7,22.7,0,0,0-4.84-3.23,9.69,9.69,0,0,0-2.58-.94,16.22,16.22,0,0,0-2.84-.35,56.21,56.21,0,0,0-12.19,1.22c-8.21,1.58-16.39,3.79-24.71,5.43a86.45,86.45,0,0,1-12.64,1.68,31,31,0,0,1-6.38-.32A13.23,13.23,0,0,1,209.21,21a13.12,13.12,0,0,0,5.95,1.84,34.34,34.34,0,0,0,6.25-.14,93,93,0,0,0,12.33-2.42c8.15-2.07,16.17-4.69,24.48-6.62a56.85,56.85,0,0,1,12.9-1.78,19.32,19.32,0,0,1,3.44.32,14.21,14.21,0,0,1,1.76.45c.61.2,1.13.42,1.64.64a25.93,25.93,0,0,1,5.86,3.47,21.6,21.6,0,0,1,7.66,11.47,17.09,17.09,0,0,1-2.37,14,16.21,16.21,0,0,1-5.54,4.86,19.57,19.57,0,0,1-6.84,2.19,21.28,21.28,0,0,1-7.08-.27,21.62,21.62,0,0,1-6.67-2.5,16.82,16.82,0,0,1-5.35-5,13.3,13.3,0,0,1-2.34-7.19,12,12,0,0,1,.58-3.85,11,11,0,0,1,.75-1.81,9.79,9.79,0,0,1,1.1-1.69,11.74,11.74,0,0,1,6.49-4,14.24,14.24,0,0,1,7.28.23,12.27,12.27,0,0,1,6.2,3.93,9.67,9.67,0,0,1,1.8,3.4,7.86,7.86,0,0,1-.54,5.79,6.92,6.92,0,0,1-1.2,1.64,7.41,7.41,0,0,1-3.33,1.92,9.12,9.12,0,0,1-7.07-1,6.81,6.81,0,0,1-2.54-2.65,5.22,5.22,0,0,1-.48-3.68,4.42,4.42,0,0,1,.85-1.69,4.21,4.21,0,0,1,1.48-1.12,5.3,5.3,0,0,1,3.43-.34,4.64,4.64,0,0,1,2.82,1.77A2.86,2.86,0,0,1,273.18,34.35Z" transform="translate(-1.37 -0.59)"/><ellipse class="cls-3" cx="258.62" cy="112.27" rx="104.96" ry="63.51"/><path class="cls-4" d="M110.5,55.53c5.45,1.23,55.64,12.94,58.26,28.41a127.63,127.63,0,0,1,1.14,14.48c.11,4.82-.12,5.7-.07,13.62.06,7.59.29,8.2.14,12.08a86.92,86.92,0,0,1-1.44,13.07c-2,9.57-25.73,19.11-56.88,24.35a161.91,161.91,0,0,1-9.64-54A159.2,159.2,0,0,1,110.5,55.53Z" transform="translate(-1.37 -0.59)"/><path class="cls-5" d="M356.13,123.55A30.63,30.63,0,0,1,351.4,142a38.94,38.94,0,0,1-14.47,13,71,71,0,0,1-18.29,6.56,175.88,175.88,0,0,1-18.9,3.47c-6.36.86-12.76,1.3-19.15,1.56-3.2.12-6.41.13-9.61.08s-6.4-.15-9.59-.38-6.38-.52-9.56-.88-6.34-.89-9.49-1.47-6.27-1.31-9.35-2.19a36.11,36.11,0,0,1-8.86-3.64,24,24,0,0,0,4.52,1.44c1.53.38,3.08.68,4.63.94,3.11.54,6.25.92,9.38,1.22s6.28.55,9.43.71,6.29.3,9.44.32a277.06,277.06,0,0,0,37.67-2l4.67-.61c1.55-.25,3.11-.46,4.66-.73,3.1-.51,6.2-1,9.28-1.66a73,73,0,0,0,17.7-5.54,46.37,46.37,0,0,0,7.86-4.79,35.35,35.35,0,0,0,6.48-6.51A32.12,32.12,0,0,0,356.13,123.55Z" transform="translate(-1.37 -0.59)"/><path class="cls-6" d="M166.63,112.86a56.91,56.91,0,0,1,.32,9.6A31.49,31.49,0,0,1,165,132a20.23,20.23,0,0,1-5.6,8.16,19.58,19.58,0,0,1-4.18,2.8c-1.49.74-2.9,1.4-4.37,2.07a131.31,131.31,0,0,1-18.06,6.6,87.05,87.05,0,0,1-18.92,3.31c6.19-1.63,12.26-3.42,18.25-5.48s11.91-4.26,17.76-6.69c1.46-.59,3-1.19,4.36-1.82a20.38,20.38,0,0,0,3.83-2.37,19.27,19.27,0,0,0,5.45-7.2C166.09,125.7,166.55,119.21,166.63,112.86Z" transform="translate(-1.37 -0.59)"/><path class="cls-7" d="M106.12,71.46C100.2,58.63,85.45,54.82,74.85,55.63,61,56.69,57.59,65.35,37.1,72.61a98.66,98.66,0,0,1-21.85,5.07,88.54,88.54,0,0,1,22.49,6.41c19.79,8.56,22.36,18.08,36,20.12s31.27-4.62,34.49-17.29C110,80,107,73.27,106.12,71.46Z" transform="translate(-1.37 -0.59)"/><path class="cls-7" d="M106.12,132.5c-5.92-12.83-20.67-16.64-31.27-15.83-13.81,1.06-17.26,9.73-37.75,17a98.09,98.09,0,0,1-21.85,5.07,89,89,0,0,1,22.49,6.41c19.79,8.57,22.36,18.08,36,20.12s31.27-4.62,34.49-17.29C110,141,107,134.31,106.12,132.5Z" transform="translate(-1.37 -0.59)"/><path class="cls-2" d="M88.72,138.72a2.43,2.43,0,0,1-.59,2.87,4.19,4.19,0,0,1-3,1,5.67,5.67,0,0,1-3.09-1,4.58,4.58,0,0,1-1.86-2.9,4.44,4.44,0,0,1,.91-3.48,5.7,5.7,0,0,1,3-1.92,9.15,9.15,0,0,1,6.7.8,8.38,8.38,0,0,1,2.73,2.32,6.74,6.74,0,0,1,.91,1.64,7.77,7.77,0,0,1,.47,1.81,7,7,0,0,1-.56,3.78,7.88,7.88,0,0,1-2.38,2.94,9.77,9.77,0,0,1-3.28,1.62,13.57,13.57,0,0,1-3.44.47,14.47,14.47,0,0,1-6.7-1.53,12.71,12.71,0,0,1-5.26-4.76,11.51,11.51,0,0,1-1.35-3.42,10.79,10.79,0,0,1,3.21-10.28,14.15,14.15,0,0,1,6.24-3.4,21.58,21.58,0,0,1,13.25.93,19.49,19.49,0,0,1,10.13,8.75,16.61,16.61,0,0,1,1.82,6.66,15.5,15.5,0,0,1-1.17,6.83,16.54,16.54,0,0,1-3.89,5.6,18.87,18.87,0,0,1-5.6,3.6,23.13,23.13,0,0,1-3.1,1.06,20.41,20.41,0,0,1-3.3.58,21.62,21.62,0,0,1-6.48-.79,79.46,79.46,0,0,1-11.51-4.3c-7.4-3.3-14.5-7.06-21.79-10.37a98.49,98.49,0,0,0-11.14-4.42A35.17,35.17,0,0,0,32.77,138a12.07,12.07,0,0,0-5.9.52,12.37,12.37,0,0,1,5.93-1,32.15,32.15,0,0,1,6,.95,92.43,92.43,0,0,1,11.52,3.8c7.51,2.95,14.83,6.35,22.23,9.33a77.78,77.78,0,0,0,11.21,3.7,18.65,18.65,0,0,0,5.46.54,13.69,13.69,0,0,0,2.61-.6,18.83,18.83,0,0,0,2.55-1,14.13,14.13,0,0,0,7.15-7.42,11.19,11.19,0,0,0,.68-5,11.89,11.89,0,0,0-.49-2.5,11.76,11.76,0,0,0-1-2.36,15,15,0,0,0-7.86-6.56,17.94,17.94,0,0,0-10.43-.82,9.69,9.69,0,0,0-4.27,2.24,7,7,0,0,0-2.14,3.92,6.6,6.6,0,0,0,0,2.26,7.55,7.55,0,0,0,.78,2.18,8.65,8.65,0,0,0,3.48,3.32,11.27,11.27,0,0,0,4.9,1.36,7.6,7.6,0,0,0,4.67-1.11,4.18,4.18,0,0,0,1.94-3.7,4.33,4.33,0,0,0-.2-1.11,4,4,0,0,0-.47-1,5.45,5.45,0,0,0-1.72-1.69,7.09,7.09,0,0,0-4.93-1,3.77,3.77,0,0,0-2.12,1.06,2.75,2.75,0,0,0-.78,2.12c0,1.65,1.69,3.07,3.53,3.33a3.79,3.79,0,0,0,2.68-.48A2.22,2.22,0,0,0,88.72,138.72Z" transform="translate(-1.37 -0.59)"/><path class="cls-2" d="M86.88,83.46a3.26,3.26,0,0,0-.4-2.95A3.46,3.46,0,0,0,84,79.11a3.81,3.81,0,0,0-2.66.68A3.45,3.45,0,0,0,80,82a4.38,4.38,0,0,0,1.92,4.56,5.52,5.52,0,0,0,2.46.78,5.79,5.79,0,0,0,2.52-.4,5.33,5.33,0,0,0,2-1.47,5.57,5.57,0,0,0,1-2.23,6.63,6.63,0,0,0-.83-4.85,6.78,6.78,0,0,0-3.92-3,9.61,9.61,0,0,0-2.55-.39,9.73,9.73,0,0,0-2.52.38,7.94,7.94,0,0,0-4,2.78,9.14,9.14,0,0,0-1.74,4.72,10.79,10.79,0,0,0,3.91,9.2,10.45,10.45,0,0,0,2.19,1.4,13.75,13.75,0,0,0,2.54.93,14.1,14.1,0,0,0,5.37.36,13.47,13.47,0,0,0,9.16-5.13,12.81,12.81,0,0,0,1.41-2.29,16.56,16.56,0,0,0,1-2.6,17,17,0,0,0,.72-5.54,18.9,18.9,0,0,0-8-14.5A17.93,17.93,0,0,0,90,63.27a6.42,6.42,0,0,0-2.44-.68,19.15,19.15,0,0,0-5.78.56,55,55,0,0,0-5.94,1.77C71.93,66.33,68,68,64.14,69.74s-7.81,3.44-11.78,5.05a79.9,79.9,0,0,1-12.25,4,24.45,24.45,0,0,1-6.44.67,9.68,9.68,0,0,1-6-2.07,9.48,9.48,0,0,0,6,1.55,25.59,25.59,0,0,0,6.18-1.13,84.51,84.51,0,0,0,11.76-4.74C59.3,69.48,66.74,65.31,74.78,62A57,57,0,0,1,81,59.86,21.44,21.44,0,0,1,87.89,59a12.4,12.4,0,0,1,1.87.27c.32.09.63.16.95.27s.65.24.89.36a22.13,22.13,0,0,1,3.09,1.61,22.64,22.64,0,0,1,5.3,4.57A22.41,22.41,0,0,1,105.23,79a21.59,21.59,0,0,1-.68,7.11,21.9,21.9,0,0,1-1.25,3.39,18.23,18.23,0,0,1-1.9,3.17,18.48,18.48,0,0,1-12.49,7.19,18.72,18.72,0,0,1-7.3-.54A19.25,19.25,0,0,1,78.16,98,16.08,16.08,0,0,1,75,96a15,15,0,0,1-4.49-17.2,12.41,12.41,0,0,1,8.41-7.49,13.26,13.26,0,0,1,3.81-.37,13.41,13.41,0,0,1,3.72.78,10.64,10.64,0,0,1,5.78,4.93A9.73,9.73,0,0,1,93,84.1a8.55,8.55,0,0,1-1.92,3.38,8,8,0,0,1-3.28,2.06,8.18,8.18,0,0,1-3.77.3,7.83,7.83,0,0,1-3.45-1.49,6.28,6.28,0,0,1-2.17-6.76,4.94,4.94,0,0,1,2.26-2.85,4.83,4.83,0,0,1,3.48-.48,4,4,0,0,1,2.7,2A3.47,3.47,0,0,1,86.88,83.46Z" transform="translate(-1.37 -0.59)"/><ellipse class="cls-8" cx="292.51" cy="112.27" rx="22.34" ry="21.94"/><path class="cls-9" d="M290.33,111.77a12.76,12.76,0,0,1,.65,5,12.46,12.46,0,0,1-1,4.14" transform="translate(-1.37 -0.59)"/><path class="cls-9" d="M290.69,102.81a11.64,11.64,0,0,1-.33,9" transform="translate(-1.37 -0.59)"/><path class="cls-9" d="M295,107.26a.74.74,0,0,1-.48.28,1,1,0,0,1-.56-.08.91.91,0,0,1-.42-.4,1.23,1.23,0,0,1-.15-.56,1.27,1.27,0,0,1,.1-.58,1.1,1.1,0,0,1,.37-.48,1.31,1.31,0,0,1,.56-.23,1.46,1.46,0,0,1,.59,0,1.44,1.44,0,0,1,.55.25,1.51,1.51,0,0,1,.42.45,2.15,2.15,0,0,1,.28,1.16,2.05,2.05,0,0,1-.4,1.15,1.93,1.93,0,0,1-1,.68,2.36,2.36,0,0,1-1.21,0,2.8,2.8,0,0,1-.57-.22l-.14-.08-.06,0-.07,0a2.41,2.41,0,0,1-.24-.21,2.67,2.67,0,0,1-.66-1,3.33,3.33,0,0,1-.2-1.2,3.61,3.61,0,0,1,.23-1.21l.06-.15s.05-.09.07-.14l.08-.14.09-.14a3.23,3.23,0,0,1,.41-.49,3.75,3.75,0,0,1,.51-.38,2.44,2.44,0,0,1,.28-.14l.14-.07.15-.06a3.4,3.4,0,0,1,1.22-.2,4.13,4.13,0,0,1,1.21.19,4,4,0,0,1,1.12.57,3.47,3.47,0,0,1,.86.93,4.59,4.59,0,0,1,.7,2.33,5.22,5.22,0,0,1-.44,2.34,3.5,3.5,0,0,1-.29.54L298,110l-.09.12c-.06.09-.13.16-.19.24a5,5,0,0,1-.89.78,5.21,5.21,0,0,1-.52.28.52.52,0,0,1-.13.06l-.13.06-.27.1-.27.08-.27.07-.28,0-.27,0a12,12,0,0,1-2.15.11l-.53,0-.54,0c-.35,0-.7-.07-1.05-.13.71,0,1.41-.08,2.1-.17a13.61,13.61,0,0,0,2-.38,7.11,7.11,0,0,0,1-.34l.21-.11.11-.06.1-.06a2.7,2.7,0,0,0,.39-.27,3.48,3.48,0,0,0,.65-.68l.13-.19a.93.93,0,0,0,.05-.1l.06-.1a3.25,3.25,0,0,0,.18-.43,4.29,4.29,0,0,0,.21-1.85,4.08,4.08,0,0,0-.57-1.7,3,3,0,0,0-.25-.34,2.83,2.83,0,0,0-.3-.3,3.12,3.12,0,0,0-.35-.25,2.35,2.35,0,0,0-.39-.19,3.45,3.45,0,0,0-.42-.14,2.22,2.22,0,0,0-.44-.06,2.27,2.27,0,0,0-.86.08l-.1,0-.1,0-.19.09a2.25,2.25,0,0,0-.36.24,1.72,1.72,0,0,0-.29.31l-.06.08-.05.09-.06.1,0,.09a2.54,2.54,0,0,0-.12,1.78,2.06,2.06,0,0,0,.42.77l.16.14,0,0,0,0,.09.06a1.65,1.65,0,0,0,.41.18,1.72,1.72,0,0,0,.87.06,1.19,1.19,0,0,0,.41-.15,1.27,1.27,0,0,0,.34-.27,1.48,1.48,0,0,0,.33-.81,1.61,1.61,0,0,0-.16-.9,1.07,1.07,0,0,0-.67-.56,1,1,0,0,0-.88.1.8.8,0,0,0-.3.33,1.11,1.11,0,0,0-.11.46.89.89,0,0,0,.41.81.91.91,0,0,0,.46.1.65.65,0,0,0,.43-.21" transform="translate(-1.37 -0.59)"/><line class="cls-9" x1="288.48" y1="102.09" x2="287.73" y2="120.18"/><path class="cls-9" d="M294.53,116.77a.79.79,0,0,0-.45-.33,1.1,1.1,0,0,0-.57,0,1,1,0,0,0-.46.36,1.35,1.35,0,0,0-.2.55,1.33,1.33,0,0,0,0,.59,1.05,1.05,0,0,0,.33.51,1.42,1.42,0,0,0,.53.28,1.68,1.68,0,0,0,1.16-.17,1.54,1.54,0,0,0,.46-.42,2.1,2.1,0,0,0,.38-1.13,1.93,1.93,0,0,0-.29-1.18,1.89,1.89,0,0,0-.42-.47,2.09,2.09,0,0,0-.55-.3,2.46,2.46,0,0,0-1.2-.11,2.48,2.48,0,0,0-.59.17l-.14.07-.07,0-.07,0a2.4,2.4,0,0,0-.26.18,2.77,2.77,0,0,0-.76,1,3.5,3.5,0,0,0-.31,1.18,3.6,3.6,0,0,0,.12,1.22l0,.16a.84.84,0,0,0,.06.14l.06.15.07.15a3.08,3.08,0,0,0,.37.52,3.2,3.2,0,0,0,.47.43l.26.17.14.08.14.07a3.38,3.38,0,0,0,1.2.31,3.85,3.85,0,0,0,1.22-.08,3.61,3.61,0,0,0,1.16-.46,3.48,3.48,0,0,0,.95-.84,4.61,4.61,0,0,0,.92-2.26,5.49,5.49,0,0,0-.22-2.38,5.38,5.38,0,0,0-.24-.55l-.07-.14a.57.57,0,0,0-.08-.13,2.33,2.33,0,0,0-.17-.26,4.36,4.36,0,0,0-.81-.85,3.91,3.91,0,0,0-.49-.34l-.12-.07-.13-.06-.26-.13-.26-.1-.27-.1-.26-.08-.27-.07a12,12,0,0,0-2.13-.31l-.54,0h-.53c-.35,0-.71,0-1.06,0,.7.1,1.39.22,2.08.37a14.66,14.66,0,0,1,2,.57,7.62,7.62,0,0,1,.91.42l.21.13.1.07.1.07a3.38,3.38,0,0,1,.35.31,3.7,3.7,0,0,1,.59.73l.11.21a1,1,0,0,1,0,.1l.05.1c0,.14.1.29.14.44a4.32,4.32,0,0,1,0,1.86,4.05,4.05,0,0,1-.73,1.65,2.79,2.79,0,0,1-.28.32,2.1,2.1,0,0,1-.33.26,3.13,3.13,0,0,1-.36.22,2.86,2.86,0,0,1-.41.15,2.16,2.16,0,0,1-.44.1,3.15,3.15,0,0,1-.44,0,2.37,2.37,0,0,1-.84-.17l-.1,0-.09,0-.19-.1a2.16,2.16,0,0,1-.33-.27,1.64,1.64,0,0,1-.26-.33l-.06-.09,0-.1a.31.31,0,0,1-.05-.1l0-.1a2.66,2.66,0,0,1,0-1.78,1.94,1.94,0,0,1,.5-.72,1.15,1.15,0,0,1,.17-.14l0,0,.05,0,.09,0a1.62,1.62,0,0,1,.42-.15,1.75,1.75,0,0,1,.88,0,1.18,1.18,0,0,1,.39.19,1.11,1.11,0,0,1,.31.3,1.42,1.42,0,0,1,.26.84,1.58,1.58,0,0,1-.25.88,1.06,1.06,0,0,1-.72.49,1,1,0,0,1-.86-.17.75.75,0,0,1-.27-.36,1,1,0,0,1-.07-.47.89.89,0,0,1,.48-.77,1,1,0,0,1,.48-.06.66.66,0,0,1,.4.25" transform="translate(-1.37 -0.59)"/><line class="cls-9" x1="289.27" y1="102.21" x2="288.53" y2="120.3"/><path class="cls-10" d="M163.92,110.77a43.24,43.24,0,0,1-2.85-18.14,42.51,42.51,0,0,1,3.71-15.1" transform="translate(-1.37 -0.59)"/><path class="cls-11" d="M163.12,145.21A43.14,43.14,0,0,1,160,126.46a42.41,42.41,0,0,1,3.91-15.61" transform="translate(-1.37 -0.59)"/><path class="cls-12" d="M146.1,130.81a2.79,2.79,0,0,1,1.85-1.28,3.29,3.29,0,0,1,2.17.33,3.8,3.8,0,0,1,1.65,1.73,6.16,6.16,0,0,1,.61,2.47,6.37,6.37,0,0,1-.36,2.55,4.83,4.83,0,0,1-1.44,2.11,4.58,4.58,0,0,1-2.15,1,5.25,5.25,0,0,1-2.3-.09A5.61,5.61,0,0,1,144,138.6a6.37,6.37,0,0,1-1.63-2,10.23,10.23,0,0,1-1.13-5.08,9.66,9.66,0,0,1,1.51-5.09,7.75,7.75,0,0,1,1.78-1.87,7.29,7.29,0,0,1,2.2-1.13,8.18,8.18,0,0,1,4.7,0,9.14,9.14,0,0,1,2.22.94c.18.11.35.21.53.34l.26.18.24.21a7.18,7.18,0,0,1,.95.88,12.05,12.05,0,0,1,2.61,4.56,17.24,17.24,0,0,1,0,10.57l-.22.64c-.08.22-.19.42-.28.63l-.28.63-.33.6a12.34,12.34,0,0,1-1.6,2.16,11.54,11.54,0,0,1-2,1.7,10.44,10.44,0,0,1-1.06.66c-.19.1-.37.21-.56.3l-.57.25a11.91,11.91,0,0,1-4.74,1,13.87,13.87,0,0,1-4.68-.8,14.12,14.12,0,0,1-4.35-2.42,15.27,15.27,0,0,1-3.39-4.05,22.08,22.08,0,0,1-2.81-10.2A26.09,26.09,0,0,1,133,121.84a19.31,19.31,0,0,1,1.09-2.35l.32-.57c.11-.19.23-.38.35-.56.24-.36.48-.71.73-1a18.74,18.74,0,0,1,3.43-3.46,15.42,15.42,0,0,1,2-1.28l.51-.27.52-.24c.35-.15.69-.33,1.05-.45l1-.37,1.05-.31c.35-.1.7-.19,1-.26s.7-.16,1.05-.22a42.79,42.79,0,0,1,8.34-.59c.69,0,1.38,0,2.07.07s1.38.09,2.06.16c1.37.11,2.74.28,4.1.5-2.74.18-5.46.45-8.15.85a48.3,48.3,0,0,0-7.89,1.79,23.56,23.56,0,0,0-3.65,1.52c-.3.14-.56.33-.84.49l-.41.25-.39.27A15.68,15.68,0,0,0,140.9,117a15.41,15.41,0,0,0-2.49,3c-.17.28-.34.56-.49.84l-.21.43-.2.44a15.06,15.06,0,0,0-.69,1.88,20.75,20.75,0,0,0-.74,8.12,19.28,19.28,0,0,0,2.27,7.45,10.57,10.57,0,0,0,1,1.5,9.59,9.59,0,0,0,1.16,1.29,10.68,10.68,0,0,0,1.35,1.06,10.91,10.91,0,0,0,1.54.84,11.82,11.82,0,0,0,1.64.58,10.83,10.83,0,0,0,1.69.28,7.93,7.93,0,0,0,3.32-.42l.39-.14.38-.18a5.57,5.57,0,0,0,.76-.41,8.09,8.09,0,0,0,1.36-1,8.54,8.54,0,0,0,1.12-1.35c.08-.13.15-.26.23-.38l.21-.41c.07-.14.15-.26.21-.41l.17-.44a12.83,12.83,0,0,0,.38-7.81,8.78,8.78,0,0,0-1.67-3.33,5.29,5.29,0,0,0-.61-.64l-.16-.15-.17-.13a2.88,2.88,0,0,0-.35-.26,6.83,6.83,0,0,0-1.58-.78,5.89,5.89,0,0,0-3.39-.23,4.88,4.88,0,0,0-1.58.68,5.38,5.38,0,0,0-1.29,1.19,6.82,6.82,0,0,0-1.25,3.6,7.74,7.74,0,0,0,.65,4,4.38,4.38,0,0,0,2.63,2.4,3.65,3.65,0,0,0,3.4-.45,3.47,3.47,0,0,0,1.14-1.46,5.24,5.24,0,0,0,.4-2,4.06,4.06,0,0,0-1.6-3.55,2.91,2.91,0,0,0-1.81-.43,2.35,2.35,0,0,0-1.64.94" transform="translate(-1.37 -0.59)"/><line class="cls-13" x1="166.64" y1="142.33" x2="167.58" y2="80.63"/><path class="cls-12" d="M147.44,89a2.89,2.89,0,0,0,1.76,1.42,3.37,3.37,0,0,0,2.19-.15,3.77,3.77,0,0,0,1.76-1.6,6.19,6.19,0,0,0,.76-2.41,6.46,6.46,0,0,0-.2-2.58,5,5,0,0,0-1.29-2.21,4.8,4.8,0,0,0-2.08-1.21A5.3,5.3,0,0,0,148,80.2a5.38,5.38,0,0,0-2.19.89,6.12,6.12,0,0,0-1.75,1.83,10,10,0,0,0-1.45,5,9.71,9.71,0,0,0,1.18,5.19,7.87,7.87,0,0,0,3.77,3.32,8.31,8.31,0,0,0,4.69.42,8.92,8.92,0,0,0,2.27-.76,5.86,5.86,0,0,0,.55-.3l.27-.16.26-.18a7.71,7.71,0,0,0,1-.8,11.94,11.94,0,0,0,2.89-4.34,16.65,16.65,0,0,0,1.15-5.18,17.17,17.17,0,0,0-.51-5.37l-.19-.66c-.06-.22-.15-.43-.23-.65l-.24-.65c-.1-.21-.19-.42-.29-.62a12.56,12.56,0,0,0-1.46-2.29A12.32,12.32,0,0,0,155.93,73a10.15,10.15,0,0,0-1-.74c-.18-.12-.35-.24-.54-.35l-.55-.3a12.29,12.29,0,0,0-4.67-1.33,13.66,13.66,0,0,0-4.72.42,13.5,13.5,0,0,0-4.49,2.07,14.64,14.64,0,0,0-3.64,3.76,21.62,21.62,0,0,0-3.45,9.94,26.16,26.16,0,0,0,.94,10.42,20.35,20.35,0,0,0,.94,2.43l.28.59c.1.2.2.4.31.59.21.38.43.75.67,1.1a18.26,18.26,0,0,0,3.19,3.72,14.3,14.3,0,0,0,1.89,1.44c.16.11.32.22.49.32l.5.28c.34.17.67.38,1,.52l1,.46,1,.39a9.61,9.61,0,0,0,1,.35c.34.1.69.22,1,.31a43.08,43.08,0,0,0,8.29,1.26c.69,0,1.38.07,2.06.1s1.38,0,2.07,0c1.37,0,2.75-.07,4.12-.17-2.72-.4-5.42-.89-8.08-1.51a48.74,48.74,0,0,1-7.75-2.42,25.67,25.67,0,0,1-3.54-1.82c-.29-.16-.54-.37-.81-.55l-.39-.28-.37-.31a14.88,14.88,0,0,1-1.41-1.34,15.6,15.6,0,0,1-2.29-3.21c-.16-.29-.3-.59-.43-.88s-.13-.29-.19-.44l-.17-.46a13.81,13.81,0,0,1-.56-1.93,20.56,20.56,0,0,1-.22-8.16,18.75,18.75,0,0,1,2.73-7.24,10.45,10.45,0,0,1,1.09-1.42,10,10,0,0,1,1.25-1.19,10.54,10.54,0,0,1,1.41-1,10.28,10.28,0,0,1,1.59-.71,10.52,10.52,0,0,1,1.67-.44A9.88,9.88,0,0,1,149,75.2a8.17,8.17,0,0,1,3.28.69l.38.17.37.21a5.66,5.66,0,0,1,.73.47A8.35,8.35,0,0,1,155,77.9a8.75,8.75,0,0,1,1,1.44l.21.4.18.42c.06.14.13.27.18.42l.15.45a12.85,12.85,0,0,1-.12,7.83,8.75,8.75,0,0,1-1.89,3.19,4.49,4.49,0,0,1-.65.58l-.16.14-.18.12-.37.23a7.32,7.32,0,0,1-1.62.65,6,6,0,0,1-3.4,0,5.34,5.34,0,0,1-1.53-.8,5.19,5.19,0,0,1-1.21-1.3,7,7,0,0,1-1-3.69,7.71,7.71,0,0,1,.9-3.88,4.28,4.28,0,0,1,2.78-2.19,3.69,3.69,0,0,1,3.36.73,3.52,3.52,0,0,1,1,1.55,5.18,5.18,0,0,1,.28,2,4,4,0,0,1-1.83,3.4,2.84,2.84,0,0,1-1.83.29,2.47,2.47,0,0,1-1.58-1.08" transform="translate(-1.37 -0.59)"/><line class="cls-14" x1="161.75" y1="144.62" x2="163.63" y2="76.94"/></svg>