<?xml version="1.0" encoding="utf-8"?>
<!-- Generator: Adobe Illustrator 23.0.3, SVG Export Plug-In . SVG Version: 6.00 Build 0)  -->
<svg version="1.1" id="Layer_1" xmlns="http://www.w3.org/2000/svg" xmlns:xlink="http://www.w3.org/1999/xlink" x="0px" y="0px"
	 viewBox="0 0 150 150" style="enable-background:new 0 0 100 100;" xml:space="preserve">
<style type="text/css">
	.blue{fill:#28B7FF;stroke:none;}
	.yellow{fill:#FFFF00;stroke:none;}
	.pink{fill:#FF4BBD;stroke:none;}
	.white{fill:#FFFFFF;stroke:none;}
</style>
<g id='stand_1'>
    <rect x="10" y="10" width="12" height="52" class="blue" />
</g>
<g id='glow_1'>
    <rect id='glow_1_rect' x="11" y="11" width="10" height="50" class="white" />
</g>

<g id='stand_2'>
    <rect x="25" y="10" width="12" height="52" class="blue" />
</g>
<g id='glow_2'>
    <rect id='glow_2_rect' x="26" y="11" width="10" height="50" class="white" />
</g>

<g id='stand_3'>
    <rect x="40" y="10" width="12" height="52" class="blue" />
</g>
<g id='glow_3'>
    <rect id='glow_3_rect' x="41" y="11" width="10" height="50" class="white" />
</g>

<g id='stand_4'>
    <rect x="55" y="10" width="12" height="52" class="blue" />
</g>
<g id='glow_4'>
    <rect id='glow_4_rect' x="56" y="11" width="10" height="50" class="white" />
</g>

<g id='stand_5'>
    <rect x="70" y="10" width="12" height="52" class="blue" />
</g>
<g id='glow_5'>
    <rect id='glow_5_rect' x="71" y="11" width="10" height="50" class="white" />
</g>

<g id='stand_6'>
    <rect x="85" y="10" width="12" height="52" class="blue" />
</g>
<g id='glow_6'>
    <rect id='glow_6_rect' x="86" y="11" width="10" height="50" class="white" />
</g>

<g id='stand_7'>
    <rect x="100" y="10" width="12" height="52" class="blue" />
</g>
<g id='glow_7'>
    <rect id='glow_7_rect' x="101" y="11" width="10" height="50" class="white" />
</g>

<g id='stand_8'>
    <rect x="115" y="10" width="12" height="52" class="blue" />
</g>
<g id='glow_8'>
    <rect id='glow_8_rect' x="116" y="11" width="10" height="50" class="white" />
</g>
</svg>
