<svg id="Layer_6" data-name="Layer 6" xmlns="http://www.w3.org/2000/svg" xmlns:xlink="http://www.w3.org/1999/xlink" viewBox="0 0 1624.3 1478.42"><defs><style>.cls-1,.cls-16,.cls-6{fill:none;}.cls-2{fill:#2bace2;}.cls-3{fill:url(#linear-gradient);}.cls-4{fill:url(#linear-gradient-2);}.cls-5,.cls-9{fill:#ffe30e;}.cls-11,.cls-13,.cls-14,.cls-15,.cls-16,.cls-18,.cls-5,.cls-6{stroke:#231f20;}.cls-5,.cls-6{stroke-linecap:round;}.cls-11,.cls-13,.cls-14,.cls-15,.cls-16,.cls-17,.cls-18,.cls-5,.cls-6{stroke-miterlimit:10;}.cls-11,.cls-5,.cls-6{stroke-width:0.41px;}.cls-10,.cls-13,.cls-7{fill:#231f20;}.cls-8{fill:#8a5e3c;}.cls-10{font-size:32.24px;font-family:Loopiejuice-Regular, Loopiejuice;}.cls-11,.cls-12,.cls-14,.cls-17{fill:#fff;}.cls-13{stroke-width:0.82px;}.cls-14{stroke-width:0.57px;}.cls-15{fill:#080000;stroke-width:0.53px;}.cls-16{stroke-width:0.91px;}.cls-17{stroke:#fcee1f;stroke-width:4.07px;}.cls-18{font-size:13.82px;fill:#010101;stroke-width:0.44px;font-family:Harrington;}</style><linearGradient id="linear-gradient" x1="-13497.43" y1="500.31" x2="-13300.58" y2="500.31" gradientTransform="translate(17891.82) scale(1.32 1)" gradientUnits="userSpaceOnUse"><stop offset="0" stop-color="#8cd7f8"/><stop offset="0.15" stop-color="#99dbf9"/><stop offset="0.43" stop-color="#bae7fb"/><stop offset="0.79" stop-color="#effafe"/><stop offset="0.89" stop-color="#fff"/></linearGradient><linearGradient id="linear-gradient-2" x1="-13465.99" y1="429.13" x2="-13324.97" y2="429.13" gradientTransform="translate(17891.82) scale(1.32 1)" gradientUnits="userSpaceOnUse"><stop offset="0" stop-color="#9eddf9"/><stop offset="0.17" stop-color="#abe1fa"/><stop offset="0.49" stop-color="#ccedfc"/><stop offset="0.89" stop-color="#fff"/></linearGradient></defs><title>SuperStage.Karioke</title><g id="Layer_1" data-name="Layer 1"><rect id="_Slice_" data-name="&lt;Slice&gt;" class="cls-1" x="1010.3" y="1171.42" width="614" height="179"/><rect id="_Slice_2" data-name="&lt;Slice&gt;" class="cls-1" x="783.3" y="1297.42" width="669" height="181"/></g><g id="Karaoke"><ellipse class="cls-2" cx="131.07" cy="175.52" rx="129.48" ry="26.41"/><ellipse class="cls-2" cx="134.95" cy="104.5" rx="93.33" ry="23.7"/><path class="cls-3" d="M286.44,517a519.84,519.84,0,0,1-136.66,16.55A519.59,519.59,0,0,1,25.88,517V467a517.82,517.82,0,0,0,123.65,16.55A518.9,518.9,0,0,0,286.44,467Z" transform="translate(-25.88 -291.04)"/><path class="cls-4" d="M254.16,448.19a306.86,306.86,0,0,1-186.65,0V395.53a258,258,0,0,0,186.65,0Z" transform="translate(-25.88 -291.04)"/><path class="cls-5" d="M233.4,329.84l-2.27.36c0-.33-.09-.66-.12-1l2.31-.05C233.35,329.37,233.38,329.6,233.4,329.84Z" transform="translate(-25.88 -291.04)"/><path class="cls-6" d="M165.12,334.62" transform="translate(-25.88 -291.04)"/><path class="cls-6" d="M129.77,333.68" transform="translate(-25.88 -291.04)"/><path class="cls-5" d="M238.53,329l-5.13.83-2.27.36c0-.33-.09-.66-.12-1l2.31-.05Z" transform="translate(-25.88 -291.04)"/><path class="cls-6" d="M231.13,330.2" transform="translate(-25.88 -291.04)"/><path class="cls-6" d="M256.27,326.17" transform="translate(-25.88 -291.04)"/><path class="cls-7" d="M221.17,372l-1.62,21.38a.38.38,0,0,1-.41.34.37.37,0,0,1-.35-.38l.44-21.44a1,1,0,1,1,1.94,0Z" transform="translate(-25.88 -291.04)"/><path class="cls-7" d="M154.23,372.8l.57,21.45a.42.42,0,0,1-.4.42.41.41,0,0,1-.42-.38l-1.85-21.37a1.05,1.05,0,0,1,2.1-.18Z" transform="translate(-25.88 -291.04)"/><ellipse class="cls-8" cx="124.29" cy="103.24" rx="4.35" ry="1.85"/><path class="cls-7" d="M150.17,392.16a9,9,0,0,1,2.57.4,4.61,4.61,0,0,1,1.2.54,1.28,1.28,0,0,1,0,2.35,4.7,4.7,0,0,1-1.21.55,8.93,8.93,0,0,1-2.57.38,9.14,9.14,0,0,1-2.59-.31,4.64,4.64,0,0,1-1.24-.53,1.63,1.63,0,0,1-.86-1.27,1.66,1.66,0,0,1,.85-1.27,4.43,4.43,0,0,1,1.25-.54A9.13,9.13,0,0,1,150.17,392.16Zm0,.53a8.85,8.85,0,0,0-2.41.37,4.16,4.16,0,0,0-1.07.48,1.06,1.06,0,0,0-.54.73,1.08,1.08,0,0,0,.54.74,4.47,4.47,0,0,0,1.06.49,8.91,8.91,0,0,0,2.42.36,8.68,8.68,0,0,0,2.44-.3,4.19,4.19,0,0,0,1.11-.46,1.2,1.2,0,0,0,.62-.83,1.17,1.17,0,0,0-.62-.83,4.53,4.53,0,0,0-1.1-.48A8.74,8.74,0,0,0,150.17,392.69Z" transform="translate(-25.88 -291.04)"/><ellipse class="cls-8" cx="196.87" cy="102.31" rx="3.71" ry="1.85"/><path class="cls-7" d="M222.76,391.74a6.17,6.17,0,0,0-2.14.31c-.64.23-1.37.66-1.39,1.3s.76,1.06,1.4,1.29a6.32,6.32,0,0,0,2.13.31,6,6,0,0,0,2.1-.38c.63-.23,1.3-.7,1.29-1.22s-.66-1-1.29-1.22A6.46,6.46,0,0,0,222.76,391.74Zm0-.48a6.71,6.71,0,0,1,2.3.33,3.73,3.73,0,0,1,1.07.58,1.57,1.57,0,0,1,.64,1.18,1.54,1.54,0,0,1-.65,1.17,3.36,3.36,0,0,1-1.07.57,6.64,6.64,0,0,1-2.29.35,6.85,6.85,0,0,1-2.28-.41,3.44,3.44,0,0,1-1-.59,1.52,1.52,0,0,1-.58-1.09,1.47,1.47,0,0,1,.59-1.09,3.5,3.5,0,0,1,1-.58A6.52,6.52,0,0,1,222.76,391.26Z" transform="translate(-25.88 -291.04)"/><path class="cls-9" d="M233.4,329.84c1.71,14.51,4,32,5,43.07L138.2,374q.41-12.19.83-24.4.27-7.83.56-15.67l-1.87-.05-6.93-.56s-5.74-.15-7.63-.39c-2.49-.32-9.56-2.08-9.56-2.08,1.8-14.56,8.65-25.46,15.28-24.35,2.24.38,4.18,2.08,5.68,4.74,3.38-7.13,8.24-11.57,13.56-11.43,9.76.26,19.64,12.9,19.26,31.86l.52,2.2c5.74,3.15,7.3,4.21,20,4.28,8.34,0,12.36-5.25,16.88-8.79l-2.43.56c-.4-18.95,7.57-34.53,17.79-34.79,5.57-.15,10.66,4.29,14.2,11.42,1.58-2.65,3.6-4.36,6-4.73,6.95-1.12,14.11,9.79,16,24.34l-16.94,2.72-5.93.95" transform="translate(-25.88 -291.04)"/><path class="cls-7" d="M233.81,329.79l2.42,21.54c.8,7.19,1.61,14.37,2.22,21.58v0h0c-8.35.23-16.7.51-25,.65l-12.52.27-12.53.19c-8.35.11-16.7.29-25.05.3l-6.26,0-6.27-.05c-4.18,0-8.35-.09-12.53-.2h-.14V374h0l1.26-40.08.25.27h0c-2.2.05-4.37-.19-6.56-.29s-4.35-.13-6.56-.2c-1.1,0-2.18,0-3.32-.16s-2.21-.33-3.29-.54c-2.16-.41-4.3-.87-6.45-1.36l-.7-.15.09-.74h0A54.79,54.79,0,0,1,115,321.2a36.59,36.59,0,0,1,4.18-8.88,18.87,18.87,0,0,1,3.2-3.77,9.18,9.18,0,0,1,4.41-2.31,6.2,6.2,0,0,1,4.79,1.15,11.43,11.43,0,0,1,3.16,3.76h-.36a27.79,27.79,0,0,1,3.87-6.41,15.08,15.08,0,0,1,6-4.62,9.78,9.78,0,0,1,3.78-.72,12.34,12.34,0,0,1,3.77.66,17.5,17.5,0,0,1,6.4,4,30,30,0,0,1,7.5,12.85,46.41,46.41,0,0,1,1.91,14.76v-.05l.52,2.2-.09-.12c1.47.81,2.93,1.65,4.46,2.31a19.55,19.55,0,0,0,4.79,1.36,73.05,73.05,0,0,0,10,.61,18.68,18.68,0,0,0,4.95-.51,16.59,16.59,0,0,0,4.58-2c2.87-1.73,5.22-4.17,7.86-6.27l.12.25-2.43.57-.17,0v-.17h0a58.42,58.42,0,0,1,1.51-15.36,36.21,36.21,0,0,1,6.41-14,16,16,0,0,1,6.08-4.85,10.46,10.46,0,0,1,7.75-.23,15.31,15.31,0,0,1,6.31,4.53,28.15,28.15,0,0,1,4.16,6.53h-.18a10.7,10.7,0,0,1,3.19-3.83,6.67,6.67,0,0,1,4.9-1.18,9.57,9.57,0,0,1,4.54,2.23,18.81,18.81,0,0,1,3.33,3.75,33.91,33.91,0,0,1,4.27,9q.76,2.37,1.29,4.79c.18.81.33,1.62.47,2.44a5.49,5.49,0,0,1,.09,2.49h0l0,.05c0,.56-.14.69-.26.71l-.35.06-.72.11-1.42.24c-1,.14-1.91.29-2.87.4l-5.75.7c-1.92.23-3.83.51-5.74.77s-3.82.61-5.7,1.06a.44.44,0,1,1-.2-.86h.06c1.93-.16,3.84-.46,5.74-.77s3.8-.68,5.7-1.07l5.68-1.12c1-.2,1.9-.35,2.85-.51l1.43-.23.71-.11.36,0c.12,0,.26.06.46.59l0,.05h0a6.68,6.68,0,0,1-.66-2.39c-.15-.8-.31-1.6-.49-2.4a48.41,48.41,0,0,0-1.32-4.71,36.44,36.44,0,0,0-4.2-8.76,18.39,18.39,0,0,0-3.17-3.64,8.86,8.86,0,0,0-4.17-2.11,6.2,6.2,0,0,0-4.48,1,11.92,11.92,0,0,0-3.33,3.45h0l-.1.15-.08-.16a30.5,30.5,0,0,0-4.33-6.3,15.46,15.46,0,0,0-6.15-4.29,10.16,10.16,0,0,0-7.32.23,15.37,15.37,0,0,0-5.88,4.65,35.67,35.67,0,0,0-6.37,13.79,61,61,0,0,0-1.71,15.24h0l-.17-.13,2.42-.57.62-.15-.5.4c-2.61,2.08-5,4.54-7.87,6.3a16.46,16.46,0,0,1-4.66,2,18.59,18.59,0,0,1-5,.53,74,74,0,0,1-10.08-.58,19.71,19.71,0,0,1-4.88-1.38c-1.56-.67-3-1.51-4.5-2.31l-.07,0,0-.08-.52-2.2v-.05a45.81,45.81,0,0,0-2.07-14.58,29.69,29.69,0,0,0-7.46-12.49,16.62,16.62,0,0,0-6.15-3.77,10.35,10.35,0,0,0-7,0,15.12,15.12,0,0,0-5.73,4.32,30.63,30.63,0,0,0-4,6.15h0l-.16.34-.19-.33a10.92,10.92,0,0,0-3.1-3.54,5.62,5.62,0,0,0-4.39-1,8.5,8.5,0,0,0-4,2.28,18.57,18.57,0,0,0-2.93,3.71,36.17,36.17,0,0,0-3.74,8.74,53.45,53.45,0,0,0-1.83,9.38h0l-.61-.89c2.1.56,4.22,1.11,6.33,1.62,1.06.24,2.13.49,3.16.65s2.14.22,3.22.3c2.17.15,4.38.2,6.55.47s4.36.52,6.53.57h.27V334L138.32,374h0l-.12-.13q6.26-.31,12.52-.48l6.26-.18,6.27-.1c8.35-.17,16.7-.19,25.05-.26l12.53-.08h12.52c8.36,0,16.71.05,25.06.1h0l0,0c-.73-7.19-1.66-14.35-2.59-21.52L233,329.88a.4.4,0,0,1,.35-.45.41.41,0,0,1,.46.35Z" transform="translate(-25.88 -291.04)"/><path class="cls-9" d="M137.72,333.89" transform="translate(-25.88 -291.04)"/><path class="cls-9" d="M130.54,333.7" transform="translate(-25.88 -291.04)"/><path class="cls-1" d="M137.61,334.89" transform="translate(-25.88 -291.04)"/><path class="cls-1" d="M113.6,330.86" transform="translate(-25.88 -291.04)"/><text class="cls-10" transform="translate(148.97 73.88) scale(0.86 1)">54</text><path class="cls-8" d="M247.45,328.4,222.1,317.91" transform="translate(-25.88 -291.04)"/><path class="cls-7" d="M247,329.57c-2.14-.78-4.22-1.75-6.3-2.71L234.43,324q-6.24-2.85-12.46-5.78l.25-.6c4.31,1.53,8.61,3.12,12.9,4.71l6.44,2.38c2.15.79,4.3,1.57,6.37,2.54Z" transform="translate(-25.88 -291.04)"/><path class="cls-8" d="M116.43,331l-9.52,26.83" transform="translate(-25.88 -291.04)"/><path class="cls-7" d="M117.63,331.44c-.7,2.27-1.59,4.47-2.47,6.67l-2.63,6.62q-2.62,6.61-5.31,13.22l-.62-.22c1.37-4.55,2.79-9.08,4.21-13.61l2.13-6.8c.71-2.26,1.41-4.53,2.29-6.73Z" transform="translate(-25.88 -291.04)"/><ellipse class="cls-8" cx="219.28" cy="315.82" rx="1.15" ry="3.89" transform="translate(-190.6 5.31) rotate(-52.32)"/><path class="cls-7" d="M218.64,316.52a11.75,11.75,0,0,0,1.73,1.18,7.16,7.16,0,0,0,.95.41c.31.1.7.17.88,0s0-.52-.13-.79a5.35,5.35,0,0,0-.62-.82,10.76,10.76,0,0,0-1.54-1.4,12.15,12.15,0,0,0-1.76-1.12,5.88,5.88,0,0,0-1-.38c-.29-.1-.69-.13-.78,0s0,.39.14.65a5.15,5.15,0,0,0,.59.82A10.76,10.76,0,0,0,218.64,316.52Zm-.25.33a12.26,12.26,0,0,1-1.61-1.45,6,6,0,0,1-.66-.9,1.88,1.88,0,0,1-.23-.56.73.73,0,0,1,.19-.74,1.4,1.4,0,0,1,1.27-.05,6.59,6.59,0,0,1,1,.45,11.5,11.5,0,0,1,1.8,1.2,12.29,12.29,0,0,1,1.56,1.5,6.21,6.21,0,0,1,.63.89,2,2,0,0,1,.21.54.61.61,0,0,1-.16.64,1.34,1.34,0,0,1-1.17,0,6.92,6.92,0,0,1-1-.42A11.91,11.91,0,0,1,218.39,316.85Z" transform="translate(-25.88 -291.04)"/><ellipse class="cls-8" cx="106.39" cy="361.06" rx="3.65" ry="0.97" transform="translate(-294.07 107.08) rotate(-79.23)"/><path class="cls-7" d="M107.51,361.35a11.64,11.64,0,0,1-.57,1.91,5.44,5.44,0,0,1-.44.91,2.12,2.12,0,0,1-.32.42.52.52,0,0,1-.59.15,1.29,1.29,0,0,1-.46-1,6.93,6.93,0,0,1-.06-1,13.21,13.21,0,0,1,.72-3.92,5.58,5.58,0,0,1,.43-.93,2.2,2.2,0,0,1,.33-.44.62.62,0,0,1,.69-.18.82.82,0,0,1,.39.53,2.5,2.5,0,0,1,.11.53,6.88,6.88,0,0,1,0,1A13.05,13.05,0,0,1,107.51,361.35Zm-.36-.07a12.62,12.62,0,0,0,.19-1.93,4.85,4.85,0,0,0,0-.94c0-.29-.15-.66-.25-.7s-.31.18-.44.43a4.8,4.8,0,0,0-.42.85,12.83,12.83,0,0,0-.54,1.86,12.3,12.3,0,0,0-.25,1.92,7.69,7.69,0,0,0,0,1c0,.29.12.67.29.77s.42-.22.56-.48a5.18,5.18,0,0,0,.4-.86A12.38,12.38,0,0,0,107.15,361.28Z" transform="translate(-25.88 -291.04)"/><ellipse class="cls-8" cx="181.53" cy="317.22" rx="23.99" ry="18.64" transform="translate(-192.81 -84.1) rotate(-42.66)"/><path class="cls-7" d="M202.62,304.53a18.34,18.34,0,0,1,1.36,8.63,24.32,24.32,0,0,1-2.26,8.31,31.19,31.19,0,0,1-11.07,12.71,28.82,28.82,0,0,1-7.65,3.71,22.86,22.86,0,0,1-8.47,1.09,17.51,17.51,0,0,1-8.24-2.57,15.45,15.45,0,0,1-5.78-6.54,18.48,18.48,0,0,1-1.58-8.6,24.76,24.76,0,0,1,2-8.48A30.64,30.64,0,0,1,172,299.64a26.33,26.33,0,0,1,16.58-4.72,18,18,0,0,1,8.35,2.86A15.62,15.62,0,0,1,202.62,304.53Zm-1.69.77a13.77,13.77,0,0,0-5.11-5.81,15.87,15.87,0,0,0-7.42-2.36,24,24,0,0,0-15.11,4.43,28.64,28.64,0,0,0-10.42,12.08,22.76,22.76,0,0,0-2,7.74,16.72,16.72,0,0,0,1.23,7.79,14,14,0,0,0,5,6,16.44,16.44,0,0,0,7.54,2.64,21.78,21.78,0,0,0,8.13-.81,28.37,28.37,0,0,0,7.44-3.53,30.09,30.09,0,0,0,6.14-5.51,27.61,27.61,0,0,0,4.27-7,23.33,23.33,0,0,0,1.79-7.9A16.87,16.87,0,0,0,200.93,305.3Z" transform="translate(-25.88 -291.04)"/><path class="cls-8" d="M171,334.11c-1.66,3.51-3.38,8.32-1.71,11.13,3.13,5.25,16.18.4,22.84-3.25,0,0,12.84-7,18-21.69a3.69,3.69,0,0,0,.2-2c-.73-3.38-7.21-4.08-9-4.23" transform="translate(-25.88 -291.04)"/><path class="cls-7" d="M171.16,334.17a35.5,35.5,0,0,0-1.63,4.53,11.7,11.7,0,0,0-.44,4.64,4.47,4.47,0,0,0,.83,2,3.94,3.94,0,0,0,1.77,1.24,10.24,10.24,0,0,0,4.56.34,38.1,38.1,0,0,0,9.18-2.49c1.49-.58,2.95-1.23,4.39-1.93.71-.36,1.43-.73,2.11-1.11s1.34-.84,2-1.28a44.28,44.28,0,0,0,12.94-13.89l.61-1,.53-1.07a22.35,22.35,0,0,0,1-2.16c.28-.74.64-1.49.87-2.21a2.85,2.85,0,0,0-.15-2.11c-.67-1.32-2.25-2.05-3.71-2.57a25.77,25.77,0,0,0-4.71-1V314a22.57,22.57,0,0,1,4.82.73,11.88,11.88,0,0,1,2.3.92,4.7,4.7,0,0,1,1.86,1.74,3.36,3.36,0,0,1,.4,1.28,4.17,4.17,0,0,1-.11,1.32c-.24.83-.56,1.54-.84,2.32a20.34,20.34,0,0,1-1,2.25l-.51,1.11-.59,1.08a40.22,40.22,0,0,1-5.73,7.93,45.79,45.79,0,0,1-7.34,6.49c-.68.46-1.36.91-2.08,1.32s-1.46.77-2.2,1.13c-1.47.71-3,1.36-4.49,1.94a35.42,35.42,0,0,1-9.5,2.44,11.09,11.09,0,0,1-5-.53,4.66,4.66,0,0,1-2.1-1.57,5,5,0,0,1-.93-2.43,12.27,12.27,0,0,1,.68-4.91,29.59,29.59,0,0,1,1.89-4.49Z" transform="translate(-25.88 -291.04)"/><path class="cls-7" d="M195.57,339.33a2.94,2.94,0,0,0-1.51-3.73,1.59,1.59,0,0,0-1.82.74,2,2,0,0,0-.1,2.07,1.52,1.52,0,0,0,.78.7,1,1,0,0,0,1-.21,1.24,1.24,0,0,0,0-1.89.61.61,0,0,0-.89.14.8.8,0,0,0,0,1,.44.44,0,0,0,.45.17.5.5,0,0,0,.33-.38.49.49,0,0,0-.18-.48.27.27,0,0,0-.42.15l0,0a.08.08,0,0,1,0-.05.37.37,0,0,1,.55-.2.59.59,0,0,1,.24.58.64.64,0,0,1-.4.51.62.62,0,0,1-.64-.19,1,1,0,0,1-.06-1.25.88.88,0,0,1,1.23-.23,1.54,1.54,0,0,1,.11,2.35,1.32,1.32,0,0,1-1.3.32,1.83,1.83,0,0,1-1-.84,2.43,2.43,0,0,1,.08-2.52,2.06,2.06,0,0,1,2.33-1A3,3,0,0,1,196,337a3.67,3.67,0,0,1,0,2.53.24.24,0,0,1-.45-.16Z" transform="translate(-25.88 -291.04)"/><path class="cls-7" d="M174.72,298.44a5.59,5.59,0,0,0,0-3.7,4.82,4.82,0,0,0-2.39-2.8,2.44,2.44,0,0,0-1.76-.09,2.71,2.71,0,0,0-1.4,1.15,3.69,3.69,0,0,0-.14,3.68,3,3,0,0,0,1.36,1.32,1.58,1.58,0,0,0,1.71-.29,2.29,2.29,0,0,0-.12-3.37,1,1,0,0,0-1.57.16,1.49,1.49,0,0,0,.07,1.75.81.81,0,0,0,.78.35.78.78,0,0,0,.54-.66.93.93,0,0,0-.3-.85.44.44,0,0,0-.73.22s0,0-.06,0a0,0,0,0,1,0-.06h0a.61.61,0,0,1,.36-.41.58.58,0,0,1,.55.11,1.11,1.11,0,0,1,.4,1,1,1,0,0,1-.68.85,1,1,0,0,1-1-.4,1.74,1.74,0,0,1-.12-2.08,1.37,1.37,0,0,1,1-.61,1.48,1.48,0,0,1,1.08.34,2.67,2.67,0,0,1,.15,3.93,2,2,0,0,1-2.11.36,3.41,3.41,0,0,1-1.57-1.48,4.17,4.17,0,0,1,0-4.17,3.24,3.24,0,0,1,1.67-1.46,3.07,3.07,0,0,1,2.25,0,5.6,5.6,0,0,1,3,3.16,6.74,6.74,0,0,1,.26,4.37.56.56,0,0,1-1.08-.31Z" transform="translate(-25.88 -291.04)"/><ellipse class="cls-11" cx="177.7" cy="310.79" rx="4.72" ry="7.48" transform="translate(-119.29 -214.06) rotate(-19.46)"/><ellipse class="cls-11" cx="184.8" cy="306.64" rx="4.72" ry="7.48" transform="translate(-117.5 -211.93) rotate(-19.46)"/><path class="cls-12" d="M175.49,323.16l7.43-3.15" transform="translate(-25.88 -291.04)"/><path class="cls-7" d="M175.42,323c1.18-.66,2.42-1.19,3.65-1.73s2.49-1,3.79-1.39a.17.17,0,0,1,.19.1.16.16,0,0,1-.07.18c-1.18.67-2.41,1.21-3.64,1.76s-2.48,1-3.77,1.42a.19.19,0,0,1-.15-.34Z" transform="translate(-25.88 -291.04)"/><path class="cls-12" d="M186.61,317.85l6.94-5.15" transform="translate(-25.88 -291.04)"/><path class="cls-7" d="M186.52,317.73c1.07-1,2.21-1.85,3.35-2.73s2.31-1.72,3.54-2.48a.23.23,0,0,1,.27.37c-1.08.95-2.24,1.81-3.39,2.67s-2.35,1.67-3.59,2.41a.15.15,0,0,1-.21-.05A.15.15,0,0,1,186.52,317.73Z" transform="translate(-25.88 -291.04)"/><ellipse class="cls-13" cx="186.92" cy="308.27" rx="2.8" ry="4.35" transform="translate(-97.82 -233.69) rotate(-14.66)"/><ellipse class="cls-13" cx="179.44" cy="312.72" rx="2.8" ry="4.35" transform="translate(-99.19 -235.44) rotate(-14.66)"/><path class="cls-12" d="M184.76,311.4a11.49,11.49,0,0,1,1.43-1,12.76,12.76,0,0,1,1.51-.79,11.39,11.39,0,0,1-1.42,1A12.16,12.16,0,0,1,184.76,311.4Z" transform="translate(-25.88 -291.04)"/><path class="cls-12" d="M186.32,310.44a1,1,0,0,1-.41-.71,1.19,1.19,0,0,1,.2-.86.85.85,0,0,1,1.43-.06.65.65,0,0,1,.12.49.84.84,0,0,1-.18.43,1.1,1.1,0,0,1-.32.29.48.48,0,0,1-.42,0,.56.56,0,0,1-.3-.34.52.52,0,0,1,.06-.47.3.3,0,0,1,.57.17.32.32,0,0,0-.22-.28.28.28,0,0,0-.27.18.41.41,0,0,0,.2.57c.38.09.89-.57.61-.93a.72.72,0,0,0-.58-.29.77.77,0,0,0-.59.32,1.11,1.11,0,0,0,.1,1.45Z" transform="translate(-25.88 -291.04)"/><path class="cls-12" d="M186.29,310.5a1.06,1.06,0,0,0-.33-.73.8.8,0,0,0-.67-.19.83.83,0,0,0-.57.38,1.07,1.07,0,0,0-.16.73.4.4,0,0,0,.5.3.67.67,0,0,0,.55-.35.5.5,0,0,0,0-.36.27.27,0,0,0-.26-.17.3.3,0,0,0-.29.15.4.4,0,0,0,.06.39.38.38,0,0,1-.11-.41.41.41,0,0,1,.34-.25.41.41,0,0,1,.21.05.38.38,0,0,1,.16.17.68.68,0,0,1,.07.49.67.67,0,0,1-.29.36.93.93,0,0,1-.39.15.69.69,0,0,1-.42-.06.7.7,0,0,1-.19-.16.87.87,0,0,1-.1-.24,1.21,1.21,0,0,1,.2-.92.94.94,0,0,1,.71-.43.93.93,0,0,1,.74.28A1.16,1.16,0,0,1,186.29,310.5Z" transform="translate(-25.88 -291.04)"/><path class="cls-12" d="M177.3,315.82a13.52,13.52,0,0,1,1.43-1,10,10,0,0,1,1.52-.79,12.18,12.18,0,0,1-1.43,1A10,10,0,0,1,177.3,315.82Z" transform="translate(-25.88 -291.04)"/><path class="cls-12" d="M178.86,314.87a1,1,0,0,1-.41-.71,1.29,1.29,0,0,1,.2-.86.86.86,0,0,1,.7-.42.92.92,0,0,1,.74.35.7.7,0,0,1,.11.49.88.88,0,0,1-.18.44,1.06,1.06,0,0,1-.32.28.47.47,0,0,1-.42.05.58.58,0,0,1-.29-.34.52.52,0,0,1,0-.47.36.36,0,0,1,.36-.18.39.39,0,0,1,.22.35.36.36,0,0,0-.23-.29.32.32,0,0,0-.27.18.42.42,0,0,0,.21.58c.38.08.89-.58.6-.94a.72.72,0,0,0-1.16,0,1.07,1.07,0,0,0-.22.74A1.13,1.13,0,0,0,178.86,314.87Z" transform="translate(-25.88 -291.04)"/><path class="cls-12" d="M178.83,314.93a1.09,1.09,0,0,0-.33-.74.78.78,0,0,0-.66-.19.83.83,0,0,0-.58.39,1,1,0,0,0-.15.73.41.41,0,0,0,.49.3.66.66,0,0,0,.55-.36.48.48,0,0,0,0-.35.29.29,0,0,0-.26-.18.32.32,0,0,0-.3.16.36.36,0,0,0,.07.38.36.36,0,0,1,.22-.65.31.31,0,0,1,.21,0,.46.46,0,0,1,.17.17.74.74,0,0,1,.06.49.65.65,0,0,1-.29.37.93.93,0,0,1-.39.15.64.64,0,0,1-.42-.07.46.46,0,0,1-.18-.16.7.7,0,0,1-.11-.23,1.3,1.3,0,0,1,.2-.92,1,1,0,0,1,.71-.44.91.91,0,0,1,.74.29A1.05,1.05,0,0,1,178.83,314.93Z" transform="translate(-25.88 -291.04)"/><path class="cls-8" d="M182.77,297.63l7.68,1" transform="translate(-25.88 -291.04)"/><polygon class="cls-7" points="156.94 6.17 164.68 6.79 164.45 8.49 156.83 7.01 156.94 6.17"/><path class="cls-8" d="M171.16,301.2q-.85,4.21-1.69,8.41" transform="translate(-25.88 -291.04)"/><polygon class="cls-7" points="145.68 10.25 144.41 18.74 142.77 18.41 144.86 10.09 145.68 10.25"/><path class="cls-8" d="M182.08,326.13c-.62,2.3-.71,3.77-.25,4.4.65.91,4.21.56,5.1-3.3.09.09-.06,4.08,3.07,1.93s.16-3.84.16-4c1.44,1.38,5.35-.14,5.23-2.9a3.28,3.28,0,0,0-.28-1.24,3.07,3.07,0,0,0-3-1.65" transform="translate(-25.88 -291.04)"/><path class="cls-7" d="M182.19,326.16a13.75,13.75,0,0,0-.49,2.83,2.77,2.77,0,0,0,.2,1.33c.17.36.67.45,1.11.44a3.65,3.65,0,0,0,2.42-1.15,4.92,4.92,0,0,0,1.22-2.44l.12-.54.36.41a.27.27,0,0,1,.07.13v.19l0,.15,0,.3a3.71,3.71,0,0,0,.11.58,1.82,1.82,0,0,0,.5.92c.47.41,1.3,0,1.92-.4s1.27-1,1.29-1.71a1.64,1.64,0,0,0-.33-1,3.92,3.92,0,0,0-.37-.46l-.21-.21-.11-.12-.07-.07s-.06,0-.1-.22l-.11-.62.51.45h0a2.6,2.6,0,0,0,2.64.23,3.56,3.56,0,0,0,2.09-1.88,2.93,2.93,0,0,0-.35-2.76,3.12,3.12,0,0,0-2.59-1.13v-.16a3.31,3.31,0,0,1,2.79,1.15,3.16,3.16,0,0,1,.45,3,3.85,3.85,0,0,1-2.24,2.13,3.91,3.91,0,0,1-1.56.31,2.31,2.31,0,0,1-1.54-.56h0l.4-.17c0-.16,0-.09,0-.09l0,0,.11.1.24.22a4.15,4.15,0,0,1,.44.49,2,2,0,0,1-.05,2.64,4.62,4.62,0,0,1-1,.89,4.07,4.07,0,0,1-1.2.59,1.53,1.53,0,0,1-1.46-.24,2.34,2.34,0,0,1-.68-1.23,5.19,5.19,0,0,1-.11-.65l0-.32v-.25h0a.24.24,0,0,0,.06.1l.48-.13a5.49,5.49,0,0,1-1.44,2.65,4,4,0,0,1-2.74,1.2,2.35,2.35,0,0,1-.78-.12,1.07,1.07,0,0,1-.64-.54,3,3,0,0,1-.2-1.51,13.92,13.92,0,0,1,.58-2.87Z" transform="translate(-25.88 -291.04)"/><path class="cls-7" d="M182,326.11a1.66,1.66,0,0,1,.66-.78,1.59,1.59,0,0,1,1.05-.17,2.46,2.46,0,0,1,1.61,1.25,2.88,2.88,0,0,1,.31,2,1.63,1.63,0,0,1-.61,1,1.2,1.2,0,0,1-1.2.06,2,2,0,0,1-1-1.86,1.17,1.17,0,0,1,.56-1,.91.91,0,0,1,1.12.34,1.33,1.33,0,0,1,.23,1.07.66.66,0,0,1-.35.49.56.56,0,0,1-.6-.12.76.76,0,0,1-.11-1,.33.33,0,0,1,.49.09.45.45,0,0,1,0,.47c.13-.3-.26-.67-.42-.46a.55.55,0,0,0,.18.7c.22.16.38,0,.42-.23a1,1,0,0,0-.22-.72c-.18-.18-.42-.26-.55-.17a.69.69,0,0,0-.25.6,1.41,1.41,0,0,0,.74,1.28c.43.23.84-.06,1-.62a2.6,2.6,0,0,0-.21-1.64,2,2,0,0,0-1.23-1.09,1.24,1.24,0,0,0-1.42.63.11.11,0,0,1-.19-.1Z" transform="translate(-25.88 -291.04)"/><path class="cls-7" d="M192.16,319.46a1.31,1.31,0,0,0-1.24,1,2.78,2.78,0,0,0,0,1.71,2.15,2.15,0,0,0,1,1.25c.49.24.88-.05,1-.58a1.52,1.52,0,0,0-.42-1.46c-.19-.16-.42-.22-.55-.12a.77.77,0,0,0-.21.65.81.81,0,0,0,.34.64c.21.14.38,0,.41-.28s-.13-.6-.37-.58-.24.57.08.66a.43.43,0,0,1-.12-.8c.45-.07.68.38.69.73a.7.7,0,0,1-.22.54.56.56,0,0,1-.63.05,1.22,1.22,0,0,1-.63-.91,1.18,1.18,0,0,1,.35-1.1.78.78,0,0,1,.65-.15,1.12,1.12,0,0,1,.55.25,2.07,2.07,0,0,1,.68,2,1.48,1.48,0,0,1-.64,1,1.26,1.26,0,0,1-1.19,0,2.49,2.49,0,0,1-1.3-1.63,3.21,3.21,0,0,1,.1-2,1.6,1.6,0,0,1,1.65-1.05.1.1,0,0,1,.09.12A.12.12,0,0,1,192.16,319.46Z" transform="translate(-25.88 -291.04)"/><path class="cls-14" d="M186.78,331.23c.14,0,2.78,1.37,4.22.45s1.93-3.57,1.89-4.57c.93,2.12,1.22,7.19-.14,8.26C191.21,336.58,188.54,333.76,186.78,331.23Z" transform="translate(-25.88 -291.04)"/><polygon class="cls-15" points="197.38 24.65 182.72 32.16 181.18 28.11 195.84 20.6 197.38 24.65"/><ellipse class="cls-15" cx="178.73" cy="31.78" rx="4.79" ry="5.56"/><path class="cls-16" d="M221.85,313.49c8.58-2.5,15.1-7.1,21.93-5.63,5.72,1.23,9.35,11.69,8,18.11-1.35,6.6-7.52,5.52-12,15.29-.66,1.42-4.41,9.52-2.17,16.1.63,1.84,2.59,3.93,6.49,8.05,6.07,6.42,7.27,6.85,7.72,9.26.63,3.37-1,6.59-3.71,12.07a51,51,0,0,1-5.25,8.46" transform="translate(-25.88 -291.04)"/><path class="cls-17" d="M250.07,524.1q-32.67,1.54-67.78,2.12-34.14.54-66,0c-.19,3.68-.29,7.52-.26,11.51,0,4.74.25,9.28.59,13.59q32,.66,66.21.17,35-.54,67.62-2.31c.18-4.4.25-9,.16-13.73C250.49,531.56,250.32,527.76,250.07,524.1Z" transform="translate(-25.88 -291.04)"/><text class="cls-18" transform="matrix(1.09, -0.02, 0.01, 1, 128.74, 253.35)">Karaoke!</text></g></svg>