<svg id="Layer_6" data-name="Layer 6" xmlns="http://www.w3.org/2000/svg" xmlns:xlink="http://www.w3.org/1999/xlink" viewBox="0 0 1170.7 1328.56"><defs><style>.cls-1{fill:none;}.cls-15,.cls-2{fill:#231f20;}.cls-3{fill:#29abe2;}.cls-4{fill:#606161;stroke-width:3.9px;}.cls-13,.cls-14,.cls-15,.cls-17,.cls-22,.cls-4,.cls-5{stroke:#231f20;}.cls-13,.cls-14,.cls-15,.cls-17,.cls-21,.cls-22,.cls-4,.cls-5{stroke-miterlimit:10;}.cls-5{fill:#555554;stroke-width:5.18px;}.cls-6{fill:url(#linear-gradient);}.cls-7{fill:url(#linear-gradient-2);}.cls-8{fill:url(#linear-gradient-3);}.cls-9{fill:url(#linear-gradient-4);}.cls-10{fill:url(#linear-gradient-5);}.cls-11{fill:#09799f;}.cls-12,.cls-14,.cls-17,.cls-18,.cls-21{fill:#fff;}.cls-13{fill:#a87d50;stroke-width:0.58px;}.cls-14{stroke-width:0.23px;}.cls-15{stroke-width:0.45px;}.cls-16,.cls-22{fill:#010101;}.cls-17{stroke-linecap:round;stroke-width:0.95px;}.cls-18{opacity:0.5;}.cls-19{opacity:0.7;}.cls-20{opacity:0.8;}.cls-21{stroke:#fcee1f;stroke-width:4.32px;}.cls-22{font-size:15.59px;stroke-width:0.47px;font-family:Harrington;}</style><linearGradient id="linear-gradient" x1="14125.95" y1="420.26" x2="14326.46" y2="420.26" gradientTransform="matrix(-1.29, 0.16, 0.14, 0.99, 18540.15, -2728.41)" gradientUnits="userSpaceOnUse"><stop offset="0" stop-color="#2bace2" stop-opacity="0"/><stop offset="1" stop-color="#2bace2"/></linearGradient><linearGradient id="linear-gradient-2" x1="14220.97" y1="496.96" x2="14421.54" y2="496.96" gradientTransform="matrix(-1.29, 0.16, 0.14, 0.99, 18540.15, -2728.41)" gradientUnits="userSpaceOnUse"><stop offset="0" stop-color="#2bace2" stop-opacity="0"/><stop offset="0.48" stop-color="#2bace2"/><stop offset="0.92" stop-color="#2bace2" stop-opacity="0"/></linearGradient><linearGradient id="linear-gradient-3" x1="14108.14" y1="454.77" x2="14308.66" y2="454.77" xlink:href="#linear-gradient"/><linearGradient id="linear-gradient-4" x1="14129.13" y1="435.4" x2="14329.7" y2="435.4" gradientTransform="matrix(-1.29, 0.16, 0.14, 0.99, 18540.15, -2728.41)" gradientUnits="userSpaceOnUse"><stop offset="0" stop-color="#fff" stop-opacity="0"/><stop offset="0.35" stop-color="#fff" stop-opacity="0.92"/><stop offset="0.98" stop-color="#fff" stop-opacity="0"/></linearGradient><linearGradient id="linear-gradient-5" x1="14146.45" y1="480.69" x2="14346.96" y2="480.69" xlink:href="#linear-gradient-4"/></defs><title>SuperStage.Speed</title><g id="Layer_1" data-name="Layer 1"><rect id="_Slice_" data-name="&lt;Slice&gt;" class="cls-1" x="556.7" y="1021.56" width="614" height="179"/><rect id="_Slice_2" data-name="&lt;Slice&gt;" class="cls-1" x="329.7" y="1147.56" width="669" height="181"/></g><g id="SpeedyZoom"><path class="cls-2" d="M620.52,465.92a3.7,3.7,0,0,1-3.67,1.1,5.21,5.21,0,0,1-3.09-2.37,4.61,4.61,0,0,1-.43-3.89,3.09,3.09,0,0,1,1.27-1.64,2.59,2.59,0,0,1,2.1-.22,3.44,3.44,0,0,1,2.35,3.12,2.54,2.54,0,0,1-.76,1.94,1.76,1.76,0,0,1-2.1.12,2.25,2.25,0,0,1-1.08-1.72,1.77,1.77,0,0,1,.22-1,1.15,1.15,0,0,1,.91-.61,1.39,1.39,0,0,1,1.4,1.33,1,1,0,0,1-.45.91.77.77,0,0,1-.94-.26.08.08,0,0,1,0-.12.09.09,0,0,1,.11,0,.58.58,0,0,0,.71.17.73.73,0,0,0,.27-.69,1,1,0,0,0-1.07-.93c-.48.05-.73.66-.66,1.17a1.71,1.71,0,0,0,.87,1.26,1.16,1.16,0,0,0,1.35-.1,1.84,1.84,0,0,0,.51-1.42,2.72,2.72,0,0,0-1.88-2.4,1.76,1.76,0,0,0-1.46.15,2.34,2.34,0,0,0-.94,1.23,4,4,0,0,0,.37,3.23,4.5,4.5,0,0,0,2.59,2.08,3,3,0,0,0,3.1-.79.28.28,0,0,1,.38,0,.27.27,0,0,1,0,.37Z" transform="translate(-479.48 -440.89)"/><path class="cls-3" d="M479.48,555.25c3.87-5.84,36.3-53,98.67-58a139.94,139.94,0,0,1,41.16,2.94A137.31,137.31,0,0,0,653.05,499a125,125,0,0,0,27.13-7.54,177.27,177.27,0,0,1,58.22-12.54,185.63,185.63,0,0,1,36.13,1.86,36.09,36.09,0,0,1,4.82,13.28c2,14-5.71,24.77-9.18,29Z" transform="translate(-479.48 -440.89)"/><ellipse class="cls-4" cx="559.26" cy="542.9" rx="18.22" ry="24.33" transform="translate(-472.77 651.74) rotate(-89)"/><path class="cls-3" d="M744.82,486.64c-5.3-4.63-18.71-15.09-41-20.48a119.2,119.2,0,0,0-52.16-.66c3,2.28,9.21,7.62,12.1,15.93a26.68,26.68,0,0,1,.29,16.74" transform="translate(-479.48 -440.89)"/><path class="cls-2" d="M651.62,465.5l-73.47,31.76a264.16,264.16,0,0,0,91.8,2.58,27.49,27.49,0,0,0-2.52-18.5C662.94,472.53,655.05,467.46,651.62,465.5Z" transform="translate(-479.48 -440.89)"/><ellipse class="cls-5" cx="735.95" cy="519.22" rx="24.2" ry="32.31" transform="translate(-275.46 805.14) rotate(-89)"/><polygon class="cls-6" points="179.2 26.32 438.23 2.33 437.81 0 178.78 23.99 179.2 26.32"/><polygon class="cls-7" points="68.26 118.94 327.29 94.95 326.46 90.29 67.43 114.28 68.26 118.94"/><polygon class="cls-8" points="207.07 57.56 466.1 33.57 465.68 31.24 206.66 55.23 207.07 57.56"/><polygon class="cls-9" points="177.47 42.99 436.5 19 435.66 14.34 176.64 38.33 177.47 42.99"/><polygon class="cls-10" points="161.56 89.48 420.59 65.5 420.17 63.16 161.15 87.15 161.56 89.48"/><path class="cls-11" d="M670,499.84c-4.56-9-14.65-14.07-23.59-12.28a17.81,17.81,0,0,0-14.11,15.12c6.33,0,13.1-.27,20.25-.85C658.69,501.34,664.51,500.65,670,499.84Z" transform="translate(-479.48 -440.89)"/><path class="cls-2" d="M761.43,536.13a34.44,34.44,0,0,1-21.2,7.87c-7.6.18-15.49-2-21.52-7.35a19.32,19.32,0,0,1-3.72-4.94,16.53,16.53,0,0,1-1.66-6.05,15.84,15.84,0,0,1,.75-6.17,19.12,19.12,0,0,1,1.16-2.85,21.71,21.71,0,0,1,1.62-2.56,23.6,23.6,0,0,1,1.93-2.29c.34-.35.72-.67,1.08-1a11.67,11.67,0,0,1,1.13-1,20.86,20.86,0,0,1,5.15-3,23.85,23.85,0,0,1,11.51-1.57,19.41,19.41,0,0,1,10.78,4.7,11.4,11.4,0,0,1,3.28,5.41,10.7,10.7,0,0,1-.29,6.34,12.83,12.83,0,0,1-3.4,5.07,14,14,0,0,1-5.15,3.07,14.5,14.5,0,0,1-11.53-.87,8.36,8.36,0,0,1-4.12-4.62,7.15,7.15,0,0,1,.92-6.17,9.36,9.36,0,0,1,2.1-2.2,8.75,8.75,0,0,1,2.68-1.38,9.62,9.62,0,0,1,5.84,0,7.5,7.5,0,0,1,2.63,1.46,4.7,4.7,0,0,1,1.59,2.75,4.47,4.47,0,0,1-.6,3.07,5.67,5.67,0,0,1-2.17,2.07,6,6,0,0,1-5.65,0,3.16,3.16,0,0,1-1.72-2.42,3.1,3.1,0,0,1,1.24-2.62l.43.5a2.33,2.33,0,0,0-.83,2,2.21,2.21,0,0,0,1.36,1.62,4.84,4.84,0,0,0,4.51-.27,3.58,3.58,0,0,0,1.82-3.67c-.29-1.34-1.68-2.26-3.16-2.65a7.63,7.63,0,0,0-4.58.25,6.89,6.89,0,0,0-2,1.12,7.08,7.08,0,0,0-1.46,1.69,4.53,4.53,0,0,0-.44,4,5.61,5.61,0,0,0,2.94,2.91,11.66,11.66,0,0,0,9,.28,10.37,10.37,0,0,0,3.8-2.45,9.13,9.13,0,0,0,2.34-3.71,6.88,6.88,0,0,0,.05-4.09,7.41,7.41,0,0,0-2.27-3.44c-.29-.22-.55-.46-.87-.67l-1-.62a17.25,17.25,0,0,0-2.09-1,17.58,17.58,0,0,0-4.56-1,19.36,19.36,0,0,0-9.25,1.48,15.62,15.62,0,0,0-4,2.38,8,8,0,0,0-.87.78c-.28.27-.58.52-.84.81a17.36,17.36,0,0,0-1.44,1.79,16.12,16.12,0,0,0-1.17,1.94,14,14,0,0,0-.79,2.07,10.75,10.75,0,0,0-.42,4.28,11.71,11.71,0,0,0,1.2,4.08,14.07,14.07,0,0,0,2.67,3.46,20.16,20.16,0,0,0,3.8,2.63l1.05.56c.34.18.73.31,1.09.47l1.1.46,1.14.35a28.94,28.94,0,0,0,9.55,1.24A29.56,29.56,0,0,0,757.93,532Z" transform="translate(-479.48 -440.89)"/><path class="cls-2" d="M574.78,559.84a28.44,28.44,0,0,1-17.27,1.84c-5.71-1.16-11.31-3.95-15-9a13.37,13.37,0,0,1-2-4.35,11.68,11.68,0,0,1-.15-4.89,11.56,11.56,0,0,1,1.85-4.47,13.77,13.77,0,0,1,3.23-3.4,19.77,19.77,0,0,1,1.91-1.27c.68-.34,1.33-.71,2.05-1a17,17,0,0,1,4.39-1.16,19.57,19.57,0,0,1,8.86.87,15.2,15.2,0,0,1,7.38,5.23,8.15,8.15,0,0,1,1.6,4.65,7.72,7.72,0,0,1-1.51,4.7,9.9,9.9,0,0,1-3.61,3,11.26,11.26,0,0,1-4.41,1.24,11.79,11.79,0,0,1-8.5-2.59,8,8,0,0,1-1.57-1.78,5.32,5.32,0,0,1-.81-2.38,5.22,5.22,0,0,1,2-4.42,7.31,7.31,0,0,1,4.26-1.67,8,8,0,0,1,4.38,1,6,6,0,0,1,1.76,1.51,3.37,3.37,0,0,1,.74,2.35,3.3,3.3,0,0,1-1.09,2.17,4.59,4.59,0,0,1-2,1.07,4.93,4.93,0,0,1-4.25-1,2.14,2.14,0,0,1,.59-3.8l.21.46a1.74,1.74,0,0,0-1,1.32,1.6,1.6,0,0,0,.76,1.42,4,4,0,0,0,3.48.58,2.76,2.76,0,0,0,2.13-2.32,3,3,0,0,0-2-2.48,6.11,6.11,0,0,0-6.69.79,3.26,3.26,0,0,0-1.14,2.81,4.18,4.18,0,0,0,1.76,2.64,9.69,9.69,0,0,0,6.84,1.75,8.72,8.72,0,0,0,3.36-1.07A7.07,7.07,0,0,0,567.7,546a4.82,4.82,0,0,0-.28-5.86,12,12,0,0,0-5.92-3.84,16.06,16.06,0,0,0-7.28-.56,13.56,13.56,0,0,0-3.47,1c-.55.23-1.08.55-1.61.83a14,14,0,0,0-1.46,1,9.83,9.83,0,0,0-2.33,2.54,7.68,7.68,0,0,0-1,6.25,9.2,9.2,0,0,0,1.45,3,17.62,17.62,0,0,0,5.5,4.67,24.07,24.07,0,0,0,7,2.52,24.9,24.9,0,0,0,14.74-1.48Z" transform="translate(-479.48 -440.89)"/><path class="cls-12" d="M756.7,484.24,745,483.76l-11.66-.56h0l0,0a99,99,0,0,0-16.65-8.92,102.56,102.56,0,0,0-18-5.63,92.53,92.53,0,0,0-37.6-.1,85.06,85.06,0,0,1,18.82-2.2,92.73,92.73,0,0,1,18.87,1.84,95.33,95.33,0,0,1,34.78,14.72l-.09,0,11.66.66Z" transform="translate(-479.48 -440.89)"/><path class="cls-12" d="M606.87,537.62l20-3.23,20-3.13,20-3.14c6.65-1.06,13.32-2,20-3.06l-.2.22a39.54,39.54,0,0,1,3.24-12.73,37,37,0,0,1,7.41-10.83,40,40,0,0,1,5-4.29,42,42,0,0,1,5.65-3.38,47,47,0,0,1,12.43-4.13,46.12,46.12,0,0,0-17.91,7.75,39.4,39.4,0,0,0-4.93,4.28,36.64,36.64,0,0,0-7.28,10.76,39,39,0,0,0-3.13,12.61l0,.19-.19,0c-6.66,1-13.32,2.11-20,3.1l-20,3-20,3Z" transform="translate(-479.48 -440.89)"/><path class="cls-12" d="M578.28,500.4c4,1,8,1.81,12,2.55s8,1.45,12.06,2A228.06,228.06,0,0,0,626.64,507a221.26,221.26,0,0,0,24.43-.39q6.1-.45,12.17-1.22c4-.49,8.08-1.1,12.09-1.82q-6,1.22-12.06,2.09c-4,.56-8.1,1-12.17,1.32a219.7,219.7,0,0,1-24.48.58,228.46,228.46,0,0,1-24.37-2.26q-6.06-.9-12.06-2.11T578.28,500.4Z" transform="translate(-479.48 -440.89)"/><ellipse class="cls-13" cx="629.94" cy="483.93" rx="11.78" ry="16.18" transform="translate(-643.76 28.11) rotate(-36.46)"/><path class="cls-14" d="M625.47,480.29c1.36,2.07,1.52,4.3.37,5s-3.2-.46-4.56-2.53-1.52-4.3-.36-5S624.11,478.22,625.47,480.29Z" transform="translate(-479.48 -440.89)"/><path class="cls-14" d="M621.65,482.33c1.36,2.08,1.52,4.31.37,5s-3.2-.45-4.56-2.53-1.52-4.3-.36-5S620.29,480.26,621.65,482.33Z" transform="translate(-479.48 -440.89)"/><path class="cls-15" d="M623.7,480.43c.72,1.22.73,2.53,0,2.91s-1.86-.31-2.58-1.54-.73-2.52,0-2.9S623,479.2,623.7,480.43Z" transform="translate(-479.48 -440.89)"/><path class="cls-15" d="M619.87,482.62c.72,1.23.72,2.53,0,2.91s-1.87-.31-2.59-1.53-.73-2.53,0-2.91S619.15,481.39,619.87,482.62Z" transform="translate(-479.48 -440.89)"/><path class="cls-12" d="M622.29,482.25a.77.77,0,0,1-.31-.38.58.58,0,0,1,0-.45.35.35,0,0,1,.34-.19.62.62,0,0,1,.45.2.43.43,0,0,1,.11.26.38.38,0,0,1,0,.22.36.36,0,0,1-.16.14.24.24,0,0,1-.22,0,.5.5,0,0,1-.2-.18.25.25,0,0,1,0-.25.16.16,0,0,1,.18-.08.26.26,0,0,1,.15.19.27.27,0,0,0-.15-.16.12.12,0,0,0-.13.09c-.06.11.06.27.17.31a.29.29,0,0,0,.24-.48.54.54,0,0,0-.35-.16.3.3,0,0,0-.29.15.42.42,0,0,0-.05.37.66.66,0,0,0,.25.39" transform="translate(-479.48 -440.89)"/><path class="cls-12" d="M622.27,482.28a.74.74,0,0,0-.25-.39.51.51,0,0,0-.39-.12.33.33,0,0,0-.28.18.5.5,0,0,0,0,.38.31.31,0,0,0,.31.17.27.27,0,0,0,.27-.17.29.29,0,0,0,0-.19.22.22,0,0,0-.16-.09.13.13,0,0,0-.15.07.24.24,0,0,0,.07.2.24.24,0,0,1-.1-.22.16.16,0,0,1,.16-.11.22.22,0,0,1,.13,0,.28.28,0,0,1,.1.09.4.4,0,0,1,.09.25.25.25,0,0,1-.13.19.4.4,0,0,1-.2.07.57.57,0,0,1-.24-.05.31.31,0,0,1-.11-.09.47.47,0,0,1-.09-.12.61.61,0,0,1,0-.48.38.38,0,0,1,.35-.2.63.63,0,0,1,.44.16.7.7,0,0,1,.23.44" transform="translate(-479.48 -440.89)"/><path class="cls-12" d="M617.68,484.93a5,5,0,0,1,.71-.5,5.79,5.79,0,0,1,.79-.39,4.33,4.33,0,0,1-.71.5,4.46,4.46,0,0,1-.79.39" transform="translate(-479.48 -440.89)"/><path class="cls-12" d="M618.48,484.46a.84.84,0,0,1-.32-.4.6.6,0,0,1,0-.46.4.4,0,0,1,.36-.21.68.68,0,0,1,.46.22.4.4,0,0,1,.12.27.44.44,0,0,1-.06.23.36.36,0,0,1-.16.14.26.26,0,0,1-.23,0,.48.48,0,0,1-.21-.19.25.25,0,0,1,0-.25.15.15,0,0,1,.18-.09.25.25,0,0,1,.16.19.24.24,0,0,0-.16-.15.11.11,0,0,0-.13.08c-.06.11.06.28.18.32a.3.3,0,0,0,.25-.49.6.6,0,0,0-.37-.17.33.33,0,0,0-.3.16.47.47,0,0,0,0,.39.77.77,0,0,0,.26.4" transform="translate(-479.48 -440.89)"/><path class="cls-12" d="M618.46,484.49a.71.71,0,0,0-.26-.41.55.55,0,0,0-.41-.12.34.34,0,0,0-.28.19.48.48,0,0,0,0,.39.31.31,0,0,0,.32.18.3.3,0,0,0,.28-.18.27.27,0,0,0-.05-.19.22.22,0,0,0-.17-.1c-.07,0-.13,0-.15.07a.21.21,0,0,0,.07.21.28.28,0,0,1-.11-.23.18.18,0,0,1,.17-.12.31.31,0,0,1,.13,0,.52.52,0,0,1,.11.1.44.44,0,0,1,.09.27.27.27,0,0,1-.13.19.48.48,0,0,1-.21.07.62.62,0,0,1-.25,0,.47.47,0,0,1-.12-.09l-.08-.13a.58.58,0,0,1,0-.5.4.4,0,0,1,.36-.21.72.72,0,0,1,.69.63" transform="translate(-479.48 -440.89)"/><path class="cls-16" d="M624,486.72a.61.61,0,0,0-.64.21.84.84,0,0,0,.05.67,1.17,1.17,0,0,0,1.19.62,1.34,1.34,0,0,0,1-.88,1.25,1.25,0,0,0,0-.72,1.27,1.27,0,0,0-.4-.66l0,0a1.41,1.41,0,0,1,.57.66,1.37,1.37,0,0,1,0,.87,1.5,1.5,0,0,1-1.23,1.13,1.55,1.55,0,0,1-.92-.17,1.37,1.37,0,0,1-.63-.71,1.32,1.32,0,0,1-.08-.44.78.78,0,0,1,.13-.44.6.6,0,0,1,.4-.22,1.07,1.07,0,0,1,.44.07Z" transform="translate(-479.48 -440.89)"/><path class="cls-2" d="M623.48,486.63a.85.85,0,0,1,.39,0,.62.62,0,0,1,.34.26.45.45,0,0,1,0,.42.55.55,0,0,1-.35.22.44.44,0,0,1-.4-.16.3.3,0,0,1-.08-.2.26.26,0,0,1,.09-.19.29.29,0,0,1,.39,0,.18.18,0,0,1,.07.19.11.11,0,0,1,0,.09l0,0h0s0,0,0,0,0,0,0,0h0l0,0a.09.09,0,0,0,0-.07.15.15,0,0,0-.06-.14.23.23,0,0,0-.3,0,.21.21,0,0,0,0,.29.34.34,0,0,0,.3.1.35.35,0,0,0,.26-.48.55.55,0,0,0-.24-.26.48.48,0,0,0-.37,0" transform="translate(-479.48 -440.89)"/><path class="cls-2" d="M625.54,486.21a.65.65,0,0,0-.6-.28.31.31,0,0,0-.24.11.24.24,0,0,0,0,.27.46.46,0,0,0,.26.17c.11,0,.22,0,.24-.11a.23.23,0,0,0-.17-.23.16.16,0,0,0-.15,0,.07.07,0,0,0,0,.05v.06s0,0,0,0a.11.11,0,0,1,0-.17.26.26,0,0,1,.19,0,.31.31,0,0,1,.23.3.22.22,0,0,1-.12.15.34.34,0,0,1-.2,0,.5.5,0,0,1-.33-.2.35.35,0,0,1,0-.38.38.38,0,0,1,.35-.17.8.8,0,0,1,.6.4" transform="translate(-479.48 -440.89)"/><path class="cls-17" d="M625,491.29a4.72,4.72,0,0,0,3.69-1.23c1.11-1.27,1-3.29-.18-5.16,3.75,1.74,5.31,5.24,4.41,6.82S628.35,493.67,625,491.29Z" transform="translate(-479.48 -440.89)"/><path class="cls-18" d="M616.85,490.8l18.76-7.33-4-8.1-18.15,7.09c.33,1.14.74,2.36,1.23,3.63A48,48,0,0,0,616.85,490.8Z" transform="translate(-479.48 -440.89)"/><path class="cls-3" d="M631.65,475.37l-18.15,7.09a17.4,17.4,0,0,1,11-19.15c9.88-3.86,21.78,1,26.58,10.82s.68,20.93-9.2,24.79c-8.94,3.49-19.52-.13-25-8.12l18.76-7.33Z" transform="translate(-479.48 -440.89)"/><g class="cls-19"><path class="cls-3" d="M614.87,482.7a19.72,19.72,0,0,0,.93,3.28,20.88,20.88,0,0,0,1.32,2.82" transform="translate(-479.48 -440.89)"/><path class="cls-12" d="M614.87,482.7c.22.52.39,1,.58,1.53l.56,1.52.56,1.51c.19.51.39,1,.55,1.54a7.49,7.49,0,0,1-.94-1.36,9.25,9.25,0,0,1-.69-1.5,9.91,9.91,0,0,1-.45-1.59A7.58,7.58,0,0,1,614.87,482.7Z" transform="translate(-479.48 -440.89)"/></g><g class="cls-20"><path class="cls-3" d="M648.19,476.52a20.14,20.14,0,0,0-16.37-11.35,17.57,17.57,0,0,0-14.91,6.59" transform="translate(-479.48 -440.89)"/><path class="cls-12" d="M648.19,476.52a21.66,21.66,0,0,0-2.75-3.8,20.28,20.28,0,0,0-3.42-3.13,20.5,20.5,0,0,0-8.38-3.62,17.45,17.45,0,0,0-13.16,2.76,18.38,18.38,0,0,0-3.57,3,16.81,16.81,0,0,1,16.93-6.89,19,19,0,0,1,8.7,4,21.36,21.36,0,0,1,3.33,3.46A19,19,0,0,1,648.19,476.52Z" transform="translate(-479.48 -440.89)"/></g><path class="cls-21" d="M715.34,519.54q-32.69,1.73-67.78,2.38-34.14.58-66,0-.3,6.24-.27,13c0,5.35.25,10.47.59,15.34,21.32.5,43.4.61,66.2.21q35-.6,67.63-2.59c.18-5,.25-10.13.17-15.49Q715.72,525.74,715.34,519.54Z" transform="translate(-479.48 -440.89)"/><text class="cls-22" transform="matrix(0.97, -0.02, 0.01, 1, 149.64, 101.43)">Speed!</text></g></svg>