<svg id="Layer_6" data-name="Layer 6" xmlns="http://www.w3.org/2000/svg" viewBox="0 0 864.26 1508.54"><defs><style>.cls-1,.cls-29,.cls-5,.cls-6{fill:none;}.cls-2{fill:#e64097;stroke-width:0.7px;}.cls-10,.cls-15,.cls-16,.cls-17,.cls-18,.cls-19,.cls-2,.cls-20,.cls-21,.cls-22,.cls-23,.cls-24,.cls-25,.cls-26,.cls-27,.cls-28,.cls-29,.cls-3,.cls-30,.cls-31,.cls-32,.cls-33,.cls-34,.cls-36,.cls-37,.cls-38,.cls-4,.cls-40,.cls-5,.cls-6,.cls-7,.cls-8,.cls-9{stroke:#231f20;}.cls-10,.cls-11,.cls-15,.cls-16,.cls-17,.cls-18,.cls-19,.cls-2,.cls-20,.cls-21,.cls-22,.cls-23,.cls-24,.cls-25,.cls-26,.cls-27,.cls-28,.cls-29,.cls-3,.cls-30,.cls-31,.cls-32,.cls-33,.cls-34,.cls-36,.cls-37,.cls-38,.cls-39,.cls-4,.cls-40,.cls-5,.cls-6,.cls-7,.cls-8,.cls-9{stroke-miterlimit:10;}.cls-18,.cls-3,.cls-4{fill:#feda00;}.cls-3{stroke-width:0.66px;}.cls-4,.cls-5{stroke-width:0.88px;}.cls-6{stroke-width:0.81px;}.cls-10,.cls-12,.cls-17,.cls-21,.cls-27,.cls-31,.cls-7,.cls-8{fill:#f8d2af;}.cls-7{stroke-width:0.21px;}.cls-8{stroke-width:0.23px;}.cls-9{fill:#7f5741;}.cls-17,.cls-9{stroke-width:0.36px;}.cls-10{stroke-width:1.04px;}.cls-11,.cls-14,.cls-22,.cls-28,.cls-39{fill:#fff;}.cls-11{stroke:#be1e2d;stroke-width:0.82px;}.cls-13,.cls-15,.cls-16,.cls-20,.cls-23,.cls-24,.cls-25,.cls-30,.cls-38{fill:#231f20;}.cls-15{stroke-width:0.71px;}.cls-16{stroke-width:0.53px;}.cls-18{stroke-width:0.65px;}.cls-19,.cls-33,.cls-34,.cls-36,.cls-37{fill:#dc509d;}.cls-19{stroke-width:0.96px;}.cls-20{stroke-width:0.83px;}.cls-21{stroke-width:1px;}.cls-22{stroke-width:0.82px;}.cls-23{stroke-width:0.72px;}.cls-24{stroke-width:0.54px;}.cls-25{stroke-width:0.38px;}.cls-26{fill:#29b8e4;stroke-width:0.94px;}.cls-27{stroke-width:0.62px;}.cls-28,.cls-29{stroke-width:0.66px;}.cls-30{stroke-width:0.81px;}.cls-31{stroke-width:0.21px;}.cls-32,.cls-35{fill:#2bb8e4;}.cls-32,.cls-33,.cls-34,.cls-36,.cls-37{stroke-linecap:round;}.cls-32{stroke-width:0.66px;}.cls-33{stroke-width:0.77px;}.cls-34{stroke-width:0.63px;}.cls-36{stroke-width:0.38px;}.cls-37{stroke-width:1.05px;}.cls-38{stroke-width:0.33px;}.cls-39{stroke:#fcee1f;stroke-width:4.32px;}.cls-40{font-size:15.59px;fill:#010101;stroke-width:0.47px;font-family:Harrington;}</style></defs><title>SuperStage.Bloopers</title><g id="Layer_1" data-name="Layer 1"><rect id="_Slice_" data-name="&lt;Slice&gt;" class="cls-1" x="250.26" y="1201.54" width="614" height="179"/><rect id="_Slice_2" data-name="&lt;Slice&gt;" class="cls-1" x="23.26" y="1327.54" width="669" height="181"/></g><g id="Blooper"><path class="cls-2" d="M824.55,453.58,818.8,490.5" transform="translate(-785.92 -260.92)"/><path class="cls-2" d="M819.81,452.52q-2.85,18.38-5.72,36.74" transform="translate(-785.92 -260.92)"/><ellipse class="cls-3" cx="810.86" cy="488.41" rx="0.89" ry="3.65" transform="translate(-657.65 883.31) rotate(-74.92)"/><ellipse class="cls-3" cx="822.39" cy="491.1" rx="0.89" ry="3.65" transform="translate(-651.73 896.44) rotate(-74.92)"/><path class="cls-4" d="M833.42,400a2.26,2.26,0,0,1-.27,1.49c-.69,1-2.62.46-2.94-.83a2.37,2.37,0,0,1,.21-1.49l-12-.91a52.78,52.78,0,0,0,.55,10.86,49.32,49.32,0,0,0,1.69,7.2c-6.36,8.29-8.24,15.31-8.75,20.31-.34,3.45-.21,7.73-2.42,12.65a22.92,22.92,0,0,1-5.54,7.61l32.46,6.34a33.43,33.43,0,0,1-2.3-8.68c-.76-5.93.3-10.26.82-13.83a55.09,55.09,0,0,0-1.32-21.21,15.11,15.11,0,0,0,4.64-3.72,21.22,21.22,0,0,0,4.49-12Z" transform="translate(-785.92 -260.92)"/><path class="cls-5" d="M818.44,400a101.08,101.08,0,0,0-6.35-14.82,80.67,80.67,0,0,0-14-19.29" transform="translate(-785.92 -260.92)"/><path class="cls-6" d="M841.74,405.77a62.76,62.76,0,0,1,13.64-7.93,52.39,52.39,0,0,1,19.54-4.12" transform="translate(-785.92 -260.92)"/><ellipse class="cls-7" cx="877.3" cy="395.51" rx="0.99" ry="3.34" transform="matrix(0.62, -0.79, 0.79, 0.62, -761.72, 579.92)"/><ellipse class="cls-8" cx="795.26" cy="365.18" rx="1.17" ry="3.34" transform="translate(-539.88 785.55) rotate(-75.79)"/><path class="cls-9" d="M842.14,415.26,834,412.34a58.1,58.1,0,0,0,3.48-10.54c1-4.45.94-6.58,1.84-14.29.56-4.79,1.78-14.13,2.22-14.12s0,6.85-.17,14.64C841.22,398.73,841.61,407.93,842.14,415.26Z" transform="translate(-785.92 -260.92)"/><path class="cls-9" d="M815.21,410.21l8.76,2.12a57.93,57.93,0,0,1,1.69-11.25c1.15-4.49,2.2-6.31,5-13.6,1.71-4.52,4.92-13.42,4.51-13.66s-3.15,6-6.63,12.93C823.71,396.24,819.08,404.09,815.21,410.21Z" transform="translate(-785.92 -260.92)"/><ellipse class="cls-10" cx="837.61" cy="376.11" rx="20.06" ry="12.94" transform="translate(-472.09 869.32) rotate(-79.4)"/><path class="cls-11" d="M831.62,386.15a3.36,3.36,0,0,0,1.38,2.07c1.11.64,2.61.28,3.92-.9a5.15,5.15,0,0,1-1.22,2.34,2.56,2.56,0,0,1-3.05.73C831.56,389.77,831.11,388,831.62,386.15Z" transform="translate(-785.92 -260.92)"/><path class="cls-12" d="M836.24,380.84a7,7,0,0,1-1,1.22c-1,1-1.78,1.19-1.8,1.79a1,1,0,0,0,.61.87.94.94,0,0,0,1.08-.3" transform="translate(-785.92 -260.92)"/><path class="cls-13" d="M836.24,380.84a5.16,5.16,0,0,1-.9,1.37,8.28,8.28,0,0,1-1.23,1.07c-.21.16-.41.32-.45.5a.8.8,0,0,0,.2.6.88.88,0,0,0,1.32,0,.95.95,0,0,1-1.52.16,1,1,0,0,1-.32-.86,1.28,1.28,0,0,1,.55-.73,10,10,0,0,0,2.35-2.15Z" transform="translate(-785.92 -260.92)"/><path class="cls-9" d="M842.78,356.3a42.4,42.4,0,0,0,1.39,10.6,31.79,31.79,0,0,0,6.4,12.59,25.35,25.35,0,0,0,.06-13.49C848.5,358.76,843.56,356.62,842.78,356.3Z" transform="translate(-785.92 -260.92)"/><path class="cls-9" d="M842.39,356.14a18.84,18.84,0,0,1-5.12,6.32,11.28,11.28,0,0,1-9.12,2.33c.37-.94,2.88-7.15,8-9A8.28,8.28,0,0,1,842.39,356.14Z" transform="translate(-785.92 -260.92)"/><path class="cls-14" d="M837.9,376.73c-.87,3-2.77,4.83-4.24,4.14s-2-3.66-1.1-6.63,2.77-4.83,4.24-4.14S838.77,373.76,837.9,376.73Z" transform="translate(-785.92 -260.92)"/><path class="cls-13" d="M838.12,376.8a8.86,8.86,0,0,1-1.6,3.11,3.84,3.84,0,0,1-1.4,1.12,2.11,2.11,0,0,1-.93.17,2,2,0,0,1-.9-.33,4.31,4.31,0,0,1-1.35-3.23,10.72,10.72,0,0,1,.4-3.47,8.92,8.92,0,0,1,1.57-3.14,3.86,3.86,0,0,1,1.41-1.14,2.2,2.2,0,0,1,1-.19,1.94,1.94,0,0,1,.93.34,3.08,3.08,0,0,1,1,1.53,6.27,6.27,0,0,1,.32,1.75A10.74,10.74,0,0,1,838.12,376.8Zm-.43-.13a10.1,10.1,0,0,0,.38-3.32,3.92,3.92,0,0,0-1.16-2.88,1.39,1.39,0,0,0-1.38-.11,3.36,3.36,0,0,0-1.24,1,8.35,8.35,0,0,0-1.51,2.95,10.1,10.1,0,0,0-.42,3.32,4,4,0,0,0,1.15,2.94,1.42,1.42,0,0,0,1.45.1,3.37,3.37,0,0,0,1.25-1A8.59,8.59,0,0,0,837.69,376.67Z" transform="translate(-785.92 -260.92)"/><path class="cls-14" d="M842.07,378.8c-.87,3-2.75,4.86-4.18,4.18s-1.9-3.63-1-6.62,2.75-4.86,4.18-4.18S842.94,375.81,842.07,378.8Z" transform="translate(-785.92 -260.92)"/><path class="cls-13" d="M842.28,378.86a9.11,9.11,0,0,1-1.58,3.1,3.87,3.87,0,0,1-1.37,1.13,2,2,0,0,1-.91.2,1.74,1.74,0,0,1-.88-.32,4.28,4.28,0,0,1-1.3-3.22,10.89,10.89,0,0,1,.42-3.45,9,9,0,0,1,1.53-3.13,3.94,3.94,0,0,1,1.38-1.17,2,2,0,0,1,.94-.21,1.86,1.86,0,0,1,.94.32,3.11,3.11,0,0,1,1,1.54,6.68,6.68,0,0,1,.29,1.76A10.89,10.89,0,0,1,842.28,378.86Zm-.42-.12a10.32,10.32,0,0,0,.39-3.31,3.93,3.93,0,0,0-1.11-2.89,1.3,1.3,0,0,0-1.36-.09,3.49,3.49,0,0,0-1.22,1,8.65,8.65,0,0,0-1.49,2.95,10.4,10.4,0,0,0-.45,3.32,4,4,0,0,0,1.11,3,1.56,1.56,0,0,0,.71.25,1.68,1.68,0,0,0,.75-.17,3.62,3.62,0,0,0,1.23-1A8.82,8.82,0,0,0,841.86,378.74Z" transform="translate(-785.92 -260.92)"/><path class="cls-13" d="M842.3,373.51a1.73,1.73,0,0,0,1.45,1.77.86.86,0,0,0,.8-.74,1.23,1.23,0,0,0-.33-1.14.57.57,0,0,0-1,0,.75.75,0,0,0,.36,1,.32.32,0,0,0,.43-.24.48.48,0,0,0-.19-.53c-.17-.15-.4,0-.36.25a.29.29,0,0,0,.18.23.14.14,0,0,0,.19-.15h0a.21.21,0,0,1-.26.22.38.38,0,0,1-.24-.29.41.41,0,0,1,.11-.36.35.35,0,0,1,.4,0,.63.63,0,0,1,.27.68.5.5,0,0,1-.64.38,1,1,0,0,1-.51-1.31.77.77,0,0,1,.66-.45,1.06,1.06,0,0,1,.72.31,1.52,1.52,0,0,1,.43,1.42,1.18,1.18,0,0,1-1.09,1,2,2,0,0,1-1.81-2.11Z" transform="translate(-785.92 -260.92)"/><path class="cls-13" d="M835,370.5a1.58,1.58,0,0,1-1.36.55,1.64,1.64,0,0,1-1.24-.79,1.52,1.52,0,0,1-.05-1.46,1.11,1.11,0,0,1,1.31-.6,1,1,0,0,1,.7,1.23.82.82,0,0,1-.48.58.7.7,0,0,1-.73-.16.66.66,0,0,1-.13-.73.45.45,0,0,1,.66-.22.4.4,0,0,1,0,.66c-.25.19-.58-.17-.37-.38l0,0c-.15.18.13.43.29.28a.29.29,0,0,0-.07-.48.31.31,0,0,0-.45.18.44.44,0,0,0,.12.52.46.46,0,0,0,.52.1.61.61,0,0,0,.33-.44.77.77,0,0,0-.56-.89.8.8,0,0,0-.94.47,1.19,1.19,0,0,0,.06,1.14,1.28,1.28,0,0,0,2,.18Z" transform="translate(-785.92 -260.92)"/><path class="cls-15" d="M835.92,374.85c-.56,1.93-1.7,3.17-2.54,2.78s-1.07-2.28-.51-4.2,1.7-3.17,2.54-2.78S836.48,372.92,835.92,374.85Z" transform="translate(-785.92 -260.92)"/><path class="cls-14" d="M833.93,373.68A.84.84,0,0,1,834,373a.71.71,0,0,1,.61-.28,1,1,0,0,1,.86,1,.47.47,0,0,1-.55.42.69.69,0,0,1-.59-.37c-.09-.2,0-.57.29-.56a.3.3,0,0,1,.24.5.26.26,0,0,0-.24-.42c-.2,0-.25.27-.18.44.16.33.87.39.85,0a.82.82,0,0,0-.69-.85A.69.69,0,0,0,833.93,373.68Z" transform="translate(-785.92 -260.92)"/><path class="cls-14" d="M833.88,373.68a.88.88,0,0,0-.1-1.17.66.66,0,0,0-1,0c-.17.32.31.8.66.75a.3.3,0,0,0,.1-.48.31.31,0,0,0-.25-.15c-.1,0-.16.13-.16.24a.23.23,0,0,1,.15-.28.37.37,0,0,1,.33.13.41.41,0,0,1-.13.65.75.75,0,0,1-.67-.24.65.65,0,0,1-.19-.7.8.8,0,0,1,1.28,0A.88.88,0,0,1,833.88,373.68Z" transform="translate(-785.92 -260.92)"/><path class="cls-14" d="M832.59,373.13c.48.14.92.37,1.38.55s.89.43,1.31.71c-.48-.14-.92-.37-1.38-.55S833,373.41,832.59,373.13Z" transform="translate(-785.92 -260.92)"/><path class="cls-16" d="M840.13,376.72c-.56,1.89-1.7,3.09-2.56,2.68s-1.12-2.25-.57-4.13,1.7-3.09,2.56-2.68,1.11,2.25.57,4.13" transform="translate(-785.92 -260.92)"/><path class="cls-14" d="M837.77,375.34a14.86,14.86,0,0,1,1.39.55c.43.23.89.43,1.3.7-.48-.14-.92-.36-1.38-.54S838.19,375.62,837.77,375.34Z" transform="translate(-785.92 -260.92)"/><path class="cls-14" d="M839.2,376a.89.89,0,0,1,.11-.65.7.7,0,0,1,.62-.27,1,1,0,0,1,.85,1,.47.47,0,0,1-.55.43.72.72,0,0,1-.58-.37c-.09-.21,0-.58.29-.57a.32.32,0,0,1,.29.18.31.31,0,0,1-.05.32.26.26,0,0,0-.24-.41c-.21,0-.26.27-.18.43.15.33.86.39.85,0a.84.84,0,0,0-.69-.85A.7.7,0,0,0,839.2,376Z" transform="translate(-785.92 -260.92)"/><path class="cls-14" d="M839.15,376a.86.86,0,0,0-.1-1.17.65.65,0,0,0-1,0c-.17.32.31.8.66.75a.34.34,0,0,0-.15-.63c-.11,0-.17.14-.17.24a.26.26,0,0,1,.16-.28.34.34,0,0,1,.32.14.4.4,0,0,1-.12.64.74.74,0,0,1-.67-.24.61.61,0,0,1-.19-.7.8.8,0,0,1,1.28,0A.87.87,0,0,1,839.15,376Z" transform="translate(-785.92 -260.92)"/><path class="cls-17" d="M833.92,395.48c-.34,1.72-.67,3.44-1,5.16-.21.67-.67,1.11-1.13,1.1s-1.09-.7-1.1-1.62l.9-5.36Z" transform="translate(-785.92 -260.92)"/><path class="cls-18" d="M850.46,361.11l1-6.58a7.07,7.07,0,0,0-3.1-5.37,6.48,6.48,0,0,0-6.21-.07l-4.81,4.47Z" transform="translate(-785.92 -260.92)"/><path class="cls-18" d="M848.66,370.7c1.76-.25,5.27-1,6.07-3.55,1.27-4-5-9.7-8.46-12.09-5.15-3.61-12.86-6.1-14.72-3.14-.5.79-.9,2.48.89,6.47a6.89,6.89,0,0,1,3-3.18c3.17-1.46,6.55,1.09,10,3.68,3.24,2.44,5.9,4.44,5.81,7.29A6.5,6.5,0,0,1,848.66,370.7Z" transform="translate(-785.92 -260.92)"/><path class="cls-19" d="M847.63,369.66a1.71,1.71,0,0,0,2,.91c.93-.28,1.16-1.71,1.34-2.41,1.29-5.11,8.23-5.43,7.94-8.58-.11-1.22-1.23-2.1-2.31-3-2.27-1.81-5.61-2.48-6.49-1.17-.48.72.23,1.4,0,3.28-.27,2.36-1.68,3.72-1.45,3.95s2-2.17,3.16-1.58c.65.34.86,1.58.82,2.39-.09,1.61-1.23,2.68-2.49,3.83C848.54,368.74,847.51,369,847.63,369.66Z" transform="translate(-785.92 -260.92)"/><path class="cls-20" d="M889.4,403.94l13-5.91,31.93,95.68-5,2.68-28.7-93.23L893.47,406,906,501.84l-4,1.26Z" transform="translate(-785.92 -260.92)"/><path class="cls-14" d="M886,398.18a16.65,16.65,0,0,0-2.37,7.15,17.94,17.94,0,0,0,1.52,9.31" transform="translate(-785.92 -260.92)"/><path class="cls-13" d="M886,398.18a23,23,0,0,0-1.91,8.15,25,25,0,0,0,1.06,8.31,14.3,14.3,0,0,1-2.13-8.37A13.7,13.7,0,0,1,886,398.18Z" transform="translate(-785.92 -260.92)"/><path class="cls-13" d="M882.55,396.82a23,23,0,0,0-1.91,8.15,25.24,25.24,0,0,0,1.07,8.31,14.22,14.22,0,0,1-2.13-8.37A13.69,13.69,0,0,1,882.55,396.82Z" transform="translate(-785.92 -260.92)"/><path class="cls-13" d="M910.12,406.47a7.83,7.83,0,0,1,3.7,2.22,10,10,0,0,1,2.25,3.78,12.1,12.1,0,0,1,.59,4.33,12.29,12.29,0,0,1-.85,4.21,34.22,34.22,0,0,0-.09-4.19,17.39,17.39,0,0,0-.8-4A12.06,12.06,0,0,0,910.12,406.47Z" transform="translate(-785.92 -260.92)"/><path class="cls-13" d="M913.82,402.65a7.83,7.83,0,0,1,3.7,2.22,10,10,0,0,1,2.25,3.78,12.3,12.3,0,0,1,.6,4.33,12.54,12.54,0,0,1-.86,4.2,34.05,34.05,0,0,0-.09-4.18,17.59,17.59,0,0,0-.8-4A12,12,0,0,0,913.82,402.65Z" transform="translate(-785.92 -260.92)"/><path class="cls-21" d="M821.33,292.23a16.31,16.31,0,0,1,8.61,3.12l7.44,2.26q.48,7.41.94,14.82L831,316.08a14.15,14.15,0,0,1-8.93,4.7c-7.79.64-17.06-6.48-17.23-14.71S813.86,291.94,821.33,292.23Z" transform="translate(-785.92 -260.92)"/><path class="cls-22" d="M833.87,300.16a21.66,21.66,0,0,1-1.43,5.17,3,3,0,0,0-.33,1.63,3.38,3.38,0,0,0,1.77,2.27,10.62,10.62,0,0,0,1-4.32A11.16,11.16,0,0,0,833.87,300.16Z" transform="translate(-785.92 -260.92)"/><path class="cls-12" d="M824.39,305.27q1.25-.66,2.55-1.29l.6-.29a5.58,5.58,0,0,1,.36.86,5,5,0,0,1,.21,1.28" transform="translate(-785.92 -260.92)"/><path class="cls-13" d="M824.39,305.27a15.66,15.66,0,0,1,1.5-.94l.78-.42a8.25,8.25,0,0,1,.8-.37l.17-.08.05.15a6.09,6.09,0,0,1,.37,1.09,3.58,3.58,0,0,1,.05,1.13,9.33,9.33,0,0,0-.28-1.07,5.44,5.44,0,0,0-.22-.5l-.22-.49.23.08A24.51,24.51,0,0,1,824.39,305.27Z" transform="translate(-785.92 -260.92)"/><path class="cls-14" d="M820,306c2.84.13,5.1-1.26,5-3.09s-2.44-3.43-5.29-3.56-5.1,1.26-5,3.09S817.15,305.84,820,306Z" transform="translate(-785.92 -260.92)"/><path class="cls-13" d="M820,305.74a6.74,6.74,0,0,0,3.17-.58,2.52,2.52,0,0,0,1.63-2.43,3.38,3.38,0,0,0-1.94-2.35,7.29,7.29,0,0,0-3.14-.82,6.65,6.65,0,0,0-3.15.61,2.48,2.48,0,0,0-1.58,2.38,3.35,3.35,0,0,0,1.89,2.33A7.31,7.31,0,0,0,820,305.74Zm0,.46a7.83,7.83,0,0,1-3.34-.88,3.85,3.85,0,0,1-2.19-2.71,2.44,2.44,0,0,1,.5-1.77,3.83,3.83,0,0,1,1.39-1.12,7.06,7.06,0,0,1,3.41-.63,7.66,7.66,0,0,1,3.31.91,3.79,3.79,0,0,1,2.13,2.69,2.35,2.35,0,0,1-.47,1.72,3.68,3.68,0,0,1-1.36,1.12A7.07,7.07,0,0,1,820,306.2Z" transform="translate(-785.92 -260.92)"/><path class="cls-14" d="M820.29,311.19c2.86.13,5.13-1.21,5.06-3s-2.44-3.35-5.3-3.48-5.13,1.22-5.06,3S817.43,311.06,820.29,311.19Z" transform="translate(-785.92 -260.92)"/><path class="cls-13" d="M820.3,311a6.89,6.89,0,0,0,3.18-.53,2.5,2.5,0,0,0,1.68-2.4,3.36,3.36,0,0,0-2-2.32,7.7,7.7,0,0,0-3.13-.79,6.87,6.87,0,0,0-3.15.59,2.42,2.42,0,0,0-1.61,2.33,3.31,3.31,0,0,0,1.92,2.28A7.54,7.54,0,0,0,820.3,311Zm0,.44a7.87,7.87,0,0,1-3.32-.83,5.15,5.15,0,0,1-1.41-1,2.88,2.88,0,0,1-.81-1.63,2.37,2.37,0,0,1,.52-1.75,3.92,3.92,0,0,1,1.42-1.08,7.29,7.29,0,0,1,3.38-.58,7.87,7.87,0,0,1,3.29.88A3.75,3.75,0,0,1,825.5,308a2.3,2.3,0,0,1-.49,1.7,3.76,3.76,0,0,1-1.37,1.07A7.23,7.23,0,0,1,820.28,311.41Z" transform="translate(-785.92 -260.92)"/><path class="cls-23" d="M819,303.54c1.85.09,3.32-.69,3.28-1.74s-1.57-2-3.42-2.05-3.31.7-3.27,1.74S817.14,303.46,819,303.54Z" transform="translate(-785.92 -260.92)"/><path class="cls-14" d="M818.68,301a.64.64,0,0,0-.94.51.94.94,0,0,0,.49,1c.17.06.31-.11.36-.31a.77.77,0,0,0,0-.6c-.1-.16-.39-.2-.44,0s0,.5.26.41a.24.24,0,0,1-.31-.08.45.45,0,0,1,0-.36.29.29,0,0,1,.28-.23.42.42,0,0,1,.34.17.91.91,0,0,1,.09.7.76.76,0,0,1-.16.34.41.41,0,0,1-.4.11,1.07,1.07,0,0,1-.56-1.22.88.88,0,0,1,.4-.57A.62.62,0,0,1,818.68,301Z" transform="translate(-785.92 -260.92)"/><path class="cls-14" d="M818.7,300.93a.6.6,0,0,1-.67,0,1.06,1.06,0,0,1-.42-.58,1,1,0,0,1,.48-1.27c.34,0,.49.28.56.49a1,1,0,0,1,0,.73.35.35,0,0,1-.35.16.36.36,0,0,1-.29-.24.52.52,0,0,1,0-.37.21.21,0,0,1,.31-.08.19.19,0,0,0-.27.1.42.42,0,0,0,.05.31.24.24,0,0,0,.44.05.84.84,0,0,0,0-.62c-.07-.19-.22-.4-.38-.35a.84.84,0,0,0-.4,1.06C817.82,300.74,818.25,301.17,818.7,300.93Z" transform="translate(-785.92 -260.92)"/><path class="cls-14" d="M818.69,299.34c.09.56.1,1.11.15,1.67s0,1.11,0,1.68c-.1-.56-.1-1.12-.15-1.67S818.63,299.9,818.69,299.34Z" transform="translate(-785.92 -260.92)"/><path class="cls-24" d="M819.1,308.74c1.81.08,3.24-.72,3.2-1.79s-1.54-2-3.34-2.09-3.24.72-3.2,1.79,1.54,2,3.34,2.09" transform="translate(-785.92 -260.92)"/><path class="cls-14" d="M818.75,305.71c.09.56.1,1.12.15,1.67s0,1.12,0,1.68c-.1-.56-.1-1.12-.15-1.67S818.69,306.27,818.75,305.71Z" transform="translate(-785.92 -260.92)"/><path class="cls-14" d="M818.81,307.49a.65.65,0,0,0-.95.51,1,1,0,0,0,.5,1c.16.06.31-.11.36-.32a.8.8,0,0,0,0-.59c-.11-.16-.39-.2-.44,0s0,.5.26.41a.24.24,0,0,1-.31-.08.45.45,0,0,1,0-.36.31.31,0,0,1,.29-.23.4.4,0,0,1,.33.17.87.87,0,0,1,.09.7.67.67,0,0,1-.16.34.4.4,0,0,1-.39.11,1.06,1.06,0,0,1-.56-1.22.82.82,0,0,1,.4-.57A.63.63,0,0,1,818.81,307.49Z" transform="translate(-785.92 -260.92)"/><path class="cls-14" d="M818.83,307.44a.62.62,0,0,1-.68,0,1.11,1.11,0,0,1-.42-.58,1,1,0,0,1,.48-1.27c.34,0,.49.28.56.49a1,1,0,0,1,0,.72.34.34,0,0,1-.35.17.35.35,0,0,1-.28-.24.48.48,0,0,1,0-.37.21.21,0,0,1,.31-.08.19.19,0,0,0-.27.1.42.42,0,0,0,0,.31.25.25,0,0,0,.45.05.89.89,0,0,0,0-.62c-.07-.19-.22-.4-.39-.35a.83.83,0,0,0-.39,1.06C818,307.25,818.38,307.68,818.83,307.44Z" transform="translate(-785.92 -260.92)"/><path class="cls-14" d="M816.7,312.75l-3.29-6.31" transform="translate(-785.92 -260.92)"/><path class="cls-13" d="M816,313.13a13.47,13.47,0,0,0-1.35-3.3,18.76,18.76,0,0,0-2-3l1.55-.81a18.83,18.83,0,0,0,1.32,3.32,13.52,13.52,0,0,0,1.93,3Z" transform="translate(-785.92 -260.92)"/><path class="cls-14" d="M813.42,304.73c.65-2.24,1.29-4.48,1.94-6.72" transform="translate(-785.92 -260.92)"/><path class="cls-13" d="M812.62,304.5a13,13,0,0,0,1.27-3.27,18.19,18.19,0,0,0,.63-3.46l1.68.48a17.49,17.49,0,0,0-1.31,3.26,12.55,12.55,0,0,0-.66,3.45Z" transform="translate(-785.92 -260.92)"/><path class="cls-25" d="M821.63,316l.4,2.79-8.35,0c-5.52-1.65-9.11-8-8.53-14.17.45-4.84,3.44-9,7.53-10.31l4.6-1.42.49,1.68-5.83,1.58a15.58,15.58,0,0,0-3,11.93,13.74,13.74,0,0,0,4.5,8.11Z" transform="translate(-785.92 -260.92)"/><path class="cls-25" d="M812.57,279.18" transform="translate(-785.92 -260.92)"/><path class="cls-26" d="M806.35,303l-5.22,5.25a9.37,9.37,0,0,0-.86,7.5,7.89,7.89,0,0,0,5.26,5.12l7.06-.22Z" transform="translate(-785.92 -260.92)"/><path class="cls-26" d="M814.19,295.61c-1.68-1.2-5.19-3.35-7.54-1.66-3.71,2.67-2,13.08-.69,18.09,2,7.55,7,16.14,10.56,14.92.94-.33,2.39-1.57,3.48-6.72a6.52,6.52,0,0,1-4.7.46c-3.67-1.24-4.9-6.35-6.14-11.55-1.18-4.91-2.14-8.93-.2-11.49C810.46,295.69,812.94,295.56,814.19,295.61Z" transform="translate(-785.92 -260.92)"/><path class="cls-27" d="M837.7,307.06l0-2.74H841a1.83,1.83,0,0,1,1.89.93,1.89,1.89,0,0,1-1.27,2.48Z" transform="translate(-785.92 -260.92)"/><path class="cls-28" d="M841.66,307.72l1.55,13L852,321l-5.67-10.05a12.85,12.85,0,0,1,8-1.48c6.06.9,9.76,6,10.64,7.34l7.11-5.82a35.31,35.31,0,0,0-16.92-8.43,29.82,29.82,0,0,0-10.73.1l5.88-7.14-8.44.66-3.21,8.15q4.55.33,4.71,1.49C843.45,306.32,842.87,307,841.66,307.72Z" transform="translate(-785.92 -260.92)"/><path class="cls-29" d="M843.91,296c.6-10.22,5.21-18.12,11.18-19.74a10.61,10.61,0,0,1,7.81,1.21" transform="translate(-785.92 -260.92)"/><path class="cls-30" d="M866.08,316.77l6-5.8c12.84,1.12,23.69,13.16,26.19,28.95,2.44,15.4-3.61,30.92-14.78,37.74l-2.65-2.05c11.69-4,18.54-18.73,16-32.72-2.27-12.46-11.57-21.92-22.33-22.13a151.79,151.79,0,0,1,14.72,29.46,170.12,170.12,0,0,1,9.73,42.42l-4,1.18a134.33,134.33,0,0,0-8.19-41.69A114.05,114.05,0,0,0,866.08,316.77Z" transform="translate(-785.92 -260.92)"/><path class="cls-29" d="M845.69,320.8a57.58,57.58,0,0,1-9.24,10.33,47.14,47.14,0,0,1-24.16,11.33" transform="translate(-785.92 -260.92)"/><ellipse class="cls-31" cx="809.38" cy="342.83" rx="3.06" ry="1.1" transform="matrix(0.99, -0.16, 0.16, 0.99, -830.31, -127.15)"/><ellipse class="cls-31" cx="864.52" cy="276.48" rx="3.06" ry="1.1" transform="translate(-819 -119.19) rotate(-9.2)"/><path class="cls-32" d="M864.25,268.05l11.4,11.44a7.13,7.13,0,0,0,4.59-1.29,6,6,0,0,0,2.21-4.6l-11.23-11.93a7.44,7.44,0,0,1-2.56,4.61A8.48,8.48,0,0,1,864.25,268.05Z" transform="translate(-785.92 -260.92)"/><path class="cls-33" d="M860.19,272.18a8.38,8.38,0,0,0,.56-.63l.47-.57a27.05,27.05,0,0,0,2.13-3c.83-1.49.5-2,1-3.13,1.21-2.57,4.62-4.08,5.66-3.34s.51,3.62-1.45,6.29c-.21.28-.42.54-.64.79.21.12,2.75,1.67,2.55,2.62,0,.28-.33.41-.51.49-1.59.69-3.85.29-4.74.24-4.14-.22-5.74,5.85-6.55,5.42S859.57,272.86,860.19,272.18Z" transform="translate(-785.92 -260.92)"/><path class="cls-34" d="M864.76,290.89a10.58,10.58,0,0,1,.72,3.5c0,1.61-.68,2.21-1.4,1.13-.9-1.34-1.79-5.18-1.36-6.29C863,288.41,864.05,289.13,864.76,290.89Z" transform="translate(-785.92 -260.92)"/><path class="cls-35" d="M873,276.14a3.84,3.84,0,0,1-1.46,2,4.47,4.47,0,0,1-2.26.73,6.4,6.4,0,0,1-4.09-1.36,5.64,5.64,0,0,1-2.21-3.69,3.27,3.27,0,0,1,.56-2.34,2.76,2.76,0,0,1,2.22-1,4.18,4.18,0,0,1,3.58,2.23,2.63,2.63,0,0,1,.16,2.25,1.68,1.68,0,0,1-.94.86,2.15,2.15,0,0,1-1.15,0,2.65,2.65,0,0,1-1.7-1.24,1.83,1.83,0,0,1-.27-1.06,1,1,0,0,1,.62-1,1.53,1.53,0,0,1,1.8.76.9.9,0,0,1,0,1,.7.7,0,0,1-.9.05.63.63,0,0,0,.81-.12.74.74,0,0,0-.1-.79,1.19,1.19,0,0,0-1.42-.46c-.42.2-.33.86,0,1.27a2,2,0,0,0,1.32.78.91.91,0,0,0,1.06-.49,1.63,1.63,0,0,0-.24-1.34,3,3,0,0,0-2.58-1.37c-1,0-1.39.75-1.22,1.75a4.12,4.12,0,0,0,1.69,2.47,4.62,4.62,0,0,0,2.9.87,2.48,2.48,0,0,0,1.25-.41,1.92,1.92,0,0,0,.69-1l.3-.95,1.9.59Z" transform="translate(-785.92 -260.92)"/><path class="cls-36" d="M853.48,294.55c-.08.17-.8-.2-1.21-1.05A2.46,2.46,0,0,1,852,292c.3-1.08,2.29-.45,2.31-.15s-1.28.21-1.39,1.06C852.82,293.61,853.58,294.35,853.48,294.55Z" transform="translate(-785.92 -260.92)"/><path class="cls-36" d="M856.14,327.63a30.65,30.65,0,0,1-.49-3.63c.09,0,.26,3,1.46,3.87.52.39.95.17,1.06.53.2.63-.82,2.2-1.39,1.86C856.51,330.1,856.47,329.64,856.14,327.63Z" transform="translate(-785.92 -260.92)"/><path class="cls-37" d="M855.7,305.21c.41-2.66,1.11-6.23,1.49-6.45s-1.89,5.62,2.89,4.61c2.08-.44,4.34-1.94,4.5-1.45.27.85-6.21,6.59-8.59,7.26C854.91,309.48,855.17,308.62,855.7,305.21Z" transform="translate(-785.92 -260.92)"/><ellipse class="cls-38" cx="898.84" cy="396.49" rx="2.79" ry="6.5" transform="translate(-801.32 495.14) rotate(-45.27)"/><ellipse class="cls-38" cx="881.78" cy="383" rx="7.34" ry="2.47" transform="translate(-310.96 993.13) rotate(-88.44)"/><path class="cls-39" d="M943.84,519q-32.69,1.72-67.79,2.37-34.12.6-66,0-.3,6.24-.27,13c0,5.35.25,10.47.59,15.34q32,.75,66.2.21,35-.6,67.62-2.59c.19-5,.26-10.13.18-15.5Q944.22,525.24,943.84,519Z" transform="translate(-785.92 -260.92)"/><text class="cls-40" transform="matrix(0.97, -0.02, 0.01, 1, 62.93, 281.05)">Bloopers</text></g></svg>