<svg xmlns="http://www.w3.org/2000/svg" viewBox="0 0 310.74 306.56">
<defs>
<style>.cls-1,.cls-2{fill:#939598;}.cls-1,.cls-2,.cls-5{stroke:#808285;}.cls-1,.cls-2,.cls-3,.cls-5{stroke-miterlimit:10;}.cls-1{stroke-width:4px;}.cls-2{stroke-linecap:round;opacity:0.5;}.cls-3{fill:#231f20;stroke:#231f20;stroke-width:2.39px;}.cls-4{fill:#58595b;}.cls-5{fill:none;stroke-width:9px;}.cls-6{fill:#808285;}</style>
</defs>
<title>Lock</title>
<g id="backgroundRectangle">
<path class="cls-1" d="M278.55,328.75a587.29,587.29,0,0,0-169,0,251.22,251.22,0,0,0,7-54.45,251.74,251.74,0,0,0-7-63.54,552.12,552.12,0,0,1,169,0,278.76,278.76,0,0,0,0,118Z" transform="translate(-40.95 -64.81)"/>
</g>
<g id="Lock">
<rect class="cls-2" x="0.5" y="0.5" width="309.74" height="305.56"/>
<path class="cls-3" d="M187.81,261.44c-15.07-5.09-19.23-13.23-16.32-19.27,3.64-7.58,19.39-9.31,24.23-9.44,2.38-.07,17.18,1.77,20.73,8.68,2.78,5.43.85,12.35-16.27,18.56a98.18,98.18,0,0,0,2.1,17.89,104.87,104.87,0,0,0,7.64,22.65l-30,.61A82,82,0,0,0,187,278.66,75.94,75.94,0,0,0,187.81,261.44Z" transform="translate(-40.95 -64.81)"/>
<path class="cls-4" d="M197.74,231.89a24.28,24.28,0,0,0-13.32,4.57,13.58,13.58,0,0,0-4.25,5.27,9.71,9.71,0,0,0-.72,3.2,6.5,6.5,0,0,0,.5,3.12,10.32,10.32,0,0,0,4.31,4.74A17.12,17.12,0,0,0,190.6,255a17.87,17.87,0,0,0,6.69-.2,11.56,11.56,0,0,0,5.62-3,6.34,6.34,0,0,0,1.55-2.53l.16-.7.06-.71a4,4,0,0,0-.22-1.32c-.58-1.75-2.45-3.11-4.45-3.82a11.2,11.2,0,0,0-6.4-.35c-2,.54-3.94,1.94-4.16,3.74a2.65,2.65,0,0,0,.94,2.37,6.06,6.06,0,0,0,2.76,1.38,6.88,6.88,0,0,0,3.19,0,3.88,3.88,0,0,0,2.44-1.67,2,2,0,0,0,.23-1.3,2.22,2.22,0,0,0-.8-1.17,4.62,4.62,0,0,0-3.09-.88,2.52,2.52,0,0,0-2.47,1.74,1.45,1.45,0,0,0,.67,1.41,3.21,3.21,0,0,0,1.67.57,3.28,3.28,0,0,1-1.78-.4,1.79,1.79,0,0,1-1-1.61,2.37,2.37,0,0,1,1-1.71,4.29,4.29,0,0,1,1.8-.76,5.42,5.42,0,0,1,3.82.78,3.36,3.36,0,0,1,1.32,1.69,3.11,3.11,0,0,1-.18,2.23,5.21,5.21,0,0,1-3.19,2.59,8.45,8.45,0,0,1-4,.23,7.59,7.59,0,0,1-3.73-1.67,5.2,5.2,0,0,1-1.36-1.76,4.46,4.46,0,0,1-.39-2.3,6,6,0,0,1,2-3.85,9.49,9.49,0,0,1,3.61-2,12.52,12.52,0,0,1,4-.48,14.16,14.16,0,0,1,3.91.69,11,11,0,0,1,3.59,1.92,7.78,7.78,0,0,1,2.55,3.46,7.91,7.91,0,0,1-2.08,8,14.23,14.23,0,0,1-7,3.75A20.29,20.29,0,0,1,183,254.81a12.13,12.13,0,0,1-5-6,8.72,8.72,0,0,1-.47-4,11,11,0,0,1,1.06-3.79,15,15,0,0,1,5.1-5.62A23.21,23.21,0,0,1,197.74,231.89Z" transform="translate(-40.95 -64.81)"/>
<path class="cls-5" d="M137.22,208c-13-50.55,19.44-103.32,48.45-102.36,28.62.95,59.68,53.7,48.7,100.08" transform="translate(-40.95 -64.81)"/>
<path class="cls-6" d="M237.52,174.07a28.75,28.75,0,0,1,2.37,10.39,23.26,23.26,0,0,1-2.13,10.65,18.32,18.32,0,0,1-7.57,8.14,9,9,0,0,1-1.28.64c-.44.19-.87.4-1.32.56l-1.36.41a7.52,7.52,0,0,1-1.4.34,17.15,17.15,0,0,1-5.76.14,22.24,22.24,0,0,1-5.51-1.55,26.06,26.06,0,0,1-4.89-2.88,28.76,28.76,0,0,1-7.5-8.38c-.49-.81-.89-1.66-1.32-2.51s-.76-1.72-1-2.65a20.71,20.71,0,0,1-1.1-5.71,17.71,17.71,0,0,1,.66-5.9,14.47,14.47,0,0,1,2.92-5.37,12.73,12.73,0,0,1,11.34-4.16,16.67,16.67,0,0,1,10.08,6,19.37,19.37,0,0,1,3,5,14.36,14.36,0,0,1,1.14,5.89,12.46,12.46,0,0,1-.5,3.07,10.47,10.47,0,0,1-1.42,2.86,9.35,9.35,0,0,1-2.39,2.22,9.16,9.16,0,0,1-3,1.17,9.05,9.05,0,0,1-6.13-1.23,12,12,0,0,1-4.17-4.22,12.1,12.1,0,0,1-1.18-2.71,8.77,8.77,0,0,1-.37-3,7.08,7.08,0,0,1,.83-3,5.55,5.55,0,0,1,2.28-2.25,5.2,5.2,0,0,1,3.12-.56,6.34,6.34,0,0,1,2.81,1.16,7.59,7.59,0,0,1,3,4.84,4.57,4.57,0,0,1-.48,2.88,3.27,3.27,0,0,1-2.36,1.66,3.48,3.48,0,0,1-2.64-.85,4.75,4.75,0,0,1-1.46-2.22,4.42,4.42,0,0,0,1.65,2,3,3,0,0,0,2.33.49,2.5,2.5,0,0,0,1.7-1.44,3.56,3.56,0,0,0,.15-2.28A6.43,6.43,0,0,0,215.8,178a4.58,4.58,0,0,0-2.1-.69,3.25,3.25,0,0,0-2,.52,4.07,4.07,0,0,0-1.77,3.6,7.9,7.9,0,0,0,1.49,4.25,9.57,9.57,0,0,0,3.35,3.08,6,6,0,0,0,4.06.67c2.77-.58,4.45-3.32,4.4-6.28a13.52,13.52,0,0,0-3.5-8.38,13.19,13.19,0,0,0-7.72-4.58,8.72,8.72,0,0,0-7.71,2.92,11.7,11.7,0,0,0-2.67,8.41,16.37,16.37,0,0,0,.86,4.66c.22.76.59,1.52.87,2.28s.69,1.49,1.11,2.2a24.71,24.71,0,0,0,6.33,7.47A22.89,22.89,0,0,0,215,200.7a18.47,18.47,0,0,0,4.59,1.52,14.16,14.16,0,0,0,4.77.11,6.28,6.28,0,0,0,1.19-.24l1.18-.29c.75-.29,1.54-.53,2.26-.89a16.24,16.24,0,0,0,7-6.71,22.56,22.56,0,0,0,2.76-9.75A30.88,30.88,0,0,0,237.52,174.07Z" transform="translate(-40.95 -64.81)"/>
</g>
</svg>