<svg xmlns="http://www.w3.org/2000/svg" xmlns:xlink="http://www.w3.org/1999/xlink" viewBox="69.3 608.9 241 221.6">
  <defs>
    <filter id='glow'>
      <feDropShadow dx="0" dy="0" stdDeviation="3" flood-color="white" result='shadow' />
      <feBlend in="SourceGraphic" in2="shadow" mode="normal" />
    </filter>
    <style>
      .cls-1, .cls-10, .cls-2, .cls-5 {
        fill: none;
      }
      .cls-10, .cls-2, .cls-25, .cls-3, .cls-5 {
        stroke: #fff;
      }
      .cls-10, .cls-12, .cls-2, .cls-20, .cls-21, .cls-22, .cls-24, .cls-25, .cls-26, .cls-28, .cls-3, .cls-30, .cls-32, .cls-5 {
        stroke-miterlimit: 10;
      }
      .cls-2, .cls-3 {
        stroke-width: 3px;
      }
      .cls-14, .cls-20, .cls-25, .cls-3, .cls-4, .cls-9 {
        fill: #fff;
      }
      .cls-5 {
        stroke-width: 5px;
      }
      .cls-6 {
        fill: #16bef9;
      }
      .cls-7 {
        fill: #00c3ff;
      }
      .cls-8 {
        fill: #f969e4;
      }
      .cls-9 {
        font-size: 38px;
      }
      .cls-14, .cls-9 {
        font-family: Loopiejuice-Regular, Loopiejuice;
      }
      .cls-10 {
        stroke-width: 3.06px;
      }
      .cls-11 {
        fill: url(#radial-gradient);
      }
      .cls-12, .cls-63 {
        opacity: 0.1;
      }
      .cls-12 {
        fill: url(#radial-gradient-2);
      }
      .cls-13 {
        fill: #6cd3ef;
      }
      .cls-14 {
        font-size: 31px;
      }
      .cls-15 {
        letter-spacing: -0.1em;
      }
      .cls-16 {
        letter-spacing: -0.02em;
      }
      .cls-17 {
        clip-path: url(#clip-path);
      }
      .cls-18, .cls-22 {
        fill: #b2946d;
      }
      .cls-19, .cls-21, .cls-24, .cls-28 {
        fill: #231f20;
      }
      .cls-20, .cls-21, .cls-22, .cls-24, .cls-26, .cls-28 {
        stroke: #231f20;
      }
      .cls-20, .cls-24 {
        stroke-width: 0.97px;
      }
      .cls-21, .cls-26, .cls-28 {
        stroke-width: 0.94px;
      }
      .cls-22 {
        stroke-width: 0.48px;
      }
      .cls-23 {
        fill: #b3966c;
      }
      .cls-25 {
        stroke-width: 0.49px;
      }
      .cls-26 {
        fill: #b89571;
      }
      .cls-27 {
        fill: #39c5f3;
      }
      .cls-29 {
        opacity: 0.12;
        fill: url(#New_Pattern_Swatch_1);
      }
      .cls-30 {
        fill: #f7af3c;
        stroke: #c19c00;
        stroke-width: 1.94px;
      }
      .cls-31, .cls-32, .cls-62 {
        opacity: 0.7;
      }
      .cls-31 {
        fill: url(#linear-gradient);
      }
      .cls-32 {
        fill: #8e8339;
        stroke: #fff100;
        stroke-width: 1.16px;
      }
      .cls-33 {
        fill: url(#linear-gradient-2);
      }
      .cls-34 {
        fill: url(#linear-gradient-3);
      }
      .cls-35, .cls-64 {
        opacity: 0.3;
      }
      .cls-36 {
        fill: url(#linear-gradient-4);
      }
      .cls-37 {
        fill: url(#linear-gradient-5);
      }
      .cls-38 {
        fill: url(#radial-gradient-3);
      }
      .cls-39 {
        fill: url(#radial-gradient-4);
      }
      .cls-100, .cls-103, .cls-106, .cls-40, .cls-43, .cls-46, .cls-49, .cls-52, .cls-55, .cls-58, .cls-61, .cls-72, .cls-75, .cls-79, .cls-82, .cls-85, .cls-88, .cls-91, .cls-94, .cls-97 {
        opacity: 0.11;
      }
      .cls-40 {
        fill: url(#radial-gradient-5);
      }
      .cls-41 {
        fill: url(#radial-gradient-6);
      }
      .cls-42 {
        fill: url(#radial-gradient-7);
      }
      .cls-43 {
        fill: url(#radial-gradient-8);
      }
      .cls-44 {
        fill: url(#radial-gradient-9);
      }
      .cls-45 {
        fill: url(#radial-gradient-10);
      }
      .cls-46 {
        fill: url(#radial-gradient-11);
      }
      .cls-47 {
        fill: url(#radial-gradient-12);
      }
      .cls-48 {
        fill: url(#radial-gradient-13);
      }
      .cls-49 {
        fill: url(#radial-gradient-14);
      }
      .cls-50 {
        fill: url(#radial-gradient-15);
      }
      .cls-51 {
        fill: url(#radial-gradient-16);
      }
      .cls-52 {
        fill: url(#radial-gradient-17);
      }
      .cls-53 {
        fill: url(#radial-gradient-18);
      }
      .cls-54 {
        fill: url(#radial-gradient-19);
      }
      .cls-55 {
        fill: url(#radial-gradient-20);
      }
      .cls-56 {
        fill: url(#radial-gradient-21);
      }
      .cls-57 {
        fill: url(#radial-gradient-22);
      }
      .cls-58 {
        fill: url(#radial-gradient-23);
      }
      .cls-59 {
        fill: url(#radial-gradient-24);
      }
      .cls-60 {
        fill: url(#radial-gradient-25);
      }
      .cls-61 {
        fill: url(#radial-gradient-26);
      }
      .cls-62 {
        fill: url(#linear-gradient-6);
      }
      .cls-65 {
        fill: url(#linear-gradient-7);
      }
      .cls-66 {
        fill: url(#linear-gradient-8);
      }
      .cls-67 {
        fill: url(#linear-gradient-9);
      }
      .cls-68 {
        fill: url(#linear-gradient-10);
      }
      .cls-69 {
        fill: url(#linear-gradient-11);
      }
      .cls-70 {
        fill: url(#radial-gradient-27);
      }
      .cls-71 {
        fill: url(#radial-gradient-28);
      }
      .cls-72 {
        fill: url(#radial-gradient-29);
      }
      .cls-73 {
        fill: url(#radial-gradient-30);
      }
      .cls-74 {
        fill: url(#radial-gradient-31);
      }
      .cls-75 {
        fill: url(#radial-gradient-32);
      }
    </style>
    <linearGradient id="linear-gradient" x1="129.19" y1="721.99" x2="254.64" y2="721.99" gradientUnits="userSpaceOnUse">
      <stop offset="0" stop-color="#fff23a" />
      <stop offset="0.2" stop-color="#fee62e" />
      <stop offset="0.2" stop-color="#fde52d" />
      <stop offset="0.31" stop-color="#f4d41a" />
      <stop offset="0.43" stop-color="#eec90f" />
      <stop offset="0.55" stop-color="#ecc60b" />
      <stop offset="0.81" stop-color="#b3882c" />
    </linearGradient>
    <linearGradient id="linear-gradient-2" x1="-3035.75" y1="1915.11" x2="-2951.2" y2="1915.11"
      gradientTransform="matrix(-0.44, -0.57, -0.54, 0.42, -190.53, -1871.38)" gradientUnits="userSpaceOnUse">
      <stop offset="0.06" stop-color="#8a5d3b" />
      <stop offset="0.11" stop-color="#8f6339" />
      <stop offset="0.18" stop-color="#9c7432" />
      <stop offset="0.26" stop-color="#b29027" />
      <stop offset="0.35" stop-color="#d1b717" />
      <stop offset="0.44" stop-color="#f8e804" />
      <stop offset="0.45" stop-color="#fff100" />
      <stop offset="0.57" stop-color="#fdee01" />
      <stop offset="0.66" stop-color="#f5e503" />
      <stop offset="0.73" stop-color="#e8d507" />
      <stop offset="0.8" stop-color="#d5bf0c" />
      <stop offset="0.87" stop-color="#bda213" />
      <stop offset="0.93" stop-color="#9f7e1c" />
      <stop offset="0.99" stop-color="#7d5526" />
      <stop offset="1" stop-color="#754c28" />
    </linearGradient>
    <linearGradient id="linear-gradient-3" x1="-447.23" y1="204.63" x2="-365.02" y2="204.63"
      gradientTransform="matrix(0.63, -0.21, 0.21, 0.61, 495.77, 429.03)" gradientUnits="userSpaceOnUse">
      <stop offset="0.03" stop-color="#8a5d3b" />
      <stop offset="0.15" stop-color="#9f7830" />
      <stop offset="0.39" stop-color="#d4bb16" />
      <stop offset="0.57" stop-color="#fff100" />
      <stop offset="0.65" stop-color="#fcee01" />
      <stop offset="0.72" stop-color="#f3e303" />
      <stop offset="0.78" stop-color="#e4d108" />
      <stop offset="0.84" stop-color="#cfb80e" />
      <stop offset="0.9" stop-color="#b49716" />
      <stop offset="0.96" stop-color="#936f1f" />
      <stop offset="1" stop-color="#754c28" />
    </linearGradient>
    <linearGradient id="linear-gradient-4" x1="-458.56" y1="76.46" x2="-427.87" y2="76.46"
      gradientTransform="matrix(0.52, 0.41, 0.4, -0.51, 425.17, 1031.89)" xlink:href="#linear-gradient-3" />
    <linearGradient id="linear-gradient-5" x1="856.62" y1="1239.99" x2="887.31" y2="1239.99"
      gradientTransform="matrix(-0.5, 0.44, -0.43, -0.49, 1133.7, 1030.23)" xlink:href="#linear-gradient-3" />
    <radialGradient id="radial-gradient-3" cx="-10530.97" cy="-6153.33" r="40.48"
      gradientTransform="matrix(-0.09, 0, 0, 0.07, -755.98, 1099.05)" gradientUnits="userSpaceOnUse">
      <stop offset="0" stop-color="#fff" />
      <stop offset="0.48" stop-color="#fff" stop-opacity="0.31" />
    </radialGradient>
    <radialGradient id="radial-gradient-4" cx="-9255.62" cy="-7353.46" r="55.37"
      gradientTransform="matrix(-0.09, -0.01, -0.01, 0.07, -738.21, 1069.59)" gradientUnits="userSpaceOnUse">
      <stop offset="0" stop-color="#fff" />
      <stop offset="0.48" stop-color="#f9ec31" stop-opacity="0.31" />
    </radialGradient>
    <radialGradient id="radial-gradient-5" cx="-10532.08" cy="-6155.99" r="23.26"
      gradientTransform="matrix(-0.09, 0, 0, 0.07, -755.98, 1099.05)" gradientUnits="userSpaceOnUse">
      <stop offset="0.29" stop-color="#fff" />
      <stop offset="1" stop-color="#fff" stop-opacity="0.31" />
    </radialGradient>
    <radialGradient id="radial-gradient-6" cx="-10128.21" cy="-5854.78" r="40.48" xlink:href="#radial-gradient-3" />
    <radialGradient id="radial-gradient-7" cx="-8906.97" cy="-6993.19" r="55.37" xlink:href="#radial-gradient-4" />
    <radialGradient id="radial-gradient-8" cx="-10129.32" cy="-5857.44" r="23.26" xlink:href="#radial-gradient-5" />
    <radialGradient id="radial-gradient-9" cx="-10385.96" cy="-5682.22" r="40.48" xlink:href="#radial-gradient-3" />
    <radialGradient id="radial-gradient-10" cx="-9189.43" cy="-6865" r="55.37" xlink:href="#radial-gradient-4" />
    <radialGradient id="radial-gradient-11" cx="-10387.07" cy="-5684.87" r="23.26" xlink:href="#radial-gradient-5" />
    <radialGradient id="radial-gradient-12" cx="-10841.25" cy="-6458.65" r="40.48" xlink:href="#radial-gradient-3" />
    <radialGradient id="radial-gradient-13" cx="-9511.93" cy="-7705.32" r="55.37" xlink:href="#radial-gradient-4" />
    <radialGradient id="radial-gradient-14" cx="-10842.36" cy="-6461.31" r="23.26" xlink:href="#radial-gradient-5" />
    <radialGradient id="radial-gradient-15" cx="-10475.07" cy="-5349.77" r="40.48" xlink:href="#radial-gradient-3" />
    <radialGradient id="radial-gradient-16" cx="-9331.58" cy="-6551.54" r="55.37" xlink:href="#radial-gradient-4" />
    <radialGradient id="radial-gradient-17" cx="-10476.19" cy="-5352.43" r="23.26" xlink:href="#radial-gradient-5" />
    <radialGradient id="radial-gradient-18" cx="-10710.9" cy="-5474.12" r="40.48" xlink:href="#radial-gradient-3" />
    <radialGradient id="radial-gradient-19" cx="-9543.97" cy="-6712.71" r="55.37" xlink:href="#radial-gradient-4" />
    <radialGradient id="radial-gradient-20" cx="-10712.02" cy="-5476.78" r="23.26" xlink:href="#radial-gradient-5" />
    <radialGradient id="radial-gradient-21" cx="-10785.35" cy="-6153.33" r="40.48" xlink:href="#radial-gradient-3" />
    <radialGradient id="radial-gradient-22" cx="-9506.6" cy="-7394.97" r="55.37" xlink:href="#radial-gradient-4" />
    <radialGradient id="radial-gradient-23" cx="-10786.47" cy="-6155.99" r="23.26" xlink:href="#radial-gradient-5" />
    <radialGradient id="radial-gradient-24" cx="-10687.65" cy="-5861.06" r="40.48" xlink:href="#radial-gradient-3" />
    <radialGradient id="radial-gradient-25" cx="-9457.89" cy="-7090.67" r="55.37" xlink:href="#radial-gradient-4" />
    <radialGradient id="radial-gradient-26" cx="-10688.76" cy="-5863.71" r="23.26" xlink:href="#radial-gradient-5" />
    <linearGradient id="linear-gradient-6" x1="1340.41" y1="677.31" x2="1475" y2="677.31"
      gradientTransform="matrix(-0.78, 0, 0, 1, 1283.83, 0)" gradientUnits="userSpaceOnUse">
      <stop offset="0.31" stop-color="#9e6500" />
      <stop offset="0.4" stop-color="#ac7c03" />
      <stop offset="0.58" stop-color="#d1b60a" />
      <stop offset="0.79" stop-color="#ffff13" />
    </linearGradient>
    <linearGradient id="linear-gradient-7" x1="3318.1" y1="583.14" x2="3350.54" y2="583.14"
      gradientTransform="matrix(-0.27, -0.01, -0.02, 0.84, 1139.37, 213.14)" gradientUnits="userSpaceOnUse">
      <stop offset="0" stop-color="#fff23a" />
      <stop offset="0.2" stop-color="#fee62e" />
      <stop offset="0.2" stop-color="#fee52d" />
      <stop offset="0.31" stop-color="#fdd41a" />
      <stop offset="0.43" stop-color="#fdc90f" />
      <stop offset="0.55" stop-color="#fdc60b" />
      <stop offset="0.81" stop-color="#c2882c" />
    </linearGradient>
    <linearGradient id="linear-gradient-8" x1="1422.77" y1="506.81" x2="1440.45" y2="506.81"
      gradientTransform="matrix(-0.8, -0.03, -0.02, 0.81, 1318.41, 297.34)" xlink:href="#linear-gradient-7" />
    <linearGradient id="linear-gradient-9" x1="1175.42" y1="568.61" x2="1176.24" y2="568.61"
      gradientTransform="matrix(-1.14, -0.03, -0.03, 0.84, 1553.52, 224.84)" xlink:href="#linear-gradient-7" />
    <linearGradient id="linear-gradient-10" x1="2419.06" y1="1079.82" x2="2455.22" y2="1079.82"
      gradientTransform="matrix(0.01, -1, -2.7, -0.05, 3082.84, 3144.26)" gradientUnits="userSpaceOnUse">
      <stop offset="0.18" stop-color="#8a5d3b" stop-opacity="0" />
      <stop offset="0.21" stop-color="#805737" stop-opacity="0.02" />
      <stop offset="1" stop-opacity="0.3" />
    </linearGradient>
    <linearGradient id="linear-gradient-11" x1="1343.02" y1="632.09" x2="1471.57" y2="632.09"
      gradientTransform="matrix(-0.78, 0, 0, 1, 1283.83, 0)" gradientUnits="userSpaceOnUse">
      <stop offset="0.18" stop-color="#8a5d3b" />
      <stop offset="0.2" stop-color="#936836" />
      <stop offset="0.28" stop-color="#b49226" />
      <stop offset="0.37" stop-color="#cfb418" />
      <stop offset="0.45" stop-color="#e4cf0e" />
      <stop offset="0.54" stop-color="#f3e206" />
      <stop offset="0.63" stop-color="#fced01" />
      <stop offset="0.72" stop-color="#fff100" />
      <stop offset="1" stop-color="#754c28" />
    </linearGradient>
    <radialGradient id="radial-gradient-27" cx="332.14" cy="238" r="40.48"
      gradientTransform="matrix(-0.52, 0, 0, 0.43, 398.42, 567.11)" xlink:href="#radial-gradient-3" />
    <radialGradient id="radial-gradient-28" cx="419.14" cy="724.62" r="55.37"
      gradientTransform="matrix(-0.52, -0.07, -0.09, 0.43, 502.37, 391.56)" xlink:href="#radial-gradient-4" />
    <radialGradient id="radial-gradient-29" cx="331.03" cy="235.35" r="23.26"
      gradientTransform="matrix(-0.52, 0, 0, 0.43, 398.42, 567.11)" xlink:href="#radial-gradient-5" />
    <radialGradient id="radial-gradient-30" cx="1047.01" cy="51.25" r="40.48"
      gradientTransform="matrix(-0.6, 0, 0, 0.4, 770.7, 613.8)" xlink:href="#radial-gradient-3" />
    <radialGradient id="radial-gradient-31" cx="1154.89" cy="657" r="55.37"
      gradientTransform="matrix(-0.59, -0.07, -0.1, 0.4, 889.31, 451)" xlink:href="#radial-gradient-4" />
    <radialGradient id="radial-gradient-32" cx="1045.89" cy="48.59" r="23.26"
      gradientTransform="matrix(-0.6, 0, 0, 0.4, 770.7, 613.8)" xlink:href="#radial-gradient-5" />s
  </defs>
  <title>MemoryChalice</title>
  <g id="Layer_14" data-name="Layer 14">
    <path class="cls-11"
      d="M199.5,359.29c-92.12,0-176.22,162.85-199.5,281V759.13a527.35,527.35,0,0,0,46.12,136H329a520.58,520.58,0,0,0,44.62-111.64V601.66C347,489.62,281.91,359.29,199.5,359.29Z" />
    <path class="cls-12"
      d="M373.58,201.44c-61.08-39.64-131.81-62.29-207.2-62.29A374.75,374.75,0,0,0,0,178.22V836.15H373.58Z" />
  </g>
  <g id="Chalis">
    <ellipse class="cls-30" cx="195.13" cy="813.63" rx="20.24" ry="2.9" />
    <path class="cls-31"
      d="M216.4,813.91a46.14,46.14,0,0,1-42.85.15,116.3,116.3,0,0,0,7.14-15.17c10.79-28,8.33-54.33,5.08-70.64-14.94-2.11-24.59-8-30-12.11C132,698,123.4,662,133.1,624.72a320.81,320.81,0,0,0,116.92,0c10.62,37.27,2.61,73.51-20.79,91.73-5.3,4.13-14.81,10-29.68,12.12-2.75,15.11-5.19,42.54,8.09,70.38A102.92,102.92,0,0,0,216.4,813.91Z" />
    <ellipse class="cls-32" cx="191.56" cy="625.31" rx="58.46" ry="5.08" />
    <path class="cls-33"
      d="M132.67,625.47a50.22,50.22,0,0,0-8.28-8.27l-1-.78c-.33-.27-.69-.5-1-.74-.7-.5-1.43-.95-2.16-1.4-.36-.22-.74-.42-1.11-.64l-.56-.31-.57-.29c-.38-.19-.76-.39-1.15-.57l-1.17-.52a36.59,36.59,0,0,0-19.92-2.61c-.83.14-1.66.27-2.48.47l-.61.14-.61.16-1.21.34-.3.09-.3.1-.59.21-.59.2-.3.11-.29.11-1.16.47-.29.12-.3.14-.58.27a29.64,29.64,0,0,0-4.48,2.65,30.46,30.46,0,0,0-3.92,3.44,29.86,29.86,0,0,0-8.09,19,32,32,0,0,0,1.27,10.72,34.43,34.43,0,0,0,2,5.08,27.79,27.79,0,0,0,11.64,12.24,26.84,26.84,0,0,0,10.65,3.17,25.15,25.15,0,0,0,5.49-.19,24.68,24.68,0,0,0,5.24-1.39c.42-.15.83-.33,1.24-.52s.83-.39,1.25-.6a20.26,20.26,0,0,0,2.38-1.5,19.92,19.92,0,0,0,4-3.91,20.6,20.6,0,0,0,4.11-10.36,21.59,21.59,0,0,0-1.8-11.14c-.1-.21-.2-.43-.31-.64s-.2-.42-.32-.65l-.36-.65-.39-.65a19.07,19.07,0,0,0-1.82-2.39,18.47,18.47,0,0,0-4.59-3.74,17.89,17.89,0,0,0-5.42-2,16.41,16.41,0,0,0-5.63-.12,16.11,16.11,0,0,0-2.7.65c-.43.14-.86.32-1.28.49l-.61.29-.16.08-.15.08-.32.17a13,13,0,0,0-4.23,3.76,13.24,13.24,0,0,0-2.21,5.16,13.82,13.82,0,0,0,.11,5.62,13.52,13.52,0,0,0,2.41,5.14l.22.29.25.27.49.54.54.49.27.24.29.22c.19.14.38.29.58.42l.6.38c.2.13.42.23.63.34s.42.21.64.3a10.88,10.88,0,0,0,1.32.46c.22.05.44.13.67.17l.68.12c.22,0,.45,0,.67.07l.34,0h1.18l.17,0,.33,0,.33,0,.17,0,.16,0,.64-.15.16,0,.16,0,.31-.11.31-.1c.1,0,.2-.07.3-.12a8.85,8.85,0,0,0,2.24-1.38,7.33,7.33,0,0,0,1.64-2,7.12,7.12,0,0,0,.86-2.44,7.84,7.84,0,0,0-.78-5l-.14-.28c0-.09-.12-.18-.17-.28a4.87,4.87,0,0,0-.37-.52l-.2-.25a1.65,1.65,0,0,0-.22-.24l-.22-.22a2.29,2.29,0,0,0-.23-.21,6.31,6.31,0,0,0-2.13-1.21,5.63,5.63,0,0,0-2.29-.24,5,5,0,0,0-2.07.69,5.16,5.16,0,0,1,5.54,1.71l.15.19.13.2.13.2.11.21a2.44,2.44,0,0,1,.19.44,1.45,1.45,0,0,1,.09.22l.07.23a5.6,5.6,0,0,1-.07,3.6,5,5,0,0,1-2.07,2.52,6,6,0,0,1-3.16.74,6.5,6.5,0,0,1-3.08-.94l-.33-.23a3.81,3.81,0,0,1-.32-.24l-.3-.25c-.1-.09-.19-.19-.28-.28l-.14-.14-.12-.15-.25-.3-.21-.32-.11-.16a1.29,1.29,0,0,1-.09-.16,3.72,3.72,0,0,0-.19-.34c0-.11-.09-.23-.15-.35a6.54,6.54,0,0,1-.27-.75,7.79,7.79,0,0,1-.31-1.57,7.36,7.36,0,0,1,.34-3,7,7,0,0,1,1.49-2.49,6.36,6.36,0,0,1,2.29-1.56l.16-.07.08,0,.1,0,.36-.12.37-.1c.12,0,.25-.05.37-.08a9.48,9.48,0,0,1,1.5-.2,9.34,9.34,0,0,1,3,.39,9.67,9.67,0,0,1,2.68,1.31,9.24,9.24,0,0,1,2.09,2.05,10.41,10.41,0,0,1,.77,1.22l.16.33a3.31,3.31,0,0,1,.15.33,2.83,2.83,0,0,1,.14.35l.15.38a11.92,11.92,0,0,1,.52,6.07,11.28,11.28,0,0,1-.91,2.83,10.66,10.66,0,0,1-1.59,2.42,9.76,9.76,0,0,1-2.16,1.85,10,10,0,0,1-1.24.69c-.23.09-.43.2-.68.29s-.49.19-.74.26a14.41,14.41,0,0,1-3,.65,14.06,14.06,0,0,1-3.11,0,15.52,15.52,0,0,1-6-2,15.75,15.75,0,0,1-6.32-6.91,21.47,21.47,0,0,1-1.19-3.19,20,20,0,0,1-.77-6.64,19.41,19.41,0,0,1,1.45-6.45,18.76,18.76,0,0,1,1.51-2.92,18.46,18.46,0,0,1,2-2.58,18,18,0,0,1,2.4-2.21,20.8,20.8,0,0,1,2.77-1.74l.37-.19.18-.09.2-.09L93,622l.2-.09.21-.08.41-.15.4-.16.21-.08.21-.06.83-.27a3.31,3.31,0,0,1,.42-.12l.43-.12c.56-.16,1.13-.27,1.71-.4.28-.06.57-.09.86-.14l.44-.07a3.12,3.12,0,0,1,.44,0l.88-.1.88-.05.45,0h.44c.3,0,.6,0,.89,0l.9,0h.22l.22,0,.45,0c.6,0,1.19.13,1.79.2l.89.16.45.08.44.1a27,27,0,0,1,3.5,1l.86.32.85.36.43.19.41.2.83.41a31.45,31.45,0,0,1,3.19,1.93c.26.17.5.37.76.55l.37.28c.13.09.25.2.37.29l.73.6.7.62c.24.21.46.43.69.65s.46.43.67.67l.65.69.16.17.15.18.31.36c.42.48.8,1,1.19,1.49.19.25.36.52.55.78s.38.52.54.79l.51.81c.17.27.32.56.48.83.33.55.61,1.16.91,1.75l.23.44.2.45.41.91c.14.3.26.61.38.92C129.71,639.33,133.19,626.15,132.67,625.47Z" />
    <path class="cls-34"
      d="M250.07,628.26c-.6-3,3.89-6.51,6.36-8.28.62-.44,1.23-.88,1.9-1.29.33-.2.66-.42,1-.61l1-.58c.34-.19.7-.36,1-.54s.7-.36,1.06-.51c.72-.32,1.44-.64,2.18-.91a34.75,34.75,0,0,1,9.24-2.11l1.19-.08c.4,0,.79,0,1.19,0,.8,0,1.59,0,2.38,0,.4,0,.8.06,1.19.09l.6,0,.59.07c.39.05.79.09,1.18.15l1.18.2a34.29,34.29,0,0,1,16.84,8.35c.57.55,1.16,1.08,1.69,1.67l.41.43c.13.14.27.28.4.44l.76.9.19.23.18.23.36.47.36.47.18.24.17.24.66,1,.17.24.16.26.32.53a28.54,28.54,0,0,1,2.15,4.41,28,28,0,0,1,1.32,4.74,28.39,28.39,0,0,1-3.3,19.2,29.76,29.76,0,0,1-6.4,7.75,33.08,33.08,0,0,1-4.1,3,24.68,24.68,0,0,1-4.8,2.24,25.12,25.12,0,0,1-10.44,1.29,24.64,24.64,0,0,1-9.91-3.07,23.84,23.84,0,0,1-4.18-3,23.53,23.53,0,0,1-3.38-3.82c-.26-.34-.48-.7-.71-1.06s-.45-.74-.66-1.12a19.58,19.58,0,0,1-1.11-2.42,19.34,19.34,0,0,1-1.16-5.18,19.56,19.56,0,0,1,2-10.28,20.12,20.12,0,0,1,7-7.81l.57-.34a6.33,6.33,0,0,1,.58-.34l.61-.33.63-.3a17,17,0,0,1,2.62-.93,16.62,16.62,0,0,1,5.47-.54,16.39,16.39,0,0,1,5.24,1.24,15.78,15.78,0,0,1,4.45,2.84,16,16,0,0,1,1.77,1.92c.27.34.51.7.75,1.06l.33.55.08.14.09.14.16.3a12.42,12.42,0,0,1,.51,10.36,12.53,12.53,0,0,1-2.92,4.36,12.12,12.12,0,0,1-4.47,2.78l-.32.11-.32.09c-.22.06-.44.12-.66.16l-.67.11-.33,0-.33,0-.67,0-.67,0a4.76,4.76,0,0,1-.65-.06c-.22,0-.44,0-.65-.1a10.59,10.59,0,0,1-1.26-.33c-.21-.07-.41-.13-.61-.21l-.59-.26a5,5,0,0,1-.56-.3l-.28-.16-.14-.08-.13-.09-.51-.36-.13-.1-.12-.1-.24-.2-.24-.21-.11-.1-.11-.12-.43-.45-.1-.11-.1-.12-.19-.25-.18-.24a2,2,0,0,1-.18-.26,8.28,8.28,0,0,1-1.05-2.25,7.07,7.07,0,0,1-.25-2.46,6.85,6.85,0,0,1,.56-2.36,7.33,7.33,0,0,1,3.12-3.51l.26-.14.26-.13c.19-.08.37-.16.56-.22l.28-.09.29-.07.28-.07.29,0a5.57,5.57,0,0,1,2.27.17,5.21,5.21,0,0,1,1.91,1,4.9,4.9,0,0,1,1.26,1.62,4.75,4.75,0,0,0-5.18-1.55l-.21.07-.21.09-.2.1-.19.11a2.85,2.85,0,0,0-.37.23l-.18.13-.17.15a5.24,5.24,0,0,0-1.76,2.86,4.78,4.78,0,0,0,.34,3.07,5.71,5.71,0,0,0,2.09,2.22,5.94,5.94,0,0,0,2.87.87c.13,0,.25,0,.38,0a2.36,2.36,0,0,0,.37,0l.36,0,.36-.07.17,0,.18,0,.34-.11.33-.14.16-.06.16-.09.31-.17c.1,0,.19-.13.29-.19a5.51,5.51,0,0,0,.6-.45,6.94,6.94,0,0,0,1-1.07,6.78,6.78,0,0,0,1.26-2.57,6.48,6.48,0,0,0,.11-2.73,6.1,6.1,0,0,0-1-2.42l-.1-.14-.05-.06,0-.07-.22-.29-.24-.27-.25-.26a8.5,8.5,0,0,0-6.33-2.55,8.48,8.48,0,0,0-2.66.51,10.37,10.37,0,0,0-1.22.56l-.29.17-.28.19c-.09,0-.19.13-.29.2s-.21.14-.3.22a11,11,0,0,0-3.48,4.5,10.58,10.58,0,0,0-.71,2.69,10.47,10.47,0,0,0,0,2.74,10.05,10.05,0,0,0,.75,2.58,11.3,11.3,0,0,0,.63,1.19c.12.19.23.37.38.58s.28.4.44.59a13.58,13.58,0,0,0,2,2.1,13.79,13.79,0,0,0,2.44,1.62,14.5,14.5,0,0,0,5.64,1.54,14.31,14.31,0,0,0,5.77-.84,14.61,14.61,0,0,0,2.64-1.28,20.33,20.33,0,0,0,2.54-1.88,18.56,18.56,0,0,0,3.95-4.83,18.1,18.1,0,0,0,2.12-5.82,17.28,17.28,0,0,0,.05-6.14,17.11,17.11,0,0,0-.75-3,18.84,18.84,0,0,0-1.29-2.82l-.19-.34-.1-.17-.11-.17-.44-.7-.11-.17-.12-.17-.24-.33-.24-.34-.12-.17-.13-.16-.52-.64a4,4,0,0,0-.26-.32l-.28-.31c-.35-.43-.75-.81-1.13-1.21-.19-.19-.4-.37-.6-.56l-.3-.29-.32-.27-.64-.53-.66-.51-.33-.25-.35-.23c-.23-.16-.45-.33-.69-.47l-.71-.45-.18-.11-.18-.1-.37-.2c-.48-.29-1-.52-1.5-.77l-.77-.34-.39-.17-.4-.15a24.08,24.08,0,0,0-3.25-1l-.83-.19-.84-.16-.43-.08-.42-.06-.86-.11a30.53,30.53,0,0,0-3.45-.15l-.87,0-.44,0-.43,0-.87.09-.86.13a8.13,8.13,0,0,0-.86.15c-.29.05-.58.1-.86.17l-.86.2-.21.05-.21.07-.42.12c-.57.15-1.12.36-1.68.55-.28.09-.55.21-.82.32s-.56.21-.82.34l-.81.37c-.27.12-.53.27-.79.4-.53.26-1.06.59-1.59.89l-.4.23-.39.25-.78.5c-.26.16-.5.35-.75.53l-.76.54c-.12.08-.24.18-.36.27l-.36.29-.73.57-1.4,1.22c-3.62,3.36-4.24,1.29-3.56,5.8C250.94,634.33,251.18,633.68,250.07,628.26Z" />
    <ellipse class="cls-35" cx="194.71" cy="823.34" rx="55.31" ry="7.08" />
    <path class="cls-36"
      d="M211.48,810.05c-.59,1,.55,2.78,1.19,3.72.16.23.32.46.51.69l.27.34.29.33c.09.11.2.21.3.32l.31.31c.21.21.42.41.65.6a13.3,13.3,0,0,0,3,1.9l.4.17.42.17c.27.11.56.19.84.28s.29.08.43.12l.21.06.22.05c.15,0,.29.07.44.09l.43.08a12.86,12.86,0,0,0,7-.84c.27-.13.54-.24.8-.38l.2-.1.19-.11.39-.22.09-.06.1-.06.18-.12.19-.12.09-.06.09-.07.36-.26.09-.06.09-.08.18-.14a10.64,10.64,0,0,0,1.31-1.29,10.51,10.51,0,0,0,1.06-1.51,10.67,10.67,0,0,0,1.27-7.18,11,11,0,0,0-1.28-3.54,10.41,10.41,0,0,0-1.07-1.55,9.27,9.27,0,0,0-1.4-1.4,9.5,9.5,0,0,0-3.51-1.75,9.25,9.25,0,0,0-3.88-.16,9.15,9.15,0,0,0-1.85.55,8.24,8.24,0,0,0-1.67.92,3.8,3.8,0,0,0-.38.29,3.68,3.68,0,0,0-.38.31,6.81,6.81,0,0,0-.7.72,7.33,7.33,0,0,0-1.06,1.68,7.35,7.35,0,0,0,.9,7.51l.15.19.17.19c0,.07.11.13.17.2l.18.18a6.31,6.31,0,0,0,2.67,1.53,6.14,6.14,0,0,0,2,.21,5.72,5.72,0,0,0,1.92-.44,6,6,0,0,0,.87-.46l.39-.28.19-.15.05,0,0,0,.1-.09a4.67,4.67,0,0,0,1-5.49,4.41,4.41,0,0,0-1.22-1.54l-.1-.08-.1-.07-.21-.14-.22-.12-.12-.06-.11-.05-.23-.09-.24-.08-.24-.06-.24,0c-.16,0-.32,0-.48,0h-.24l-.24,0-.24,0-.12,0h-.11l-.23.07-.06,0-.05,0-.11,0-.11,0-.06,0,0,0-.21.11-.05,0,0,0-.09.06-.1.06L223,804a3.18,3.18,0,0,0-.66.66,3,3,0,0,0-.4.84,2.73,2.73,0,0,0,.56,2.53l.07.08.08.08a1.29,1.29,0,0,0,.17.15l.08.07.09.06.1,0,.09.06a2.18,2.18,0,0,0,.82.22,1.79,1.79,0,0,0,.8-.12,1.76,1.76,0,0,0,.65-.41,1.76,1.76,0,0,1-1.41.2,1.74,1.74,0,0,1-.61-.3l-.06-.05-.07-.06,0-.06-.06-.06a1.13,1.13,0,0,1-.1-.13.43.43,0,0,1,0-.07l0-.07a2,2,0,0,1-.26-1.23,1.83,1.83,0,0,1,.51-1,2.22,2.22,0,0,1,2.14-.47l.13,0,.13,0,.12.06.12.07.05,0,.06,0,.11.08.09.09.05,0,0,0,.09.1.07.1a1.88,1.88,0,0,1,.16.23,3.82,3.82,0,0,1,.23.51,2.78,2.78,0,0,1,.12,1.07,2.63,2.63,0,0,1-.31,1,2.31,2.31,0,0,1-.66.73l-.05,0,0,0h0l-.12.08-.12.06-.12.07a4.14,4.14,0,0,1-.49.19,3.34,3.34,0,0,1-1,.13,3.21,3.21,0,0,1-1-.22,2.93,2.93,0,0,1-.87-.51,3,3,0,0,1-.36-.35l-.08-.1-.07-.09a1,1,0,0,0-.08-.11l-.08-.12a4.12,4.12,0,0,1-.65-2,3.63,3.63,0,0,1,.09-1,3.56,3.56,0,0,1,.35-1,3.42,3.42,0,0,1,.59-.82,4,4,0,0,1,.37-.34l.2-.16c.08,0,.15-.11.23-.15a5.69,5.69,0,0,1,1-.49,5.47,5.47,0,0,1,1.06-.26,5.27,5.27,0,0,1,4.11,1.17,6.3,6.3,0,0,1,.77.78,7.92,7.92,0,0,1,.65,1,7,7,0,0,1,.79,4.52,6.12,6.12,0,0,1-.28,1.12,7.13,7.13,0,0,1-.47,1.05,6.23,6.23,0,0,1-.65,1,7,7,0,0,1-.8.84l-.11.09-.06,0-.06.05-.25.19-.06,0-.06,0-.13.09-.12.08-.07.05-.06,0-.27.16a.57.57,0,0,1-.13.08l-.13.08-.55.28-.29.13-.14.06-.15.05-.29.11-.3.1-.14.05-.16,0-.3.08-.3.06-.08,0h-.08l-.15,0c-.21,0-.42.06-.63.08l-.31,0h-.32a9,9,0,0,1-1.27,0l-.32,0-.32,0-.16,0-.15,0-.32-.07a10.3,10.3,0,0,1-1.23-.38L219,815l-.16-.06-.14-.07-.3-.14-.29-.15-.28-.16-.28-.17-.27-.18-.07,0-.07,0-.13-.1c-.18-.12-.35-.27-.52-.4l-.25-.22L216,813l-.24-.23-.22-.24c-.16-.16-.3-.34-.45-.52l-.11-.13-.11-.13-.21-.28-.2-.28-.19-.28-.1-.14-.09-.15-.18-.29c-.12-.2-.23-.4-.34-.61-.85-1.63-1.33-1-.52-2.49C212.55,808,212.55,808.28,211.48,810.05Z" />
    <path class="cls-37"
      d="M177.11,811.31c.63.93-.4,2.81-1,3.78-.15.24-.3.48-.47.71l-.26.36-.27.34a3,3,0,0,1-.28.34c-.09.11-.19.23-.29.33s-.4.43-.62.63a12.77,12.77,0,0,1-2.88,2.05l-.4.2-.4.19c-.27.12-.55.22-.83.33l-.42.14-.21.07-.22.06-.42.12-.44.1a12.87,12.87,0,0,1-7-.47c-.28-.11-.56-.21-.83-.33l-.2-.09-.2-.1-.4-.2-.09,0-.1-.06-.19-.11-.19-.11-.1,0-.09-.06-.37-.24-.1-.07-.09-.06-.19-.14a10,10,0,0,1-2.52-2.66,10.69,10.69,0,0,1-1.64-7.11,11.22,11.22,0,0,1,2.07-5.2,9.76,9.76,0,0,1,1.33-1.47,9.36,9.36,0,0,1,3.41-1.94,9.2,9.2,0,0,1,3.86-.36,9.34,9.34,0,0,1,1.88.44,9.09,9.09,0,0,1,1.72.83c.14.08.26.18.39.27s.27.19.4.29a7.74,7.74,0,0,1,.73.68,7.11,7.11,0,0,1,1.15,1.62,7.31,7.31,0,0,1,.79,3.84,7.42,7.42,0,0,1-1.29,3.7l-.14.2a1.56,1.56,0,0,1-.16.2l-.16.21-.17.19a7.26,7.26,0,0,1-.77.7,6.47,6.47,0,0,1-1.81,1,6.14,6.14,0,0,1-2,.32,5.82,5.82,0,0,1-1.94-.34,5.53,5.53,0,0,1-.89-.41l-.41-.26-.19-.14-.05,0,0,0-.1-.08a4.64,4.64,0,0,1-1.23-1.59,4.74,4.74,0,0,1-.45-1.92,4.67,4.67,0,0,1,.38-1.92,4.58,4.58,0,0,1,1.13-1.61.39.39,0,0,0,.1-.08l.1-.08.2-.15.22-.13.1-.06.12-.06.22-.11.23-.08a1.13,1.13,0,0,1,.24-.08l.24-.06a3.93,3.93,0,0,1,.48-.06l.24,0h.24l.24,0,.12,0H164l0,0,.23.05h.06l.06,0,.11,0,.11,0,.06,0,.05,0,.21.1.06,0,0,0,.1.06.1.06.09.06a2.94,2.94,0,0,1,.69.63,2.56,2.56,0,0,1,.44.81,2.5,2.5,0,0,1,.15.9,2.67,2.67,0,0,1-.57,1.66L166,810l-.08.09-.16.15-.08.07-.09.07-.09.06-.09.06a2.16,2.16,0,0,1-.81.27,2,2,0,0,1-.8-.08,1.85,1.85,0,0,1-.67-.38,1.8,1.8,0,0,0,2-.2l.06-.06.06-.06.06-.06,0-.07.09-.13a.43.43,0,0,0,0-.07l0-.07a2,2,0,0,0,.19-1.25,1.78,1.78,0,0,0-.56-1,2.05,2.05,0,0,0-1-.46A2.13,2.13,0,0,0,163,807l-.12,0-.13.06-.12.07-.11.08-.06,0,0,.05-.1.08-.09.1-.05,0a.21.21,0,0,0,0,.06l-.09.1-.07.11a1.38,1.38,0,0,0-.14.24,3,3,0,0,0-.2.52,2.55,2.55,0,0,0-.06,1.06,2.28,2.28,0,0,0,.36,1,2.31,2.31,0,0,0,.69.7l0,0,0,0h0l.12.07.12.06.12,0a3.05,3.05,0,0,0,.51.17,3.3,3.3,0,0,0,1,.07,3.08,3.08,0,0,0,1-.26,3.48,3.48,0,0,0,.85-.56c.12-.12.23-.24.34-.37l.07-.1.07-.11.07-.11a.75.75,0,0,0,.07-.12,4,4,0,0,0,.55-2,4.41,4.41,0,0,0-.14-1,3.55,3.55,0,0,0-1-1.73,3.79,3.79,0,0,0-.38-.32l-.22-.15-.24-.14a5.29,5.29,0,0,0-1-.43,4.94,4.94,0,0,0-1.07-.21,5.51,5.51,0,0,0-2.17.28,5.33,5.33,0,0,0-1.87,1.12,4.7,4.7,0,0,0-.72.82,6.89,6.89,0,0,0-.6,1,6.77,6.77,0,0,0-.67,2.23,7,7,0,0,0,.11,2.32A8.38,8.38,0,0,0,158,813a8.23,8.23,0,0,0,.53,1,6.76,6.76,0,0,0,1.55,1.71l.11.09.06.05.06,0,.26.18.06,0,.07,0,.13.08.13.08.07,0,.06,0,.27.15.14.07.14.07c.18.1.38.17.56.25l.3.11.14.06.15,0,.3.1.3.08.15,0,.15,0a2.84,2.84,0,0,0,.31.06l.31,0,.07,0h.08l.16,0c.21,0,.42,0,.63.05h.63a10.88,10.88,0,0,0,1.27-.11l.31-.06.32-.06.15,0,.16,0,.31-.08a12.5,12.5,0,0,0,1.21-.45l.3-.14.14-.06.15-.08.28-.16.28-.16L171,816l.27-.18.26-.19.07-.05.06,0,.13-.11a5.15,5.15,0,0,0,.5-.43l.24-.23.23-.23.23-.25.21-.25c.15-.16.28-.35.42-.53l.1-.14.1-.14.2-.29.18-.29.18-.29a1.19,1.19,0,0,0,.09-.15l.08-.15.17-.3c.1-.21.21-.41.3-.62.77-1.68,1.28-1.06.4-2.52C175.93,809.34,175.94,809.6,177.11,811.31Z" />
  </g>
  <g id="MemoryPower">
    <path class="cls-38"
      d="M184.27,654.13l1.52-2,.7,2.38-.1-2.36,2.16,1.58-1.89-1.93,3,.32-2.82-.68,2.54-1.15-2.68.75,1.13-2.1-1.64,1.92-.58-2.26.08,2.29-2.14-1.51,1.75,1.89-2.84-.28,2.79.66-2.51,1.17,2.7-.95Z" />
    <path class="cls-39"
      d="M182.05,655.2l3.73-2.9,2.45,3.75-1.81-3.92,4.72-.59-4.85,0,.47-3.62-1.14,3.56-4.48-1.3,4.13,1.79Z" />
    <ellipse class="cls-40" cx="186.14" cy="651.32" rx="2.08" ry="1.69" />
    <path class="cls-41"
      d="M148.24,675.84l1.52-2,.71,2.38-.11-2.37,2.16,1.59-1.89-1.94,3,.32-2.83-.67,2.54-1.16-2.68.75,1.14-2.09-1.65,1.92-.58-2.27.09,2.29-2.14-1.51,1.75,1.9-2.85-.28,2.79.66-2.51,1.16,2.71-.94Z" />
    <path class="cls-42"
      d="M146,676.91l3.73-2.89,2.45,3.75-1.81-3.92,4.72-.6-4.85,0,.47-3.61-1.13,3.56-4.49-1.3,4.13,1.78Z" />
    <ellipse class="cls-43" cx="150.11" cy="673.04" rx="2.08" ry="1.69" />
    <path class="cls-44"
      d="M171.3,688.39l1.52-2,.7,2.38-.1-2.37,2.16,1.59L173.69,686l3,.32-2.82-.67,2.54-1.15-2.68.74,1.13-2.09-1.64,1.92-.58-2.27.08,2.29-2.14-1.51,1.75,1.9-2.84-.28,2.78.66-2.5,1.17,2.7-.95Z" />
    <path class="cls-45"
      d="M169.08,689.46l3.73-2.89,2.45,3.75-1.82-3.92,4.73-.6-4.85,0,.47-3.61-1.14,3.56-4.48-1.3,4.13,1.78Z" />
    <ellipse class="cls-46" cx="173.17" cy="685.59" rx="2.08" ry="1.69" />
    <path class="cls-47"
      d="M212,631.92l1.53-2,.7,2.38-.11-2.37,2.16,1.59-1.89-1.94,3,.32-2.83-.67,2.55-1.16-2.69.75,1.14-2.09-1.64,1.92-.59-2.27.09,2.29-2.14-1.51L213,629l-2.84-.28,2.78.66-2.5,1.16,2.7-.94Z" />
    <path class="cls-48"
      d="M209.8,633l3.74-2.89,2.44,3.75-1.81-3.92,4.73-.6-4.85,0,.47-3.61-1.14,3.56L208.9,628l4.13,1.78Z" />
    <ellipse class="cls-49" cx="213.9" cy="629.12" rx="2.08" ry="1.69" />
    <path class="cls-50"
      d="M179.27,712.57l1.52-2,.7,2.38-.1-2.37,2.16,1.59-1.89-1.94,3,.32-2.82-.67,2.54-1.16-2.68.75,1.13-2.09-1.64,1.92-.58-2.27.08,2.29-2.13-1.51,1.75,1.9-2.85-.28,2.79.66-2.51,1.16,2.7-.94Z" />
    <path class="cls-51"
      d="M177.05,713.64l3.73-2.89,2.45,3.75-1.81-3.92,4.72-.6-4.85,0,.47-3.61-1.14,3.56-4.48-1.3,4.13,1.78Z" />
    <ellipse class="cls-52" cx="181.14" cy="709.77" rx="2.08" ry="1.69" />
    <path class="cls-53"
      d="M200.36,703.53l1.53-2,.7,2.38-.11-2.36,2.16,1.58-1.89-1.93,3,.32-2.83-.68,2.55-1.15-2.69.75,1.14-2.1-1.64,1.92-.59-2.26.09,2.29-2.14-1.51,1.75,1.89-2.84-.28,2.78.66-2.5,1.17,2.7-.95Z" />
    <path class="cls-54"
      d="M198.14,704.6l3.74-2.9,2.44,3.75-1.81-3.92,4.73-.59-4.85,0,.47-3.62-1.14,3.56-4.48-1.3,4.13,1.79Z" />
    <ellipse class="cls-55" cx="202.24" cy="700.72" rx="2.08" ry="1.69" />
    <path class="cls-56"
      d="M207,654.13l1.53-2,.7,2.38-.11-2.36,2.16,1.58-1.89-1.93,3,.32-2.83-.68,2.55-1.15-2.69.75,1.14-2.1-1.64,1.92-.59-2.26.09,2.29-2.14-1.51,1.75,1.89L205.2,651l2.78.66-2.5,1.17,2.7-.95Z" />
    <path class="cls-57"
      d="M204.8,655.2l3.74-2.9,2.44,3.75-1.81-3.92,4.73-.59-4.85,0,.47-3.62-1.14,3.56-4.48-1.3,4.13,1.79Z" />
    <ellipse class="cls-58" cx="208.9" cy="651.32" rx="2.08" ry="1.69" />
    <path class="cls-59"
      d="M198.28,675.38l1.53-2,.7,2.38-.11-2.37,2.16,1.59L200.67,673l3,.32-2.83-.68,2.55-1.15-2.69.75,1.14-2.1-1.64,1.92-.59-2.27.09,2.29-2.14-1.5,1.75,1.89-2.85-.28,2.79.66-2.5,1.17,2.7-.95Z" />
    <path class="cls-60"
      d="M196.06,676.45l3.74-2.89,2.44,3.75-1.81-3.92,4.73-.59-4.85,0,.47-3.62-1.14,3.56-4.48-1.3,4.13,1.79Z" />
    <ellipse class="cls-61" cx="200.16" cy="672.58" rx="2.08" ry="1.69" />
    <path class="cls-62"
      d="M238.91,633.91a109.31,109.31,0,0,0-14.16-6.41c-8.42-2.49-30.15-3.85-44.53-3.22-7.59.34-27.66,2.66-29.49,3.2-6.23,1.87-7.58,2.59-9.61,3.85a72.28,72.28,0,0,0,.46,44.43c7.42,22.17,30,55.39,53.48,54.72,23.95-.69,39.91-36.29,44.59-53.29A76.91,76.91,0,0,0,238.91,633.91Z" />
    <g class="cls-63">
      <path class="cls-4"
        d="M142.9,635.46c17.24-4.1,35.07-5,52.72-4.34,7.81.29,16,.45,23.62,2.22,3.16.74,7.53,2,8.54,4.77a11.49,11.49,0,0,1-.15,5.57,19.69,19.69,0,0,1-10.92,10.09c-3.55,1.24-7.61.91-11.32,1.13-4.86.29-9.72.65-14.59.71-6.15.07-15.36.76-20.65-3.17-1.73-1.28-1.58-1.28.54-1.56a47.59,47.59,0,0,1,7.06-.37,96.9,96.9,0,0,1,14.13,1.09c8.12,1.25,16.34,3.5,23.32,7.94a38.88,38.88,0,0,1,8.69,7.43c.87,1,1.48,2.3,2.35,3.26.22.24.28.87.51,1.06-.76-.62,1.67-1.56-.14-.75-2.32,1-4,3.44-6.51,4.34a66.69,66.69,0,0,1-8.53,1.82c-8.29,1.7-16.6,4.38-25,5.36-4.72.56-8.95-.15-13.58-.8l-.82-.32c-.63-.53-1.1-.43-1.43.32l-.6.64a4.9,4.9,0,0,1,2-.93,16.58,16.58,0,0,1,7.25-.41c7.53.82,13.69,4.2,20.69,6.6,6.27,2.14,12.07,3.91,15.94,9.62.63.92,0,.54.65-.12a2.52,2.52,0,0,1-1.1.45,32.94,32.94,0,0,0-4.3,1.07c-3.1.8-6.28,1.71-9.3,2.78-3.59,1.28-6.76,3.07-10.54,3.85a48.45,48.45,0,0,1-14.62.6c-1.59-.17-4.49-1.5-5.88-1.32l-.62-.26.93,1.89c.3.15,3.9-.4,4.71-.32,4.71.47,9.39,2.58,13.46,4.9a31.14,31.14,0,0,1,5.38,3.63,17.89,17.89,0,0,1,2.18,2.33c-.16-.2.34-2-.15-1.1a21.5,21.5,0,0,1-5.5,6.46c-4.86,3.6-.13,11.85,4.79,8.2,5.84-4.33,13.42-12.18,8.26-19.5-6.05-8.58-20.79-15-31.12-14.49-4.58.22-10.51,2.15-12.1,7s2.49,8.62,6.62,10.22c9.87,3.85,23.66,2.85,33.26-1.33a91.17,91.17,0,0,1,12.33-4.27c3.74-1,7.87-1.53,10.54-4.66,6.75-7.91-4.55-17.8-11-21-4.26-2.09-8.91-3-13.25-4.87-5.5-2.36-10.58-4.43-16.6-5.42-7-1.15-26.86.27-21.21,12.53,4.78,10.35,23.08,8.2,31.84,6.4,6.31-1.31,12.55-3,18.87-4.28,4.33-.89,9-1.36,13-3.36,3.39-1.69,7.66-4.54,9.69-7.85s.63-7.27-1.35-10.42c-5.78-9.22-16-15.41-26-18.85-11.5-3.94-26-6.24-38.13-4.24C158.14,643.37,155.79,655,165.9,661c9.64,5.68,23.31,4.37,34,3.76,11.12-.64,21.49-.17,30-8.38,10.54-10.14,10.58-26-4.62-31.2-12.3-4.19-27.17-3.74-40-3.71a195.73,195.73,0,0,0-44.88,4.85c-5.94,1.42-3.43,10.58,2.52,9.16Z" />
    </g>
    <g class="cls-64">
      <path class="cls-65" d="M217.4,626.8c0,15.63.19,32.75.19,48.38,0,11.53-9.18,30.31,5.76,34.59" />
      <path class="cls-4"
        d="M219.12,626.8c0,3.64,0,7.27.07,10.9l.24,10.9c.17,7.26.44,14.53.75,21.79l.12,2.73.06,1.36,0,.68,0,.76a51.5,51.5,0,0,1-.39,5.81c-.43,3.73-1,7.3-1.29,10.74s-.18,6.77.8,9a5.48,5.48,0,0,0,2,2.4,8,8,0,0,0,3.21,1.17l-2.7,9.43a18,18,0,0,1-6.41-3.77,14.16,14.16,0,0,1-4-6.6,21.11,21.11,0,0,1-.69-6.65,40.94,40.94,0,0,1,.71-5.93c.71-3.77,1.64-7.31,2.34-10.75a37.27,37.27,0,0,0,.76-5l.21-5.37c.25-7.26.46-14.53.58-21.79l.15-10.9c0-3.63,0-7.26,0-10.9Z" />
    </g>
    <g class="cls-64">
      <path class="cls-66" d="M174.35,624.9q-3.49,34.41-7,68.83c-.42,4.14-1,9.82-9,11.72" />
      <path class="cls-4"
        d="M177.24,625.19c-.82,7.06-1.36,14.15-1.81,21.25-.23,3.55-.4,7.11-.59,10.66s-.32,7.11-.43,10.67c-.22,7.13-.4,14.25-.41,21.4,0,1.78,0,3.57,0,5.36a25.21,25.21,0,0,1-1,7,16.77,16.77,0,0,1-5.19,7.86,22.24,22.24,0,0,1-7.56,4.05l-3.82-16.05a12.31,12.31,0,0,0,2.11-.25,1.22,1.22,0,0,0,1-.62,9.1,9.1,0,0,0,1.07-3.4c.36-1.74.75-3.49,1.09-5.24,1.43-7,2.69-14,3.9-21,.61-3.51,1.16-7,1.74-10.54s1.08-7,1.56-10.56c1-7,1.89-14.09,2.52-21.18Z" />
    </g>
    <g class="cls-64">
      <line class="cls-67" x1="196.58" y1="627.41" x2="194.3" y2="711.6" />
      <path class="cls-4"
        d="M200.09,627.5c-.3,7-.29,14-.17,21.06,0,3.51.17,7,.26,10.54l.44,10.54.61,10.55c.26,3.52.47,7,.79,10.55.58,7,1.27,14.08,2.28,21.13a10.15,10.15,0,1,1-20-.54c1.38-7,2.46-14,3.42-21,.51-3.5.9-7,1.36-10.5l1.17-10.5,1-10.5c.28-3.5.62-7,.84-10.51.5-7,.88-14,1-21a3.52,3.52,0,0,1,7,.08Z" />
    </g>
    <path class="cls-68"
      d="M143.72,638.74a77.78,77.78,0,0,1-.41,33.77l92.64,1.9c-1-9.12-.45-7.77,0-18.09.35-7.93-1.1-10.17-.88-18.09-10.08,1.34-34.36,3.77-49.15,3.87C169.69,642.22,154.46,640.13,143.72,638.74Z" />
    <path class="cls-69"
      d="M237.65,636.88a5.73,5.73,0,0,0,2.49-2.06,1.9,1.9,0,0,0-.21-2.15,7.74,7.74,0,0,0-3-2.11,33.73,33.73,0,0,0-5.55-2,119,119,0,0,0-17.88-3.07c-3.6-.39-7.47-.69-11.47-.92-1-.06-2-.12-3.06-.16l-1.57-.07-1.59,0-1.6-.05-1.62,0c-1.08,0-2.16,0-3.25,0-4.35,0-8.73.06-13,.25l-1.59.08c-.53,0-1,.06-1.57.09l-3.09.2-1.52.12-.75.06-.74.07-1.48.14-1.44.14c-7.63.81-14.08,2-18.27,3.46-.5.18-1,.37-1.46.55l-.34.14-.33.14-.6.29-.14.07-.14.07-.26.15-.25.15-.13.07-.11.07-.44.3-.11.07-.09.08-.19.15a2.38,2.38,0,0,0-.84,1.27,1.63,1.63,0,0,0,.38,1.27c1.28,1.7,5.92,3.29,12.84,4.44,3.46.58,7.46,1,11.79,1.37,2.16.16,4.39.29,6.66.39s4.82.14,7.26.15c4.89,0,9.78-.19,14.2-.56a96.59,96.59,0,0,0,11.55-1.58,37.85,37.85,0,0,0,4.11-1.09,13.24,13.24,0,0,0,2.73-1.22c.17-.11.31-.22.45-.32a3.92,3.92,0,0,0,.36-.33,1.38,1.38,0,0,0,.37-.69c.09-.46-.2-.92-.78-1.37-1.2-.89-3.73-1.71-7.2-2.36a97.61,97.61,0,0,0-12.63-1.33l-.89,0-.91,0-.94,0-1,0c-1.27,0-2.56,0-3.83,0-2.55,0-5.05.15-7.37.33s-4.45.43-6.29.74a30.25,30.25,0,0,0-4.55,1.07,10.32,10.32,0,0,0-1.45.62,4.06,4.06,0,0,0-.51.32l-.19.16,0,0,0,.05-.08.08c-.38.47-.23.94.47,1.39a11.4,11.4,0,0,0,3.46,1.2,47.33,47.33,0,0,0,5.74.83c2.2.19,4.51.3,7.06.31h1.87l.91,0,.46,0,.44,0,.89-.05.86-.06.83-.07.8-.08c.51-.06,1-.11,1.5-.18l.69-.11.66-.11.6-.12.29-.06.15,0,.13,0,.51-.13.12,0,.12,0,.22-.07.21-.07.11,0,.09,0,.36-.15.08,0,.07,0,.14-.08.13-.07a.62.62,0,0,0,.12-.08c.27-.2.43-.43.37-.64s-.33-.43-.76-.63a9,9,0,0,0-1.78-.53,35,35,0,0,0-5.63-.6l-.4,0H184l-.4,0c-1.05,0-2,.12-2.88.23a14,14,0,0,0-2,.4,1.69,1.69,0,0,0-.92.51,11.29,11.29,0,0,1,3.59-.72c.8-.06,1.64-.09,2.47-.1h.92l.31,0,.58,0,.29,0,.29,0a17.44,17.44,0,0,1,3.57.56c.78.24,1.08.52.91.78a3.45,3.45,0,0,1-1.73.72,22.84,22.84,0,0,1-3.37.45c-.16,0-.33,0-.49,0l-.49,0-.49,0h-2.94l-.47,0-1-.06c-.65,0-1.27-.11-1.83-.18a17.86,17.86,0,0,1-2.79-.53,2.9,2.9,0,0,1-1.35-.66c-.18-.23-.1-.46.23-.68l.07,0,0,0,0,0,.16-.09.19-.09.21-.08a9.43,9.43,0,0,1,1-.32,24.56,24.56,0,0,1,2.72-.52c1-.14,2.21-.25,3.42-.32s2.47-.1,3.71-.09c.61,0,1.23,0,1.83,0l.46,0,.44,0,.48,0,.49,0a45.41,45.41,0,0,1,6.52.81,16.29,16.29,0,0,1,2.14.6,3.69,3.69,0,0,1,1.19.68.57.57,0,0,1,.17.69,1.12,1.12,0,0,1-.29.35c-.08.05-.13.11-.24.17l-.31.18a10.48,10.48,0,0,1-1.74.69,22.82,22.82,0,0,1-2.46.6,60.68,60.68,0,0,1-6.68.85c-2.51.2-5.21.29-7.9.28-1.35,0-2.69,0-4-.1s-2.81-.14-4.15-.25c-2.69-.2-5.14-.49-7.29-.85a34.06,34.06,0,0,1-5.36-1.25,13.43,13.43,0,0,1-1.76-.73,3.8,3.8,0,0,1-1-.78,1.14,1.14,0,0,1-.33-.79,1.34,1.34,0,0,1,.42-.8l.1-.1,0,0,.07,0,.27-.21.07,0,.08-.05.17-.11.16-.1.08,0,.1,0,.38-.2a1.36,1.36,0,0,1,.21-.1l.22-.1c.27-.13.62-.26.94-.39.16-.07.36-.13.53-.19l.27-.1.3-.09.59-.18.64-.18.32-.09.35-.09.69-.17.73-.17.19,0,.19,0,.39-.08,1.61-.32.86-.15.43-.07.45-.07c1.18-.19,2.47-.36,3.78-.53l1-.11,1-.11.51-.06.53-.05,1.07-.1c1.44-.12,2.93-.23,4.44-.32l1.15-.06.58,0,.58,0,1.17-.05,1.19,0,1.19,0,1.19,0,1.21,0H193l1.21,0,1.22,0,1.22,0,2.47.09.62,0,.62,0,1.23.06,1.22.06,1.22.07.6,0,.6,0,1.21.08,2.36.18a142.44,142.44,0,0,1,16.55,2.27,57.19,57.19,0,0,1,6.1,1.59l.33.11.31.1.61.22.57.23.56.22.5.23.49.24.44.23c.15.08.3.16.42.24C237.85,634.11,238.51,635.49,237.65,636.88Z" />
    <path class="cls-70"
      d="M214.21,685.81l8.92-12.12,4.11,14.2q-.31-7-.62-14.11l12.63,9.45-11.06-11.52,17.47,1.91-16.54-4,14.9-6.87-15.71,4.46q3.31-6.24,6.65-12.48l-9.62,11.42q-1.71-6.75-3.41-13.5.25,6.82.5,13.65l-12.51-9,10.24,11.3-16.65-1.68,16.3,3.94-14.66,6.95L221,672.14Z" />
    <path class="cls-71"
      d="M201.23,692.19l21.83-17.25,14.32,22.35-10.6-23.35,27.64-3.55L226,670.22q1.38-10.79,2.75-21.56-3.31,10.62-6.64,21.22l-26.23-7.75,24.17,10.65Z" />
    <ellipse class="cls-72" cx="225.17" cy="669.1" rx="12.17" ry="10.08" />
    <path class="cls-73"
      d="M133.63,648.82l10.17-11.25q2.35,6.58,4.69,13.17-.35-6.54-.7-13.08l14.41,8.76-12.62-10.68,19.93,1.77-18.87-3.74,17-6.37-17.93,4.14L157.3,620l-11,10.59q-2-6.27-3.89-12.52l.57,12.65-14.27-8.33,11.68,10.48-19-1.56,18.6,3.66-16.73,6.44,18.06-5.24Z" />
    <path class="cls-74"
      d="M118.81,654.73l24.91-16,16.35,20.72Q154,648.63,148,637.8l31.54-3.28-32.39-.16,3.15-20-7.59,19.68-29.93-7.19,27.58,9.87Z" />
    <ellipse class="cls-75" cx="146.13" cy="633.32" rx="13.89" ry="9.35" />
  </g>
</svg>