<?xml version="1.0" encoding="utf-8"?>
<!-- Generator: Adobe Illustrator 23.0.3, SVG Export Plug-In . SVG Version: 6.00 Build 0)  -->
<svg version="1.1" xmlns="http://www.w3.org/2000/svg" xmlns:xlink="http://www.w3.org/1999/xlink" x="0px" y="0px"
	 viewBox="0 0 186.5 183.98" style="enable-background:new 0 0 186.5 183.98;" xml:space="preserve">
<style type="text/css">
	.st0{display:none;}
	.st1{fill:#FF4BBD;}
	.st2{fill:#FFFFFF;}
	.st3{fill:none;}
	.st4{fill:#272425;stroke:#272425;stroke-miterlimit:10;}
	.st5{font-family:'Geneva';}
	.st6{font-size:29px;}
	.st7{font-size:19px;}
	.st8{fill:none;stroke:#FF4BBD;stroke-width:1.5;stroke-linecap:round;stroke-miterlimit:10;}
	.st9{fill:#231F20;}
	.st10{font-size:9.5946px;}
	.st11{fill:none;stroke:#231F20;stroke-miterlimit:10;}
	.st12{fill:none;stroke:#00C2FF;stroke-width:1.5;stroke-linecap:round;stroke-miterlimit:10;}
	.st13{fill:none;stroke:#00C2FF;stroke-linecap:round;stroke-miterlimit:10;}
	.st14{fill:#FFFF00;stroke:#000000;stroke-width:0.25;stroke-miterlimit:10;}
	.st15{fill:#FFFF00;}
</style>
<g id="Layer_2" class="st0">
</g>
<g id="Layer_1">
	<rect class="st1" width="183.98" height="183.98"/>
	<rect x="21.33" y="22.54" class="st2" width="141.32" height="141.32"/>
	<rect x="26.13" y="27.7" class="st3" width="160.37" height="40.27"/>
	<text transform="matrix(0.8707 0 0 1 26.1257 50.5508)" class="st4 st5 st6">ENERGIZED</text>
	<rect x="47.15" y="132.17" class="st3" width="93.32" height="22.06"/>
	<text transform="matrix(0.8707 0 0 1 47.1463 147.1414)" class="st4 st5 st7">“IT’S FUN!”</text>
	<line class="st8" x1="55.6" y1="64.51" x2="54.88" y2="102.57"/>
	<rect x="57.27" y="108.38" class="st3" width="66.71" height="9.44"/>
	<text transform="matrix(1.163 0 0 1 57.2667 115.9445)" class="st9 st5 st10"> THE BIBLE</text>
	<text transform="matrix(1.163 0 0 1 57.2667 115.9445)" class="st11 st5 st10"> THE BIBLE</text>
	<path class="st12" d="M89.96,99.56c0-4.74-3.93-8.58-8.79-8.58c-3.88,0-7.03,3.07-7.03,6.86c0,3.03,2.52,5.49,5.62,5.49
		c2.48,0,4.5-1.97,4.5-4.39c0-1.94-1.61-3.51-3.6-3.51c-1.59,0-2.88,1.26-2.88,2.81c0,1.24,1.03,2.25,2.3,2.25
		c1.02,0,1.84-0.81,1.84-1.8c0-0.76-0.8-1.5-1.47-1.44c-0.26,0.02-0.69,0.19-0.8,0.58c-0.1,0.38,0.17,0.72,0.21,0.77"/>
	<path class="st12" d="M89.96,99.56c0.03,1.26,0.06,2.52,0.09,3.77"/>
	<path class="st12" d="M90.1,99.56c0-4.74,4-8.58,8.94-8.58c3.95,0,7.15,3.07,7.15,6.86c0,3.03-2.56,5.49-5.72,5.49
		c-2.53,0-4.58-1.97-4.58-4.39c0-1.94,1.64-3.51,3.66-3.51c1.62,0,2.93,1.26,2.93,2.81c0,1.24-1.05,2.25-2.34,2.25
		c-1.04,0-1.88-0.81-1.88-1.8c0-0.76,0.82-1.5,1.5-1.44c0.27,0.02,0.7,0.19,0.81,0.58c0.1,0.38-0.17,0.72-0.21,0.77"/>
	<path class="st13" d="M90.1,99.56c-0.03,1.26-0.06,2.52-0.09,3.77"/>
	<path class="st8" d="M61.39,83.29c6.13,0.28,11.32-5.08,11.59-11.96c0.22-5.51-3.57-10.15-8.48-10.37
		c-3.92-0.18-7.24,3.25-7.42,7.65c-0.14,3.52,2.29,6.5,5.42,6.64c2.51,0.11,4.63-2.08,4.75-4.9c0.09-2.25-1.46-4.16-3.47-4.25
		c-1.61-0.07-2.97,1.33-3.04,3.13c-0.06,1.44,0.94,2.66,2.22,2.72c0.99,0.05,1.99-1.05,1.94-2.01c-0.02-0.37-0.21-0.99-0.71-1.16
		c-0.49-0.17-0.95,0.2-1,0.25"/>
	<path class="st8" d="M61.06,83.44c-1.63-0.03-3.26-0.06-4.89-0.09"/>
	<path class="st8" d="M61.38,83.49c6.13,0.28,10.86,6.18,10.58,13.19c-0.22,5.6-4.38,9.97-9.28,9.74c-3.92-0.18-6.96-3.96-6.77-8.44
		c0.14-3.59,2.81-6.38,5.94-6.23c2.51,0.11,4.45,2.53,4.34,5.4c-0.09,2.29-1.79,4.08-3.8,3.99c-1.61-0.07-2.85-1.62-2.77-3.46
		c0.06-1.47,1.15-2.61,2.43-2.55c0.99,0.05,1.9,1.25,1.78,2.21c-0.05,0.38-0.28,0.98-0.8,1.12c-0.5,0.12-0.93-0.29-0.98-0.34"/>
	<line class="st12" x1="76.36" y1="104.2" x2="104.85" y2="104.24"/>
	<rect x="72.09" y="66.31" class="st3" width="36.22" height="10.27"/>
	<text transform="matrix(1.163 0 0 1 72.086 73.8751)" class="st9 st5 st10"> Y THE</text>
	<text transform="matrix(1.163 0 0 1 72.086 73.8751)" class="st11 st5 st10"> Y THE</text>
	<path class="st14" d="M118.89,84.86c-2.42,0-4.93-0.52-7.48-1.55c-0.46-0.19-0.67-0.7-0.48-1.15c0.19-0.45,0.71-0.66,1.16-0.48
		c3.62,1.47,7.11,1.8,10.37,0.98c0.77-0.19,1.56-0.39,2.5-0.94c4.87-2.81,6.19-8.13,5.55-10.84c-0.43-1.82-1.52-3.32-2.98-4.13
		c-1.26-0.7-2.71-0.83-4.08-0.38c-2.44,0.81-3.89,3.73-3.24,6.51c0.25,1.08,0.89,1.97,1.75,2.44c0.73,0.4,1.56,0.48,2.35,0.22
		c1.41-0.46,2.25-2.17,1.86-3.8c-0.14-0.6-0.49-1.1-0.97-1.36c-0.27-0.15-0.71-0.29-1.25-0.12c-0.74,0.24-1.19,1.19-0.98,2.06
		c0.06,0.28,0.29,0.55,0.57,0.68c0.17,0.08,0.3,0.08,0.35,0.07c0.05-0.02,0.22-0.14,0.22-0.27c0-0.13-0.15-0.26-0.15-0.26
		c-0.37-0.31-0.43-0.86-0.12-1.24c0.31-0.37,0.86-0.44,1.24-0.13c0.19,0.15,0.81,0.71,0.81,1.62c0,0.91-0.63,1.6-1.26,1.88
		c-0.56,0.25-1.24,0.22-1.87-0.09c-0.77-0.37-1.33-1.07-1.52-1.86c-0.42-1.78,0.53-3.59,2.15-4.13c0.9-0.3,1.85-0.21,2.68,0.25
		c0.91,0.5,1.58,1.41,1.83,2.49c0.59,2.49-0.77,5.12-3.03,5.86c-1.27,0.42-2.62,0.3-3.79-0.35c-1.3-0.72-2.25-2.02-2.62-3.58
		c-0.86-3.64,1.12-7.5,4.41-8.58c1.85-0.61,3.81-0.43,5.51,0.51c1.9,1.05,3.31,2.97,3.85,5.27c1.28,5.44-3.05,10.83-6.39,12.76
		c-1.16,0.67-2.12,0.91-2.96,1.12C121.59,84.69,120.26,84.86,118.89,84.86z"/>
	<path class="st14" d="M123,104.99c-0.12,0-0.25,0-0.37-0.01c-1.6-0.12-3.19-1.05-4.37-2.54c-1.33-1.68-1.94-3.81-1.62-5.7
		c0.39-2.31,2.08-4.22,4.11-4.66c2.2-0.47,5,0.79,5.65,3.43c0.47,1.92-0.47,3.53-0.58,3.71c-0.65,1.06-1.75,1.79-2.92,1.97
		c-0.95,0.14-1.85-0.1-2.54-0.68c-0.93-0.8-1.64-2.39-1.19-3.88c0.35-1.14,1.29-1.99,2.34-2.1c1.05-0.11,2.27,0.39,2.55,1.56
		c0.23,0.96-0.23,2.03-1.13,2.61c-0.41,0.27-0.96,0.15-1.23-0.25s-0.16-0.95,0.25-1.22c0.28-0.19,0.42-0.53,0.37-0.74
		c-0.05-0.19-0.47-0.23-0.62-0.21c-0.33,0.04-0.69,0.4-0.83,0.86c-0.25,0.81,0.24,1.7,0.65,2.04c0.36,0.31,0.8,0.32,1.1,0.27
		c0.65-0.1,1.3-0.54,1.68-1.15c0.01-0.01,0.68-1.13,0.37-2.37c-0.4-1.62-2.19-2.43-3.55-2.14c-1.29,0.28-2.47,1.67-2.73,3.23
		c-0.24,1.4,0.23,3.02,1.27,4.32c0.88,1.1,2.01,1.79,3.11,1.87c2.53,0.19,4.44-2.88,4.99-5.13c0.94-3.86-1.43-7.21-2.21-8.31
		c-2.04-2.88-4.73-3.78-6.89-4.5c-2.2-0.73-4.5-0.99-6.81-0.76c-0.49,0.05-0.93-0.31-0.98-0.79c-0.05-0.48,0.31-0.91,0.8-0.96
		c2.57-0.25,5.11,0.03,7.56,0.84c2.28,0.76,5.4,1.8,7.78,5.16c2.4,3.39,3.23,6.66,2.48,9.73c-0.39,1.6-1.22,3.2-2.26,4.38
		C125.98,104.26,124.53,104.99,123,104.99z"/>
	<path class="st14" d="M110.53,104.83c-0.01,0-0.01,0-0.02,0c-0.49-0.01-0.88-0.42-0.87-0.9l0.93-39.23
		c0.01-0.49,0.42-0.88,0.91-0.86c0.49,0.01,0.88,0.42,0.87,0.9l-0.93,39.23C111.41,104.45,111.02,104.83,110.53,104.83z"/>
	<g>
		<g>
			<path class="st15" d="M111.88,83.46c0.15-0.04-0.17,0.01-0.06,0.01c0.09,0-0.22-0.06-0.06,0c-0.04-0.01-0.16-0.09-0.07-0.03
				c0.15,0.11-0.15-0.14-0.02-0.01c0.32,0.33,0.94,0.34,1.26,0c0.33-0.36,0.35-0.89,0-1.25c-0.4-0.41-0.98-0.55-1.53-0.42
				c-0.45,0.11-0.77,0.64-0.62,1.08C110.93,83.31,111.39,83.57,111.88,83.46L111.88,83.46z"/>
		</g>
	</g>
	<g>
		<g>
			<path class="st15" d="M111.79,81.98c0.02,0,0.04,0.01,0.06,0.01c0.21,0.1,0.38-0.2,0.18-0.3c-0.05-0.02-0.09-0.04-0.14-0.05
				C111.66,81.61,111.56,81.95,111.79,81.98L111.79,81.98z"/>
		</g>
	</g>
	<g>
		<g>
			<path class="st15" d="M112.97,82.98c1.13-0.2,2.27,0.05,3.34,0.41c0.22,0.07,0.31-0.27,0.1-0.34c-1.14-0.38-2.34-0.62-3.53-0.41
				C112.65,82.68,112.74,83.02,112.97,82.98L112.97,82.98z"/>
		</g>
	</g>
	<g>
		<g>
			<path class="st15" d="M111.77,83.45c0.03,0.33-0.23,0.59-0.13,0.94c0.06,0.22,0.41,0.12,0.34-0.09
				c-0.04-0.14,0.02-0.28,0.07-0.42c0.05-0.14,0.09-0.28,0.07-0.43C112.11,83.23,111.75,83.23,111.77,83.45L111.77,83.45z"/>
		</g>
	</g>
	<g>
		<g>
			<path class="st15" d="M120.71,83.99c-0.31,0.03-0.61-0.01-0.89-0.14c-0.03,0.11-0.06,0.23-0.1,0.34
				c0.25,0.05,0.49,0.09,0.74,0.14c0.15,0.03,0.33-0.18,0.17-0.3c-1.16-0.89-2.93-0.98-4.34-1.06c-0.23-0.01-0.23,0.34,0,0.35
				c1.28,0.06,3.02,0.13,4.09,0.95c0.06-0.1,0.11-0.2,0.17-0.3c-0.25-0.05-0.49-0.09-0.74-0.14c-0.22-0.04-0.31,0.27-0.1,0.34
				c0.35,0.12,0.63,0.16,0.99,0.15C120.94,84.34,120.94,83.98,120.71,83.99L120.71,83.99z"/>
		</g>
	</g>
	<g>
		<g>
			<path class="st15" d="M120.75,84.33c0.31,0.08,0.62,0.19,0.91,0.31c0.21,0.08,0.31-0.25,0.1-0.34c-0.3-0.12-0.61-0.22-0.91-0.31
				C120.62,83.93,120.53,84.27,120.75,84.33L120.75,84.33z"/>
		</g>
	</g>
</g>
</svg>
