<svg id="Layer_1" data-name="Layer 1" xmlns="http://www.w3.org/2000/svg" xmlns:xlink="http://www.w3.org/1999/xlink" viewBox="0 0 491.6 500.35"><defs><style>.cls-1,.cls-16,.cls-19,.cls-2,.cls-5,.cls-6{fill:none;}.cls-2,.cls-29,.cls-3,.cls-5{stroke:#fff;}.cls-16,.cls-2,.cls-27,.cls-29,.cls-3,.cls-32,.cls-5{stroke-linecap:round;}.cls-16,.cls-19,.cls-2,.cls-20,.cls-21,.cls-22,.cls-25,.cls-26,.cls-27,.cls-29,.cls-3,.cls-30,.cls-32,.cls-5,.cls-6{stroke-miterlimit:10;}.cls-2,.cls-3{stroke-width:3px;}.cls-25,.cls-29,.cls-3,.cls-4{fill:#fff;}.cls-5{stroke-width:5px;}.cls-6{stroke:#00aeef;stroke-width:11px;}.cls-7{font-size:39px;font-family:Loopiejuice-Regular, Loopiejuice;}.cls-15,.cls-21,.cls-22,.cls-26,.cls-32,.cls-7,.cls-9{fill:#231f20;}.cls-8{letter-spacing:-0.1em;}.cls-9{font-size:17px;font-family:HelveticaNeue-Light, Helvetica Neue;font-weight:300;}.cls-10{letter-spacing:-0.02em;}.cls-11{letter-spacing:-0.09em;}.cls-12{clip-path:url(#clip-path);}.cls-13{clip-path:url(#clip-path-2);}.cls-14{fill:#f175ad;}.cls-16,.cls-19,.cls-20,.cls-21,.cls-22,.cls-25,.cls-26,.cls-27,.cls-30,.cls-32{stroke:#231f20;}.cls-16,.cls-19{stroke-width:1.35px;}.cls-17,.cls-20{fill:#fae0d4;}.cls-18{fill:#ba744a;}.cls-20{stroke-width:0.67px;}.cls-21{stroke-width:2.69px;}.cls-22{stroke-width:2.02px;}.cls-23,.cls-33{opacity:0.12;}.cls-23{fill:url(#New_Pattern_Swatch_1);}.cls-24{fill:#b4956d;}.cls-25,.cls-26,.cls-30,.cls-32{stroke-width:0.88px;}.cls-27{fill:#b88a6b;}.cls-27,.cls-29{stroke-width:0.44px;}.cls-28{fill:#b4976c;}.cls-30{fill:#b99671;}.cls-31{fill:#38c6f4;}.cls-33{fill:url(#New_Pattern_Swatch_1-5);}.cls-34{letter-spacing:-0.02em;}.cls-35{letter-spacing:0em;}.cls-36{letter-spacing:-0.07em;}</style><clipPath id="clip-path" transform="translate(-60.47 -146.1)"><polygon class="cls-1" points="399.41 324.59 539.27 319.92 532.59 168.93 394.34 174.82 399.41 324.59"/></clipPath><clipPath id="clip-path-2" transform="translate(-60.47 -146.1)"><polygon class="cls-1" points="443.79 157.96 498.21 156.15 499.69 193.37 445.28 195.19 443.79 157.96"/></clipPath><pattern id="New_Pattern_Swatch_1" data-name="New Pattern Swatch 1" width="210.66" height="107.59" patternTransform="matrix(0.2, 0.03, 0.03, -0.16, -79.34, 44.67)" patternUnits="userSpaceOnUse" viewBox="0 0 210.66 107.59"><rect class="cls-1" width="210.66" height="107.59"/><line class="cls-2" x1="3.54" y1="95.58" x2="209.16" y2="94.45"/><path class="cls-3" d="M105.49,94.75a140.6,140.6,0,0,1,103.67-.58"/><path class="cls-3" d="M3.56,95.34a130.74,130.74,0,0,1,101.73-1"/><path class="cls-4" d="M51.8,43.76a8.6,8.6,0,0,1,3.51,5.38,11.38,11.38,0,0,1-.63,6.47,10.67,10.67,0,0,1-4.32,5.06,14.51,14.51,0,0,1-6.31,2,14.9,14.9,0,0,1-6.65-.84,12.58,12.58,0,0,1-5.6-4.06,14.76,14.76,0,0,1-2.9-6.28,18.14,18.14,0,0,1,0-6.85,17.6,17.6,0,0,1,2.53-6.42,16.79,16.79,0,0,1,4.92-5,23.57,23.57,0,0,1,13-3.85,22.67,22.67,0,0,1,13.3,4,21.35,21.35,0,0,1,5,5.13,23.7,23.7,0,0,1,3.15,6.4,28,28,0,0,1,.59,14,29.81,29.81,0,0,1-2.2,6.67c-.25.54-.52,1.08-.82,1.6l-.44.79-.51.75a22.12,22.12,0,0,1-2.17,2.9A30.94,30.94,0,0,1,53.8,79.77a39.15,39.15,0,0,1-27.35.89l-1.69-.61c-.57-.21-1.11-.5-1.66-.75l-1.65-.79c-.53-.3-1.06-.6-1.59-.92a33.16,33.16,0,0,1-5.75-4.53A35,35,0,0,1,9.5,67.43a31.61,31.61,0,0,1-1.81-3.09c-.28-.54-.58-1.07-.83-1.62l-.72-1.67a39.93,39.93,0,0,1-2.94-14,46.39,46.39,0,0,1,1.57-14A43.81,43.81,0,0,1,10.58,20,41.17,41.17,0,0,1,20.69,9.53,51.36,51.36,0,0,1,46.77.22,59.82,59.82,0,0,1,73.61,4a49.38,49.38,0,0,1,6.21,3l1.49.88c.51.32,1,.65,1.49,1,1,.67,1.89,1.36,2.77,2.09a51.45,51.45,0,0,1,9.29,9.83,45.7,45.7,0,0,1,3.53,5.73c.25.5.53,1,.76,1.5l.67,1.52c.42,1,.93,2,1.26,3.05l1.08,3.07c.32,1,.6,2.06.9,3.08s.56,2.06.79,3.09.49,2,.68,3.09a145.1,145.1,0,0,1,2.4,24.71c0,2,0,4.1,0,6.14s-.09,4.09-.19,6.13q-.24,6.12-.88,12.2c-.75-8.11-1.72-16.16-3-24.1A161,161,0,0,0,97.4,46.79,79,79,0,0,0,93.08,36.1c-.38-.87-.9-1.63-1.35-2.44L91,32.47c-.23-.4-.5-.77-.75-1.15a43.26,43.26,0,0,0-11.38-11.4c-.74-.49-1.49-1-2.23-1.37-.37-.21-.74-.41-1.11-.59l-1.18-.56a37.83,37.83,0,0,0-4.93-1.85,46.68,46.68,0,0,0-21.08-1.42,45,45,0,0,0-19,7.43,29.06,29.06,0,0,0-3.77,3.1,28.61,28.61,0,0,0-3.22,3.58,34.1,34.1,0,0,0-2.6,4.11,32.94,32.94,0,0,0-2,4.63,34.69,34.69,0,0,0-1.33,4.92A33.32,33.32,0,0,0,15.89,47a27,27,0,0,0,1.42,9.8l.42,1.16c.15.38.34.73.5,1.11a22.06,22.06,0,0,0,1.13,2.22,23.71,23.71,0,0,0,2.87,3.93,21.83,21.83,0,0,0,3.61,3.19c.33.23.67.43,1,.66l1.07.58c.36.18.7.41,1.08.56l1.15.49a29.22,29.22,0,0,0,20.24.39,21.79,21.79,0,0,0,8.45-5.29,13.3,13.3,0,0,0,1.57-1.87l.38-.48.33-.52c.23-.34.43-.71.63-1.08a22,22,0,0,0,1.86-4.75A20.24,20.24,0,0,0,63.84,47a16.32,16.32,0,0,0-1.92-4.59,14.55,14.55,0,0,0-3.22-3.72,16.39,16.39,0,0,0-9.45-3.39,18,18,0,0,0-10.13,2.3,12.57,12.57,0,0,0-5.94,8.06,12.18,12.18,0,0,0,1.52,10,9.12,9.12,0,0,0,3.91,3.25,11.85,11.85,0,0,0,5.26,1c3.65-.06,7.39-1.78,9-5.09a9.71,9.71,0,0,0,.94-5.41,7.38,7.38,0,0,0-2.62-4.78"/><line class="cls-5" x1="2.5" y1="105.09" x2="208.12" y2="103.96"/><path class="cls-4" d="M160,43.76a8.6,8.6,0,0,0-3.51,5.38,11.38,11.38,0,0,0,.63,6.47,10.61,10.61,0,0,0,4.32,5.06,14.51,14.51,0,0,0,6.31,2,14.9,14.9,0,0,0,6.65-.84,12.58,12.58,0,0,0,5.6-4.06,14.76,14.76,0,0,0,2.9-6.28,18.14,18.14,0,0,0,0-6.85,17.78,17.78,0,0,0-2.53-6.42,16.71,16.71,0,0,0-4.93-5,23.52,23.52,0,0,0-13-3.85,22.67,22.67,0,0,0-13.3,4,21.35,21.35,0,0,0-5,5.13,23.7,23.7,0,0,0-3.15,6.4,27.89,27.89,0,0,0-.59,14,29.31,29.31,0,0,0,2.2,6.67,17.25,17.25,0,0,0,.82,1.6l.44.79.51.75a22.12,22.12,0,0,0,2.17,2.9A30.94,30.94,0,0,0,158,79.77a39.15,39.15,0,0,0,27.35.89l1.69-.61c.57-.21,1.11-.5,1.66-.75l1.64-.79c.53-.3,1.07-.6,1.59-.92a32.86,32.86,0,0,0,5.76-4.53,35,35,0,0,0,4.61-5.63,31.61,31.61,0,0,0,1.81-3.09c.27-.54.58-1.07.83-1.62l.71-1.67a39.72,39.72,0,0,0,3-14,46.39,46.39,0,0,0-1.57-14A43.81,43.81,0,0,0,201.21,20,41.17,41.17,0,0,0,191.1,9.53,51.36,51.36,0,0,0,165,.22,59.82,59.82,0,0,0,138.18,4,49.38,49.38,0,0,0,132,7l-1.49.88c-.51.32-1,.65-1.49,1-1,.67-1.89,1.36-2.77,2.09a51.14,51.14,0,0,0-9.29,9.83,45.7,45.7,0,0,0-3.53,5.73c-.25.5-.53,1-.76,1.5L112,29.56c-.42,1-.93,2-1.26,3.05l-1.08,3.07c-.32,1-.6,2.06-.9,3.08s-.56,2.06-.79,3.09-.49,2-.68,3.09a145.1,145.1,0,0,0-2.4,24.71c-.06,2,0,4.1,0,6.14s.09,4.09.19,6.13q.24,6.12.88,12.2c.75-8.11,1.72-16.16,3-24.1a161,161,0,0,1,5.46-23.23,79,79,0,0,1,4.32-10.69c.38-.87.9-1.63,1.35-2.44l.69-1.19c.23-.4.5-.77.75-1.15a43.26,43.26,0,0,1,11.38-11.4c.73-.49,1.49-1,2.23-1.37.37-.21.74-.41,1.11-.59l1.18-.56a37.83,37.83,0,0,1,4.93-1.85,46.67,46.67,0,0,1,21.08-1.42,45,45,0,0,1,19,7.43,28.49,28.49,0,0,1,3.78,3.1,28.61,28.61,0,0,1,3.22,3.58,34.1,34.1,0,0,1,2.6,4.11A32.94,32.94,0,0,1,194,37a32.74,32.74,0,0,1,1.88,10,26.83,26.83,0,0,1-1.43,9.8l-.41,1.16c-.15.38-.34.73-.5,1.11a22.16,22.16,0,0,1-1.14,2.22,23.1,23.1,0,0,1-2.86,3.93,21.5,21.5,0,0,1-3.62,3.19c-.32.23-.67.43-1,.66l-1.07.58c-.36.18-.7.41-1.08.56l-1.15.49a29.22,29.22,0,0,1-20.24.39A21.79,21.79,0,0,1,153,65.76a14.08,14.08,0,0,1-1.58-1.87l-.38-.48-.32-.52c-.23-.34-.43-.71-.63-1.08a22,22,0,0,1-1.87-4.75A20.35,20.35,0,0,1,148,47a16,16,0,0,1,1.92-4.59,14.71,14.71,0,0,1,3.21-3.72,16.45,16.45,0,0,1,9.45-3.39,18,18,0,0,1,10.14,2.3,12.6,12.6,0,0,1,5.94,8.06,12.18,12.18,0,0,1-1.52,10,9.12,9.12,0,0,1-3.91,3.25,11.87,11.87,0,0,1-5.27,1c-3.64-.06-7.38-1.78-9-5.09A9.62,9.62,0,0,1,158,49.4a7.33,7.33,0,0,1,2.62-4.78"/></pattern><pattern id="New_Pattern_Swatch_1-5" data-name="New Pattern Swatch 1" width="210.66" height="107.59" patternTransform="matrix(0.12, -0.03, 0.03, 0.11, -555.77, 79.14)" patternUnits="userSpaceOnUse" viewBox="0 0 210.66 107.59"><rect class="cls-1" width="210.66" height="107.59"/><line class="cls-2" x1="3.54" y1="95.58" x2="209.16" y2="94.45"/><path class="cls-3" d="M105.49,94.75a140.6,140.6,0,0,1,103.67-.58"/><path class="cls-3" d="M3.56,95.34a130.74,130.74,0,0,1,101.73-1"/><path class="cls-4" d="M51.8,43.76a8.6,8.6,0,0,1,3.51,5.38,11.38,11.38,0,0,1-.63,6.47,10.67,10.67,0,0,1-4.32,5.06,14.51,14.51,0,0,1-6.31,2,14.9,14.9,0,0,1-6.65-.84,12.58,12.58,0,0,1-5.6-4.06,14.76,14.76,0,0,1-2.9-6.28,18.14,18.14,0,0,1,0-6.85,17.6,17.6,0,0,1,2.53-6.42,16.79,16.79,0,0,1,4.92-5,23.57,23.57,0,0,1,13-3.85,22.67,22.67,0,0,1,13.3,4,21.35,21.35,0,0,1,5,5.13,23.7,23.7,0,0,1,3.15,6.4,28,28,0,0,1,.59,14,29.81,29.81,0,0,1-2.2,6.67c-.25.54-.52,1.08-.82,1.6l-.44.79-.51.75a22.12,22.12,0,0,1-2.17,2.9A30.94,30.94,0,0,1,53.8,79.77a39.15,39.15,0,0,1-27.35.89l-1.69-.61c-.57-.21-1.11-.5-1.66-.75l-1.65-.79c-.53-.3-1.06-.6-1.59-.92a33.16,33.16,0,0,1-5.75-4.53A35,35,0,0,1,9.5,67.43a31.61,31.61,0,0,1-1.81-3.09c-.28-.54-.58-1.07-.83-1.62l-.72-1.67a39.93,39.93,0,0,1-2.94-14,46.39,46.39,0,0,1,1.57-14A43.81,43.81,0,0,1,10.58,20,41.17,41.17,0,0,1,20.69,9.53,51.36,51.36,0,0,1,46.77.22,59.82,59.82,0,0,1,73.61,4a49.38,49.38,0,0,1,6.21,3l1.49.88c.51.32,1,.65,1.49,1,1,.67,1.89,1.36,2.77,2.09a51.45,51.45,0,0,1,9.29,9.83,45.7,45.7,0,0,1,3.53,5.73c.25.5.53,1,.76,1.5l.67,1.52c.42,1,.93,2,1.26,3.05l1.08,3.07c.32,1,.6,2.06.9,3.08s.56,2.06.79,3.09.49,2,.68,3.09a145.1,145.1,0,0,1,2.4,24.71c0,2,0,4.1,0,6.14s-.09,4.09-.19,6.13q-.24,6.12-.88,12.2c-.75-8.11-1.72-16.16-3-24.1A161,161,0,0,0,97.4,46.79,79,79,0,0,0,93.08,36.1c-.38-.87-.9-1.63-1.35-2.44L91,32.47c-.23-.4-.5-.77-.75-1.15a43.26,43.26,0,0,0-11.38-11.4c-.74-.49-1.49-1-2.23-1.37-.37-.21-.74-.41-1.11-.59l-1.18-.56a37.83,37.83,0,0,0-4.93-1.85,46.68,46.68,0,0,0-21.08-1.42,45,45,0,0,0-19,7.43,29.06,29.06,0,0,0-3.77,3.1,28.61,28.61,0,0,0-3.22,3.58,34.1,34.1,0,0,0-2.6,4.11,32.94,32.94,0,0,0-2,4.63,34.69,34.69,0,0,0-1.33,4.92A33.32,33.32,0,0,0,15.89,47a27,27,0,0,0,1.42,9.8l.42,1.16c.15.38.34.73.5,1.11a22.06,22.06,0,0,0,1.13,2.22,23.71,23.71,0,0,0,2.87,3.93,21.83,21.83,0,0,0,3.61,3.19c.33.23.67.43,1,.66l1.07.58c.36.18.7.41,1.08.56l1.15.49a29.22,29.22,0,0,0,20.24.39,21.79,21.79,0,0,0,8.45-5.29,13.3,13.3,0,0,0,1.57-1.87l.38-.48.33-.52c.23-.34.43-.71.63-1.08a22,22,0,0,0,1.86-4.75A20.24,20.24,0,0,0,63.84,47a16.32,16.32,0,0,0-1.92-4.59,14.55,14.55,0,0,0-3.22-3.72,16.39,16.39,0,0,0-9.45-3.39,18,18,0,0,0-10.13,2.3,12.57,12.57,0,0,0-5.94,8.06,12.18,12.18,0,0,0,1.52,10,9.12,9.12,0,0,0,3.91,3.25,11.85,11.85,0,0,0,5.26,1c3.65-.06,7.39-1.78,9-5.09a9.71,9.71,0,0,0,.94-5.41,7.38,7.38,0,0,0-2.62-4.78"/><line class="cls-5" x1="2.5" y1="105.09" x2="208.12" y2="103.96"/><path class="cls-4" d="M160,43.76a8.6,8.6,0,0,0-3.51,5.38,11.38,11.38,0,0,0,.63,6.47,10.61,10.61,0,0,0,4.32,5.06,14.51,14.51,0,0,0,6.31,2,14.9,14.9,0,0,0,6.65-.84,12.58,12.58,0,0,0,5.6-4.06,14.76,14.76,0,0,0,2.9-6.28,18.14,18.14,0,0,0,0-6.85,17.78,17.78,0,0,0-2.53-6.42,16.71,16.71,0,0,0-4.93-5,23.52,23.52,0,0,0-13-3.85,22.67,22.67,0,0,0-13.3,4,21.35,21.35,0,0,0-5,5.13,23.7,23.7,0,0,0-3.15,6.4,27.89,27.89,0,0,0-.59,14,29.31,29.31,0,0,0,2.2,6.67,17.25,17.25,0,0,0,.82,1.6l.44.79.51.75a22.12,22.12,0,0,0,2.17,2.9A30.94,30.94,0,0,0,158,79.77a39.15,39.15,0,0,0,27.35.89l1.69-.61c.57-.21,1.11-.5,1.66-.75l1.64-.79c.53-.3,1.07-.6,1.59-.92a32.86,32.86,0,0,0,5.76-4.53,35,35,0,0,0,4.61-5.63,31.61,31.61,0,0,0,1.81-3.09c.27-.54.58-1.07.83-1.62l.71-1.67a39.72,39.72,0,0,0,3-14,46.39,46.39,0,0,0-1.57-14A43.81,43.81,0,0,0,201.21,20,41.17,41.17,0,0,0,191.1,9.53,51.36,51.36,0,0,0,165,.22,59.82,59.82,0,0,0,138.18,4,49.38,49.38,0,0,0,132,7l-1.49.88c-.51.32-1,.65-1.49,1-1,.67-1.89,1.36-2.77,2.09a51.14,51.14,0,0,0-9.29,9.83,45.7,45.7,0,0,0-3.53,5.73c-.25.5-.53,1-.76,1.5L112,29.56c-.42,1-.93,2-1.26,3.05l-1.08,3.07c-.32,1-.6,2.06-.9,3.08s-.56,2.06-.79,3.09-.49,2-.68,3.09a145.1,145.1,0,0,0-2.4,24.71c-.06,2,0,4.1,0,6.14s.09,4.09.19,6.13q.24,6.12.88,12.2c.75-8.11,1.72-16.16,3-24.1a161,161,0,0,1,5.46-23.23,79,79,0,0,1,4.32-10.69c.38-.87.9-1.63,1.35-2.44l.69-1.19c.23-.4.5-.77.75-1.15a43.26,43.26,0,0,1,11.38-11.4c.73-.49,1.49-1,2.23-1.37.37-.21.74-.41,1.11-.59l1.18-.56a37.83,37.83,0,0,1,4.93-1.85,46.67,46.67,0,0,1,21.08-1.42,45,45,0,0,1,19,7.43,28.49,28.49,0,0,1,3.78,3.1,28.61,28.61,0,0,1,3.22,3.58,34.1,34.1,0,0,1,2.6,4.11A32.94,32.94,0,0,1,194,37a32.74,32.74,0,0,1,1.88,10,26.83,26.83,0,0,1-1.43,9.8l-.41,1.16c-.15.38-.34.73-.5,1.11a22.16,22.16,0,0,1-1.14,2.22,23.1,23.1,0,0,1-2.86,3.93,21.5,21.5,0,0,1-3.62,3.19c-.32.23-.67.43-1,.66l-1.07.58c-.36.18-.7.41-1.08.56l-1.15.49a29.22,29.22,0,0,1-20.24.39A21.79,21.79,0,0,1,153,65.76a14.08,14.08,0,0,1-1.58-1.87l-.38-.48-.32-.52c-.23-.34-.43-.71-.63-1.08a22,22,0,0,1-1.87-4.75A20.35,20.35,0,0,1,148,47a16,16,0,0,1,1.92-4.59,14.71,14.71,0,0,1,3.21-3.72,16.45,16.45,0,0,1,9.45-3.39,18,18,0,0,1,10.14,2.3,12.6,12.6,0,0,1,5.94,8.06,12.18,12.18,0,0,1-1.52,10,9.12,9.12,0,0,1-3.91,3.25,11.87,11.87,0,0,1-5.27,1c-3.64-.06-7.38-1.78-9-5.09A9.62,9.62,0,0,1,158,49.4a7.33,7.33,0,0,1,2.62-4.78"/></pattern></defs><title>TechDifficultiesPage</title><path class="cls-6" d="M545.68,640.17a2055,2055,0,0,0-478.94,0,2045.35,2045.35,0,0,0,14-259.07,2044,2044,0,0,0-14-219.87c76.92,5.3,159.16,8.4,246.16,8.24,82-.16,159.78-3.21,232.78-8.24a1818.64,1818.64,0,0,0,0,478.94Z" transform="translate(-60.47 -146.1)"/><text class="cls-7" transform="translate(182.1 147.72)">Horray!</text><text class="cls-9" transform="translate(152.37 167.59)"><tspan class="cls-10">W</tspan><tspan x="15.11" y="0">elcome to By the Book!</tspan><tspan class="cls-11" x="-3.31" y="20.4">Y</tspan><tspan x="5.51" y="20.4">ou now have an account!</tspan></text><g class="cls-12"><g class="cls-13"><g class="cls-13"><path class="cls-14" d="M498.37,160.27l-.36-.21c-8.64-3.55-14.86-3.68-18.94-3.14-8.57,1.12-11.4,5.67-19.72,6.38a30.59,30.59,0,0,1-15.47-3.14c9.34,6.44,12.75,17.66,13.6,20.71l0,.65,33.3-1.32,0-.45c.43-2.72,2.08-11.93,7.59-19.48" transform="translate(-60.47 -146.1)"/><path class="cls-14" d="M495.28,192.26,491,180.2h-.15l-33.3,1.32h-.17L451.82,195,467,194l7.84-.55,20.41-1.23" transform="translate(-60.47 -146.1)"/></g></g><path class="cls-15" d="M490.12,179.65a50.18,50.18,0,0,1,2.78-10.29,42.54,42.54,0,0,1,2.23-4.85,25.31,25.31,0,0,1,1.4-2.28,7.07,7.07,0,0,1,1.77-2,.09.09,0,0,1,.13,0,.08.08,0,0,1,0,.08h0a10.28,10.28,0,0,1-1.15,2.38c-.43.75-.81,1.53-1.21,2.3a45.89,45.89,0,0,0-2.06,4.78,53.81,53.81,0,0,0-2.57,10.08.68.68,0,0,1-.77.56A.67.67,0,0,1,490.12,179.65Z" transform="translate(-60.47 -146.1)"/><path class="cls-16" d="M443.38,159.93l.5.23a30.59,30.59,0,0,0,15.47,3.14c8.32-.71,11.15-5.26,19.72-6.38,4.08-.54,10.3-.41,18.94,3.14" transform="translate(-60.47 -146.1)"/><path class="cls-17" d="M531.83,236c-4.05-24.82-32.05-41.07-62.55-36.31s-51.95,28.75-47.9,53.56,32.05,41.07,62.55,36.31,51.95-28.75,47.9-53.56" transform="translate(-60.47 -146.1)"/><path class="cls-18" d="M515.07,276.6a16,16,0,0,1,7.68-4.55c5.49-1.43,12.47-.23,14.83,3.36C541,280.6,533,288.2,531,290.08c-8.19,7.8-23.14,13.34-28.23,9.51-3.8-2.86-2-10.84,3-15.66,4.16-4,12.44-7.63,17.29-4.9a7.08,7.08,0,0,1,2.94,8.4c-2.14,6.3-13.37,9.47-16.64,7.28-2.2-1.48-1.8-6.08,1.23-8.43,2.23-1.74,6.18-2.48,7.35-1.29,1.37,1.39-1,5.49-3.09,5.56-.37,0-1.13-.09-2-1.24" transform="translate(-60.47 -146.1)"/><path class="cls-19" d="M468.34,198.75l-.25-4.76a2.87,2.87,0,0,1,2.36-2.19,2.77,2.77,0,0,1,2.65,1.63c0,1.93,0,3.85,0,5.78" transform="translate(-60.47 -146.1)"/><path class="cls-15" d="M457.22,231.59a2.42,2.42,0,0,1-1.08-1.19,2.33,2.33,0,0,1,0-1.76,3.42,3.42,0,0,1,2.79-2,4,4,0,0,1,1.74.16,2.72,2.72,0,0,1,1.46,1.11,2.13,2.13,0,0,1,.24,1.78,2,2,0,0,1-1.1,1.18,1.77,1.77,0,0,0,0-2.34,2.59,2.59,0,0,0-2.18-.55,2.74,2.74,0,0,0-2,1.11A2.32,2.32,0,0,0,457.22,231.59Z" transform="translate(-60.47 -146.1)"/><path class="cls-15" d="M475.79,157.59l-.12-7.34c.33.2,5.22,3,8.29.64.87-.68,1.94-2,1.61-3-.48-1.37-3.57-1.52-5.67-1a9,9,0,0,0-4.27,2.44" transform="translate(-60.47 -146.1)"/><path class="cls-15" d="M475.3,157.49a18.4,18.4,0,0,0-.14-7.13l-.25-1.1,1,.53a10.88,10.88,0,0,0,5.32,1.43,4.18,4.18,0,0,0,2.44-.76,4,4,0,0,0,1.43-2,.72.72,0,0,0-.37-.75,3.33,3.33,0,0,0-1.16-.43,9,9,0,0,0-2.75,0,8.4,8.4,0,0,0-4.84,2.44.5.5,0,1,1-.71-.71h0a9.39,9.39,0,0,1,5.41-2.74,10.27,10.27,0,0,1,3.08,0,4.12,4.12,0,0,1,1.55.59,1.86,1.86,0,0,1,.65.73,1.65,1.65,0,0,1,.15,1,3.53,3.53,0,0,1-.7,1.54,6.05,6.05,0,0,1-1.1,1.16,5.21,5.21,0,0,1-3,1,12,12,0,0,1-5.86-1.54l.76-.57a18.42,18.42,0,0,1,.11,7.54.5.5,0,0,1-.6.39A.49.49,0,0,1,475.3,157.49Z" transform="translate(-60.47 -146.1)"/><path class="cls-15" d="M470.1,159.74c-.16-3.18-.33-6.36-.49-9.54-.33.17-5.2,2.63-8.56,1-.95-.47-2.15-1.45-1.88-2.2.4-1.07,3.71-1.33,5.8-1.13a9.76,9.76,0,0,1,4.61,1.6" transform="translate(-60.47 -146.1)"/><path class="cls-15" d="M469.45,160A16.13,16.13,0,0,1,469,150l.92.73a14.87,14.87,0,0,1-5.78,1.58,7,7,0,0,1-3.07-.52,5.38,5.38,0,0,1-1.37-.81,3,3,0,0,1-1.07-1.41,1.26,1.26,0,0,1,.25-1.19,2.41,2.41,0,0,1,.79-.56,6.41,6.41,0,0,1,1.52-.42,14.94,14.94,0,0,1,3-.16,10.59,10.59,0,0,1,5.7,1.78.5.5,0,0,1,.13.7.51.51,0,0,1-.7.13,9.63,9.63,0,0,0-5.16-1.54,14.84,14.84,0,0,0-2.76.18,5,5,0,0,0-1.24.36,1,1,0,0,0-.38.26c0,.07-.06.05,0,.15a2,2,0,0,0,.69.81,4.11,4.11,0,0,0,1.11.64,5.92,5.92,0,0,0,2.56.39,13.59,13.59,0,0,0,5.24-1.5l1.27-.63-.36,1.36a14.78,14.78,0,0,0,.52,9.13.7.7,0,0,1-1.3.51h0Z" transform="translate(-60.47 -146.1)"/><path class="cls-15" d="M494.81,191.14a25.37,25.37,0,0,1,6.61-6.89,30.85,30.85,0,0,1,8.43-4.22.37.37,0,0,1,.24.69,29.53,29.53,0,0,0-7.9,4.54,23.87,23.87,0,0,0-5.83,6.81.9.9,0,0,1-1.58-.88Z" transform="translate(-60.47 -146.1)"/><path class="cls-20" d="M512.51,182.45c1.85.53,3.53.59,3.73.12s-1.13-1.28-3-1.82-3.53-.59-3.74-.12S510.65,181.91,512.51,182.45Z" transform="translate(-60.47 -146.1)"/><path class="cls-15" d="M451.14,194.45a24.07,24.07,0,0,0-6.25-6.4,29.69,29.69,0,0,0-8.16-4,.36.36,0,0,1,.2-.7,31.12,31.12,0,0,1,8.66,3.66,25.74,25.74,0,0,1,7,6.42.9.9,0,1,1-1.45,1.08Z" transform="translate(-60.47 -146.1)"/><path class="cls-20" d="M434.5,185.92c-1.79.65-3.43.82-3.67.36s1-1.35,2.79-2,3.43-.82,3.67-.36S436.28,185.26,434.5,185.92Z" transform="translate(-60.47 -146.1)"/><path class="cls-4" d="M464.79,250.17c-1.71-10.46-8.52-18.08-15.23-17S438.8,243.51,440.5,254s8.53,18.08,15.23,17S466.49,260.63,464.79,250.17Z" transform="translate(-60.47 -146.1)"/><path class="cls-15" d="M463.94,250.31a26.09,26.09,0,0,0-4.41-11.17,15,15,0,0,0-4.31-4.06,8.62,8.62,0,0,0-5.5-1.24,8.39,8.39,0,0,0-4.86,2.84,14.64,14.64,0,0,0-2.83,5.17,27.07,27.07,0,0,0,3.88,23,14.91,14.91,0,0,0,4.28,4,8.44,8.44,0,0,0,5.34,1.16,8.15,8.15,0,0,0,4.74-2.7,14.38,14.38,0,0,0,2.83-5.08A25.66,25.66,0,0,0,463.94,250.31Zm1.7-.28a27.55,27.55,0,0,1-.72,12.81,16,16,0,0,1-3.19,5.78,10.09,10.09,0,0,1-5.9,3.38,10.24,10.24,0,0,1-6.63-1.47,16.59,16.59,0,0,1-4.8-4.52,28.73,28.73,0,0,1-3.88-24.66,16.07,16.07,0,0,1,3.2-5.69,9.89,9.89,0,0,1,5.78-3.24,10.17,10.17,0,0,1,6.47,1.39,16.56,16.56,0,0,1,4.78,4.42A27.85,27.85,0,0,1,465.64,250Z" transform="translate(-60.47 -146.1)"/><path class="cls-4" d="M483.82,246.83c-1.71-10.5-8.4-18.19-14.94-17.16s-10.46,10.36-8.75,20.86,8.41,18.18,14.95,17.16S485.53,257.33,483.82,246.83Z" transform="translate(-60.47 -146.1)"/><path class="cls-15" d="M483,247a26.89,26.89,0,0,0-4.29-11.19,15.25,15.25,0,0,0-4.21-4.15,8.38,8.38,0,0,0-5.49-1.33,8.07,8.07,0,0,0-4.82,2.9,15,15,0,0,0-2.71,5.25,28,28,0,0,0,3.92,23,15.27,15.27,0,0,0,4.19,4,8.1,8.1,0,0,0,5.28,1.21,7.89,7.89,0,0,0,4.64-2.74,14.51,14.51,0,0,0,2.71-5.11A26.63,26.63,0,0,0,483,247Zm1.62-.26a28.09,28.09,0,0,1-.57,12.72,16.66,16.66,0,0,1-3,5.82,9.85,9.85,0,0,1-5.84,3.45,10.07,10.07,0,0,1-6.59-1.58,17,17,0,0,1-4.66-4.59,28.6,28.6,0,0,1-4.6-11.86,28.21,28.21,0,0,1,.79-12.65,16.37,16.37,0,0,1,3.06-5.69,9.56,9.56,0,0,1,5.65-3.28,9.71,9.71,0,0,1,6.37,1.46,16.89,16.89,0,0,1,4.65,4.46A28.44,28.44,0,0,1,484.63,246.7Z" transform="translate(-60.47 -146.1)"/><path class="cls-15" d="M479.88,264.09a7.14,7.14,0,0,1,3.4-4.55,8,8,0,0,1,5.56-1,5.19,5.19,0,0,1,2.61,1.38,4.36,4.36,0,0,1,1.29,2.71,4.27,4.27,0,0,1-.75,2.88,5.14,5.14,0,0,1-2.31,1.8,5.08,5.08,0,0,1-2.89.28,3.23,3.23,0,0,1-2.35-1.82,2.83,2.83,0,0,1,.41-2.92,3.44,3.44,0,0,1,2.6-1.22,2.44,2.44,0,0,1,1.44.4,1.85,1.85,0,0,1,.83,1.28,1.77,1.77,0,0,1-.4,1.45,2.27,2.27,0,0,1-1.27.74,1.73,1.73,0,0,1-1.43-.32,1.19,1.19,0,0,1-.3-1.42,1.36,1.36,0,0,1,1.21-.71,1,1,0,0,1,.68.25.74.74,0,0,1,.2.7l-.16,0a.61.61,0,0,0-.71-.67,1.09,1.09,0,0,0-.93.61.8.8,0,0,0,.26,1A1.27,1.27,0,0,0,488,265a1.44,1.44,0,0,0,1.19-1.61,1.5,1.5,0,0,0-1.67-1.09,2.67,2.67,0,0,0-2,1,2,2,0,0,0-.22,2.05,2.29,2.29,0,0,0,1.72,1.21,4.09,4.09,0,0,0,2.28-.32,4,4,0,0,0,1.78-1.43,3.15,3.15,0,0,0,.51-2.12,3.48,3.48,0,0,0-3-2.94c-3.1-.58-6.72,1.47-7.39,4.54Z" transform="translate(-60.47 -146.1)"/><path class="cls-15" d="M447.34,268.93a6.86,6.86,0,0,0-8.59-1.48,3.15,3.15,0,0,0-1.4,3.8,3.84,3.84,0,0,0,3.56,2.39,4,4,0,0,0,2.22-.52,2,2,0,0,0,1-1.74,2.12,2.12,0,0,0-1.09-1.78,2.8,2.8,0,0,0-2.23-.23,1.33,1.33,0,0,0-1,1.6,1.57,1.57,0,0,0,1.76,1,1.18,1.18,0,0,0,.92-.53.82.82,0,0,0-.19-1,1.13,1.13,0,0,0-1.09-.23.57.57,0,0,0-.36.88l-.13.1a.73.73,0,0,1-.12-.71.9.9,0,0,1,.53-.5,1.44,1.44,0,0,1,1.38.21,1.18,1.18,0,0,1,.34,1.4,1.63,1.63,0,0,1-1.2.83,2.32,2.32,0,0,1-1.44-.21,2,2,0,0,1-1-1.14,1.79,1.79,0,0,1,.19-1.51,2.3,2.3,0,0,1,1.19-.91,3.48,3.48,0,0,1,2.84.18,2.89,2.89,0,0,1,.22,5.07,5.12,5.12,0,0,1-2.78.77,5.4,5.4,0,0,1-2.78-.8,4.67,4.67,0,0,1-1.88-2.26,4.22,4.22,0,0,1-.05-3,4.69,4.69,0,0,1,1.87-2.31,8,8,0,0,1,10.36,1.74Z" transform="translate(-60.47 -146.1)"/><path class="cls-21" d="M456.69,256.8c-1.1-6.78-5.1-11.79-8.93-11.2s-6,6.58-4.93,13.36,5.11,11.8,8.93,11.2S457.8,263.58,456.69,256.8Z" transform="translate(-60.47 -146.1)"/><path class="cls-4" d="M447.48,259a2.23,2.23,0,0,0,.47,2.25,3.15,3.15,0,0,0,2.08.93,3.58,3.58,0,0,0,2.21-.49,2.46,2.46,0,0,0,1.25-1.71c.09-.62-.66-1-1.41-1.14a3,3,0,0,0-2.15.39,1,1,0,0,0-.32.91.87.87,0,0,0,.71.67,1.42,1.42,0,0,0,1.11-.09.78.78,0,0,0,.21-1.05.83.83,0,0,1-.1,1.19,1.65,1.65,0,0,1-1.29.27,1.22,1.22,0,0,1-1.05-.89,1.47,1.47,0,0,1,.37-1.38,2.3,2.3,0,0,1,1.26-.59,4.57,4.57,0,0,1,1.33,0,3.06,3.06,0,0,1,1.31.45,1.48,1.48,0,0,1,.69,1.34,3.07,3.07,0,0,1-1.6,2.19,3.93,3.93,0,0,1-2.59.49,3.53,3.53,0,0,1-2.28-1.25A2.3,2.3,0,0,1,447.48,259Z" transform="translate(-60.47 -146.1)"/><path class="cls-4" d="M447.27,259a2.23,2.23,0,0,1,.59,2.44,3.65,3.65,0,0,1-1.87,1.88,4.23,4.23,0,0,1-2.67.34,4.43,4.43,0,0,1-1.29-.5,2.5,2.5,0,0,1-1-1.05,1.46,1.46,0,0,1,.26-1.53,3.38,3.38,0,0,1,1.14-.83,4.93,4.93,0,0,1,1.31-.38,2.53,2.53,0,0,1,1.4.15,1.47,1.47,0,0,1,.85,1.19,1.22,1.22,0,0,1-.74,1.2,1.79,1.79,0,0,1-1.34.15.84.84,0,0,1-.5-.44.91.91,0,0,1,0-.65.76.76,0,0,0,.57.92,1.54,1.54,0,0,0,1.12-.27.84.84,0,0,0,.49-.86,1,1,0,0,0-.63-.76,3.28,3.28,0,0,0-2.25.31c-.7.33-1.34,1-1,1.54a2.64,2.64,0,0,0,1.81,1.21,4,4,0,0,0,2.33-.21,3.26,3.26,0,0,0,1.78-1.54A2.14,2.14,0,0,0,447.27,259Z" transform="translate(-60.47 -146.1)"/><path class="cls-4" d="M441.45,259.7a52.48,52.48,0,0,1,6.05-1.28,48.84,48.84,0,0,1,6.17-.62,51,51,0,0,1-6.06,1.28A48.87,48.87,0,0,1,441.45,259.7Z" transform="translate(-60.47 -146.1)"/><path class="cls-22" d="M475.76,254.11c-1.08-6.62-5.13-11.49-9.05-10.88s-6.22,6.48-5.14,13.1,5.13,11.5,9.05,10.88,6.22-6.47,5.14-13.1" transform="translate(-60.47 -146.1)"/><path class="cls-4" d="M464.88,256.73a50.24,50.24,0,0,1,6.06-1.29,48.69,48.69,0,0,1,6.16-.62A48.73,48.73,0,0,1,471,256.1,50.61,50.61,0,0,1,464.88,256.73Z" transform="translate(-60.47 -146.1)"/><path class="cls-4" d="M471.37,255.73a2.24,2.24,0,0,0,.47,2.24,3.12,3.12,0,0,0,2.09.94,3.62,3.62,0,0,0,2.21-.5,2.52,2.52,0,0,0,1.25-1.7c.08-.63-.67-1-1.42-1.15a3,3,0,0,0-2.15.4,1,1,0,0,0-.32.91.88.88,0,0,0,.71.66,1.41,1.41,0,0,0,1.12-.08.78.78,0,0,0,.21-1.05.85.85,0,0,1-.11,1.19,1.68,1.68,0,0,1-1.29.27,1.26,1.26,0,0,1-1.05-.9,1.47,1.47,0,0,1,.37-1.38,2.4,2.4,0,0,1,1.26-.59,4.24,4.24,0,0,1,1.33,0,3.06,3.06,0,0,1,1.31.45,1.5,1.5,0,0,1,.7,1.34,3.06,3.06,0,0,1-1.61,2.18,3.8,3.8,0,0,1-2.59.49,3.56,3.56,0,0,1-2.27-1.24A2.28,2.28,0,0,1,471.37,255.73Z" transform="translate(-60.47 -146.1)"/><path class="cls-4" d="M471.16,255.68a2.24,2.24,0,0,1,.6,2.44,3.71,3.71,0,0,1-1.88,1.88,4.15,4.15,0,0,1-2.67.33,4,4,0,0,1-1.28-.49,2.39,2.39,0,0,1-1-1,1.46,1.46,0,0,1,.25-1.53,3.21,3.21,0,0,1,1.14-.83,4.68,4.68,0,0,1,1.31-.38,2.57,2.57,0,0,1,1.41.15,1.45,1.45,0,0,1,.84,1.18,1.22,1.22,0,0,1-.74,1.2,1.76,1.76,0,0,1-1.33.16.84.84,0,0,1-.51-.45.91.91,0,0,1,0-.65.78.78,0,0,0,.57.93,1.56,1.56,0,0,0,1.12-.27.86.86,0,0,0,.48-.87,1,1,0,0,0-.63-.76,3.34,3.34,0,0,0-2.25.31c-.7.33-1.34,1-1,1.54a2.6,2.6,0,0,0,1.81,1.21,3.92,3.92,0,0,0,2.34-.21,3.35,3.35,0,0,0,1.78-1.53A2.16,2.16,0,0,0,471.16,255.68Z" transform="translate(-60.47 -146.1)"/><path class="cls-18" d="M455,287.64a14.25,14.25,0,0,1,7.39,4.21c3.18,3.7,3.74,9.57.26,12.77-5,4.63-16,1.36-18.74.55-11.28-3.36-21.83-12.82-18.84-18.23,2.24-4,11.93-5.72,18.91-3.65,5.72,1.71,12.26,6.72,10.46,11.53-1.13,3-5.24,5.13-8.86,5.48-7.86.76-14.65-6.72-13-10.09,1.08-2.28,6.5-3.73,10.06-2.28,2.62,1.06,4.58,3.84,3.54,5.2-1.23,1.59-6.62,1.3-7.28-.27-.11-.27-.21-.9.86-2.06" transform="translate(-60.47 -146.1)"/><path class="cls-15" d="M455,287.64a9.75,9.75,0,0,1,5.36,1,10.24,10.24,0,0,1,4.16,3.89,12.39,12.39,0,0,1,1.8,5.47,9.54,9.54,0,0,1-1.29,5.77,9,9,0,0,1-4.69,3.67,15.59,15.59,0,0,1-5.55.84,38.89,38.89,0,0,1-10.53-1.84,40,40,0,0,1-9.68-4.36,32,32,0,0,1-8.1-6.9,12.2,12.2,0,0,1-2.56-4.89,5.57,5.57,0,0,1,.13-3,5.94,5.94,0,0,1,1.73-2.42,13.34,13.34,0,0,1,4.92-2.37,24.24,24.24,0,0,1,5.27-.79,23.23,23.23,0,0,1,10.47,1.64,22,22,0,0,1,4.68,2.63,12.9,12.9,0,0,1,3.72,4.07,7.21,7.21,0,0,1,.84,2.86,6.23,6.23,0,0,1-.7,3,9.68,9.68,0,0,1-4.19,3.87,14.48,14.48,0,0,1-5.35,1.55,12.8,12.8,0,0,1-5.53-.77,15.71,15.71,0,0,1-4.78-2.79,11.81,11.81,0,0,1-3.38-4.49,4.68,4.68,0,0,1-.2-3.2,4.63,4.63,0,0,1,2.2-2.32,11.25,11.25,0,0,1,5.43-1.31,8.74,8.74,0,0,1,5.35,1.63,7.53,7.53,0,0,1,1.95,2.1,4.09,4.09,0,0,1,.58,1.42,2.3,2.3,0,0,1-.3,1.76,2.81,2.81,0,0,1-1.36,1,6,6,0,0,1-1.4.32,9.74,9.74,0,0,1-2.75-.09,7.54,7.54,0,0,1-1.35-.37,2.93,2.93,0,0,1-1.27-.89,1.36,1.36,0,0,1-.27-.89,1.88,1.88,0,0,1,.24-.79,4.44,4.44,0,0,1,.86-1.12.37.37,0,0,1,.53,0,.37.37,0,0,1,0,.52c-.53.58-1,1.44-.63,1.74a3.47,3.47,0,0,0,2,.75,8.53,8.53,0,0,0,2.42,0,2.82,2.82,0,0,0,1.81-.83,1.8,1.8,0,0,0-.38-1.69,6.24,6.24,0,0,0-1.62-1.62,7.17,7.17,0,0,0-4.44-1.16,9.89,9.89,0,0,0-4.52,1.21,2.17,2.17,0,0,0-1.12,3.2,9.93,9.93,0,0,0,2.88,3.64,13.46,13.46,0,0,0,4.17,2.35,11.84,11.84,0,0,0,4.67.65,12.45,12.45,0,0,0,4.56-1.28,8.27,8.27,0,0,0,3.42-3,4.39,4.39,0,0,0,.54-2,5.37,5.37,0,0,0-.55-2.1,11.24,11.24,0,0,0-3.12-3.61,20.67,20.67,0,0,0-4.26-2.58,21.89,21.89,0,0,0-9.83-1.63,23.5,23.5,0,0,0-4.95.83,12,12,0,0,0-4.33,2.14,4.37,4.37,0,0,0-1.24,1.76,4.08,4.08,0,0,0,0,2.14,10.44,10.44,0,0,0,2.31,4.16,30.09,30.09,0,0,0,7.82,6.24,38.83,38.83,0,0,0,9.3,3.87,35.9,35.9,0,0,0,9.87,1.49,14.28,14.28,0,0,0,4.64-.75,6.37,6.37,0,0,0,3.32-2.59c1.48-2.41,1.13-5.89-.45-8.48S458.07,289.6,455,287.64Z" transform="translate(-60.47 -146.1)"/><path class="cls-15" d="M514.63,276.53a13.36,13.36,0,0,1,8.82-5.79,18.82,18.82,0,0,1,10.76.94,10.06,10.06,0,0,1,2.43,1.49,7,7,0,0,1,1.79,2.41,8.66,8.66,0,0,1,.4,1.47,7.55,7.55,0,0,1,0,1.5,7.37,7.37,0,0,1-.25,1.43,8.53,8.53,0,0,1-.44,1.35,20.45,20.45,0,0,1-2.8,4.67,39.65,39.65,0,0,1-3.56,4,40.51,40.51,0,0,1-8.49,6.38,43.75,43.75,0,0,1-9.73,4.2,25.81,25.81,0,0,1-5.27,1,10,10,0,0,1-5.47-.92,5.49,5.49,0,0,1-2.07-2.1,7.23,7.23,0,0,1-.83-2.75,13.2,13.2,0,0,1,.76-5.42,18,18,0,0,1,6.32-8.62,23.07,23.07,0,0,1,9.77-4.49,10.37,10.37,0,0,1,5.63.43,7.22,7.22,0,0,1,4.1,4.15,8.5,8.5,0,0,1,.15,5.78,10.49,10.49,0,0,1-3.4,4.56,17.46,17.46,0,0,1-4.75,2.72,19.19,19.19,0,0,1-5.31,1.29c-.46,0-.93,0-1.4,0a9.06,9.06,0,0,1-1.44-.2,3.77,3.77,0,0,1-2.63-1.73,5.14,5.14,0,0,1-.68-2.94,7.36,7.36,0,0,1,.7-2.79,7.49,7.49,0,0,1,1.65-2.32,8.72,8.72,0,0,1,2.36-1.54,11,11,0,0,1,2.64-.8,5.62,5.62,0,0,1,2.86.15,1.9,1.9,0,0,1,1.18,1.2,3,3,0,0,1,0,1.54,6.41,6.41,0,0,1-1.26,2.48,4,4,0,0,1-2.36,1.52,2,2,0,0,1-1.43-.39,4.11,4.11,0,0,1-1-1,.24.24,0,0,1,0-.35.25.25,0,0,1,.34,0c.53.61,1.26,1.18,2,1a3.26,3.26,0,0,0,1.84-1.37,5.63,5.63,0,0,0,1-2.18,1.89,1.89,0,0,0-.05-1,.87.87,0,0,0-.62-.55,5,5,0,0,0-2.3,0,9.44,9.44,0,0,0-2.31.8,6.31,6.31,0,0,0-3.25,3.3,4.82,4.82,0,0,0,0,4.31,2.25,2.25,0,0,0,1.64,1,8.1,8.1,0,0,0,1.14.13c.4,0,.8,0,1.21-.06a17.58,17.58,0,0,0,4.78-1.25,16.23,16.23,0,0,0,4.23-2.52,8.6,8.6,0,0,0,2.72-3.74,6.55,6.55,0,0,0-.11-4.43,5.28,5.28,0,0,0-3-3.09,8.46,8.46,0,0,0-4.63-.43c-6.42,1.12-12.92,5.36-15.08,11.77a11.73,11.73,0,0,0-.68,4.84,4.74,4.74,0,0,0,2.22,3.78,8.71,8.71,0,0,0,4.69.72,23.12,23.12,0,0,0,5-1,42,42,0,0,0,9.33-4.18,39.87,39.87,0,0,0,8.09-6.22,26.18,26.18,0,0,0,5.88-8.09,6,6,0,0,0,.29-4.41,5.07,5.07,0,0,0-1.29-1.75,8.77,8.77,0,0,0-2-1.24,17.24,17.24,0,0,0-9.74-.89,17,17,0,0,0-2.41.6,20.64,20.64,0,0,0-2.33.89A25.07,25.07,0,0,0,514.63,276.53Z" transform="translate(-60.47 -146.1)"/><path class="cls-15" d="M493.5,270.84c2.78,1.13,5.51,2.36,8.24,3.58s5.44,2.5,8.11,3.84a1,1,0,0,1-.94,1.86h0c-2.62-1.44-5.19-3-7.76-4.5S496,272.49,493.5,270.84Z" transform="translate(-60.47 -146.1)"/><path class="cls-15" d="M506.31,266.48a24.26,24.26,0,0,1,2.71,2.33c.85.82,1.65,1.69,2.43,2.57s1.51,1.81,2.21,2.76a24,24,0,0,1,1.92,3,23.18,23.18,0,0,1-2.71-2.32c-.85-.82-1.66-1.68-2.43-2.57s-1.52-1.81-2.21-2.77A22.64,22.64,0,0,1,506.31,266.48Z" transform="translate(-60.47 -146.1)"/><path class="cls-15" d="M515.32,262.15a19.88,19.88,0,0,1,1.31,3c.37,1,.67,2.06,1,3.1s.49,2.1.66,3.17a20.71,20.71,0,0,1,.3,3.27,21,21,0,0,1-1.32-3c-.36-1-.68-2.05-.94-3.1s-.5-2.1-.66-3.17A20.81,20.81,0,0,1,515.32,262.15Z" transform="translate(-60.47 -146.1)"/><path class="cls-15" d="M522.12,260.34a14.62,14.62,0,0,1,.06,2.72,23.53,23.53,0,0,1-.3,2.66,25.91,25.91,0,0,1-.59,2.61,13.9,13.9,0,0,1-1,2.55,13.82,13.82,0,0,1-.07-2.72,23.27,23.27,0,0,1,.31-2.66,25.91,25.91,0,0,1,.59-2.61A13.9,13.9,0,0,1,522.12,260.34Z" transform="translate(-60.47 -146.1)"/><path class="cls-15" d="M477,286.47a34.24,34.24,0,0,1-4.24,1.26c-1.43.35-2.87.63-4.32.89s-2.89.46-4.36.6a36,36,0,0,1-4.42.22,38.22,38.22,0,0,1,4.25-1.26c1.42-.35,2.86-.62,4.31-.88s2.9-.46,4.36-.6A38.14,38.14,0,0,1,477,286.47Z" transform="translate(-60.47 -146.1)"/><path class="cls-15" d="M467.71,284.55a26.5,26.5,0,0,1-3.3,1.71c-1.12.51-2.27.94-3.43,1.36s-2.33.77-3.52,1.08a25.77,25.77,0,0,1-3.64.73,25.24,25.24,0,0,1,3.3-1.72c1.12-.5,2.26-.95,3.42-1.36s2.33-.77,3.52-1.08A25.89,25.89,0,0,1,467.71,284.55Z" transform="translate(-60.47 -146.1)"/><path class="cls-15" d="M458,279.11a14.72,14.72,0,0,1-1.56,2.42c-.57.76-1.19,1.47-1.83,2.17a25.34,25.34,0,0,1-2.05,2,16,16,0,0,1-2.32,1.71,15.25,15.25,0,0,1,1.56-2.43,25.15,25.15,0,0,1,1.83-2.16c.66-.68,1.33-1.35,2.05-2A15.27,15.27,0,0,1,458,279.11Z" transform="translate(-60.47 -146.1)"/><path class="cls-15" d="M449.58,277a8.25,8.25,0,0,1-.41,2.08,15.77,15.77,0,0,1-.75,1.91,14.38,14.38,0,0,1-1,1.79,8.6,8.6,0,0,1-1.36,1.62,8.09,8.09,0,0,1,.41-2.07,14.41,14.41,0,0,1,.75-1.92,15.73,15.73,0,0,1,1-1.78A8.6,8.6,0,0,1,449.58,277Z" transform="translate(-60.47 -146.1)"/><path class="cls-15" d="M441.43,276a4.92,4.92,0,0,1,.79,1.32,7,7,0,0,1,.42,1.4,6.92,6.92,0,0,1,.14,1.45,4.38,4.38,0,0,1-.24,1.52,4.92,4.92,0,0,1-.79-1.32,6.52,6.52,0,0,1-.42-1.39,7.85,7.85,0,0,1-.14-1.46A4.91,4.91,0,0,1,441.43,276Z" transform="translate(-60.47 -146.1)"/><path class="cls-17" d="M468.25,199.44l-.83-4.69a2.9,2.9,0,0,1,2.08-2.46,2.79,2.79,0,0,1,2.83,1.3q.36,2.86.74,5.73" transform="translate(-60.47 -146.1)"/><path class="cls-15" d="M530.32,236.29A37.36,37.36,0,0,0,522.5,219a46.47,46.47,0,0,0-14.94-12c-11.52-6-25.05-7.65-37.87-5.68A66.16,66.16,0,0,0,451.14,207a57.06,57.06,0,0,0-15.76,11.17,45.1,45.1,0,0,0-10.42,16A36.9,36.9,0,0,0,423,253a37.32,37.32,0,0,0,7.76,17.23,46.27,46.27,0,0,0,14.88,12c11.5,6,25,7.7,37.84,5.75a66.57,66.57,0,0,0,18.56-5.7,57.18,57.18,0,0,0,15.8-11.15,45.38,45.38,0,0,0,10.48-16.05A37,37,0,0,0,530.32,236.29Zm3-.5a40,40,0,0,1-2.08,20.43,48.39,48.39,0,0,1-11.15,17.17,60.15,60.15,0,0,1-16.64,11.79,69.46,69.46,0,0,1-19.46,6c-13.43,2.06-27.63.32-39.84-6a49.49,49.49,0,0,1-16-12.87,39.47,39.47,0,0,1-6.37-39.25A48.69,48.69,0,0,1,433,215.89a60.71,60.71,0,0,1,16.69-11.78,69.67,69.67,0,0,1,19.47-6c13.43-2,27.62-.26,39.81,6.08a49.41,49.41,0,0,1,15.91,12.87A40.44,40.44,0,0,1,533.34,235.79Z" transform="translate(-60.47 -146.1)"/><path class="cls-15" d="M487.36,279.57c2.86.24,5.7.59,8.54.93s5.66.75,8.48,1.23a1,1,0,0,1,.85,1.21,1.05,1.05,0,0,1-1.2.85h0c-2.79-.58-5.57-1.27-8.34-2S490.11,280.39,487.36,279.57Z" transform="translate(-60.47 -146.1)"/><path class="cls-15" d="M484,285.43c2.05-.25,4.1-.39,6.14-.53s4.09-.23,6.13-.23a1,1,0,1,1,0,2.08h0c-2-.1-4.07-.31-6.11-.51S486.05,285.77,484,285.43Z" transform="translate(-60.47 -146.1)"/><path class="cls-15" d="M456.83,181.05a47.18,47.18,0,0,0-2.22-5.8,40.59,40.59,0,0,0-3-5.42,34.07,34.07,0,0,0-3.72-4.87c-1.4-1.5-3-2.75-4.43-4.24l0,0a.68.68,0,0,1,0-1,.66.66,0,0,1,.76-.13,17.17,17.17,0,0,1,5.06,4.06,34.87,34.87,0,0,1,3.89,5.18,41.73,41.73,0,0,1,4.91,11.84.67.67,0,0,1-.48.82A.68.68,0,0,1,456.83,181.05Z" transform="translate(-60.47 -146.1)"/><path class="cls-15" d="M473.52,193.08l21.72-1.38-.49.75c-.72-2-1.74-3.85-2.64-5.83a16.2,16.2,0,0,1-1.77-6.42h0l.64.61c-2.8.16-5.6.28-8.4.38l-8.41.33c-5.6.16-11.2.37-16.82.46l.44-.39h0a23.94,23.94,0,0,1-2.4,7c-1.06,2.2-2.23,4.33-3.14,6.55l-.46-.64,15.74-1a.48.48,0,0,1,.06.95h0l-15.73,1-.75,0,.29-.69c.94-2.28,2.12-4.42,3.17-6.59a23.21,23.21,0,0,0,2.33-6.73h0v-.37l.43,0c5.6-.35,11.2-.59,16.8-.88l8.41-.34c2.8-.11,5.6-.22,8.41-.28l.63,0v.63h0a15.18,15.18,0,0,0,1.62,5.93c.86,2,1.87,3.86,2.62,6l.25.7-.75,0-21.73,1.23a.49.49,0,0,1-.52-.45A.5.5,0,0,1,473.52,193.08Z" transform="translate(-60.47 -146.1)"/><path class="cls-23" d="M458,182a49.77,49.77,0,0,1-1.88,5.54,50.61,50.61,0,0,1-3.61,7.08l14.9-1.1a3.26,3.26,0,0,1,3.33-2.36,3.29,3.29,0,0,1,3.08,1.95l20.61-1.42c-.77-1.46-1.52-3.05-2.23-4.77a54.94,54.94,0,0,1-2.11-6.09" transform="translate(-60.47 -146.1)"/><path class="cls-15" d="M496.23,162.81a12.54,12.54,0,0,1,2.79-3.76,19.58,19.58,0,0,1,3.74-2.79,14,14,0,0,1,9.18-2,9.8,9.8,0,0,1,4.41,2.12,7.31,7.31,0,0,1,2.5,4.29,6.54,6.54,0,0,1-1.16,4.82,7.58,7.58,0,0,1-4,2.71,9.45,9.45,0,0,1-4.78.12,5.94,5.94,0,0,1-4-2.82,4.29,4.29,0,0,1,.55-4.87,5.57,5.57,0,0,1,4.58-1.7,5,5,0,0,1,2.4.79,3.28,3.28,0,0,1,1.48,2.17,2.85,2.85,0,0,1-.82,2.53,3.62,3.62,0,0,1-2.38,1,3.31,3.31,0,0,1-2.41-.79,2.11,2.11,0,0,1-.64-1.2A1.86,1.86,0,0,1,508,162a2.24,2.24,0,0,1,2.31-.81,1.74,1.74,0,0,1,1.06.63,1.1,1.1,0,0,1,.1,1.2.08.08,0,1,1-.15-.07.88.88,0,0,0-.19-.93,1.39,1.39,0,0,0-.89-.4,1.8,1.8,0,0,0-1.71.72,1.22,1.22,0,0,0,.33,1.58,2.54,2.54,0,0,0,1.82.49,2.77,2.77,0,0,0,1.72-.77,1.89,1.89,0,0,0,.49-1.63,2.28,2.28,0,0,0-1.05-1.45A4.07,4.07,0,0,0,510,160a4.46,4.46,0,0,0-3.65,1.32,3.16,3.16,0,0,0-.4,3.59,4.83,4.83,0,0,0,3.24,2.25,7.62,7.62,0,0,0,4.18-.14,6.17,6.17,0,0,0,3.31-2.34,5.24,5.24,0,0,0,.77-3.81c-.54-2.64-3.09-4.57-5.76-5.11a10.23,10.23,0,0,0-4.19.12,16.7,16.7,0,0,0-4.09,1.47,18.47,18.47,0,0,0-3.66,2.43,11.24,11.24,0,0,0-2.77,3.34h0a.39.39,0,0,1-.52.17A.39.39,0,0,1,496.23,162.81Z" transform="translate(-60.47 -146.1)"/><path class="cls-15" d="M448.4,164.64a12.7,12.7,0,0,0-3.75-3.39A24.67,24.67,0,0,0,440,159a26.1,26.1,0,0,0-5-1.31,18,18,0,0,0-5-.13,13,13,0,0,0-4.66,1.57,6.63,6.63,0,0,0-3.06,3.42,4.16,4.16,0,0,0,1.08,4.16,8.62,8.62,0,0,0,4.28,2.23,12.43,12.43,0,0,0,5,.13,7.09,7.09,0,0,0,4.26-2.14,3.56,3.56,0,0,0,.55-1,2.93,2.93,0,0,0,.11-1.06,3,3,0,0,0-1.1-1.85,6.85,6.85,0,0,0-4.58-1.22,7.06,7.06,0,0,0-2.36.52,2.66,2.66,0,0,0-1.53,1.46,1.59,1.59,0,0,0,.68,1.73,4.1,4.1,0,0,0,2.2.73,4.27,4.27,0,0,0,2.31-.45c.67-.35,1-1.09.5-1.65a2.73,2.73,0,0,0-2.18-.71,2.24,2.24,0,0,0-1.14.37.76.76,0,0,0-.28,1,.1.1,0,0,1,0,.12.09.09,0,0,1-.11,0h0a1,1,0,0,1,.22-1.33,2.5,2.5,0,0,1,1.29-.56,3.09,3.09,0,0,1,2.7.71,1.62,1.62,0,0,1,.42,1.54,2.3,2.3,0,0,1-1,1.23,5,5,0,0,1-2.77.67,5.08,5.08,0,0,1-2.76-.82,2.59,2.59,0,0,1-1.11-2.85,3.71,3.71,0,0,1,2.09-2.16,8.4,8.4,0,0,1,8.11.83,4.05,4.05,0,0,1,1.5,2.58,3.67,3.67,0,0,1-.16,1.55,4.28,4.28,0,0,1-.74,1.32,8.11,8.11,0,0,1-4.93,2.53,15,15,0,0,1-5.47-.06,9.9,9.9,0,0,1-5-2.46,6.06,6.06,0,0,1-1.53-2.52,5.31,5.31,0,0,1,0-3,7.74,7.74,0,0,1,3.69-4.35,13.56,13.56,0,0,1,5.26-1.77,21.61,21.61,0,0,1,10.63,1.84,25.41,25.41,0,0,1,4.72,2.58,13.82,13.82,0,0,1,3.86,3.8.4.4,0,0,1-.12.54.39.39,0,0,1-.53-.11Z" transform="translate(-60.47 -146.1)"/><path class="cls-23" d="M448.26,162.59a38.12,38.12,0,0,1,6.19,8.07,32.66,32.66,0,0,1,3.78,10.39L490,179.59a50.35,50.35,0,0,1,2.5-9.06,54,54,0,0,1,5-9.91c-10.78-4.14-17.82-3.62-22.35-2.24-5.16,1.57-7.81,4.48-14.38,5.36A29.63,29.63,0,0,1,448.26,162.59Z" transform="translate(-60.47 -146.1)"/><path class="cls-15" d="M452.39,218a6,6,0,0,1,2-1.61,7,7,0,0,1,2.45-.75,6.66,6.66,0,0,1,4.84,1.28,21.21,21.21,0,0,0-2.4-.33,12,12,0,0,0-2.32,0A14.38,14.38,0,0,0,452.39,218Z" transform="translate(-60.47 -146.1)"/></g><ellipse class="cls-24" cx="145.72" cy="479.03" rx="53.76" ry="51.01" transform="matrix(1, -0.04, 0.04, 1, -79.69, -139.83)"/><path class="cls-15" d="M200.48,476.82A49.73,49.73,0,0,1,197,497.39a52.1,52.1,0,0,1-11.52,17.39,55.39,55.39,0,0,1-17.26,11.72,56.43,56.43,0,0,1-41,1.59,55.18,55.18,0,0,1-18.08-10.33A52.32,52.32,0,0,1,96.3,501.37a50,50,0,0,1-1.6-40.6,52.08,52.08,0,0,1,11.47-17.32,55.33,55.33,0,0,1,17.19-11.65,57.54,57.54,0,0,1,20.26-4.63c1.74,0,3.48.05,5.22.12s3.45.45,5.17.62c.87.06,1.7.33,2.56.47l2.55.51a20.36,20.36,0,0,1,2.52.67l2.49.74a55,55,0,0,1,18.09,10.12,52.29,52.29,0,0,1,12.95,16.25A49.38,49.38,0,0,1,200.48,476.82Zm-2.1.08a48,48,0,0,0-4.86-19.41,50,50,0,0,0-12.34-15.85,53.7,53.7,0,0,0-17.51-10l-2.42-.74a22.76,22.76,0,0,0-2.45-.68c-1.66-.31-3.3-.74-5-.94s-3.38-.31-5.06-.38-3.38,0-5.07,0a55.74,55.74,0,0,0-19.63,4.45,53.37,53.37,0,0,0-16.67,11.25,50.26,50.26,0,0,0-11.14,16.73,47.36,47.36,0,0,0,1.62,39.2,50,50,0,0,0,12.48,15.71,53.35,53.35,0,0,0,17.52,9.78,55.89,55.89,0,0,0,39.4-1.66,53.06,53.06,0,0,0,16.6-11.19A50.15,50.15,0,0,0,195,496.59,47.53,47.53,0,0,0,198.38,476.9Z" transform="translate(-60.47 -146.1)"/><path class="cls-15" d="M142,427.4c4.38.81,9.12.65,13-1.43a15.71,15.71,0,0,0,5-4.24,6.49,6.49,0,0,0,1.28-2.88,4.83,4.83,0,0,0-3.12-4.86,3.3,3.3,0,0,0-2.87.65,7,7,0,0,0-2.07,2.45,2.52,2.52,0,0,0-.22,1.46,2.22,2.22,0,0,0,.77,1.23,3.63,3.63,0,0,0,3,.67,3.72,3.72,0,0,0,2.47-1.85c.54-.93-.35-2-1.34-2.22a1.75,1.75,0,0,0-2,1.75v.2h-.4v-.2a2.33,2.33,0,0,1,.74-1.67,2,2,0,0,1,1.78-.51,2.62,2.62,0,0,1,1.55,1,1.79,1.79,0,0,1,.17,1.86,4.25,4.25,0,0,1-6.33,1.48,2.84,2.84,0,0,1-1-1.6,3.2,3.2,0,0,1,.23-1.89,6.58,6.58,0,0,1,1-1.54,8.11,8.11,0,0,1,1.29-1.26,5,5,0,0,1,1.66-.84,3.68,3.68,0,0,1,1.92,0,5.25,5.25,0,0,1,2.91,2.24,5.38,5.38,0,0,1,.95,3.57,7.54,7.54,0,0,1-1.42,3.36,15.33,15.33,0,0,1-2.42,2.6,15.6,15.6,0,0,1-2.92,2,16.8,16.8,0,0,1-6.77,1.9,23.29,23.29,0,0,1-7-.58l-.42-.1.18-.84Z" transform="translate(-60.47 -146.1)"/><ellipse class="cls-25" cx="167.91" cy="462.22" rx="10.55" ry="16.65" transform="translate(-169.06 -90.56) rotate(-14.25)"/><ellipse class="cls-25" cx="152.27" cy="464.99" rx="10.83" ry="17.07" transform="translate(-165.26 -97.43) rotate(-13.56)"/><path class="cls-15" d="M162.33,482a5.65,5.65,0,0,0-.59,1.81,1.45,1.45,0,0,0,.43,1.4,2.72,2.72,0,0,0,1.55.4,10.05,10.05,0,0,0,1.87-.19c.63-.13,1.3-.23,1.87-.41a2,2,0,0,0,1.25-.78,1.58,1.58,0,0,0-.22-1.41,4.8,4.8,0,0,0-1.25-1.38h0a.22.22,0,0,1,0-.32.23.23,0,0,1,.26-.07,4.66,4.66,0,0,1,1.74,1.27,2.41,2.41,0,0,1,.54,2.36,2.16,2.16,0,0,1-.85,1,4.22,4.22,0,0,1-1.05.51,13.12,13.12,0,0,1-2,.47,9.39,9.39,0,0,1-2.13.13,3.44,3.44,0,0,1-2.19-.84,1.93,1.93,0,0,1-.58-1.14,2.65,2.65,0,0,1,.1-1.17,5,5,0,0,1,1.06-1.84.16.16,0,0,1,.23,0,.16.16,0,0,1,0,.19Z" transform="translate(-60.47 -146.1)"/><path class="cls-4" d="M158.7,492.3a10.67,10.67,0,0,0,8.54,3.11,10.9,10.9,0,0,0,7.75-5.13c1.51,6.29-2.25,11.92-6.39,12.63C164.27,503.65,158.74,499.14,158.7,492.3Z" transform="translate(-60.47 -146.1)"/><path class="cls-15" d="M158.63,492.13a.51.51,0,0,1,.29.13l.12.11.22.19.46.37c.31.23.63.45,1,.65a11.09,11.09,0,0,0,2.09,1,9.58,9.58,0,0,0,4.53.47,9.9,9.9,0,0,0,4.21-1.67,11.21,11.21,0,0,0,1.72-1.51c.26-.27.5-.57.74-.87s.23-.31.33-.46a.66.66,0,0,1,.48-.38l.55-.09-.11.16h0a12.09,12.09,0,0,1,.47,4.07,11.77,11.77,0,0,1-1,4,10,10,0,0,1-2.46,3.39,7.14,7.14,0,0,1-3.87,1.83,7.49,7.49,0,0,1-4.18-.87A9.93,9.93,0,0,1,161,500a11,11,0,0,1-2.36-5.66c0-.34-.08-.68-.09-1,0-.18,0-.3,0-.55A3.21,3.21,0,0,1,158.63,492.13Zm.14.33c0,.17.13.27.15.37l.07.44c0,.33.1.65.16,1a11.35,11.35,0,0,0,.57,1.85,10.93,10.93,0,0,0,2,3.28,10.18,10.18,0,0,0,3,2.31,6.38,6.38,0,0,0,3.56.68,6,6,0,0,0,3.25-1.51,9.83,9.83,0,0,0,2.27-3,11.92,11.92,0,0,0,1-7.53h0l.44.07a.62.62,0,0,1-.17.62c-.12.17-.24.34-.37.5a11.72,11.72,0,0,1-.81.93A12.38,12.38,0,0,1,172,494a10,10,0,0,1-9.4,1.08,11.33,11.33,0,0,1-2.15-1.14,11,11,0,0,1-1-.73l-.46-.4-.22-.21-.09-.1S158.76,492.52,158.77,492.46Z" transform="translate(-60.47 -146.1)"/><ellipse class="cls-26" cx="176.23" cy="626.89" rx="6.93" ry="1.82" transform="translate(-85.64 -138.47) rotate(-2.31)"/><path class="cls-15" d="M169.05,626.73a28.64,28.64,0,0,0,2.28-14.52.92.92,0,1,1,1.83-.2s0,0,0,.06h0a30,30,0,0,1-3.33,15,.44.44,0,0,1-.59.19A.45.45,0,0,1,169.05,626.73Z" transform="translate(-60.47 -146.1)"/><path class="cls-15" d="M147.2,627.53a27.22,27.22,0,0,1-4-16.54.93.93,0,0,1,1-.84.92.92,0,0,1,.84,1v.06a25.81,25.81,0,0,0,2.9,15.89.43.43,0,0,1-.17.59A.46.46,0,0,1,147.2,627.53Z" transform="translate(-60.47 -146.1)"/><ellipse class="cls-26" cx="139.77" cy="628.11" rx="7.86" ry="2.07" transform="translate(-85.72 -139.95) rotate(-2.31)"/><path class="cls-15" d="M103.93,581.12a80.37,80.37,0,0,1,5.91-22.89A85.37,85.37,0,0,1,122,537.93a.65.65,0,0,1,.9-.1.64.64,0,0,1,.09.9h0a84.49,84.49,0,0,0-12.16,19.92,79.41,79.41,0,0,0-6,22.55.45.45,0,0,1-.49.39A.43.43,0,0,1,103.93,581.12Z" transform="translate(-60.47 -146.1)"/><ellipse class="cls-27" cx="104.66" cy="585.3" rx="1.27" ry="4.44" transform="translate(-97.94 -138.15) rotate(-3.69)"/><path class="cls-15" d="M180.19,536a6.68,6.68,0,0,1,1.54-.13l1.54-.05c1-.06,2-.14,3.07-.25a49.39,49.39,0,0,0,6.07-1.07A45.67,45.67,0,0,0,203.88,530,42.74,42.74,0,0,0,221,512.75a.44.44,0,0,1,.78.41,42.94,42.94,0,0,1-7.38,10.17,43.94,43.94,0,0,1-10,7.6,46.79,46.79,0,0,1-11.71,4.57,48.52,48.52,0,0,1-6.2,1.11c-1.05.13-2.09.21-3.14.27-.53,0-1.05,0-1.58.06a6,6,0,0,1-1.57-.12.45.45,0,0,1-.33-.54.43.43,0,0,1,.33-.33Z" transform="translate(-60.47 -146.1)"/><ellipse class="cls-28" cx="222.94" cy="509.04" rx="4.45" ry="1.27" transform="translate(-393.04 378.13) rotate(-67.91)"/><path class="cls-15" d="M224.67,504.7a.84.84,0,0,1,.47.64,2.91,2.91,0,0,1,.06.65,7.12,7.12,0,0,1-.16,1.24,14.45,14.45,0,0,1-.77,2.33,14,14,0,0,1-1.15,2.16,6.91,6.91,0,0,1-.74,1,3.07,3.07,0,0,1-.47.41.77.77,0,0,1-.65.16.73.73,0,0,1-.39-.54,2.18,2.18,0,0,1-.06-.62,7.11,7.11,0,0,1,.13-1.22,13.73,13.73,0,0,1,.68-2.35,13.19,13.19,0,0,1,1.06-2.21,7.18,7.18,0,0,1,.74-1,3,3,0,0,1,.49-.44A.92.92,0,0,1,224.67,504.7Zm-.14.42c-.18-.07-.56.21-.8.48a6.52,6.52,0,0,0-.71.93,15.21,15.21,0,0,0-1.12,2.11,13.23,13.23,0,0,0-.75,2.28,6,6,0,0,0-.16,1.18c0,.37,0,.86.33,1s.67-.26.92-.53a6.61,6.61,0,0,0,.71-1,13.83,13.83,0,0,0,1-2.16,14.35,14.35,0,0,0,.66-2.3,6.65,6.65,0,0,0,.13-1.16C224.79,505.63,224.7,505.16,224.53,505.12Z" transform="translate(-60.47 -146.1)"/><ellipse class="cls-26" cx="170.79" cy="457.89" rx="5.25" ry="10.15" transform="translate(-163.26 -93.16) rotate(-13.59)"/><ellipse class="cls-26" cx="155.26" cy="460.26" rx="5.37" ry="10.1" transform="translate(-143.86 -108.91) rotate(-10.79)"/><path class="cls-29" d="M153.57,459.6l7.87-1.38" transform="translate(-60.47 -146.1)"/><path class="cls-4" d="M157.28,458.88a2.44,2.44,0,0,1,0-1.86,2.32,2.32,0,0,1,1.36-1.28,2.93,2.93,0,0,1,1.83-.12,1.6,1.6,0,0,1,1.2,1.39,1.19,1.19,0,0,1-.35.9,2.24,2.24,0,0,1-.79.48,1.88,1.88,0,0,1-1.78-.08.75.75,0,0,1-.23-.89,1.23,1.23,0,0,1,.67-.6,1.05,1.05,0,0,1,.9,0,.62.62,0,0,1,.26.82s0,0-.05,0a.07.07,0,0,1,0-.06.5.5,0,0,0-.24-.67.86.86,0,0,0-.78,0,1.12,1.12,0,0,0-.57.54.56.56,0,0,0,.2.66,1.66,1.66,0,0,0,1.55,0c.51-.2,1-.6.91-1.12a1.23,1.23,0,0,0-1-1,2.58,2.58,0,0,0-1.57.16,1.87,1.87,0,0,0-1.09,1,2.13,2.13,0,0,0,0,1.53.22.22,0,0,1-.41.16Z" transform="translate(-60.47 -146.1)"/><path class="cls-4" d="M157.28,458.75a1.44,1.44,0,0,0-.45-1.35,2.84,2.84,0,0,0-1.46-.58,2.69,2.69,0,0,0-1.59.21,1.38,1.38,0,0,0-.8,1.24,1.09,1.09,0,0,0,1.08,1,1.77,1.77,0,0,0,1.52-.43.62.62,0,0,0,0-.72,1,1,0,0,0-.71-.36.87.87,0,0,0-.75.22.5.5,0,0,0,0,.7.06.06,0,0,1,0,.09.06.06,0,0,1-.08,0h0a.64.64,0,0,1,0-.88,1,1,0,0,1,.87-.27,1.13,1.13,0,0,1,.82.41.78.78,0,0,1,0,.92,1.93,1.93,0,0,1-1.71.55,1.7,1.7,0,0,1-.88-.31,1.29,1.29,0,0,1-.46-.85,1.72,1.72,0,0,1,.9-1.6,3,3,0,0,1,1.83-.36,3,3,0,0,1,1.76.67,1.76,1.76,0,0,1,.52,1.84h0a.22.22,0,0,1-.28.14A.21.21,0,0,1,157.28,458.75Z" transform="translate(-60.47 -146.1)"/><path class="cls-29" d="M168.43,458.12l7.86-1.39" transform="translate(-60.47 -146.1)"/><path class="cls-4" d="M172.14,457.4a2.44,2.44,0,0,1,0-1.86,2.32,2.32,0,0,1,1.36-1.28,2.93,2.93,0,0,1,1.83-.12,1.58,1.58,0,0,1,1.19,1.39,1.12,1.12,0,0,1-.35.9,2.12,2.12,0,0,1-.78.48,1.88,1.88,0,0,1-1.78-.08.76.76,0,0,1-.24-.89,1.28,1.28,0,0,1,.68-.6,1.05,1.05,0,0,1,.9,0,.62.62,0,0,1,.26.82,0,0,0,0,1,0,0s0,0,0-.06a.5.5,0,0,0-.24-.67.86.86,0,0,0-.78,0,1.12,1.12,0,0,0-.57.54.55.55,0,0,0,.2.66,1.66,1.66,0,0,0,1.55,0c.51-.2,1-.6.91-1.12a1.23,1.23,0,0,0-1-1,2.51,2.51,0,0,0-1.57.16,1.91,1.91,0,0,0-1.1,1,2.13,2.13,0,0,0,0,1.53.22.22,0,0,1-.41.16Z" transform="translate(-60.47 -146.1)"/><path class="cls-4" d="M172.13,457.27a1.43,1.43,0,0,0-.44-1.35,2.88,2.88,0,0,0-1.46-.58,2.68,2.68,0,0,0-1.59.21,1.37,1.37,0,0,0-.8,1.24,1.09,1.09,0,0,0,1.08,1,1.77,1.77,0,0,0,1.52-.43.62.62,0,0,0,0-.72,1,1,0,0,0-.7-.36.87.87,0,0,0-.75.22.49.49,0,0,0,0,.7.06.06,0,0,1,0,.09.06.06,0,0,1-.08,0h0a.63.63,0,0,1,0-.88,1,1,0,0,1,.87-.27,1.09,1.09,0,0,1,.82.41.8.8,0,0,1,0,.92,2,2,0,0,1-1.71.55,1.7,1.7,0,0,1-.88-.31,1.25,1.25,0,0,1-.46-.85,1.74,1.74,0,0,1,.9-1.61,3.1,3.1,0,0,1,1.83-.35,3,3,0,0,1,1.76.67,1.78,1.78,0,0,1,.52,1.84h0a.22.22,0,0,1-.43-.11Z" transform="translate(-60.47 -146.1)"/><path class="cls-30" d="M146.4,530.28l.61,5.5a2.89,2.89,0,0,0,2.29.91,2.69,2.69,0,0,0,2.28-1.64l-.69-5.14" transform="translate(-60.47 -146.1)"/><path class="cls-31" d="M151.23,535l28.9-.35A171.36,171.36,0,0,0,177,572l-47.77,1.62c-.48-5.71-1.25-11.87-2.41-18.41s-2.57-12.64-4.08-18.21l23.58-1.42a2.71,2.71,0,0,0,1.86,1.6A2.86,2.86,0,0,0,151.23,535Z" transform="translate(-60.47 -146.1)"/><path class="cls-15" d="M150.83,534.51l29.3-.27h.53l-.1.52A169.14,169.14,0,0,0,177.61,572l0,.64-.65,0-47.76,1.63-.63,0-.06-.63a207.62,207.62,0,0,0-6.7-36.44l-.29-1.07,1.1-.06,11.79-.66q5.9-.3,11.8-.52h0l.46,0,.19.43a2.24,2.24,0,0,0,.79,1,1.53,1.53,0,0,0,1.13.23,2.19,2.19,0,0,0,1.12-.57,2.43,2.43,0,0,0,.41-.5c0-.1.11-.19.15-.29l.1-.26A2.65,2.65,0,0,1,150.83,534.51Zm.8,1c.09.06.18-.11.06.13a3.88,3.88,0,0,1-.22.46,4,4,0,0,1-.64.78,3.59,3.59,0,0,1-1.81.91,2.9,2.9,0,0,1-2.06-.43,3.59,3.59,0,0,1-1.29-1.57l.65.41h0q-5.88.5-11.78.9l-11.78.75.81-1.12a203.16,203.16,0,0,1,6.29,36.8l-.68-.61,47.76-1.61-.62.67a173.94,173.94,0,0,1,3.39-37.42l.44.51Z" transform="translate(-60.47 -146.1)"/><path class="cls-32" d="M128.91,573.58c.4,6.32.61,13,.55,20.12-.06,6.89-.36,13.44-.83,19.6l24.07.08a102.07,102.07,0,0,1,1.74-28.68,114.39,114.39,0,0,1,4.6,14.24,115.4,115.4,0,0,1,2.58,13.62l22.9-.93a142.57,142.57,0,0,1-7.26-39.3" transform="translate(-60.47 -146.1)"/><path class="cls-33" d="M179,535.46c.09,2.78-2.53,32.92-3.05,35.92-14.63.61-32.12,1.63-46.76,2.24,1.64-1-4.74-34.59-5.26-36.13C136.15,537,167,535,179,535.46Z" transform="translate(-60.47 -146.1)"/><text class="cls-9" transform="translate(154.41 269.17)">Log out, and log back in. <tspan class="cls-11" x="-3.45" y="20.4">Y</tspan><tspan x="5.37" y="20.4">ou will automatically gain </tspan><tspan x="8.52" y="40.8" xml:space="preserve">access to the site, and  </tspan><tspan x="12.29" y="61.2">start your 30 day trial!</tspan></text><text class="cls-7" transform="translate(163.24 243.4)">Last step...</text></svg>