<?xml version="1.0" encoding="utf-8"?>
<!-- Generator: Adobe Illustrator 23.0.3, SVG Export Plug-In . SVG Version: 6.00 Build 0)  -->
<svg version="1.1" id="Layer_1" xmlns="http://www.w3.org/2000/svg" xmlns:xlink="http://www.w3.org/1999/xlink" x="0px" y="0px"
	 viewBox="0 0 176.6 83.5" style="enable-background:new 0 0 176.6 83.5;" xml:space="preserve">
<path style="fill:none;stroke:#28B7FF;stroke-width:8;stroke-linecap:round;stroke-miterlimit:10;" d="M87.2,53.1
	C87.2,26,66.5,4,41,4C20.6,4,4,21.6,4,43.3c0,17.4,13.2,31.5,29.6,31.5c13.1,0,23.7-11.3,23.7-25.2c0-11.1-8.5-20.1-18.9-20.1
	c-8.4,0-15.1,7.2-15.1,16.1c0,7.1,5.4,12.9,12.1,12.9c5.3,0,9.7-4.6,9.7-10.3c0-4.4-4.2-8.6-7.8-8.2C35.8,40,33.6,41,33,43.2
	c-0.5,2.2,0.9,4.2,1.1,4.4"/>
<path style="fill:none;stroke:#FF4BBD;stroke-width:8;stroke-linecap:round;stroke-miterlimit:10;" d="M87.6,53.2
	c0.2,7.2,0.3,14.4,0.5,21.6"/>
<path style="fill:none;stroke:#FF4BBD;stroke-width:8;stroke-linecap:round;stroke-miterlimit:10;" d="M87.9,53.1
	C87.9,26,109,4,135,4c20.8,0,37.6,17.6,37.6,39.3c0,17.4-13.5,31.5-30.1,31.5c-13.3,0-24.1-11.3-24.1-25.2
	c0-11.1,8.6-20.1,19.3-20.1c8.5,0,15.4,7.2,15.4,16.1c0,7.1-5.5,12.9-12.3,12.9c-5.4,0-9.9-4.6-9.9-10.3c0-4.4,4.3-8.6,7.9-8.2
	c1.4,0.1,3.7,1.1,4.3,3.3c0.6,2.2-0.9,4.2-1.1,4.4"/>
<path style="fill:#FFFF00;stroke:#272425;stroke-width:0.2;stroke-miterlimit:10;" d="M165.6,83.4C165.6,83.4,165.6,83.4,165.6,83.4
	L15.7,83.1c-1.6,0-2.9-1.5-2.9-3.4c0-1.9,1.3-3.4,2.9-3.4l0,0l149.9,0.2c1.6,0,2.9,1.5,2.9,3.4C168.5,81.8,167.2,83.4,165.6,83.4z"
	/>
</svg>
