<?xml version="1.0" encoding="utf-8"?>
<!-- Generator: Adobe Illustrator 23.0.3, SVG Export Plug-In . SVG Version: 6.00 Build 0)  -->
<svg version="1.1" id="Layer_1" xmlns="http://www.w3.org/2000/svg" xmlns:xlink="http://www.w3.org/1999/xlink" x="0px" y="0px"
	 viewBox="0 0 220.63 176.73" style="enable-background:new 0 0 220.63 176.73;" xml:space="preserve">
<style type="text/css">
	.st0{fill:none;stroke:#FF4BBD;stroke-width:5;stroke-linecap:round;stroke-miterlimit:10;}
	.st1{fill:none;}
	.st2{fill:#231F20;}
	.st3{font-family:'Geneva';}
	.st4{font-size:27.2749px;}
	.st5{fill:none;stroke:#231F20;stroke-miterlimit:10;}
	.st6{fill:none;stroke:#00C2FF;stroke-width:4;stroke-linecap:round;stroke-miterlimit:10;}
	.st7{fill:#FFFF00;stroke:#000000;stroke-width:0.25;stroke-miterlimit:10;}
	.st8{fill:#FFFF00;}
</style>
<g>
	<line class="st0" x1="4.51" y1="12.6" x2="2.5" y2="120.81"/>
	<rect x="9.21" y="137.33" class="st1" width="187.4" height="26.84"/>
	<text transform="matrix(1.1493 0 0 1 9.2051 158.8234)" class="st2 st3 st4"> THE BIBLE</text>
	<text transform="matrix(1.1493 0 0 1 9.2051 158.8234)" class="st5 st3 st4"> THE BIBLE</text>
	<path class="st6" d="M101.05,112.24c0-13.47-11.05-24.39-24.68-24.39c-10.9,0-19.74,8.74-19.74,19.51
		c0,8.62,7.07,15.61,15.79,15.61c6.98,0,12.64-5.59,12.64-12.49c0-5.52-4.53-9.99-10.11-9.99c-4.47,0-8.09,3.58-8.09,7.99
		c0,3.53,2.9,6.39,6.47,6.39c2.86,0,5.18-2.29,5.18-5.12c0-2.17-2.26-4.27-4.14-4.09c-0.73,0.07-1.94,0.54-2.24,1.66
		c-0.29,1.09,0.49,2.06,0.58,2.18"/>
	<path class="st6" d="M101.05,112.24c0.09,3.58,0.17,7.16,0.26,10.73"/>
	<path class="st6" d="M101.44,112.24c0-13.47,11.24-24.39,25.11-24.39c11.1,0,20.09,8.74,20.09,19.51c0,8.62-7.2,15.61-16.07,15.61
		c-7.1,0-12.86-5.59-12.86-12.49c0-5.52,4.61-9.99,10.29-9.99c4.54,0,8.23,3.58,8.23,7.99c0,3.53-2.95,6.39-6.58,6.39
		c-2.91,0-5.27-2.29-5.27-5.12c0-2.17,2.3-4.27,4.21-4.09c0.75,0.07,1.97,0.54,2.27,1.66c0.29,1.09-0.49,2.06-0.59,2.18"/>
	<path class="st6" d="M101.44,112.24c-0.09,3.58-0.17,7.16-0.26,10.73"/>
	<path class="st0" d="M20.78,66.01c17.21,0.79,31.79-14.43,32.57-34C53.97,16.36,43.31,3.15,29.54,2.52
		C18.52,2.01,9.19,11.75,8.7,24.28C8.3,34.3,15.12,42.75,23.94,43.16c7.05,0.32,13.02-5.91,13.34-13.92
		c0.25-6.41-4.11-11.82-9.75-12.08c-4.51-0.21-8.33,3.78-8.54,8.91c-0.16,4.1,2.63,7.57,6.24,7.73c2.77,0.13,5.59-2.99,5.46-5.7
		c-0.05-1.06-0.58-2.82-2-3.31c-1.38-0.48-2.66,0.58-2.82,0.71"/>
	<path class="st0" d="M20.78,66.01c-4.58-0.09-9.15-0.17-13.73-0.26"/>
	<path class="st0" d="M20.76,66.57c17.21,0.79,30.52,17.58,29.73,37.49c-0.63,15.93-12.31,28.33-26.07,27.7
		c-11.02-0.51-19.54-11.26-19.03-24c0.4-10.2,7.88-18.13,16.69-17.72c7.05,0.32,12.5,7.2,12.18,15.36
		c-0.26,6.52-5.04,11.6-10.68,11.34c-4.51-0.21-8-4.61-7.79-9.83c0.17-4.18,3.23-7.43,6.83-7.26c2.77,0.13,5.33,3.55,4.99,6.29
		c-0.13,1.07-0.8,2.8-2.25,3.17c-1.41,0.35-2.61-0.83-2.75-0.98"/>
	<path class="st0" d="M20.76,66.57c-4.57-0.34-9.13-0.67-13.7-1.01"/>
	<line class="st6" x1="62.84" y1="125.45" x2="142.88" y2="125.56"/>
	<rect x="50.84" y="17.74" class="st1" width="101.76" height="29.2"/>
	<text transform="matrix(1.1493 0 0 1 50.8389 39.2316)" class="st2 st3 st4"> Y THE</text>
	<text transform="matrix(1.1493 0 0 1 50.8389 39.2316)" class="st5 st3 st4"> Y THE</text>
	<path class="st7" d="M182.33,70.46c-6.81,0-13.84-1.48-21-4.42c-1.28-0.53-1.89-1.99-1.36-3.26c0.53-1.28,1.99-1.89,3.26-1.36
		c10.16,4.18,19.97,5.12,29.13,2.8c2.15-0.54,4.37-1.11,7.03-2.66c13.68-8,17.39-23.11,15.6-30.81c-1.2-5.16-4.26-9.45-8.38-11.75
		c-3.54-1.98-7.61-2.36-11.47-1.07c-6.86,2.29-10.94,10.6-9.09,18.52c0.71,3.06,2.51,5.59,4.93,6.94c2.04,1.14,4.39,1.36,6.61,0.62
		c3.96-1.32,6.31-6.17,5.23-10.8c-0.4-1.71-1.39-3.12-2.72-3.86c-0.77-0.43-2-0.83-3.51-0.33c-2.07,0.69-3.33,3.37-2.76,5.85
		c0.18,0.79,0.81,1.55,1.61,1.94c0.48,0.24,0.85,0.24,0.97,0.19c0.13-0.06,0.61-0.4,0.61-0.78c0-0.37-0.41-0.73-0.41-0.73
		c-1.05-0.88-1.22-2.45-0.35-3.52c0.87-1.06,2.41-1.24,3.48-0.38c0.53,0.43,2.27,2.02,2.28,4.61c0.01,2.58-1.76,4.55-3.53,5.35
		c-1.56,0.71-3.48,0.62-5.25-0.25c-2.15-1.06-3.75-3.03-4.27-5.29c-1.18-5.05,1.48-10.2,6.04-11.73c2.53-0.85,5.21-0.6,7.53,0.7
		c2.55,1.43,4.43,4.01,5.15,7.09c1.65,7.07-2.17,14.55-8.51,16.67c-3.58,1.2-7.35,0.84-10.64-0.99c-3.64-2.04-6.33-5.74-7.36-10.17
		c-2.42-10.36,3.14-21.31,12.38-24.4c5.21-1.74,10.71-1.23,15.49,1.44c5.35,2.99,9.29,8.45,10.81,14.98
		c3.6,15.47-8.58,30.78-17.94,36.26c-3.27,1.91-5.95,2.59-8.32,3.19C189.92,69.99,186.16,70.46,182.33,70.46z"/>
	<path class="st7" d="M193.87,127.68c-0.35,0-0.7-0.01-1.05-0.04c-4.49-0.35-8.96-2.98-12.28-7.22c-3.74-4.78-5.44-10.84-4.55-16.19
		c1.1-6.56,5.84-12.01,11.54-13.25c6.19-1.35,14.05,2.25,15.88,9.76c1.33,5.47-1.33,10.04-1.64,10.54c-1.84,3-4.91,5.1-8.21,5.61
		c-2.68,0.41-5.21-0.28-7.14-1.94c-2.62-2.27-4.6-6.79-3.33-11.03c0.98-3.25,3.62-5.65,6.57-5.98c2.96-0.32,6.37,1.1,7.15,4.44
		c0.64,2.73-0.66,5.78-3.17,7.43c-1.16,0.76-2.7,0.44-3.46-0.71s-0.44-2.7,0.71-3.46c0.8-0.53,1.19-1.52,1.05-2.11
		c-0.13-0.54-1.31-0.65-1.75-0.61c-0.94,0.1-1.94,1.15-2.33,2.44c-0.69,2.29,0.68,4.82,1.82,5.81c1.02,0.88,2.24,0.91,3.1,0.78
		c1.84-0.28,3.64-1.54,4.71-3.28c0.02-0.03,1.9-3.22,1.05-6.74c-1.13-4.61-6.15-6.9-9.96-6.07c-3.63,0.79-6.93,4.75-7.67,9.19
		c-0.67,3.99,0.66,8.58,3.56,12.28c2.46,3.14,5.64,5.08,8.73,5.32c7.1,0.55,12.48-8.2,14.02-14.58c2.64-10.96-4.02-20.5-6.21-23.63
		c-5.73-8.2-13.28-10.74-19.35-12.79c-6.19-2.08-12.63-2.81-19.14-2.17c-1.38,0.15-2.6-0.87-2.74-2.24s0.87-2.6,2.24-2.73
		c7.22-0.72,14.36,0.09,21.23,2.4c6.41,2.16,15.18,5.11,21.85,14.66c6.73,9.63,9.07,18.94,6.97,27.67c-1.1,4.56-3.42,9.1-6.36,12.44
		C202.25,125.62,198.17,127.68,193.87,127.68z"/>
	<path class="st7" d="M158.84,127.24c-0.02,0-0.04,0-0.06,0c-1.38-0.03-2.47-1.18-2.44-2.56l2.62-111.52
		c0.03-1.38,1.18-2.5,2.56-2.44c1.38,0.03,2.47,1.18,2.44,2.56l-2.62,111.52C161.31,126.16,160.2,127.24,158.84,127.24z"/>
	<g>
		<g>
			<path class="st8" d="M162.62,66.48c0.43-0.1-0.47,0.02-0.16,0.02c0.26,0.01-0.61-0.18-0.16-0.01c-0.11-0.04-0.45-0.27-0.19-0.08
				c0.42,0.31-0.42-0.4-0.05-0.03c0.91,0.94,2.63,0.98,3.54,0c0.93-1.01,0.97-2.53,0-3.54c-1.12-1.16-2.75-1.56-4.3-1.19
				c-1.27,0.3-2.15,1.82-1.75,3.08C159.97,66.06,161.26,66.8,162.62,66.48L162.62,66.48z"/>
		</g>
	</g>
	<g>
		<g>
			<path class="st8" d="M162.37,62.28c0.05,0.01,0.11,0.03,0.16,0.04c0.58,0.28,1.08-0.58,0.5-0.86c-0.14-0.07-0.24-0.11-0.4-0.14
				C162.01,61.22,161.73,62.18,162.37,62.28L162.37,62.28z"/>
		</g>
	</g>
	<g>
		<g>
			<path class="st8" d="M165.68,65.11c3.18-0.56,6.38,0.15,9.39,1.17c0.61,0.21,0.87-0.76,0.27-0.96c-3.19-1.08-6.56-1.77-9.92-1.17
				C164.78,64.26,165.05,65.22,165.68,65.11L165.68,65.11z"/>
		</g>
	</g>
	<g>
		<g>
			<path class="st8" d="M162.33,66.46c0.08,0.94-0.65,1.69-0.36,2.66c0.18,0.62,1.15,0.35,0.96-0.27c-0.12-0.41,0.05-0.79,0.19-1.18
				c0.14-0.4,0.24-0.79,0.21-1.22C163.27,65.82,162.27,65.82,162.33,66.46L162.33,66.46z"/>
		</g>
	</g>
	<g>
		<g>
			<path class="st8" d="M187.44,67.98c-0.88,0.09-1.72-0.04-2.51-0.4c-0.09,0.32-0.18,0.64-0.27,0.96c0.69,0.14,1.38,0.27,2.07,0.41
				c0.43,0.08,0.92-0.5,0.49-0.84c-3.26-2.52-8.24-2.8-12.19-3c-0.64-0.03-0.64,0.97,0,1c3.59,0.18,8.48,0.38,11.49,2.71
				c0.16-0.28,0.32-0.56,0.49-0.84c-0.69-0.13-1.38-0.27-2.07-0.41c-0.63-0.12-0.88,0.76-0.27,0.96c0.98,0.33,1.76,0.45,2.78,0.43
				C188.08,68.97,188.08,67.97,187.44,67.98L187.44,67.98z"/>
		</g>
	</g>
	<g>
		<g>
			<path class="st8" d="M187.54,68.96c0.88,0.24,1.73,0.53,2.57,0.87c0.6,0.24,0.86-0.72,0.27-0.96c-0.84-0.34-1.7-0.63-2.57-0.87
				C187.19,67.82,186.92,68.79,187.54,68.96L187.54,68.96z"/>
		</g>
	</g>
</g>
</svg>
