<?xml version="1.0" encoding="utf-8"?>
<!-- Generator: Adobe Illustrator 23.0.3, SVG Export Plug-In . SVG Version: 6.00 Build 0)  -->
<svg version="1.1" id="Layer_1" xmlns="http://www.w3.org/2000/svg" xmlns:xlink="http://www.w3.org/1999/xlink" x="0px" y="0px"
	 viewBox="0 0 118.65 118.49" style="enable-background:new 0 0 118.65 118.49;" xml:space="preserve">
<style type="text/css">
	.st0{fill:none;stroke:#FFFF00;stroke-width:3;stroke-linecap:round;stroke-miterlimit:10;}
	.st1{fill:none;stroke:#36B2EB;stroke-width:3;stroke-linecap:round;stroke-miterlimit:10;}
	.st2{fill:none;stroke:#FF4BBD;stroke-width:3;stroke-linecap:round;stroke-miterlimit:10;}
</style>
<g>
	<path class="st0" d="M105,59.6c0.09,0.05,0.83,0.48,0.85,1.23c0.02,0.77-0.74,1.34-1.24,1.55c-1.29,0.54-3.31-0.26-3.75-1.62
		c-0.57-1.77,0.6-3.74,2.62-4.39c2.52-0.81,5.15,0.32,5.86,2.54c0.89,2.77-0.94,5.84-4.09,6.85c-3.94,1.27-8.04-0.5-9.16-3.97
		c-1.4-4.33,1.47-9.12,6.39-10.71c6.16-1.99,12.56,0.79,14.31,6.2c2.03,6.28-4.85,13.71-9.98,16.74
		c-10.69,6.3-27.33,1.68-42.65-10.68"/>
	<path class="st0" d="M14.59,60.35c-0.09-0.06-0.83-0.54-0.75-1.28c0.08-0.76,0.97-1.25,1.54-1.42c1.46-0.43,3.52,0.52,3.81,1.89
		c0.38,1.78-1.14,3.61-3.4,4.09c-2.81,0.59-5.48-0.73-5.95-2.96c-0.59-2.78,1.79-5.64,5.31-6.38c4.4-0.93,8.56,1.14,9.29,4.62
		c0.92,4.35-2.8,8.81-8.29,9.97C9.28,70.33,2.78,67.1,1.64,61.66c-1.33-6.31,7.45-13.08,12.96-15.58
		C34.56,37,61.59,60.99,64.41,63.55"/>
</g>
<g>
	<path class="st1" d="M105,18.65c0.09,0.05,0.82,0.5,0.83,1.25c0,0.77-0.76,1.32-1.27,1.53c-1.3,0.52-3.3-0.33-3.72-1.7
		c-0.54-1.78,0.67-3.72,2.7-4.33c2.54-0.76,5.14,0.42,5.81,2.65c0.84,2.79-1.05,5.82-4.22,6.77c-3.96,1.19-8.03-0.66-9.08-4.15
		c-1.31-4.35,1.64-9.09,6.6-10.58c6.19-1.86,12.54,1.04,14.18,6.48c1.9,6.32-5.12,13.61-10.31,16.54
		c-10.81,6.09-27.36,1.14-42.43-11.52"/>
	<path class="st1" d="M14.59,17.62c-0.09-0.06-0.82-0.56-0.72-1.29c0.1-0.76,1-1.23,1.57-1.39c1.47-0.4,3.51,0.59,3.77,1.97
		c0.34,1.79-1.22,3.59-3.48,4.02c-2.83,0.54-5.46-0.84-5.89-3.07c-0.53-2.79,1.9-5.6,5.43-6.28c4.41-0.84,8.53,1.31,9.2,4.8
		c0.83,4.37-2.97,8.76-8.49,9.81c-6.9,1.31-13.33-2.05-14.37-7.5C0.41,12.34,9.32,5.74,14.87,3.35
		C35.02-5.33,61.57,19.18,64.34,21.8"/>
</g>
<g>
	<path class="st2" d="M104.99,99.63c0.09,0.05,0.84,0.47,0.87,1.22c0.03,0.77-0.72,1.35-1.22,1.57c-1.28,0.56-3.31-0.22-3.77-1.57
		c-0.6-1.76,0.55-3.74,2.56-4.42c2.51-0.85,5.15,0.25,5.89,2.46c0.93,2.76-0.86,5.85-4,6.91c-3.92,1.32-8.05-0.39-9.21-3.84
		c-1.45-4.31,1.34-9.14,6.24-10.8c6.13-2.07,12.57,0.62,14.39,6c2.11,6.25-4.67,13.78-9.75,16.87c-10.6,6.44-27.3,2.05-42.79-10.1"
		/>
	<path class="st2" d="M14.6,101.61c-0.09-0.06-0.83-0.53-0.76-1.27c0.07-0.76,0.95-1.27,1.52-1.44c1.45-0.45,3.52,0.48,3.83,1.84
		c0.4,1.78-1.1,3.63-3.34,4.13c-2.81,0.63-5.49-0.66-5.99-2.88c-0.62-2.78,1.71-5.67,5.22-6.46c4.38-0.99,8.57,1.02,9.35,4.49
		c0.98,4.34-2.67,8.85-8.15,10.09c-6.85,1.54-13.39-1.6-14.61-7.02C0.25,96.82,8.94,89.92,14.4,87.35
		C34.25,78,61.6,101.61,64.46,104.14"/>
</g>
</svg>
