<svg id="Layer_1" data-name="Layer 1" xmlns="http://www.w3.org/2000/svg" viewBox="0 0 1008 626.4"><defs><style>.cls-1,.cls-14,.cls-15,.cls-16,.cls-17,.cls-23,.cls-26,.cls-38,.cls-49,.cls-57,.cls-63{fill:#fff;}.cls-1,.cls-6{stroke:#a7a9ac;stroke-width:5px;}.cls-1,.cls-10,.cls-14,.cls-15,.cls-16,.cls-17,.cls-18,.cls-19,.cls-2,.cls-20,.cls-21,.cls-22,.cls-23,.cls-27,.cls-28,.cls-29,.cls-3,.cls-30,.cls-31,.cls-32,.cls-33,.cls-35,.cls-36,.cls-37,.cls-38,.cls-39,.cls-4,.cls-40,.cls-41,.cls-42,.cls-43,.cls-44,.cls-45,.cls-46,.cls-47,.cls-48,.cls-49,.cls-5,.cls-50,.cls-51,.cls-52,.cls-53,.cls-54,.cls-55,.cls-56,.cls-57,.cls-58,.cls-59,.cls-6,.cls-60,.cls-61,.cls-62,.cls-63,.cls-64,.cls-65,.cls-66,.cls-67,.cls-68,.cls-69,.cls-7,.cls-71,.cls-72,.cls-73,.cls-8,.cls-9{stroke-miterlimit:10;}.cls-2,.cls-3,.cls-4,.cls-5{fill:#f9e308;stroke:#f9e308;}.cls-10,.cls-15,.cls-17,.cls-3,.cls-5,.cls-67,.cls-68,.cls-69,.cls-71,.cls-72,.cls-8{stroke-linecap:round;}.cls-15,.cls-3,.cls-8{stroke-width:1.4px;}.cls-16,.cls-4,.cls-9{stroke-width:0.47px;}.cls-10,.cls-17,.cls-5{stroke-width:2.79px;}.cls-11,.cls-6,.cls-61{fill:#29b8e4;}.cls-10,.cls-12,.cls-7,.cls-8,.cls-9{fill:#e94897;}.cls-10,.cls-7,.cls-8,.cls-9{stroke:#ef519d;}.cls-13{fill:#f8e300;}.cls-14,.cls-15,.cls-16,.cls-17{stroke:#fff;}.cls-18,.cls-30,.cls-40{fill:#e64097;}.cls-18,.cls-19,.cls-20,.cls-21,.cls-22,.cls-27,.cls-28,.cls-29,.cls-30,.cls-31,.cls-32,.cls-33,.cls-35,.cls-36,.cls-37,.cls-38,.cls-39,.cls-40,.cls-41,.cls-42,.cls-43,.cls-44,.cls-45,.cls-46,.cls-47,.cls-48,.cls-50,.cls-51,.cls-52,.cls-53,.cls-54,.cls-55,.cls-56,.cls-57,.cls-58,.cls-59,.cls-60,.cls-61,.cls-62,.cls-63,.cls-64,.cls-65,.cls-66,.cls-67,.cls-68,.cls-69,.cls-71,.cls-72,.cls-73{stroke:#231f20;}.cls-18{stroke-width:1.98px;}.cls-19,.cls-21,.cls-22{fill:#ef8e23;}.cls-19{stroke-width:1px;}.cls-20,.cls-24,.cls-29,.cls-33,.cls-45,.cls-46,.cls-48,.cls-52,.cls-56,.cls-62,.cls-66{fill:#f8d2af;}.cls-20{stroke-width:3.19px;}.cls-21,.cls-29{stroke-width:1.06px;}.cls-22{stroke-width:0.82px;}.cls-23{stroke:#ef69a7;stroke-width:3.24px;}.cls-25,.cls-27,.cls-28,.cls-50,.cls-51,.cls-55,.cls-58,.cls-59,.cls-60,.cls-65,.cls-73{fill:#231f20;}.cls-27{stroke-width:2.31px;}.cls-28{stroke-width:1.73px;}.cls-30{stroke-width:2.62px;}.cls-31,.cls-32,.cls-39,.cls-43,.cls-44,.cls-64{fill:none;}.cls-31{stroke-width:2.57px;}.cls-32{stroke-width:2.37px;}.cls-33{stroke-width:0.67px;}.cls-34{fill:#ee8d22;}.cls-35,.cls-36,.cls-37{fill:#181700;}.cls-36{stroke-width:0.21px;}.cls-37,.cls-38{stroke-width:0.18px;}.cls-39{stroke-width:2px;}.cls-40{stroke-width:1.93px;}.cls-41,.cls-42,.cls-53{fill:#feda00;}.cls-41{stroke-width:1.8px;}.cls-42,.cls-43{stroke-width:2.42px;}.cls-44{stroke-width:2.23px;}.cls-45{stroke-width:0.58px;}.cls-46{stroke-width:0.63px;}.cls-47{fill:#7f5741;}.cls-47,.cls-52{stroke-width:1px;}.cls-48{stroke-width:2.86px;}.cls-49{stroke:#be1e2d;stroke-width:2.25px;}.cls-50{stroke-width:1.94px;}.cls-51{stroke-width:1.46px;}.cls-53{stroke-width:1.78px;}.cls-54,.cls-68,.cls-69,.cls-71,.cls-72{fill:#dc509d;}.cls-54{stroke-width:2.11px;}.cls-55{stroke-width:1.83px;}.cls-56{stroke-width:2.82px;}.cls-57{stroke-width:2.3px;}.cls-58{stroke-width:2.04px;}.cls-59{stroke-width:1.53px;}.cls-60{stroke-width:1.05px;}.cls-61{stroke-width:2.65px;}.cls-62{stroke-width:1.74px;}.cls-63,.cls-64{stroke-width:1.87px;}.cls-65{stroke-width:2.27px;}.cls-66{stroke-width:0.6px;}.cls-67,.cls-70{fill:#2bb8e4;}.cls-67{stroke-width:1.86px;}.cls-68{stroke-width:2.16px;}.cls-69{stroke-width:1.78px;}.cls-71{stroke-width:1.08px;}.cls-72{stroke-width:2.95px;}.cls-73{stroke-width:0.93px;}</style></defs><title>BlooperBackground</title><rect class="cls-1" x="642.92" y="34.32" width="163.56" height="110.3"/><path class="cls-2" d="M723,104.58a65.51,65.51,0,0,1,48.26-.27"/><path class="cls-3" d="M723,104.58a65.51,65.51,0,0,1,48.26-.27"/><path class="cls-2" d="M675.58,104.86a60.8,60.8,0,0,1,47.35-.45"/><path class="cls-3" d="M675.58,104.86a60.8,60.8,0,0,1,47.35-.45"/><path class="cls-2" d="M698,80.85a4,4,0,0,1,1.63,2.5,5.18,5.18,0,0,1-.29,3,4.93,4.93,0,0,1-2,2.36,6.8,6.8,0,0,1-2.93,1,6.87,6.87,0,0,1-3.1-.39,5.79,5.79,0,0,1-2.61-1.89,6.86,6.86,0,0,1-1.35-2.92,8.56,8.56,0,0,1,0-3.19,8.35,8.35,0,0,1,1.18-3A7.83,7.83,0,0,1,690.84,76a10.82,10.82,0,0,1,6.06-1.79A10.49,10.49,0,0,1,703.09,76a9.88,9.88,0,0,1,2.35,2.39,10.76,10.76,0,0,1,1.47,3,13,13,0,0,1,.27,6.49,13.33,13.33,0,0,1-1,3.11c-.12.25-.24.5-.38.74l-.21.37-.23.35a10.39,10.39,0,0,1-1,1.35A14.38,14.38,0,0,1,699,97.61,18,18,0,0,1,692.67,99a17.82,17.82,0,0,1-6.44-.94l-.79-.28c-.26-.1-.51-.23-.77-.35l-.76-.37c-.25-.14-.5-.28-.74-.43a15.19,15.19,0,0,1-2.68-2.11,15.79,15.79,0,0,1-2.15-2.61,13.85,13.85,0,0,1-.84-1.44c-.13-.25-.27-.5-.39-.76l-.33-.77a18.46,18.46,0,0,1-1.37-6.51,21.33,21.33,0,0,1,.73-6.51,20.17,20.17,0,0,1,2.71-6.11,19.23,19.23,0,0,1,4.7-4.86,24,24,0,0,1,12.14-4.33,27.85,27.85,0,0,1,12.49,1.76,22.05,22.05,0,0,1,2.89,1.41l.7.41c.24.14.47.3.69.45.45.32.88.64,1.29,1a24.37,24.37,0,0,1,4.33,4.58,22.23,22.23,0,0,1,1.64,2.67c.12.23.24.46.35.7l.31.71c.2.47.44.93.59,1.41l.51,1.43c.14.48.27,1,.41,1.44s.26,1,.37,1.43.23,1,.32,1.44a67.15,67.15,0,0,1,1.11,11.51c0,.95,0,1.9,0,2.86s0,1.9-.09,2.85c-.07,1.9-.21,3.79-.4,5.68-.35-3.78-.81-7.52-1.42-11.22a75.72,75.72,0,0,0-2.54-10.82,37.66,37.66,0,0,0-2-5c-.18-.4-.42-.76-.63-1.14l-.32-.55c-.11-.19-.24-.36-.35-.53a20,20,0,0,0-5.3-5.31c-.34-.23-.69-.44-1-.64l-.51-.28-.55-.25a18.14,18.14,0,0,0-2.3-.87,21.84,21.84,0,0,0-9.81-.66,21,21,0,0,0-8.86,3.46A12.25,12.25,0,0,0,685.83,72a12.43,12.43,0,0,0-1.5,1.66,13.74,13.74,0,0,0-1.21,1.91,16,16,0,0,0-.93,2.16,18,18,0,0,0-.62,2.29,15.62,15.62,0,0,0-.25,2.35A12.24,12.24,0,0,0,682,86.9l.19.54c.07.17.16.34.24.51a8.41,8.41,0,0,0,.52,1,10.49,10.49,0,0,0,1.34,1.83A10.73,10.73,0,0,0,686,92.3c.15.11.31.2.47.31l.49.27c.17.08.33.19.51.26l.53.23a13.59,13.59,0,0,0,9.43.18,10.37,10.37,0,0,0,3.93-2.46,7.48,7.48,0,0,0,.73-.87l.18-.23.15-.24a5,5,0,0,0,.29-.5,10.59,10.59,0,0,0,.87-2.21,9.49,9.49,0,0,0,.11-4.7,7.32,7.32,0,0,0-.9-2.14,6.89,6.89,0,0,0-1.49-1.73,7.59,7.59,0,0,0-4.4-1.58A8.44,8.44,0,0,0,692.13,78a5.88,5.88,0,0,0-2.77,3.75,5.7,5.7,0,0,0,.71,4.67,4.26,4.26,0,0,0,1.82,1.51,5.5,5.5,0,0,0,2.45.47A4.67,4.67,0,0,0,698.53,86a4.47,4.47,0,0,0,.44-2.52,3.44,3.44,0,0,0-1.22-2.23"/><path class="cls-4" d="M698,80.85a4,4,0,0,1,1.63,2.5,5.18,5.18,0,0,1-.29,3,4.93,4.93,0,0,1-2,2.36,6.8,6.8,0,0,1-2.93,1,6.87,6.87,0,0,1-3.1-.39,5.79,5.79,0,0,1-2.61-1.89,6.86,6.86,0,0,1-1.35-2.92,8.56,8.56,0,0,1,0-3.19,8.35,8.35,0,0,1,1.18-3A7.83,7.83,0,0,1,690.84,76a10.82,10.82,0,0,1,6.06-1.79A10.49,10.49,0,0,1,703.09,76a9.88,9.88,0,0,1,2.35,2.39,10.76,10.76,0,0,1,1.47,3,13,13,0,0,1,.27,6.49,13.33,13.33,0,0,1-1,3.11c-.12.25-.24.5-.38.74l-.21.37-.23.35a10.39,10.39,0,0,1-1,1.35A14.38,14.38,0,0,1,699,97.61,18,18,0,0,1,692.67,99a17.82,17.82,0,0,1-6.44-.94l-.79-.28c-.26-.1-.51-.23-.77-.35l-.76-.37c-.25-.14-.5-.28-.74-.43a15.19,15.19,0,0,1-2.68-2.11,15.79,15.79,0,0,1-2.15-2.61,13.85,13.85,0,0,1-.84-1.44c-.13-.25-.27-.5-.39-.76l-.33-.77a18.46,18.46,0,0,1-1.37-6.51,21.33,21.33,0,0,1,.73-6.51,20.17,20.17,0,0,1,2.71-6.11,19.23,19.23,0,0,1,4.7-4.86,24,24,0,0,1,12.14-4.33,27.85,27.85,0,0,1,12.49,1.76,22.05,22.05,0,0,1,2.89,1.41l.7.41c.24.14.47.3.69.45.45.32.88.64,1.29,1a24.37,24.37,0,0,1,4.33,4.58,22.23,22.23,0,0,1,1.64,2.67c.12.23.24.46.35.7l.31.71c.2.47.44.93.59,1.41l.51,1.43c.14.48.27,1,.41,1.44s.26,1,.37,1.43.23,1,.32,1.44a67.15,67.15,0,0,1,1.11,11.51c0,.95,0,1.9,0,2.86s0,1.9-.09,2.85c-.07,1.9-.21,3.79-.4,5.68-.35-3.78-.81-7.52-1.42-11.22a75.72,75.72,0,0,0-2.54-10.82,37.66,37.66,0,0,0-2-5c-.18-.4-.42-.76-.63-1.14l-.32-.55c-.11-.19-.24-.36-.35-.53a20,20,0,0,0-5.3-5.31c-.34-.23-.69-.44-1-.64l-.51-.28-.55-.25a18.14,18.14,0,0,0-2.3-.87,21.84,21.84,0,0,0-9.81-.66,21,21,0,0,0-8.86,3.46A12.25,12.25,0,0,0,685.83,72a12.43,12.43,0,0,0-1.5,1.66,13.74,13.74,0,0,0-1.21,1.91,16,16,0,0,0-.93,2.16,18,18,0,0,0-.62,2.29,15.62,15.62,0,0,0-.25,2.35A12.24,12.24,0,0,0,682,86.9l.19.54c.07.17.16.34.24.51a8.41,8.41,0,0,0,.52,1,10.49,10.49,0,0,0,1.34,1.83A10.73,10.73,0,0,0,686,92.3c.15.11.31.2.47.31l.49.27c.17.08.33.19.51.26l.53.23a13.59,13.59,0,0,0,9.43.18,10.37,10.37,0,0,0,3.93-2.46,7.48,7.48,0,0,0,.73-.87l.18-.23.15-.24a5,5,0,0,0,.29-.5,10.59,10.59,0,0,0,.87-2.21,9.49,9.49,0,0,0,.11-4.7,7.32,7.32,0,0,0-.9-2.14,6.89,6.89,0,0,0-1.49-1.73,7.59,7.59,0,0,0-4.4-1.58A8.44,8.44,0,0,0,692.13,78a5.88,5.88,0,0,0-2.77,3.75,5.7,5.7,0,0,0,.71,4.67,4.26,4.26,0,0,0,1.82,1.51,5.5,5.5,0,0,0,2.45.47A4.67,4.67,0,0,0,698.53,86a4.47,4.47,0,0,0,.44-2.52,3.44,3.44,0,0,0-1.22-2.23"/><line class="cls-2" x1="675.08" y1="109.39" x2="770.8" y2="108.87"/><line class="cls-5" x1="675.08" y1="109.39" x2="770.8" y2="108.87"/><path class="cls-2" d="M748.39,80.85a4,4,0,0,0-1.63,2.5,5.35,5.35,0,0,0,.29,3,5,5,0,0,0,2,2.36,6.8,6.8,0,0,0,2.93,1,6.89,6.89,0,0,0,3.1-.39,5.81,5.81,0,0,0,2.6-1.89,6.74,6.74,0,0,0,1.35-2.92,8.35,8.35,0,0,0,0-3.19,8.15,8.15,0,0,0-1.17-3,7.75,7.75,0,0,0-2.3-2.33,10.77,10.77,0,0,0-6.06-1.79A10.52,10.52,0,0,0,743.33,76,10.06,10.06,0,0,0,741,78.41a10.73,10.73,0,0,0-1.46,3,13,13,0,0,0-.28,6.49,13.84,13.84,0,0,0,1,3.11,7.39,7.39,0,0,0,.38.74l.2.37.24.35a10.32,10.32,0,0,0,1,1.35,14.33,14.33,0,0,0,5.37,3.81A18.25,18.25,0,0,0,760.2,98l.78-.28c.27-.1.52-.23.77-.35l.77-.37c.25-.14.5-.28.74-.43a15.66,15.66,0,0,0,4.82-4.72,16,16,0,0,0,.85-1.44c.13-.25.27-.5.38-.76l.34-.77A18.92,18.92,0,0,0,771,82.39a22,22,0,0,0-.73-6.51,20.17,20.17,0,0,0-2.71-6.11,19.23,19.23,0,0,0-4.7-4.86,24,24,0,0,0-12.14-4.33,27.92,27.92,0,0,0-12.5,1.76,22.68,22.68,0,0,0-2.89,1.41l-.69.41c-.24.14-.47.3-.7.45-.44.32-.88.64-1.29,1a24,24,0,0,0-4.32,4.58,21,21,0,0,0-1.64,2.67c-.12.23-.25.46-.36.7l-.31.71c-.2.47-.43.93-.59,1.41l-.5,1.43c-.15.48-.28,1-.42,1.44s-.26,1-.36,1.43-.23,1-.32,1.44a67.17,67.17,0,0,0-1.12,11.51c0,.95,0,1.9,0,2.86s0,1.9.09,2.85c.08,1.9.21,3.79.41,5.68.35-3.78.8-7.52,1.41-11.22a75.74,75.74,0,0,1,2.55-10.82,36.34,36.34,0,0,1,2-5c.18-.4.42-.76.63-1.14l.32-.55c.11-.19.23-.36.35-.53a16.69,16.69,0,0,1,1.55-2,19,19,0,0,1,3.75-3.31c.34-.23.69-.44,1-.64l.52-.28.55-.25a18,18,0,0,1,2.29-.87,21.87,21.87,0,0,1,9.82-.66,20.94,20.94,0,0,1,8.85,3.46,15.39,15.39,0,0,1,3.26,3.11,14.6,14.6,0,0,1,2.14,4.07,18,18,0,0,1,.62,2.29,17,17,0,0,1,.25,2.35,12.67,12.67,0,0,1-.66,4.57l-.2.54c-.06.17-.15.34-.23.51a10.16,10.16,0,0,1-.53,1,11,11,0,0,1-1.33,1.83,10.73,10.73,0,0,1-1.68,1.48c-.16.11-.32.2-.47.31l-.5.27c-.17.08-.32.19-.5.26l-.54.23a13.56,13.56,0,0,1-9.42.18,10.22,10.22,0,0,1-3.93-2.46,7.57,7.57,0,0,1-.74-.87l-.17-.23-.15-.24a5.09,5.09,0,0,1-.3-.5,10.59,10.59,0,0,1-.87-2.21,9.49,9.49,0,0,1-.1-4.7,7.58,7.58,0,0,1,.89-2.14,6.73,6.73,0,0,1,1.5-1.73,7.54,7.54,0,0,1,4.4-1.58A8.46,8.46,0,0,1,754.3,78a5.87,5.87,0,0,1,2.76,3.75,5.66,5.66,0,0,1-.7,4.67,4.28,4.28,0,0,1-1.83,1.51,5.47,5.47,0,0,1-2.45.47A4.65,4.65,0,0,1,747.9,86a4.47,4.47,0,0,1-.44-2.52,3.44,3.44,0,0,1,1.22-2.23"/><path class="cls-4" d="M748.39,80.85a4,4,0,0,0-1.63,2.5,5.35,5.35,0,0,0,.29,3,5,5,0,0,0,2,2.36,6.8,6.8,0,0,0,2.93,1,6.89,6.89,0,0,0,3.1-.39,5.81,5.81,0,0,0,2.6-1.89,6.74,6.74,0,0,0,1.35-2.92,8.35,8.35,0,0,0,0-3.19,8.15,8.15,0,0,0-1.17-3,7.75,7.75,0,0,0-2.3-2.33,10.77,10.77,0,0,0-6.06-1.79A10.52,10.52,0,0,0,743.33,76,10.06,10.06,0,0,0,741,78.41a10.73,10.73,0,0,0-1.46,3,13,13,0,0,0-.28,6.49,13.84,13.84,0,0,0,1,3.11,7.39,7.39,0,0,0,.38.74l.2.37.24.35a10.32,10.32,0,0,0,1,1.35,14.33,14.33,0,0,0,5.37,3.81A18.25,18.25,0,0,0,760.2,98l.78-.28c.27-.1.52-.23.77-.35l.77-.37c.25-.14.5-.28.74-.43a15.66,15.66,0,0,0,4.82-4.72,16,16,0,0,0,.85-1.44c.13-.25.27-.5.38-.76l.34-.77A18.92,18.92,0,0,0,771,82.39a22,22,0,0,0-.73-6.51,20.17,20.17,0,0,0-2.71-6.11,19.23,19.23,0,0,0-4.7-4.86,24,24,0,0,0-12.14-4.33,27.92,27.92,0,0,0-12.5,1.76,22.68,22.68,0,0,0-2.89,1.41l-.69.41c-.24.14-.47.3-.7.45-.44.32-.88.64-1.29,1a24,24,0,0,0-4.32,4.58,21,21,0,0,0-1.64,2.67c-.12.23-.25.46-.36.7l-.31.71c-.2.47-.43.93-.59,1.41l-.5,1.43c-.15.48-.28,1-.42,1.44s-.26,1-.36,1.43-.23,1-.32,1.44a67.17,67.17,0,0,0-1.12,11.51c0,.95,0,1.9,0,2.86s0,1.9.09,2.85c.08,1.9.21,3.79.41,5.68.35-3.78.8-7.52,1.41-11.22a75.74,75.74,0,0,1,2.55-10.82,36.34,36.34,0,0,1,2-5c.18-.4.42-.76.63-1.14l.32-.55c.11-.19.23-.36.35-.53a16.69,16.69,0,0,1,1.55-2,19,19,0,0,1,3.75-3.31c.34-.23.69-.44,1-.64l.52-.28.55-.25a18,18,0,0,1,2.29-.87,21.87,21.87,0,0,1,9.82-.66,20.94,20.94,0,0,1,8.85,3.46,15.39,15.39,0,0,1,3.26,3.11,14.6,14.6,0,0,1,2.14,4.07,18,18,0,0,1,.62,2.29,17,17,0,0,1,.25,2.35,12.67,12.67,0,0,1-.66,4.57l-.2.54c-.06.17-.15.34-.23.51a10.16,10.16,0,0,1-.53,1,11,11,0,0,1-1.33,1.83,10.73,10.73,0,0,1-1.68,1.48c-.16.11-.32.2-.47.31l-.5.27c-.17.08-.32.19-.5.26l-.54.23a13.56,13.56,0,0,1-9.42.18,10.22,10.22,0,0,1-3.93-2.46,7.57,7.57,0,0,1-.74-.87l-.17-.23-.15-.24a5.09,5.09,0,0,1-.3-.5,10.59,10.59,0,0,1-.87-2.21,9.49,9.49,0,0,1-.1-4.7,7.58,7.58,0,0,1,.89-2.14,6.73,6.73,0,0,1,1.5-1.73,7.54,7.54,0,0,1,4.4-1.58A8.46,8.46,0,0,1,754.3,78a5.87,5.87,0,0,1,2.76,3.75,5.66,5.66,0,0,1-.7,4.67,4.28,4.28,0,0,1-1.83,1.51,5.47,5.47,0,0,1-2.45.47A4.65,4.65,0,0,1,747.9,86a4.47,4.47,0,0,1-.44-2.52,3.44,3.44,0,0,1,1.22-2.23"/><line class="cls-2" x1="675.57" y1="105.12" x2="771.28" y2="104.59"/><line class="cls-3" x1="675.57" y1="105.12" x2="771.28" y2="104.59"/><rect class="cls-6" x="425.32" y="32.13" width="163.56" height="110.3"/><rect class="cls-1" x="203.83" y="32.5" width="163.56" height="110.3"/><path class="cls-7" d="M289.08,109.12a65.52,65.52,0,0,1,48.26-.27"/><path class="cls-8" d="M289.08,109.12a65.52,65.52,0,0,1,48.26-.27"/><path class="cls-7" d="M241.63,109.4A60.82,60.82,0,0,1,289,109"/><path class="cls-8" d="M241.63,109.4A60.82,60.82,0,0,1,289,109"/><path class="cls-7" d="M264.09,85.39a4,4,0,0,1,1.63,2.5,5.34,5.34,0,0,1-.29,3,5,5,0,0,1-2,2.36,7.14,7.14,0,0,1-6,.56,5.79,5.79,0,0,1-2.61-1.89A6.86,6.86,0,0,1,253.43,89a8.35,8.35,0,0,1,0-3.19,8.15,8.15,0,0,1,1.17-3,7.86,7.86,0,0,1,2.3-2.33A11,11,0,0,1,263,78.71a10.49,10.49,0,0,1,6.19,1.85A10.06,10.06,0,0,1,271.5,83a11.19,11.19,0,0,1,1.47,3,13,13,0,0,1,.27,6.49,13.84,13.84,0,0,1-1,3.11,5.75,5.75,0,0,1-.38.74l-.2.37-.24.35a10.32,10.32,0,0,1-1,1.35,14.38,14.38,0,0,1-5.36,3.81,18.26,18.26,0,0,1-12.73.41l-.79-.28c-.26-.1-.52-.23-.77-.35l-.77-.37c-.24-.14-.5-.28-.74-.43a15.61,15.61,0,0,1-2.68-2.1,16.78,16.78,0,0,1-2.14-2.62,13.85,13.85,0,0,1-.84-1.44c-.13-.25-.27-.5-.39-.76l-.34-.77a18.92,18.92,0,0,1-1.37-6.51,21.65,21.65,0,0,1,.74-6.51,20.14,20.14,0,0,1,2.7-6.11,19.1,19.1,0,0,1,4.71-4.86,24,24,0,0,1,12.14-4.33,27.89,27.89,0,0,1,12.49,1.76,22.68,22.68,0,0,1,2.89,1.41l.7.41.69.46q.68.47,1.29,1a24,24,0,0,1,4.32,4.58,21,21,0,0,1,1.64,2.67c.12.23.25.46.36.7l.31.71c.2.47.43.94.59,1.42l.5,1.42c.15.48.28,1,.42,1.44s.26,1,.37,1.44.22,1,.31,1.43a67.17,67.17,0,0,1,1.12,11.51c0,1,0,1.9,0,2.86s0,1.9-.09,2.85q-.1,2.85-.41,5.68c-.35-3.78-.8-7.52-1.41-11.22a76.63,76.63,0,0,0-2.54-10.81,37.29,37.29,0,0,0-2-5c-.18-.4-.42-.76-.62-1.13l-.32-.56c-.11-.19-.24-.36-.35-.53a19,19,0,0,0-1.55-2,19.28,19.28,0,0,0-3.75-3.31c-.34-.23-.69-.44-1-.64-.18-.1-.34-.19-.52-.27l-.55-.26a16.57,16.57,0,0,0-2.29-.86,21.7,21.7,0,0,0-9.81-.67,20.93,20.93,0,0,0-8.86,3.46,12.34,12.34,0,0,0-1.76,1.45,13.08,13.08,0,0,0-1.5,1.66,16.73,16.73,0,0,0-1.21,1.91,14.76,14.76,0,0,0-.92,2.16,15.19,15.19,0,0,0-.62,2.29,15.63,15.63,0,0,0-.26,2.36,12.64,12.64,0,0,0,.66,4.56l.2.54c.07.17.16.34.23.51a10.16,10.16,0,0,0,.53,1,11,11,0,0,0,1.33,1.83A10.37,10.37,0,0,0,252,96.84l.46.31.5.27c.17.08.33.19.5.26l.54.23a13.56,13.56,0,0,0,9.42.18,10.22,10.22,0,0,0,3.93-2.46,7.57,7.57,0,0,0,.74-.87l.17-.23.16-.24c.1-.16.2-.33.29-.5a10.59,10.59,0,0,0,.87-2.21,9.49,9.49,0,0,0,.1-4.7,7.58,7.58,0,0,0-.89-2.14A6.73,6.73,0,0,0,267.3,83a7.54,7.54,0,0,0-4.4-1.58,8.46,8.46,0,0,0-4.72,1.07,5.87,5.87,0,0,0-2.76,3.75,5.63,5.63,0,0,0,.71,4.67A4.26,4.26,0,0,0,258,92.43a5.47,5.47,0,0,0,2.45.47,4.67,4.67,0,0,0,4.19-2.37A4.55,4.55,0,0,0,265,88a3.35,3.35,0,0,0-1.22-2.22"/><path class="cls-9" d="M264.09,85.39a4,4,0,0,1,1.63,2.5,5.34,5.34,0,0,1-.29,3,5,5,0,0,1-2,2.36,7.14,7.14,0,0,1-6,.56,5.79,5.79,0,0,1-2.61-1.89A6.86,6.86,0,0,1,253.43,89a8.35,8.35,0,0,1,0-3.19,8.15,8.15,0,0,1,1.17-3,7.86,7.86,0,0,1,2.3-2.33A11,11,0,0,1,263,78.71a10.49,10.49,0,0,1,6.19,1.85A10.06,10.06,0,0,1,271.5,83a11.19,11.19,0,0,1,1.47,3,13,13,0,0,1,.27,6.49,13.84,13.84,0,0,1-1,3.11,5.75,5.75,0,0,1-.38.74l-.2.37-.24.35a10.32,10.32,0,0,1-1,1.35,14.38,14.38,0,0,1-5.36,3.81,18.26,18.26,0,0,1-12.73.41l-.79-.28c-.26-.1-.52-.23-.77-.35l-.77-.37c-.24-.14-.5-.28-.74-.43a15.61,15.61,0,0,1-2.68-2.1,16.78,16.78,0,0,1-2.14-2.62,13.85,13.85,0,0,1-.84-1.44c-.13-.25-.27-.5-.39-.76l-.34-.77a18.92,18.92,0,0,1-1.37-6.51,21.65,21.65,0,0,1,.74-6.51,20.14,20.14,0,0,1,2.7-6.11,19.1,19.1,0,0,1,4.71-4.86,24,24,0,0,1,12.14-4.33,27.89,27.89,0,0,1,12.49,1.76,22.68,22.68,0,0,1,2.89,1.41l.7.41.69.46q.68.47,1.29,1a24,24,0,0,1,4.32,4.58,21,21,0,0,1,1.64,2.67c.12.23.25.46.36.7l.31.71c.2.47.43.94.59,1.42l.5,1.42c.15.48.28,1,.42,1.44s.26,1,.37,1.44.22,1,.31,1.43a67.17,67.17,0,0,1,1.12,11.51c0,1,0,1.9,0,2.86s0,1.9-.09,2.85q-.1,2.85-.41,5.68c-.35-3.78-.8-7.52-1.41-11.22a76.63,76.63,0,0,0-2.54-10.81,37.29,37.29,0,0,0-2-5c-.18-.4-.42-.76-.62-1.13l-.32-.56c-.11-.19-.24-.36-.35-.53a19,19,0,0,0-1.55-2,19.28,19.28,0,0,0-3.75-3.31c-.34-.23-.69-.44-1-.64-.18-.1-.34-.19-.52-.27l-.55-.26a16.57,16.57,0,0,0-2.29-.86,21.7,21.7,0,0,0-9.81-.67,20.93,20.93,0,0,0-8.86,3.46,12.34,12.34,0,0,0-1.76,1.45,13.08,13.08,0,0,0-1.5,1.66,16.73,16.73,0,0,0-1.21,1.91,14.76,14.76,0,0,0-.92,2.16,15.19,15.19,0,0,0-.62,2.29,15.63,15.63,0,0,0-.26,2.36,12.64,12.64,0,0,0,.66,4.56l.2.54c.07.17.16.34.23.51a10.16,10.16,0,0,0,.53,1,11,11,0,0,0,1.33,1.83A10.37,10.37,0,0,0,252,96.84l.46.31.5.27c.17.08.33.19.5.26l.54.23a13.56,13.56,0,0,0,9.42.18,10.22,10.22,0,0,0,3.93-2.46,7.57,7.57,0,0,0,.74-.87l.17-.23.16-.24c.1-.16.2-.33.29-.5a10.59,10.59,0,0,0,.87-2.21,9.49,9.49,0,0,0,.1-4.7,7.58,7.58,0,0,0-.89-2.14A6.73,6.73,0,0,0,267.3,83a7.54,7.54,0,0,0-4.4-1.58,8.46,8.46,0,0,0-4.72,1.07,5.87,5.87,0,0,0-2.76,3.75,5.63,5.63,0,0,0,.71,4.67A4.26,4.26,0,0,0,258,92.43a5.47,5.47,0,0,0,2.45.47,4.67,4.67,0,0,0,4.19-2.37A4.55,4.55,0,0,0,265,88a3.35,3.35,0,0,0-1.22-2.22"/><line class="cls-7" x1="241.14" y1="113.93" x2="336.85" y2="113.41"/><line class="cls-10" x1="241.14" y1="113.93" x2="336.85" y2="113.41"/><path class="cls-7" d="M314.45,85.39a4,4,0,0,0-1.63,2.5,5.25,5.25,0,0,0,.29,3,4.93,4.93,0,0,0,2,2.36,7.14,7.14,0,0,0,6,.56,5.79,5.79,0,0,0,2.61-1.89A6.86,6.86,0,0,0,325.11,89a8.35,8.35,0,0,0,0-3.19,8.17,8.17,0,0,0-1.18-3,7.83,7.83,0,0,0-2.29-2.33,11,11,0,0,0-6.06-1.79,10.49,10.49,0,0,0-6.19,1.85A10.06,10.06,0,0,0,307,83a11.19,11.19,0,0,0-1.47,3,13,13,0,0,0-.27,6.49,13.33,13.33,0,0,0,1,3.11c.12.25.24.5.38.74l.21.37.24.35a10.32,10.32,0,0,0,1,1.35,14.38,14.38,0,0,0,5.36,3.81,18.26,18.26,0,0,0,12.73.41l.79-.28c.26-.1.51-.23.77-.35l.77-.37.74-.43A15.61,15.61,0,0,0,332,99a16.78,16.78,0,0,0,2.14-2.62A13.85,13.85,0,0,0,335,95c.13-.25.27-.5.39-.76l.33-.77a18.46,18.46,0,0,0,1.37-6.51,21.33,21.33,0,0,0-.73-6.51,20.39,20.39,0,0,0-2.7-6.11,19.44,19.44,0,0,0-4.71-4.86,24,24,0,0,0-12.14-4.33,27.85,27.85,0,0,0-12.49,1.76,22.68,22.68,0,0,0-2.89,1.41l-.7.41c-.23.15-.47.3-.69.46q-.67.47-1.29,1a24.37,24.37,0,0,0-4.33,4.58,22.23,22.23,0,0,0-1.64,2.67c-.11.23-.24.46-.35.7l-.31.71c-.2.47-.44.94-.59,1.42l-.5,1.42c-.15.48-.28,1-.42,1.44s-.26,1-.37,1.44-.23,1-.32,1.43a68.16,68.16,0,0,0-1.11,11.51c0,1,0,1.9,0,2.86s0,1.9.09,2.85q.11,2.85.41,5.68c.34-3.78.8-7.52,1.41-11.22a76.63,76.63,0,0,1,2.54-10.81,36,36,0,0,1,2-5c.17-.4.42-.76.62-1.13l.32-.56c.11-.19.24-.36.35-.53a20,20,0,0,1,5.3-5.31c.34-.23.69-.44,1-.64a5.12,5.12,0,0,1,.52-.27l.55-.26a16.1,16.1,0,0,1,2.29-.86,21.7,21.7,0,0,1,9.81-.67,21,21,0,0,1,8.86,3.46,15,15,0,0,1,3.25,3.11,15.52,15.52,0,0,1,1.22,1.91,15.93,15.93,0,0,1,.92,2.16,16.48,16.48,0,0,1,.62,2.29,15.63,15.63,0,0,1,.26,2.36,12.43,12.43,0,0,1-.67,4.56l-.19.54c-.07.17-.16.34-.23.51a10.16,10.16,0,0,1-.53,1,10.49,10.49,0,0,1-1.34,1.83,10.3,10.3,0,0,1-1.68,1.48l-.46.31-.5.27c-.17.08-.33.19-.51.26l-.53.23a13.59,13.59,0,0,1-9.43.18,10.37,10.37,0,0,1-3.93-2.46,7.48,7.48,0,0,1-.73-.87l-.18-.23-.15-.24a5,5,0,0,1-.29-.5,10.59,10.59,0,0,1-.87-2.21,9.37,9.37,0,0,1-.1-4.7,7,7,0,0,1,.89-2.14,6.73,6.73,0,0,1,1.5-1.73,7.54,7.54,0,0,1,4.4-1.58,8.41,8.41,0,0,1,4.71,1.07,5.85,5.85,0,0,1,2.77,3.75,5.7,5.7,0,0,1-.71,4.67,4.26,4.26,0,0,1-1.82,1.51,5.5,5.5,0,0,1-2.45.47A4.67,4.67,0,0,1,314,90.53a4.47,4.47,0,0,1-.43-2.52,3.34,3.34,0,0,1,1.21-2.22"/><path class="cls-9" d="M314.45,85.39a4,4,0,0,0-1.63,2.5,5.25,5.25,0,0,0,.29,3,4.93,4.93,0,0,0,2,2.36,7.14,7.14,0,0,0,6,.56,5.79,5.79,0,0,0,2.61-1.89A6.86,6.86,0,0,0,325.11,89a8.35,8.35,0,0,0,0-3.19,8.17,8.17,0,0,0-1.18-3,7.83,7.83,0,0,0-2.29-2.33,11,11,0,0,0-6.06-1.79,10.49,10.49,0,0,0-6.19,1.85A10.06,10.06,0,0,0,307,83a11.19,11.19,0,0,0-1.47,3,13,13,0,0,0-.27,6.49,13.33,13.33,0,0,0,1,3.11c.12.25.24.5.38.74l.21.37.24.35a10.32,10.32,0,0,0,1,1.35,14.38,14.38,0,0,0,5.36,3.81,18.26,18.26,0,0,0,12.73.41l.79-.28c.26-.1.51-.23.77-.35l.77-.37.74-.43A15.61,15.61,0,0,0,332,99a16.78,16.78,0,0,0,2.14-2.62A13.85,13.85,0,0,0,335,95c.13-.25.27-.5.39-.76l.33-.77a18.46,18.46,0,0,0,1.37-6.51,21.33,21.33,0,0,0-.73-6.51,20.39,20.39,0,0,0-2.7-6.11,19.44,19.44,0,0,0-4.71-4.86,24,24,0,0,0-12.14-4.33,27.85,27.85,0,0,0-12.49,1.76,22.68,22.68,0,0,0-2.89,1.41l-.7.41c-.23.15-.47.3-.69.46q-.67.47-1.29,1a24.37,24.37,0,0,0-4.33,4.58,22.23,22.23,0,0,0-1.64,2.67c-.11.23-.24.46-.35.7l-.31.71c-.2.47-.44.94-.59,1.42l-.5,1.42c-.15.48-.28,1-.42,1.44s-.26,1-.37,1.44-.23,1-.32,1.43a68.16,68.16,0,0,0-1.11,11.51c0,1,0,1.9,0,2.86s0,1.9.09,2.85q.11,2.85.41,5.68c.34-3.78.8-7.52,1.41-11.22a76.63,76.63,0,0,1,2.54-10.81,36,36,0,0,1,2-5c.17-.4.42-.76.62-1.13l.32-.56c.11-.19.24-.36.35-.53a20,20,0,0,1,5.3-5.31c.34-.23.69-.44,1-.64a5.12,5.12,0,0,1,.52-.27l.55-.26a16.1,16.1,0,0,1,2.29-.86,21.7,21.7,0,0,1,9.81-.67,21,21,0,0,1,8.86,3.46,15,15,0,0,1,3.25,3.11,15.52,15.52,0,0,1,1.22,1.91,15.93,15.93,0,0,1,.92,2.16,16.48,16.48,0,0,1,.62,2.29,15.63,15.63,0,0,1,.26,2.36,12.43,12.43,0,0,1-.67,4.56l-.19.54c-.07.17-.16.34-.23.51a10.16,10.16,0,0,1-.53,1,10.49,10.49,0,0,1-1.34,1.83,10.3,10.3,0,0,1-1.68,1.48l-.46.31-.5.27c-.17.08-.33.19-.51.26l-.53.23a13.59,13.59,0,0,1-9.43.18,10.37,10.37,0,0,1-3.93-2.46,7.48,7.48,0,0,1-.73-.87l-.18-.23-.15-.24a5,5,0,0,1-.29-.5,10.59,10.59,0,0,1-.87-2.21,9.37,9.37,0,0,1-.1-4.7,7,7,0,0,1,.89-2.14,6.73,6.73,0,0,1,1.5-1.73,7.54,7.54,0,0,1,4.4-1.58,8.41,8.41,0,0,1,4.71,1.07,5.85,5.85,0,0,1,2.77,3.75,5.7,5.7,0,0,1-.71,4.67,4.26,4.26,0,0,1-1.82,1.51,5.5,5.5,0,0,1-2.45.47A4.67,4.67,0,0,1,314,90.53a4.47,4.47,0,0,1-.43-2.52,3.34,3.34,0,0,1,1.21-2.22"/><line class="cls-7" x1="241.62" y1="109.66" x2="337.34" y2="109.13"/><line class="cls-8" x1="241.62" y1="109.66" x2="337.34" y2="109.13"/><rect class="cls-11" x="55.14" y="-1.29" width="26.98" height="627.69"/><rect class="cls-12" x="87.8" y="-1.29" width="26.98" height="627.69"/><rect class="cls-13" x="22.48" y="-1.29" width="26.98" height="627.69"/><path class="cls-14" d="M506.41,104.74A65.1,65.1,0,0,1,532.56,100a64.44,64.44,0,0,1,22.11,4.46"/><path class="cls-15" d="M506.41,104.74A65.1,65.1,0,0,1,532.56,100a64.44,64.44,0,0,1,22.11,4.46"/><path class="cls-14" d="M459,105a60.76,60.76,0,0,1,25.65-5,60,60,0,0,1,21.7,4.56"/><path class="cls-15" d="M459,105a60.76,60.76,0,0,1,25.65-5,60,60,0,0,1,21.7,4.56"/><path class="cls-14" d="M481.42,81a4,4,0,0,1,1.63,2.5,5.3,5.3,0,0,1-.3,3,5,5,0,0,1-2,2.35,6.68,6.68,0,0,1-2.93,1,7.18,7.18,0,0,1-3.1-.39,6.05,6.05,0,0,1-2.61-1.89,6.94,6.94,0,0,1-1.34-2.93,8.3,8.3,0,0,1,0-3.18,8.4,8.4,0,0,1,1.18-3,7.86,7.86,0,0,1,2.3-2.33,10.93,10.93,0,0,1,6.06-1.79,10.62,10.62,0,0,1,6.19,1.86,10,10,0,0,1,2.34,2.38,11,11,0,0,1,1.47,3,13,13,0,0,1,.28,6.5,13.93,13.93,0,0,1-1,3.1c-.12.26-.24.51-.38.75l-.2.37-.24.35a11,11,0,0,1-1,1.35,14.38,14.38,0,0,1-5.37,3.8,17.79,17.79,0,0,1-6.29,1.36,18.08,18.08,0,0,1-6.44-.94l-.78-.29c-.27-.09-.52-.23-.78-.34l-.76-.37c-.25-.14-.5-.28-.74-.43a15.19,15.19,0,0,1-2.68-2.11A16.29,16.29,0,0,1,461.72,92c-.31-.47-.57-.93-.84-1.44-.13-.25-.27-.5-.39-.75l-.33-.78a18.86,18.86,0,0,1-1.37-6.5,21.67,21.67,0,0,1,.73-6.52,20.39,20.39,0,0,1,2.71-6.11,19.23,19.23,0,0,1,4.7-4.86,24,24,0,0,1,12.14-4.33,27.78,27.78,0,0,1,12.5,1.77,23.29,23.29,0,0,1,2.89,1.4l.69.41.7.46c.44.31.87.63,1.29,1a24,24,0,0,1,4.32,4.58A21.47,21.47,0,0,1,503.1,73c.12.23.25.46.36.69l.31.71c.19.48.43.94.58,1.42l.51,1.43c.15.48.28,1,.42,1.43s.26,1,.36,1.44.23,1,.32,1.44a67.15,67.15,0,0,1,1.12,11.5c0,1,0,1.91,0,2.86s0,1.91-.08,2.85c-.08,1.9-.21,3.8-.41,5.68-.35-3.77-.8-7.52-1.42-11.22a74,74,0,0,0-2.54-10.81,35.84,35.84,0,0,0-2-5c-.18-.41-.42-.76-.63-1.14l-.32-.56c-.11-.18-.23-.35-.35-.53a17.53,17.53,0,0,0-1.55-2A19,19,0,0,0,494,69.91c-.34-.23-.69-.44-1-.63l-.52-.28-.55-.26a16.57,16.57,0,0,0-2.29-.86,21.75,21.75,0,0,0-9.82-.66A20.81,20.81,0,0,0,471,70.68a13,13,0,0,0-1.76,1.44,13.16,13.16,0,0,0-1.5,1.67,14.73,14.73,0,0,0-2.14,4.06,18.14,18.14,0,0,0-.62,2.3,17,17,0,0,0-.25,2.35,12.43,12.43,0,0,0,.66,4.56l.19.54c.07.18.16.34.24.52a7.73,7.73,0,0,0,.53,1A11,11,0,0,0,467.65,91a10.3,10.3,0,0,0,1.68,1.49l.47.3.5.27c.17.09.32.19.5.27l.54.22a13.56,13.56,0,0,0,9.42.18,10.06,10.06,0,0,0,3.93-2.46,6.18,6.18,0,0,0,.74-.87l.17-.22.15-.24c.11-.16.2-.33.3-.51a9.66,9.66,0,0,0,.86-2.21,9.37,9.37,0,0,0,.11-4.7,7.83,7.83,0,0,0-.89-2.14,6.73,6.73,0,0,0-1.5-1.73,7.68,7.68,0,0,0-4.4-1.58,8.44,8.44,0,0,0-4.72,1.07,5.89,5.89,0,0,0-2.76,3.76,5.64,5.64,0,0,0,.7,4.66,4.31,4.31,0,0,0,1.83,1.52,5.58,5.58,0,0,0,2.45.46,4.64,4.64,0,0,0,4.18-2.37,4.44,4.44,0,0,0,.44-2.51,3.44,3.44,0,0,0-1.22-2.23"/><path class="cls-16" d="M481.42,81a4,4,0,0,1,1.63,2.5,5.3,5.3,0,0,1-.3,3,5,5,0,0,1-2,2.35,6.68,6.68,0,0,1-2.93,1,7.18,7.18,0,0,1-3.1-.39,6.05,6.05,0,0,1-2.61-1.89,6.94,6.94,0,0,1-1.34-2.93,8.3,8.3,0,0,1,0-3.18,8.4,8.4,0,0,1,1.18-3,7.86,7.86,0,0,1,2.3-2.33,10.93,10.93,0,0,1,6.06-1.79,10.62,10.62,0,0,1,6.19,1.86,10,10,0,0,1,2.34,2.38,11,11,0,0,1,1.47,3,13,13,0,0,1,.28,6.5,13.93,13.93,0,0,1-1,3.1c-.12.26-.24.51-.38.75l-.2.37-.24.35a11,11,0,0,1-1,1.35,14.38,14.38,0,0,1-5.37,3.8,17.79,17.79,0,0,1-6.29,1.36,18.08,18.08,0,0,1-6.44-.94l-.78-.29c-.27-.09-.52-.23-.78-.34l-.76-.37c-.25-.14-.5-.28-.74-.43a15.19,15.19,0,0,1-2.68-2.11A16.29,16.29,0,0,1,461.72,92c-.31-.47-.57-.93-.84-1.44-.13-.25-.27-.5-.39-.75l-.33-.78a18.86,18.86,0,0,1-1.37-6.5,21.67,21.67,0,0,1,.73-6.52,20.39,20.39,0,0,1,2.71-6.11,19.23,19.23,0,0,1,4.7-4.86,24,24,0,0,1,12.14-4.33,27.78,27.78,0,0,1,12.5,1.77,23.29,23.29,0,0,1,2.89,1.4l.69.41.7.46c.44.31.87.63,1.29,1a24,24,0,0,1,4.32,4.58A21.47,21.47,0,0,1,503.1,73c.12.23.25.46.36.69l.31.71c.19.48.43.94.58,1.42l.51,1.43c.15.48.28,1,.42,1.43s.26,1,.36,1.44.23,1,.32,1.44a67.15,67.15,0,0,1,1.12,11.5c0,1,0,1.91,0,2.86s0,1.91-.08,2.85c-.08,1.9-.21,3.8-.41,5.68-.35-3.77-.8-7.52-1.42-11.22a74,74,0,0,0-2.54-10.81,35.84,35.84,0,0,0-2-5c-.18-.41-.42-.76-.63-1.14l-.32-.56c-.11-.18-.23-.35-.35-.53a17.53,17.53,0,0,0-1.55-2A19,19,0,0,0,494,69.91c-.34-.23-.69-.44-1-.63l-.52-.28-.55-.26a16.57,16.57,0,0,0-2.29-.86,21.75,21.75,0,0,0-9.82-.66A20.81,20.81,0,0,0,471,70.68a13,13,0,0,0-1.76,1.44,13.16,13.16,0,0,0-1.5,1.67,14.73,14.73,0,0,0-2.14,4.06,18.14,18.14,0,0,0-.62,2.3,17,17,0,0,0-.25,2.35,12.43,12.43,0,0,0,.66,4.56l.19.54c.07.18.16.34.24.52a7.73,7.73,0,0,0,.53,1A11,11,0,0,0,467.65,91a10.3,10.3,0,0,0,1.68,1.49l.47.3.5.27c.17.09.32.19.5.27l.54.22a13.56,13.56,0,0,0,9.42.18,10.06,10.06,0,0,0,3.93-2.46,6.18,6.18,0,0,0,.74-.87l.17-.22.15-.24c.11-.16.2-.33.3-.51a9.66,9.66,0,0,0,.86-2.21,9.37,9.37,0,0,0,.11-4.7,7.83,7.83,0,0,0-.89-2.14,6.73,6.73,0,0,0-1.5-1.73,7.68,7.68,0,0,0-4.4-1.58,8.44,8.44,0,0,0-4.72,1.07,5.89,5.89,0,0,0-2.76,3.76,5.64,5.64,0,0,0,.7,4.66,4.31,4.31,0,0,0,1.83,1.52,5.58,5.58,0,0,0,2.45.46,4.64,4.64,0,0,0,4.18-2.37,4.44,4.44,0,0,0,.44-2.51,3.44,3.44,0,0,0-1.22-2.23"/><line class="cls-14" x1="458.47" y1="109.56" x2="554.18" y2="109.03"/><line class="cls-17" x1="458.47" y1="109.56" x2="554.18" y2="109.03"/><path class="cls-14" d="M531.78,81a4,4,0,0,0-1.63,2.5,5.21,5.21,0,0,0,.29,3,5,5,0,0,0,2,2.35,6.68,6.68,0,0,0,2.93,1,7.18,7.18,0,0,0,3.1-.39,6,6,0,0,0,2.61-1.89,7,7,0,0,0,1.35-2.93,8.5,8.5,0,0,0,0-3.18,8.4,8.4,0,0,0-1.18-3A8,8,0,0,0,539,76.12a11,11,0,0,0-6.06-1.79,10.63,10.63,0,0,0-6.2,1.86,10.16,10.16,0,0,0-2.34,2.38,11,11,0,0,0-1.47,3,13,13,0,0,0-.28,6.5,13.93,13.93,0,0,0,1,3.1c.12.26.24.51.38.75l.21.37.23.35a11.11,11.11,0,0,0,1,1.35,14.35,14.35,0,0,0,5.36,3.8,17.79,17.79,0,0,0,6.29,1.36,18.08,18.08,0,0,0,6.44-.94l.79-.29c.26-.09.51-.23.77-.34l.76-.37c.25-.14.5-.28.74-.43a15.19,15.19,0,0,0,2.68-2.11A16.29,16.29,0,0,0,551.47,92c.31-.47.57-.93.84-1.44.13-.25.27-.5.39-.75l.33-.78a18.41,18.41,0,0,0,1.37-6.5,21.67,21.67,0,0,0-.73-6.52A20.39,20.39,0,0,0,551,69.93a19.23,19.23,0,0,0-4.7-4.86,24,24,0,0,0-12.14-4.33,27.78,27.78,0,0,0-12.5,1.77,22.5,22.5,0,0,0-2.88,1.4l-.7.41c-.24.15-.47.3-.69.46-.45.31-.88.63-1.29,1a24.07,24.07,0,0,0-4.33,4.58A21.47,21.47,0,0,0,510.09,73c-.12.23-.25.46-.35.69l-.32.71c-.19.48-.43.94-.58,1.42l-.51,1.43c-.15.48-.27,1-.41,1.43s-.27,1-.37,1.44-.23,1-.32,1.44a67.15,67.15,0,0,0-1.12,11.5c0,1,0,1.91,0,2.86s0,1.91.08,2.85c.08,1.9.22,3.8.41,5.68.35-3.77.8-7.52,1.42-11.22a75.27,75.27,0,0,1,2.54-10.81,35.84,35.84,0,0,1,2-5c.18-.41.42-.76.63-1.14l.32-.56c.11-.18.23-.35.35-.53a20.13,20.13,0,0,1,1.55-2,19,19,0,0,1,3.75-3.31c.34-.23.69-.44,1-.63l.51-.28.55-.26a16.7,16.7,0,0,1,2.3-.86,21.7,21.7,0,0,1,9.81-.66,20.9,20.9,0,0,1,8.86,3.46A13.54,13.54,0,0,1,544,72.12a13.16,13.16,0,0,1,1.5,1.67,14.73,14.73,0,0,1,2.14,4.06,18.14,18.14,0,0,1,.62,2.3,15.62,15.62,0,0,1,.25,2.35,12.22,12.22,0,0,1-.66,4.56l-.19.54c-.07.18-.16.34-.24.52a9,9,0,0,1-.52,1A11.63,11.63,0,0,1,545.54,91a10.3,10.3,0,0,1-1.68,1.49l-.47.3-.5.27c-.16.09-.32.19-.5.27l-.53.22a13.59,13.59,0,0,1-9.43.18,10.13,10.13,0,0,1-3.93-2.46,5.52,5.52,0,0,1-.73-.87l-.18-.22-.15-.24a4.21,4.21,0,0,1-.29-.51,10.17,10.17,0,0,1-.87-2.21,9.48,9.48,0,0,1-.11-4.7,7.56,7.56,0,0,1,.9-2.14,6.7,6.7,0,0,1,1.49-1.73,7.7,7.7,0,0,1,4.4-1.58,8.44,8.44,0,0,1,4.72,1.07,5.9,5.9,0,0,1,2.77,3.76,5.68,5.68,0,0,1-.71,4.66,4.28,4.28,0,0,1-1.82,1.52,5.63,5.63,0,0,1-2.45.46,4.65,4.65,0,0,1-4.19-2.37,4.44,4.44,0,0,1-.44-2.51,3.44,3.44,0,0,1,1.22-2.23"/><path class="cls-16" d="M531.78,81a4,4,0,0,0-1.63,2.5,5.21,5.21,0,0,0,.29,3,5,5,0,0,0,2,2.35,6.68,6.68,0,0,0,2.93,1,7.18,7.18,0,0,0,3.1-.39,6,6,0,0,0,2.61-1.89,7,7,0,0,0,1.35-2.93,8.5,8.5,0,0,0,0-3.18,8.4,8.4,0,0,0-1.18-3A8,8,0,0,0,539,76.12a11,11,0,0,0-6.06-1.79,10.63,10.63,0,0,0-6.2,1.86,10.16,10.16,0,0,0-2.34,2.38,11,11,0,0,0-1.47,3,13,13,0,0,0-.28,6.5,13.93,13.93,0,0,0,1,3.1c.12.26.24.51.38.75l.21.37.23.35a11.11,11.11,0,0,0,1,1.35,14.35,14.35,0,0,0,5.36,3.8,17.79,17.79,0,0,0,6.29,1.36,18.08,18.08,0,0,0,6.44-.94l.79-.29c.26-.09.51-.23.77-.34l.76-.37c.25-.14.5-.28.74-.43a15.19,15.19,0,0,0,2.68-2.11A16.29,16.29,0,0,0,551.47,92c.31-.47.57-.93.84-1.44.13-.25.27-.5.39-.75l.33-.78a18.41,18.41,0,0,0,1.37-6.5,21.67,21.67,0,0,0-.73-6.52A20.39,20.39,0,0,0,551,69.93a19.23,19.23,0,0,0-4.7-4.86,24,24,0,0,0-12.14-4.33,27.78,27.78,0,0,0-12.5,1.77,22.5,22.5,0,0,0-2.88,1.4l-.7.41c-.24.15-.47.3-.69.46-.45.31-.88.63-1.29,1a24.07,24.07,0,0,0-4.33,4.58A21.47,21.47,0,0,0,510.09,73c-.12.23-.25.46-.35.69l-.32.71c-.19.48-.43.94-.58,1.42l-.51,1.43c-.15.48-.27,1-.41,1.43s-.27,1-.37,1.44-.23,1-.32,1.44a67.15,67.15,0,0,0-1.12,11.5c0,1,0,1.91,0,2.86s0,1.91.08,2.85c.08,1.9.22,3.8.41,5.68.35-3.77.8-7.52,1.42-11.22a75.27,75.27,0,0,1,2.54-10.81,35.84,35.84,0,0,1,2-5c.18-.41.42-.76.63-1.14l.32-.56c.11-.18.23-.35.35-.53a20.13,20.13,0,0,1,1.55-2,19,19,0,0,1,3.75-3.31c.34-.23.69-.44,1-.63l.51-.28.55-.26a16.7,16.7,0,0,1,2.3-.86,21.7,21.7,0,0,1,9.81-.66,20.9,20.9,0,0,1,8.86,3.46A13.54,13.54,0,0,1,544,72.12a13.16,13.16,0,0,1,1.5,1.67,14.73,14.73,0,0,1,2.14,4.06,18.14,18.14,0,0,1,.62,2.3,15.62,15.62,0,0,1,.25,2.35,12.22,12.22,0,0,1-.66,4.56l-.19.54c-.07.18-.16.34-.24.52a9,9,0,0,1-.52,1A11.63,11.63,0,0,1,545.54,91a10.3,10.3,0,0,1-1.68,1.49l-.47.3-.5.27c-.16.09-.32.19-.5.27l-.53.22a13.59,13.59,0,0,1-9.43.18,10.13,10.13,0,0,1-3.93-2.46,5.52,5.52,0,0,1-.73-.87l-.18-.22-.15-.24a4.21,4.21,0,0,1-.29-.51,10.17,10.17,0,0,1-.87-2.21,9.48,9.48,0,0,1-.11-4.7,7.56,7.56,0,0,1,.9-2.14,6.7,6.7,0,0,1,1.49-1.73,7.7,7.7,0,0,1,4.4-1.58,8.44,8.44,0,0,1,4.72,1.07,5.9,5.9,0,0,1,2.77,3.76,5.68,5.68,0,0,1-.71,4.66,4.28,4.28,0,0,1-1.82,1.52,5.63,5.63,0,0,1-2.45.46,4.65,4.65,0,0,1-4.19-2.37,4.44,4.44,0,0,1-.44-2.51,3.44,3.44,0,0,1,1.22-2.23"/><line class="cls-14" x1="458.95" y1="105.28" x2="554.67" y2="104.76"/><line class="cls-15" x1="458.95" y1="105.28" x2="554.67" y2="104.76"/><path class="cls-18" d="M117.51,402.57l-3.18-19.38c-.33-.79-4.28-9.9-14.53-12C89.13,369.05,81.52,376.48,81,377L70.78,394.12Z"/><path class="cls-18" d="M122.81,433.89c4.65-3.13,13.55-10.09,13.42-18.63-.24-16.77-34.33-24.87-38-25.73-17.82-4.23-43.15-3.93-46.68,5.64-1.67,4.5,1.83,10.15,6.38,15.22.44-3.31,1.64-8.27,5.54-11.66,7.16-6.23,18.59-3,36.85,2.43,16.33,4.85,24.56,7.42,26.92,14.51S125.11,430.53,122.81,433.89Z"/><path class="cls-19" d="M114.3,490.13a29,29,0,0,1,1.89,14.36,27.86,27.86,0,0,1-6.59,15.09c4.55.61,7.8,5.16,7.73,10.13-.09,5.72-4.58,10.89-9.91,10.44,3,2.47,4.34,7,3.39,11.2-1,4.56-4.54,7.89-8.52,8a9.46,9.46,0,0,1,2.89,9.36,8.26,8.26,0,0,1-5.92,6.52c3,.88,4.89,4.37,4.42,7.77-.53,3.85-3.92,6.77-7.39,5.85q-3,21.21-6.08,42.42l-16-4.36,19.64-44.06a9.2,9.2,0,0,1-3.48-7.08,8.93,8.93,0,0,1,7.58-8.68c-4.94-2.35-6.81-9.07-4.79-13.79a8.24,8.24,0,0,1,9.32-5,10.26,10.26,0,0,1-4.75-9.62c.38-4.95,4.23-9.27,9-9.32a24.23,24.23,0,0,1,.08-30.58c-.52-2.35-1-4.69-1.55-7-2.42.32-18.15,2.2-21.49-6.16-4.51-11.27,14.82-37.84,24.29-34C114.25,454.06,117.22,470.29,114.3,490.13Z"/><ellipse class="cls-20" cx="83.04" cy="449.44" rx="57.15" ry="42.62" transform="translate(-369.67 386.59) rotate(-71.63)"/><path class="cls-21" d="M103.2,394.66a86.69,86.69,0,0,1-20.78,18.23A80.77,80.77,0,0,1,45.21,425c1.13-3.36,6.49-18.13,21.59-26.92A43.83,43.83,0,0,1,103.2,394.66Z"/><path class="cls-22" d="M104.47,395.11A50.49,50.49,0,0,0,107.83,418a46,46,0,0,0,20.35,23c.55-2.63,3.92-20-6.75-33.93A35.24,35.24,0,0,0,104.47,395.11Z"/><path class="cls-23" d="M90.46,477.09c-3.93,3.65-9.47,4.51-13.71,2.27a11.89,11.89,0,0,1-5.7-7.8,14.84,14.84,0,0,0-1.39,3.91c-.87,4.29,0,9.95,2.62,11.68C75.7,489.4,83.76,486.06,90.46,477.09Z"/><path class="cls-24" d="M83.86,459.47q.65,4.69,1.13,9.57c.08.75.15,1.5.22,2.24a12.79,12.79,0,0,1-2.77.28,13.24,13.24,0,0,1-3.81-.59"/><path class="cls-25" d="M83.86,459.47c.28,1,.5,1.93.7,2.91s.37,1.95.52,2.93.29,2,.41,2.95.2,2,.27,3l0,.5-.47.09a10.94,10.94,0,0,1-6.69-.85,16.84,16.84,0,0,0,6.46-.23l-.43.59-.34-2.95c-.1-1-.21-2-.28-2.95s-.14-2-.17-3S83.82,460.48,83.86,459.47Z"/><path class="cls-26" d="M86.23,444.5c-3.17,9.11-1.5,17.81,3.73,19.43s12-4.46,15.21-13.58,1.5-17.81-3.73-19.43S89.4,435.38,86.23,444.5Z"/><path class="cls-25" d="M86.92,444.74a25.87,25.87,0,0,0-1.56,10.47,13.64,13.64,0,0,0,1.33,5,6,6,0,0,0,3.65,3.15,6.74,6.74,0,0,0,4.83-.79,15.1,15.1,0,0,0,4-3.27,26.94,26.94,0,0,0,5.25-9.21,25.78,25.78,0,0,0,1.41-10.45,13.24,13.24,0,0,0-1.35-4.94,5.86,5.86,0,0,0-3.53-3,6.5,6.5,0,0,0-4.68.72,14.86,14.86,0,0,0-4,3.2A26.88,26.88,0,0,0,86.92,444.74Zm-1.39-.49a28.52,28.52,0,0,1,5.54-9.73,16.56,16.56,0,0,1,4.48-3.59,8.2,8.2,0,0,1,5.9-.89,7.51,7.51,0,0,1,4.56,3.9,15,15,0,0,1,1.48,5.57,27.42,27.42,0,0,1-1.61,11.09,28.45,28.45,0,0,1-5.65,9.64,16.51,16.51,0,0,1-4.47,3.51,8,8,0,0,1-5.74.82,7.31,7.31,0,0,1-4.44-3.75,14.54,14.54,0,0,1-1.51-5.49A27.23,27.23,0,0,1,85.53,444.25Z"/><path class="cls-26" d="M71.23,440.2c-3.18,9.16-1.62,17.86,3.48,19.43s11.81-4.56,15-13.71,1.63-17.85-3.47-19.43S74.41,431.05,71.23,440.2Z"/><path class="cls-25" d="M71.9,440.44a26.64,26.64,0,0,0-1.66,10.44,14,14,0,0,0,1.22,5.05,5.91,5.91,0,0,0,3.6,3.23,6.56,6.56,0,0,0,4.83-.87,15.22,15.22,0,0,0,4-3.36,27.77,27.77,0,0,0,5.17-9.24,26.8,26.8,0,0,0,1.46-10.43,13.45,13.45,0,0,0-1.27-4.95,5.53,5.53,0,0,0-3.45-3,5.44,5.44,0,0,0-2.31-.07,8.4,8.4,0,0,0-2.31.86,15.19,15.19,0,0,0-4,3.26A27.88,27.88,0,0,0,71.9,440.44ZM70.56,440A29.27,29.27,0,0,1,76,430.24a16.89,16.89,0,0,1,4.39-3.65,9.82,9.82,0,0,1,2.78-1.06,7.17,7.17,0,0,1,3.09.08,7.28,7.28,0,0,1,4.47,4,15.27,15.27,0,0,1,1.35,5.57,28,28,0,0,1-1.7,11,29.18,29.18,0,0,1-5.56,9.6,16.57,16.57,0,0,1-4.37,3.55,9.71,9.71,0,0,1-2.7,1,6.84,6.84,0,0,1-3-.09,7,7,0,0,1-4.33-3.77A15,15,0,0,1,69.06,451,28.1,28.1,0,0,1,70.56,440Z"/><path class="cls-25" d="M81.33,427.65a6.42,6.42,0,0,1-4.2,2.39,5.86,5.86,0,0,1-4.66-1.33,4.07,4.07,0,0,1-1-4.72,4.26,4.26,0,0,1,4-2.57,3.67,3.67,0,0,1,2.34.91,2.67,2.67,0,0,1,.86,2.39,2.84,2.84,0,0,1-1.43,2,2.73,2.73,0,0,1-2.46.05,1.83,1.83,0,0,1-.9-.94,1.7,1.7,0,0,1,0-1.29,1.78,1.78,0,0,1,2.09-1.1,1.26,1.26,0,0,1,.94.85,1.17,1.17,0,0,1-.38,1.18,1.1,1.1,0,0,1-1.19.13.71.71,0,0,1-.24-1.09l.11.09a.53.53,0,0,0,.22.81.86.86,0,0,0,.92-.16.85.85,0,0,0,.23-.86.91.91,0,0,0-.7-.55,1.32,1.32,0,0,0-1.52.87,1.21,1.21,0,0,0,.7,1.52,2.06,2.06,0,0,0,1.87-.11,2.11,2.11,0,0,0,1-1.55,1.87,1.87,0,0,0-.66-1.65,2.88,2.88,0,0,0-1.81-.6,3.23,3.23,0,0,0-3.07,2,3,3,0,0,0,.77,3.51,5.24,5.24,0,0,0,7.21-1Z"/><path class="cls-25" d="M106.58,435.76a5,5,0,0,0,5.66,4.27,3.14,3.14,0,0,0,2.42-2.63,3.05,3.05,0,0,0-1.58-3.22,2.78,2.78,0,0,0-1.84-.33,2,2,0,0,0-1.39,1.09,2.08,2.08,0,0,0,.05,1.82,2,2,0,0,0,1.54,1,1.26,1.26,0,0,0,1.36-1,1.23,1.23,0,0,0-.84-1.47.87.87,0,0,0-.87.14.83.83,0,0,0-.25.85.79.79,0,0,0,.7.57.54.54,0,0,0,.6-.59l.14,0a.72.72,0,0,1-.75.82,1.06,1.06,0,0,1-1-.69,1.18,1.18,0,0,1,.28-1.2,1.26,1.26,0,0,1,1.21-.28,1.69,1.69,0,0,1,1.24,2,1.82,1.82,0,0,1-1.88,1.47,2.6,2.6,0,0,1-2.1-1.24,2.74,2.74,0,0,1-.18-2.46,2.77,2.77,0,0,1,1.91-1.63,3.68,3.68,0,0,1,2.47.33,4,4,0,0,1,2.16,4.2,4.24,4.24,0,0,1-3.19,3.56,5.75,5.75,0,0,1-4.67-1.06,6.13,6.13,0,0,1-2.38-4.15Z"/><path class="cls-27" d="M94.05,443.65c-2,5.91-1.3,11.44,1.69,12.37s7.07-3.12,9.12-9,1.3-11.45-1.69-12.37S96.1,437.73,94.05,443.65Z"/><path class="cls-26" d="M101.55,445.25a2.28,2.28,0,0,0,.62-1.9,2.33,2.33,0,0,0-1-1.6,2.53,2.53,0,0,0-1.84-.44,2.26,2.26,0,0,0-1.58.91c-.34.48,0,1.09.48,1.47a2.07,2.07,0,0,0,1.74.46c.54-.2.89-1,.36-1.43a1,1,0,0,0-.86-.31.78.78,0,0,0-.56.76.84.84,0,0,1,.51-.91,1.19,1.19,0,0,1,1.1.25,1.05,1.05,0,0,1,.39,1.11,1.48,1.48,0,0,1-.76.94,2.37,2.37,0,0,1-2.23-.45,2.18,2.18,0,0,1-.77-.92,1.39,1.39,0,0,1,.11-1.27,3,3,0,0,1,4.17-.53,2.66,2.66,0,0,1,1.07,1.94A2.29,2.29,0,0,1,101.55,445.25Z"/><path class="cls-26" d="M101.68,445.36a2.22,2.22,0,0,1,.5-2.1,3,3,0,0,1,2.06-.92,3,3,0,0,1,3.22,2.83,1.41,1.41,0,0,1-.73,1.07,2.64,2.64,0,0,1-1.18.29,3.73,3.73,0,0,1-1.15-.17,1.8,1.8,0,0,1-1-.7,1.33,1.33,0,0,1-.07-1.24,1.15,1.15,0,0,1,1-.66,1.32,1.32,0,0,1,1.08.39.79.79,0,0,1-.11,1.05.75.75,0,0,0,0-.95,1.15,1.15,0,0,0-.94-.21.81.81,0,0,0-.69.52.93.93,0,0,0,.1.86,2.32,2.32,0,0,0,1.78.58c.66,0,1.32-.32,1.35-.9a2.12,2.12,0,0,0-.8-1.66,2.8,2.8,0,0,0-1.84-.66,2.73,2.73,0,0,0-1.87.68A2.15,2.15,0,0,0,101.68,445.36Z"/><path class="cls-26" d="M106.16,446.9c-.83-.13-1.64-.33-2.45-.53s-1.6-.43-2.4-.67-1.58-.51-2.36-.8-1.56-.59-2.32-.95c.83.13,1.64.32,2.45.52s1.6.44,2.4.68,1.58.5,2.36.8S105.4,446.54,106.16,446.9Z"/><path class="cls-28" d="M79.3,438.81c-2,5.77-1.15,11.22,1.9,12.16s7.17-3,9.17-8.74,1.16-11.22-1.9-12.16-7.16,3-9.17,8.74"/><path class="cls-26" d="M88.17,440.69c-.83-.13-1.64-.32-2.45-.53s-1.6-.43-2.4-.67-1.59-.5-2.36-.8-1.56-.59-2.32-.95c.83.13,1.64.33,2.45.53s1.6.43,2.4.67,1.58.51,2.36.8S87.41,440.33,88.17,440.69Z"/><path class="cls-26" d="M83.11,439.11a2.26,2.26,0,0,0,.62-1.89,2.4,2.4,0,0,0-1-1.61,2.64,2.64,0,0,0-1.84-.44,2.35,2.35,0,0,0-1.59.92c-.34.47,0,1.08.49,1.47a2.09,2.09,0,0,0,1.74.46c.53-.2.89-1,.36-1.43a1,1,0,0,0-.87-.32.8.8,0,0,0-.55.76.82.82,0,0,1,.51-.9,1.17,1.17,0,0,1,1.09.24,1.07,1.07,0,0,1,.39,1.11,1.41,1.41,0,0,1-.75.94,2.38,2.38,0,0,1-2.24-.44,2.22,2.22,0,0,1-.76-.92,1.39,1.39,0,0,1,.1-1.27,3,3,0,0,1,4.18-.53A2.73,2.73,0,0,1,84,437.19,2.32,2.32,0,0,1,83.11,439.11Z"/><path class="cls-26" d="M83.24,439.23a2.23,2.23,0,0,1,.49-2.1,3,3,0,0,1,2.07-.92A2.94,2.94,0,0,1,89,439a1.42,1.42,0,0,1-.74,1.07,2.47,2.47,0,0,1-1.17.29,3.55,3.55,0,0,1-1.16-.17,1.91,1.91,0,0,1-1-.69,1.36,1.36,0,0,1-.06-1.24,1.11,1.11,0,0,1,1-.66A1.3,1.3,0,0,1,87,438a.78.78,0,0,1-.12,1,.73.73,0,0,0,0-.94,1.06,1.06,0,0,0-.93-.21.81.81,0,0,0-.7.52,1,1,0,0,0,.1.85,2.34,2.34,0,0,0,1.78.59c.66,0,1.33-.33,1.35-.91a2.09,2.09,0,0,0-.79-1.66,2.81,2.81,0,0,0-1.84-.65,2.69,2.69,0,0,0-1.88.67A2.18,2.18,0,0,0,83.24,439.23Z"/><path class="cls-29" d="M63.28,502.2,59,515.05a4.15,4.15,0,0,0,1.67,4.37A4,4,0,0,0,66,517.87l4.86-13.12Z"/><path class="cls-30" d="M58.33,512.37A4.88,4.88,0,0,0,56.58,516c.24,3.37,6.15,6.29,9.12,4.29a5.21,5.21,0,0,0,1.9-3.52l33.19,22.6c-13,5.82-30.42,16.41-42.28,35.61-1.5,2.44-2.83,4.88-4,7.29,4.39,21.89,1,36.72-2.93,46.17-5.12,12.44-12.13,18.25-17.14,34.14a88.46,88.46,0,0,0-3.94,29.36l-80.32-46.65A75.87,75.87,0,0,0-30.72,629.6C-20.6,618-18.81,608.44-13,598.16c5.32-9.42,15.13-21.42,34.85-31.73a124.13,124.13,0,0,0,4-13.23,132.22,132.22,0,0,0,1.75-51.88Z"/><path class="cls-31" d="M98,542.44a98.11,98.11,0,0,0,29.57.53c30.72-4.17,51-22,59.11-30.05"/><path class="cls-32" d="M27.07,507A210.26,210.26,0,0,1,3.8,525.61,213.68,213.68,0,0,1-57.26,554.7"/><ellipse class="cls-33" cx="196.23" cy="515.14" rx="3.01" ry="11.04" transform="translate(-346.72 610.47) rotate(-79.1)"/><path class="cls-34" d="M89.25,627.87a8.21,8.21,0,0,0,2.76,5.7,6.15,6.15,0,0,0,2.8,1.38,5.28,5.28,0,0,0,3-.24,6.21,6.21,0,0,0,3.57-4.89,6,6,0,0,0-.29-3.16,4.4,4.4,0,0,0-2-2.31,3.42,3.42,0,0,0-2.87-.3,3.6,3.6,0,0,0-2,2.15,4.15,4.15,0,0,0,0,3.06,2.55,2.55,0,0,0,2.33,1.59,2.25,2.25,0,0,0,2-1.9,2.49,2.49,0,0,0-.14-1.53,1.71,1.71,0,0,0-1.08-1,1.29,1.29,0,0,0-1.34.41,1.83,1.83,0,0,0-.39,1.48,1.12,1.12,0,0,0,1.07.94,1,1,0,0,0,.9-1.11l.23,0a1.31,1.31,0,0,1-1.1,1.48,1.53,1.53,0,0,1-1.54-1.18,2.29,2.29,0,0,1,.39-1.94,1.91,1.91,0,0,1,1.92-.72,2.41,2.41,0,0,1,1.63,1.28,3.22,3.22,0,0,1,.28,2,3.49,3.49,0,0,1-.89,1.85,2.85,2.85,0,0,1-1.92.92,3.6,3.6,0,0,1-3.45-2.1,5.29,5.29,0,0,1-.17-4A4.75,4.75,0,0,1,99.92,623a6.08,6.08,0,0,1,2.72,3.07,8.28,8.28,0,0,1-4.09,10.37A7.68,7.68,0,0,1,90.77,635a10.1,10.1,0,0,1-3.41-7Z"/><path class="cls-34" d="M79.56,623a14,14,0,0,1-5.91,7.64,11.22,11.22,0,0,1-4.74,1.6,9,9,0,0,1-5-1,7.85,7.85,0,0,1-3.37-3.9,9.93,9.93,0,0,1-.62-5,9.34,9.34,0,0,1,5.68-7.77,6.25,6.25,0,0,1,5.14.22,5.48,5.48,0,0,1,2.67,4.37A6.8,6.8,0,0,1,72,624a5,5,0,0,1-4.59,2,3.26,3.26,0,0,1-2.24-1.46,4,4,0,0,1-.58-2.51,3.78,3.78,0,0,1,3.14-3.58,2.44,2.44,0,0,1,1.32.23,2,2,0,0,1,.93,1,2.73,2.73,0,0,1-.09,2.46,2.07,2.07,0,0,1-2.11,1.14,1.32,1.32,0,0,1-1-.79,1.77,1.77,0,0,1,0-1.22l.27.09a1.11,1.11,0,0,0,.79,1.51,1.6,1.6,0,0,0,1.55-1,2.09,2.09,0,0,0,0-1.89,1.41,1.41,0,0,0-1.53-.68,2.51,2.51,0,0,0-1.57,1,3.27,3.27,0,0,0-.62,1.82,2.37,2.37,0,0,0,2,2.65,3.66,3.66,0,0,0,3.26-1.59,5.32,5.32,0,0,0,.93-3.72,3.81,3.81,0,0,0-1.92-3,4.49,4.49,0,0,0-3.61,0,6.68,6.68,0,0,0-3,2.48,8.1,8.1,0,0,0-1.3,3.75A6,6,0,0,0,68.69,630a9.12,9.12,0,0,0,3.73-1.31,11.58,11.58,0,0,0,4.92-6.33Z"/><path class="cls-35" d="M252,570.18,149.57,600,131,536.27l84.42-24.55,18-5.23Z"/><rect class="cls-36" x="144.78" y="610.79" width="68.83" height="4.55" transform="translate(-455.32 539.92) rotate(-67.13)"/><rect class="cls-36" x="192.39" y="596.94" width="68.83" height="4.55" transform="translate(63.01 1218.63) rotate(-144.46)"/><rect class="cls-37" x="177.88" y="607.05" width="51.53" height="4.55" transform="translate(-324.56 975.04) rotate(-106.22)"/><polygon class="cls-37" points="236.14 529.18 263.05 502.55 276.62 540.76 240.12 539.15 236.14 529.18"/><circle class="cls-37" cx="199.47" cy="498.59" r="15.77"/><circle class="cls-38" cx="191.11" cy="496.91" r="2.61"/><circle class="cls-38" cx="196.65" cy="491.27" r="2.61"/><circle class="cls-38" cx="204.5" cy="493.02" r="2.61"/><circle class="cls-38" cx="206.87" cy="500.53" r="2.61"/><circle class="cls-38" cx="201.09" cy="506.55" r="2.61"/><circle class="cls-38" cx="193.35" cy="504.61" r="2.61"/><circle class="cls-37" cx="153.78" cy="511.53" r="15.77"/><circle class="cls-38" cx="145.42" cy="509.85" r="2.61"/><circle class="cls-38" cx="150.95" cy="504.2" r="2.61"/><circle class="cls-38" cx="158.81" cy="505.95" r="2.61"/><circle class="cls-38" cx="161.17" cy="513.47" r="2.61"/><circle class="cls-38" cx="155.4" cy="519.48" r="2.61"/><circle class="cls-38" cx="147.66" cy="517.55" r="2.61"/><circle class="cls-37" cx="170.3" cy="483.93" r="15.77"/><circle class="cls-38" cx="161.95" cy="482.25" r="2.61"/><circle class="cls-38" cx="167.48" cy="476.6" r="2.61"/><circle class="cls-38" cx="175.34" cy="478.35" r="2.61"/><circle class="cls-38" cx="177.7" cy="485.87" r="2.61"/><circle class="cls-38" cx="171.93" cy="491.88" r="2.61"/><circle class="cls-38" cx="164.19" cy="489.95" r="2.61"/><path class="cls-39" d="M143.76,533.46c-4.86-2.92-7.9-10-8.86-13.45-.67-2.41-2.52-8,2.41-16,3.57-5.81,4.36-7.56,11-10,1.9-.71,3.42-6.77,3.74-9.81A17.92,17.92,0,0,1,156.16,474c2.83-4,8.51-8.1,15.19-7.71s11.16,5.17,11.87,6c5,5.64,4.21,8.78,7.85,9.94,3.11,1,8.8-2.15,14.05-1,6.52,1.48,8.89,5.29,12.11,11.53,3,5.78,2.58,17.23,2.07,19.53"/><rect class="cls-11" x="911.95" y="-1.52" width="29.73" height="627.69"/><rect class="cls-12" x="947.95" y="-1.52" width="29.73" height="627.69"/><rect class="cls-13" x="875.96" y="-1.52" width="29.73" height="627.69"/><path class="cls-40" d="M879.08,523.07l-1.66,96.11"/><path class="cls-40" d="M864.92,522.77q-.84,47.82-1.66,95.63"/><ellipse class="cls-41" cx="853.55" cy="617.88" rx="2.29" ry="10.63" transform="translate(189.06 1435.66) rotate(-86.8)"/><ellipse class="cls-41" cx="888.05" cy="618.92" rx="2.29" ry="10.63" transform="translate(220.6 1471.09) rotate(-86.8)"/><path class="cls-42" d="M883,383.42a5.21,5.21,0,0,1-.17,3.9c-1.61,2.75-7.41,2.47-8.86-.61a5.51,5.51,0,0,1,0-3.89l-35.22,3.74a115.55,115.55,0,0,0,6,27.14,112.77,112.77,0,0,0,7.81,17.35c-15,24.12-17.66,42.79-17.08,55.67.4,8.86,2.52,19.62-1.89,33.15a60.88,60.88,0,0,1-13,22l96.62-.24a77.46,77.46,0,0,1-10.19-20.76c-4.59-14.62-3.28-26.06-3.22-35.35.07-12.51-2.08-30.44-12.46-52.9a44.64,44.64,0,0,0,11.93-11.72c9.16-13.26,8.54-27.78,8.15-32.5Z"/><path class="cls-43" d="M839.58,390.79a238.46,238.46,0,0,0-24.4-34.25,208.68,208.68,0,0,0-48.32-41.72"/><path class="cls-44" d="M909.46,393.73a193.5,193.5,0,0,1,36.29-26.86,174.31,174.31,0,0,1,54.93-20.19"/><ellipse class="cls-45" cx="1008.31" cy="349.99" rx="2.68" ry="9.32" transform="translate(277.77 1128.13) rotate(-65.95)"/><ellipse class="cls-46" cx="758.28" cy="314.49" rx="3.02" ry="9.73" transform="translate(415.25 1060.3) rotate(-87.83)"/><path class="cls-47" d="M914.45,417.49l-24.68-3.33a135.49,135.49,0,0,0,5.82-28.34c1.11-11.76,0-17.1-.5-37-.32-12.37-.58-36.57.71-36.75,1.11-.16,2.69,17.32,5.46,37A678,678,0,0,0,914.45,417.49Z"/><path class="cls-47" d="M834.37,418.22l26.25,1a131.3,131.3,0,0,1,.34-29.26c1.48-11.92,3.8-17.05,8.81-36.82,3.1-12.28,8.8-36.35,7.5-36.76-1.1-.36-6.66,16.79-13.94,36A701.56,701.56,0,0,1,834.37,418.22Z"/><ellipse class="cls-48" cx="885.43" cy="320.88" rx="51.81" ry="37.66" transform="translate(459.88 1161.04) rotate(-83.06)"/><path class="cls-49" d="M872.15,349.25a8.37,8.37,0,0,0,4.85,4.52c3.46,1.07,7.66-.59,11-4.22a12.84,12.84,0,0,1-2.57,6.51c-2.42,3.07-5.91,4.15-8.54,3.36C873.46,358.41,871.44,354.23,872.15,349.25Z"/><path class="cls-24" d="M883.36,333.52a19.2,19.2,0,0,1-2.24,3.57c-2.44,3.07-4.68,3.89-4.49,5.4a2.63,2.63,0,0,0,2.12,1.91,3.08,3.08,0,0,0,3-1.3"/><path class="cls-25" d="M883.36,333.52a14.16,14.16,0,0,1-2.09,4,22.64,22.64,0,0,1-3.11,3.29c-.53.48-1,1-1.06,1.47a1.71,1.71,0,0,0,.91,1.42,2.89,2.89,0,0,0,3.75-.6,3.25,3.25,0,0,1-1.74,1.49,3,3,0,0,1-2.41-.22,2.48,2.48,0,0,1-1.46-2.12,2.2,2.2,0,0,1,.51-1.3,7.62,7.62,0,0,1,.82-.87,38.37,38.37,0,0,0,3.18-3.05A29.17,29.17,0,0,0,883.36,333.52Z"/><path class="cls-47" d="M892.34,268.28a95.07,95.07,0,0,0,8.34,26.06,77.25,77.25,0,0,0,23.65,28.59c.55-3.5,2.66-19.1-5.3-34.1C909.92,271.63,894.74,268.69,892.34,268.28Z"/><path class="cls-47" d="M891.17,268.07a51,51,0,0,1-12.28,18.52,37.42,37.42,0,0,1-25.48,10.46c.69-2.58,5.44-19.5,19.58-26.62A27.53,27.53,0,0,1,891.17,268.07Z"/><path class="cls-26" d="M886.52,322.32c-1.31,7.94-6.06,13.56-10.61,12.56s-7.18-8.25-5.87-16.19,6.06-13.57,10.61-12.57S887.83,314.38,886.52,322.32Z"/><path class="cls-25" d="M887.13,322.42a22,22,0,0,1-3.41,8.73,11.5,11.5,0,0,1-3.41,3.36,6,6,0,0,1-4.81.79,6.93,6.93,0,0,1-3.85-3,14,14,0,0,1-1.9-4.37,23.31,23.31,0,0,1-.33-9.37,21.93,21.93,0,0,1,3.31-8.81,11.83,11.83,0,0,1,3.43-3.44,6.19,6.19,0,0,1,5-.83,7.15,7.15,0,0,1,3.93,3.08,14,14,0,0,1,1.87,4.43A23.45,23.45,0,0,1,887.13,322.42Zm-1.22-.2a22.37,22.37,0,0,0-.33-8.86,12.86,12.86,0,0,0-1.71-4,5.68,5.68,0,0,0-3.15-2.47,4.75,4.75,0,0,0-3.83.64,10.46,10.46,0,0,0-3,3,20.9,20.9,0,0,0-3.2,8.24,22.54,22.54,0,0,0,.21,8.89,13,13,0,0,0,1.69,4,5.84,5.84,0,0,0,3.23,2.58,4.9,4.9,0,0,0,4-.69,10.53,10.53,0,0,0,3.06-3.07A20.87,20.87,0,0,0,885.91,322.22Z"/><path class="cls-26" d="M899.44,325.44c-1.32,8-6,13.65-10.42,12.67s-7-8.23-5.66-16.21,6-13.64,10.42-12.66S900.75,317.47,899.44,325.44Z"/><path class="cls-25" d="M900,325.54a22.64,22.64,0,0,1-3.35,8.69,12,12,0,0,1-3.3,3.4,5.79,5.79,0,0,1-4.74.83,6,6,0,0,1-2.18-1.16,8.89,8.89,0,0,1-1.58-1.83,14.34,14.34,0,0,1-1.81-4.36,24.07,24.07,0,0,1-.28-9.3A22.88,22.88,0,0,1,886,313a12.11,12.11,0,0,1,3.32-3.49,5.72,5.72,0,0,1,7.2.31,8.73,8.73,0,0,1,1.6,1.9,14.19,14.19,0,0,1,1.79,4.44A24.13,24.13,0,0,1,900,325.54Zm-1.17-.19a23,23,0,0,0-.29-8.84,13.12,13.12,0,0,0-1.64-4,7.58,7.58,0,0,0-1.34-1.58,4.91,4.91,0,0,0-1.73-.92,4.57,4.57,0,0,0-3.79.68,10.74,10.74,0,0,0-3,3.06,21.33,21.33,0,0,0-3.14,8.24,23,23,0,0,0,.13,8.87,13.28,13.28,0,0,0,1.61,4.08,7.8,7.8,0,0,0,1.38,1.64,4.53,4.53,0,0,0,5.79.24,11,11,0,0,0,3-3.15A21.78,21.78,0,0,0,898.85,325.35Z"/><path class="cls-25" d="M897.92,312a4.59,4.59,0,0,0,5,3.71,2.48,2.48,0,0,0,2-2.21,2.82,2.82,0,0,0-1.47-2.76,2.53,2.53,0,0,0-1.58-.32,1.5,1.5,0,0,0-1.18.91,1.74,1.74,0,0,0,.12,1.54,1.82,1.82,0,0,0,1.34.87,1,1,0,0,0,1.15-.8,1.14,1.14,0,0,0-.78-1.27.72.72,0,0,0-.74.1.68.68,0,0,0-.19.72.76.76,0,0,0,.62.5.43.43,0,0,0,.49-.5l.12,0a.58.58,0,0,1-.62.7,1,1,0,0,1-.82-.59.94.94,0,0,1,.2-1,1.1,1.1,0,0,1,1-.22,1.53,1.53,0,0,1,1.1,1.67,1.46,1.46,0,0,1-.55.95,1.56,1.56,0,0,1-1.06.29,2.35,2.35,0,0,1-2-3.15,2.21,2.21,0,0,1,1.64-1.39,3.27,3.27,0,0,1,2.09.34,3.62,3.62,0,0,1,2,3.53,3.33,3.33,0,0,1-.82,2,3.38,3.38,0,0,1-1.87,1.07,5.43,5.43,0,0,1-6.1-4.46Z"/><path class="cls-25" d="M875.66,308.07a5.08,5.08,0,0,1-3.49,2,5,5,0,0,1-3.86-1.16,3.57,3.57,0,0,1-.95-3.91,3.37,3.37,0,0,1,1.31-1.65,3.43,3.43,0,0,1,2-.53,3.14,3.14,0,0,1,1.94.78,2.32,2.32,0,0,1,.77,2,2.24,2.24,0,0,1-1.13,1.75,2.21,2.21,0,0,1-2.06,0,1.55,1.55,0,0,1-.81-1.84,1.42,1.42,0,0,1,1.73-.93,1.12,1.12,0,0,1,.78.7.94.94,0,0,1-.28,1,.88.88,0,0,1-1,.11.6.6,0,0,1-.22-.9l.09.06a.46.46,0,0,0,.21.68.68.68,0,0,0,.75-.12.67.67,0,0,0,.16-.72.78.78,0,0,0-.59-.46,1,1,0,0,0-1.23.71,1.08,1.08,0,0,0,.63,1.27,1.61,1.61,0,0,0,2.31-1.37,1.67,1.67,0,0,0-.6-1.37,2.42,2.42,0,0,0-1.5-.52,2.49,2.49,0,0,0-2.48,1.68,2.67,2.67,0,0,0,.76,2.92,4.22,4.22,0,0,0,5.94-.75Z"/><path class="cls-50" d="M880.57,324.92c-.84,5.15-3.64,8.86-6.24,8.29s-4-5.21-3.16-10.36,3.64-8.86,6.24-8.29S881.42,319.77,880.57,324.92Z"/><path class="cls-26" d="M874.33,323a1.88,1.88,0,0,1,.12-1.78,2.23,2.23,0,0,1,1.6-.95,2.57,2.57,0,0,1,2.86,2.12,1.14,1.14,0,0,1-.44,1,1.9,1.9,0,0,1-1,.35,2.08,2.08,0,0,1-1.82-.61,1.21,1.21,0,0,1-.19-1,.87.87,0,0,1,.74-.66,1.05,1.05,0,0,1,.91.28.69.69,0,0,1,0,.87.66.66,0,0,0-.11-.78.85.85,0,0,0-.77-.13c-.57.08-.63.82-.31,1.19a1.83,1.83,0,0,0,1.48.39c.54-.06,1-.38,1-.87a2,2,0,0,0-.81-1.32,2.25,2.25,0,0,0-1.53-.45,2,2,0,0,0-1.45.72A1.88,1.88,0,0,0,874.33,323Z"/><path class="cls-26" d="M874.19,323a1.76,1.76,0,0,0,.25-1.68,2.57,2.57,0,0,0-2.76-1.55,1.7,1.7,0,0,0-1.27.88c-.21.43.17.93.65,1.21a2,2,0,0,0,1.56.32.72.72,0,0,0,.11-1.25,1,1,0,0,0-.77-.24.59.59,0,0,0-.39.69.63.63,0,0,1,.35-.81,1.14,1.14,0,0,1,1,.17,1,1,0,0,1,.48.89,1.09,1.09,0,0,1-.57.88,1.61,1.61,0,0,1-1,.09,3.15,3.15,0,0,1-.92-.36,2.3,2.3,0,0,1-.75-.68,1.19,1.19,0,0,1-.12-1.1,2.49,2.49,0,0,1,3.54-.72,2.66,2.66,0,0,1,1.16,1.51A1.82,1.82,0,0,1,874.19,323Z"/><path class="cls-26" d="M870.23,322.24a37.7,37.7,0,0,1,8.3,1.83,37.7,37.7,0,0,1-8.3-1.83Z"/><path class="cls-51" d="M893.52,327.55c-.83,5-3.65,8.63-6.32,8s-4.14-5.14-3.31-10.17,3.65-8.63,6.32-8,4.14,5.14,3.31,10.17"/><path class="cls-26" d="M886.15,325.22a37.7,37.7,0,0,1,8.3,1.83,37.7,37.7,0,0,1-8.3-1.83Z"/><path class="cls-26" d="M890.56,326.18a1.91,1.91,0,0,1,.11-1.78,2.24,2.24,0,0,1,1.6-.95,2.57,2.57,0,0,1,2.87,2.11,1.15,1.15,0,0,1-.44,1,1.83,1.83,0,0,1-1,.34,2.06,2.06,0,0,1-1.83-.6,1.17,1.17,0,0,1-.18-1,.87.87,0,0,1,.74-.66,1.05,1.05,0,0,1,.91.28.69.69,0,0,1,0,.87.67.67,0,0,0-.11-.78.85.85,0,0,0-.77-.13c-.57.08-.63.82-.31,1.18a1.8,1.8,0,0,0,1.48.4c.54-.06,1-.38,1-.87a2.06,2.06,0,0,0-.81-1.32,2.28,2.28,0,0,0-1.54-.45,1.93,1.93,0,0,0-1.44.72A1.82,1.82,0,0,0,890.56,326.18Z"/><path class="cls-26" d="M890.42,326.21a1.76,1.76,0,0,0,.24-1.68,2.33,2.33,0,0,0-1.13-1.26,2.38,2.38,0,0,0-1.62-.29,1.7,1.7,0,0,0-1.27.88c-.21.43.17.93.65,1.21a2,2,0,0,0,1.56.32.73.73,0,0,0,.11-1.25,1,1,0,0,0-.78-.24.61.61,0,0,0-.39.69.65.65,0,0,1,.35-.81,1.17,1.17,0,0,1,1,.17,1,1,0,0,1,.47.89,1.08,1.08,0,0,1-.56.88,1.61,1.61,0,0,1-1,.09,3,3,0,0,1-.92-.36,2.3,2.3,0,0,1-.75-.68,1.19,1.19,0,0,1-.12-1.1,2.47,2.47,0,0,1,3.53-.72,2.63,2.63,0,0,1,1.17,1.51A1.82,1.82,0,0,1,890.42,326.21Z"/><path class="cls-52" d="M882.61,371.66l-.84,13.53a3.86,3.86,0,0,1-2.83,3.35c-1.69.27-3.44-1.23-3.84-3.54q.23-7,.44-14Z"/><path class="cls-53" d="M916.55,276.58l.36-17.16a17.16,17.16,0,0,0-11.16-12c-9.3-3.06-17.45,2.53-18,2.92q-6.06,6.87-12.13,13.72Z"/><path class="cls-53" d="M915.24,301.7c5-1.52,14.85-5.22,16.15-12,2.05-10.73-18.53-21.95-29.42-26.29-16.4-6.53-39.76-8.95-43.94-.55-1.13,2.25-1.59,6.72,5.2,15.89a19.48,19.48,0,0,1,7.56-9.56c8.58-5.27,19.42-.53,30.43,4.29,10.39,4.54,18.91,8.26,19.8,15.5C921.7,294.51,917.53,299.4,915.24,301.7Z"/><path class="cls-54" d="M897.79,296.67c.48,1.14,3.23,1.83,4.94,1.06,2.11-1,2.19-3.89,2.38-5.37,1.37-10.77,17.7-14.18,16-20.39-.66-2.39-3.59-3.72-6.46-5-6-2.73-14.12-2.75-15.76.23-.91,1.65,1,2.73,1.11,6.58.15,4.85-2.76,8.13-2.12,8.51s4.13-5.17,7-4.44c1.65.42,2.57,2.84,2.74,4.48.33,3.26-2,5.87-4.64,8.67C899.64,294.47,897.3,295.47,897.79,296.67Z"/><path class="cls-55" d="M943.55,411.29l28.88-14.42L1054,598.39l-11,6.41L969,408.14l-16,7,37.47,204.39-9,3.25Z"/><path class="cls-26" d="M935.37,399.34A34.94,34.94,0,0,0,930.66,415,36.64,36.64,0,0,0,935,434.83"/><path class="cls-25" d="M935.37,399.34a52.51,52.51,0,0,0-2.66,8.77,44.84,44.84,0,0,0-.94,8.93,37.47,37.47,0,0,0,.19,4.49c.11,1.49.34,3,.6,4.46a57.3,57.3,0,0,0,2.44,8.84,25.94,25.94,0,0,1-4.22-8.4,31.2,31.2,0,0,1,.16-18.8A25.13,25.13,0,0,1,935.37,399.34Z"/><path class="cls-25" d="M927.35,396.87a52.79,52.79,0,0,0-2.66,8.77,46.37,46.37,0,0,0-.94,8.93,48.05,48.05,0,0,0,.8,8.95,57.3,57.3,0,0,0,2.44,8.84,26,26,0,0,1-4.23-8.4,31.79,31.79,0,0,1-1.36-9.41,31.37,31.37,0,0,1,1.52-9.38A25.36,25.36,0,0,1,927.35,396.87Z"/><path class="cls-25" d="M990.81,414a17.46,17.46,0,0,1,8.42,4.12,19.17,19.17,0,0,1,4.48,5.66l.56,1.07.49,1.11a24.9,24.9,0,0,1,1.84,9.33,25.6,25.6,0,0,1-1.52,9.21,67,67,0,0,0-.57-9.05,36.6,36.6,0,0,0-.86-4.34,29.39,29.39,0,0,0-1.37-4.13,25.29,25.29,0,0,0-4.51-7.37A28.11,28.11,0,0,0,990.81,414Z"/><path class="cls-25" d="M998.84,405.31a17.31,17.31,0,0,1,8.43,4.12,19.64,19.64,0,0,1,3.22,3.59,16.74,16.74,0,0,1,1.25,2.07l.57,1.07.49,1.1a25.14,25.14,0,0,1,1.83,9.34,25.63,25.63,0,0,1-1.51,9.21,68.86,68.86,0,0,0-.57-9.06,36.87,36.87,0,0,0-.87-4.33,29.48,29.48,0,0,0-1.36-4.14,25.81,25.81,0,0,0-4.52-7.37A28.31,28.31,0,0,0,998.84,405.31Z"/><path class="cls-56" d="M795.23,78.33a55.33,55.33,0,0,1,24.54,12.44l21.41,9.63q-1.9,19.13-3.79,38.25l-23.77,5.46c-4.9,3.11-15.44,8.69-29,7.3-23.74-2.44-48.48-25.43-45.3-46.48C742.55,83.67,772.87,73.68,795.23,78.33Z"/><path class="cls-57" d="M829.47,105.07a49.61,49.61,0,0,1-6.62,12.41,6.8,6.8,0,0,0-1.73,4c-.07,3,2.58,5.41,4.3,6.71a24.06,24.06,0,0,0,4.86-10.51A25,25,0,0,0,829.47,105.07Z"/><path class="cls-24" d="M798.63,113.13q4-1,8.26-2l1.94-.41a11.78,11.78,0,0,1,.67,2.37,11.13,11.13,0,0,1,.08,3.37"/><path class="cls-25" d="M798.63,113.13a49.44,49.44,0,0,1,5-1.66c.84-.24,1.69-.45,2.54-.66s1.71-.37,2.56-.53l.42-.08.14.37a9.65,9.65,0,0,1,.3,5.93,14.59,14.59,0,0,0-1.21-5.56l.56.29A68.22,68.22,0,0,1,798.63,113.13Z"/><path class="cls-26" d="M785.08,112.6c8.52,1.82,15.92-.52,16.53-5.22s-5.8-10-14.32-11.82-15.92.52-16.53,5.22S776.56,110.78,785.08,112.6Z"/><path class="cls-25" d="M785.21,112a23.58,23.58,0,0,0,9.46.29,11.24,11.24,0,0,0,4.28-1.71,4.69,4.69,0,0,0,2.13-3.65,6.31,6.31,0,0,0-1.61-4.08A14.85,14.85,0,0,0,796,99.73a26,26,0,0,0-8.81-3.53,23.55,23.55,0,0,0-9.42-.17,11.19,11.19,0,0,0-4.2,1.73,4.51,4.51,0,0,0-2,3.51,6.21,6.21,0,0,0,1.53,4,14.8,14.8,0,0,0,3.45,3.09A26,26,0,0,0,785.21,112Zm-.27,1.27a27.31,27.31,0,0,1-9.26-3.7,16.34,16.34,0,0,1-3.82-3.38,7.61,7.61,0,0,1-1.88-5,5.25,5.25,0,0,1,.81-2.67,6.94,6.94,0,0,1,1.87-2,12.57,12.57,0,0,1,4.78-1.92,24.88,24.88,0,0,1,10,.27,27.35,27.35,0,0,1,9.19,3.81,16.11,16.11,0,0,1,3.75,3.39,7.4,7.4,0,0,1,1.81,4.83,5.83,5.83,0,0,1-2.58,4.51,12.55,12.55,0,0,1-4.7,1.94A25.11,25.11,0,0,1,784.94,113.24Z"/><path class="cls-26" d="M783.63,126.07c8.56,1.83,16-.41,16.57-5s-5.85-9.79-14.41-11.62-16,.41-16.57,5S775.08,124.24,783.63,126.07Z"/><path class="cls-25" d="M783.76,125.46a24.63,24.63,0,0,0,9.44.38,11.8,11.8,0,0,0,4.33-1.62,4.61,4.61,0,0,0,2.21-3.62,6.17,6.17,0,0,0-1.69-4.07,15.1,15.1,0,0,0-3.57-3,26.94,26.94,0,0,0-8.82-3.46,24.46,24.46,0,0,0-9.41-.21,11.69,11.69,0,0,0-4.23,1.65,4.3,4.3,0,0,0-2,3.44,6,6,0,0,0,1.58,3.91,15,15,0,0,0,3.49,3A26.86,26.86,0,0,0,783.76,125.46Zm-.26,1.22a28.17,28.17,0,0,1-9.25-3.61,16.29,16.29,0,0,1-3.85-3.3,7.41,7.41,0,0,1-2-4.9,5.06,5.06,0,0,1,.85-2.67,7,7,0,0,1,1.91-1.92,13,13,0,0,1,4.79-1.8,25.9,25.9,0,0,1,9.93.36,28.24,28.24,0,0,1,9.15,3.74,16.69,16.69,0,0,1,3.77,3.3,7.23,7.23,0,0,1,1.85,4.75A5.56,5.56,0,0,1,798.1,125a12.85,12.85,0,0,1-4.7,1.82A25.76,25.76,0,0,1,783.5,126.68Z"/><path class="cls-58" d="M783.11,105.9c5.53,1.18,10.29,0,10.64-2.73s-3.85-5.82-9.37-7-10.29,0-10.64,2.73S777.59,104.72,783.11,105.9Z"/><path class="cls-26" d="M783.36,99.22a2.15,2.15,0,0,0-1.74-.35,1.93,1.93,0,0,0-1.28,1.08,2.11,2.11,0,0,0-.09,1.65,2.18,2.18,0,0,0,1,1.27c.46.25,1-.05,1.23-.56a1.73,1.73,0,0,0,.12-1.57c-.27-.43-1-.67-1.32-.15a.78.78,0,0,0-.12.79.75.75,0,0,0,.74.39.77.77,0,0,1-.86-.33,1,1,0,0,1,0-1A.92.92,0,0,1,782,100a1.39,1.39,0,0,1,.92.53,2,2,0,0,1,0,2,1.88,1.88,0,0,1-.73.78,1.26,1.26,0,0,1-1.12,0,2.68,2.68,0,0,1-1.27-1.58,2.41,2.41,0,0,1,.18-2,2.26,2.26,0,0,1,1.59-1.15A2.21,2.21,0,0,1,783.36,99.22Z"/><path class="cls-26" d="M783.44,99.09a2,2,0,0,1-1.91-.19,2.81,2.81,0,0,1-1.13-1.64,2.44,2.44,0,0,1,2-3.16,1.31,1.31,0,0,1,1,.5,2.19,2.19,0,0,1,.44,1,3,3,0,0,1,0,1,1.49,1.49,0,0,1-.47,1,1.21,1.21,0,0,1-1.08.18,1.09,1.09,0,0,1-.72-.78,1.11,1.11,0,0,1,.18-1,.7.7,0,0,1,.93,0,.66.66,0,0,0-.83.1.9.9,0,0,0,0,.83.81.81,0,0,0,1.3.38,1.9,1.9,0,0,0,.24-1.62c-.13-.57-.5-1.09-1-1.07a1.77,1.77,0,0,0-1.35.88,2.3,2.3,0,0,0-.26,1.69,2.47,2.47,0,0,0,.9,1.53A2,2,0,0,0,783.44,99.09Z"/><path class="cls-26" d="M784.09,95.05a36.57,36.57,0,0,1-1.11,8.58,36.57,36.57,0,0,1,1.11-8.58Z"/><path class="cls-59" d="M781.15,119.2c5.39,1.15,10.06-.14,10.41-2.89s-3.72-5.92-9.12-7.07-10.06.14-10.42,2.89,3.73,5.92,9.13,7.07"/><path class="cls-26" d="M781.43,111.31a32.78,32.78,0,0,1-.31,4.32,31.34,31.34,0,0,1-.81,4.26,32.81,32.81,0,0,1,.31-4.33A30.91,30.91,0,0,1,781.43,111.31Z"/><path class="cls-26" d="M780.82,115.86a2.21,2.21,0,0,0-1.73-.35,1.94,1.94,0,0,0-1.29,1.08,2.17,2.17,0,0,0-.09,1.66,2.23,2.23,0,0,0,1,1.26A.92.92,0,0,0,780,119a1.72,1.72,0,0,0,.12-1.58c-.26-.42-1-.66-1.31-.15a.81.81,0,0,0-.13.79.75.75,0,0,0,.75.39.8.8,0,0,1-.87-.32,1,1,0,0,1,0-1,.92.92,0,0,1,.93-.47,1.39,1.39,0,0,1,.91.53,2,2,0,0,1,0,2,1.76,1.76,0,0,1-.73.78,1.26,1.26,0,0,1-1.12,0,2.69,2.69,0,0,1-1.27-1.57,2.47,2.47,0,0,1,.19-2,2.1,2.1,0,0,1,3.36-.55Z"/><path class="cls-26" d="M780.9,115.74a2.08,2.08,0,0,1-1.9-.19,2.86,2.86,0,0,1-1.14-1.64,2.46,2.46,0,0,1,2-3.17,1.33,1.33,0,0,1,1,.5,2.4,2.4,0,0,1,.44,1,3.23,3.23,0,0,1,0,1,1.59,1.59,0,0,1-.47,1,1.2,1.2,0,0,1-1.09.18,1.06,1.06,0,0,1-.71-.78,1.09,1.09,0,0,1,.18-1,.69.69,0,0,1,.93,0,.64.64,0,0,0-.83.09.92.92,0,0,0,0,.84.82.82,0,0,0,1.3.38,1.94,1.94,0,0,0,.24-1.62c-.13-.57-.51-1.1-1-1.07a1.73,1.73,0,0,0-1.35.87,2.42,2.42,0,0,0-.26,1.7,2.63,2.63,0,0,0,.9,1.53A2,2,0,0,0,780.9,115.74Z"/><path class="cls-26" d="M772.1,128.15,765,110.36"/><path class="cls-25" d="M769.92,129a27.17,27.17,0,0,0-1-4.74,41.61,41.61,0,0,0-1.66-4.49q-.91-2.22-2-4.35a37.76,37.76,0,0,0-2.46-4.18l4.57-1.81a36.76,36.76,0,0,0,1.08,4.72c.44,1.54,1,3,1.52,4.55a44.66,44.66,0,0,0,1.87,4.4,27.31,27.31,0,0,0,2.5,4.16Z"/><path class="cls-26" d="M765.83,106q4.42-8,8.84-16.1"/><path class="cls-25" d="M763.77,104.88a24.38,24.38,0,0,0,2.9-3.64,41.43,41.43,0,0,0,2.31-4c.71-1.36,1.37-2.74,2-4.16a32.51,32.51,0,0,0,1.56-4.38l4.31,2.36A34.08,34.08,0,0,0,774,94.76c-.88,1.27-1.69,2.57-2.45,3.9a39.27,39.27,0,0,0-2.1,4.08,24.16,24.16,0,0,0-1.52,4.41Z"/><path class="cls-60" d="M785.51,139l-.06,7.31-25.16-4.27c-15.89-7.08-23.83-25.24-19.35-40.56a31.65,31.65,0,0,1,27.29-22.31L782.72,78l.72,4.51-18.25,1c-1,.69-14.75,11-14.21,28.84a34.82,34.82,0,0,0,9.91,23Z"/><path class="cls-61" d="M745.31,98,727.24,108.6c-.66.63-8.13,8-6,18.65,2.26,11.09,12.84,15.51,13.57,15.8l21.37,3.14Q750.75,122.09,745.31,98Z"/><path class="cls-61" d="M772.21,83.19C767.7,79.25,758.1,72,750.25,75c-12.35,4.85-12,32.24-10.16,45.71,2.8,20.29,13.93,44.78,25.11,43.51,3-.34,7.93-2.75,13.5-15.28-3.63.71-9.19,1.19-14.36-1.31-10.51-5-11.91-18.73-13.33-32.63-1.35-13.1-2.45-23.85,4.56-29.36C761,81.44,768.48,82.41,772.21,83.19Z"/><path class="cls-62" d="M837.9,124.64c.37-2.34.75-4.67,1.12-7l10.18,1.74c2.51.16,4.71,1.65,5.27,3.36.73,2.21-1.08,5.45-4.93,5.65Z"/><path class="cls-63" d="M849.54,128.39q-.57,17-1.16,34l26.31,5.21q-6.3-14.28-12.59-28.57a45.49,45.49,0,0,1,24.82.43c17.86,5.48,26.69,20.48,28.77,24.25l24-11.09c-8.2-8.61-23.84-22.62-47.18-30.3a107.12,107.12,0,0,0-32.36-5.38l20.9-15.1-25.73-2.74L842,118.15q13.55,3.21,13.52,6.26C855.54,125.76,853.54,127.09,849.54,128.39Z"/><path class="cls-64" d="M861.56,99.73C867.94,74,885.37,56.3,904.05,55.3c9.75-.52,17.85,3.61,23,7.15"/><path class="cls-65" d="M919.05,164.22l20.65-11.64c38.16,9.57,65.45,45.89,65.94,87.41.46,40.51-24.7,76.88-61.39,88.39l-7.08-6.61c37-4.08,64.21-38,62.77-75-1.28-32.92-25-61.87-57.35-68a371.89,371.89,0,0,1,31.14,82.73,382.2,382.2,0,0,1,10.33,113.12l-12.47.94a300.47,300.47,0,0,0-6-110.48A289.06,289.06,0,0,0,919.05,164.22Z"/><path class="cls-64" d="M855.81,163.82a160.83,160.83,0,0,1-32.43,21.49,158,158,0,0,1-77.83,16.21"/><ellipse class="cls-66" cx="736.62" cy="200.94" rx="2.86" ry="9.32" transform="translate(505.57 928.68) rotate(-87.64)"/><ellipse class="cls-66" cx="932.36" cy="60.78" rx="2.86" ry="9.32" transform="translate(833.3 989.86) rotate(-87.64)"/><path class="cls-67" d="M935.33,39.17l29.23,35.09c2.38.51,8.64,1.58,14.39-.87a14.61,14.61,0,0,0,8.72-10.57l-28.5-36.24A18.58,18.58,0,0,1,949.39,37,28.66,28.66,0,0,1,935.33,39.17Z"/><path class="cls-68" d="M921.25,47.58c.09-.06.9-.57,2-1.31,0,0,.84-.59,1.69-1.23a68.39,68.39,0,0,0,7.77-6.57c3.15-3.36,2.38-4.75,4.55-7.43,4.79-5.91,15.73-8,18.55-5.55,3.12,2.67-.09,9.51-7.19,15.27-.75.6-1.49,1.17-2.27,1.68.58.43,7.52,5.68,6.5,8-.29.68-1.17.88-1.75,1-5.1.93-11.75-1.28-14.39-1.86-12.38-2.73-19.91,11.9-22.16,10.36C912.62,58.64,919.09,49,921.25,47.58Z"/><path class="cls-69" d="M926.65,97.62a24,24,0,0,1,.59,9.28c-.68,4.11-3,5.27-4.73,2.13-2.09-3.87-3.07-14.11-1.26-16.72C922.58,90.4,925.29,92.75,926.65,97.62Z"/><path class="cls-70" d="M957.82,64.52A10.34,10.34,0,0,1,952.26,69a14.54,14.54,0,0,1-6.49.59,19.57,19.57,0,0,1-5.87-1.74,22.88,22.88,0,0,1-5.07-3.25,17.4,17.4,0,0,1-3.91-4.73A15.85,15.85,0,0,1,929.67,57a11.9,11.9,0,0,1-.49-3.29,9.37,9.37,0,0,1,.67-3.46,7.2,7.2,0,0,1,2.33-3,7.67,7.67,0,0,1,3.35-1.33,10.33,10.33,0,0,1,3.29.06,14,14,0,0,1,5.6,2.44,11.69,11.69,0,0,1,3.91,4.74,7.85,7.85,0,0,1,.7,3.2,5.42,5.42,0,0,1-1.16,3.36,4.74,4.74,0,0,1-3.22,1.59,7.36,7.36,0,0,1-3.13-.48,8.32,8.32,0,0,1-4.5-3.88,4.66,4.66,0,0,1-.45-3.14,2.92,2.92,0,0,1,.89-1.5,2.81,2.81,0,0,1,1.56-.65,5.08,5.08,0,0,1,4.83,2.83,2.82,2.82,0,0,1,.25,1.44,1.61,1.61,0,0,1-.77,1.25,2.53,2.53,0,0,1-2.61-.44,2.36,2.36,0,0,0,2.42.15,1.62,1.62,0,0,0,.13-2.12,4,4,0,0,0-1.81-1.56,3.61,3.61,0,0,0-2.25-.33c-1.44.25-1.47,2-.65,3.23a6.32,6.32,0,0,0,3.67,2.58c1.44.43,3,.14,3.52-.66a2.69,2.69,0,0,0,.37-1.62,5,5,0,0,0-.6-1.93,8.4,8.4,0,0,0-3.06-3.15,10.56,10.56,0,0,0-4.21-1.49,4.83,4.83,0,0,0-3.54.77,3,3,0,0,0-.82,1.24,5,5,0,0,0-.21,1.75,7.42,7.42,0,0,0,.42,2,11,11,0,0,0,1,1.91,13.65,13.65,0,0,0,3,3.3,16.54,16.54,0,0,0,8.31,3.46,9.26,9.26,0,0,0,4-.4A5,5,0,0,0,953,61.72l1.49-2.38,4.77,2.76Z"/><path class="cls-71" d="M891.05,101c-.35.41-2.34-.91-3.2-3.28-.12-.35-.92-2.58-.17-4,1.41-2.61,7.09,0,7,.81s-3.94-.13-4.67,2C889.46,98.29,891.44,100.57,891.05,101Z"/><path class="cls-71" d="M884.23,186.68c-.08-4.11-.08-9.5.16-9.51s-.56,7.72,2.67,10.63c1.4,1.27,2.79.92,3,1.9.31,1.71-3.47,5.18-5,4C884.26,193.17,884.33,192,884.23,186.68Z"/><path class="cls-72" d="M893,129.33c2.42-6.55,6.14-15.28,7.37-15.64,1.47-.44-8.22,13.33,6.64,13.26,6.46,0,13.95-2.66,14.2-1.34.44,2.31-21.66,13.54-29.1,14C888.65,139.81,889.82,137.75,893,129.33Z"/><ellipse class="cls-73" cx="982.05" cy="384.39" rx="7.77" ry="18.45" transform="translate(-3.43 759.9) rotate(-42.24)"/><ellipse class="cls-73" cx="936.69" cy="341.09" rx="18.99" ry="7.55" transform="translate(409.41 1187.09) rotate(-78.08)"/></svg>