<?xml version="1.0" encoding="utf-8"?>
<!-- Generator: Adobe Illustrator 24.1.2, SVG Export Plug-In . SVG Version: 6.00 Build 0)  -->
<svg version="1.1" xmlns="http://www.w3.org/2000/svg" xmlns:xlink="http://www.w3.org/1999/xlink" x="0px" y="0px"
	 viewBox="0 0 222 364" style="enable-background:new 0 0 222 364;" xml:space="preserve">
<style type="text/css">
	.st0{fill:none;}
	.st1{fill:#FFCC1F;}
	.st2{fill:#8A5D3B;stroke:#231F20;stroke-width:3.7714;stroke-miterlimit:10;}
	.st3{fill:#FFFFFF;stroke:#231F20;stroke-width:1.8857;stroke-miterlimit:10;}
	.st4{fill:none;stroke:#231F20;stroke-width:0.9429;stroke-linecap:round;stroke-miterlimit:10;}
	.st5{fill:#FFFFFF;stroke:#231F20;stroke-width:0.9429;stroke-miterlimit:10;}
	.st6{fill:#EC3292;stroke:#231F20;stroke-width:3.7714;stroke-linecap:round;stroke-miterlimit:10;}
	.st7{fill:none;stroke:#231F20;stroke-width:1.8857;stroke-miterlimit:10;}
	.st8{fill:#7ED2F6;stroke:#231F20;stroke-width:1.8857;stroke-miterlimit:10;}
	.st9{fill:#231F20;}
	.st10{fill:#C3996B;}
	.st11{fill:none;stroke:#FFFFFF;stroke-width:0.9429;stroke-linecap:round;stroke-miterlimit:10;}
	.st12{fill:none;stroke:#231F20;stroke-width:3.7714;stroke-linecap:round;stroke-miterlimit:10;}
	.st13{fill:none;stroke:#231F20;stroke-width:2.8286;stroke-linecap:round;stroke-miterlimit:10;}
	.st14{fill:#231F20;stroke:#231F20;stroke-width:1.0104;stroke-miterlimit:10;}
	.st15{fill:#8A5D3B;stroke:#231F20;stroke-width:0.9425;stroke-miterlimit:10;}
	.st16{fill:none;stroke:#231F20;stroke-width:1.8849;stroke-miterlimit:10;}
	.st17{fill:#B2946D;}
	.st18{fill:#B89571;stroke:#231F20;stroke-width:0.9389;stroke-miterlimit:10;}
	.st19{fill:#FFFFFF;stroke:#231F20;stroke-width:0.9389;stroke-miterlimit:10;}
	.st20{fill:#FFFFFF;}
	.st21{fill:#39C5F3;}
	.st22{fill:#231F20;stroke:#231F20;stroke-width:0.9389;stroke-linecap:round;stroke-miterlimit:10;}
	.st23{fill:#231F20;stroke:#231F20;stroke-width:0.9389;stroke-miterlimit:10;}
	.st24{fill:#B78A6B;stroke:#231F20;stroke-width:0.4695;stroke-linecap:round;stroke-miterlimit:10;}
	.st25{fill:#B3966C;}
	.st26{fill:#FFFFFF;stroke:#FFFFFF;stroke-width:0.4695;stroke-linecap:round;stroke-miterlimit:10;}
	.st27{opacity:0.12;fill:url(#);}
	.st28{fill:#D7C1B4;}
	.st29{fill:#D7C1B4;stroke:#231F20;stroke-width:1.1281;stroke-linecap:round;stroke-miterlimit:10;}
	.st30{fill:#D7C1B3;stroke:#231F20;stroke-width:1.1281;stroke-miterlimit:10;}
	.st31{fill:#D7C1B3;stroke:#231F20;stroke-width:6.7686;stroke-miterlimit:10;}
	.st32{fill:#E3E4E5;}
	.st33{fill:#231F20;stroke:#231F20;stroke-width:2.2562;stroke-linecap:round;stroke-miterlimit:10;}
	.st34{fill:none;stroke:#FFFFFF;stroke-width:1.1281;stroke-linecap:round;stroke-miterlimit:10;}
	.st35{fill:#231F20;stroke:#231F20;stroke-width:2.2562;stroke-miterlimit:10;}
	.st36{fill:none;stroke:#231F20;stroke-width:2.2562;stroke-linecap:round;stroke-miterlimit:10;}
	.st37{fill:#81D3F6;stroke:#231F20;stroke-width:2.2562;stroke-linecap:round;stroke-miterlimit:10;}
	.st38{fill:#D7C1B3;stroke:#231F20;stroke-width:2.2562;stroke-miterlimit:10;}
	.st39{fill:none;stroke:#231F20;stroke-width:1.7381;stroke-miterlimit:10;}
	.st40{fill:#B89571;stroke:#231F20;stroke-width:1.3665;stroke-miterlimit:10;}
	.st41{fill:#FFFFFF;stroke:#231F20;stroke-width:1.3665;stroke-miterlimit:10;}
	.st42{fill:#231F20;stroke:#231F20;stroke-width:1.3665;stroke-linecap:round;stroke-miterlimit:10;}
	.st43{fill:#231F20;stroke:#231F20;stroke-width:1.3665;stroke-miterlimit:10;}
	.st44{fill:#B78A6B;stroke:#231F20;stroke-width:0.6833;stroke-linecap:round;stroke-miterlimit:10;}
	.st45{fill:#FFFFFF;stroke:#FFFFFF;stroke-width:0.6833;stroke-linecap:round;stroke-miterlimit:10;}
	.st46{fill:none;stroke:#231F20;stroke-width:2;stroke-linecap:round;stroke-miterlimit:10;}
	.st47{clip-path:url(#SVGID_8_);}
	.st48{clip-path:url(#SVGID_10_);fill:#F075AC;}
	.st49{fill:#B9744A;}
	.st50{fill:#F9DFD3;}
	.st51{fill:#F9DFD3;stroke:#231F20;stroke-miterlimit:10;}
	.st52{fill:#231F20;stroke:#231F20;stroke-width:4;stroke-miterlimit:10;}
	.st53{fill:#231F20;stroke:#231F20;stroke-width:3;stroke-miterlimit:10;}
	.st54{clip-path:url(#SVGID_12_);}
	.st55{clip-path:url(#SVGID_14_);fill:#F075AC;}
</style>
<g id="Background">
</g>
<g id="SchmoHouse">
</g>
<g id="PinkHouse">
</g>
<g id="YellowHouse">
</g>
<g id="Layer_6">
</g>
<g id="Layer_5">
	<g>
		<g>
			<ellipse class="st17" cx="100.24" cy="105.46" rx="80.77" ry="82.7"/>
			<path class="st9" d="M182.64,105.46c0.01,10.9-2.04,21.82-6.09,31.96c-4.04,10.14-10.05,19.49-17.63,27.36
				c-7.57,7.87-16.7,14.27-26.75,18.59c-10.04,4.34-20.98,6.59-31.92,6.6c-10.94-0.01-21.87-2.33-31.88-6.7
				c-10.02-4.35-19.11-10.77-26.63-18.65c-7.52-7.88-13.51-17.2-17.51-27.32c-4.02-10.11-6.03-20.98-6.01-31.84
				c0-10.86,2.04-21.72,6.08-31.82c4.02-10.09,10.01-19.4,17.56-27.23c7.53-7.84,16.63-14.19,26.63-18.49
				c9.99-4.31,20.88-6.55,31.77-6.56c5.45,0.02,10.86,0.8,16.16,1.95c5.3,1.15,10.52,2.7,15.51,4.84c10,4.23,19.1,10.52,26.67,18.31
				c7.57,7.79,13.65,17.04,17.75,27.13C180.44,83.67,182.59,94.55,182.64,105.46z M179.37,105.46c0.03-10.5-1.86-21.01-5.72-30.79
				c-3.84-9.78-9.58-18.85-16.87-26.45c-7.28-7.62-16.06-13.81-25.75-18.01c-4.84-2.08-9.88-3.76-15.07-4.75
				c-5.19-1-10.47-1.29-15.72-1.28c-10.51-0.01-21.02,2.12-30.69,6.27c-9.67,4.13-18.48,10.26-25.79,17.83
				c-7.32,7.57-13.14,16.57-17.06,26.35c-3.93,9.77-5.94,20.3-5.96,30.85c0.03,10.54,2.07,21.07,6.02,30.82
				c3.94,9.75,9.77,18.75,17.11,26.26c7.33,7.53,16.14,13.6,25.79,17.67c9.65,4.1,20.11,6.15,30.57,6.13
				c10.46,0.01,20.91-2.1,30.53-6.23c9.63-4.1,18.39-10.2,25.67-17.73c7.29-7.53,13.09-16.49,16.99-26.22
				C177.35,126.44,179.34,115.96,179.37,105.46z"/>
		</g>
		<g>
			<path class="st9" d="M97.83,21.61c3.36,0.86,6.85,1.21,10.29,1.03c1.72-0.12,3.41-0.4,5.06-0.82c1.65-0.45,3.23-1.1,4.72-1.9
				c2.93-1.68,5.68-3.98,7.62-6.72c0.96-1.37,1.67-2.92,1.83-4.52c0.04-0.4,0.08-0.8,0.02-1.19l-0.04-0.6
				c-0.04-0.2-0.07-0.39-0.12-0.59c-0.19-0.79-0.51-1.56-0.91-2.27c-0.8-1.42-2-2.69-3.47-3.15c-1.46-0.5-3.08,0.02-4.37,1.04
				c-1.27,1.02-2.48,2.38-3.13,3.85c-0.68,1.47-0.46,3.2,0.73,4.29c1.15,1.09,2.92,1.59,4.49,1.24c1.57-0.36,3.09-1.45,3.75-2.91
				c0.33-0.73,0.33-1.52-0.11-2.19c-0.41-0.67-1.08-1.23-1.83-1.43c-0.75-0.21-1.57,0.02-2.14,0.57c-0.58,0.54-0.93,1.34-0.98,2.15
				l-0.02,0.3l-0.6-0.04l0.02-0.3c0.05-0.95,0.43-1.9,1.14-2.59c0.69-0.7,1.79-1.03,2.77-0.77c0.97,0.25,1.77,0.9,2.3,1.72
				c0.27,0.41,0.44,0.91,0.48,1.42c0.03,0.52-0.09,1.01-0.27,1.47c-0.79,1.8-2.44,3-4.29,3.49c-1.89,0.44-3.94-0.07-5.4-1.39
				c-0.73-0.66-1.26-1.57-1.44-2.57c-0.2-1,0.01-2.02,0.36-2.91c0.36-0.89,0.88-1.69,1.46-2.41c0.59-0.72,1.2-1.39,1.95-1.99
				c0.74-0.59,1.59-1.1,2.55-1.36c0.96-0.29,2.03-0.27,2.99,0.02c1.96,0.6,3.36,2.12,4.32,3.73c0.48,0.82,0.85,1.7,1.1,2.63
				c0.06,0.23,0.1,0.47,0.16,0.71l0.07,0.73c0.07,0.49,0.04,0.97,0,1.46c-0.17,1.94-0.98,3.73-2.02,5.27
				c-1.04,1.54-2.3,2.9-3.66,4.12c-0.68,0.61-1.39,1.18-2.13,1.73c-0.73,0.53-1.54,1.01-2.32,1.49c-1.63,0.87-3.34,1.58-5.11,2.06
				c-1.78,0.46-3.6,0.74-5.42,0.83c-3.65,0.16-7.28-0.34-10.75-1.38l-0.65-0.2l0.36-1.29L97.83,21.61z"/>
		</g>
		<path class="st40" d="M98.16,188.51c0.2,2.99,0.39,5.97,0.59,8.96c0.11,0.14,1.34,1.71,3.38,1.62c1.53-0.07,2.9-1.04,3.53-2.5
			c-0.24-2.79-0.49-5.58-0.73-8.37"/>
		<g>
			
				<ellipse transform="matrix(0.9844 -0.176 0.176 0.9844 -11.9213 24.9294)" class="st41" cx="134.58" cy="79.67" rx="15.89" ry="26.93"/>
			
				<ellipse transform="matrix(0.9862 -0.1658 0.1658 0.9862 -12.2519 19.5474)" class="st41" cx="110.94" cy="83.15" rx="16.31" ry="27.6"/>
		</g>
		<g>
			<path class="st9" d="M125.01,111.26c-0.44,0.91-0.84,1.87-0.97,2.81c-0.17,0.94-0.01,1.83,0.49,2.33
				c0.48,0.52,1.33,0.77,2.25,0.83c0.92,0.06,1.9,0,2.88-0.16c0.99-0.18,2.04-0.3,2.91-0.58c0.89-0.26,1.62-0.66,1.85-1.22
				c0.28-0.58,0.14-1.5-0.27-2.32c-0.4-0.84-1.03-1.6-1.76-2.3l-0.01-0.01c-0.14-0.14-0.15-0.36-0.01-0.5
				c0.11-0.12,0.28-0.14,0.42-0.07c0.99,0.49,1.87,1.22,2.55,2.17c0.65,0.94,1.19,2.22,0.74,3.65c-0.21,0.71-0.74,1.28-1.27,1.65
				c-0.54,0.38-1.1,0.64-1.65,0.81c-1.12,0.35-2.15,0.52-3.22,0.66c-1.09,0.13-2.2,0.22-3.36,0.05c-0.57-0.08-1.16-0.21-1.74-0.47
				c-0.57-0.25-1.15-0.64-1.56-1.21c-0.4-0.55-0.63-1.22-0.65-1.86c-0.03-0.64,0.08-1.23,0.27-1.77c0.4-1.07,0.96-2.01,1.69-2.82
				c0.1-0.11,0.26-0.11,0.36-0.02c0.09,0.08,0.11,0.2,0.06,0.3L125.01,111.26z"/>
		</g>
		<g>
			<path class="st20" d="M118.93,127.79c0.61,0.74,5.31,6.21,12.64,5.61c7.45-0.61,11.44-7,11.93-7.82
				c1.9,10.3-4.1,19.17-10.35,20.04C126.6,146.55,118.57,138.88,118.93,127.79z"/>
			<path class="st9" d="M118.84,127.53c0.12,0.02,0.33,0.1,0.44,0.23l0.17,0.18l0.31,0.32c0.21,0.21,0.43,0.41,0.65,0.61
				c0.45,0.39,0.91,0.77,1.39,1.12c0.96,0.7,2,1.29,3.08,1.75c2.15,0.95,4.53,1.33,6.85,1.06c1.16-0.14,2.29-0.42,3.38-0.83
				c1.08-0.44,2.11-0.99,3.06-1.65c0.95-0.68,1.83-1.46,2.63-2.31c0.4-0.43,0.77-0.88,1.14-1.34c0.17-0.24,0.35-0.47,0.51-0.71
				c0.17-0.24,0.29-0.5,0.74-0.56l0,0l0.46-0.84l0.23,0.97c0.5,2.08,0.64,4.26,0.49,6.42c-0.19,2.16-0.72,4.3-1.6,6.31
				c-0.87,2.01-2.15,3.87-3.79,5.4c-0.41,0.38-0.84,0.75-1.31,1.06c-0.45,0.35-0.95,0.62-1.46,0.88c-0.49,0.29-1.07,0.44-1.6,0.66
				l-0.86,0.19c-0.28,0.07-0.57,0.12-0.87,0.12c-2.35,0.18-4.65-0.54-6.53-1.75c-1.88-1.22-3.46-2.83-4.65-4.67
				c-1.2-1.83-2.08-3.86-2.57-5.97c-0.16-0.52-0.2-1.06-0.29-1.59c-0.1-0.53-0.15-1.06-0.17-1.6c-0.02-0.56-0.11-1.01-0.05-1.69
				C118.63,128.65,118.77,128.04,118.84,127.53z M119.02,128.06c0.08,0.54,0.24,0.98,0.29,1.38c0.02,0.37,0.13,0.96,0.2,1.45
				c0.07,0.51,0.16,1.02,0.3,1.51c0.14,0.49,0.22,1,0.41,1.48c0.59,1.95,1.5,3.8,2.7,5.41c1.2,1.61,2.64,3.03,4.33,4.04
				c1.67,1.02,3.6,1.58,5.44,1.41c1.85-0.12,3.6-1.15,5.05-2.43c1.47-1.3,2.63-2.96,3.54-4.75c0.9-1.8,1.49-3.76,1.77-5.77
				c0.33-2.01,0.31-4.07,0.08-6.13l0.68,0.12l0,0c0.13,0.45-0.07,0.7-0.26,0.96c-0.18,0.26-0.37,0.51-0.56,0.76
				c-0.39,0.49-0.8,0.97-1.24,1.42c-0.87,0.91-1.83,1.73-2.86,2.45c-1.05,0.71-2.17,1.29-3.36,1.75c-1.19,0.43-2.44,0.72-3.7,0.82
				c-2.52,0.21-5.09-0.28-7.34-1.36c-1.12-0.55-2.18-1.23-3.14-2c-0.49-0.38-0.95-0.8-1.39-1.23c-0.22-0.22-0.44-0.44-0.64-0.67
				l-0.31-0.35c-0.04-0.05-0.12-0.14-0.13-0.16C118.89,128.19,119,128.15,119.02,128.06z"/>
		</g>
		<g>
			<g>
				<path class="st21" d="M105.12,196.54c14.47,0.44,28.94,0.88,43.41,1.32c-1.99,9.01-3.77,19.03-5.05,29.97
					c-1.27,10.92-1.85,21.07-1.98,30.29c-23.93-0.17-47.87-0.33-71.8-0.5c-0.38-9.28-1.16-19.32-2.5-29.98
					c-1.35-10.7-3.09-20.65-5.03-29.77c11.83-0.25,23.66-0.5,35.49-0.75c0.04,0.13,0.79,2.26,2.69,2.71
					C102.2,200.24,104.42,198.92,105.12,196.54z"/>
				<path class="st9" d="M104.52,195.71l44.03,1.48l0.81,0.03l-0.17,0.79c-2.13,9.88-3.76,19.86-4.88,29.9
					c-1.1,10.04-1.7,20.13-1.78,30.22l-0.01,1.02l-1.02-0.01l-35.9-0.22l-35.9-0.28l-0.01,0l-0.96-0.01l-0.05-0.97
					c-0.27-5-0.64-10-1.12-14.98c-0.45-4.99-1.01-9.96-1.67-14.93c-0.67-4.96-1.39-9.91-2.24-14.85c-0.85-4.93-1.8-9.85-2.85-14.74
					l-0.36-1.66l1.7-0.03l8.87-0.15l8.87-0.13l8.87-0.08l8.87,0h0.01h0.74l0.25,0.7c0.21,0.59,0.64,1.25,1.12,1.62
					c0.48,0.38,1.03,0.52,1.65,0.44c0.61-0.07,1.22-0.4,1.71-0.86c0.24-0.23,0.45-0.5,0.63-0.79c0.08-0.15,0.17-0.3,0.23-0.46
					l0.18-0.42C104.24,196.09,104.38,195.89,104.52,195.71z M105.72,197.37c0.07,0.03,0.14,0.02,0.17,0c0.01,0.01,0.04-0.05,0.02,0
					l-0.08,0.18c-0.1,0.24-0.22,0.47-0.35,0.69c-0.27,0.44-0.59,0.86-0.97,1.22c-0.77,0.71-1.74,1.26-2.84,1.41
					c-1.09,0.17-2.34-0.16-3.2-0.87c-0.87-0.72-1.41-1.55-1.79-2.58l0.99,0.7l-0.01,0l-8.87,0.37l-8.87,0.29l-8.87,0.24l-8.87,0.22
					l1.34-1.69c1.04,4.94,1.97,9.89,2.8,14.87c0.82,4.98,1.57,9.97,2.16,14.97c0.59,5.01,1.09,10.03,1.47,15.05
					c0.36,5.03,0.61,10.06,0.76,15.1l-1.02-0.98h0.01l35.9,0.22l35.9,0.28l-1.03,1.01c0.44-20.32,2.93-40.58,7.4-60.38l0.64,0.82
					l-21.46-0.61L105.72,197.37z"/>
			</g>
			<path class="st42" d="M69.28,257.52c0.21,10.25,0.12,21.15-0.4,32.62c-0.5,11.17-1.35,21.75-2.44,31.71
				c12.05,0.57,24.09,1.14,36.14,1.7c-0.25-6.64-0.16-14.15,0.57-22.34c0.79-8.98,2.19-17.04,3.78-24.01
				c2.22,6.85,4.35,14.67,6.05,23.38c1.56,8.03,2.5,15.49,3.03,22.22c11.48,0,22.96,0,34.44,0c-2.39-8.87-4.58-19-6.15-30.24
				c-1.74-12.49-2.36-23.91-2.37-33.9"/>
		</g>
		<g>
			<path class="st9" d="M93.43,346.08c-4.27-8.16-6.07-17.68-5-26.99c0.09-0.79,0.8-1.36,1.59-1.27s1.36,0.8,1.27,1.59
				c0,0.03-0.01,0.06-0.01,0.08c-1.49,8.66-0.32,17.84,3.38,25.98c0.16,0.34,0,0.75-0.34,0.91
				C93.99,346.53,93.6,346.39,93.43,346.08z"/>
		</g>
		<ellipse class="st43" cx="137.08" cy="346.97" rx="10.42" ry="2.95"/>
		<g>
			<path class="st9" d="M126.28,346.28c3.32-7.36,4.78-15.47,4.27-23.41c-0.05-0.79,0.55-1.48,1.35-1.53
				c0.79-0.05,1.48,0.55,1.53,1.35c0,0.03,0,0.06,0,0.08v0.01c0.02,8.42-2.05,16.76-5.92,24.1c-0.18,0.33-0.59,0.46-0.92,0.29
				C126.26,347,126.13,346.61,126.28,346.28z"/>
		</g>
		<ellipse class="st43" cx="82.27" cy="346.57" rx="11.81" ry="3.35"/>
		<g>
			<path class="st9" d="M8.73,252c2.96-5.4,6.3-10.59,9.99-15.51c3.69-4.93,7.75-9.58,12.11-13.93
				c8.74-8.69,18.73-16.12,29.59-21.98c0.49-0.26,1.09-0.08,1.35,0.4c0.26,0.49,0.08,1.09-0.4,1.35l-0.01,0
				c-10.74,5.68-20.66,12.91-29.35,21.42c-4.35,4.25-8.39,8.81-12.08,13.65c-3.7,4.83-7.04,9.94-10.01,15.25
				c-0.18,0.33-0.6,0.45-0.93,0.26C8.67,252.74,8.55,252.33,8.73,252z"/>
		</g>
		
			<ellipse transform="matrix(0.3303 -0.9439 0.9439 0.3303 -239.3214 179.9449)" class="st44" cx="7.15" cy="258.62" rx="7.13" ry="1.93"/>
		<g>
			<path class="st9" d="M148.54,199.94c0.8-0.16,1.58-0.12,2.37-0.1c0.79,0.02,1.57,0.02,2.36,0.02c1.57-0.03,3.15-0.09,4.72-0.22
				c3.14-0.26,6.26-0.71,9.34-1.39c3.07-0.69,6.1-1.59,9.06-2.67c1.45-0.61,2.94-1.13,4.35-1.84l2.14-1.01l2.08-1.12
				c5.53-3.02,10.58-6.91,15-11.4c4.43-4.49,8.22-9.61,11.23-15.17c0.18-0.33,0.59-0.46,0.93-0.28c0.33,0.18,0.45,0.59,0.28,0.92
				c-3.01,5.7-6.83,10.97-11.32,15.61c-4.51,4.62-9.66,8.62-15.32,11.73l-2.13,1.16l-2.19,1.04c-1.44,0.73-2.97,1.27-4.46,1.9
				c-3.03,1.12-6.13,2.05-9.27,2.77c-3.15,0.7-6.35,1.18-9.57,1.46c-1.61,0.14-3.22,0.21-4.84,0.24c-0.81,0-1.62,0.01-2.42-0.01
				c-0.81-0.01-1.62-0.04-2.41-0.28c-0.37-0.11-0.58-0.51-0.47-0.88c0.08-0.26,0.29-0.44,0.54-0.48L148.54,199.94z"/>
		</g>
		<g>
			
				<ellipse transform="matrix(0.3833 -0.9236 0.9236 0.3833 -14.7925 296.1101)" class="st25" cx="214.35" cy="159.13" rx="7.13" ry="1.93"/>
			<path class="st9" d="M217.22,152.23c0.5,0.25,0.6,0.72,0.67,1.05c0.05,0.35,0.07,0.7,0.04,1.04c-0.04,0.67-0.16,1.32-0.3,1.96
				c-0.31,1.27-0.76,2.5-1.28,3.69c-0.53,1.19-1.13,2.34-1.84,3.43c-0.35,0.54-0.73,1.07-1.18,1.56c-0.22,0.24-0.47,0.46-0.74,0.66
				c-0.27,0.18-0.63,0.37-1.03,0.23c-0.38-0.18-0.49-0.57-0.56-0.89c-0.05-0.33-0.07-0.67-0.05-0.99c0.03-0.66,0.13-1.3,0.27-1.93
				c0.27-1.27,0.66-2.51,1.13-3.72c0.48-1.2,1.02-2.39,1.71-3.51c0.35-0.55,0.72-1.1,1.17-1.6c0.22-0.25,0.48-0.49,0.76-0.7
				C216.28,152.31,216.68,152.06,217.22,152.23z M216.95,152.86c-0.1-0.05-0.35,0.02-0.58,0.18c-0.23,0.17-0.46,0.36-0.66,0.59
				c-0.42,0.45-0.79,0.96-1.13,1.49c-0.69,1.06-1.28,2.19-1.8,3.35c-0.5,1.17-0.95,2.37-1.25,3.61c-0.14,0.62-0.26,1.25-0.29,1.88
				c-0.02,0.31-0.01,0.63,0.03,0.93c0.05,0.29,0.17,0.59,0.39,0.7c0.23,0.08,0.53-0.05,0.77-0.22c0.24-0.18,0.48-0.39,0.68-0.63
				c0.42-0.47,0.78-0.99,1.12-1.53c0.67-1.09,1.2-2.25,1.67-3.43c0.46-1.19,0.84-2.41,1.1-3.64c0.13-0.62,0.23-1.24,0.26-1.85
				c0.02-0.31,0-0.61-0.05-0.89C217.18,153.13,217.06,152.9,216.95,152.86z"/>
		</g>
		
			<ellipse transform="matrix(0.9849 -0.1729 0.1729 0.9849 -10.6036 25.3529)" class="st43" cx="140.19" cy="73.53" rx="7.91" ry="16.41"/>
		
			<ellipse transform="matrix(0.9916 -0.1297 0.1297 0.9916 -8.9133 15.7785)" class="st43" cx="116.73" cy="76.35" rx="8.07" ry="16.35"/>
		<g>
			<path class="st45" d="M114.24,75.17c3.96-0.58,7.93-1.15,11.89-1.73"/>
			<g>
				<path class="st20" d="M119.84,74.24c-0.31-0.91-0.36-1.95,0.01-2.88c0.35-0.93,1.13-1.71,2.06-2.05
					c0.9-0.34,1.92-0.46,2.87-0.12c0.94,0.33,1.71,1.25,1.72,2.28c0.02,0.51-0.17,1.04-0.52,1.41c-0.35,0.37-0.78,0.61-1.22,0.77
					c-0.44,0.17-0.91,0.26-1.4,0.26c-0.47-0.01-1-0.13-1.37-0.5c-0.37-0.36-0.5-0.96-0.29-1.43c0.22-0.47,0.64-0.76,1.07-0.95
					c0.43-0.19,0.99-0.23,1.4,0.07c0.43,0.28,0.53,0.89,0.31,1.31l0,0c-0.02,0.03-0.06,0.05-0.09,0.03
					c-0.03-0.02-0.05-0.06-0.03-0.09c0.18-0.39,0.06-0.88-0.3-1.1c-0.35-0.23-0.81-0.18-1.19,0c-0.38,0.18-0.74,0.47-0.88,0.84
					c-0.14,0.37-0.04,0.8,0.25,1.06c0.6,0.54,1.6,0.4,2.36,0.09c0.8-0.3,1.46-0.95,1.38-1.76c-0.03-0.8-0.65-1.49-1.4-1.73
					c-0.77-0.25-1.65-0.13-2.42,0.19c-0.76,0.31-1.37,0.91-1.65,1.67c-0.29,0.76-0.26,1.62-0.02,2.42c0.05,0.18-0.05,0.37-0.23,0.43
					C120.09,74.51,119.9,74.41,119.84,74.24z"/>
			</g>
			<g>
				<path class="st20" d="M119.84,74.05c0.17-0.8-0.02-1.62-0.54-2.19c-0.51-0.58-1.33-0.9-2.16-1.07
					c-0.83-0.17-1.71-0.15-2.44,0.24c-0.72,0.36-1.28,1.14-1.26,1.95c0.02,0.41,0.16,0.81,0.44,1.1c0.28,0.29,0.68,0.45,1.1,0.53
					c0.82,0.14,1.83,0.04,2.34-0.62c0.24-0.32,0.29-0.78,0.09-1.14c-0.2-0.36-0.62-0.56-1.04-0.63c-0.42-0.08-0.88,0-1.15,0.32
					c-0.28,0.31-0.25,0.8,0.03,1.12c0.03,0.04,0.03,0.1-0.01,0.14c-0.04,0.03-0.1,0.03-0.14-0.01l-0.01-0.01
					c-0.33-0.36-0.38-0.99-0.04-1.38c0.33-0.4,0.89-0.49,1.35-0.41c0.46,0.08,0.96,0.28,1.23,0.73c0.27,0.44,0.22,1.03-0.07,1.44
					c-0.29,0.42-0.77,0.65-1.23,0.77c-0.47,0.11-0.95,0.12-1.42,0.05c-0.47-0.08-0.96-0.24-1.33-0.61c-0.37-0.36-0.56-0.87-0.6-1.36
					c-0.07-1.03,0.55-1.99,1.41-2.5c0.87-0.52,1.91-0.62,2.86-0.47c0.94,0.15,1.94,0.47,2.65,1.28c0.72,0.78,0.91,1.97,0.59,2.91
					l0,0.01c-0.06,0.18-0.25,0.28-0.43,0.21C119.9,74.39,119.8,74.22,119.84,74.05z"/>
			</g>
		</g>
		<g>
			<path class="st45" d="M136.63,73.75c3.96-0.58,7.93-1.15,11.89-1.73"/>
			<g>
				<path class="st20" d="M142.24,72.82c-0.31-0.91-0.36-1.95,0.01-2.88c0.35-0.93,1.13-1.71,2.06-2.05
					c0.9-0.34,1.92-0.46,2.87-0.12c0.94,0.33,1.71,1.25,1.72,2.28c0.02,0.51-0.17,1.04-0.52,1.41c-0.35,0.37-0.78,0.61-1.22,0.77
					c-0.44,0.17-0.91,0.26-1.4,0.26c-0.47-0.01-1-0.13-1.37-0.5c-0.37-0.36-0.5-0.96-0.29-1.43c0.22-0.47,0.64-0.76,1.07-0.95
					c0.43-0.19,0.99-0.23,1.4,0.07c0.43,0.28,0.53,0.89,0.31,1.31l0,0c-0.02,0.03-0.06,0.05-0.09,0.03
					c-0.03-0.02-0.05-0.06-0.03-0.09c0.18-0.39,0.06-0.88-0.3-1.1c-0.35-0.23-0.81-0.18-1.19,0c-0.38,0.18-0.74,0.47-0.88,0.84
					c-0.14,0.37-0.04,0.8,0.25,1.06c0.6,0.54,1.6,0.4,2.36,0.09c0.8-0.3,1.46-0.95,1.38-1.76c-0.03-0.8-0.65-1.49-1.4-1.73
					c-0.77-0.25-1.65-0.13-2.42,0.19c-0.76,0.31-1.37,0.91-1.65,1.67c-0.29,0.76-0.26,1.62-0.02,2.42c0.05,0.18-0.05,0.37-0.23,0.43
					C142.48,73.09,142.3,72.99,142.24,72.82z"/>
			</g>
			<g>
				<path class="st20" d="M142.23,72.63c0.17-0.8-0.02-1.62-0.54-2.19c-0.51-0.58-1.33-0.9-2.16-1.07
					c-0.83-0.17-1.71-0.15-2.44,0.24c-0.72,0.36-1.28,1.14-1.26,1.95c0.02,0.41,0.16,0.81,0.44,1.1c0.28,0.29,0.68,0.45,1.1,0.53
					c0.82,0.14,1.83,0.04,2.34-0.62c0.24-0.32,0.29-0.78,0.09-1.14c-0.2-0.36-0.62-0.56-1.04-0.63c-0.42-0.08-0.88,0-1.15,0.32
					c-0.28,0.31-0.25,0.8,0.03,1.12c0.03,0.04,0.03,0.1-0.01,0.14c-0.04,0.03-0.1,0.03-0.14-0.01l-0.01-0.01
					c-0.33-0.36-0.38-0.99-0.04-1.38c0.33-0.4,0.89-0.49,1.35-0.41c0.46,0.08,0.96,0.28,1.23,0.73c0.27,0.44,0.22,1.03-0.07,1.44
					c-0.29,0.42-0.77,0.65-1.23,0.77c-0.47,0.11-0.95,0.12-1.42,0.05c-0.47-0.08-0.96-0.24-1.33-0.61c-0.37-0.36-0.56-0.87-0.6-1.36
					c-0.07-1.03,0.55-1.99,1.41-2.5c0.87-0.52,1.91-0.62,2.86-0.47c0.94,0.15,1.94,0.47,2.65,1.28c0.72,0.78,0.91,1.97,0.59,2.91
					l0,0.01c-0.06,0.18-0.25,0.28-0.43,0.21C142.29,72.96,142.19,72.79,142.23,72.63z"/>
			</g>
		</g>
	</g>
</g>
</svg>
