<svg id="Layer_1" data-name="Layer 1" xmlns="http://www.w3.org/2000/svg" xmlns:xlink="http://www.w3.org/1999/xlink" viewBox="0 0 1008 626.4"><defs><style>.cls-1{fill:none;}.cls-2{opacity:0.05;}.cls-19,.cls-21,.cls-22,.cls-3{fill:#fff;}.cls-4{clip-path:url(#clip-path);}.cls-5,.cls-6,.cls-7,.cls-8{opacity:0.6;}.cls-5{fill:url(#New_Pattern);}.cls-6{fill:url(#New_Pattern-3);}.cls-7{fill:url(#New_Pattern-5);}.cls-8{fill:url(#New_Pattern-7);}.cls-9{fill:url(#radial-gradient);}.cls-10,.cls-11{fill:#a87d50;}.cls-10{stroke:#754d29;stroke-width:17.58px;}.cls-10,.cls-11,.cls-15,.cls-16,.cls-18,.cls-19,.cls-20,.cls-21,.cls-22{stroke-miterlimit:10;}.cls-11{stroke:#c3996b;stroke-width:9.77px;}.cls-12{fill:#0398c6;}.cls-13,.cls-18{fill:#fcee1f;}.cls-14,.cls-16{fill:#29abe2;}.cls-15{fill:#7ed2f0;stroke-width:11.15px;}.cls-15,.cls-16{stroke:#29abe2;}.cls-16{stroke-width:4.03px;}.cls-17,.cls-20{fill:#231f20;}.cls-18{stroke:#fcee1f;stroke-width:1.35px;}.cls-19,.cls-20{stroke:#231f20;}.cls-19{stroke-width:0.92px;}.cls-20{stroke-width:1px;}.cls-21{stroke:#fff;stroke-linecap:round;stroke-width:0.5px;}.cls-22{stroke:#059ece;stroke-width:2.69px;}.cls-23{font-size:13.68px;fill:#010101;font-family:Helvetica-Light, Helvetica;font-weight:300;}</style><clipPath id="clip-path"><rect class="cls-1" y="2.01" width="1008" height="626.4"/></clipPath><pattern id="New_Pattern" data-name="New Pattern" width="737.98" height="585.01" patternTransform="matrix(-0.21, 0, 0, -0.19, 1609.09, 1919.71)" patternUnits="userSpaceOnUse" viewBox="0 0 737.98 585.01"><rect class="cls-1" width="737.98" height="585.01"/><g class="cls-2"><path class="cls-3" d="M376.1,283.29a203.94,203.94,0,0,1-70.5,60.78c-28.06,14.85-59.9,23-92.24,24.19-4,.14-8.09.09-12.15.08l-6.08-.29c-2-.11-4.06-.14-6.08-.38l-6.08-.58c-1-.1-2-.18-3-.3l-3-.44-6-.88c-1-.13-2-.32-3-.52l-3-.58A220.42,220.42,0,0,1,118,349.71a216.27,216.27,0,0,1-42.66-25c-3.28-2.53-6.62-4.91-9.81-7.72-1.6-1.38-3.24-2.7-4.8-4.13l-4.63-4.33c-1.57-1.42-3-3-4.48-4.49s-3-3-4.37-4.62c-2.76-3.21-5.59-6.37-8.14-9.78a185.35,185.35,0,0,1-25.54-44.1c-1.53-4-3.13-8-4.38-12.05s-2.45-8.19-3.58-12.32c-.52-2.08-.95-4.18-1.43-6.27l-.69-3.13-.55-3.17c-.36-2.11-.76-4.22-1.06-6.34l-.78-6.39A187.33,187.33,0,0,1,18.24,95.19c2-3.86,3.82-7.78,6-11.5l1.61-2.83c.53-.94,1.07-1.88,1.67-2.78l3.51-5.48.88-1.36.93-1.33,1.89-2.64,1.89-2.64,1-1.32,1-1.28,4-5.08,1-1.27,1.1-1.26L47,51.91A157.12,157.12,0,0,1,66.38,33.53a158.56,158.56,0,0,1,22.4-14.74A155.81,155.81,0,0,1,242.88,22a163.84,163.84,0,0,1,21.76,15.68A128.75,128.75,0,0,1,306.5,162.86a127.45,127.45,0,0,1-22.91,49.63c-1.34,1.86-2.82,3.6-4.28,5.35s-3.07,3.5-4.66,5.24a102.48,102.48,0,0,1-10.5,9.59,104.89,104.89,0,0,1-79.53,22.09,104,104,0,0,1-50.8-21.65c-.9-.71-1.77-1.48-2.65-2.22s-1.76-1.46-2.64-2.31-1.76-1.63-2.61-2.47l-2.5-2.59a86.42,86.42,0,0,1-8.83-11.36,85.1,85.1,0,0,1-13.4-54.28,83.37,83.37,0,0,1,7.27-27,85.2,85.2,0,0,1,6.91-12.12c1.29-1.93,2.72-3.75,4.15-5.57l2.25-2.62.56-.66.64-.64,1.26-1.28a67.7,67.7,0,0,1,51.35-20.43,65.49,65.49,0,0,1,26.79,7l3,1.63c.5.29,1,.54,1.51.85l1.43,1a53,53,0,0,1,5.57,4,51.25,51.25,0,0,1,5.15,4.61c.82.85,1.68,1.66,2.44,2.55l2.22,2.76c.36.47.75.91,1.07,1.4l1,1.47c.63,1,1.29,2,1.89,3l1.61,3.12c.26.53.55,1,.78,1.57l.65,1.63a51.81,51.81,0,0,1,3.54,13.4,54.44,54.44,0,0,1,.37,6.87c0,1.14,0,2.29-.11,3.42l-.37,3.4a31.46,31.46,0,0,1-.59,3.36l-.35,1.67L233,157l-.24.81-1,3.24-.26.81-.32.78-.66,1.56A48,48,0,0,1,214,185a40.49,40.49,0,0,1-12.16,5.67,39.38,39.38,0,0,1-36.57-8.07,31.25,31.25,0,0,1-7.77-10,30,30,0,0,1-3.07-12,29.69,29.69,0,0,1,1.92-11.87,28.24,28.24,0,0,1,6.38-9.78A27.5,27.5,0,0,0,158,160.3a26.53,26.53,0,0,0,4,9.79,25.47,25.47,0,0,0,7.4,7.19,31,31,0,0,0,19.38,5.17,30.33,30.33,0,0,0,17.71-7.3,35.69,35.69,0,0,0,10-16.18l.35-1.14.18-.57.11-.59.45-2.34.12-.58,0-.59.11-1.18a18.59,18.59,0,0,0,.16-2.36v-2.35c0-.79-.14-1.57-.19-2.34a37.37,37.37,0,0,0-.75-4.6c-.16-.76-.43-1.49-.64-2.23a14,14,0,0,0-.74-2.18l-.84-2.13c-.32-.69-.71-1.35-1-2l-.52-1c-.17-.34-.41-.64-.61-1l-1.22-1.9c-.45-.6-.95-1.17-1.41-1.76l-.69-.88c-.23-.3-.52-.54-.78-.82l-1.56-1.6c-.53-.52-1.15-1-1.71-1.44a33.44,33.44,0,0,0-3.73-2.72,32.67,32.67,0,0,0-4-2.35l-1-.56c-.34-.18-.71-.3-1.07-.46l-2.13-.89a43,43,0,0,0-35.12,1.48,42.59,42.59,0,0,0-13.62,10.75l-.71.82-.36.41-.34.47-1.37,1.86c-.84,1.28-1.71,2.55-2.45,3.89a55.72,55.72,0,0,0-3.9,8.23A56.3,56.3,0,0,0,132,160a54.5,54.5,0,0,0,2.46,17.58,52,52,0,0,0,8,15.52,56.29,56.29,0,0,0,5.74,6.5l1.59,1.47c.54.48,1.11.93,1.66,1.4s1.18.93,1.79,1.39,1.22.94,1.85,1.38a68.21,68.21,0,0,0,68.72,6.08,66.15,66.15,0,0,0,14.79-9.67,66.9,66.9,0,0,0,6.3-6.19c1-1.14,1.93-2.18,2.88-3.47s1.95-2.45,2.81-3.76a87.86,87.86,0,0,0,14.5-33.94,89.18,89.18,0,0,0-.8-36.74A86.9,86.9,0,0,0,235.9,71.33,119.37,119.37,0,0,0,220.16,60.2a111.17,111.17,0,0,0-35.79-13.59,112.5,112.5,0,0,0-38.35-.9A114.92,114.92,0,0,0,127.24,50a117.6,117.6,0,0,0-17.73,7.52A115.14,115.14,0,0,0,93.25,67.9,123.25,123.25,0,0,0,79,81l-1.64,1.79-.82.89-.8,1L72.5,88.5l-.81,1-.75,1-1.5,2-1.51,2-.75,1-.7,1-2.8,4.18c-.49.69-.92,1.41-1.35,2.13L61,105.05c-1.81,2.83-3.31,5.84-4.92,8.79-.78,1.49-1.45,3-2.19,4.54l-1.08,2.28c-.36.76-.65,1.55-1,2.32l-1.94,4.66-1.7,4.76c-.28.79-.6,1.57-.85,2.38l-.74,2.41c-.47,1.62-1,3.21-1.45,4.85-.83,3.27-1.73,6.52-2.32,9.85-.76,3.3-1.17,6.66-1.72,10-.21,1.68-.36,3.36-.55,5l-.28,2.53L40.17,172a145.49,145.49,0,0,0,0,20.35,151.14,151.14,0,0,0,26.93,76.5c1.91,2.87,4.1,5.54,6.2,8.28,1.06,1.37,2.24,2.64,3.34,4s2.21,2.66,3.43,3.89l3.57,3.79c1.2,1.26,2.49,2.42,3.74,3.63,2.42,2.46,5.23,4.72,7.89,7.06l2,1.75,2.1,1.64,4.21,3.29c1.38,1.13,2.85,2.13,4.31,3.15l4.38,3.08c1.44,1.05,3,1.92,4.49,2.9l4.52,2.88c3.1,1.77,6.19,3.57,9.33,5.28a201.94,201.94,0,0,0,40,15.89,199.81,199.81,0,0,0,42.91,7.15,208.79,208.79,0,0,0,43.92-2.18,204.72,204.72,0,0,0,43-11.47A219.32,219.32,0,0,0,376.1,283.29Z"/></g><g class="cls-2"><path class="cls-3" d="M364.3,297.05a203.87,203.87,0,0,1,71.83-59.22c28.38-14.22,60.39-21.67,92.75-22.15,4,0,8.09.09,12.15.2l6.07.42c2,.16,4.06.23,6.07.51l6.06.72c1,.12,2,.23,3,.37l3,.5,6,1c1,.16,2,.37,3,.59l3,.65a220.3,220.3,0,0,1,46.52,15.69,217,217,0,0,1,42.1,25.89c3.22,2.61,6.51,5.07,9.63,7.95,1.57,1.41,3.19,2.76,4.71,4.22l4.53,4.44c1.54,1.45,3,3,4.39,4.58s2.91,3.08,4.26,4.72c2.69,3.27,5.45,6.5,7.92,10a185.44,185.44,0,0,1,24.56,44.65c1.45,4,3,8,4.11,12.14,1.31,4.08,2.27,8.25,3.31,12.41.48,2.08.86,4.19,1.29,6.29l.62,3.15.48,3.18c.31,2.12.67,4.23.93,6.36l.64,6.41A187.34,187.34,0,0,1,717.92,493c-2,3.82-4,7.69-6.29,11.37L710,507.16c-.55.93-1.11,1.86-1.73,2.75l-3.62,5.39-.91,1.35-1,1.3-1.94,2.6-1.95,2.6-1,1.3-1,1.25-4.15,5-1,1.24-1.13,1.23-2.26,2.46a155.63,155.63,0,0,1-19.82,18,158.56,158.56,0,0,1-22.72,14.25,155.82,155.82,0,0,1-154-6.63A162,162,0,0,1,470.32,545,128.75,128.75,0,0,1,431.23,419a127.31,127.31,0,0,1,24-49.11c1.38-1.83,2.9-3.54,4.39-5.26s3.15-3.43,4.78-5.13a102.53,102.53,0,0,1,10.71-9.36,104.94,104.94,0,0,1,80-20.32,103.8,103.8,0,0,1,50.3,22.76c.89.74,1.74,1.52,2.61,2.28s1.72,1.5,2.58,2.37,1.73,1.66,2.56,2.53l2.44,2.64a86.83,86.83,0,0,1,8.58,11.55,85.14,85.14,0,0,1,12.2,54.57,83.47,83.47,0,0,1-7.87,26.87,85,85,0,0,1-7.18,12c-1.33,1.9-2.8,3.69-4.26,5.48l-2.31,2.57-.58.64-.65.63-1.29,1.25a67.62,67.62,0,0,1-51.79,19.29,65.41,65.41,0,0,1-26.63-7.55l-3-1.71c-.49-.29-1-.55-1.48-.87l-1.42-1a52.78,52.78,0,0,1-5.47-4.15,51.77,51.77,0,0,1-5.05-4.72c-.8-.87-1.64-1.7-2.38-2.61l-2.16-2.8c-.35-.48-.73-.93-1-1.42l-.94-1.5c-.61-1-1.24-2-1.82-3l-1.54-3.16c-.25-.53-.53-1-.74-1.58l-.62-1.64A51.83,51.83,0,0,1,502.91,446a52.84,52.84,0,0,1-.22-6.88c.06-1.15,0-2.29.19-3.42l.44-3.4A27.42,27.42,0,0,1,504,429l.38-1.66.2-.82.26-.81,1.08-3.22.27-.8.34-.78.69-1.54a48,48,0,0,1,17-20.47,40.57,40.57,0,0,1,12.29-5.4,39.39,39.39,0,0,1,36.38,8.87,31.44,31.44,0,0,1,7.55,10.14,29.88,29.88,0,0,1,.62,23.86,28.55,28.55,0,0,1-6.6,9.64,27.56,27.56,0,0,0,5.25-21.15,26.62,26.62,0,0,0-3.81-9.89,25.32,25.32,0,0,0-7.24-7.34,31,31,0,0,0-19.26-5.6,30.23,30.23,0,0,0-17.86,6.91,35.64,35.64,0,0,0-10.35,15.95L520.8,426l-.19.57-.12.59-.51,2.32-.12.58-.07.59-.13,1.18a18.67,18.67,0,0,0-.22,2.35l-.05,2.36c0,.78.11,1.56.14,2.34a39.32,39.32,0,0,0,.64,4.61c.15.76.41,1.5.59,2.24a15.18,15.18,0,0,0,.69,2.2l.8,2.15c.31.7.68,1.37,1,2.05l.49,1c.17.33.4.64.59,1l1.18,1.92c.44.62.92,1.2,1.37,1.8l.67.89c.22.3.51.55.76.83l1.53,1.64c.52.53,1.12,1,1.67,1.48a33.52,33.52,0,0,0,3.68,2.8,31.91,31.91,0,0,0,4,2.44l1,.58c.34.19.71.32,1.06.48l2.12.94a43,43,0,0,0,35.14-.7,42.68,42.68,0,0,0,13.86-10.45l.72-.81.37-.39.35-.46,1.41-1.84c.88-1.26,1.77-2.51,2.54-3.83a53.77,53.77,0,0,0,7.86-25.7,54.36,54.36,0,0,0-2.07-17.62,52.34,52.34,0,0,0-7.62-15.7,58.25,58.25,0,0,0-5.6-6.63l-1.56-1.5c-.53-.49-1.09-1-1.63-1.43s-1.15-1-1.75-1.43-1.2-1-1.82-1.43A68.24,68.24,0,0,0,515,372.41a66.09,66.09,0,0,0-15,9.34,66.91,66.91,0,0,0-6.44,6.05c-1,1.12-2,2.13-3,3.41s-2,2.41-2.89,3.69a87.82,87.82,0,0,0-15.24,33.61,89.06,89.06,0,0,0,0,36.75,86.81,86.81,0,0,0,27.35,46.79,118.34,118.34,0,0,0,15.49,11.47,111.09,111.09,0,0,0,35.48,14.38,112.4,112.4,0,0,0,38.32,1.75A115.83,115.83,0,0,0,608,535.73a117.36,117.36,0,0,0,17.89-7.12,114.79,114.79,0,0,0,16.48-10,121.23,121.23,0,0,0,14.56-12.73l1.68-1.76.84-.87.83-1,3.3-3.81.82-.95.78-1,1.54-2,1.56-2,.77-1,.72-1,2.9-4.13c.5-.67,1-1.38,1.39-2.09l1.35-2.13c1.87-2.79,3.43-5.77,5.11-8.68.82-1.47,1.52-3,2.29-4.49l1.14-2.26c.37-.75.68-1.53,1-2.3l2-4.61,1.8-4.72c.3-.79.64-1.56.9-2.36l.79-2.4c.52-1.6,1.11-3.19,1.57-4.81.89-3.25,1.86-6.49,2.53-9.8.83-3.28,1.32-6.63,1.94-10,.25-1.67.43-3.35.66-5l.33-2.52.21-2.53a147,147,0,0,0,.42-20.35,151.07,151.07,0,0,0-25.24-77.07c-1.84-2.92-4-5.64-6-8.42-1-1.39-2.17-2.69-3.25-4s-2.15-2.71-3.34-4L656.79,298c-1.17-1.28-2.44-2.47-3.65-3.71-2.37-2.51-5.13-4.83-7.74-7.23l-2-1.8-2.06-1.68-4.14-3.38c-1.35-1.16-2.81-2.19-4.24-3.25l-4.31-3.17c-1.42-1.09-3-2-4.43-3l-4.45-3c-3.06-1.84-6.11-3.71-9.21-5.49a202.45,202.45,0,0,0-39.66-16.77,200.06,200.06,0,0,0-42.74-8.09,210.1,210.1,0,0,0-44,1.2A205,205,0,0,0,441,249.19,219.26,219.26,0,0,0,364.3,297.05Z"/></g></pattern><pattern id="New_Pattern-3" data-name="New Pattern" width="737.98" height="585.01" patternTransform="matrix(0.21, 0, 0, 0.19, -1870.63, -1169.07)" patternUnits="userSpaceOnUse" viewBox="0 0 737.98 585.01"><rect class="cls-1" width="737.98" height="585.01"/><g class="cls-2"><path class="cls-3" d="M376.1,283.29a203.94,203.94,0,0,1-70.5,60.78c-28.06,14.85-59.9,23-92.24,24.19-4,.14-8.09.09-12.15.08l-6.08-.29c-2-.11-4.06-.14-6.08-.38l-6.08-.58c-1-.1-2-.18-3-.3l-3-.44-6-.88c-1-.13-2-.32-3-.52l-3-.58A220.42,220.42,0,0,1,118,349.71a216.27,216.27,0,0,1-42.66-25c-3.28-2.53-6.62-4.91-9.81-7.72-1.6-1.38-3.24-2.7-4.8-4.13l-4.63-4.33c-1.57-1.42-3-3-4.48-4.49s-3-3-4.37-4.62c-2.76-3.21-5.59-6.37-8.14-9.78a185.35,185.35,0,0,1-25.54-44.1c-1.53-4-3.13-8-4.38-12.05s-2.45-8.19-3.58-12.32c-.52-2.08-.95-4.18-1.43-6.27l-.69-3.13-.55-3.17c-.36-2.11-.76-4.22-1.06-6.34l-.78-6.39A187.33,187.33,0,0,1,18.24,95.19c2-3.86,3.82-7.78,6-11.5l1.61-2.83c.53-.94,1.07-1.88,1.67-2.78l3.51-5.48.88-1.36.93-1.33,1.89-2.64,1.89-2.64,1-1.32,1-1.28,4-5.08,1-1.27,1.1-1.26L47,51.91A157.12,157.12,0,0,1,66.38,33.53a158.56,158.56,0,0,1,22.4-14.74A155.81,155.81,0,0,1,242.88,22a163.84,163.84,0,0,1,21.76,15.68A128.75,128.75,0,0,1,306.5,162.86a127.45,127.45,0,0,1-22.91,49.63c-1.34,1.86-2.82,3.6-4.28,5.35s-3.07,3.5-4.66,5.24a102.48,102.48,0,0,1-10.5,9.59,104.89,104.89,0,0,1-79.53,22.09,104,104,0,0,1-50.8-21.65c-.9-.71-1.77-1.48-2.65-2.22s-1.76-1.46-2.64-2.31-1.76-1.63-2.61-2.47l-2.5-2.59a86.42,86.42,0,0,1-8.83-11.36,85.1,85.1,0,0,1-13.4-54.28,83.37,83.37,0,0,1,7.27-27,85.2,85.2,0,0,1,6.91-12.12c1.29-1.93,2.72-3.75,4.15-5.57l2.25-2.62.56-.66.64-.64,1.26-1.28a67.7,67.7,0,0,1,51.35-20.43,65.49,65.49,0,0,1,26.79,7l3,1.63c.5.29,1,.54,1.51.85l1.43,1a53,53,0,0,1,5.57,4,51.25,51.25,0,0,1,5.15,4.61c.82.85,1.68,1.66,2.44,2.55l2.22,2.76c.36.47.75.91,1.07,1.4l1,1.47c.63,1,1.29,2,1.89,3l1.61,3.12c.26.53.55,1,.78,1.57l.65,1.63a51.81,51.81,0,0,1,3.54,13.4,54.44,54.44,0,0,1,.37,6.87c0,1.14,0,2.29-.11,3.42l-.37,3.4a31.46,31.46,0,0,1-.59,3.36l-.35,1.67L233,157l-.24.81-1,3.24-.26.81-.32.78-.66,1.56A48,48,0,0,1,214,185a40.49,40.49,0,0,1-12.16,5.67,39.38,39.38,0,0,1-36.57-8.07,31.25,31.25,0,0,1-7.77-10,30,30,0,0,1-3.07-12,29.69,29.69,0,0,1,1.92-11.87,28.24,28.24,0,0,1,6.38-9.78A27.5,27.5,0,0,0,158,160.3a26.53,26.53,0,0,0,4,9.79,25.47,25.47,0,0,0,7.4,7.19,31,31,0,0,0,19.38,5.17,30.33,30.33,0,0,0,17.71-7.3,35.69,35.69,0,0,0,10-16.18l.35-1.14.18-.57.11-.59.45-2.34.12-.58,0-.59.11-1.18a18.59,18.59,0,0,0,.16-2.36v-2.35c0-.79-.14-1.57-.19-2.34a37.37,37.37,0,0,0-.75-4.6c-.16-.76-.43-1.49-.64-2.23a14,14,0,0,0-.74-2.18l-.84-2.13c-.32-.69-.71-1.35-1-2l-.52-1c-.17-.34-.41-.64-.61-1l-1.22-1.9c-.45-.6-.95-1.17-1.41-1.76l-.69-.88c-.23-.3-.52-.54-.78-.82l-1.56-1.6c-.53-.52-1.15-1-1.71-1.44a33.44,33.44,0,0,0-3.73-2.72,32.67,32.67,0,0,0-4-2.35l-1-.56c-.34-.18-.71-.3-1.07-.46l-2.13-.89a43,43,0,0,0-35.12,1.48,42.59,42.59,0,0,0-13.62,10.75l-.71.82-.36.41-.34.47-1.37,1.86c-.84,1.28-1.71,2.55-2.45,3.89a55.72,55.72,0,0,0-3.9,8.23A56.3,56.3,0,0,0,132,160a54.5,54.5,0,0,0,2.46,17.58,52,52,0,0,0,8,15.52,56.29,56.29,0,0,0,5.74,6.5l1.59,1.47c.54.48,1.11.93,1.66,1.4s1.18.93,1.79,1.39,1.22.94,1.85,1.38a68.21,68.21,0,0,0,68.72,6.08,66.15,66.15,0,0,0,14.79-9.67,66.9,66.9,0,0,0,6.3-6.19c1-1.14,1.93-2.18,2.88-3.47s1.95-2.45,2.81-3.76a87.86,87.86,0,0,0,14.5-33.94,89.18,89.18,0,0,0-.8-36.74A86.9,86.9,0,0,0,235.9,71.33,119.37,119.37,0,0,0,220.16,60.2a111.17,111.17,0,0,0-35.79-13.59,112.5,112.5,0,0,0-38.35-.9A114.92,114.92,0,0,0,127.24,50a117.6,117.6,0,0,0-17.73,7.52A115.14,115.14,0,0,0,93.25,67.9,123.25,123.25,0,0,0,79,81l-1.64,1.79-.82.89-.8,1L72.5,88.5l-.81,1-.75,1-1.5,2-1.51,2-.75,1-.7,1-2.8,4.18c-.49.69-.92,1.41-1.35,2.13L61,105.05c-1.81,2.83-3.31,5.84-4.92,8.79-.78,1.49-1.45,3-2.19,4.54l-1.08,2.28c-.36.76-.65,1.55-1,2.32l-1.94,4.66-1.7,4.76c-.28.79-.6,1.57-.85,2.38l-.74,2.41c-.47,1.62-1,3.21-1.45,4.85-.83,3.27-1.73,6.52-2.32,9.85-.76,3.3-1.17,6.66-1.72,10-.21,1.68-.36,3.36-.55,5l-.28,2.53L40.17,172a145.49,145.49,0,0,0,0,20.35,151.14,151.14,0,0,0,26.93,76.5c1.91,2.87,4.1,5.54,6.2,8.28,1.06,1.37,2.24,2.64,3.34,4s2.21,2.66,3.43,3.89l3.57,3.79c1.2,1.26,2.49,2.42,3.74,3.63,2.42,2.46,5.23,4.72,7.89,7.06l2,1.75,2.1,1.64,4.21,3.29c1.38,1.13,2.85,2.13,4.31,3.15l4.38,3.08c1.44,1.05,3,1.92,4.49,2.9l4.52,2.88c3.1,1.77,6.19,3.57,9.33,5.28a201.94,201.94,0,0,0,40,15.89,199.81,199.81,0,0,0,42.91,7.15,208.79,208.79,0,0,0,43.92-2.18,204.72,204.72,0,0,0,43-11.47A219.32,219.32,0,0,0,376.1,283.29Z"/></g><g class="cls-2"><path class="cls-3" d="M364.3,297.05a203.87,203.87,0,0,1,71.83-59.22c28.38-14.22,60.39-21.67,92.75-22.15,4,0,8.09.09,12.15.2l6.07.42c2,.16,4.06.23,6.07.51l6.06.72c1,.12,2,.23,3,.37l3,.5,6,1c1,.16,2,.37,3,.59l3,.65a220.3,220.3,0,0,1,46.52,15.69,217,217,0,0,1,42.1,25.89c3.22,2.61,6.51,5.07,9.63,7.95,1.57,1.41,3.19,2.76,4.71,4.22l4.53,4.44c1.54,1.45,3,3,4.39,4.58s2.91,3.08,4.26,4.72c2.69,3.27,5.45,6.5,7.92,10a185.44,185.44,0,0,1,24.56,44.65c1.45,4,3,8,4.11,12.14,1.31,4.08,2.27,8.25,3.31,12.41.48,2.08.86,4.19,1.29,6.29l.62,3.15.48,3.18c.31,2.12.67,4.23.93,6.36l.64,6.41A187.34,187.34,0,0,1,717.92,493c-2,3.82-4,7.69-6.29,11.37L710,507.16c-.55.93-1.11,1.86-1.73,2.75l-3.62,5.39-.91,1.35-1,1.3-1.94,2.6-1.95,2.6-1,1.3-1,1.25-4.15,5-1,1.24-1.13,1.23-2.26,2.46a155.63,155.63,0,0,1-19.82,18,158.56,158.56,0,0,1-22.72,14.25,155.82,155.82,0,0,1-154-6.63A162,162,0,0,1,470.32,545,128.75,128.75,0,0,1,431.23,419a127.31,127.31,0,0,1,24-49.11c1.38-1.83,2.9-3.54,4.39-5.26s3.15-3.43,4.78-5.13a102.53,102.53,0,0,1,10.71-9.36,104.94,104.94,0,0,1,80-20.32,103.8,103.8,0,0,1,50.3,22.76c.89.74,1.74,1.52,2.61,2.28s1.72,1.5,2.58,2.37,1.73,1.66,2.56,2.53l2.44,2.64a86.83,86.83,0,0,1,8.58,11.55,85.14,85.14,0,0,1,12.2,54.57,83.47,83.47,0,0,1-7.87,26.87,85,85,0,0,1-7.18,12c-1.33,1.9-2.8,3.69-4.26,5.48l-2.31,2.57-.58.64-.65.63-1.29,1.25a67.62,67.62,0,0,1-51.79,19.29,65.41,65.41,0,0,1-26.63-7.55l-3-1.71c-.49-.29-1-.55-1.48-.87l-1.42-1a52.78,52.78,0,0,1-5.47-4.15,51.77,51.77,0,0,1-5.05-4.72c-.8-.87-1.64-1.7-2.38-2.61l-2.16-2.8c-.35-.48-.73-.93-1-1.42l-.94-1.5c-.61-1-1.24-2-1.82-3l-1.54-3.16c-.25-.53-.53-1-.74-1.58l-.62-1.64A51.83,51.83,0,0,1,502.91,446a52.84,52.84,0,0,1-.22-6.88c.06-1.15,0-2.29.19-3.42l.44-3.4A27.42,27.42,0,0,1,504,429l.38-1.66.2-.82.26-.81,1.08-3.22.27-.8.34-.78.69-1.54a48,48,0,0,1,17-20.47,40.57,40.57,0,0,1,12.29-5.4,39.39,39.39,0,0,1,36.38,8.87,31.44,31.44,0,0,1,7.55,10.14,29.88,29.88,0,0,1,.62,23.86,28.55,28.55,0,0,1-6.6,9.64,27.56,27.56,0,0,0,5.25-21.15,26.62,26.62,0,0,0-3.81-9.89,25.32,25.32,0,0,0-7.24-7.34,31,31,0,0,0-19.26-5.6,30.23,30.23,0,0,0-17.86,6.91,35.64,35.64,0,0,0-10.35,15.95L520.8,426l-.19.57-.12.59-.51,2.32-.12.58-.07.59-.13,1.18a18.67,18.67,0,0,0-.22,2.35l-.05,2.36c0,.78.11,1.56.14,2.34a39.32,39.32,0,0,0,.64,4.61c.15.76.41,1.5.59,2.24a15.18,15.18,0,0,0,.69,2.2l.8,2.15c.31.7.68,1.37,1,2.05l.49,1c.17.33.4.64.59,1l1.18,1.92c.44.62.92,1.2,1.37,1.8l.67.89c.22.3.51.55.76.83l1.53,1.64c.52.53,1.12,1,1.67,1.48a33.52,33.52,0,0,0,3.68,2.8,31.91,31.91,0,0,0,4,2.44l1,.58c.34.19.71.32,1.06.48l2.12.94a43,43,0,0,0,35.14-.7,42.68,42.68,0,0,0,13.86-10.45l.72-.81.37-.39.35-.46,1.41-1.84c.88-1.26,1.77-2.51,2.54-3.83a53.77,53.77,0,0,0,7.86-25.7,54.36,54.36,0,0,0-2.07-17.62,52.34,52.34,0,0,0-7.62-15.7,58.25,58.25,0,0,0-5.6-6.63l-1.56-1.5c-.53-.49-1.09-1-1.63-1.43s-1.15-1-1.75-1.43-1.2-1-1.82-1.43A68.24,68.24,0,0,0,515,372.41a66.09,66.09,0,0,0-15,9.34,66.91,66.91,0,0,0-6.44,6.05c-1,1.12-2,2.13-3,3.41s-2,2.41-2.89,3.69a87.82,87.82,0,0,0-15.24,33.61,89.06,89.06,0,0,0,0,36.75,86.81,86.81,0,0,0,27.35,46.79,118.34,118.34,0,0,0,15.49,11.47,111.09,111.09,0,0,0,35.48,14.38,112.4,112.4,0,0,0,38.32,1.75A115.83,115.83,0,0,0,608,535.73a117.36,117.36,0,0,0,17.89-7.12,114.79,114.79,0,0,0,16.48-10,121.23,121.23,0,0,0,14.56-12.73l1.68-1.76.84-.87.83-1,3.3-3.81.82-.95.78-1,1.54-2,1.56-2,.77-1,.72-1,2.9-4.13c.5-.67,1-1.38,1.39-2.09l1.35-2.13c1.87-2.79,3.43-5.77,5.11-8.68.82-1.47,1.52-3,2.29-4.49l1.14-2.26c.37-.75.68-1.53,1-2.3l2-4.61,1.8-4.72c.3-.79.64-1.56.9-2.36l.79-2.4c.52-1.6,1.11-3.19,1.57-4.81.89-3.25,1.86-6.49,2.53-9.8.83-3.28,1.32-6.63,1.94-10,.25-1.67.43-3.35.66-5l.33-2.52.21-2.53a147,147,0,0,0,.42-20.35,151.07,151.07,0,0,0-25.24-77.07c-1.84-2.92-4-5.64-6-8.42-1-1.39-2.17-2.69-3.25-4s-2.15-2.71-3.34-4L656.79,298c-1.17-1.28-2.44-2.47-3.65-3.71-2.37-2.51-5.13-4.83-7.74-7.23l-2-1.8-2.06-1.68-4.14-3.38c-1.35-1.16-2.81-2.19-4.24-3.25l-4.31-3.17c-1.42-1.09-3-2-4.43-3l-4.45-3c-3.06-1.84-6.11-3.71-9.21-5.49a202.45,202.45,0,0,0-39.66-16.77,200.06,200.06,0,0,0-42.74-8.09,210.1,210.1,0,0,0-44,1.2A205,205,0,0,0,441,249.19,219.26,219.26,0,0,0,364.3,297.05Z"/></g></pattern><pattern id="New_Pattern-5" data-name="New Pattern" width="737.98" height="585.01" patternTransform="matrix(0.21, 0, 0, 0.19, -2497.16, -2083.05)" patternUnits="userSpaceOnUse" viewBox="0 0 737.98 585.01"><rect class="cls-1" width="737.98" height="585.01"/><g class="cls-2"><path class="cls-3" d="M376.1,283.29a203.94,203.94,0,0,1-70.5,60.78c-28.06,14.85-59.9,23-92.24,24.19-4,.14-8.09.09-12.15.08l-6.08-.29c-2-.11-4.06-.14-6.08-.38l-6.08-.58c-1-.1-2-.18-3-.3l-3-.44-6-.88c-1-.13-2-.32-3-.52l-3-.58A220.42,220.42,0,0,1,118,349.71a216.27,216.27,0,0,1-42.66-25c-3.28-2.53-6.62-4.91-9.81-7.72-1.6-1.38-3.24-2.7-4.8-4.13l-4.63-4.33c-1.57-1.42-3-3-4.48-4.49s-3-3-4.37-4.62c-2.76-3.21-5.59-6.37-8.14-9.78a185.35,185.35,0,0,1-25.54-44.1c-1.53-4-3.13-8-4.38-12.05s-2.45-8.19-3.58-12.32c-.52-2.08-.95-4.18-1.43-6.27l-.69-3.13-.55-3.17c-.36-2.11-.76-4.22-1.06-6.34l-.78-6.39A187.33,187.33,0,0,1,18.24,95.19c2-3.86,3.82-7.78,6-11.5l1.61-2.83c.53-.94,1.07-1.88,1.67-2.78l3.51-5.48.88-1.36.93-1.33,1.89-2.64,1.89-2.64,1-1.32,1-1.28,4-5.08,1-1.27,1.1-1.26L47,51.91A157.12,157.12,0,0,1,66.38,33.53a158.56,158.56,0,0,1,22.4-14.74A155.81,155.81,0,0,1,242.88,22a163.84,163.84,0,0,1,21.76,15.68A128.75,128.75,0,0,1,306.5,162.86a127.45,127.45,0,0,1-22.91,49.63c-1.34,1.86-2.82,3.6-4.28,5.35s-3.07,3.5-4.66,5.24a102.48,102.48,0,0,1-10.5,9.59,104.89,104.89,0,0,1-79.53,22.09,104,104,0,0,1-50.8-21.65c-.9-.71-1.77-1.48-2.65-2.22s-1.76-1.46-2.64-2.31-1.76-1.63-2.61-2.47l-2.5-2.59a86.42,86.42,0,0,1-8.83-11.36,85.1,85.1,0,0,1-13.4-54.28,83.37,83.37,0,0,1,7.27-27,85.2,85.2,0,0,1,6.91-12.12c1.29-1.93,2.72-3.75,4.15-5.57l2.25-2.62.56-.66.64-.64,1.26-1.28a67.7,67.7,0,0,1,51.35-20.43,65.49,65.49,0,0,1,26.79,7l3,1.63c.5.29,1,.54,1.51.85l1.43,1a53,53,0,0,1,5.57,4,51.25,51.25,0,0,1,5.15,4.61c.82.85,1.68,1.66,2.44,2.55l2.22,2.76c.36.47.75.91,1.07,1.4l1,1.47c.63,1,1.29,2,1.89,3l1.61,3.12c.26.53.55,1,.78,1.57l.65,1.63a51.81,51.81,0,0,1,3.54,13.4,54.44,54.44,0,0,1,.37,6.87c0,1.14,0,2.29-.11,3.42l-.37,3.4a31.46,31.46,0,0,1-.59,3.36l-.35,1.67L233,157l-.24.81-1,3.24-.26.81-.32.78-.66,1.56A48,48,0,0,1,214,185a40.49,40.49,0,0,1-12.16,5.67,39.38,39.38,0,0,1-36.57-8.07,31.25,31.25,0,0,1-7.77-10,30,30,0,0,1-3.07-12,29.69,29.69,0,0,1,1.92-11.87,28.24,28.24,0,0,1,6.38-9.78A27.5,27.5,0,0,0,158,160.3a26.53,26.53,0,0,0,4,9.79,25.47,25.47,0,0,0,7.4,7.19,31,31,0,0,0,19.38,5.17,30.33,30.33,0,0,0,17.71-7.3,35.69,35.69,0,0,0,10-16.18l.35-1.14.18-.57.11-.59.45-2.34.12-.58,0-.59.11-1.18a18.59,18.59,0,0,0,.16-2.36v-2.35c0-.79-.14-1.57-.19-2.34a37.37,37.37,0,0,0-.75-4.6c-.16-.76-.43-1.49-.64-2.23a14,14,0,0,0-.74-2.18l-.84-2.13c-.32-.69-.71-1.35-1-2l-.52-1c-.17-.34-.41-.64-.61-1l-1.22-1.9c-.45-.6-.95-1.17-1.41-1.76l-.69-.88c-.23-.3-.52-.54-.78-.82l-1.56-1.6c-.53-.52-1.15-1-1.71-1.44a33.44,33.44,0,0,0-3.73-2.72,32.67,32.67,0,0,0-4-2.35l-1-.56c-.34-.18-.71-.3-1.07-.46l-2.13-.89a43,43,0,0,0-35.12,1.48,42.59,42.59,0,0,0-13.62,10.75l-.71.82-.36.41-.34.47-1.37,1.86c-.84,1.28-1.71,2.55-2.45,3.89a55.72,55.72,0,0,0-3.9,8.23A56.3,56.3,0,0,0,132,160a54.5,54.5,0,0,0,2.46,17.58,52,52,0,0,0,8,15.52,56.29,56.29,0,0,0,5.74,6.5l1.59,1.47c.54.48,1.11.93,1.66,1.4s1.18.93,1.79,1.39,1.22.94,1.85,1.38a68.21,68.21,0,0,0,68.72,6.08,66.15,66.15,0,0,0,14.79-9.67,66.9,66.9,0,0,0,6.3-6.19c1-1.14,1.93-2.18,2.88-3.47s1.95-2.45,2.81-3.76a87.86,87.86,0,0,0,14.5-33.94,89.18,89.18,0,0,0-.8-36.74A86.9,86.9,0,0,0,235.9,71.33,119.37,119.37,0,0,0,220.16,60.2a111.17,111.17,0,0,0-35.79-13.59,112.5,112.5,0,0,0-38.35-.9A114.92,114.92,0,0,0,127.24,50a117.6,117.6,0,0,0-17.73,7.52A115.14,115.14,0,0,0,93.25,67.9,123.25,123.25,0,0,0,79,81l-1.64,1.79-.82.89-.8,1L72.5,88.5l-.81,1-.75,1-1.5,2-1.51,2-.75,1-.7,1-2.8,4.18c-.49.69-.92,1.41-1.35,2.13L61,105.05c-1.81,2.83-3.31,5.84-4.92,8.79-.78,1.49-1.45,3-2.19,4.54l-1.08,2.28c-.36.76-.65,1.55-1,2.32l-1.94,4.66-1.7,4.76c-.28.79-.6,1.57-.85,2.38l-.74,2.41c-.47,1.62-1,3.21-1.45,4.85-.83,3.27-1.73,6.52-2.32,9.85-.76,3.3-1.17,6.66-1.72,10-.21,1.68-.36,3.36-.55,5l-.28,2.53L40.17,172a145.49,145.49,0,0,0,0,20.35,151.14,151.14,0,0,0,26.93,76.5c1.91,2.87,4.1,5.54,6.2,8.28,1.06,1.37,2.24,2.64,3.34,4s2.21,2.66,3.43,3.89l3.57,3.79c1.2,1.26,2.49,2.42,3.74,3.63,2.42,2.46,5.23,4.72,7.89,7.06l2,1.75,2.1,1.64,4.21,3.29c1.38,1.13,2.85,2.13,4.31,3.15l4.38,3.08c1.44,1.05,3,1.92,4.49,2.9l4.52,2.88c3.1,1.77,6.19,3.57,9.33,5.28a201.94,201.94,0,0,0,40,15.89,199.81,199.81,0,0,0,42.91,7.15,208.79,208.79,0,0,0,43.92-2.18,204.72,204.72,0,0,0,43-11.47A219.32,219.32,0,0,0,376.1,283.29Z"/></g><g class="cls-2"><path class="cls-3" d="M364.3,297.05a203.87,203.87,0,0,1,71.83-59.22c28.38-14.22,60.39-21.67,92.75-22.15,4,0,8.09.09,12.15.2l6.07.42c2,.16,4.06.23,6.07.51l6.06.72c1,.12,2,.23,3,.37l3,.5,6,1c1,.16,2,.37,3,.59l3,.65a220.3,220.3,0,0,1,46.52,15.69,217,217,0,0,1,42.1,25.89c3.22,2.61,6.51,5.07,9.63,7.95,1.57,1.41,3.19,2.76,4.71,4.22l4.53,4.44c1.54,1.45,3,3,4.39,4.58s2.91,3.08,4.26,4.72c2.69,3.27,5.45,6.5,7.92,10a185.44,185.44,0,0,1,24.56,44.65c1.45,4,3,8,4.11,12.14,1.31,4.08,2.27,8.25,3.31,12.41.48,2.08.86,4.19,1.29,6.29l.62,3.15.48,3.18c.31,2.12.67,4.23.93,6.36l.64,6.41A187.34,187.34,0,0,1,717.92,493c-2,3.82-4,7.69-6.29,11.37L710,507.16c-.55.93-1.11,1.86-1.73,2.75l-3.62,5.39-.91,1.35-1,1.3-1.94,2.6-1.95,2.6-1,1.3-1,1.25-4.15,5-1,1.24-1.13,1.23-2.26,2.46a155.63,155.63,0,0,1-19.82,18,158.56,158.56,0,0,1-22.72,14.25,155.82,155.82,0,0,1-154-6.63A162,162,0,0,1,470.32,545,128.75,128.75,0,0,1,431.23,419a127.31,127.31,0,0,1,24-49.11c1.38-1.83,2.9-3.54,4.39-5.26s3.15-3.43,4.78-5.13a102.53,102.53,0,0,1,10.71-9.36,104.94,104.94,0,0,1,80-20.32,103.8,103.8,0,0,1,50.3,22.76c.89.74,1.74,1.52,2.61,2.28s1.72,1.5,2.58,2.37,1.73,1.66,2.56,2.53l2.44,2.64a86.83,86.83,0,0,1,8.58,11.55,85.14,85.14,0,0,1,12.2,54.57,83.47,83.47,0,0,1-7.87,26.87,85,85,0,0,1-7.18,12c-1.33,1.9-2.8,3.69-4.26,5.48l-2.31,2.57-.58.64-.65.63-1.29,1.25a67.62,67.62,0,0,1-51.79,19.29,65.41,65.41,0,0,1-26.63-7.55l-3-1.71c-.49-.29-1-.55-1.48-.87l-1.42-1a52.78,52.78,0,0,1-5.47-4.15,51.77,51.77,0,0,1-5.05-4.72c-.8-.87-1.64-1.7-2.38-2.61l-2.16-2.8c-.35-.48-.73-.93-1-1.42l-.94-1.5c-.61-1-1.24-2-1.82-3l-1.54-3.16c-.25-.53-.53-1-.74-1.58l-.62-1.64A51.83,51.83,0,0,1,502.91,446a52.84,52.84,0,0,1-.22-6.88c.06-1.15,0-2.29.19-3.42l.44-3.4A27.42,27.42,0,0,1,504,429l.38-1.66.2-.82.26-.81,1.08-3.22.27-.8.34-.78.69-1.54a48,48,0,0,1,17-20.47,40.57,40.57,0,0,1,12.29-5.4,39.39,39.39,0,0,1,36.38,8.87,31.44,31.44,0,0,1,7.55,10.14,29.88,29.88,0,0,1,.62,23.86,28.55,28.55,0,0,1-6.6,9.64,27.56,27.56,0,0,0,5.25-21.15,26.62,26.62,0,0,0-3.81-9.89,25.32,25.32,0,0,0-7.24-7.34,31,31,0,0,0-19.26-5.6,30.23,30.23,0,0,0-17.86,6.91,35.64,35.64,0,0,0-10.35,15.95L520.8,426l-.19.57-.12.59-.51,2.32-.12.58-.07.59-.13,1.18a18.67,18.67,0,0,0-.22,2.35l-.05,2.36c0,.78.11,1.56.14,2.34a39.32,39.32,0,0,0,.64,4.61c.15.76.41,1.5.59,2.24a15.18,15.18,0,0,0,.69,2.2l.8,2.15c.31.7.68,1.37,1,2.05l.49,1c.17.33.4.64.59,1l1.18,1.92c.44.62.92,1.2,1.37,1.8l.67.89c.22.3.51.55.76.83l1.53,1.64c.52.53,1.12,1,1.67,1.48a33.52,33.52,0,0,0,3.68,2.8,31.91,31.91,0,0,0,4,2.44l1,.58c.34.19.71.32,1.06.48l2.12.94a43,43,0,0,0,35.14-.7,42.68,42.68,0,0,0,13.86-10.45l.72-.81.37-.39.35-.46,1.41-1.84c.88-1.26,1.77-2.51,2.54-3.83a53.77,53.77,0,0,0,7.86-25.7,54.36,54.36,0,0,0-2.07-17.62,52.34,52.34,0,0,0-7.62-15.7,58.25,58.25,0,0,0-5.6-6.63l-1.56-1.5c-.53-.49-1.09-1-1.63-1.43s-1.15-1-1.75-1.43-1.2-1-1.82-1.43A68.24,68.24,0,0,0,515,372.41a66.09,66.09,0,0,0-15,9.34,66.91,66.91,0,0,0-6.44,6.05c-1,1.12-2,2.13-3,3.41s-2,2.41-2.89,3.69a87.82,87.82,0,0,0-15.24,33.61,89.06,89.06,0,0,0,0,36.75,86.81,86.81,0,0,0,27.35,46.79,118.34,118.34,0,0,0,15.49,11.47,111.09,111.09,0,0,0,35.48,14.38,112.4,112.4,0,0,0,38.32,1.75A115.83,115.83,0,0,0,608,535.73a117.36,117.36,0,0,0,17.89-7.12,114.79,114.79,0,0,0,16.48-10,121.23,121.23,0,0,0,14.56-12.73l1.68-1.76.84-.87.83-1,3.3-3.81.82-.95.78-1,1.54-2,1.56-2,.77-1,.72-1,2.9-4.13c.5-.67,1-1.38,1.39-2.09l1.35-2.13c1.87-2.79,3.43-5.77,5.11-8.68.82-1.47,1.52-3,2.29-4.49l1.14-2.26c.37-.75.68-1.53,1-2.3l2-4.61,1.8-4.72c.3-.79.64-1.56.9-2.36l.79-2.4c.52-1.6,1.11-3.19,1.57-4.81.89-3.25,1.86-6.49,2.53-9.8.83-3.28,1.32-6.63,1.94-10,.25-1.67.43-3.35.66-5l.33-2.52.21-2.53a147,147,0,0,0,.42-20.35,151.07,151.07,0,0,0-25.24-77.07c-1.84-2.92-4-5.64-6-8.42-1-1.39-2.17-2.69-3.25-4s-2.15-2.71-3.34-4L656.79,298c-1.17-1.28-2.44-2.47-3.65-3.71-2.37-2.51-5.13-4.83-7.74-7.23l-2-1.8-2.06-1.68-4.14-3.38c-1.35-1.16-2.81-2.19-4.24-3.25l-4.31-3.17c-1.42-1.09-3-2-4.43-3l-4.45-3c-3.06-1.84-6.11-3.71-9.21-5.49a202.45,202.45,0,0,0-39.66-16.77,200.06,200.06,0,0,0-42.74-8.09,210.1,210.1,0,0,0-44,1.2A205,205,0,0,0,441,249.19,219.26,219.26,0,0,0,364.3,297.05Z"/></g></pattern><pattern id="New_Pattern-7" data-name="New Pattern" width="737.98" height="585.01" patternTransform="matrix(-0.21, 0, 0, -0.19, 1626.71, 1577.72)" patternUnits="userSpaceOnUse" viewBox="0 0 737.98 585.01"><rect class="cls-1" width="737.98" height="585.01"/><g class="cls-2"><path class="cls-3" d="M376.1,283.29a203.94,203.94,0,0,1-70.5,60.78c-28.06,14.85-59.9,23-92.24,24.19-4,.14-8.09.09-12.15.08l-6.08-.29c-2-.11-4.06-.14-6.08-.38l-6.08-.58c-1-.1-2-.18-3-.3l-3-.44-6-.88c-1-.13-2-.32-3-.52l-3-.58A220.42,220.42,0,0,1,118,349.71a216.27,216.27,0,0,1-42.66-25c-3.28-2.53-6.62-4.91-9.81-7.72-1.6-1.38-3.24-2.7-4.8-4.13l-4.63-4.33c-1.57-1.42-3-3-4.48-4.49s-3-3-4.37-4.62c-2.76-3.21-5.59-6.37-8.14-9.78a185.35,185.35,0,0,1-25.54-44.1c-1.53-4-3.13-8-4.38-12.05s-2.45-8.19-3.58-12.32c-.52-2.08-.95-4.18-1.43-6.27l-.69-3.13-.55-3.17c-.36-2.11-.76-4.22-1.06-6.34l-.78-6.39A187.33,187.33,0,0,1,18.24,95.19c2-3.86,3.82-7.78,6-11.5l1.61-2.83c.53-.94,1.07-1.88,1.67-2.78l3.51-5.48.88-1.36.93-1.33,1.89-2.64,1.89-2.64,1-1.32,1-1.28,4-5.08,1-1.27,1.1-1.26L47,51.91A157.12,157.12,0,0,1,66.38,33.53a158.56,158.56,0,0,1,22.4-14.74A155.81,155.81,0,0,1,242.88,22a163.84,163.84,0,0,1,21.76,15.68A128.75,128.75,0,0,1,306.5,162.86a127.45,127.45,0,0,1-22.91,49.63c-1.34,1.86-2.82,3.6-4.28,5.35s-3.07,3.5-4.66,5.24a102.48,102.48,0,0,1-10.5,9.59,104.89,104.89,0,0,1-79.53,22.09,104,104,0,0,1-50.8-21.65c-.9-.71-1.77-1.48-2.65-2.22s-1.76-1.46-2.64-2.31-1.76-1.63-2.61-2.47l-2.5-2.59a86.42,86.42,0,0,1-8.83-11.36,85.1,85.1,0,0,1-13.4-54.28,83.37,83.37,0,0,1,7.27-27,85.2,85.2,0,0,1,6.91-12.12c1.29-1.93,2.72-3.75,4.15-5.57l2.25-2.62.56-.66.64-.64,1.26-1.28a67.7,67.7,0,0,1,51.35-20.43,65.49,65.49,0,0,1,26.79,7l3,1.63c.5.29,1,.54,1.51.85l1.43,1a53,53,0,0,1,5.57,4,51.25,51.25,0,0,1,5.15,4.61c.82.85,1.68,1.66,2.44,2.55l2.22,2.76c.36.47.75.91,1.07,1.4l1,1.47c.63,1,1.29,2,1.89,3l1.61,3.12c.26.53.55,1,.78,1.57l.65,1.63a51.81,51.81,0,0,1,3.54,13.4,54.44,54.44,0,0,1,.37,6.87c0,1.14,0,2.29-.11,3.42l-.37,3.4a31.46,31.46,0,0,1-.59,3.36l-.35,1.67L233,157l-.24.81-1,3.24-.26.81-.32.78-.66,1.56A48,48,0,0,1,214,185a40.49,40.49,0,0,1-12.16,5.67,39.38,39.38,0,0,1-36.57-8.07,31.25,31.25,0,0,1-7.77-10,30,30,0,0,1-3.07-12,29.69,29.69,0,0,1,1.92-11.87,28.24,28.24,0,0,1,6.38-9.78A27.5,27.5,0,0,0,158,160.3a26.53,26.53,0,0,0,4,9.79,25.47,25.47,0,0,0,7.4,7.19,31,31,0,0,0,19.38,5.17,30.33,30.33,0,0,0,17.71-7.3,35.69,35.69,0,0,0,10-16.18l.35-1.14.18-.57.11-.59.45-2.34.12-.58,0-.59.11-1.18a18.59,18.59,0,0,0,.16-2.36v-2.35c0-.79-.14-1.57-.19-2.34a37.37,37.37,0,0,0-.75-4.6c-.16-.76-.43-1.49-.64-2.23a14,14,0,0,0-.74-2.18l-.84-2.13c-.32-.69-.71-1.35-1-2l-.52-1c-.17-.34-.41-.64-.61-1l-1.22-1.9c-.45-.6-.95-1.17-1.41-1.76l-.69-.88c-.23-.3-.52-.54-.78-.82l-1.56-1.6c-.53-.52-1.15-1-1.71-1.44a33.44,33.44,0,0,0-3.73-2.72,32.67,32.67,0,0,0-4-2.35l-1-.56c-.34-.18-.71-.3-1.07-.46l-2.13-.89a43,43,0,0,0-35.12,1.48,42.59,42.59,0,0,0-13.62,10.75l-.71.82-.36.41-.34.47-1.37,1.86c-.84,1.28-1.71,2.55-2.45,3.89a55.72,55.72,0,0,0-3.9,8.23A56.3,56.3,0,0,0,132,160a54.5,54.5,0,0,0,2.46,17.58,52,52,0,0,0,8,15.52,56.29,56.29,0,0,0,5.74,6.5l1.59,1.47c.54.48,1.11.93,1.66,1.4s1.18.93,1.79,1.39,1.22.94,1.85,1.38a68.21,68.21,0,0,0,68.72,6.08,66.15,66.15,0,0,0,14.79-9.67,66.9,66.9,0,0,0,6.3-6.19c1-1.14,1.93-2.18,2.88-3.47s1.95-2.45,2.81-3.76a87.86,87.86,0,0,0,14.5-33.94,89.18,89.18,0,0,0-.8-36.74A86.9,86.9,0,0,0,235.9,71.33,119.37,119.37,0,0,0,220.16,60.2a111.17,111.17,0,0,0-35.79-13.59,112.5,112.5,0,0,0-38.35-.9A114.92,114.92,0,0,0,127.24,50a117.6,117.6,0,0,0-17.73,7.52A115.14,115.14,0,0,0,93.25,67.9,123.25,123.25,0,0,0,79,81l-1.64,1.79-.82.89-.8,1L72.5,88.5l-.81,1-.75,1-1.5,2-1.51,2-.75,1-.7,1-2.8,4.18c-.49.69-.92,1.41-1.35,2.13L61,105.05c-1.81,2.83-3.31,5.84-4.92,8.79-.78,1.49-1.45,3-2.19,4.54l-1.08,2.28c-.36.76-.65,1.55-1,2.32l-1.94,4.66-1.7,4.76c-.28.79-.6,1.57-.85,2.38l-.74,2.41c-.47,1.62-1,3.21-1.45,4.85-.83,3.27-1.73,6.52-2.32,9.85-.76,3.3-1.17,6.66-1.72,10-.21,1.68-.36,3.36-.55,5l-.28,2.53L40.17,172a145.49,145.49,0,0,0,0,20.35,151.14,151.14,0,0,0,26.93,76.5c1.91,2.87,4.1,5.54,6.2,8.28,1.06,1.37,2.24,2.64,3.34,4s2.21,2.66,3.43,3.89l3.57,3.79c1.2,1.26,2.49,2.42,3.74,3.63,2.42,2.46,5.23,4.72,7.89,7.06l2,1.75,2.1,1.64,4.21,3.29c1.38,1.13,2.85,2.13,4.31,3.15l4.38,3.08c1.44,1.05,3,1.92,4.49,2.9l4.52,2.88c3.1,1.77,6.19,3.57,9.33,5.28a201.94,201.94,0,0,0,40,15.89,199.81,199.81,0,0,0,42.91,7.15,208.79,208.79,0,0,0,43.92-2.18,204.72,204.72,0,0,0,43-11.47A219.32,219.32,0,0,0,376.1,283.29Z"/></g><g class="cls-2"><path class="cls-3" d="M364.3,297.05a203.87,203.87,0,0,1,71.83-59.22c28.38-14.22,60.39-21.67,92.75-22.15,4,0,8.09.09,12.15.2l6.07.42c2,.16,4.06.23,6.07.51l6.06.72c1,.12,2,.23,3,.37l3,.5,6,1c1,.16,2,.37,3,.59l3,.65a220.3,220.3,0,0,1,46.52,15.69,217,217,0,0,1,42.1,25.89c3.22,2.61,6.51,5.07,9.63,7.95,1.57,1.41,3.19,2.76,4.71,4.22l4.53,4.44c1.54,1.45,3,3,4.39,4.58s2.91,3.08,4.26,4.72c2.69,3.27,5.45,6.5,7.92,10a185.44,185.44,0,0,1,24.56,44.65c1.45,4,3,8,4.11,12.14,1.31,4.08,2.27,8.25,3.31,12.41.48,2.08.86,4.19,1.29,6.29l.62,3.15.48,3.18c.31,2.12.67,4.23.93,6.36l.64,6.41A187.34,187.34,0,0,1,717.92,493c-2,3.82-4,7.69-6.29,11.37L710,507.16c-.55.93-1.11,1.86-1.73,2.75l-3.62,5.39-.91,1.35-1,1.3-1.94,2.6-1.95,2.6-1,1.3-1,1.25-4.15,5-1,1.24-1.13,1.23-2.26,2.46a155.63,155.63,0,0,1-19.82,18,158.56,158.56,0,0,1-22.72,14.25,155.82,155.82,0,0,1-154-6.63A162,162,0,0,1,470.32,545,128.75,128.75,0,0,1,431.23,419a127.31,127.31,0,0,1,24-49.11c1.38-1.83,2.9-3.54,4.39-5.26s3.15-3.43,4.78-5.13a102.53,102.53,0,0,1,10.71-9.36,104.94,104.94,0,0,1,80-20.32,103.8,103.8,0,0,1,50.3,22.76c.89.74,1.74,1.52,2.61,2.28s1.72,1.5,2.58,2.37,1.73,1.66,2.56,2.53l2.44,2.64a86.83,86.83,0,0,1,8.58,11.55,85.14,85.14,0,0,1,12.2,54.57,83.47,83.47,0,0,1-7.87,26.87,85,85,0,0,1-7.18,12c-1.33,1.9-2.8,3.69-4.26,5.48l-2.31,2.57-.58.64-.65.63-1.29,1.25a67.62,67.62,0,0,1-51.79,19.29,65.41,65.41,0,0,1-26.63-7.55l-3-1.71c-.49-.29-1-.55-1.48-.87l-1.42-1a52.78,52.78,0,0,1-5.47-4.15,51.77,51.77,0,0,1-5.05-4.72c-.8-.87-1.64-1.7-2.38-2.61l-2.16-2.8c-.35-.48-.73-.93-1-1.42l-.94-1.5c-.61-1-1.24-2-1.82-3l-1.54-3.16c-.25-.53-.53-1-.74-1.58l-.62-1.64A51.83,51.83,0,0,1,502.91,446a52.84,52.84,0,0,1-.22-6.88c.06-1.15,0-2.29.19-3.42l.44-3.4A27.42,27.42,0,0,1,504,429l.38-1.66.2-.82.26-.81,1.08-3.22.27-.8.34-.78.69-1.54a48,48,0,0,1,17-20.47,40.57,40.57,0,0,1,12.29-5.4,39.39,39.39,0,0,1,36.38,8.87,31.44,31.44,0,0,1,7.55,10.14,29.88,29.88,0,0,1,.62,23.86,28.55,28.55,0,0,1-6.6,9.64,27.56,27.56,0,0,0,5.25-21.15,26.62,26.62,0,0,0-3.81-9.89,25.32,25.32,0,0,0-7.24-7.34,31,31,0,0,0-19.26-5.6,30.23,30.23,0,0,0-17.86,6.91,35.64,35.64,0,0,0-10.35,15.95L520.8,426l-.19.57-.12.59-.51,2.32-.12.58-.07.59-.13,1.18a18.67,18.67,0,0,0-.22,2.35l-.05,2.36c0,.78.11,1.56.14,2.34a39.32,39.32,0,0,0,.64,4.61c.15.76.41,1.5.59,2.24a15.18,15.18,0,0,0,.69,2.2l.8,2.15c.31.7.68,1.37,1,2.05l.49,1c.17.33.4.64.59,1l1.18,1.92c.44.62.92,1.2,1.37,1.8l.67.89c.22.3.51.55.76.83l1.53,1.64c.52.53,1.12,1,1.67,1.48a33.52,33.52,0,0,0,3.68,2.8,31.91,31.91,0,0,0,4,2.44l1,.58c.34.19.71.32,1.06.48l2.12.94a43,43,0,0,0,35.14-.7,42.68,42.68,0,0,0,13.86-10.45l.72-.81.37-.39.35-.46,1.41-1.84c.88-1.26,1.77-2.51,2.54-3.83a53.77,53.77,0,0,0,7.86-25.7,54.36,54.36,0,0,0-2.07-17.62,52.34,52.34,0,0,0-7.62-15.7,58.25,58.25,0,0,0-5.6-6.63l-1.56-1.5c-.53-.49-1.09-1-1.63-1.43s-1.15-1-1.75-1.43-1.2-1-1.82-1.43A68.24,68.24,0,0,0,515,372.41a66.09,66.09,0,0,0-15,9.34,66.91,66.91,0,0,0-6.44,6.05c-1,1.12-2,2.13-3,3.41s-2,2.41-2.89,3.69a87.82,87.82,0,0,0-15.24,33.61,89.06,89.06,0,0,0,0,36.75,86.81,86.81,0,0,0,27.35,46.79,118.34,118.34,0,0,0,15.49,11.47,111.09,111.09,0,0,0,35.48,14.38,112.4,112.4,0,0,0,38.32,1.75A115.83,115.83,0,0,0,608,535.73a117.36,117.36,0,0,0,17.89-7.12,114.79,114.79,0,0,0,16.48-10,121.23,121.23,0,0,0,14.56-12.73l1.68-1.76.84-.87.83-1,3.3-3.81.82-.95.78-1,1.54-2,1.56-2,.77-1,.72-1,2.9-4.13c.5-.67,1-1.38,1.39-2.09l1.35-2.13c1.87-2.79,3.43-5.77,5.11-8.68.82-1.47,1.52-3,2.29-4.49l1.14-2.26c.37-.75.68-1.53,1-2.3l2-4.61,1.8-4.72c.3-.79.64-1.56.9-2.36l.79-2.4c.52-1.6,1.11-3.19,1.57-4.81.89-3.25,1.86-6.49,2.53-9.8.83-3.28,1.32-6.63,1.94-10,.25-1.67.43-3.35.66-5l.33-2.52.21-2.53a147,147,0,0,0,.42-20.35,151.07,151.07,0,0,0-25.24-77.07c-1.84-2.92-4-5.64-6-8.42-1-1.39-2.17-2.69-3.25-4s-2.15-2.71-3.34-4L656.79,298c-1.17-1.28-2.44-2.47-3.65-3.71-2.37-2.51-5.13-4.83-7.74-7.23l-2-1.8-2.06-1.68-4.14-3.38c-1.35-1.16-2.81-2.19-4.24-3.25l-4.31-3.17c-1.42-1.09-3-2-4.43-3l-4.45-3c-3.06-1.84-6.11-3.71-9.21-5.49a202.45,202.45,0,0,0-39.66-16.77,200.06,200.06,0,0,0-42.74-8.09,210.1,210.1,0,0,0-44,1.2A205,205,0,0,0,441,249.19,219.26,219.26,0,0,0,364.3,297.05Z"/></g></pattern><radialGradient id="radial-gradient" cx="-972.3" cy="5711.01" r="421.02" gradientTransform="matrix(-1.07, 0.06, 0.05, 1.54, -771.59, -8399.52)" gradientUnits="userSpaceOnUse"><stop offset="0" stop-color="#92b33d"/><stop offset="1" stop-color="#57b647"/></radialGradient></defs><title>BooksOwl</title><g class="cls-4"><path class="cls-5" d="M-75.26,607.47c5.45,30.54,9.88,61.18,12.1,92Q-46.12,701-29,702c28.75,1.65,57.57,2.18,86.38,2.29,29,.12,58-.2,86.93-.28l1.77,0c10-.73,20.11-1.54,30.18-2.1,22-1.23,44,.68,65.94,2.22,19.92,1.4,39.7,2.07,59.69,1.85,9.67-.11,19.34-.24,29-.16,10.11.08,20.15.68,30.24,1.06q60.66,2.26,121.35,4,55.28,1.5,110.56,2.34l-.82-335.3-661.1,1.63q.21,8.69.41,17.36c.27,12.2.29,24.44-1,36.6-.74,6.95-1.92,13.87-3.08,20.77-.47,2.79-1,5.57-1.73,8.33a79.27,79.27,0,0,1-4.53,12.82c-.06,7.33-.35,14.65-.73,22-1.46,27.79-4.41,55.84-.87,83.58C-78.76,589.8-76.85,598.62-75.26,607.47Z"/><path class="cls-6" d="M1280.69,109.75c-5.46-30.54-9.88-61.18-12.11-92q-17-1.58-34.16-2.55c-28.74-1.65-57.57-2.18-86.38-2.29-29-.12-58,.2-86.92.28q-.9,0-1.77,0c-10.06.73-20.12,1.54-30.19,2.1-22,1.23-44-.68-65.93-2.22-19.92-1.4-39.71-2.07-59.7-1.85-9.67.11-19.33.24-29,.16-10.11-.08-20.15-.68-30.24-1.06Q783.63,8.06,722.94,6.37,667.67,4.87,612.38,4l.83,335.3,661.1-1.63q-.22-8.68-.41-17.36c-.27-12.2-.3-24.44,1-36.6.74-6.95,1.92-13.87,3.08-20.77.47-2.79,1-5.57,1.73-8.33a79.31,79.31,0,0,1,4.54-12.82c0-7.33.34-14.65.72-22,1.46-27.79,4.42-55.84.87-83.58C1284.19,127.42,1282.27,118.6,1280.69,109.75Z"/><path class="cls-7" d="M1273.75,447.59c-5.46-30.54-9.89-61.18-12.11-92q-17-1.58-34.16-2.54c-28.75-1.66-57.57-2.19-86.38-2.3-29-.11-57.95.2-86.93.28-.59,0-1.18,0-1.76,0-10.06.73-20.12,1.54-30.19,2.1-22,1.23-44-.68-65.93-2.22-19.93-1.4-39.71-2.07-59.7-1.85-9.67.11-19.33.24-29,.16-10.11-.08-20.15-.68-30.24-1.05q-60.66-2.28-121.35-4-55.28-1.5-110.56-2.34l.83,335.3,661.09-1.63q-.21-8.68-.4-17.36c-.28-12.2-.3-24.44,1-36.6.74-7,1.92-13.87,3.08-20.77.47-2.79,1-5.57,1.73-8.33a79.31,79.31,0,0,1,4.54-12.82c0-7.33.34-14.65.72-22,1.46-27.79,4.41-55.84.87-83.58C1277.24,465.26,1275.33,456.44,1273.75,447.59Z"/><path class="cls-8" d="M-57.65,265.49c5.46,30.53,9.88,61.18,12.1,92Q-28.49,359-11.39,360c28.75,1.65,57.58,2.19,86.39,2.3,29,.11,57.95-.21,86.92-.28l1.77,0c10.06-.72,20.11-1.53,30.19-2.09,22-1.23,44,.67,65.93,2.22,19.92,1.4,39.71,2.06,59.7,1.84,9.66-.1,19.33-.23,29-.15,10.1.08,20.15.67,30.24,1.05q60.66,2.26,121.35,3.95,55.27,1.51,110.56,2.35l-.83-335.3-661.1,1.63q.21,8.68.41,17.36c.27,12.2.3,24.44-1,36.6-.74,6.94-1.92,13.87-3.07,20.76-.47,2.8-1,5.58-1.73,8.34a80.16,80.16,0,0,1-4.54,12.81c0,7.33-.34,14.66-.73,22-1.45,27.79-4.41,55.83-.86,83.58C-61.15,247.81-59.23,256.63-57.65,265.49Z"/><path class="cls-9" d="M2.63,1.34V651.29l1154.56-1.44.59-652.38Z"/><rect class="cls-10" x="100.24" y="186.18" width="797.05" height="362.64"/><rect class="cls-11" x="105.04" y="299.19" width="792.25" height="10.05"/><rect class="cls-11" x="105.52" y="425.17" width="792.25" height="10.05"/><path class="cls-12" d="M568.62,115.24a23.66,23.66,0,0,1-9.91,2.64c-16.68.6-27.49-18.13-28.63-20.17-7.38,19.57,1.47,38.3,11.65,41.14C550.75,141.37,564.07,132.32,568.62,115.24Z"/><path class="cls-12" d="M634.33,117.7a27.5,27.5,0,0,0,10.53,3.44c18,1.94,31.26-15.86,32.66-17.8,6.41,20.11-4.69,38.07-16,40.08C651.59,145.19,637.88,135.1,634.33,117.7Z"/><path class="cls-13" d="M574.05,163.37a12.68,12.68,0,0,0-7.52-.6,10.67,10.67,0,0,0-6.33,3.67,3.94,3.94,0,0,0-.79,2.94,4.3,4.3,0,0,0,1.73,2.65,7.64,7.64,0,0,0,7,1,6.13,6.13,0,0,0,3-1.91,2.16,2.16,0,0,0,.16-2.7,4.13,4.13,0,0,0-2.93-1.59,5.07,5.07,0,0,0-3.43.89A2,2,0,0,0,564,169a1.44,1.44,0,0,0,.53,1.28,3.08,3.08,0,0,0,3.34.37c.54-.27,1-.71,1-1.17a1.35,1.35,0,0,0-1-1.11,2.1,2.1,0,0,0-1.77.3.79.79,0,0,0-.38.68.83.83,0,0,0,.52.64l-.14.34a1.24,1.24,0,0,1-.83-.91,1.26,1.26,0,0,1,.48-1.17,2.7,2.7,0,0,1,2.29-.59,2.41,2.41,0,0,1,1.13.56,1.79,1.79,0,0,1,.64,1.21,1.93,1.93,0,0,1-.4,1.33,3.42,3.42,0,0,1-1,.84,4.44,4.44,0,0,1-2.38.59,4.09,4.09,0,0,1-2.37-.86,2.89,2.89,0,0,1-1.15-2.48,3.53,3.53,0,0,1,1.31-2.35,6.56,6.56,0,0,1,4.61-1.51,6,6,0,0,1,4.48,2.24,4.24,4.24,0,0,1,.9,2.65,4.55,4.55,0,0,1-.89,2.63,8.43,8.43,0,0,1-4,2.91,10.57,10.57,0,0,1-4.8.57,9.29,9.29,0,0,1-2.41-.57,9.17,9.17,0,0,1-2.2-1.18,7.14,7.14,0,0,1-2.92-4.33,6.7,6.7,0,0,1,1.2-5.18,13.52,13.52,0,0,1,8.11-5,15.72,15.72,0,0,1,9.35.82Z"/><path class="cls-13" d="M628.66,161.52a13.68,13.68,0,0,1,8.79-1.84,12,12,0,0,1,8,4.28,7.57,7.57,0,0,1,1.16,2.24,6.67,6.67,0,0,1,.26,2.55,7.16,7.16,0,0,1-2.16,4.42,8.81,8.81,0,0,1-1.9,1.44,8.31,8.31,0,0,1-2.23.86,9.38,9.38,0,0,1-4.65-.09,7.72,7.72,0,0,1-4-2.59,4.72,4.72,0,0,1-1-2.42,4.46,4.46,0,0,1,.55-2.55,5.59,5.59,0,0,1,3.92-2.73,5.73,5.73,0,0,1,4.53,1.09,3.45,3.45,0,0,1,1.34,2.16,3,3,0,0,1-.79,2.45,3.74,3.74,0,0,1-2.13,1.13,3.84,3.84,0,0,1-2.33-.36,3.16,3.16,0,0,1-1-.77,1.93,1.93,0,0,1-.44-1.23,2.08,2.08,0,0,1,1.44-1.88,2.35,2.35,0,0,1,2.23.36,1.32,1.32,0,0,1,.52,1.09,1.26,1.26,0,0,1-.66,1l-.19-.3a.87.87,0,0,0,.41-.68.83.83,0,0,0-.4-.65,1.78,1.78,0,0,0-1.66-.13,1.29,1.29,0,0,0-.82,1.21,1.44,1.44,0,0,0,1,1.08,2.62,2.62,0,0,0,3-.7,1.62,1.62,0,0,0-.51-2.48,4.2,4.2,0,0,0-3.23-.57,3.69,3.69,0,0,0-2.5,1.88,2.44,2.44,0,0,0,.36,2.69,5.49,5.49,0,0,0,2.86,1.63,6.87,6.87,0,0,0,3.43,0,5.71,5.71,0,0,0,1.54-.65,5.91,5.91,0,0,0,1.31-1.06,4.38,4.38,0,0,0,1.29-2.79,4.22,4.22,0,0,0-.92-2.84,9.31,9.31,0,0,0-6.11-3.08,10.82,10.82,0,0,0-6.91,1.38Z"/><path class="cls-14" d="M601.73,60.64a28.76,28.76,0,0,1,6.37-4.41,25.21,25.21,0,0,1,7.45-2.46,21.82,21.82,0,0,1,15.19,3.35,18.48,18.48,0,0,1,5.59,5.68,43.88,43.88,0,0,1,3.1,6.84A7,7,0,0,0,641,72.1a5.43,5.43,0,0,0,2.46,1.21,8.43,8.43,0,0,0,5.88-1,7.15,7.15,0,0,0,1.22-.88c.17-.15.38-.38.49-.49a5.56,5.56,0,0,0,.38-.57,8.83,8.83,0,0,0,1.12-2.91,7.14,7.14,0,0,0-.06-3,5.35,5.35,0,0,0-1.42-2.51,5.87,5.87,0,0,0-5.58-1.44,5.23,5.23,0,0,0-3.94,4.09,4.23,4.23,0,0,0,.45,2.84A3.52,3.52,0,0,0,644.36,69a3.76,3.76,0,0,0,2.85-.59,3.23,3.23,0,0,0,1.33-2.53,2.21,2.21,0,0,0-1.49-2.22,2.31,2.31,0,0,0-2.65.82A1.64,1.64,0,0,0,645,67a1.54,1.54,0,0,0,1.43-.14,1.35,1.35,0,0,0,.56-1.34l.44-.09a1.85,1.85,0,0,1-.65,1.89,2.18,2.18,0,0,1-2,.34,2.12,2.12,0,0,1-1.41-1.56,2.79,2.79,0,0,1,.33-2.07,3,3,0,0,1,1.63-1.34,3.61,3.61,0,0,1,2.11-.08,3.3,3.3,0,0,1,1.79,1.21,3.65,3.65,0,0,1,.71,2,4.63,4.63,0,0,1-1.74,3.77,5.32,5.32,0,0,1-4,1.05,5.25,5.25,0,0,1-3.62-2.22,6.08,6.08,0,0,1-.9-4.15,7.28,7.28,0,0,1,5.34-6,8.32,8.32,0,0,1,7.94,1.83,7.88,7.88,0,0,1,2.24,3.66,9.75,9.75,0,0,1,.24,4.19,12.11,12.11,0,0,1-1.34,3.9,10.33,10.33,0,0,1-.61,1,10.47,10.47,0,0,1-.76.82A10,10,0,0,1,651,74.92a11.53,11.53,0,0,1-8.11,1.54,8.65,8.65,0,0,1-4-1.91A10.49,10.49,0,0,1,636.35,71a40.66,40.66,0,0,0-3-6.33,15.44,15.44,0,0,0-4.6-4.54,18.17,18.17,0,0,0-12.62-2.66,24,24,0,0,0-11.89,5.88Z"/><path class="cls-14" d="M604,64.07a23,23,0,0,0-11.61-7.29A20.31,20.31,0,0,0,579,58.32a18.36,18.36,0,0,0-5.48,4.06,42,42,0,0,0-4.19,6,12.68,12.68,0,0,1-2.95,3.22,9.41,9.41,0,0,1-4.26,1.67,11.83,11.83,0,0,1-8.35-2.11,9.48,9.48,0,0,1-1.65-1.52,8.7,8.7,0,0,1-.69-.91l-.17-.25c-.11-.19-.12-.24-.18-.35s-.16-.35-.22-.52a11.35,11.35,0,0,1-.81-4.26,10.33,10.33,0,0,1,.94-4.27,9.06,9.06,0,0,1,11.19-4.65,7.2,7.2,0,0,1,3.58,2.6,7,7,0,0,1,1.3,4.23,6.56,6.56,0,0,1-1.6,4.11,5.93,5.93,0,0,1-3.95,1.9,5.48,5.48,0,0,1-4.13-1.39,4.47,4.47,0,0,1-1.29-4.15,4,4,0,0,1,1.06-2,3.84,3.84,0,0,1,4.15-.81,3,3,0,0,1,1.58,1.57,2.78,2.78,0,0,1,0,2.19,2.4,2.4,0,0,1-1.66,1.41,2.24,2.24,0,0,1-2.07-.52,1.65,1.65,0,0,1-.52-1,1.91,1.91,0,0,1,.13-1.06l.44.17a1.28,1.28,0,0,0,.35,1.43,1.6,1.6,0,0,0,1.48.25,1.76,1.76,0,0,0,1-2.5,2.28,2.28,0,0,0-2.64-1A2.54,2.54,0,0,0,557.42,62a3,3,0,0,0,1,2.73,3.83,3.83,0,0,0,2.9.8A4,4,0,0,0,564,64.08a4.47,4.47,0,0,0,.95-2.87,4.84,4.84,0,0,0-3.54-4.53,6.63,6.63,0,0,0-6,1.09,6.34,6.34,0,0,0-1.87,2.43,7.5,7.5,0,0,0-.58,3.1,8.6,8.6,0,0,0,.71,3.12,3.54,3.54,0,0,0,.16.34l0,.07.1.14a5.27,5.27,0,0,0,.48.58,6.52,6.52,0,0,0,1.16,1,8.54,8.54,0,0,0,6,1.39,5.84,5.84,0,0,0,2.69-1.11,9.14,9.14,0,0,0,2.06-2.4,45.51,45.51,0,0,1,4.38-6.5,21.16,21.16,0,0,1,6.55-5,24.74,24.74,0,0,1,7.83-2.37,22.78,22.78,0,0,1,8.22.4A26.39,26.39,0,0,1,607,61.57Z"/><ellipse class="cls-15" cx="602.04" cy="138.33" rx="28.06" ry="39.7" transform="matrix(0.04, -1, 1, 0.04, 440.51, 734.57)"/><ellipse class="cls-16" cx="602.16" cy="95.59" rx="31.2" ry="49.4" transform="translate(483.33 693.59) rotate(-87.78)"/><path class="cls-17" d="M577.47,89a40.27,40.27,0,0,0,6.33,5.26,39.47,39.47,0,0,0,7.16,4,35.15,35.15,0,0,0,15.91,3l2-.11c.68-.07,1.35-.19,2-.28l1-.15,1-.23c.66-.17,1.33-.28,2-.49a37.51,37.51,0,0,0,7.54-3.1,38.86,38.86,0,0,0,6.74-4.65,40.49,40.49,0,0,0,5.71-5.92,37.43,37.43,0,0,1-12.1,11.18,34.89,34.89,0,0,1-7.66,3.3c-.66.21-1.35.34-2,.51l-1,.25-1,.16c-.69.1-1.38.23-2.07.31l-2.09.14a34.94,34.94,0,0,1-16.24-3.23A39.33,39.33,0,0,1,577.47,89Z"/><path class="cls-18" d="M599,93.23l9.67.37q-2.62,5.79-5.27,11.56Q601.16,99.21,599,93.23Z"/><ellipse class="cls-19" cx="611.57" cy="77.16" rx="10.55" ry="18.36" transform="translate(-0.84 7.01) rotate(-0.66)"/><ellipse class="cls-19" cx="595.76" cy="76.03" rx="10.83" ry="18.83" transform="translate(-0.12 0.97) rotate(-0.09)"/><ellipse class="cls-20" cx="613.89" cy="82.11" rx="5.79" ry="12.05" transform="translate(-3.95 38.77) rotate(-3.61)"/><ellipse class="cls-20" cx="596.62" cy="82.76" rx="5.9" ry="12.02" transform="translate(-1.46 11.35) rotate(-1.09)"/><path class="cls-21" d="M594.9,81.75l8.78-.55"/><path class="cls-3" d="M599,81.4a3.21,3.21,0,0,1,.22-2.11,2.7,2.7,0,0,1,1.63-1.37A3.07,3.07,0,0,1,603,78a1.84,1.84,0,0,1,1.09,1.79,1.46,1.46,0,0,1-.48,1,2.45,2.45,0,0,1-.93.49,2.8,2.8,0,0,1-1,.1,1.36,1.36,0,0,1-1-.45,1,1,0,0,1-.1-1,1.5,1.5,0,0,1,.83-.62,1,1,0,0,1,1,.13.74.74,0,0,1,.14,1,.05.05,0,0,1-.07,0,.07.07,0,0,1,0-.07.64.64,0,0,0-.13-.83.89.89,0,0,0-.87-.07,1.3,1.3,0,0,0-.71.56.71.71,0,0,0,.1.8,1.71,1.71,0,0,0,1.73.21,1.39,1.39,0,0,0,1.13-1.22,1.42,1.42,0,0,0-.9-1.36,2.59,2.59,0,0,0-1.78,0,2.19,2.19,0,0,0-1.31,1.13,2.88,2.88,0,0,0-.2,1.77.25.25,0,0,1-.19.29A.26.26,0,0,1,599,81.4Z"/><path class="cls-3" d="M599.05,81.26a1.82,1.82,0,0,0-.22-1.64,2.88,2.88,0,0,0-1.5-.92,2.68,2.68,0,0,0-1.79,0,1.67,1.67,0,0,0-1,1.35,1.21,1.21,0,0,0,.23.83,1.43,1.43,0,0,0,.77.45,1.79,1.79,0,0,0,1.74-.32.78.78,0,0,0,.14-.81,1,1,0,0,0-.7-.52.86.86,0,0,0-.85.16.65.65,0,0,0-.07.82.08.08,0,0,1,0,.1.06.06,0,0,1-.09,0h0a.8.8,0,0,1,.07-1,1.06,1.06,0,0,1,1-.24,1.27,1.27,0,0,1,.85.62,1,1,0,0,1-.16,1.06,2,2,0,0,1-2,.43,1.63,1.63,0,0,1-.93-.53,1.48,1.48,0,0,1-.33-1,2.1,2.1,0,0,1,1.19-1.73,3.1,3.1,0,0,1,2.12-.17,3,3,0,0,1,1.85,1.1,2.18,2.18,0,0,1,.2,2.16.24.24,0,0,1-.33.13A.26.26,0,0,1,599.05,81.26Z"/><path class="cls-21" d="M611.29,82.06l8.77-.55"/><path class="cls-3" d="M615.43,81.71a3.06,3.06,0,0,1,.22-2.1,2.66,2.66,0,0,1,1.63-1.38,3,3,0,0,1,2.1.08,1.8,1.8,0,0,1,1.09,1.78,1.5,1.5,0,0,1-.47,1,2.57,2.57,0,0,1-.94.49,3,3,0,0,1-1,.11,1.39,1.39,0,0,1-1-.46.92.92,0,0,1-.1-1,1.43,1.43,0,0,1,.83-.62,1,1,0,0,1,1,.13.77.77,0,0,1,.13,1,0,0,0,0,1-.06,0s0-.05,0-.07a.65.65,0,0,0-.14-.83.89.89,0,0,0-.87-.07,1.33,1.33,0,0,0-.71.56.71.71,0,0,0,.11.8,1.69,1.69,0,0,0,1.72.21,1.39,1.39,0,0,0,1.14-1.21,1.45,1.45,0,0,0-.9-1.37,2.59,2.59,0,0,0-1.78,0,2.19,2.19,0,0,0-1.31,1.13,2.81,2.81,0,0,0-.2,1.77.25.25,0,0,1-.2.29A.25.25,0,0,1,615.43,81.71Z"/><path class="cls-3" d="M615.44,81.57a1.82,1.82,0,0,0-.23-1.64,2.85,2.85,0,0,0-1.5-.92,2.68,2.68,0,0,0-1.79,0,1.72,1.72,0,0,0-1,1.35,1.17,1.17,0,0,0,.24.83,1.4,1.4,0,0,0,.76.45,1.78,1.78,0,0,0,1.74-.31.78.78,0,0,0,.15-.82,1,1,0,0,0-.71-.52.89.89,0,0,0-.85.16.64.64,0,0,0-.06.82.08.08,0,0,1-.12.09h0a.78.78,0,0,1,.07-1,1,1,0,0,1,1-.23,1.21,1.21,0,0,1,.85.61,1,1,0,0,1-.16,1.06,2,2,0,0,1-2,.44,1.74,1.74,0,0,1-.93-.54,1.53,1.53,0,0,1-.33-1,2.08,2.08,0,0,1,1.2-1.72,3.08,3.08,0,0,1,2.11-.18,3,3,0,0,1,1.85,1.1,2.2,2.2,0,0,1,.21,2.17.26.26,0,0,1-.33.13A.25.25,0,0,1,615.44,81.57Z"/><path class="cls-3" d="M604.68,51.61l17.51,1.6a3.37,3.37,0,1,1-1.39,6.55l-16.64-5.7a1.26,1.26,0,0,1-.79-1.6A1.28,1.28,0,0,1,604.68,51.61Z"/><path class="cls-3" d="M600,54.84l-15.51,6.28a3.37,3.37,0,0,1-2.54-6.25,3.57,3.57,0,0,1,.82-.22l16.59-2.23a1.26,1.26,0,0,1,.64,2.42Z"/><path class="cls-13" d="M590.18,138a5.12,5.12,0,0,1,2.32-6.86,3.33,3.33,0,0,1,3.86.94,3.5,3.5,0,0,1,.44,3.89,3.12,3.12,0,0,1-1.49,1.42,2.2,2.2,0,0,1-2.11-.2,2.29,2.29,0,0,1-1-1.81,2.21,2.21,0,0,1,.84-1.84,1.59,1.59,0,0,1,1-.35,1.46,1.46,0,0,1,1,.46,1.48,1.48,0,0,1,.05,2,1,1,0,0,1-1,.39.91.91,0,0,1-.41-1.62.56.56,0,0,1,.88.21l-.14.07a.37.37,0,0,0-.6-.1.63.63,0,0,0-.17.66.6.6,0,0,0,.49.41.63.63,0,0,0,.56-.31,1,1,0,0,0-.11-1.26.84.84,0,0,0-1.17,0,1.58,1.58,0,0,0-.49,1.27,1.48,1.48,0,0,0,.7,1.12,1.3,1.3,0,0,0,1.24.06,2.1,2.1,0,0,0,1-1,2.37,2.37,0,0,0-.38-2.67,2.17,2.17,0,0,0-2.51-.55,4,4,0,0,0-1.67,5.16Z"/><path class="cls-13" d="M609.17,138.72a5.11,5.11,0,0,1,2.31-6.86,3.33,3.33,0,0,1,3.86.94,3.48,3.48,0,0,1,.44,3.89,3.05,3.05,0,0,1-1.49,1.41,2.21,2.21,0,0,1-2.11-.2,2.32,2.32,0,0,1-1-1.8,2.24,2.24,0,0,1,.84-1.85,1.58,1.58,0,0,1,1-.34,1.42,1.42,0,0,1,1,.46,1.48,1.48,0,0,1,.06,1.95,1.06,1.06,0,0,1-1,.39.93.93,0,0,1-.73-.71.92.92,0,0,1,.32-.92.58.58,0,0,1,.89.21l-.14.07a.38.38,0,0,0-.6-.1.64.64,0,0,0-.18.66.57.57,0,0,0,.49.41.64.64,0,0,0,.56-.3,1,1,0,0,0-.11-1.26.82.82,0,0,0-1.16,0,1.54,1.54,0,0,0-.5,1.26,1.49,1.49,0,0,0,.7,1.12,1.25,1.25,0,0,0,1.24.06,2.12,2.12,0,0,0,1-1,2.38,2.38,0,0,0-.37-2.67A2.15,2.15,0,0,0,612,133a4,4,0,0,0-1.67,5.15Z"/><path class="cls-13" d="M599,145.52a5.12,5.12,0,0,1,2.32-6.86,3.33,3.33,0,0,1,3.86.94,3.5,3.5,0,0,1,.44,3.89,3.1,3.1,0,0,1-1.49,1.41,2.2,2.2,0,0,1-2.11-.2,2.29,2.29,0,0,1-1-1.8,2.24,2.24,0,0,1,.84-1.85,1.54,1.54,0,0,1,1-.34,1.42,1.42,0,0,1,1,.46,1.48,1.48,0,0,1,.05,2,1,1,0,0,1-1,.39,1,1,0,0,1-.74-.71.9.9,0,0,1,.33-.92.57.57,0,0,1,.88.21l-.14.07a.38.38,0,0,0-.6-.1.63.63,0,0,0-.17.66.57.57,0,0,0,.49.41.62.62,0,0,0,.56-.3,1,1,0,0,0-.11-1.26.83.83,0,0,0-1.17,0,1.57,1.57,0,0,0-.49,1.26,1.47,1.47,0,0,0,.7,1.12,1.25,1.25,0,0,0,1.24.06,2.17,2.17,0,0,0,1-1,2.38,2.38,0,0,0-.38-2.67,2.14,2.14,0,0,0-2.51-.55,4,4,0,0,0-1.67,5.15Z"/><path class="cls-13" d="M617.11,146.22a5.12,5.12,0,0,1,2.32-6.86,3.33,3.33,0,0,1,3.86.94,3.5,3.5,0,0,1,.44,3.89,3.05,3.05,0,0,1-1.49,1.41,2.21,2.21,0,0,1-2.11-.2,2.32,2.32,0,0,1-1-1.8,2.24,2.24,0,0,1,.84-1.85,1.58,1.58,0,0,1,1-.34,1.42,1.42,0,0,1,1,.46,1.48,1.48,0,0,1,.06,1.95,1.06,1.06,0,0,1-1,.39,1,1,0,0,1-.74-.71.94.94,0,0,1,.33-.92.57.57,0,0,1,.88.21l-.13.07a.38.38,0,0,0-.6-.1.64.64,0,0,0-.18.66.57.57,0,0,0,.49.41.62.62,0,0,0,.56-.3,1,1,0,0,0-.11-1.26.83.83,0,0,0-1.17,0,1.57,1.57,0,0,0-.49,1.26,1.53,1.53,0,0,0,.7,1.13,1.27,1.27,0,0,0,1.24,0,2.12,2.12,0,0,0,.95-1,2.38,2.38,0,0,0-.37-2.67,2.16,2.16,0,0,0-2.52-.55,4,4,0,0,0-1.66,5.16Z"/><path class="cls-13" d="M581.71,147.37a5.12,5.12,0,0,1,2.32-6.86,3.33,3.33,0,0,1,3.86.94,3.5,3.5,0,0,1,.44,3.89,3.16,3.16,0,0,1-1.49,1.42,2.2,2.2,0,0,1-2.11-.2,2.29,2.29,0,0,1-1-1.81,2.21,2.21,0,0,1,.84-1.84,1.55,1.55,0,0,1,1-.35,1.46,1.46,0,0,1,1,.46,1.48,1.48,0,0,1,0,1.95,1,1,0,0,1-1,.39.92.92,0,0,1-.74-.7.89.89,0,0,1,.33-.92.57.57,0,0,1,.88.21L586,144a.37.37,0,0,0-.6-.1.63.63,0,0,0-.17.66.6.6,0,0,0,.49.41.63.63,0,0,0,.56-.31,1,1,0,0,0-.11-1.26.84.84,0,0,0-1.17,0,1.58,1.58,0,0,0-.49,1.27,1.48,1.48,0,0,0,.7,1.12,1.3,1.3,0,0,0,1.24.06,2.1,2.1,0,0,0,.95-1,2.37,2.37,0,0,0-.38-2.67,2.17,2.17,0,0,0-2.51-.55,4,4,0,0,0-1.67,5.16Z"/><path class="cls-13" d="M591.23,155.13a5.12,5.12,0,0,1,2.32-6.86,3.33,3.33,0,0,1,3.86.94,3.5,3.5,0,0,1,.44,3.89,3.12,3.12,0,0,1-1.49,1.42,2.2,2.2,0,0,1-2.11-.2,2.31,2.31,0,0,1-1-1.81,2.21,2.21,0,0,1,.84-1.84,1.59,1.59,0,0,1,1-.35,1.46,1.46,0,0,1,1,.46,1.48,1.48,0,0,1,0,1.95,1,1,0,0,1-1,.39.91.91,0,0,1-.41-1.62.56.56,0,0,1,.88.21l-.14.06a.38.38,0,0,0-.6-.1.65.65,0,0,0-.17.67.6.6,0,0,0,.49.41.63.63,0,0,0,.56-.31,1,1,0,0,0-.11-1.26.84.84,0,0,0-1.17,0,1.58,1.58,0,0,0-.49,1.27,1.48,1.48,0,0,0,.7,1.12,1.27,1.27,0,0,0,1.24,0,2,2,0,0,0,.95-1,2.37,2.37,0,0,0-.38-2.67,2.17,2.17,0,0,0-2.51-.55,4,4,0,0,0-1.67,5.16Z"/><path class="cls-13" d="M607.5,155.76a5.12,5.12,0,0,1,2.32-6.86,3.33,3.33,0,0,1,3.86.94,3.48,3.48,0,0,1,.44,3.89,3.12,3.12,0,0,1-1.49,1.42,2.21,2.21,0,0,1-2.11-.2,2.32,2.32,0,0,1-1-1.81,2.21,2.21,0,0,1,.84-1.84,1.59,1.59,0,0,1,1-.35,1.46,1.46,0,0,1,1,.46,1.48,1.48,0,0,1,.06,2,1,1,0,0,1-1,.39.91.91,0,0,1-.41-1.62.56.56,0,0,1,.88.21l-.13.07a.37.37,0,0,0-.6-.1.64.64,0,0,0-.18.66.6.6,0,0,0,.49.41.63.63,0,0,0,.56-.31,1,1,0,0,0-.11-1.26.84.84,0,0,0-1.17,0,1.58,1.58,0,0,0-.49,1.27,1.51,1.51,0,0,0,.7,1.12,1.27,1.27,0,0,0,1.24.05,2,2,0,0,0,1-1,2.38,2.38,0,0,0-.37-2.67,2.19,2.19,0,0,0-2.52-.55,4,4,0,0,0-1.66,5.16Z"/><path class="cls-22" d="M527.35,84.64a333.88,333.88,0,0,0-31.93-14.75c-11.6-4.62-18.88-6.19-25.05-8.94-19.45-8.65-30.84-18.24-50.13-26.73C351.35,3.9,255,20,241.94,55.86c-6.8,18.63,9.19,41.56,20.9,52.68,40.92,38.89,122.5,21.87,167.49,2,17.27-7.63,26-14.28,40.12-20.27,10-4.24,14.83-5.59,18.91-6.48A82.53,82.53,0,0,1,527.35,84.64Z"/><text class="cls-23" transform="translate(270 58.84) scale(0.98 1)">Hi Im Humfrey the Owl! I help <tspan x="5.3" y="14.14">you Undestand the verse by </tspan><tspan x="-8.76" y="28.27">giving you books with pictures to </tspan><tspan x="18.23" y="42.41">help you read the Bible!</tspan></text></g></svg>