<svg id="Layer_1" data-name="Layer 1" xmlns="http://www.w3.org/2000/svg" viewBox="0 0 1008 626.4"><defs><style>.cls-1,.cls-14,.cls-15,.cls-16,.cls-17{fill:#fff;}.cls-1,.cls-6{stroke:#a7a9ac;stroke-width:5px;}.cls-1,.cls-10,.cls-14,.cls-15,.cls-16,.cls-17,.cls-2,.cls-3,.cls-4,.cls-5,.cls-6,.cls-7,.cls-8,.cls-9{stroke-miterlimit:10;}.cls-2,.cls-3,.cls-4,.cls-5{fill:#f9e308;stroke:#f9e308;}.cls-10,.cls-15,.cls-17,.cls-3,.cls-5,.cls-8{stroke-linecap:round;}.cls-15,.cls-3,.cls-8{stroke-width:1.4px;}.cls-16,.cls-4,.cls-9{stroke-width:0.47px;}.cls-10,.cls-17,.cls-5{stroke-width:2.79px;}.cls-11,.cls-6{fill:#29b8e4;}.cls-10,.cls-12,.cls-7,.cls-8,.cls-9{fill:#e94897;}.cls-10,.cls-7,.cls-8,.cls-9{stroke:#ef519d;}.cls-13{fill:#f8e300;}.cls-14,.cls-15,.cls-16,.cls-17{stroke:#fff;}</style></defs><title>DefaultBackground</title><rect class="cls-1" x="642.92" y="34.32" width="163.56" height="110.3"/><path class="cls-2" d="M723,104.58a65.51,65.51,0,0,1,48.26-.27"/><path class="cls-3" d="M723,104.58a65.51,65.51,0,0,1,48.26-.27"/><path class="cls-2" d="M675.58,104.86a60.8,60.8,0,0,1,47.35-.45"/><path class="cls-3" d="M675.58,104.86a60.8,60.8,0,0,1,47.35-.45"/><path class="cls-2" d="M698,80.85a4,4,0,0,1,1.63,2.5,5.18,5.18,0,0,1-.29,3,4.93,4.93,0,0,1-2,2.36,6.8,6.8,0,0,1-2.93,1,6.87,6.87,0,0,1-3.1-.39,5.79,5.79,0,0,1-2.61-1.89,6.86,6.86,0,0,1-1.35-2.92,8.56,8.56,0,0,1,0-3.19,8.35,8.35,0,0,1,1.18-3A7.83,7.83,0,0,1,690.84,76a10.82,10.82,0,0,1,6.06-1.79A10.49,10.49,0,0,1,703.09,76a9.88,9.88,0,0,1,2.35,2.39,10.76,10.76,0,0,1,1.47,3,13,13,0,0,1,.27,6.49,13.33,13.33,0,0,1-1,3.11c-.12.25-.24.5-.38.74l-.21.37-.23.35a10.39,10.39,0,0,1-1,1.35A14.38,14.38,0,0,1,699,97.61,18,18,0,0,1,692.67,99a17.82,17.82,0,0,1-6.44-.94l-.79-.28c-.26-.1-.51-.23-.77-.35l-.76-.37c-.25-.14-.5-.28-.74-.43a15.19,15.19,0,0,1-2.68-2.11,15.79,15.79,0,0,1-2.15-2.61,13.85,13.85,0,0,1-.84-1.44c-.13-.25-.27-.5-.39-.76l-.33-.77a18.46,18.46,0,0,1-1.37-6.51,21.33,21.33,0,0,1,.73-6.51,20.17,20.17,0,0,1,2.71-6.11,19.23,19.23,0,0,1,4.7-4.86,24,24,0,0,1,12.14-4.33,27.85,27.85,0,0,1,12.49,1.76,22.05,22.05,0,0,1,2.89,1.41l.7.41c.24.14.47.3.69.45.45.32.88.64,1.29,1a24.37,24.37,0,0,1,4.33,4.58,22.23,22.23,0,0,1,1.64,2.67c.12.23.24.46.35.7l.31.71c.2.47.44.93.59,1.41l.51,1.43c.14.48.27,1,.41,1.44s.26,1,.37,1.43.23,1,.32,1.44a67.15,67.15,0,0,1,1.11,11.51c0,.95,0,1.9,0,2.86s0,1.9-.09,2.85c-.07,1.9-.21,3.79-.4,5.68-.35-3.78-.81-7.52-1.42-11.22a75.72,75.72,0,0,0-2.54-10.82,37.66,37.66,0,0,0-2-5c-.18-.4-.42-.76-.63-1.14l-.32-.55c-.11-.19-.24-.36-.35-.53a20,20,0,0,0-5.3-5.31c-.34-.23-.69-.44-1-.64l-.51-.28-.55-.25a18.14,18.14,0,0,0-2.3-.87,21.84,21.84,0,0,0-9.81-.66,21,21,0,0,0-8.86,3.46A12.25,12.25,0,0,0,685.83,72a12.43,12.43,0,0,0-1.5,1.66,13.74,13.74,0,0,0-1.21,1.91,16,16,0,0,0-.93,2.16,18,18,0,0,0-.62,2.29,15.62,15.62,0,0,0-.25,2.35A12.24,12.24,0,0,0,682,86.9l.19.54c.07.17.16.34.24.51a8.41,8.41,0,0,0,.52,1,10.49,10.49,0,0,0,1.34,1.83A10.73,10.73,0,0,0,686,92.3c.15.11.31.2.47.31l.49.27c.17.08.33.19.51.26l.53.23a13.59,13.59,0,0,0,9.43.18,10.37,10.37,0,0,0,3.93-2.46,7.48,7.48,0,0,0,.73-.87l.18-.23.15-.24a5,5,0,0,0,.29-.5,10.59,10.59,0,0,0,.87-2.21,9.49,9.49,0,0,0,.11-4.7,7.32,7.32,0,0,0-.9-2.14,6.89,6.89,0,0,0-1.49-1.73,7.59,7.59,0,0,0-4.4-1.58A8.44,8.44,0,0,0,692.13,78a5.88,5.88,0,0,0-2.77,3.75,5.7,5.7,0,0,0,.71,4.67,4.26,4.26,0,0,0,1.82,1.51,5.5,5.5,0,0,0,2.45.47A4.67,4.67,0,0,0,698.53,86a4.47,4.47,0,0,0,.44-2.52,3.44,3.44,0,0,0-1.22-2.23"/><path class="cls-4" d="M698,80.85a4,4,0,0,1,1.63,2.5,5.18,5.18,0,0,1-.29,3,4.93,4.93,0,0,1-2,2.36,6.8,6.8,0,0,1-2.93,1,6.87,6.87,0,0,1-3.1-.39,5.79,5.79,0,0,1-2.61-1.89,6.86,6.86,0,0,1-1.35-2.92,8.56,8.56,0,0,1,0-3.19,8.35,8.35,0,0,1,1.18-3A7.83,7.83,0,0,1,690.84,76a10.82,10.82,0,0,1,6.06-1.79A10.49,10.49,0,0,1,703.09,76a9.88,9.88,0,0,1,2.35,2.39,10.76,10.76,0,0,1,1.47,3,13,13,0,0,1,.27,6.49,13.33,13.33,0,0,1-1,3.11c-.12.25-.24.5-.38.74l-.21.37-.23.35a10.39,10.39,0,0,1-1,1.35A14.38,14.38,0,0,1,699,97.61,18,18,0,0,1,692.67,99a17.82,17.82,0,0,1-6.44-.94l-.79-.28c-.26-.1-.51-.23-.77-.35l-.76-.37c-.25-.14-.5-.28-.74-.43a15.19,15.19,0,0,1-2.68-2.11,15.79,15.79,0,0,1-2.15-2.61,13.85,13.85,0,0,1-.84-1.44c-.13-.25-.27-.5-.39-.76l-.33-.77a18.46,18.46,0,0,1-1.37-6.51,21.33,21.33,0,0,1,.73-6.51,20.17,20.17,0,0,1,2.71-6.11,19.23,19.23,0,0,1,4.7-4.86,24,24,0,0,1,12.14-4.33,27.85,27.85,0,0,1,12.49,1.76,22.05,22.05,0,0,1,2.89,1.41l.7.41c.24.14.47.3.69.45.45.32.88.64,1.29,1a24.37,24.37,0,0,1,4.33,4.58,22.23,22.23,0,0,1,1.64,2.67c.12.23.24.46.35.7l.31.71c.2.47.44.93.59,1.41l.51,1.43c.14.48.27,1,.41,1.44s.26,1,.37,1.43.23,1,.32,1.44a67.15,67.15,0,0,1,1.11,11.51c0,.95,0,1.9,0,2.86s0,1.9-.09,2.85c-.07,1.9-.21,3.79-.4,5.68-.35-3.78-.81-7.52-1.42-11.22a75.72,75.72,0,0,0-2.54-10.82,37.66,37.66,0,0,0-2-5c-.18-.4-.42-.76-.63-1.14l-.32-.55c-.11-.19-.24-.36-.35-.53a20,20,0,0,0-5.3-5.31c-.34-.23-.69-.44-1-.64l-.51-.28-.55-.25a18.14,18.14,0,0,0-2.3-.87,21.84,21.84,0,0,0-9.81-.66,21,21,0,0,0-8.86,3.46A12.25,12.25,0,0,0,685.83,72a12.43,12.43,0,0,0-1.5,1.66,13.74,13.74,0,0,0-1.21,1.91,16,16,0,0,0-.93,2.16,18,18,0,0,0-.62,2.29,15.62,15.62,0,0,0-.25,2.35A12.24,12.24,0,0,0,682,86.9l.19.54c.07.17.16.34.24.51a8.41,8.41,0,0,0,.52,1,10.49,10.49,0,0,0,1.34,1.83A10.73,10.73,0,0,0,686,92.3c.15.11.31.2.47.31l.49.27c.17.08.33.19.51.26l.53.23a13.59,13.59,0,0,0,9.43.18,10.37,10.37,0,0,0,3.93-2.46,7.48,7.48,0,0,0,.73-.87l.18-.23.15-.24a5,5,0,0,0,.29-.5,10.59,10.59,0,0,0,.87-2.21,9.49,9.49,0,0,0,.11-4.7,7.32,7.32,0,0,0-.9-2.14,6.89,6.89,0,0,0-1.49-1.73,7.59,7.59,0,0,0-4.4-1.58A8.44,8.44,0,0,0,692.13,78a5.88,5.88,0,0,0-2.77,3.75,5.7,5.7,0,0,0,.71,4.67,4.26,4.26,0,0,0,1.82,1.51,5.5,5.5,0,0,0,2.45.47A4.67,4.67,0,0,0,698.53,86a4.47,4.47,0,0,0,.44-2.52,3.44,3.44,0,0,0-1.22-2.23"/><line class="cls-2" x1="675.08" y1="109.39" x2="770.8" y2="108.87"/><line class="cls-5" x1="675.08" y1="109.39" x2="770.8" y2="108.87"/><path class="cls-2" d="M748.39,80.85a4,4,0,0,0-1.63,2.5,5.35,5.35,0,0,0,.29,3,5,5,0,0,0,2,2.36,6.8,6.8,0,0,0,2.93,1,6.89,6.89,0,0,0,3.1-.39,5.81,5.81,0,0,0,2.6-1.89,6.74,6.74,0,0,0,1.35-2.92,8.35,8.35,0,0,0,0-3.19,8.15,8.15,0,0,0-1.17-3,7.75,7.75,0,0,0-2.3-2.33,10.77,10.77,0,0,0-6.06-1.79A10.52,10.52,0,0,0,743.33,76,10.06,10.06,0,0,0,741,78.41a10.73,10.73,0,0,0-1.46,3,13,13,0,0,0-.28,6.49,13.84,13.84,0,0,0,1,3.11,7.39,7.39,0,0,0,.38.74l.2.37.24.35a10.32,10.32,0,0,0,1,1.35,14.33,14.33,0,0,0,5.37,3.81A18.25,18.25,0,0,0,760.2,98l.78-.28c.27-.1.52-.23.77-.35l.77-.37c.25-.14.5-.28.74-.43a15.66,15.66,0,0,0,4.82-4.72,16,16,0,0,0,.85-1.44c.13-.25.27-.5.38-.76l.34-.77A18.92,18.92,0,0,0,771,82.39a22,22,0,0,0-.73-6.51,20.17,20.17,0,0,0-2.71-6.11,19.23,19.23,0,0,0-4.7-4.86,24,24,0,0,0-12.14-4.33,27.92,27.92,0,0,0-12.5,1.76,22.68,22.68,0,0,0-2.89,1.41l-.69.41c-.24.14-.47.3-.7.45-.44.32-.88.64-1.29,1a24,24,0,0,0-4.32,4.58,21,21,0,0,0-1.64,2.67c-.12.23-.25.46-.36.7l-.31.71c-.2.47-.43.93-.59,1.41l-.5,1.43c-.15.48-.28,1-.42,1.44s-.26,1-.36,1.43-.23,1-.32,1.44a67.17,67.17,0,0,0-1.12,11.51c0,.95,0,1.9,0,2.86s0,1.9.09,2.85c.08,1.9.21,3.79.41,5.68.35-3.78.8-7.52,1.41-11.22a75.74,75.74,0,0,1,2.55-10.82,36.34,36.34,0,0,1,2-5c.18-.4.42-.76.63-1.14l.32-.55c.11-.19.23-.36.35-.53a16.69,16.69,0,0,1,1.55-2,19,19,0,0,1,3.75-3.31c.34-.23.69-.44,1-.64l.52-.28.55-.25a18,18,0,0,1,2.29-.87,21.87,21.87,0,0,1,9.82-.66,20.94,20.94,0,0,1,8.85,3.46,15.39,15.39,0,0,1,3.26,3.11,14.6,14.6,0,0,1,2.14,4.07,18,18,0,0,1,.62,2.29,17,17,0,0,1,.25,2.35,12.67,12.67,0,0,1-.66,4.57l-.2.54c-.06.17-.15.34-.23.51a10.16,10.16,0,0,1-.53,1,11,11,0,0,1-1.33,1.83,10.73,10.73,0,0,1-1.68,1.48c-.16.11-.32.2-.47.31l-.5.27c-.17.08-.32.19-.5.26l-.54.23a13.56,13.56,0,0,1-9.42.18,10.22,10.22,0,0,1-3.93-2.46,7.57,7.57,0,0,1-.74-.87l-.17-.23-.15-.24a5.09,5.09,0,0,1-.3-.5,10.59,10.59,0,0,1-.87-2.21,9.49,9.49,0,0,1-.1-4.7,7.58,7.58,0,0,1,.89-2.14,6.73,6.73,0,0,1,1.5-1.73,7.54,7.54,0,0,1,4.4-1.58A8.46,8.46,0,0,1,754.3,78a5.87,5.87,0,0,1,2.76,3.75,5.66,5.66,0,0,1-.7,4.67,4.28,4.28,0,0,1-1.83,1.51,5.47,5.47,0,0,1-2.45.47A4.65,4.65,0,0,1,747.9,86a4.47,4.47,0,0,1-.44-2.52,3.44,3.44,0,0,1,1.22-2.23"/><path class="cls-4" d="M748.39,80.85a4,4,0,0,0-1.63,2.5,5.35,5.35,0,0,0,.29,3,5,5,0,0,0,2,2.36,6.8,6.8,0,0,0,2.93,1,6.89,6.89,0,0,0,3.1-.39,5.81,5.81,0,0,0,2.6-1.89,6.74,6.74,0,0,0,1.35-2.92,8.35,8.35,0,0,0,0-3.19,8.15,8.15,0,0,0-1.17-3,7.75,7.75,0,0,0-2.3-2.33,10.77,10.77,0,0,0-6.06-1.79A10.52,10.52,0,0,0,743.33,76,10.06,10.06,0,0,0,741,78.41a10.73,10.73,0,0,0-1.46,3,13,13,0,0,0-.28,6.49,13.84,13.84,0,0,0,1,3.11,7.39,7.39,0,0,0,.38.74l.2.37.24.35a10.32,10.32,0,0,0,1,1.35,14.33,14.33,0,0,0,5.37,3.81A18.25,18.25,0,0,0,760.2,98l.78-.28c.27-.1.52-.23.77-.35l.77-.37c.25-.14.5-.28.74-.43a15.66,15.66,0,0,0,4.82-4.72,16,16,0,0,0,.85-1.44c.13-.25.27-.5.38-.76l.34-.77A18.92,18.92,0,0,0,771,82.39a22,22,0,0,0-.73-6.51,20.17,20.17,0,0,0-2.71-6.11,19.23,19.23,0,0,0-4.7-4.86,24,24,0,0,0-12.14-4.33,27.92,27.92,0,0,0-12.5,1.76,22.68,22.68,0,0,0-2.89,1.41l-.69.41c-.24.14-.47.3-.7.45-.44.32-.88.64-1.29,1a24,24,0,0,0-4.32,4.58,21,21,0,0,0-1.64,2.67c-.12.23-.25.46-.36.7l-.31.71c-.2.47-.43.93-.59,1.41l-.5,1.43c-.15.48-.28,1-.42,1.44s-.26,1-.36,1.43-.23,1-.32,1.44a67.17,67.17,0,0,0-1.12,11.51c0,.95,0,1.9,0,2.86s0,1.9.09,2.85c.08,1.9.21,3.79.41,5.68.35-3.78.8-7.52,1.41-11.22a75.74,75.74,0,0,1,2.55-10.82,36.34,36.34,0,0,1,2-5c.18-.4.42-.76.63-1.14l.32-.55c.11-.19.23-.36.35-.53a16.69,16.69,0,0,1,1.55-2,19,19,0,0,1,3.75-3.31c.34-.23.69-.44,1-.64l.52-.28.55-.25a18,18,0,0,1,2.29-.87,21.87,21.87,0,0,1,9.82-.66,20.94,20.94,0,0,1,8.85,3.46,15.39,15.39,0,0,1,3.26,3.11,14.6,14.6,0,0,1,2.14,4.07,18,18,0,0,1,.62,2.29,17,17,0,0,1,.25,2.35,12.67,12.67,0,0,1-.66,4.57l-.2.54c-.06.17-.15.34-.23.51a10.16,10.16,0,0,1-.53,1,11,11,0,0,1-1.33,1.83,10.73,10.73,0,0,1-1.68,1.48c-.16.11-.32.2-.47.31l-.5.27c-.17.08-.32.19-.5.26l-.54.23a13.56,13.56,0,0,1-9.42.18,10.22,10.22,0,0,1-3.93-2.46,7.57,7.57,0,0,1-.74-.87l-.17-.23-.15-.24a5.09,5.09,0,0,1-.3-.5,10.59,10.59,0,0,1-.87-2.21,9.49,9.49,0,0,1-.1-4.7,7.58,7.58,0,0,1,.89-2.14,6.73,6.73,0,0,1,1.5-1.73,7.54,7.54,0,0,1,4.4-1.58A8.46,8.46,0,0,1,754.3,78a5.87,5.87,0,0,1,2.76,3.75,5.66,5.66,0,0,1-.7,4.67,4.28,4.28,0,0,1-1.83,1.51,5.47,5.47,0,0,1-2.45.47A4.65,4.65,0,0,1,747.9,86a4.47,4.47,0,0,1-.44-2.52,3.44,3.44,0,0,1,1.22-2.23"/><line class="cls-2" x1="675.57" y1="105.12" x2="771.28" y2="104.59"/><line class="cls-3" x1="675.57" y1="105.12" x2="771.28" y2="104.59"/><rect class="cls-6" x="425.32" y="32.13" width="163.56" height="110.3"/><rect class="cls-1" x="203.83" y="32.5" width="163.56" height="110.3"/><path class="cls-7" d="M289.08,109.12a65.52,65.52,0,0,1,48.26-.27"/><path class="cls-8" d="M289.08,109.12a65.52,65.52,0,0,1,48.26-.27"/><path class="cls-7" d="M241.63,109.4A60.82,60.82,0,0,1,289,109"/><path class="cls-8" d="M241.63,109.4A60.82,60.82,0,0,1,289,109"/><path class="cls-7" d="M264.09,85.39a4,4,0,0,1,1.63,2.5,5.34,5.34,0,0,1-.29,3,5,5,0,0,1-2,2.36,7.14,7.14,0,0,1-6,.56,5.79,5.79,0,0,1-2.61-1.89A6.86,6.86,0,0,1,253.43,89a8.35,8.35,0,0,1,0-3.19,8.15,8.15,0,0,1,1.17-3,7.86,7.86,0,0,1,2.3-2.33A11,11,0,0,1,263,78.71a10.49,10.49,0,0,1,6.19,1.85A10.06,10.06,0,0,1,271.5,83a11.19,11.19,0,0,1,1.47,3,13,13,0,0,1,.27,6.49,13.84,13.84,0,0,1-1,3.11,5.75,5.75,0,0,1-.38.74l-.2.37-.24.35a10.32,10.32,0,0,1-1,1.35,14.38,14.38,0,0,1-5.36,3.81,18.26,18.26,0,0,1-12.73.41l-.79-.28c-.26-.1-.52-.23-.77-.35l-.77-.37c-.24-.14-.5-.28-.74-.43a15.61,15.61,0,0,1-2.68-2.1,16.78,16.78,0,0,1-2.14-2.62,13.85,13.85,0,0,1-.84-1.44c-.13-.25-.27-.5-.39-.76l-.34-.77a18.92,18.92,0,0,1-1.37-6.51,21.65,21.65,0,0,1,.74-6.51,20.14,20.14,0,0,1,2.7-6.11,19.1,19.1,0,0,1,4.71-4.86,24,24,0,0,1,12.14-4.33,27.89,27.89,0,0,1,12.49,1.76,22.68,22.68,0,0,1,2.89,1.41l.7.41.69.46q.68.47,1.29,1a24,24,0,0,1,4.32,4.58,21,21,0,0,1,1.64,2.67c.12.23.25.46.36.7l.31.71c.2.47.43.94.59,1.42l.5,1.42c.15.48.28,1,.42,1.44s.26,1,.37,1.44.22,1,.31,1.43a67.17,67.17,0,0,1,1.12,11.51c0,1,0,1.9,0,2.86s0,1.9-.09,2.85q-.1,2.85-.41,5.68c-.35-3.78-.8-7.52-1.41-11.22a76.63,76.63,0,0,0-2.54-10.81,37.29,37.29,0,0,0-2-5c-.18-.4-.42-.76-.62-1.13l-.32-.56c-.11-.19-.24-.36-.35-.53a19,19,0,0,0-1.55-2,19.28,19.28,0,0,0-3.75-3.31c-.34-.23-.69-.44-1-.64-.18-.1-.34-.19-.52-.27l-.55-.26a16.57,16.57,0,0,0-2.29-.86,21.7,21.7,0,0,0-9.81-.67,20.93,20.93,0,0,0-8.86,3.46,12.34,12.34,0,0,0-1.76,1.45,13.08,13.08,0,0,0-1.5,1.66,16.73,16.73,0,0,0-1.21,1.91,14.76,14.76,0,0,0-.92,2.16,15.19,15.19,0,0,0-.62,2.29,15.63,15.63,0,0,0-.26,2.36,12.64,12.64,0,0,0,.66,4.56l.2.54c.07.17.16.34.23.51a10.16,10.16,0,0,0,.53,1,11,11,0,0,0,1.33,1.83A10.37,10.37,0,0,0,252,96.84l.46.31.5.27c.17.08.33.19.5.26l.54.23a13.56,13.56,0,0,0,9.42.18,10.22,10.22,0,0,0,3.93-2.46,7.57,7.57,0,0,0,.74-.87l.17-.23.16-.24c.1-.16.2-.33.29-.5a10.59,10.59,0,0,0,.87-2.21,9.49,9.49,0,0,0,.1-4.7,7.58,7.58,0,0,0-.89-2.14A6.73,6.73,0,0,0,267.3,83a7.54,7.54,0,0,0-4.4-1.58,8.46,8.46,0,0,0-4.72,1.07,5.87,5.87,0,0,0-2.76,3.75,5.63,5.63,0,0,0,.71,4.67A4.26,4.26,0,0,0,258,92.43a5.47,5.47,0,0,0,2.45.47,4.67,4.67,0,0,0,4.19-2.37A4.55,4.55,0,0,0,265,88a3.35,3.35,0,0,0-1.22-2.22"/><path class="cls-9" d="M264.09,85.39a4,4,0,0,1,1.63,2.5,5.34,5.34,0,0,1-.29,3,5,5,0,0,1-2,2.36,7.14,7.14,0,0,1-6,.56,5.79,5.79,0,0,1-2.61-1.89A6.86,6.86,0,0,1,253.43,89a8.35,8.35,0,0,1,0-3.19,8.15,8.15,0,0,1,1.17-3,7.86,7.86,0,0,1,2.3-2.33A11,11,0,0,1,263,78.71a10.49,10.49,0,0,1,6.19,1.85A10.06,10.06,0,0,1,271.5,83a11.19,11.19,0,0,1,1.47,3,13,13,0,0,1,.27,6.49,13.84,13.84,0,0,1-1,3.11,5.75,5.75,0,0,1-.38.74l-.2.37-.24.35a10.32,10.32,0,0,1-1,1.35,14.38,14.38,0,0,1-5.36,3.81,18.26,18.26,0,0,1-12.73.41l-.79-.28c-.26-.1-.52-.23-.77-.35l-.77-.37c-.24-.14-.5-.28-.74-.43a15.61,15.61,0,0,1-2.68-2.1,16.78,16.78,0,0,1-2.14-2.62,13.85,13.85,0,0,1-.84-1.44c-.13-.25-.27-.5-.39-.76l-.34-.77a18.92,18.92,0,0,1-1.37-6.51,21.65,21.65,0,0,1,.74-6.51,20.14,20.14,0,0,1,2.7-6.11,19.1,19.1,0,0,1,4.71-4.86,24,24,0,0,1,12.14-4.33,27.89,27.89,0,0,1,12.49,1.76,22.68,22.68,0,0,1,2.89,1.41l.7.41.69.46q.68.47,1.29,1a24,24,0,0,1,4.32,4.58,21,21,0,0,1,1.64,2.67c.12.23.25.46.36.7l.31.71c.2.47.43.94.59,1.42l.5,1.42c.15.48.28,1,.42,1.44s.26,1,.37,1.44.22,1,.31,1.43a67.17,67.17,0,0,1,1.12,11.51c0,1,0,1.9,0,2.86s0,1.9-.09,2.85q-.1,2.85-.41,5.68c-.35-3.78-.8-7.52-1.41-11.22a76.63,76.63,0,0,0-2.54-10.81,37.29,37.29,0,0,0-2-5c-.18-.4-.42-.76-.62-1.13l-.32-.56c-.11-.19-.24-.36-.35-.53a19,19,0,0,0-1.55-2,19.28,19.28,0,0,0-3.75-3.31c-.34-.23-.69-.44-1-.64-.18-.1-.34-.19-.52-.27l-.55-.26a16.57,16.57,0,0,0-2.29-.86,21.7,21.7,0,0,0-9.81-.67,20.93,20.93,0,0,0-8.86,3.46,12.34,12.34,0,0,0-1.76,1.45,13.08,13.08,0,0,0-1.5,1.66,16.73,16.73,0,0,0-1.21,1.91,14.76,14.76,0,0,0-.92,2.16,15.19,15.19,0,0,0-.62,2.29,15.63,15.63,0,0,0-.26,2.36,12.64,12.64,0,0,0,.66,4.56l.2.54c.07.17.16.34.23.51a10.16,10.16,0,0,0,.53,1,11,11,0,0,0,1.33,1.83A10.37,10.37,0,0,0,252,96.84l.46.31.5.27c.17.08.33.19.5.26l.54.23a13.56,13.56,0,0,0,9.42.18,10.22,10.22,0,0,0,3.93-2.46,7.57,7.57,0,0,0,.74-.87l.17-.23.16-.24c.1-.16.2-.33.29-.5a10.59,10.59,0,0,0,.87-2.21,9.49,9.49,0,0,0,.1-4.7,7.58,7.58,0,0,0-.89-2.14A6.73,6.73,0,0,0,267.3,83a7.54,7.54,0,0,0-4.4-1.58,8.46,8.46,0,0,0-4.72,1.07,5.87,5.87,0,0,0-2.76,3.75,5.63,5.63,0,0,0,.71,4.67A4.26,4.26,0,0,0,258,92.43a5.47,5.47,0,0,0,2.45.47,4.67,4.67,0,0,0,4.19-2.37A4.55,4.55,0,0,0,265,88a3.35,3.35,0,0,0-1.22-2.22"/><line class="cls-7" x1="241.14" y1="113.93" x2="336.85" y2="113.41"/><line class="cls-10" x1="241.14" y1="113.93" x2="336.85" y2="113.41"/><path class="cls-7" d="M314.45,85.39a4,4,0,0,0-1.63,2.5,5.25,5.25,0,0,0,.29,3,4.93,4.93,0,0,0,2,2.36,7.14,7.14,0,0,0,6,.56,5.79,5.79,0,0,0,2.61-1.89A6.86,6.86,0,0,0,325.11,89a8.35,8.35,0,0,0,0-3.19,8.17,8.17,0,0,0-1.18-3,7.83,7.83,0,0,0-2.29-2.33,11,11,0,0,0-6.06-1.79,10.49,10.49,0,0,0-6.19,1.85A10.06,10.06,0,0,0,307,83a11.19,11.19,0,0,0-1.47,3,13,13,0,0,0-.27,6.49,13.33,13.33,0,0,0,1,3.11c.12.25.24.5.38.74l.21.37.24.35a10.32,10.32,0,0,0,1,1.35,14.38,14.38,0,0,0,5.36,3.81,18.26,18.26,0,0,0,12.73.41l.79-.28c.26-.1.51-.23.77-.35l.77-.37.74-.43A15.61,15.61,0,0,0,332,99a16.78,16.78,0,0,0,2.14-2.62A13.85,13.85,0,0,0,335,95c.13-.25.27-.5.39-.76l.33-.77a18.46,18.46,0,0,0,1.37-6.51,21.33,21.33,0,0,0-.73-6.51,20.39,20.39,0,0,0-2.7-6.11,19.44,19.44,0,0,0-4.71-4.86,24,24,0,0,0-12.14-4.33,27.85,27.85,0,0,0-12.49,1.76,22.68,22.68,0,0,0-2.89,1.41l-.7.41c-.23.15-.47.3-.69.46q-.67.47-1.29,1a24.37,24.37,0,0,0-4.33,4.58,22.23,22.23,0,0,0-1.64,2.67c-.11.23-.24.46-.35.7l-.31.71c-.2.47-.44.94-.59,1.42l-.5,1.42c-.15.48-.28,1-.42,1.44s-.26,1-.37,1.44-.23,1-.32,1.43a68.16,68.16,0,0,0-1.11,11.51c0,1,0,1.9,0,2.86s0,1.9.09,2.85q.11,2.85.41,5.68c.34-3.78.8-7.52,1.41-11.22a76.63,76.63,0,0,1,2.54-10.81,36,36,0,0,1,2-5c.17-.4.42-.76.62-1.13l.32-.56c.11-.19.24-.36.35-.53a20,20,0,0,1,5.3-5.31c.34-.23.69-.44,1-.64a5.12,5.12,0,0,1,.52-.27l.55-.26a16.1,16.1,0,0,1,2.29-.86,21.7,21.7,0,0,1,9.81-.67,21,21,0,0,1,8.86,3.46,15,15,0,0,1,3.25,3.11,15.52,15.52,0,0,1,1.22,1.91,15.93,15.93,0,0,1,.92,2.16,16.48,16.48,0,0,1,.62,2.29,15.63,15.63,0,0,1,.26,2.36,12.43,12.43,0,0,1-.67,4.56l-.19.54c-.07.17-.16.34-.23.51a10.16,10.16,0,0,1-.53,1,10.49,10.49,0,0,1-1.34,1.83,10.3,10.3,0,0,1-1.68,1.48l-.46.31-.5.27c-.17.08-.33.19-.51.26l-.53.23a13.59,13.59,0,0,1-9.43.18,10.37,10.37,0,0,1-3.93-2.46,7.48,7.48,0,0,1-.73-.87l-.18-.23-.15-.24a5,5,0,0,1-.29-.5,10.59,10.59,0,0,1-.87-2.21,9.37,9.37,0,0,1-.1-4.7,7,7,0,0,1,.89-2.14,6.73,6.73,0,0,1,1.5-1.73,7.54,7.54,0,0,1,4.4-1.58,8.41,8.41,0,0,1,4.71,1.07,5.85,5.85,0,0,1,2.77,3.75,5.7,5.7,0,0,1-.71,4.67,4.26,4.26,0,0,1-1.82,1.51,5.5,5.5,0,0,1-2.45.47A4.67,4.67,0,0,1,314,90.53a4.47,4.47,0,0,1-.43-2.52,3.34,3.34,0,0,1,1.21-2.22"/><path class="cls-9" d="M314.45,85.39a4,4,0,0,0-1.63,2.5,5.25,5.25,0,0,0,.29,3,4.93,4.93,0,0,0,2,2.36,7.14,7.14,0,0,0,6,.56,5.79,5.79,0,0,0,2.61-1.89A6.86,6.86,0,0,0,325.11,89a8.35,8.35,0,0,0,0-3.19,8.17,8.17,0,0,0-1.18-3,7.83,7.83,0,0,0-2.29-2.33,11,11,0,0,0-6.06-1.79,10.49,10.49,0,0,0-6.19,1.85A10.06,10.06,0,0,0,307,83a11.19,11.19,0,0,0-1.47,3,13,13,0,0,0-.27,6.49,13.33,13.33,0,0,0,1,3.11c.12.25.24.5.38.74l.21.37.24.35a10.32,10.32,0,0,0,1,1.35,14.38,14.38,0,0,0,5.36,3.81,18.26,18.26,0,0,0,12.73.41l.79-.28c.26-.1.51-.23.77-.35l.77-.37.74-.43A15.61,15.61,0,0,0,332,99a16.78,16.78,0,0,0,2.14-2.62A13.85,13.85,0,0,0,335,95c.13-.25.27-.5.39-.76l.33-.77a18.46,18.46,0,0,0,1.37-6.51,21.33,21.33,0,0,0-.73-6.51,20.39,20.39,0,0,0-2.7-6.11,19.44,19.44,0,0,0-4.71-4.86,24,24,0,0,0-12.14-4.33,27.85,27.85,0,0,0-12.49,1.76,22.68,22.68,0,0,0-2.89,1.41l-.7.41c-.23.15-.47.3-.69.46q-.67.47-1.29,1a24.37,24.37,0,0,0-4.33,4.58,22.23,22.23,0,0,0-1.64,2.67c-.11.23-.24.46-.35.7l-.31.71c-.2.47-.44.94-.59,1.42l-.5,1.42c-.15.48-.28,1-.42,1.44s-.26,1-.37,1.44-.23,1-.32,1.43a68.16,68.16,0,0,0-1.11,11.51c0,1,0,1.9,0,2.86s0,1.9.09,2.85q.11,2.85.41,5.68c.34-3.78.8-7.52,1.41-11.22a76.63,76.63,0,0,1,2.54-10.81,36,36,0,0,1,2-5c.17-.4.42-.76.62-1.13l.32-.56c.11-.19.24-.36.35-.53a20,20,0,0,1,5.3-5.31c.34-.23.69-.44,1-.64a5.12,5.12,0,0,1,.52-.27l.55-.26a16.1,16.1,0,0,1,2.29-.86,21.7,21.7,0,0,1,9.81-.67,21,21,0,0,1,8.86,3.46,15,15,0,0,1,3.25,3.11,15.52,15.52,0,0,1,1.22,1.91,15.93,15.93,0,0,1,.92,2.16,16.48,16.48,0,0,1,.62,2.29,15.63,15.63,0,0,1,.26,2.36,12.43,12.43,0,0,1-.67,4.56l-.19.54c-.07.17-.16.34-.23.51a10.16,10.16,0,0,1-.53,1,10.49,10.49,0,0,1-1.34,1.83,10.3,10.3,0,0,1-1.68,1.48l-.46.31-.5.27c-.17.08-.33.19-.51.26l-.53.23a13.59,13.59,0,0,1-9.43.18,10.37,10.37,0,0,1-3.93-2.46,7.48,7.48,0,0,1-.73-.87l-.18-.23-.15-.24a5,5,0,0,1-.29-.5,10.59,10.59,0,0,1-.87-2.21,9.37,9.37,0,0,1-.1-4.7,7,7,0,0,1,.89-2.14,6.73,6.73,0,0,1,1.5-1.73,7.54,7.54,0,0,1,4.4-1.58,8.41,8.41,0,0,1,4.71,1.07,5.85,5.85,0,0,1,2.77,3.75,5.7,5.7,0,0,1-.71,4.67,4.26,4.26,0,0,1-1.82,1.51,5.5,5.5,0,0,1-2.45.47A4.67,4.67,0,0,1,314,90.53a4.47,4.47,0,0,1-.43-2.52,3.34,3.34,0,0,1,1.21-2.22"/><line class="cls-7" x1="241.62" y1="109.66" x2="337.34" y2="109.13"/><line class="cls-8" x1="241.62" y1="109.66" x2="337.34" y2="109.13"/><rect class="cls-11" x="55.14" y="-1.29" width="26.98" height="627.69"/><rect class="cls-12" x="87.8" y="-1.29" width="26.98" height="627.69"/><rect class="cls-13" x="22.48" y="-1.29" width="26.98" height="627.69"/><path class="cls-14" d="M506.41,104.74A65.1,65.1,0,0,1,532.56,100a64.44,64.44,0,0,1,22.11,4.46"/><path class="cls-15" d="M506.41,104.74A65.1,65.1,0,0,1,532.56,100a64.44,64.44,0,0,1,22.11,4.46"/><path class="cls-14" d="M459,105a60.76,60.76,0,0,1,25.65-5,60,60,0,0,1,21.7,4.56"/><path class="cls-15" d="M459,105a60.76,60.76,0,0,1,25.65-5,60,60,0,0,1,21.7,4.56"/><path class="cls-14" d="M481.42,81a4,4,0,0,1,1.63,2.5,5.3,5.3,0,0,1-.3,3,5,5,0,0,1-2,2.35,6.68,6.68,0,0,1-2.93,1,7.18,7.18,0,0,1-3.1-.39,6.05,6.05,0,0,1-2.61-1.89,6.94,6.94,0,0,1-1.34-2.93,8.3,8.3,0,0,1,0-3.18,8.4,8.4,0,0,1,1.18-3,7.86,7.86,0,0,1,2.3-2.33,10.93,10.93,0,0,1,6.06-1.79,10.62,10.62,0,0,1,6.19,1.86,10,10,0,0,1,2.34,2.38,11,11,0,0,1,1.47,3,13,13,0,0,1,.28,6.5,13.93,13.93,0,0,1-1,3.1c-.12.26-.24.51-.38.75l-.2.37-.24.35a11,11,0,0,1-1,1.35,14.38,14.38,0,0,1-5.37,3.8,17.79,17.79,0,0,1-6.29,1.36,18.08,18.08,0,0,1-6.44-.94l-.78-.29c-.27-.09-.52-.23-.78-.34l-.76-.37c-.25-.14-.5-.28-.74-.43a15.19,15.19,0,0,1-2.68-2.11A16.29,16.29,0,0,1,461.72,92c-.31-.47-.57-.93-.84-1.44-.13-.25-.27-.5-.39-.75l-.33-.78a18.86,18.86,0,0,1-1.37-6.5,21.67,21.67,0,0,1,.73-6.52,20.39,20.39,0,0,1,2.71-6.11,19.23,19.23,0,0,1,4.7-4.86,24,24,0,0,1,12.14-4.33,27.78,27.78,0,0,1,12.5,1.77,23.29,23.29,0,0,1,2.89,1.4l.69.41.7.46c.44.31.87.63,1.29,1a24,24,0,0,1,4.32,4.58A21.47,21.47,0,0,1,503.1,73c.12.23.25.46.36.69l.31.71c.19.48.43.94.58,1.42l.51,1.43c.15.48.28,1,.42,1.43s.26,1,.36,1.44.23,1,.32,1.44a67.15,67.15,0,0,1,1.12,11.5c0,1,0,1.91,0,2.86s0,1.91-.08,2.85c-.08,1.9-.21,3.8-.41,5.68-.35-3.77-.8-7.52-1.42-11.22a74,74,0,0,0-2.54-10.81,35.84,35.84,0,0,0-2-5c-.18-.41-.42-.76-.63-1.14l-.32-.56c-.11-.18-.23-.35-.35-.53a17.53,17.53,0,0,0-1.55-2A19,19,0,0,0,494,69.91c-.34-.23-.69-.44-1-.63l-.52-.28-.55-.26a16.57,16.57,0,0,0-2.29-.86,21.75,21.75,0,0,0-9.82-.66A20.81,20.81,0,0,0,471,70.68a13,13,0,0,0-1.76,1.44,13.16,13.16,0,0,0-1.5,1.67,14.73,14.73,0,0,0-2.14,4.06,18.14,18.14,0,0,0-.62,2.3,17,17,0,0,0-.25,2.35,12.43,12.43,0,0,0,.66,4.56l.19.54c.07.18.16.34.24.52a7.73,7.73,0,0,0,.53,1A11,11,0,0,0,467.65,91a10.3,10.3,0,0,0,1.68,1.49l.47.3.5.27c.17.09.32.19.5.27l.54.22a13.56,13.56,0,0,0,9.42.18,10.06,10.06,0,0,0,3.93-2.46,6.18,6.18,0,0,0,.74-.87l.17-.22.15-.24c.11-.16.2-.33.3-.51a9.66,9.66,0,0,0,.86-2.21,9.37,9.37,0,0,0,.11-4.7,7.83,7.83,0,0,0-.89-2.14,6.73,6.73,0,0,0-1.5-1.73,7.68,7.68,0,0,0-4.4-1.58,8.44,8.44,0,0,0-4.72,1.07,5.89,5.89,0,0,0-2.76,3.76,5.64,5.64,0,0,0,.7,4.66,4.31,4.31,0,0,0,1.83,1.52,5.58,5.58,0,0,0,2.45.46,4.64,4.64,0,0,0,4.18-2.37,4.44,4.44,0,0,0,.44-2.51,3.44,3.44,0,0,0-1.22-2.23"/><path class="cls-16" d="M481.42,81a4,4,0,0,1,1.63,2.5,5.3,5.3,0,0,1-.3,3,5,5,0,0,1-2,2.35,6.68,6.68,0,0,1-2.93,1,7.18,7.18,0,0,1-3.1-.39,6.05,6.05,0,0,1-2.61-1.89,6.94,6.94,0,0,1-1.34-2.93,8.3,8.3,0,0,1,0-3.18,8.4,8.4,0,0,1,1.18-3,7.86,7.86,0,0,1,2.3-2.33,10.93,10.93,0,0,1,6.06-1.79,10.62,10.62,0,0,1,6.19,1.86,10,10,0,0,1,2.34,2.38,11,11,0,0,1,1.47,3,13,13,0,0,1,.28,6.5,13.93,13.93,0,0,1-1,3.1c-.12.26-.24.51-.38.75l-.2.37-.24.35a11,11,0,0,1-1,1.35,14.38,14.38,0,0,1-5.37,3.8,17.79,17.79,0,0,1-6.29,1.36,18.08,18.08,0,0,1-6.44-.94l-.78-.29c-.27-.09-.52-.23-.78-.34l-.76-.37c-.25-.14-.5-.28-.74-.43a15.19,15.19,0,0,1-2.68-2.11A16.29,16.29,0,0,1,461.72,92c-.31-.47-.57-.93-.84-1.44-.13-.25-.27-.5-.39-.75l-.33-.78a18.86,18.86,0,0,1-1.37-6.5,21.67,21.67,0,0,1,.73-6.52,20.39,20.39,0,0,1,2.71-6.11,19.23,19.23,0,0,1,4.7-4.86,24,24,0,0,1,12.14-4.33,27.78,27.78,0,0,1,12.5,1.77,23.29,23.29,0,0,1,2.89,1.4l.69.41.7.46c.44.31.87.63,1.29,1a24,24,0,0,1,4.32,4.58A21.47,21.47,0,0,1,503.1,73c.12.23.25.46.36.69l.31.71c.19.48.43.94.58,1.42l.51,1.43c.15.48.28,1,.42,1.43s.26,1,.36,1.44.23,1,.32,1.44a67.15,67.15,0,0,1,1.12,11.5c0,1,0,1.91,0,2.86s0,1.91-.08,2.85c-.08,1.9-.21,3.8-.41,5.68-.35-3.77-.8-7.52-1.42-11.22a74,74,0,0,0-2.54-10.81,35.84,35.84,0,0,0-2-5c-.18-.41-.42-.76-.63-1.14l-.32-.56c-.11-.18-.23-.35-.35-.53a17.53,17.53,0,0,0-1.55-2A19,19,0,0,0,494,69.91c-.34-.23-.69-.44-1-.63l-.52-.28-.55-.26a16.57,16.57,0,0,0-2.29-.86,21.75,21.75,0,0,0-9.82-.66A20.81,20.81,0,0,0,471,70.68a13,13,0,0,0-1.76,1.44,13.16,13.16,0,0,0-1.5,1.67,14.73,14.73,0,0,0-2.14,4.06,18.14,18.14,0,0,0-.62,2.3,17,17,0,0,0-.25,2.35,12.43,12.43,0,0,0,.66,4.56l.19.54c.07.18.16.34.24.52a7.73,7.73,0,0,0,.53,1A11,11,0,0,0,467.65,91a10.3,10.3,0,0,0,1.68,1.49l.47.3.5.27c.17.09.32.19.5.27l.54.22a13.56,13.56,0,0,0,9.42.18,10.06,10.06,0,0,0,3.93-2.46,6.18,6.18,0,0,0,.74-.87l.17-.22.15-.24c.11-.16.2-.33.3-.51a9.66,9.66,0,0,0,.86-2.21,9.37,9.37,0,0,0,.11-4.7,7.83,7.83,0,0,0-.89-2.14,6.73,6.73,0,0,0-1.5-1.73,7.68,7.68,0,0,0-4.4-1.58,8.44,8.44,0,0,0-4.72,1.07,5.89,5.89,0,0,0-2.76,3.76,5.64,5.64,0,0,0,.7,4.66,4.31,4.31,0,0,0,1.83,1.52,5.58,5.58,0,0,0,2.45.46,4.64,4.64,0,0,0,4.18-2.37,4.44,4.44,0,0,0,.44-2.51,3.44,3.44,0,0,0-1.22-2.23"/><line class="cls-14" x1="458.47" y1="109.56" x2="554.18" y2="109.03"/><line class="cls-17" x1="458.47" y1="109.56" x2="554.18" y2="109.03"/><path class="cls-14" d="M531.78,81a4,4,0,0,0-1.63,2.5,5.21,5.21,0,0,0,.29,3,5,5,0,0,0,2,2.35,6.68,6.68,0,0,0,2.93,1,7.18,7.18,0,0,0,3.1-.39,6,6,0,0,0,2.61-1.89,7,7,0,0,0,1.35-2.93,8.5,8.5,0,0,0,0-3.18,8.4,8.4,0,0,0-1.18-3A8,8,0,0,0,539,76.12a11,11,0,0,0-6.06-1.79,10.63,10.63,0,0,0-6.2,1.86,10.16,10.16,0,0,0-2.34,2.38,11,11,0,0,0-1.47,3,13,13,0,0,0-.28,6.5,13.93,13.93,0,0,0,1,3.1c.12.26.24.51.38.75l.21.37.23.35a11.11,11.11,0,0,0,1,1.35,14.35,14.35,0,0,0,5.36,3.8,17.79,17.79,0,0,0,6.29,1.36,18.08,18.08,0,0,0,6.44-.94l.79-.29c.26-.09.51-.23.77-.34l.76-.37c.25-.14.5-.28.74-.43a15.19,15.19,0,0,0,2.68-2.11A16.29,16.29,0,0,0,551.47,92c.31-.47.57-.93.84-1.44.13-.25.27-.5.39-.75l.33-.78a18.41,18.41,0,0,0,1.37-6.5,21.67,21.67,0,0,0-.73-6.52A20.39,20.39,0,0,0,551,69.93a19.23,19.23,0,0,0-4.7-4.86,24,24,0,0,0-12.14-4.33,27.78,27.78,0,0,0-12.5,1.77,22.5,22.5,0,0,0-2.88,1.4l-.7.41c-.24.15-.47.3-.69.46-.45.31-.88.63-1.29,1a24.07,24.07,0,0,0-4.33,4.58A21.47,21.47,0,0,0,510.09,73c-.12.23-.25.46-.35.69l-.32.71c-.19.48-.43.94-.58,1.42l-.51,1.43c-.15.48-.27,1-.41,1.43s-.27,1-.37,1.44-.23,1-.32,1.44a67.15,67.15,0,0,0-1.12,11.5c0,1,0,1.91,0,2.86s0,1.91.08,2.85c.08,1.9.22,3.8.41,5.68.35-3.77.8-7.52,1.42-11.22a75.27,75.27,0,0,1,2.54-10.81,35.84,35.84,0,0,1,2-5c.18-.41.42-.76.63-1.14l.32-.56c.11-.18.23-.35.35-.53a20.13,20.13,0,0,1,1.55-2,19,19,0,0,1,3.75-3.31c.34-.23.69-.44,1-.63l.51-.28.55-.26a16.7,16.7,0,0,1,2.3-.86,21.7,21.7,0,0,1,9.81-.66,20.9,20.9,0,0,1,8.86,3.46A13.54,13.54,0,0,1,544,72.12a13.16,13.16,0,0,1,1.5,1.67,14.73,14.73,0,0,1,2.14,4.06,18.14,18.14,0,0,1,.62,2.3,15.62,15.62,0,0,1,.25,2.35,12.22,12.22,0,0,1-.66,4.56l-.19.54c-.07.18-.16.34-.24.52a9,9,0,0,1-.52,1A11.63,11.63,0,0,1,545.54,91a10.3,10.3,0,0,1-1.68,1.49l-.47.3-.5.27c-.16.09-.32.19-.5.27l-.53.22a13.59,13.59,0,0,1-9.43.18,10.13,10.13,0,0,1-3.93-2.46,5.52,5.52,0,0,1-.73-.87l-.18-.22-.15-.24a4.21,4.21,0,0,1-.29-.51,10.17,10.17,0,0,1-.87-2.21,9.48,9.48,0,0,1-.11-4.7,7.56,7.56,0,0,1,.9-2.14,6.7,6.7,0,0,1,1.49-1.73,7.7,7.7,0,0,1,4.4-1.58,8.44,8.44,0,0,1,4.72,1.07,5.9,5.9,0,0,1,2.77,3.76,5.68,5.68,0,0,1-.71,4.66,4.28,4.28,0,0,1-1.82,1.52,5.63,5.63,0,0,1-2.45.46,4.65,4.65,0,0,1-4.19-2.37,4.44,4.44,0,0,1-.44-2.51,3.44,3.44,0,0,1,1.22-2.23"/><path class="cls-16" d="M531.78,81a4,4,0,0,0-1.63,2.5,5.21,5.21,0,0,0,.29,3,5,5,0,0,0,2,2.35,6.68,6.68,0,0,0,2.93,1,7.18,7.18,0,0,0,3.1-.39,6,6,0,0,0,2.61-1.89,7,7,0,0,0,1.35-2.93,8.5,8.5,0,0,0,0-3.18,8.4,8.4,0,0,0-1.18-3A8,8,0,0,0,539,76.12a11,11,0,0,0-6.06-1.79,10.63,10.63,0,0,0-6.2,1.86,10.16,10.16,0,0,0-2.34,2.38,11,11,0,0,0-1.47,3,13,13,0,0,0-.28,6.5,13.93,13.93,0,0,0,1,3.1c.12.26.24.51.38.75l.21.37.23.35a11.11,11.11,0,0,0,1,1.35,14.35,14.35,0,0,0,5.36,3.8,17.79,17.79,0,0,0,6.29,1.36,18.08,18.08,0,0,0,6.44-.94l.79-.29c.26-.09.51-.23.77-.34l.76-.37c.25-.14.5-.28.74-.43a15.19,15.19,0,0,0,2.68-2.11A16.29,16.29,0,0,0,551.47,92c.31-.47.57-.93.84-1.44.13-.25.27-.5.39-.75l.33-.78a18.41,18.41,0,0,0,1.37-6.5,21.67,21.67,0,0,0-.73-6.52A20.39,20.39,0,0,0,551,69.93a19.23,19.23,0,0,0-4.7-4.86,24,24,0,0,0-12.14-4.33,27.78,27.78,0,0,0-12.5,1.77,22.5,22.5,0,0,0-2.88,1.4l-.7.41c-.24.15-.47.3-.69.46-.45.31-.88.63-1.29,1a24.07,24.07,0,0,0-4.33,4.58A21.47,21.47,0,0,0,510.09,73c-.12.23-.25.46-.35.69l-.32.71c-.19.48-.43.94-.58,1.42l-.51,1.43c-.15.48-.27,1-.41,1.43s-.27,1-.37,1.44-.23,1-.32,1.44a67.15,67.15,0,0,0-1.12,11.5c0,1,0,1.91,0,2.86s0,1.91.08,2.85c.08,1.9.22,3.8.41,5.68.35-3.77.8-7.52,1.42-11.22a75.27,75.27,0,0,1,2.54-10.81,35.84,35.84,0,0,1,2-5c.18-.41.42-.76.63-1.14l.32-.56c.11-.18.23-.35.35-.53a20.13,20.13,0,0,1,1.55-2,19,19,0,0,1,3.75-3.31c.34-.23.69-.44,1-.63l.51-.28.55-.26a16.7,16.7,0,0,1,2.3-.86,21.7,21.7,0,0,1,9.81-.66,20.9,20.9,0,0,1,8.86,3.46A13.54,13.54,0,0,1,544,72.12a13.16,13.16,0,0,1,1.5,1.67,14.73,14.73,0,0,1,2.14,4.06,18.14,18.14,0,0,1,.62,2.3,15.62,15.62,0,0,1,.25,2.35,12.22,12.22,0,0,1-.66,4.56l-.19.54c-.07.18-.16.34-.24.52a9,9,0,0,1-.52,1A11.63,11.63,0,0,1,545.54,91a10.3,10.3,0,0,1-1.68,1.49l-.47.3-.5.27c-.16.09-.32.19-.5.27l-.53.22a13.59,13.59,0,0,1-9.43.18,10.13,10.13,0,0,1-3.93-2.46,5.52,5.52,0,0,1-.73-.87l-.18-.22-.15-.24a4.21,4.21,0,0,1-.29-.51,10.17,10.17,0,0,1-.87-2.21,9.48,9.48,0,0,1-.11-4.7,7.56,7.56,0,0,1,.9-2.14,6.7,6.7,0,0,1,1.49-1.73,7.7,7.7,0,0,1,4.4-1.58,8.44,8.44,0,0,1,4.72,1.07,5.9,5.9,0,0,1,2.77,3.76,5.68,5.68,0,0,1-.71,4.66,4.28,4.28,0,0,1-1.82,1.52,5.63,5.63,0,0,1-2.45.46,4.65,4.65,0,0,1-4.19-2.37,4.44,4.44,0,0,1-.44-2.51,3.44,3.44,0,0,1,1.22-2.23"/><line class="cls-14" x1="458.95" y1="105.28" x2="554.67" y2="104.76"/><line class="cls-15" x1="458.95" y1="105.28" x2="554.67" y2="104.76"/><rect class="cls-11" x="911.95" y="-1.52" width="29.73" height="627.69"/><rect class="cls-12" x="947.95" y="-1.52" width="29.73" height="627.69"/><rect class="cls-13" x="875.96" y="-1.52" width="29.73" height="627.69"/></svg>