<svg id="Layer_1" data-name="Layer 1" xmlns="http://www.w3.org/2000/svg" xmlns:xlink="http://www.w3.org/1999/xlink" viewBox="0 0 2383.58 1245.34"><defs><style>.cls-1,.cls-2,.cls-5{fill:none;}.cls-14,.cls-2,.cls-3,.cls-5{stroke:#fff;}.cls-14,.cls-17,.cls-2,.cls-3,.cls-5{stroke-linecap:round;}.cls-12,.cls-13,.cls-14,.cls-15,.cls-17,.cls-2,.cls-3,.cls-5,.cls-6,.cls-7,.cls-8,.cls-9{stroke-miterlimit:10;}.cls-2,.cls-3{stroke-width:3px;}.cls-12,.cls-14,.cls-3,.cls-4{fill:#fff;}.cls-5{stroke-width:5px;}.cls-6{fill:#91acc1;}.cls-12,.cls-13,.cls-15,.cls-17,.cls-6,.cls-7,.cls-8,.cls-9{stroke:#231f20;}.cls-6,.cls-7,.cls-8,.cls-9{stroke-width:16px;}.cls-7{fill:#6da4d1;}.cls-8{fill:#2275b9;}.cls-9{fill:#67879e;}.cls-10{fill:#b2946d;}.cls-11,.cls-13,.cls-17{fill:#231f20;}.cls-12,.cls-13{stroke-width:5.26px;}.cls-14{stroke-width:2.63px;}.cls-15{fill:#b89571;}.cls-15,.cls-17{stroke-width:5.42px;}.cls-16{fill:#40c4f1;}.cls-18{opacity:0.12;fill:url(#New_Pattern_Swatch_1);}.cls-19{fill:#b2966c;}</style><pattern id="New_Pattern_Swatch_1" data-name="New Pattern Swatch 1" width="210.66" height="107.59" patternTransform="matrix(-0.61, 0.46, 0.4, 0.57, 1350.35, -2253.64)" patternUnits="userSpaceOnUse" viewBox="0 0 210.66 107.59"><rect class="cls-1" width="210.66" height="107.59"/><line class="cls-2" x1="3.54" y1="95.58" x2="209.16" y2="94.45"/><path class="cls-3" d="M105.49,94.75a140.6,140.6,0,0,1,103.67-.58"/><path class="cls-3" d="M3.56,95.34a130.74,130.74,0,0,1,101.73-1"/><path class="cls-4" d="M51.8,43.76a8.6,8.6,0,0,1,3.51,5.38,11.38,11.38,0,0,1-.63,6.47,10.67,10.67,0,0,1-4.32,5.06,14.51,14.51,0,0,1-6.31,2,14.9,14.9,0,0,1-6.65-.84,12.58,12.58,0,0,1-5.6-4.06,14.76,14.76,0,0,1-2.9-6.28,18.14,18.14,0,0,1,0-6.85,17.6,17.6,0,0,1,2.53-6.42,16.79,16.79,0,0,1,4.92-5,23.57,23.57,0,0,1,13-3.85,22.67,22.67,0,0,1,13.3,4,21.35,21.35,0,0,1,5,5.13,23.7,23.7,0,0,1,3.15,6.4,28,28,0,0,1,.59,14,29.81,29.81,0,0,1-2.2,6.67c-.25.54-.52,1.08-.82,1.6l-.44.79-.51.75a22.12,22.12,0,0,1-2.17,2.9A30.94,30.94,0,0,1,53.8,79.77a39.15,39.15,0,0,1-27.35.89l-1.69-.61c-.57-.21-1.11-.5-1.66-.75l-1.65-.79c-.53-.3-1.06-.6-1.59-.92a33.16,33.16,0,0,1-5.75-4.53A35,35,0,0,1,9.5,67.43a31.61,31.61,0,0,1-1.81-3.09c-.28-.54-.58-1.07-.83-1.62l-.72-1.67a39.93,39.93,0,0,1-2.94-14,46.39,46.39,0,0,1,1.57-14A43.81,43.81,0,0,1,10.58,20,41.17,41.17,0,0,1,20.69,9.53,51.36,51.36,0,0,1,46.77.22,59.82,59.82,0,0,1,73.61,4a49.38,49.38,0,0,1,6.21,3l1.49.88c.51.32,1,.65,1.49,1,1,.67,1.89,1.36,2.77,2.09a51.45,51.45,0,0,1,9.29,9.83,45.7,45.7,0,0,1,3.53,5.73c.25.5.53,1,.76,1.5l.67,1.52c.42,1,.93,2,1.26,3.05l1.08,3.07c.32,1,.6,2.06.9,3.08s.56,2.06.79,3.09.49,2,.68,3.09a145.1,145.1,0,0,1,2.4,24.71c0,2,0,4.1,0,6.14s-.09,4.09-.19,6.13q-.24,6.12-.88,12.2c-.75-8.11-1.72-16.16-3-24.1A161,161,0,0,0,97.4,46.79,79,79,0,0,0,93.08,36.1c-.38-.87-.9-1.63-1.35-2.44L91,32.47c-.23-.4-.5-.77-.75-1.15a43.26,43.26,0,0,0-11.38-11.4c-.74-.49-1.49-1-2.23-1.37-.37-.21-.74-.41-1.11-.59l-1.18-.56a37.83,37.83,0,0,0-4.93-1.85,46.68,46.68,0,0,0-21.08-1.42,45,45,0,0,0-19,7.43,29.06,29.06,0,0,0-3.77,3.1,28.61,28.61,0,0,0-3.22,3.58,34.1,34.1,0,0,0-2.6,4.11,32.94,32.94,0,0,0-2,4.63,34.69,34.69,0,0,0-1.33,4.92A33.32,33.32,0,0,0,15.89,47a27,27,0,0,0,1.42,9.8l.42,1.16c.15.38.34.73.5,1.11a22.06,22.06,0,0,0,1.13,2.22,23.71,23.71,0,0,0,2.87,3.93,21.83,21.83,0,0,0,3.61,3.19c.33.23.67.43,1,.66l1.07.58c.36.18.7.41,1.08.56l1.15.49a29.22,29.22,0,0,0,20.24.39,21.79,21.79,0,0,0,8.45-5.29,13.3,13.3,0,0,0,1.57-1.87l.38-.48.33-.52c.23-.34.43-.71.63-1.08a22,22,0,0,0,1.86-4.75A20.24,20.24,0,0,0,63.84,47a16.32,16.32,0,0,0-1.92-4.59,14.55,14.55,0,0,0-3.22-3.72,16.39,16.39,0,0,0-9.45-3.39,18,18,0,0,0-10.13,2.3,12.57,12.57,0,0,0-5.94,8.06,12.18,12.18,0,0,0,1.52,10,9.12,9.12,0,0,0,3.91,3.25,11.85,11.85,0,0,0,5.26,1c3.65-.06,7.39-1.78,9-5.09a9.71,9.71,0,0,0,.94-5.41,7.38,7.38,0,0,0-2.62-4.78"/><line class="cls-5" x1="2.5" y1="105.09" x2="208.12" y2="103.96"/><path class="cls-4" d="M160,43.76a8.6,8.6,0,0,0-3.51,5.38,11.38,11.38,0,0,0,.63,6.47,10.61,10.61,0,0,0,4.32,5.06,14.51,14.51,0,0,0,6.31,2,14.9,14.9,0,0,0,6.65-.84,12.58,12.58,0,0,0,5.6-4.06,14.76,14.76,0,0,0,2.9-6.28,18.14,18.14,0,0,0,0-6.85,17.78,17.78,0,0,0-2.53-6.42,16.71,16.71,0,0,0-4.93-5,23.52,23.52,0,0,0-13-3.85,22.67,22.67,0,0,0-13.3,4,21.35,21.35,0,0,0-5,5.13,23.7,23.7,0,0,0-3.15,6.4,27.89,27.89,0,0,0-.59,14,29.31,29.31,0,0,0,2.2,6.67,17.25,17.25,0,0,0,.82,1.6l.44.79.51.75a22.12,22.12,0,0,0,2.17,2.9A30.94,30.94,0,0,0,158,79.77a39.15,39.15,0,0,0,27.35.89l1.69-.61c.57-.21,1.11-.5,1.66-.75l1.64-.79c.53-.3,1.07-.6,1.59-.92a32.86,32.86,0,0,0,5.76-4.53,35,35,0,0,0,4.61-5.63,31.61,31.61,0,0,0,1.81-3.09c.27-.54.58-1.07.83-1.62l.71-1.67a39.72,39.72,0,0,0,3-14,46.39,46.39,0,0,0-1.57-14A43.81,43.81,0,0,0,201.21,20,41.17,41.17,0,0,0,191.1,9.53,51.36,51.36,0,0,0,165,.22,59.82,59.82,0,0,0,138.18,4,49.38,49.38,0,0,0,132,7l-1.49.88c-.51.32-1,.65-1.49,1-1,.67-1.89,1.36-2.77,2.09a51.14,51.14,0,0,0-9.29,9.83,45.7,45.7,0,0,0-3.53,5.73c-.25.5-.53,1-.76,1.5L112,29.56c-.42,1-.93,2-1.26,3.05l-1.08,3.07c-.32,1-.6,2.06-.9,3.08s-.56,2.06-.79,3.09-.49,2-.68,3.09a145.1,145.1,0,0,0-2.4,24.71c-.06,2,0,4.1,0,6.14s.09,4.09.19,6.13q.24,6.12.88,12.2c.75-8.11,1.72-16.16,3-24.1a161,161,0,0,1,5.46-23.23,79,79,0,0,1,4.32-10.69c.38-.87.9-1.63,1.35-2.44l.69-1.19c.23-.4.5-.77.75-1.15a43.26,43.26,0,0,1,11.38-11.4c.73-.49,1.49-1,2.23-1.37.37-.21.74-.41,1.11-.59l1.18-.56a37.83,37.83,0,0,1,4.93-1.85,46.67,46.67,0,0,1,21.08-1.42,45,45,0,0,1,19,7.43,28.49,28.49,0,0,1,3.78,3.1,28.61,28.61,0,0,1,3.22,3.58,34.1,34.1,0,0,1,2.6,4.11A32.94,32.94,0,0,1,194,37a32.74,32.74,0,0,1,1.88,10,26.83,26.83,0,0,1-1.43,9.8l-.41,1.16c-.15.38-.34.73-.5,1.11a22.16,22.16,0,0,1-1.14,2.22,23.1,23.1,0,0,1-2.86,3.93,21.5,21.5,0,0,1-3.62,3.19c-.32.23-.67.43-1,.66l-1.07.58c-.36.18-.7.41-1.08.56l-1.15.49a29.22,29.22,0,0,1-20.24.39A21.79,21.79,0,0,1,153,65.76a14.08,14.08,0,0,1-1.58-1.87l-.38-.48-.32-.52c-.23-.34-.43-.71-.63-1.08a22,22,0,0,1-1.87-4.75A20.35,20.35,0,0,1,148,47a16,16,0,0,1,1.92-4.59,14.71,14.71,0,0,1,3.21-3.72,16.45,16.45,0,0,1,9.45-3.39,18,18,0,0,1,10.14,2.3,12.6,12.6,0,0,1,5.94,8.06,12.18,12.18,0,0,1-1.52,10,9.12,9.12,0,0,1-3.91,3.25,11.87,11.87,0,0,1-5.27,1c-3.64-.06-7.38-1.78-9-5.09A9.62,9.62,0,0,1,158,49.4a7.33,7.33,0,0,1,2.62-4.78"/></pattern></defs><title>JoSchmoBackground</title><rect class="cls-6" x="570.18" y="229.52" width="878.74" height="697.14"/><path class="cls-7" d="M2383.58,1245.34,1448.92,926.66V229.52L1682.91,0h700.67Z"/><path class="cls-7" d="M0,1245.34l570.18-314V234.2L300.6,0H0Z"/><path class="cls-8" d="M2383.58,1245.34H0L551,929.62h878.74Z"/><path class="cls-9" d="M1682.91,0H300.6L570.18,234.2l878.74-4.68Z"/><ellipse class="cls-10" cx="2032.31" cy="361.02" rx="336.31" ry="312.5" transform="translate(399.17 1623.35) rotate(-47.78)"/><path class="cls-11" d="M1810.66,605.25a285.32,285.32,0,0,0,107.41,61.16,307.28,307.28,0,0,0,123.26,11.71A333.76,333.76,0,0,0,2160.1,642.2a353.07,353.07,0,0,0,98.31-76,372,372,0,0,0,37.89-49.59,345.35,345.35,0,0,0,28.64-55.44,334,334,0,0,0,24.81-121.85,307.81,307.81,0,0,0-23.28-122.08A286.24,286.24,0,0,0,2147.05,54a308.77,308.77,0,0,0-123.92-11.7,335.72,335.72,0,0,0-119.29,36.19A354.46,354.46,0,0,0,1805,154.74c-3.45,3.93-6.88,7.88-10.39,11.76s-6.67,8.06-10,12.08c-1.73,2-3.25,4.11-4.84,6.18L1775,191c-.78,1.05-1.59,2.08-2.34,3.15l-2.21,3.26-4.36,6.55-2.17,3.29c-.7,1.11-1.33,2.25-2,3.38l-4,6.8c-2.72,4.5-5,9.24-7.42,13.88s-4.59,9.43-6.78,14.2l-1.64,3.57-.82,1.79c-.26.6-.49,1.22-.74,1.82l-2.94,7.3a340.24,340.24,0,0,0-17.71,60.24,330.51,330.51,0,0,0-6,62.42,308.36,308.36,0,0,0,24.64,121.94,288.35,288.35,0,0,0,30.61,54.28A292.1,292.1,0,0,0,1810.66,605.25Zm-8.72,9.61A293.3,293.3,0,0,1,1759.11,566,300.11,300.11,0,0,1,1728,509.09a320,320,0,0,1-24-126.46,339.39,339.39,0,0,1,6.93-64.14,349,349,0,0,1,18.58-61.71l3-7.46c.26-.62.5-1.25.78-1.86l.85-1.83,1.7-3.66c2.27-4.86,4.46-9.78,7-14.49s4.88-9.58,7.69-14.17l4-7c.68-1.15,1.32-2.34,2-3.48l2.15-3.41,4.26-6.84,2.11-3.44c.73-1.13,1.5-2.22,2.25-3.34l4.5-6.7c1.52-2.22,3-4.51,4.6-6.64l4.83-6.47c1.63-2.15,3.19-4.35,4.93-6.41,3.43-4.15,7-8.23,10.46-12.33a365.6,365.6,0,0,1,101.94-78.61A345.23,345.23,0,0,1,2022,31.79a319.84,319.84,0,0,1,128,12.64A298.85,298.85,0,0,1,2336.3,213.09c17,39.78,25.39,83.09,25.32,126.32a346.8,346.8,0,0,1-24.45,126.66A364.37,364.37,0,0,1,2269,575.84a367.23,367.23,0,0,1-102.46,78.83,347.33,347.33,0,0,1-123.82,37.14,321,321,0,0,1-128.67-12.63,301.53,301.53,0,0,1-59.6-26A298.4,298.4,0,0,1,1801.94,614.86Z"/><ellipse class="cls-12" cx="1854.98" cy="387.33" rx="62.3" ry="101.68" transform="translate(110.86 1128.28) rotate(-34.81)"/><ellipse class="cls-12" cx="1933.85" cy="336.72" rx="63.96" ry="104.22" transform="translate(144.73 1144.3) rotate(-34.17)"/><path class="cls-11" d="M1979.47,450.11a32.2,32.2,0,0,1,6.5.36,26.65,26.65,0,0,1,6.47,1.81,16.38,16.38,0,0,1,6,4.25,12.3,12.3,0,0,1,3,7.42,17.1,17.1,0,0,1-1.46,7.52,30.4,30.4,0,0,1-3.52,6.08,46.81,46.81,0,0,1-4.33,5.12c-1.52,1.6-3.12,3.09-4.76,4.51s-3.23,2.71-4.93,4.05a58.38,58.38,0,0,1-5.4,3.84,28.15,28.15,0,0,1-6.49,3.05,14.09,14.09,0,0,1-8.26.15,12.37,12.37,0,0,1-2-.87,11,11,0,0,1-1.79-1.21,13.55,13.55,0,0,1-2.71-3,19.16,19.16,0,0,1-2.62-6.84,27.51,27.51,0,0,1,1.06-13.31,1.42,1.42,0,0,1,2.76.47v0a31.55,31.55,0,0,0,1.51,11.42c1.14,3.46,3.5,6.22,5.77,6.57s5.55-.9,8.64-3c1.57-1,3.12-2.23,4.7-3.47l4.72-3.84a64.91,64.91,0,0,0,8.32-8.15c2.37-2.88,4.31-6.1,4.46-9a6.75,6.75,0,0,0-1.07-4.12,11.93,11.93,0,0,0-3.68-3.5,35.37,35.37,0,0,0-10.94-4.3h0a1,1,0,0,1,.19-2Z"/><path class="cls-4" d="M2042.51,475.37c.36,3.77,2.51,32.16-19.65,53.21-22.56,21.43-51.62,17.5-55.27,16.94,23.51,32,65.11,36.06,85.07,19C2073.53,546.64,2074.56,502.4,2042.51,475.37Z"/><path class="cls-11" d="M2043,476.35a.67.67,0,0,0,.51-.27.58.58,0,0,0,.12-.25c0-.06,0-.18,0-.1l0,.48.09.94c0,.63.09,1.25.12,1.88.07,1.26.09,2.52.09,3.77q0,3.78-.47,7.53a71.53,71.53,0,0,1-3.28,14.76,63.91,63.91,0,0,1-42.66,40.74,74.25,74.25,0,0,1-15.06,2.77c-2.54.2-5.1.27-7.66.22-1.28,0-2.56-.09-3.84-.19a8.37,8.37,0,0,1-1.92-.26,3.48,3.48,0,0,1-1.76-1.38l1.42-2.34h0a76.19,76.19,0,0,0,17.94,15.82,67.23,67.23,0,0,0,10.52,5.45,66.45,66.45,0,0,0,11.22,3.55,58.59,58.59,0,0,0,23.13.63c7.54-1.32,14.74-4.48,20-9.6a36,36,0,0,0,6.76-8.9,48.33,48.33,0,0,0,4.15-10.66,59.7,59.7,0,0,0,1.19-23.2,67.75,67.75,0,0,0-7.35-22.44,69.61,69.61,0,0,0-6.49-10.07q-1.83-2.4-3.87-4.65c-.67-.75-1.35-1.5-2.06-2.22l-.53-.54-.26-.27a.37.37,0,0,1-.07-.12A2.91,2.91,0,0,0,2043,476.35Zm-1-2a7.52,7.52,0,0,1,2.26.94l.52.38.31.26.61.5c.82.65,1.61,1.34,2.4,2,1.57,1.39,3.06,2.89,4.5,4.43a69.79,69.79,0,0,1,7.76,10.06,68.14,68.14,0,0,1,9.34,23.77,62.89,62.89,0,0,1-.43,25.84,47.27,47.27,0,0,1-12.58,23.16,40.36,40.36,0,0,1-11.18,7.55,50.38,50.38,0,0,1-12.69,3.86,60.33,60.33,0,0,1-13.07.64,62.11,62.11,0,0,1-12.81-2,68.86,68.86,0,0,1-12.12-4.42,72.37,72.37,0,0,1-11-6.57,69.65,69.65,0,0,1-17.39-18.37h0l-1.14-.11,2.56-2.23a3.53,3.53,0,0,1,1.9-.9,8.72,8.72,0,0,1,1.77.08c1.17.11,2.36.17,3.54.21a70.63,70.63,0,0,0,7.13-.14,68.46,68.46,0,0,0,14-2.42,61,61,0,0,0,24.72-13.58,60.22,60.22,0,0,0,15.94-23.46,67.82,67.82,0,0,0,3.75-13.92,69.87,69.87,0,0,0,.78-7.22c.07-1.2.12-2.41.13-3.62,0-.61,0-1.21,0-1.82l0-.9,0-.45s0-.19,0-.33a1.72,1.72,0,0,1,.1-.48A2,2,0,0,1,2042,474.38Z"/><path class="cls-11" d="M2165.65,753.21a35.31,35.31,0,0,1-5.74,8c-2.12,2.49-4.36,4.88-6.55,7.31s-4.47,4.77-6.79,7.07L2143.1,779c-1.15,1.16-2.32,2.31-3.52,3.41a312.7,312.7,0,0,1-29.94,25.29c-2.57,2-5.31,3.82-8,5.72l-4,2.81c-1.34.94-2.74,1.78-4.11,2.67-2.76,1.75-5.49,3.56-8.28,5.26l-8.49,4.92c-2.79,1.7-5.74,3.12-8.64,4.65l-4.35,2.25-2.18,1.13c-.73.36-1.49.69-2.23,1l-8.93,4.06-2.24,1c-.74.32-1.52.6-2.27.91l-4.57,1.79a275.41,275.41,0,0,1-76.06,18.33,263.54,263.54,0,0,1-78-4.53,2.71,2.71,0,0,1,1.09-5.31h0a257.56,257.56,0,0,0,76.37,3.69,268.87,268.87,0,0,0,74.2-18.32,291.69,291.69,0,0,0,66.64-37.54,304.76,304.76,0,0,0,29.26-24.8c1.18-1.08,2.32-2.21,3.44-3.34l3.4-3.4c2.26-2.26,4.41-4.62,6.63-6.93s4.31-4.72,6.39-7.16c1-1.21,2.07-2.43,3.18-3.58a26.08,26.08,0,0,1,3.59-3.27l.06,0a2.78,2.78,0,0,1,4.14,3.47Z"/><ellipse class="cls-13" cx="1819.05" cy="385.57" rx="31.01" ry="61.96" transform="translate(102.2 1099.74) rotate(-34.55)"/><ellipse class="cls-13" cx="1898.29" cy="337.51" rx="31.66" ry="61.75" transform="translate(108.16 1053.64) rotate(-31.89)"/><path class="cls-14" d="M1878.89,375.62l39.71-25.39"/><path class="cls-4" d="M1897.46,363.25a17.38,17.38,0,0,1-3.18-4.64A14.57,14.57,0,0,1,1893,353a13.87,13.87,0,0,1,4.31-10.33,16.86,16.86,0,0,1,9.87-5,10.5,10.5,0,0,1,5.67,1,9.4,9.4,0,0,1,2.39,1.7,9.21,9.21,0,0,1,1.68,2.42,7.5,7.5,0,0,1,.72,2.88,7.71,7.71,0,0,1-.48,2.91,12.53,12.53,0,0,1-3.16,4.58,15.73,15.73,0,0,1-4.49,3.1,7.73,7.73,0,0,1-5.59.52,5,5,0,0,1-2.39-1.72,4.67,4.67,0,0,1-.92-2.8,6.09,6.09,0,0,1,.74-2.75,9.82,9.82,0,0,1,1.59-2.23,7.38,7.38,0,0,1,2.23-1.63,4.89,4.89,0,0,1,2.77-.4,3.76,3.76,0,0,1,2.42,1.39,4.12,4.12,0,0,1,.81,2.63.27.27,0,0,1-.27.26.28.28,0,0,1-.26-.26h0a3.48,3.48,0,0,0-.77-2.22,3.09,3.09,0,0,0-2-1.06,5,5,0,0,0-4.19,1.95,6.78,6.78,0,0,0-1.86,4.31,3.53,3.53,0,0,0,2.56,3.26,6.33,6.33,0,0,0,4.53-.61,14.18,14.18,0,0,0,3.94-2.91,10.86,10.86,0,0,0,2.61-4,5.41,5.41,0,0,0-.31-4.32c-1.34-2.77-4.66-4.13-7.69-3.72a14.38,14.38,0,0,0-8.24,4.53,11.32,11.32,0,0,0-3.39,8.39,13.54,13.54,0,0,0,3.62,8.51h0a1.31,1.31,0,0,1-1.94,1.77Z"/><path class="cls-4" d="M1897.12,362.56a10,10,0,0,0-1.9-4.09,8.37,8.37,0,0,0-3.52-2.57,11.8,11.8,0,0,0-4.5-.75,21.06,21.06,0,0,0-4.84.67,15.13,15.13,0,0,0-8.23,4.74,10.83,10.83,0,0,0-1.29,2,9.37,9.37,0,0,0-.72,2.25,8.81,8.81,0,0,0-.11,2.35,5.74,5.74,0,0,0,.64,2.21,5.94,5.94,0,0,0,3.31,3.06,8.11,8.11,0,0,0,4.73,0,13.81,13.81,0,0,0,4.51-2.11,7,7,0,0,0,2.84-3.78,3.86,3.86,0,0,0-1.42-4.11,5.66,5.66,0,0,0-4.67-.48,4.85,4.85,0,0,0-3.59,2.93,3.07,3.07,0,0,0,.12,2.27,3.62,3.62,0,0,0,1.68,1.62h0a.37.37,0,0,1,.17.5.38.38,0,0,1-.5.17,4.35,4.35,0,0,1-2-1.95,3.81,3.81,0,0,1-.19-2.85,4.72,4.72,0,0,1,1.63-2.31,7.3,7.3,0,0,1,2.5-1.23,9.33,9.33,0,0,1,2.74-.35,5.41,5.41,0,0,1,2.73.85,5,5,0,0,1,2,5.19,8.16,8.16,0,0,1-3.19,4.57,15.14,15.14,0,0,1-4.9,2.45,9.59,9.59,0,0,1-5.62.13,7.61,7.61,0,0,1-4.34-3.76c-1.88-3.56-1-7.88,1.19-11a14.41,14.41,0,0,1,4.15-3.9,19.65,19.65,0,0,1,5.11-2.33,23.31,23.31,0,0,1,5.53-1,13.6,13.6,0,0,1,5.8.93,10.93,10.93,0,0,1,4.75,3.7,11.42,11.42,0,0,1,2.07,5.53,1.32,1.32,0,0,1-2.59.45Z"/><path class="cls-14" d="M1801.31,417.12l39.7-25.39"/><path class="cls-4" d="M1819.87,404.76a17.71,17.71,0,0,1-3.18-4.64,14.79,14.79,0,0,1-1.3-5.57,13.83,13.83,0,0,1,4.31-10.33,16.79,16.79,0,0,1,9.87-5,10.47,10.47,0,0,1,5.66,1,9.23,9.23,0,0,1,2.39,1.7,8.71,8.71,0,0,1,1.68,2.41,7.17,7.17,0,0,1,.72,2.89,7.73,7.73,0,0,1-.47,2.91,12.49,12.49,0,0,1-3.16,4.57,15.81,15.81,0,0,1-4.5,3.11,7.71,7.71,0,0,1-5.58.51,4.89,4.89,0,0,1-2.39-1.72,4.58,4.58,0,0,1-.92-2.79,6.18,6.18,0,0,1,.73-2.75,9.56,9.56,0,0,1,1.6-2.23,7.1,7.1,0,0,1,2.23-1.63,4.93,4.93,0,0,1,2.76-.41,3.85,3.85,0,0,1,2.43,1.39,4.13,4.13,0,0,1,.8,2.63.26.26,0,0,1-.52,0h0a3.52,3.52,0,0,0-.78-2.23,3.06,3.06,0,0,0-2-1.05,4.93,4.93,0,0,0-4.19,2,6.81,6.81,0,0,0-1.86,4.31,3.54,3.54,0,0,0,2.56,3.25,6.32,6.32,0,0,0,4.53-.6,14.41,14.41,0,0,0,4-2.92,11,11,0,0,0,2.61-4,5.48,5.48,0,0,0-.31-4.33c-1.34-2.76-4.67-4.12-7.7-3.72a14.45,14.45,0,0,0-8.24,4.53,11.31,11.31,0,0,0-3.38,8.4,13.51,13.51,0,0,0,3.62,8.51h0a1.32,1.32,0,0,1-1.94,1.78Z"/><path class="cls-4" d="M1819.54,404.07a10.27,10.27,0,0,0-1.9-4.09,8.32,8.32,0,0,0-3.53-2.57,11.55,11.55,0,0,0-4.5-.75,21,21,0,0,0-4.83.66,15.14,15.14,0,0,0-8.24,4.75,10.78,10.78,0,0,0-1.28,2,9.32,9.32,0,0,0-.73,2.24,8.49,8.49,0,0,0-.1,2.36,5.78,5.78,0,0,0,.63,2.21,6,6,0,0,0,3.32,3.06,8.11,8.11,0,0,0,4.73,0,13.88,13.88,0,0,0,4.51-2.1,7,7,0,0,0,2.84-3.79,3.88,3.88,0,0,0-1.42-4.1,5.67,5.67,0,0,0-4.67-.49,4.87,4.87,0,0,0-3.59,2.94,3,3,0,0,0,.12,2.27,3.49,3.49,0,0,0,1.67,1.61h0a.38.38,0,0,1,.17.5.38.38,0,0,1-.5.17,4.31,4.31,0,0,1-2-1.95,3.86,3.86,0,0,1-.2-2.85,4.77,4.77,0,0,1,1.64-2.32,7.31,7.31,0,0,1,2.49-1.22,9.37,9.37,0,0,1,2.74-.35,5.23,5.23,0,0,1,2.74.85,5,5,0,0,1,2,5.19,8.13,8.13,0,0,1-3.18,4.56,15.21,15.21,0,0,1-4.91,2.46,9.67,9.67,0,0,1-5.62.13,7.66,7.66,0,0,1-4.34-3.77c-1.88-3.55-1-7.87,1.19-11a14.57,14.57,0,0,1,4.15-3.91,20,20,0,0,1,5.12-2.33,24.28,24.28,0,0,1,5.52-1,13.74,13.74,0,0,1,5.8.94,10.74,10.74,0,0,1,4.75,3.7,11.31,11.31,0,0,1,2.08,5.52,1.32,1.32,0,0,1-2.59.45Z"/><path class="cls-15" d="M2270.55,565.52,2294,590.09a18.2,18.2,0,0,1-4.93,14.52,17,17,0,0,1-16.85,4.53l-21.38-23.53"/><path class="cls-16" d="M2273.52,607.37,2155.74,744.56A1031.25,1031.25,0,0,1,2344,875.9l199.52-222.67c-24.91-24.75-50.82-52.63-76.91-83.85s-49.13-62-69.21-91.11L2296,585.78c.25.48,4.13,8.17,0,15.19C2292.06,607.78,2282.16,611.27,2273.52,607.37Z"/><path class="cls-11" d="M2274.4,611.34l-29.09,33.45-29.16,33.72L2187,712.34l-29.17,34-.76-4.11Q2182.38,755.91,2207,771t48.45,31.3q23.77,16.32,46.66,33.94t44.6,36.64l-5.67.33,49.8-55.73,49.94-55.61,49.94-55.62,49.79-55.74.16,5.64q-20.41-20.07-39.89-41.09t-38.1-42.77q-18.54-21.84-36.05-44.54t-33.75-46.33l8.59.66-25.38,26.85c-8.51,8.9-17,17.84-25.54,26.7l-25.66,26.59-12.92,13.2q-6.45,6.62-13,13.16h0l.64-4.68c.31.62.5,1.05.7,1.56s.37,1,.53,1.47a23.86,23.86,0,0,1,.77,3,20.41,20.41,0,0,1,.2,6.4,17.34,17.34,0,0,1-2.07,6.33,19.29,19.29,0,0,1-4.14,5.07,20.46,20.46,0,0,1-5.39,3.39,22.3,22.3,0,0,1-6,1.71,23.93,23.93,0,0,1-6.27,0,24.49,24.49,0,0,1-3.08-.68l-.76-.23-.19,0s0,0,0,0l.1,0A.88.88,0,0,0,2274.4,611.34Zm-1.76-7.94a12.43,12.43,0,0,1,2.83.45c.24.06.47.13.7.21l.31.11.12,0,.48.14a16.78,16.78,0,0,0,2,.44,15.91,15.91,0,0,0,4,0,14,14,0,0,0,7.19-3.19,9.9,9.9,0,0,0,3.49-6.31,12.45,12.45,0,0,0-.14-3.88,15.51,15.51,0,0,0-.5-2c-.11-.32-.22-.65-.35-1s-.27-.65-.35-.8l-1.27-2.55L2293,583h0q6.15-6.9,12.38-13.72l12.42-13.68,25-27.17c8.35-9.06,16.78-18,25.17-27l25.32-26.9,4.71-5,3.88,5.67q16.07,23.43,33.18,46.12t35,44.73q18,22,37.05,43.11t39.17,41.23l2.75,2.77-2.58,2.88-50,55.59-49.83,55.71L2397,823l-50,55.6-2.68,3-3-2.65q-21.43-19-43.9-36.8t-45.79-34.46q-23.38-16.56-47.68-31.83t-49.53-28.92l-2.91-1.59,2.16-2.52,29.72-34.62,29.69-34.77,29.73-34.88Z"/><path class="cls-17" d="M2544.48,651.72c28.11,26.69,58.86,54.07,92.39,81.61,32.65,26.81,64.67,51.07,95.57,73q-48.2,57.87-96.37,115.75a614,614,0,0,0-141.89-104.3,695,695,0,0,0,48.49,78,685.69,685.69,0,0,0,53.69,65.79L2500,1067.77A861.71,861.71,0,0,0,2432.59,972a851.34,851.34,0,0,0-88.25-93.4"/><path class="cls-18" d="M2164,742.23c12.74,11.33,165,117.11,181.19,126.4,61.66-67.77,136.74-147.62,198.39-215.4-11.05,4.09-143.65-158.59-148.8-167.1C2343.34,542.75,2209.92,682.51,2164,742.23Z"/><path class="cls-11" d="M1790.75,168.28a82,82,0,0,1-47.44,36.26,68.75,68.75,0,0,1-31.18,1.37,59.49,59.49,0,0,1-15.13-5.16,48.36,48.36,0,0,1-25.39-30.88,53.06,53.06,0,0,1-1.59-8.07,60.66,60.66,0,0,1,.29-16.32,69.19,69.19,0,0,1,12.39-29.72,58.24,58.24,0,0,1,11.36-11.9,54.75,54.75,0,0,1,30.62-12A44.42,44.42,0,0,1,1741.59,94c1.35.5,2.69,1.07,4,1.62s2.56,1.35,3.83,2c.32.18.64.35,1,.54l.92.65,1.83,1.32a19.93,19.93,0,0,1,1.72,1.47c.55.51,1.12,1,1.65,1.54a35,35,0,0,1,8.44,15.57,39,39,0,0,1,.31,17.22,46.56,46.56,0,0,1-6.29,15.62,35.83,35.83,0,0,1-2.4,3.47l-1.32,1.69-1.47,1.58a39.41,39.41,0,0,1-3.11,2.95c-.53.48-1.12.89-1.69,1.33s-1.11.89-1.73,1.26a36.68,36.68,0,0,1-16,6.09,33.65,33.65,0,0,1-4.38.24c-.74,0-1.48-.09-2.21-.14l-1.1-.09c-.37-.05-.73-.12-1.1-.19A27.53,27.53,0,0,1,1714,167a22.35,22.35,0,0,1-7.17-5.73,22.61,22.61,0,0,1-4.23-8.13,26.47,26.47,0,0,1,1.15-17.23,30.83,30.83,0,0,1,4.27-7.33,25.74,25.74,0,0,1,6.35-5.79,22,22,0,0,1,16.63-3.28,16.34,16.34,0,0,1,7.79,4.18,14.54,14.54,0,0,1,1.5,1.73,15.26,15.26,0,0,1,1.14,1.95,14,14,0,0,1,1.33,4.22,16.77,16.77,0,0,1-.91,8.4,18.27,18.27,0,0,1-4.51,6.89,15.14,15.14,0,0,1-7.25,3.77,11.46,11.46,0,0,1-8-1.12,8.06,8.06,0,0,1-2.95-2.82,8.37,8.37,0,0,1-1.21-3.78,10.31,10.31,0,0,1,2.32-7.14,10.26,10.26,0,0,0-1.44,7,6.83,6.83,0,0,0,4.07,5.16,9.41,9.41,0,0,0,6.61.29,12.45,12.45,0,0,0,5.57-3.62c2.87-3.38,4.34-8.17,3.32-12.23a9.33,9.33,0,0,0-1.14-2.82,8.74,8.74,0,0,0-.85-1.21,9.1,9.1,0,0,0-1-1,11.17,11.17,0,0,0-5.48-2.35,16.2,16.2,0,0,0-11.83,3.21,18.61,18.61,0,0,0-4.39,4.55,23.45,23.45,0,0,0-2.89,5.77,19.14,19.14,0,0,0-.23,12.16,13.8,13.8,0,0,0,7.49,8.25,18.6,18.6,0,0,0,5.78,1.64c.25,0,.5.08.75.1l.77,0c.51,0,1,.06,1.53,0a23.1,23.1,0,0,0,3.09-.31,27.06,27.06,0,0,0,11.56-4.85c.45-.28.83-.66,1.26-1s.84-.65,1.22-1a30,30,0,0,0,2.24-2.27l1.06-1.21,1-1.28a29.2,29.2,0,0,0,1.79-2.73,35.83,35.83,0,0,0,4.57-12.11,28.57,28.57,0,0,0-.4-12.5,23.58,23.58,0,0,0-5.79-10.41c-.75-.65-1.44-1.36-2.22-2l-1.22-.86-.61-.44c-.22-.13-.46-.25-.69-.37-.93-.48-1.81-1.05-2.78-1.47L1738,104.8a33.3,33.3,0,0,0-12.63-1.55,43.69,43.69,0,0,0-24.3,9.49,47.11,47.11,0,0,0-9.39,9.58,60,60,0,0,0-6.93,11.82,54.11,54.11,0,0,0-4.68,26.6,41.74,41.74,0,0,0,10.24,24.34c5.92,6.64,14.52,11.13,23.51,13.55a62.91,62.91,0,0,0,28.22.47,79.09,79.09,0,0,0,26.84-10.95,84.59,84.59,0,0,0,11.73-9A90.57,90.57,0,0,0,1790.75,168.28Z"/><ellipse class="cls-19" cx="1861.02" cy="844.49" rx="7.92" ry="27.37" transform="translate(330.18 2198.41) rotate(-65.9)"/><path class="cls-11" d="M1837.31,833.8a2.57,2.57,0,0,0,.43,2.25,13.72,13.72,0,0,0,2.07,2.67,39.35,39.35,0,0,0,5.5,4.66,82.39,82.39,0,0,0,12.71,7.41,80.53,80.53,0,0,0,13.83,5.18,40,40,0,0,0,7.25,1.25,15.32,15.32,0,0,0,3.59-.14,3.84,3.84,0,0,0,2.79-1.5,3.33,3.33,0,0,0-.46-3,14.9,14.9,0,0,0-2.22-2.82,38.1,38.1,0,0,0-5.72-4.61,79.84,79.84,0,0,0-13-6.92,82.24,82.24,0,0,0-14-4.59,41.05,41.05,0,0,0-7.14-1.06,15.28,15.28,0,0,0-3.41.16A3.15,3.15,0,0,0,1837.31,833.8Zm-2.39-1.28a4.36,4.36,0,0,1,2-1.79,7.55,7.55,0,0,1,2.13-.66,17.77,17.77,0,0,1,4-.18,43.31,43.31,0,0,1,7.59,1.3,83.6,83.6,0,0,1,14.16,5.29,84.62,84.62,0,0,1,13,7.59,41.83,41.83,0,0,1,5.77,4.89,15.49,15.49,0,0,1,2.36,3.06,6.52,6.52,0,0,1,.73,1.89,3.34,3.34,0,0,1-.28,2.16,3.69,3.69,0,0,1-1.59,1.45,7.12,7.12,0,0,1-1.92.6,16,16,0,0,1-3.84.19,42.59,42.59,0,0,1-7.48-1.11,84.67,84.67,0,0,1-14.31-4.7,81.35,81.35,0,0,1-13.35-7.09,39.26,39.26,0,0,1-6-4.85,16.15,16.15,0,0,1-2.51-3.2,7.28,7.28,0,0,1-.83-2.13A4.15,4.15,0,0,1,1834.92,832.52Z"/></svg>