<svg xmlns="http://www.w3.org/2000/svg" viewBox="0 0 580 189"><defs><style>.cls-1,.cls-2,.cls-5,.cls-6{fill:none;stroke-miterlimit:10;}.cls-1,.cls-2{stroke:#03acf7;}.cls-1{stroke-width:2px;}.cls-2{stroke-width:5px;}.cls-3{fill:#03acf7;}.cls-4{fill:#60caec;}.cls-5,.cls-6{stroke:#60caec;}.cls-5{stroke-linecap:round;stroke-width:2.49px;}.cls-6{stroke-width:3px;}</style></defs><g id="KarVerseBar"><path class="cls-1" d="M7.54,134.12c28.1-21.66,70.79-47.39,125-52,95.14-8.09,142,56,240,67,47.57,5.35,176-12,204-80"/><path class="cls-1" d="M8.41,142.86c28.1-21.66,70.78-47.39,125-52,95.14-8.09,142,56,240,67C421,163.2,547.54,137.12,565.54,90.12"/><path class="cls-1" d="M7.08,151.84c28.11-21.66,70.79-47.39,125-52,95.14-8.09,142,56,240,67,47.57,5.34,171.46-27.72,184.46-62.72"/><path class="cls-1" d="M4.84,162c28.1-21.66,70.78-47.39,125-52,95.14-8.1,142,56,240,67,47.56,5.34,171.7-33.89,178.7-61.89"/><path class="cls-1" d="M2.84,170c28.1-21.66,70.78-47.39,125-52,95.14-8.1,142,56,240,67,47.56,5.34,166.7-30.89,174.7-60.89"/><path class="cls-2" d="M8.54,131.12q-2.49,19.5-5,39"/><path class="cls-3" d="M538.44,126.82a111.94,111.94,0,0,0,20.42-25.44,100.58,100.58,0,0,0,7-14.6,86.89,86.89,0,0,0,4.46-15.44c2-10.46,1.91-21.34-1.22-31.2A42.84,42.84,0,0,0,551,16.39,41.85,41.85,0,0,0,544.13,13a46.77,46.77,0,0,0-7.36-2.27,59.21,59.21,0,0,0-15.52-1.27,73.54,73.54,0,0,0-30.37,8.5,80.27,80.27,0,0,0-13.41,8.76A62.05,62.05,0,0,0,466.37,38a54.5,54.5,0,0,0-7.61,13.84,43.72,43.72,0,0,0-2.84,15.38,34.16,34.16,0,0,0,3.46,15,31.36,31.36,0,0,0,4.28,6.44,25.28,25.28,0,0,0,5.73,5,31.2,31.2,0,0,0,14.7,4.67,42.79,42.79,0,0,0,15.73-1.9,51.43,51.43,0,0,0,14.37-7.12A42.1,42.1,0,0,0,525.41,78a31.7,31.7,0,0,0,5.27-14.84,21.86,21.86,0,0,0-4-14.83A18.35,18.35,0,0,0,513.37,41a29,29,0,0,0-15.61,3,29.6,29.6,0,0,0-12.13,10.46,20.76,20.76,0,0,0-2.95,7.44,15.63,15.63,0,0,0,.51,7.89A12.72,12.72,0,0,0,485,73.27,11.42,11.42,0,0,0,487.85,76a13.46,13.46,0,0,0,7.6,2.18A20.52,20.52,0,0,0,510,71.69a14.55,14.55,0,0,0,3.67-7.21,9.53,9.53,0,0,0-1.83-7.72,7.43,7.43,0,0,0-3.29-2.36,10,10,0,0,0-4.07-.54A13.49,13.49,0,0,0,496.89,57a13.58,13.58,0,0,1,7.56-3.32,10.2,10.2,0,0,1,4.17.47,7.77,7.77,0,0,1,3.46,2.38,10,10,0,0,1,2.07,8,15.14,15.14,0,0,1-3.66,7.57,21.31,21.31,0,0,1-15,7.1A14.55,14.55,0,0,1,487.19,77,12.74,12.74,0,0,1,484,74a14.41,14.41,0,0,1-2.09-3.83,17,17,0,0,1-.74-8.6,22.66,22.66,0,0,1,3-8.07A27.8,27.8,0,0,1,489.75,47a36.3,36.3,0,0,1,7.1-4.8,31.08,31.08,0,0,1,16.75-3.52A22.53,22.53,0,0,1,522.05,41a19.86,19.86,0,0,1,6.77,5.71,23,23,0,0,1,4,7.9,26.21,26.21,0,0,1,.93,8.76,34.86,34.86,0,0,1-5.46,16.46,45.66,45.66,0,0,1-11.88,12.54,54.93,54.93,0,0,1-15.32,8,46.92,46.92,0,0,1-17.24,2.43,35.68,35.68,0,0,1-16.93-5.06,29.84,29.84,0,0,1-6.9-5.81,36.07,36.07,0,0,1-5.1-7.36,39.65,39.65,0,0,1-4.37-17.21,49.39,49.39,0,0,1,2.76-17.41,60.43,60.43,0,0,1,8.06-15.57,69.87,69.87,0,0,1,11.86-12.84,87,87,0,0,1,14.27-9.92,82,82,0,0,1,16.06-6.85A75.85,75.85,0,0,1,520.8,1.54a63.37,63.37,0,0,1,17.72,1.25,52.51,52.51,0,0,1,16.72,6.67,47.88,47.88,0,0,1,13.34,12.26,52.89,52.89,0,0,1,8,16.1,61.23,61.23,0,0,1,2.57,17.56,77.27,77.27,0,0,1-1.92,17.4,94.11,94.11,0,0,1-5.41,16.46,103.95,103.95,0,0,1-31.22,40.18Z"/><path class="cls-4" d="M22.54,121.8a2.71,2.71,0,0,1,.67,2.47A2,2,0,0,1,21,125.53a2.62,2.62,0,0,1-1.29-.56,2.84,2.84,0,0,1-.81-1.16,4,4,0,0,1,0-2.79,3.25,3.25,0,0,1,2.12-2,4.15,4.15,0,0,1,2.9.27,4.33,4.33,0,0,1,2,2.13,6.44,6.44,0,0,1,.56,2.84,5.86,5.86,0,0,1-.82,2.84,5.23,5.23,0,0,1-2.3,2,6.51,6.51,0,0,1-5.87-.45,7.74,7.74,0,0,1-3.32-4.9,10.21,10.21,0,0,1,.34-5.88,8.19,8.19,0,0,1,4.2-4.46,9.75,9.75,0,0,1,6.08-.67,11.4,11.4,0,0,1,2.91,1,9.82,9.82,0,0,1,2.53,1.9A11.91,11.91,0,0,1,33,121a15.71,15.71,0,0,1,.3,5.83,13.48,13.48,0,0,1-2,5.51,12.23,12.23,0,0,1-4.26,3.93c-.84.4-1.63.63-2.48.95-.11.05-.22.08-.36.13a1.21,1.21,0,0,1-.42.08.66.66,0,0,1-.36-.12.49.49,0,0,1-.1-.09.7.7,0,0,0-.37-.31,9.28,9.28,0,0,0-1.23-.46,5.11,5.11,0,0,1,1.38-.24,1.73,1.73,0,0,1,.84.18s.05,0,0,0a.4.4,0,0,0-.22-.07c-.15,0-.12,0-.1,0a1.88,1.88,0,0,1,.2-.21,23,23,0,0,1,2-1.75A10,10,0,0,0,29,130.91a12.3,12.3,0,0,0,.63-9,10.17,10.17,0,0,0-2.05-3.83A7.24,7.24,0,0,0,24,115.93a6.73,6.73,0,0,0-4.19.16,5.43,5.43,0,0,0-3,2.81,7.8,7.8,0,0,0-.51,4.42A5.62,5.62,0,0,0,18.48,127a4.72,4.72,0,0,0,4.18.58,3.7,3.7,0,0,0,1.69-1.28,4.51,4.51,0,0,0,.73-2.1,4.06,4.06,0,0,0-1.72-4,3.19,3.19,0,0,0-2.2-.33,2.45,2.45,0,0,0-1.69,1.36,3.36,3.36,0,0,0-.12,2.34A2.14,2.14,0,0,0,21,125.17a1.76,1.76,0,0,0,2-1A2.6,2.6,0,0,0,22.54,121.8Z"/><path class="cls-4" d="M23.32,152.12a2.59,2.59,0,0,0,.47-2.42,1.77,1.77,0,0,0-2.05-.94,2.17,2.17,0,0,0-1.63,1.58,3.42,3.42,0,0,0,.15,2.34A2.44,2.44,0,0,0,22,154a3.17,3.17,0,0,0,2.19-.38,4.1,4.1,0,0,0,1.65-4,4.47,4.47,0,0,0-.77-2.09,3.71,3.71,0,0,0-1.73-1.24,4.71,4.71,0,0,0-4.17.68,5.63,5.63,0,0,0-2.07,3.77,7.73,7.73,0,0,0,.59,4.41,5.48,5.48,0,0,0,3.07,2.74,6.69,6.69,0,0,0,4.2.05,7.2,7.2,0,0,0,3.49-2.27,10.3,10.3,0,0,0,2-3.89,12.26,12.26,0,0,0-.82-9,10.24,10.24,0,0,0-3.17-3.35,17.75,17.75,0,0,1-2.05-1.85c-.12-.18-.44-.41-.13-.35,0,0-.18,0-.28,0l-.36,0a7.78,7.78,0,0,1-1.36-.26c.44-.15.87-.27,1.27-.42l.29-.13a1.94,1.94,0,0,1,.37-.14.75.75,0,0,1,.44.06l.23.1.3.14c.77.34,1.59.61,2.4.94a12.14,12.14,0,0,1,4.37,3.82A13.11,13.11,0,0,1,34,146.8a15.68,15.68,0,0,1-.17,5.83,11.94,11.94,0,0,1-2.72,5.4,9.89,9.89,0,0,1-2.48,2,10.64,10.64,0,0,1-2.89,1.08,9.74,9.74,0,0,1-6.11-.51,8.21,8.21,0,0,1-4.32-4.37,10.07,10.07,0,0,1-.47-5.88,7.69,7.69,0,0,1,3.22-5,6.51,6.51,0,0,1,5.86-.6,5.26,5.26,0,0,1,2.36,1.94,5.66,5.66,0,0,1,.88,2.83,6.37,6.37,0,0,1-.51,2.86,4.37,4.37,0,0,1-2,2.17,4.14,4.14,0,0,1-2.89.33,3.23,3.23,0,0,1-2.17-1.9,4,4,0,0,1,0-2.8,3,3,0,0,1,.8-1.18,2.58,2.58,0,0,1,1.28-.58A2,2,0,0,1,24,149.64,2.67,2.67,0,0,1,23.32,152.12Z"/><line class="cls-5" x1="23.21" y1="113.12" x2="23.45" y2="160.13"/><circle class="cls-6" cx="38.54" cy="130.12" r="2"/><circle class="cls-6" cx="39.04" cy="138.62" r="2"/></g></svg>