<?xml version="1.0" encoding="utf-8"?>
<!-- Generator: Adobe Illustrator 23.1.1, SVG Export Plug-In . SVG Version: 6.00 Build 0)  -->
<svg version="1.1" id="Layer_1" xmlns="http://www.w3.org/2000/svg" xmlns:xlink="http://www.w3.org/1999/xlink" x="0px" y="0px"
	 viewBox="0 0 1152 864" style="enable-background:new 0 0 1152 864;" xml:space="preserve">
<style type="text/css">
	.st0{fill:#D7D186;}
	.st1{fill:#FFFFFF;}
	.st2{fill:#F2EFD6;}
	.st3{fill:#CDC78B;}
	.st4{fill:#DCD388;}
	.st5{fill:#FFF69D;}
	.st6{fill:#13110C;}
	.st7{fill:#4E4E4E;}
	.st8{fill:#838383;}
	.st9{fill:#A7A7A7;}
	.st10{fill:#4D4D4D;}
	.st11{fill:#808080;}
</style>
<g>
	<path class="st0" d="M1036,863.3c-1.1-2.9-2-5.8-3.2-8.7c-3.3-7.5-6.8-14.9-10.3-22.3c-3.2-7-6.4-13.9-9.6-20.9
		c-4.8-10.6-9.6-21.2-14.6-31.8c-5.4-11.6-11.1-23.1-16.5-34.7c-4-8.6-7.7-17.3-11.7-26c-4.3-9.4-8.8-18.8-13.1-28.1
		c-2.4-5.2-4.6-10.5-7-15.8c-3-6.7-6.1-13.4-9.2-20c-4.6-9.9-9.4-19.9-13.9-29.8c-2.8-6-5.3-12.1-8-18.1c-4.8-10.5-9.6-21-14.4-31.5
		c-3.9-8.4-8-16.8-11.9-25.2c-2.5-5.5-4.8-11-7.3-16.5c-2.2-4.8-4.7-9.6-6.9-14.4c-2.5-5.5-4.8-11-7.3-16.5
		c-2.6-5.6-5.4-11.1-7.9-16.7c-2.5-5.5-4.8-11-7.3-16.5c-2.7-5.8-5.6-11.5-8.3-17.3c-4-8.8-7.7-17.6-11.8-26.3
		c-4-8.8-8.3-17.5-12.3-26.2c-2.5-5.4-4.7-10.8-7.1-16.1c-2.5-5.5-5.3-10.9-7.8-16.4c-2.5-5.5-4.8-11-7.3-16.5
		c-2.7-5.9-5.6-11.8-8.4-17.7c-4.8-10.2-9.6-20.3-14.3-30.5c-2.2-4.8-4.2-9.7-6.4-14.5c-2.5-5.5-5.3-10.9-7.7-16.4
		c-1.4-3.1-2.2-6.2-3.3-9.4c3.5-0.2,4.6,1.6,5.7,3.5c0.8,1.4,1.5,2.8,2.4,4.1c1.5,2,3,4,4.7,5.9c3,3.6,2.9,8.3,8,11.2
		c0.8,0.4,0.9,1.5,1.3,2.2c1.9,3.4,3.1,7,5.7,10.1c4.3,5.1,6.8,11,12.2,15.6c0.5,0.4,0.6,1.1,0.8,1.6c1.2,5.1,6.5,8.6,9.6,13
		c0.2,0.3,0.7,0.5,1,0.7c2.8,1.6,3.9,3.8,4.3,6.3c0.2,1.1,1,2.1,1.7,3.1c2.9,4,6,7.9,8.7,11.9c2.4,3.6,1.8,8.2,7.5,10.6
		c0.7,0.3,0.8,1.2,1.3,1.8c0.7,0.9,1.4,1.8,2.3,2.6c1.7,1.4,2.4,2.9,2.3,4.8c-0.1,2.3,0.9,4.2,2.8,6.1c2.5,2.5,4.8,5.1,6.6,7.9
		c1.8,2.7,3,5.6,4.4,8.4c1.9,3.9,6.1,6.9,7.6,11c0.8,2.1,1.5,4.3,3,6.2c2.9,3.8,6.2,7.5,9.2,11.2c0.8,1.1,1.6,2.4,1.6,3.5
		c-0.1,3.4,1.9,5.9,5.5,8c1.1,0.6,1.7,1.8,2.2,2.9c0.4,0.8,0.3,1.9,0.8,2.7c2.4,3.9,5,7.7,7.6,11.5c0.5,0.8,1.8,1.4,2.1,2.3
		c2.4,6.9,10.3,11.9,12,19c0.1,0.3,0.5,0.6,0.9,0.8c1.6,1,2.5,2.3,2.9,3.8c0.2,0.9,1.4,1.8,2.2,2.6c1.6,1.9,3.9,3.6,4.6,5.6
		c2,5.7,6.2,10.5,11.2,15c1,0.9,1.3,2.3,1.8,3.5c0.3,0.8,0.2,1.6,0.7,2.3c2.8,4.1,5.7,8.2,8.5,12.3c1,1.4,2,2.9,2.5,4.4
		c0.9,2.6,2.2,5,5.1,6.9c1.5,1,2.3,2.5,3.2,3.8c2.2,3.4,4.2,7,6.3,10.4c0.5,0.8,1.3,1.6,2,2.3c4.7,5,8.3,10.4,10.8,16.1
		c0.8,1.8,1.3,3.5,3.9,4.5c0.8,0.3,1.7,1,1.7,1.5c0,2.5,2.1,4.3,3.5,6.3c1.5,2.3,3.3,4.5,4.1,6.9c0.8,2.6,2.6,4.7,5,6.5
		c1.8,1.4,2.9,2.9,3.8,4.7c1.7,3.3,3.5,6.7,5.5,9.9c2,3.1,4,6.3,6.4,9.3c2.3,2.9,6.2,5.2,6.2,9c0,0.1,0.1,0.2,0.2,0.3
		c2.8,3.8,5.7,7.7,8.4,11.5c4.5,6.3,7.2,13.3,13.1,19.1c0.2,0.2,0.3,0.4,0.4,0.6c2.5,4.5,4.8,8.9,8.3,13.1c5.5,6.4,7.8,14,12.9,20.7
		c3.3,4.3,6.1,8.8,7.2,13.7c0.2,1,1.5,2,2.2,3c0.9,1.2,2.2,2.3,2.8,3.6c2.1,4.4,3.5,9.1,6.9,13.2c1.6,1.9,2.8,3.9,4.1,5.9
		c0.5,0.8,1,1.7,1.4,2.6c0.7,1.7,1.2,3.5,2.1,5.2c1.9,3.6,4,7.2,6,10.8c0.4,0.6,0.8,1.2,1.3,1.9c2.3,3.4,4.7,6.8,6.9,10.2
		c0.5,0.7,0.5,1.5,0.9,2.3c1.6,3.4,3.2,6.7,4.8,10c0.2,0.3,0.6,0.6,0.8,0.9c1,1.6,2.2,3.3,3.1,5c1.1,2,2,4.1,3,6.2
		c1.6,3.6,4.6,6.8,6.9,10.2c3.3,4.8,5,10.1,9,14.8c3.8,4.5,5,10,9.5,14.3c0.3,0.3,0.2,0.7,0.4,1c1.6,2.9,3.1,5.8,4.9,8.6
		c1.6,2.5,3.8,4.8,5.4,7.3c1.8,2.7,3.3,5.5,4.9,8.3c0.7,1.3,1.2,2.7,3.6,2.9c0,5.3,0.1,10.7,0.1,16c-12.4,0-24.9,0-37.3,0
		c-1.3-0.2-2.7-0.7-4-0.7c-17.1,0-34.2-0.1-51.3,0c-1.3,0-2.6,0.4-4,0.7c-5.7,0-11.5,0-17.2,0C1036.7,863.8,1036.3,863.5,1036,863.3
		z"/>
	<path class="st1" d="M1150.8,864c0-5.3-0.1-10.7-0.1-16c0-1.2,0.1-2.3,0.1-3.5c0-79.6,0-159.2,0-238.8c0-1.3-0.1-2.5-0.1-3.8
		c0-1.6,0.1-3.2,0.1-4.9c0-174.3,0-348.7,0-523c0-24.4-0.1-48.9-0.1-73.3c0-0.2,0-0.5,0.1-0.7c0.3,0.1,0.9,0.2,0.9,0.3
		c0.1,0.9,0,1.9,0,2.8c0,285.9,0,571.8-0.1,857.7C1151.7,861.9,1152.8,863.2,1150.8,864z"/>
	<path class="st2" d="M1150.8,0c0,0.2,0,0.5-0.1,0.7c-1.3,0-2.5-0.1-3.8-0.1c-73.6,0-147.2,0-220.9,0c-1.3,0-2.5,0-3.8,0.1
		c-20.7,0-41.4-0.1-62.1-0.1c-73,0-146.1,0-219.1,0c-0.3,0-0.6-0.1-1-0.1c0-0.2,0-0.4,0-0.6C810.3,0,980.6,0,1150.8,0z"/>
	<path class="st3" d="M1054.2,864c1.3-0.2,2.6-0.7,4-0.7c17.1,0,34.2,0,51.3,0c1.3,0,2.7,0.4,4,0.7C1093.7,864,1074,864,1054.2,864z
		"/>
	<path class="st4" d="M641,0.7c73,0,146.1,0,219.1,0c20.7,0,41.4,0,62.1,0.1c0.8,0.9,1.5,2,2.6,2.8c5.2,3.8,6.7,8.7,7.9,13.7
		c1,4,2.1,7.9,5.9,11.1c1,0.8,2.1,1.9,2.5,2.9c1.8,5.8,7.3,10.2,10.5,15.4c1.1,1.9,2.7,3.6,3.9,5.5c2.3,3.5,3.4,7.3,7,10.5
		c2.5,2.2,4.4,4.9,5.3,7.7c1.1,3.4,3.5,6.3,5.1,9.6c0.4,0.9,1,1.8,1.9,2.4c2.7,1.7,3.6,4,5,6.2c1.1,1.8,2.5,3.5,3.5,5.3
		c0.6,1,1,2.2,1.1,3.3c0,1.9,0.4,3.7,2.4,5.1c1.6,1.1,1.8,2.4,1.2,3.8c-0.2,0.6-0.7,1.2-0.5,1.7c1.1,2.7,2.4,5.4,3.6,8.1
		c0.3,0.6,1,1.6,0.7,1.9c-2.5,2.3-0.6,4.1,1.1,5.9c1.4,1.6,1.5,3.1-0.5,4.7c-0.9,0.7-1.1,2.1-1.1,3.2c0,1.7,1.3,2.2,3.5,1.8
		c1.1-0.2,2.3-0.6,3.4-0.9c0.3,0.4,0.6,0.7,0.5,0.8c-0.2,0.7-0.3,1.4-0.8,2c-3.2,3.5-0.8,7.1-0.4,10.7c0.3,2.5,2,4.8,2.8,7.3
		c1.6,4.9,2.8,9.9,4.4,14.8c0.6,1.8,2,3.4,2.9,5.1c0.6,1.2,1.3,2.3,1.7,3.5c0.5,1.3,0.6,2.7,1.3,4c0.8,1.6,1,2.9-1.4,3.8
		c-1.9,0.8-2,1.9-1.4,3.3c0.3,0.8,0.6,1.6,0.5,2.4c-0.3,2.4,0.7,4.5,2.3,6.6c1.7,2.3,2.7,4.6,2.6,7.3c0,1.1,0.5,2.3,1.2,3.2
		c2.1,2.7,3.1,5,0.2,7.9c-2.3,2.3-2,4.7,0.4,7.4c2,2.3,3.7,5.4,3.3,8c-0.5,3.2,0.3,6.2,0.8,9.2c0.5,3,0.2,6.3,3.5,8.7
		c0.3,0.3,0.2,0.9,0.2,1.4c0.1,2-0.1,4.1,0.2,6.1c0.6,4.7,3.8,9.3,1.9,14.2c-0.1,0.4,0.2,0.9,0.5,1.3c2,2.1,2.2,4.2,0.3,6.5
		c1.7,0.6,3.1,1,5,1.6c-0.6,1-1,2.1-1.8,3c-1.4,1.7-1.8,3.6-1,5.3c0.9,2.1,2.2,4.1,3.7,5.9c1.3,1.6,1.8,3.1,1.8,4.9
		c0.2,4.1,0.5,8.3,0.9,12.4c0.2,2.5,0.6,5,1,7.6c0.3,1.8,0.4,3.7,1.2,5.4c1,2.3,2.5,4.4,3.7,6.7c0.4,0.7,0.8,1.5,0.8,2.3
		c-0.5,4.4,2,8.5,3.7,12.4c2.5,5.5,6,10.9,7.8,16.6c0.7,2.1,1.3,4.3,1.9,6.4c0.5,1.6,0.3,3.4,1.5,4.7c3.5,3.8,2.7,8.5,6,12.3
		c0.5,6.1,4.7,11.3,7.1,17c0.9,2,2.1,3.9,2.4,6c0.7,6.4,4.4,12.2,7.1,18.2c1.8,3.9,4.3,7.7,5.2,11.8c0.9,3.7,2.7,7,4.4,10.5
		c1.3,2.7,3.1,5.3,4.3,8c1.5,3.5,2.7,7.1,4,10.7c0.3,0.9,0.9,1.8,0.9,2.7c-0.1,5.2,3.1,9.6,6.1,14.1c1.4,2,2.1,4,2.6,6.2
		c0.4,1.5,1.4,3,2,4.5c1.6,3.5,3.5,6.9,4.5,10.5c1.8,6.3,3.7,12.5,8.2,18.2c2.3,2.9,5,5.9,3.5,9.7c-0.3,0.7,0,1.8,0.6,2.3
		c4.1,3.7,2.8,8.4,4.8,12.5c1,2.2,2,4.2,3.6,6.3c1.7,2.1,3.5,4.5,3.8,6.9c0.2,1.4,0.2,2.8,1,4.2c1,1.8,1.6,3.7,2.3,5.6
		c0.7,1.8,1,3.6,1.8,5.3c1.5,3,3.6,5.9,3.1,9.3c-0.1,0.9,0.8,2.1,1.7,2.8c2,1.3,1.8,2.7,1.1,4.4c-0.7,1.9-1,3.9-1,5.8
		c0,1.6,0.8,3.2,3.6,3.6c0,1.3,0.1,2.5,0.1,3.8c0,79.6,0,159.2,0,238.8c0,1.2-0.1,2.3-0.1,3.5c-2.4-0.1-2.9-1.6-3.6-2.9
		c-1.6-2.8-3.1-5.6-4.9-8.3c-1.6-2.5-3.8-4.8-5.4-7.3c-1.8-2.8-3.3-5.7-4.9-8.6c-0.2-0.3-0.2-0.7-0.4-1c-4.5-4.3-5.7-9.8-9.5-14.3
		c-4-4.7-5.7-10-9-14.8c-2.3-3.4-5.3-6.5-6.9-10.2c-0.9-2.1-1.9-4.2-3-6.2c-0.9-1.7-2-3.3-3.1-5c-0.2-0.3-0.6-0.6-0.8-0.9
		c-1.6-3.3-3.2-6.7-4.8-10c-0.4-0.8-0.4-1.6-0.9-2.3c-2.3-3.4-4.6-6.8-6.9-10.2c-0.4-0.6-0.9-1.2-1.3-1.9c-2-3.6-4.1-7.2-6-10.8
		c-0.9-1.7-1.4-3.5-2.1-5.2c-0.4-0.9-0.8-1.7-1.4-2.6c-1.3-2-2.5-4-4.1-5.9c-3.5-4.1-4.8-8.7-6.9-13.2c-0.6-1.3-1.9-2.4-2.8-3.6
		c-0.8-1-2-1.9-2.2-3c-1.1-5-3.9-9.5-7.2-13.7c-5.1-6.6-7.4-14.2-12.9-20.7c-3.6-4.2-5.9-8.6-8.3-13.1c-0.1-0.2-0.2-0.4-0.4-0.6
		c-5.9-5.8-8.7-12.7-13.1-19.1c-2.7-3.9-5.6-7.7-8.4-11.5c-0.1-0.1-0.2-0.2-0.2-0.3c0.1-3.8-3.8-6.1-6.2-9c-2.4-3-4.4-6.1-6.4-9.3
		c-2-3.2-3.8-6.6-5.5-9.9c-0.9-1.7-2-3.3-3.8-4.7c-2.4-1.8-4.2-3.9-5-6.5c-0.8-2.4-2.6-4.7-4.1-6.9c-1.4-2-3.6-3.8-3.5-6.3
		c0-0.5-1-1.3-1.7-1.5c-2.5-1-3.1-2.6-3.9-4.5c-2.5-5.8-6.2-11.1-10.8-16.1c-0.7-0.8-1.5-1.5-2-2.3c-2.1-3.5-4.1-7-6.3-10.4
		c-0.9-1.4-1.7-2.9-3.2-3.8c-2.9-1.9-4.2-4.3-5.1-6.9c-0.5-1.5-1.6-3-2.5-4.4c-2.8-4.1-5.7-8.2-8.5-12.3c-0.5-0.7-0.3-1.6-0.7-2.3
		c-0.5-1.2-0.8-2.6-1.8-3.5c-5-4.5-9.2-9.3-11.2-15c-0.7-2-3-3.7-4.6-5.6c-0.7-0.9-1.9-1.7-2.2-2.6c-0.4-1.6-1.2-2.8-2.9-3.8
		c-0.4-0.2-0.8-0.5-0.9-0.8c-1.8-7.1-9.6-12.1-12-19c-0.3-0.8-1.6-1.4-2.1-2.3c-2.6-3.8-5.1-7.7-7.6-11.5c-0.5-0.8-0.3-1.8-0.8-2.7
		c-0.5-1-1.1-2.2-2.2-2.9c-3.6-2.1-5.6-4.5-5.5-8c0-1.2-0.7-2.5-1.6-3.5c-3-3.8-6.4-7.4-9.2-11.2c-1.4-1.9-2.2-4.1-3-6.2
		c-1.5-4.1-5.7-7.1-7.6-11c-1.4-2.8-2.6-5.7-4.4-8.4c-1.9-2.8-4.1-5.4-6.6-7.9c-1.9-1.9-2.9-3.8-2.8-6.1c0.1-1.8-0.6-3.4-2.3-4.8
		c-0.9-0.8-1.6-1.7-2.3-2.6c-0.5-0.6-0.6-1.5-1.3-1.8c-5.7-2.4-5.1-7.1-7.5-10.6c-2.7-4-5.8-7.9-8.7-11.9c-0.7-1-1.5-2-1.7-3.1
		c-0.5-2.5-1.6-4.7-4.3-6.3c-0.4-0.2-0.8-0.4-1-0.7c-3.1-4.4-8.3-7.9-9.6-13c-0.1-0.6-0.3-1.2-0.8-1.6c-5.4-4.6-7.8-10.5-12.2-15.6
		c-2.6-3.1-3.9-6.7-5.7-10.1c-0.4-0.7-0.5-1.8-1.3-2.2c-5.1-2.9-4.9-7.6-8-11.2c-1.7-1.9-3.2-3.9-4.7-5.9c-0.9-1.3-1.7-2.7-2.4-4.1
		c-1.1-1.9-2.2-3.7-5.7-3.5c-3-2-3.2-5-4.5-7.5c-2.6-5.3-4.9-10.7-7.4-16.1c-2.5-5.5-4.9-11-7.3-16.4c-1.7-3.7-3.3-7.5-5.1-11.2
		c-2.6-5.5-5.3-10.9-7.8-16.3c-2.2-4.8-4.2-9.7-6.4-14.5c-2.5-5.5-5.1-10.9-7.7-16.4c-2.5-5.2-4.9-10.5-7.3-15.7
		c-2.4-5.2-4.8-10.5-7.2-15.7c-2.8-6.1-5.5-12.3-8.3-18.4c-1.9-4.2-3.7-8.3-5.7-12.5c-3.9-8.3-7.8-16.6-11.6-24.9
		c-2.6-5.6-4.9-11.2-7.5-16.8c-3.2-6.9-6.5-13.7-9.7-20.6C653,28.4,648,17,642.7,5.6C642,4,640.8,2.5,641,0.7z"/>
	<path class="st0" d="M1150.7,601.9c-2.8-0.3-3.6-1.9-3.6-3.6c0-1.9,0.3-3.9,1-5.8c0.6-1.7,0.8-3-1.1-4.4c-1-0.6-1.8-1.9-1.7-2.8
		c0.5-3.4-1.6-6.3-3.1-9.3c-0.8-1.7-1.2-3.5-1.8-5.3c-0.7-1.9-1.4-3.8-2.3-5.6c-0.7-1.4-0.8-2.8-1-4.2c-0.3-2.4-2.1-4.8-3.8-6.9
		c-1.6-2-2.6-4.1-3.6-6.3c-2-4.1-0.7-8.8-4.8-12.5c-0.6-0.5-0.9-1.6-0.6-2.3c1.6-3.8-1.2-6.8-3.5-9.7c-4.5-5.7-6.5-11.9-8.2-18.2
		c-1-3.6-3-7-4.5-10.5c-0.7-1.5-1.6-3-2-4.5c-0.5-2.2-1.2-4.2-2.6-6.2c-3-4.4-6.2-8.9-6.1-14.1c0-0.9-0.6-1.8-0.9-2.7
		c-1.3-3.6-2.4-7.2-4-10.7c-1.2-2.7-3-5.3-4.3-8c-1.7-3.4-3.5-6.8-4.4-10.5c-1-4-3.4-7.8-5.2-11.8c-2.7-6-6.4-11.8-7.1-18.2
		c-0.2-2-1.5-4-2.4-6c-2.4-5.6-6.6-10.9-7.1-17c-3.3-3.7-2.5-8.5-6-12.3c-1.1-1.2-1-3.1-1.5-4.7c-0.6-2.1-1.2-4.3-1.9-6.4
		c-1.8-5.7-5.3-11.1-7.8-16.6c-1.8-3.9-4.2-8-3.7-12.4c0.1-0.7-0.4-1.6-0.8-2.3c-1.2-2.2-2.8-4.4-3.7-6.7c-0.7-1.7-0.9-3.6-1.2-5.4
		c-0.4-2.5-0.7-5-1-7.6c-0.4-4.1-0.7-8.3-0.9-12.4c-0.1-1.8-0.5-3.3-1.8-4.9c-1.5-1.8-2.8-3.9-3.7-5.9c-0.8-1.8-0.4-3.6,1-5.3
		c0.8-0.9,1.2-2,1.8-3c-1.9-0.6-3.3-1.1-5-1.6c1.9-2.3,1.7-4.5-0.3-6.5c-0.3-0.4-0.7-0.9-0.5-1.3c1.9-4.9-1.3-9.5-1.9-14.2
		c-0.3-2-0.1-4.1-0.2-6.1c0-0.5,0.1-1.1-0.2-1.4c-3.3-2.5-3-5.8-3.5-8.7c-0.5-3-1.3-6-0.8-9.2c0.4-2.6-1.2-5.7-3.3-8
		c-2.4-2.7-2.6-5.1-0.4-7.4c2.9-2.9,1.9-5.3-0.2-7.9c-0.7-0.9-1.3-2.1-1.2-3.2c0.1-2.6-0.9-5-2.6-7.3c-1.6-2.1-2.6-4.2-2.3-6.6
		c0.1-0.8-0.2-1.6-0.5-2.4c-0.6-1.4-0.5-2.5,1.4-3.3c2.4-0.9,2.2-2.2,1.4-3.8c-0.7-1.3-0.8-2.7-1.3-4c-0.5-1.2-1.1-2.4-1.7-3.5
		c-0.9-1.7-2.3-3.3-2.9-5.1c-1.6-4.9-2.9-9.9-4.4-14.8c-0.8-2.5-2.6-4.8-2.8-7.3c-0.4-3.5-2.7-7.2,0.4-10.7c0.5-0.5,0.6-1.3,0.8-2
		c0.1-0.2-0.2-0.4-0.5-0.8c-1.1,0.3-2.2,0.6-3.4,0.9c-2.2,0.5-3.5-0.1-3.5-1.8c0-1.1,0.2-2.5,1.1-3.2c2-1.6,1.9-3.1,0.5-4.7
		c-1.6-1.9-3.6-3.6-1.1-5.9c0.3-0.3-0.4-1.2-0.7-1.9c-1.2-2.7-2.5-5.4-3.6-8.1c-0.2-0.5,0.3-1.1,0.5-1.7c0.5-1.4,0.3-2.7-1.2-3.8
		c-2-1.4-2.4-3.2-2.4-5.1c0-1.1-0.5-2.3-1.1-3.3c-1-1.8-2.5-3.5-3.5-5.3c-1.3-2.2-2.3-4.5-5-6.2c-0.9-0.6-1.5-1.5-1.9-2.4
		c-1.5-3.2-3.9-6.2-5.1-9.6c-0.9-2.7-2.8-5.5-5.3-7.7c-3.6-3.2-4.8-7-7-10.5c-1.2-1.9-2.8-3.6-3.9-5.5c-3.2-5.3-8.7-9.7-10.5-15.4
		c-0.3-1.1-1.4-2.1-2.5-2.9c-3.9-3.2-5-7.1-5.9-11.1c-1.2-5-2.7-9.9-7.9-13.7c-1.1-0.8-1.7-1.9-2.6-2.8c1.3,0,2.5-0.1,3.8-0.1
		c73.6,0,147.2,0,220.9,0c1.3,0,2.5,0,3.8,0.1c0,24.4,0.1,48.9,0.1,73.3c0,174.3,0,348.7,0,523
		C1150.8,598.7,1150.7,600.3,1150.7,601.9z"/>
	<path class="st5" d="M612.8,0.4c-26.6-0.1-66.6-0.1-101.4-0.1C381.7,282.7,247.8,571.6,115.5,863c176.1,0.7,317.8-1,497.3,1h-73.6
		c179.5-2,321.2-0.3,497.3-1C904.2,571.6,770.3,282.7,640.6,0.3c-34.8,0-74.8,0-101.4,0.1"/>
	<path class="st0" d="M116,863.3c1.1-2.9,2-5.8,3.2-8.7c3.3-7.5,6.8-14.9,10.3-22.3c3.2-7,6.4-13.9,9.6-20.9
		c4.8-10.6,9.6-21.2,14.6-31.8c5.4-11.6,11.1-23.1,16.5-34.7c4-8.6,7.7-17.3,11.7-26c4.3-9.4,8.8-18.8,13.1-28.1
		c2.4-5.2,4.6-10.5,7-15.8c3-6.7,6.1-13.4,9.2-20c4.6-9.9,9.4-19.9,13.9-29.8c2.8-6,5.3-12.1,8-18.1c4.8-10.5,9.6-21,14.4-31.5
		c3.9-8.4,8-16.8,11.9-25.2c2.5-5.5,4.8-11,7.3-16.5c2.2-4.8,4.7-9.6,6.9-14.4c2.5-5.5,4.8-11,7.3-16.5c2.6-5.6,5.4-11.1,7.9-16.7
		c2.5-5.5,4.8-11,7.3-16.5c2.7-5.8,5.6-11.5,8.3-17.3c4-8.8,7.7-17.6,11.8-26.3c4-8.8,8.3-17.5,12.3-26.2c2.5-5.4,4.7-10.8,7.1-16.1
		c2.5-5.5,5.3-10.9,7.8-16.4c2.5-5.5,4.8-11,7.3-16.5c2.7-5.9,5.6-11.8,8.4-17.7c4.8-10.2,9.6-20.3,14.3-30.5
		c2.2-4.8,4.2-9.7,6.4-14.5c2.5-5.5,5.3-10.9,7.7-16.4c1.4-3.1,2.2-6.2,3.3-9.4c-3.5-0.2-4.6,1.6-5.7,3.5c-0.8,1.4-1.5,2.8-2.4,4.1
		c-1.5,2-3,4-4.7,5.9c-3,3.6-2.9,8.3-8,11.2c-0.8,0.4-0.9,1.5-1.3,2.2c-1.9,3.4-3.1,7-5.7,10.1c-4.3,5.1-6.8,11-12.2,15.6
		c-0.5,0.4-0.6,1.1-0.8,1.6c-1.2,5.1-6.5,8.6-9.6,13c-0.2,0.3-0.7,0.5-1,0.7c-2.8,1.6-3.9,3.8-4.3,6.3c-0.2,1.1-1,2.1-1.7,3.1
		c-2.9,4-6,7.9-8.7,11.9c-2.4,3.6-1.8,8.2-7.5,10.6c-0.7,0.3-0.8,1.2-1.3,1.8c-0.7,0.9-1.4,1.8-2.3,2.6c-1.7,1.4-2.4,2.9-2.3,4.8
		c0.1,2.3-0.9,4.2-2.8,6.1c-2.5,2.5-4.8,5.1-6.6,7.9c-1.8,2.7-3,5.6-4.4,8.4c-1.9,3.9-6.1,6.9-7.6,11c-0.8,2.1-1.5,4.3-3,6.2
		c-2.9,3.8-6.2,7.5-9.2,11.2c-0.8,1.1-1.6,2.4-1.6,3.5c0.1,3.4-1.9,5.9-5.5,8c-1.1,0.6-1.7,1.8-2.2,2.9c-0.4,0.8-0.3,1.9-0.8,2.7
		c-2.4,3.9-5,7.7-7.6,11.5c-0.5,0.8-1.8,1.4-2.1,2.3c-2.4,6.9-10.3,11.9-12,19c-0.1,0.3-0.5,0.6-0.9,0.8c-1.6,1-2.5,2.3-2.9,3.8
		c-0.2,0.9-1.4,1.8-2.2,2.6c-1.6,1.9-3.9,3.6-4.6,5.6c-2,5.7-6.2,10.5-11.2,15c-1,0.9-1.3,2.3-1.8,3.5c-0.3,0.8-0.2,1.6-0.7,2.3
		c-2.8,4.1-5.7,8.2-8.5,12.3c-1,1.4-2,2.9-2.5,4.4c-0.9,2.6-2.2,5-5.1,6.9c-1.5,1-2.3,2.5-3.2,3.8c-2.2,3.4-4.2,7-6.3,10.4
		c-0.5,0.8-1.3,1.6-2,2.3c-4.7,5-8.3,10.4-10.8,16.1c-0.8,1.8-1.3,3.5-3.9,4.5c-0.8,0.3-1.7,1-1.7,1.5c0,2.5-2.1,4.3-3.5,6.3
		c-1.5,2.3-3.3,4.5-4.1,6.9c-0.8,2.6-2.6,4.7-5,6.5c-1.8,1.4-2.9,2.9-3.8,4.7c-1.7,3.3-3.5,6.7-5.5,9.9c-2,3.1-4,6.3-6.4,9.3
		c-2.3,2.9-6.2,5.2-6.2,9c0,0.1-0.1,0.2-0.2,0.3c-2.8,3.8-5.7,7.7-8.4,11.5c-4.5,6.3-7.2,13.3-13.1,19.1c-0.2,0.2-0.3,0.4-0.4,0.6
		c-2.5,4.5-4.8,8.9-8.3,13.1c-5.5,6.4-7.8,14-12.9,20.7c-3.3,4.3-6.1,8.8-7.2,13.7c-0.2,1-1.5,2-2.2,3c-0.9,1.2-2.2,2.3-2.8,3.6
		c-2.1,4.4-3.5,9.1-6.9,13.2c-1.6,1.9-2.8,3.9-4.1,5.9c-0.5,0.8-1,1.7-1.4,2.6c-0.7,1.7-1.2,3.5-2.1,5.2c-1.9,3.6-4,7.2-6,10.8
		c-0.4,0.6-0.8,1.2-1.3,1.9c-2.3,3.4-4.7,6.8-6.9,10.2c-0.5,0.7-0.5,1.5-0.9,2.3c-1.6,3.4-3.2,6.7-4.8,10c-0.2,0.3-0.6,0.6-0.8,0.9
		c-1,1.6-2.2,3.3-3.1,5c-1.1,2-2,4.1-3,6.2c-1.6,3.6-4.6,6.8-6.9,10.2c-3.3,4.8-5,10.1-9,14.8c-3.8,4.5-5,10-9.5,14.3
		c-0.3,0.3-0.2,0.7-0.4,1c-1.6,2.9-3.1,5.8-4.9,8.6c-1.6,2.5-3.8,4.8-5.4,7.3c-1.8,2.7-3.3,5.5-4.9,8.3c-0.7,1.3-1.2,2.7-3.6,2.9
		c0,5.3-0.1,10.7-0.1,16c12.4,0,24.9,0,37.3,0c1.3-0.2,2.7-0.7,4-0.7c17.1,0,34.2-0.1,51.3,0c1.3,0,2.6,0.4,4,0.7
		c5.7,0,11.5,0,17.2,0C115.3,863.8,115.7,863.5,116,863.3z"/>
	<path class="st1" d="M1.2,864c0-5.3,0.1-10.7,0.1-16c0-1.2-0.1-2.3-0.1-3.5c0-79.6,0-159.2,0-238.8c0-1.3,0.1-2.5,0.1-3.8
		c0-1.6-0.1-3.2-0.1-4.9c0-174.3,0-348.7,0-523c0-24.4,0.1-48.9,0.1-73.3c0-0.2,0-0.5-0.1-0.7C0.9,0.1,0.3,0.2,0.3,0.3
		c-0.1,0.9,0,1.9,0,2.8c0,285.9,0,571.8,0.1,857.7C0.3,861.9-0.8,863.2,1.2,864z"/>
	<path class="st2" d="M1.2,0c0,0.2,0,0.5,0.1,0.7c1.3,0,2.5-0.1,3.8-0.1c73.6,0,147.2,0,220.9,0c1.3,0,2.5,0,3.8,0.1
		c20.7,0,41.4-0.1,62.1-0.1c73,0,146.1,0,219.1,0c0.3,0,0.6-0.1,1-0.1c0-0.2,0-0.4,0-0.6C341.7,0,171.4,0,1.2,0z"/>
	<path class="st3" d="M97.8,864c-1.3-0.2-2.6-0.7-4-0.7c-17.1,0-34.2,0-51.3,0c-1.3,0-2.7,0.4-4,0.7C58.3,864,78,864,97.8,864z"/>
	<path class="st4" d="M511,0.7c-73,0-146.1,0-219.1,0c-20.7,0-41.4,0-62.1,0.1c-0.8,0.9-1.5,2-2.6,2.8c-5.2,3.8-6.7,8.7-7.9,13.7
		c-1,4-2.1,7.9-5.9,11.1c-1,0.8-2.1,1.9-2.5,2.9c-1.8,5.8-7.3,10.2-10.5,15.4c-1.1,1.9-2.7,3.6-3.9,5.5c-2.3,3.5-3.4,7.3-7,10.5
		c-2.5,2.2-4.4,4.9-5.3,7.7c-1.1,3.4-3.5,6.3-5.1,9.6c-0.4,0.9-1,1.8-1.9,2.4c-2.7,1.7-3.6,4-5,6.2c-1.1,1.8-2.5,3.5-3.5,5.3
		c-0.6,1-1,2.2-1.1,3.3c0,1.9-0.4,3.7-2.4,5.1c-1.6,1.1-1.8,2.4-1.2,3.8c0.2,0.6,0.7,1.2,0.5,1.7c-1.1,2.7-2.4,5.4-3.6,8.1
		c-0.3,0.6-1,1.6-0.7,1.9c2.5,2.3,0.6,4.1-1.1,5.9c-1.4,1.6-1.5,3.1,0.5,4.7c0.9,0.7,1.1,2.1,1.1,3.2c0,1.7-1.3,2.2-3.5,1.8
		c-1.1-0.2-2.3-0.6-3.4-0.9c-0.3,0.4-0.6,0.7-0.5,0.8c0.2,0.7,0.3,1.4,0.8,2c3.2,3.5,0.8,7.1,0.4,10.7c-0.3,2.5-2,4.8-2.8,7.3
		c-1.6,4.9-2.8,9.9-4.4,14.8c-0.6,1.8-2,3.4-2.9,5.1c-0.6,1.2-1.3,2.3-1.7,3.5c-0.5,1.3-0.6,2.7-1.3,4c-0.8,1.6-1,2.9,1.4,3.8
		c1.9,0.8,2,1.9,1.4,3.3c-0.3,0.8-0.6,1.6-0.5,2.4c0.3,2.4-0.7,4.5-2.3,6.6c-1.7,2.3-2.7,4.6-2.6,7.3c0,1.1-0.5,2.3-1.2,3.2
		c-2.1,2.7-3.1,5-0.2,7.9c2.3,2.3,2,4.7-0.4,7.4c-2,2.3-3.7,5.4-3.3,8c0.5,3.2-0.3,6.2-0.8,9.2c-0.5,3-0.2,6.3-3.5,8.7
		c-0.3,0.3-0.2,0.9-0.2,1.4c-0.1,2,0.1,4.1-0.2,6.1c-0.6,4.7-3.8,9.3-1.9,14.2c0.1,0.4-0.2,0.9-0.5,1.3c-2,2.1-2.2,4.2-0.3,6.5
		c-1.7,0.6-3.1,1-5,1.6c0.6,1,1,2.1,1.8,3c1.4,1.7,1.8,3.6,1,5.3c-0.9,2.1-2.2,4.1-3.7,5.9c-1.3,1.6-1.8,3.1-1.8,4.9
		c-0.2,4.1-0.5,8.3-0.9,12.4c-0.2,2.5-0.6,5-1,7.6c-0.3,1.8-0.4,3.7-1.2,5.4c-1,2.3-2.5,4.4-3.7,6.7c-0.4,0.7-0.8,1.5-0.8,2.3
		c0.5,4.4-2,8.5-3.7,12.4c-2.5,5.5-6,10.9-7.8,16.6c-0.7,2.1-1.3,4.3-1.9,6.4c-0.5,1.6-0.3,3.4-1.5,4.7c-3.5,3.8-2.7,8.5-6,12.3
		c-0.5,6.1-4.7,11.3-7.1,17c-0.9,2-2.1,3.9-2.4,6c-0.7,6.4-4.4,12.2-7.1,18.2c-1.8,3.9-4.3,7.7-5.2,11.8c-0.9,3.7-2.7,7-4.4,10.5
		c-1.3,2.7-3.1,5.3-4.3,8c-1.5,3.5-2.7,7.1-4,10.7c-0.3,0.9-0.9,1.8-0.9,2.7c0.1,5.2-3.1,9.6-6.1,14.1c-1.4,2-2.1,4-2.6,6.2
		c-0.4,1.5-1.4,3-2,4.5c-1.6,3.5-3.5,6.9-4.5,10.5c-1.8,6.3-3.7,12.5-8.2,18.2c-2.3,2.9-5,5.9-3.5,9.7c0.3,0.7,0,1.8-0.6,2.3
		c-4.1,3.7-2.8,8.4-4.8,12.5c-1,2.2-2,4.2-3.6,6.3c-1.7,2.1-3.5,4.5-3.8,6.9c-0.2,1.4-0.2,2.8-1,4.2c-1,1.8-1.6,3.7-2.3,5.6
		c-0.7,1.8-1,3.6-1.8,5.3c-1.5,3-3.6,5.9-3.1,9.3c0.1,0.9-0.8,2.1-1.7,2.8c-2,1.3-1.8,2.7-1.1,4.4c0.7,1.9,1,3.9,1,5.8
		c0,1.6-0.8,3.2-3.6,3.6c0,1.3-0.1,2.5-0.1,3.8c0,79.6,0,159.2,0,238.8c0,1.2,0.1,2.3,0.1,3.5c2.4-0.1,2.9-1.6,3.6-2.9
		c1.6-2.8,3.1-5.6,4.9-8.3c1.6-2.5,3.8-4.8,5.4-7.3c1.8-2.8,3.3-5.7,4.9-8.6c0.2-0.3,0.2-0.7,0.4-1c4.5-4.3,5.7-9.8,9.5-14.3
		c4-4.7,5.7-10,9-14.8c2.3-3.4,5.3-6.5,6.9-10.2c0.9-2.1,1.9-4.2,3-6.2c0.9-1.7,2-3.3,3.1-5c0.2-0.3,0.6-0.6,0.8-0.9
		c1.6-3.3,3.2-6.7,4.8-10c0.4-0.8,0.4-1.6,0.9-2.3c2.3-3.4,4.6-6.8,6.9-10.2c0.4-0.6,0.9-1.2,1.3-1.9c2-3.6,4.1-7.2,6-10.8
		c0.9-1.7,1.4-3.5,2.1-5.2c0.4-0.9,0.8-1.7,1.4-2.6c1.3-2,2.5-4,4.1-5.9c3.5-4.1,4.8-8.7,6.9-13.2c0.6-1.3,1.9-2.4,2.8-3.6
		c0.8-1,2-1.9,2.2-3c1.1-5,3.9-9.5,7.2-13.7c5.1-6.6,7.4-14.2,12.9-20.7c3.6-4.2,5.9-8.6,8.3-13.1c0.1-0.2,0.2-0.4,0.4-0.6
		c5.9-5.8,8.7-12.7,13.1-19.1c2.7-3.9,5.6-7.7,8.4-11.5c0.1-0.1,0.2-0.2,0.2-0.3c-0.1-3.8,3.8-6.1,6.2-9c2.4-3,4.4-6.1,6.4-9.3
		c2-3.2,3.8-6.6,5.5-9.9c0.9-1.7,2-3.3,3.8-4.7c2.4-1.8,4.2-3.9,5-6.5c0.8-2.4,2.6-4.7,4.1-6.9c1.4-2,3.6-3.8,3.5-6.3
		c0-0.5,1-1.3,1.7-1.5c2.5-1,3.1-2.6,3.9-4.5c2.5-5.8,6.2-11.1,10.8-16.1c0.7-0.8,1.5-1.5,2-2.3c2.1-3.5,4.1-7,6.3-10.4
		c0.9-1.4,1.7-2.9,3.2-3.8c2.9-1.9,4.2-4.3,5.1-6.9c0.5-1.5,1.6-3,2.5-4.4c2.8-4.1,5.7-8.2,8.5-12.3c0.5-0.7,0.3-1.6,0.7-2.3
		c0.5-1.2,0.8-2.6,1.8-3.5c5-4.5,9.2-9.3,11.2-15c0.7-2,3-3.7,4.6-5.6c0.7-0.9,1.9-1.7,2.2-2.6c0.4-1.6,1.2-2.8,2.9-3.8
		c0.4-0.2,0.8-0.5,0.9-0.8c1.8-7.1,9.6-12.1,12-19c0.3-0.8,1.6-1.4,2.1-2.3c2.6-3.8,5.1-7.7,7.6-11.5c0.5-0.8,0.3-1.8,0.8-2.7
		c0.5-1,1.1-2.2,2.2-2.9c3.6-2.1,5.6-4.5,5.5-8c0-1.2,0.7-2.5,1.6-3.5c3-3.8,6.4-7.4,9.2-11.2c1.4-1.9,2.2-4.1,3-6.2
		c1.5-4.1,5.7-7.1,7.6-11c1.4-2.8,2.6-5.7,4.4-8.4c1.9-2.8,4.1-5.4,6.6-7.9c1.9-1.9,2.9-3.8,2.8-6.1c-0.1-1.8,0.6-3.4,2.3-4.8
		c0.9-0.8,1.6-1.7,2.3-2.6c0.5-0.6,0.6-1.5,1.3-1.8c5.7-2.4,5.1-7.1,7.5-10.6c2.7-4,5.8-7.9,8.7-11.9c0.7-1,1.5-2,1.7-3.1
		c0.5-2.5,1.6-4.7,4.3-6.3c0.4-0.2,0.8-0.4,1-0.7c3.1-4.4,8.3-7.9,9.6-13c0.1-0.6,0.3-1.2,0.8-1.6c5.4-4.6,7.8-10.5,12.2-15.6
		c2.6-3.1,3.9-6.7,5.7-10.1c0.4-0.7,0.5-1.8,1.3-2.2c5.1-2.9,4.9-7.6,8-11.2c1.7-1.9,3.2-3.9,4.7-5.9c0.9-1.3,1.7-2.7,2.4-4.1
		c1.1-1.9,2.2-3.7,5.7-3.5c3-2,3.2-5,4.5-7.5c2.6-5.3,4.9-10.7,7.4-16.1c2.5-5.5,4.9-11,7.3-16.4c1.7-3.7,3.3-7.5,5.1-11.2
		c2.6-5.5,5.3-10.9,7.8-16.3c2.2-4.8,4.2-9.7,6.4-14.5c2.5-5.5,5.1-10.9,7.7-16.4c2.5-5.2,4.9-10.5,7.3-15.7
		c2.4-5.2,4.8-10.5,7.2-15.7c2.8-6.1,5.5-12.3,8.3-18.4c1.9-4.2,3.7-8.3,5.7-12.5c3.9-8.3,7.8-16.6,11.6-24.9
		c2.6-5.6,4.9-11.2,7.5-16.8c3.2-6.9,6.5-13.7,9.7-20.6C499,28.4,504,17,509.3,5.6C510,4,511.2,2.5,511,0.7z"/>
	<path class="st0" d="M1.3,601.9c2.8-0.3,3.6-1.9,3.6-3.6c0-1.9-0.3-3.9-1-5.8c-0.6-1.7-0.8-3,1.1-4.4c1-0.6,1.8-1.9,1.7-2.8
		c-0.5-3.4,1.6-6.3,3.1-9.3c0.8-1.7,1.2-3.5,1.8-5.3c0.7-1.9,1.4-3.8,2.3-5.6c0.7-1.4,0.8-2.8,1-4.2c0.3-2.4,2.1-4.8,3.8-6.9
		c1.6-2,2.6-4.1,3.6-6.3c2-4.1,0.7-8.8,4.8-12.5c0.6-0.5,0.9-1.6,0.6-2.3c-1.6-3.8,1.2-6.8,3.5-9.7c4.5-5.7,6.5-11.9,8.2-18.2
		c1-3.6,3-7,4.5-10.5c0.7-1.5,1.6-3,2-4.5c0.5-2.2,1.2-4.2,2.6-6.2c3-4.4,6.2-8.9,6.1-14.1c0-0.9,0.6-1.8,0.9-2.7
		c1.3-3.6,2.4-7.2,4-10.7c1.2-2.7,3-5.3,4.3-8c1.7-3.4,3.5-6.8,4.4-10.5c1-4,3.4-7.8,5.2-11.8c2.7-6,6.4-11.8,7.1-18.2
		c0.2-2,1.5-4,2.4-6c2.4-5.6,6.6-10.9,7.1-17c3.3-3.7,2.5-8.5,6-12.3c1.1-1.2,1-3.1,1.5-4.7c0.6-2.1,1.2-4.3,1.9-6.4
		c1.8-5.7,5.3-11.1,7.8-16.6c1.8-3.9,4.2-8,3.7-12.4c-0.1-0.7,0.4-1.6,0.8-2.3c1.2-2.2,2.8-4.4,3.7-6.7c0.7-1.7,0.9-3.6,1.2-5.4
		c0.4-2.5,0.7-5,1-7.6c0.4-4.1,0.7-8.3,0.9-12.4c0.1-1.8,0.5-3.3,1.8-4.9c1.5-1.8,2.8-3.9,3.7-5.9c0.8-1.8,0.4-3.6-1-5.3
		c-0.8-0.9-1.2-2-1.8-3c1.9-0.6,3.3-1.1,5-1.6c-1.9-2.3-1.7-4.5,0.3-6.5c0.3-0.4,0.7-0.9,0.5-1.3c-1.9-4.9,1.3-9.5,1.9-14.2
		c0.3-2,0.1-4.1,0.2-6.1c0-0.5-0.1-1.1,0.2-1.4c3.3-2.5,3-5.8,3.5-8.7c0.5-3,1.3-6,0.8-9.2c-0.4-2.6,1.2-5.7,3.3-8
		c2.4-2.7,2.6-5.1,0.4-7.4c-2.9-2.9-1.9-5.3,0.2-7.9c0.7-0.9,1.3-2.1,1.2-3.2c-0.1-2.6,0.9-5,2.6-7.3c1.6-2.1,2.6-4.2,2.3-6.6
		c-0.1-0.8,0.2-1.6,0.5-2.4c0.6-1.4,0.5-2.5-1.4-3.3c-2.4-0.9-2.2-2.2-1.4-3.8c0.7-1.3,0.8-2.7,1.3-4c0.5-1.2,1.1-2.4,1.7-3.5
		c0.9-1.7,2.3-3.3,2.9-5.1c1.6-4.9,2.9-9.9,4.4-14.8c0.8-2.5,2.6-4.8,2.8-7.3c0.4-3.5,2.7-7.2-0.4-10.7c-0.5-0.5-0.6-1.3-0.8-2
		c-0.1-0.2,0.2-0.4,0.5-0.8c1.1,0.3,2.2,0.6,3.4,0.9c2.2,0.5,3.5-0.1,3.5-1.8c0-1.1-0.2-2.5-1.1-3.2c-2-1.6-1.9-3.1-0.5-4.7
		c1.6-1.9,3.6-3.6,1.1-5.9c-0.3-0.3,0.4-1.2,0.7-1.9c1.2-2.7,2.5-5.4,3.6-8.1c0.2-0.5-0.3-1.1-0.5-1.7c-0.5-1.4-0.3-2.7,1.2-3.8
		c2-1.4,2.4-3.2,2.4-5.1c0-1.1,0.5-2.3,1.1-3.3c1-1.8,2.5-3.5,3.5-5.3c1.3-2.2,2.3-4.5,5-6.2c0.9-0.6,1.5-1.5,1.9-2.4
		c1.5-3.2,3.9-6.2,5.1-9.6c0.9-2.7,2.8-5.5,5.3-7.7c3.6-3.2,4.8-7,7-10.5c1.2-1.9,2.8-3.6,3.9-5.5c3.2-5.3,8.7-9.7,10.5-15.4
		c0.3-1.1,1.4-2.1,2.5-2.9c3.9-3.2,5-7.1,5.9-11.1c1.2-5,2.7-9.9,7.9-13.7c1.1-0.8,1.7-1.9,2.6-2.8c-1.3,0-2.5-0.1-3.8-0.1
		c-73.6,0-147.2,0-220.9,0c-1.3,0-2.5,0-3.8,0.1c0,24.4-0.1,48.9-0.1,73.3c0,174.3,0,348.7,0,523C1.2,598.7,1.3,600.3,1.3,601.9z"/>
</g>
<g>
	<path class="st6" d="M272.6,818.2c-0.3-0.1-0.5-0.1-0.8-0.2c-3.5-1.5-6.8-3.5-9.6-6.1c-5.7-5.3-7-13.4-2.5-19.9
		c3-4.2,6.7-7.3,12-8.1c0,1.3,0,2.5-0.1,3.8c-4.9,1.2-7.9,4.6-9.7,9c-1.3,3.1-1,6.4,0.9,9.5c2.1,3.5,5.2,5.8,8.7,7.6
		c0.3,0.1,0.5,0.2,0.8,0.2c5.5,2.2,10.9,2.3,16-1.2c3.9-2.7,6.8-6.2,9.6-10c3.3-4.4,3.2-9,1.5-13.6c-1.5-4.1-4-7.7-7.3-10.6
		c-6.1-5.2-12.6-9.6-19.8-13.2c-0.2-0.1-0.5-0.2-0.7-0.3c-4.7-2.4-9.4-5-14.2-7.1c-2.7-1.1-5.7-1.5-8.7-2
		c-10.6-1.8-21.4-1.7-32.1-1.6c-13.7,0.1-27.4,1.5-40.9,3.4c-3.9,0.5-7.7,1-11.6,1.6c-5.6,1-11.2,2-16.8,3.1c-1,0.2-2,0.6-3,0.9
		c-3.2,0.7-6.4,1.4-9.6,2.1c-4.2,1.1-8.5,2.1-12.6,3.3c-5,1.5-10,3-14.8,5c-5.4,2.2-10.7,4.7-15.8,7.5c-3,1.7-5.5,4.3-8.4,6.2
		c-1.4,0.9-2.4,2-3.1,3.5c-1.1,2.3-1.6,4.7-3.3,6.7c-0.8,0.9-1,2.3-1.2,3.6c-1.5,9,2.8,15.4,9.6,20.5c6.2,4.6,13.4,5.4,20.7,4.4
		c5.5-0.7,9.9-3.8,12.9-8.5c3.8-6.1,1.1-15.5-3.6-19.2c-0.9-0.7-2-1.4-3.1-1.6c-5-0.9-9.8-0.4-14,2.8c-2.1,1.6-2.9,4.1-1.8,6.5
		c1.4,2.9,3.9,4.7,7,5.7c1.4,0.4,2.3-0.4,2.1-1.9c-0.1-1.2-0.5-2.3-2-2.5c-0.8-0.1-1.5-0.6-2.3-0.9c1.6-3.8,3.9-4.3,6.5-1.6
		c1.9,1.9,2.6,5.3,1.7,7.4c-1,2.3-3.2,3.3-6.5,3c-3.7-0.4-6.4-2.6-8.9-5.2c-3.5-3.8-3.4-9,0.4-12.5c2.6-2.4,5.7-3.9,9.1-4.4
		c4.9-0.7,9.8-1.1,14.2,2.1c2.5,1.8,4.1,4.3,5.5,6.9c0.5,1.5,1.1,3,1.4,4.5c1.8,7.5-1.5,14.4-8.2,18.8c-0.3,0.2-0.6,0.6-0.9,0.9
		c-6.2,3.9-13,4.2-20,3.2c-6.6-0.9-12.6-3.4-17.2-8.3c-4.5-4.8-7.6-10.5-7.6-17.4c0-0.8-0.2-1.7-0.2-2.5c0-0.7,0-1.5,0.2-2.1
		c0.5-1.3,1.1-2.5,1.8-3.7c1.8-3.2,3.7-6.4,5.6-9.6c3.3-5.6,7.9-10,12.5-14.5c3.5-3.4,7.2-6.7,11.1-9.6c6.1-4.5,12.7-8.1,19.6-11.2
		c3.1-1.4,6.2-2.8,9.3-4.2c5.3-2.4,10.7-4.6,16.5-5.9c1.3-0.3,2.4-1.5,3.6-2.3l0.2,0.2c-1.4,1.6,0.2,2.8,1.1,4.2
		c-2.5,0.6-4.7,1-6.8,1.7c-3.8,1.3-7.6,2.6-11.3,4.2c-4.9,2.1-9.8,4.4-14.6,6.8c-3,1.5-5.9,3.4-8.8,5.1c-4,2.3-8.1,4.6-11.3,8.1
		c-0.5,0.5-1.2,0.9-1.8,1.4c-1.9,1.7-4,3.4-5.6,6c0.9,0.1,1.6,0.3,2.1,0.1c3.1-1.3,6.1-2.9,9.2-4.2c4.6-1.8,9.3-3.6,14-5.2
		c4.5-1.5,9.1-2.6,13.7-3.8c5.4-1.4,10.9-2.8,16.3-3.9c5.7-1.2,11.4-2.2,17.1-3.1c5.5-0.9,11-2.1,16.6-2.5c4.5-0.3,9.1-1.4,13.7-0.9
		c2.1-1.8,4.5-0.3,6.7-0.6c1-0.1,2-0.5,3-0.7c0.4-0.1,0.9-0.5,1.2-0.4c2,0.9,4-0.1,5.9-0.1c9.2,0.3,18.5-1.1,27.6,1.1
		c0.4,0.1,1-0.4,1.9-0.8c-1.2-0.5-1.8-0.8-2.5-1c-3.5-1.1-7-2.3-10.6-3.1c-3.3-0.7-6.3-2.5-9.9-2.7c-3.5-0.2-7-1.3-10.6-1.9
		c-3.4-0.5-3.4-0.4-3.5-3.9c4.2,0.8,8.3,1.7,12.5,2.5c9.9,1.8,19.7,4.4,29.1,8c6.3,2.4,12.5,5.3,18.7,8.1c2.5,1.1,5,2.3,7.5,3.5
		c0.2,0.1,0.5,0.2,0.7,0.2c3.6,1.8,7.2,3.6,10.9,5.3c4.2,1.9,7.5,4.8,10.6,8c3.2,3.4,6,7,8.2,11.3c3.4,6.6,3.6,12.8-0.4,19.3
		c-3,4.9-7,8.8-11.8,11.8C284.5,819.8,278.5,819.5,272.6,818.2z"/>
	<path d="M154.9,368.6c-0.5-0.5-0.9-1-1.5-1.4c-0.8-0.6-1.7-1.1-2.5-1.7c0.5-1,1-2.1,1.5-3.1c0.6,0.3,1.1,0.5,1.7,0.8
		c1.1,1.5,2.7,1.6,4.2,1.7c0.3-11,0.6-21.9,1-32.7c0.3-10.7-0.7-21.5,0.6-32.2c0.1-0.4-0.1-0.8-0.1-1.3c-0.2-1.6-0.5-3.1-0.5-4.7
		c0.2-12.5,0.4-25.1,0.6-37.6c0.1-3.7-0.1-7.5,0-11.2c0.1-4.8,0.4-9.5,0.6-14.3c0-0.5,0-1.1-0.1-1.6c-0.2-2.1-0.4-4.2-0.5-6.3
		c-0.1-1,0-2.1,0-3.2c-1.3,0.1-2.2,0.2-3.3,0.3c-0.4-0.8-0.7-1.5-1.1-2.6c-3.3,1.1-6.4,2.4-9.7,3.1c-3.4,0.7-5.7,3-8.4,4.8
		c-0.3,0.2-0.3,0.7-0.5,1.1c-1.2,0.9-2.4,1.7-3.6,2.6c-0.3,0-0.6,0-1,0c-0.7,0-1.4-0.1-2-0.1c0.1-0.8,0.1-1.5,0.2-2.3
		c0.1-0.6,0.3-1.3,0.6-2.4c-1.5,0.6-2.4,0.9-3.4,1.3c-1.3-0.8-2.4-1.7-1.1-3.3c1-1.2,0.5-2.2-0.2-3.2c-0.5-0.8-1.3-1.5-1.7-2.3
		c-0.8-1.5-2-2-3.7-2c-1.1,0-2.1-0.3-3.2-0.5c0.2-1.4,0.3-2.3,0.5-3.2l0,0c1.6,0,3.2,0.1,4.8-0.1c0.9-0.1,1.9-0.3,2.7-0.8
		c8.6-4.8,17.2-9.5,25.8-14.4c8.7-4.9,17.3-9.9,26-14.8c6.1-3.5,12.1-6.9,18.2-10.4c4.5-2.5,9.1-5,13.6-7.5c0.7-0.4,1.6-1.4,1.5-2.1
		c-0.2-2.8,1.4-3.8,3.9-4.1c-0.1-4.9,0.6-9.5,2.6-13.7c1.4-3,2.6-6.1,4.6-8.6c3.2-4.1,7-7.5,11.6-10.2c10.4-6,21.1-7.2,32.4-3.7
		c1.8,0.6,3.7,0.9,5.5,1.4c0,2.8,0.1,5.5,0.1,8.3c-3.1-1.3-6.3-2.4-9.3-3.9c-3.7-1.9-7.2-1.2-10.6,0.7c-3.5,2-3.7,3-2.9,7.1
		c-0.1,0.3-0.1,0.5-0.2,0.8c-4.3-0.9-8.2-0.3-11.5,2.8c-2.6,2.4-3.8,6.8-1.9,9.2c3.9,5,10.4,5.3,14.3-0.1c0.9-1.2,0.8-2.6-0.1-3.9
		c-1.2-1.8-5.4-2.6-7.2-1.4c-1.5,1-1.6,2.7-0.1,3.6c0.6,0.4,1.6,0.2,2.4,0.3c0.1,0.1,0.3,0.2,0.4,0.3c-1.4,1.3-2.8,1.7-4.2,1
		c-1.3-0.7-2-1.8-1.9-3.4c0.2-2.5,2.7-4.7,5.4-4.9c4.1-0.2,7.7,1.3,11.1,3.4c5,3.1,8.8,7.3,12,12.1c0.5,0.8,0.8,1.6,1.2,2.5
		c-3,2.4-6,4.5-9.5,6.1c0.8-4.3-0.1-5.3-3.8-5.4c-1.1,0-2.1,0.1-3.2,0c-2.5-0.2-4.3,0.8-5.6,2.8c-1.2,1.8-1.2,2.6,0,4.2
		c2.6,3.5,6.3,3.6,10.1,3.1c4.4-0.7,8-3.1,11.6-5.7c1.1-0.8,2-1.6,3.4-1.1c0.1,0.6,0.2,1.2,0.3,1.8c-0.1,3.8-0.1,7.7-0.2,11.5
		c-4-3-6.9-3.2-10.4-0.8c-2.6,1.8-3.2,4.4-1.5,7.1c2.6,4.2,6.8,5.9,12,4.6c0,3.2-0.1,6.4-0.1,9.6c-3.6,0.7-7.2,1.3-10.8,2.1
		c-6.5,1.4-12.8,0.1-18.9-1.8c-2.5-0.8-4.2-0.6-6,1c-0.6,0-1.3-0.1-1.9-0.1c0-1.2-0.8-1.6-1.8-2c-0.2-0.1-0.3-0.4-0.5-0.7
		c0.8-0.4,1.6-0.7,2.8-1.3c-0.8-0.8-1.3-1.4-1.9-1.9c-1.5-1.2-3.1-2.2-4.5-3.4c-1.8-1.6-3.5-3.4-5-5.3c-1.8-2.4-3.6-5-4.8-7.8
		c-1.6-4-2.7-8.2-4-12.3c-2.5,0.6-3.1,1.3-2.4,3.8c0.7,2.7,1.6,5.3,2.5,7.9c1.5,3.9,3.7,7.4,6.3,10.6c2.5,3.1,5.2,6.1,8.6,8.3
		c0.4,0.3,0.6,1,1,1.7c-0.7,0.3-1.1,0.6-1.6,0.7c-2.4,0.7-4.9,1.3-7.3,2.1c-7.4,2.4-14.9,5-22.3,7.4c-5.8,1.9-11.7,3.7-17.6,5.5
		c-2.3,0.7-4.2,1.5-3.9,4.5c-1.2,0.4-2.2,0.7-3.2,1c-0.4-1-0.7-1.7-1.1-2.7c-4.3,1.5-8.5,2.9-12.9,4.3c0.1,1,0.2,1.8,0.4,2.7
		c0.9-0.2,1.5-0.3,2.1-0.5c2.8-0.9,5.6-1.9,8.5-2.8c1.7-0.5,2.3-0.1,2.5,1.7c0.1,0.7,0,1.5,0,2.2c0.1,5.6-0.2,11.2,0,16.8
		c0.1,6.8,0.1,13.6,0,20.5c0,2.1,0.5,4.3-1,6.2c-0.2,0.3,0,1,0,1.5c0.1,1.3,0.3,2.5,0.3,3.8c-0.2,17.2-0.4,34.5-0.6,51.7
		c0,2.3,0.1,4.7,0,7c0,1.4-0.5,2.7-0.4,4.1c0.1,3.5,0.5,7,0.4,10.5c-0.1,10.8-0.4,21.7-0.6,32.5c0,0.5-0.2,1-0.3,1.7
		c-4.4-2.5-7.8-6.1-12.1-8.4c-0.7,1.1-1.1,1.8-1.4,2.3C156.8,369.2,155.9,368.9,154.9,368.6z"/>
	<path class="st6" d="M154.9,368.6c1,0.3,2,0.6,3.3,1c0.3-0.5,0.8-1.3,1.4-2.3c4.4,2.3,7.7,5.8,12.1,8.4c0.1-0.8,0.3-1.2,0.3-1.7
		c0.2-10.8,0.5-21.7,0.6-32.5c0-3.5-0.4-7-0.4-10.5c0-1.4,0.4-2.7,0.4-4.1c0.1-2.3,0-4.7,0-7c0.2-17.2,0.4-34.5,0.6-51.7
		c0-1.3-0.2-2.5-0.3-3.8c0-0.5-0.3-1.2,0-1.5c1.5-1.9,1-4.1,1-6.2c0.1-6.8,0.1-13.6,0-20.5c-0.1-5.6,0.1-11.2,0-16.8
		c0-0.7,0.1-1.5,0-2.2c-0.2-1.8-0.8-2.3-2.5-1.7c-2.8,0.9-5.6,1.9-8.5,2.8c-0.6,0.2-1.2,0.3-2.1,0.5c-0.1-0.9-0.2-1.7-0.4-2.7
		c4.3-1.5,8.5-2.9,12.9-4.3c0.4,1,0.7,1.7,1.1,2.7c1-0.3,2-0.6,3.2-1c-0.3-3,1.6-3.8,3.9-4.5c5.9-1.7,11.8-3.6,17.6-5.5
		c7.5-2.4,14.9-5,22.3-7.4c2.4-0.8,4.9-1.4,7.3-2.1c0.5-0.1,0.9-0.4,1.6-0.7c-0.4-0.7-0.6-1.4-1-1.7c-3.4-2.2-6.1-5.2-8.6-8.3
		c-2.6-3.2-4.9-6.7-6.3-10.6c-1-2.6-1.9-5.2-2.5-7.9c-0.6-2.5,0-3.2,2.4-3.8c1.3,4.1,2.3,8.3,4,12.3c1.2,2.8,3,5.3,4.8,7.8
		c1.4,1.9,3.2,3.7,5,5.3c1.4,1.3,3,2.3,4.5,3.4c0.6,0.5,1.1,1.1,1.9,1.9c-1.2,0.5-1.9,0.9-2.8,1.3c0.2,0.3,0.3,0.6,0.5,0.7
		c1,0.3,1.8,0.8,1.8,2c-4.2,1.4-8.5,2.7-12.7,4.1c-13.5,4.3-26.9,8.6-40.4,12.9c-2.9,0.9-2.9,0.9-3,4c-0.1,14-0.1,27.9-0.3,41.9
		c-0.5,39.2-1,78.5-1.5,117.7c0,2.3,0.5,4,2.1,5.7c5.1,5.3,9.2,11.4,12.8,17.9c4.9,8.8,7.9,18.4,9.7,28.3c1.6,9.2,1.6,18.5,0.5,27.7
		c-0.9,8-2.8,15.8-5.7,23.4c-1.6,4-2.9,8.2-4.9,12c-4.3,8.7-9.5,16.8-15.8,24.2c-0.1-1.5-0.3-3-0.4-4.7c-1.3,0.8-2.2,1.3-3.5,2.1
		c0-1.6,0-2.6,0-3.6c0.2-7.7,0.5-15.3,0.6-23c0.1-4.2-0.1-8.3,0.1-12.5c0.2-4.1-0.3-8.2-0.2-12.3c0.6-15.5,0.6-31.1,0.7-46.6
		c0-5.4,0.6-10.9-0.5-16.2c-0.1-0.6,0-1.3,0.1-1.9c0.2-1.5,0.4-2.9,0.5-4.4c0.1-2.7,0-5.3,0-8c0-0.6,0.3-1.3,0.4-2
		c1.1,0.7,2,1.2,2.9,1.7c1.1-2.8,0.1-4.8-1.9-6.4c-0.4-0.3-0.8-0.5-1.3-0.9c-0.2,1-0.4,1.8-0.7,3c-4.5-2.8-7.5-7.4-12.8-9
		c-0.1,0.7-0.2,1.3-0.2,1.8c-0.2,11.8,0.1,23.6-0.5,35.4c-0.4,8.7-0.8,17.4,0.4,26.2c0.3,1.9-0.5,4-0.5,6
		c-0.1,13.3,0.2,26.6-0.6,39.9c-0.3,4.6-0.1,9.2,0,13.8c0.1,2.9,0.4,5.7,0.6,8.6c0.1,1.2,0.3,2.6-0.2,3.4c-1.2,1.9-1,3.9-1,5.9
		c0,4.2,0,8.3,0,12.5c0,1,0.1,2,0.2,3.7c5.7-3.4,9.2-8.2,13.5-12.6c0.3,1.5,0.5,2.5,0.8,3.7c1.3-0.9,2.4-1.7,3.4-2.4
		c0,3.6,0.1,7.2,0.1,10.8c0,8.4,0,16.7,0,25.1c-0.1,1.4-0.2,2.8-0.2,4.1c-0.4,29-0.7,58.1-1.1,87.1c0,2.4,0,4.9,0,7.3
		c-0.2,7.5-0.3,15-0.4,22.5c0,1.9,0.1,3.8,0.1,5.7c-0.1,5.1-0.3,10.1-0.4,15.2c-0.1,6.5-0.2,12.9-0.3,19.4c-1.1-0.3-2.1-0.7-3.2-1
		c-0.3,0.8-0.7,1.5-1.1,2.4c-4.9-2.6-8-7.1-12.6-10.6c-0.3,5.2-0.7,9.7-0.8,14.2c-0.1,5.4,0,10.8,0,16.2c0,0.9-0.1,1.9-0.2,2.8
		c-1.3,0.4-2.4,0.7-3.5,1l-0.2-0.2c0.1-12.6,0.3-25.2,0.4-37.7c0-1-0.3-2.2-0.8-3c-5.3-7.4-9.6-15.3-13.5-23.4
		c-3.1-6.4-5.8-13-7.5-19.8c-1.7-6.5-3.1-13.2-4.6-19.7c-0.1-0.4-0.3-0.8-0.4-1.2c-2.2-12-2.9-24.1-2.7-36.2
		c0.2-10.9,1.8-21.7,5.1-32.1c2.7-8.6,6.7-16.6,12.8-23.2c1.8-2,4.2-3.5,6.3-5.3c0.3,2.4,0.3,2.4,2.8,2.7c-3.7,2.3-6.5,5.4-9,8.8
		c-4.6,6.2-7.5,13.3-9.5,20.7c-2.4,8.9-3.9,18.1-4.1,27.4c-0.3,13.8,0.4,27.6,3.8,41.1c1.2,5.2,2.1,10.5,3.8,15.5
		c2.5,7.3,5.4,14.5,8.5,21.6c2.3,5.1,5.2,10,7.8,14.9c0.3,0.6,0.5,1.1,0.8,1.7c0.3-0.2,0.6-0.4,0.9-0.6c0-0.7,0-1.4,0-2.1
		c0.3-28.7,0.5-57.3,0.8-86c0-1-0.1-1.9-0.1-2.9c0.5-6.9,0.1-13.8,0.3-20.8c0.3-13,0.3-26,0.4-39c0-0.9-0.4-1.8-0.6-2.7
		c1-1.7,2.8-0.6,3.9-1.3c2,2.3,0.6,4.7,0.6,6.9c-0.2,12.3,0.4,24.7-0.6,37c-0.4,5.3,0.1,10.7-0.1,16c-0.3,5.3,0.5,10.5,0.2,15.8
		c-0.7,14.3-0.7,28.7-0.7,43.1c0,7-0.7,14,0.5,21c0.1,0.5-0.1,1-0.2,1.6c-0.1,1.3-0.4,2.5-0.4,3.8c-0.1,4.3,0,8.5,0,12.8
		c0,0.7-0.2,1.3-0.4,2.4c-1.1-1-2-1.7-2.9-2.4c-1.1,4.2-0.3,6.5,3,8.9c0.2-1.1,0.4-2.1,0.8-3.6c4.1,4.3,7.5,8.7,12.7,12.3
		c0.1-1.8,0.2-2.8,0.2-3.8c0.2-3.5-0.3-6.9-0.2-10.4c0.6-11.9-0.2-23.8,0.7-35.7c0.4-5.2,0-10.4,0.1-15.7c0.1-5.2-0.2-10.3-0.1-15.5
		c0.3-17.7,0.4-35.3,0.7-53c0.1-4.7-1-9.4,0.6-14c0-0.1,0-0.2,0-0.3c0-9.2,0.1-18.3-0.1-27.5c0-1.8-0.1-3.5,0-5.3
		c0.2-3,0.5-6.1-0.4-9.7c-1.1,0.8-2,1.3-2.7,2c-2.7,2.6-5.3,5.3-7.9,7.9c-0.5,0.5-1.1,0.8-1.9,1.4c-0.4-1.2-0.6-2.1-0.9-3.1
		c-1.5,0.9-2.7,1.7-3.9,2.5c0.1-16.2,0.3-32.4,0.5-48.6c0.4-36.8,0.9-73.7,1.3-110.5C154.7,370.9,154.8,369.8,154.9,368.6z
		 M176.1,386.2c-0.2,20.3-0.5,40.1-0.6,59.8c-0.2,20.3-0.2,40.7-0.3,61c0,0.1,0.1,0.2,0.2,0.2c0.1,0,0.2,0.1,0.5,0.1
		c0.9-1.3,2-2.6,2.9-4.1c2.6-4.5,5.2-9,7.7-13.5c3.7-6.7,6.1-14,8-21.4c1-4.1,1.5-8.4,2.2-12.6c2.3-12.9,0.6-25.5-2.9-37.9
		c-3.1-11.2-8.7-21.2-15.9-30.3C177.4,387.2,176.9,386.9,176.1,386.2z"/>
	<path d="M152.9,531.2c1.2-0.8,2.4-1.6,3.9-2.5c0.3,1,0.6,1.9,0.9,3.1c0.7-0.6,1.4-0.9,1.9-1.4c2.7-2.6,5.3-5.3,7.9-7.9
		c0.7-0.7,1.6-1.2,2.7-2c0.9,3.6,0.6,6.7,0.4,9.7c-0.1,1.8,0,3.5,0,5.3c0.1,9.2,0.1,18.3,0.1,27.5c0,0.1,0,0.2,0,0.3
		c-1.6,4.6-0.5,9.4-0.6,14c-0.3,17.7-0.4,35.3-0.7,53c-0.1,5.2,0.2,10.4,0.1,15.5c-0.1,5.2,0.3,10.5-0.1,15.7
		c-0.9,11.9-0.1,23.8-0.7,35.7c-0.2,3.5,0.3,6.9,0.2,10.4c-0.1,1-0.1,2-0.2,3.8c-5.2-3.5-8.6-8-12.7-12.3c-0.3,1.5-0.5,2.5-0.8,3.6
		c-3.4-2.4-4.2-4.7-3-8.9c0.9,0.8,1.7,1.5,2.9,2.4c0.2-1,0.4-1.7,0.4-2.4c0-4.3,0-8.5,0-12.8c0-1.3,0.3-2.5,0.4-3.8
		c0.1-0.5,0.3-1.1,0.2-1.6c-1.3-7-0.5-14-0.5-21c0-14.4,0.1-28.7,0.7-43.1c0.3-5.3-0.5-10.6-0.2-15.8c0.3-5.3-0.3-10.7,0.1-16
		c1-12.3,0.4-24.7,0.6-37c0-2.3,1.4-4.6-0.6-6.9c-1.1,0.6-2.9-0.4-3.9,1.3c-1.2,0.8-2.5,1.5-3.7,2.3c-2.4-0.3-2.4-0.3-2.8-2.7
		c1.2-0.8,2.5-1.7,3.7-2.5c1.6-0.2,3.3-0.5,3.3-2.7C152.7,531.4,152.8,531.3,152.9,531.2z"/>
	<path class="st6" d="M152.4,362.3c-0.5,1-1,2.1-1.5,3.1c-6.8-3.8-12.9-8.5-18.7-13.6c-5.4-4.8-10.3-10.1-14.7-15.9
		c-5-6.7-9.2-13.8-12.4-21.5c-2.6-6.3-4.3-12.9-5.8-19.5c-0.3-4.4-0.7-8.7-0.7-13.1c-0.2-9.3,1.4-18.3,4.7-26.9
		c2.8-7.3,6.4-14.2,11.4-20.2c3.3-3.9,6.7-7.6,10.3-11.7c-1.9-2.4-4-5-6.3-7.5c-0.5-0.5-1.8-0.5-2.7-0.4c-5,0.1-9.8-0.9-14.3-2.9
		c-4.7-2.1-7.1-6.6-6.1-11.1c0.9-4.3,2.6-8.1,6.4-10.6c4.9-3.2,12.9-1.2,15.6,4c1.1,2.1,1,4.3-0.5,6.3c-3,4.3-9.2,5.2-12.5,1.8
		c-1.6-1.7-1.5-3.4,0.3-4.9c1.3-1.1,2.8-0.8,4.3-0.7c1.9,0.2,2.2,1.6,2.3,3.2c1.8-0.7,2.5-1.8,2.2-3.3c-0.3-1.6-1.2-3-2.8-3.7
		c-3.7-1.6-7.3-0.3-9.1,3.4c-0.9,1.8-1.7,3.7-2.1,5.6c-0.6,3,1.1,5.3,3.6,6.5c4.7,2.2,9.6,3.4,14.9,2.3c-0.1,0.9-0.3,1.9-0.5,3.2
		c1.1,0.2,2.1,0.6,3.2,0.5c1.7,0,2.8,0.5,3.7,2c0.5,0.8,1.2,1.5,1.7,2.3c0.6,1,1.1,2,0.2,3.2c-1.3,1.6-0.2,2.5,1.1,3.3
		c1-0.4,1.9-0.7,3.4-1.3c-0.3,1.1-0.5,1.8-0.6,2.4c-0.1,0.8-0.2,1.5-0.2,2.3c0.7,0,1.4,0.1,2,0.1c0.3,0,0.6,0,1,0
		c-0.6,1.7-1.5,3.3-1.9,5.1c-0.9,4.6,2.7,9.4,6.7,9c5.6-0.5,8.4-4.6,7.1-10.2c-0.3-1.4-1.4-1.9-2.6-1c-0.7,0.4-1.1,1.2-1.7,1.8
		c1,1,1.9,1.8,2.9,2.8c-1.5,1.7-3,2.3-5,1.9c-2.7-0.5-3.5-2-2.7-4.6c0.7-2.4,2.4-4,4.5-5.1c3.6-1.8,7.7-0.3,8.7,3.1
		c1.1,4,0.8,8-2.4,11c-3.3,3.2-7.2,5-11.9,3.5c-6.8-2.1-9.9-9.1-7-15.5c0.3-0.7,0.7-1.4,0.8-2.1c0-0.7-0.4-1.4-0.7-2.5
		c-1.2,1.1-2,1.8-2.8,2.5c-4,4.1-7.6,8.5-10.8,13.4c-5.7,8.6-9.1,18.1-10.7,28.1c-2.2,13.6-0.5,26.9,4.4,39.9
		c3.9,10.5,9.6,19.8,16.8,28.4c6.2,7.4,13.2,13.7,21.1,19.2C148.1,359.3,150.2,360.8,152.4,362.3z"/>
	<path class="st6" d="M152.7,531.6c0,2.2-1.6,2.5-3.3,2.7C150.6,533.4,151.7,532.5,152.7,531.6z"/>
	<path class="st6" d="M137.2,199.9c3.5-2,7-3.9,10.5-5.9c8.8-4.9,17.6-9.8,26.3-14.7c7.8-4.4,15.5-9,23.3-13.4
		c3.4-1.9,7-3.7,10.5-5.6c2-1,3.1-2.3,3.2-4.9c0.2-11.1,4.6-20.4,12.9-27.8c12.9-11.6,27.7-14.6,44.2-9.6c1.2,0.4,2.4,0.7,3.7,1.1
		c0,0,0,0.1,0,0.1c0,1,0,2.1,0,3.1c-1.8-0.5-3.7-0.8-5.5-1.4c-11.4-3.5-22.1-2.3-32.4,3.7c-4.6,2.7-8.4,6.1-11.6,10.2
		c-2,2.5-3.2,5.7-4.6,8.6c-2,4.3-2.8,8.8-2.6,13.7c-2.4,0.4-4,1.4-3.9,4.1c0,0.7-0.8,1.7-1.5,2.1c-4.5,2.6-9.1,5-13.6,7.5
		c-6.1,3.4-12.2,6.9-18.2,10.4c-8.7,4.9-17.3,9.9-26,14.8c-8.6,4.8-17.2,9.6-25.8,14.4c-0.8,0.4-1.8,0.7-2.7,0.8
		c-1.6,0.1-3.2,0-4.8,0.1c3.1-1.8,6.1-3.7,9.2-5.5C130.7,203.7,134,201.8,137.2,199.9z"/>
	<path class="st7" d="M249.1,134.4c-0.9-4.1-0.6-5.1,2.9-7.1c3.3-1.9,6.8-2.6,10.6-0.7c3,1.5,6.2,2.6,9.3,3.9
		c0.2,0.2,0.4,0.4,0.6,0.7c2.8,2,5.6,4.1,8.4,6.1c0.9,0.7,1.7,1.5,2.7,2.3c1.5-2.7,2.4-5.1,1.9-7.8c0.7-0.7,1.3-1.4,2-2.1
		c3.4,0.5,3.5,0.7,3.7,4.6c-0.9,1.5-1.7,3.1-2.6,4.6c-0.1,0.3-0.1,0.7-0.3,0.9c-2.3,2.6-1.4,5,0.3,7.4c0.2,0.3,0.5,0.7,0.7,1.1
		c3.1,6.4,4.3,12.9,1,19.6c-1.5,3-4.3,4.1-7.4,2.9c-1-0.4-2-0.9-2.7-1.2c-0.8,2.7-1.6,5.2-2.4,7.7c-0.9,2.9-2.6,5.3-5.2,7.1
		c-0.2,0.2-0.4,0.4-0.6,0.7c-5.3,1.2-9.4-0.4-12-4.6c-1.7-2.7-1.1-5.4,1.5-7.1c3.5-2.4,6.4-2.2,10.4,0.8c0,0.9,0,1.8,0,2.8
		c-2,2.8-4.6,3-7.5,1.7c0-0.6-0.1-1.2-0.1-1.8c0.5-0.2,0.9-0.4,1.4-0.7c0.5-0.1,1.1-0.3,1.6-0.4c0-0.2-0.1-0.4-0.1-0.6
		c-0.5,0.1-1,0.2-1.5,0.3c-0.5,0.4-0.9,0.9-1.4,1.3c-0.9,0.6-0.8,1.3-0.1,2.1c2.2,4,4.7,4.2,7.9,0.5c0.2-0.4,0.4-0.9,0.6-1.3
		c3.3-4.9,2.9-9.7,0-14.6c-0.1-0.3-0.1-0.5-0.2-0.8c0.1-3,0.1-6,0.2-8.9c3.6-2.6,5.8-6.4,8.5-9.9c-1.8-2.3-3.7-4.3-5.9-5.9
		c-0.8-0.6-1.8-0.9-2.7-1.4c-0.2-0.2-0.3-0.4-0.5-0.5c-1.8-1.1-3.6-2.3-5.3-3.4c-0.5-0.3-0.9-0.6-1.4-1c-0.1,0.2-0.3,0.5-0.4,0.7
		c0.5,0.4,1.1,0.7,1.6,1.1c0.8,2.6-1.1,3.7-2.8,4.7c-1.3,0.8-2.9,1.2-4.6,1.9c5.1,3.8,9.3,8.1,12.6,13.1c0.1,0.3,0.1,0.5,0.2,0.8
		c-0.1,2.4-0.2,4.7-0.3,7.1c-1.4-0.4-2.3,0.4-3.4,1.1c-3.5,2.5-7.2,5-11.6,5.7c-3.8,0.6-7.5,0.4-10.1-3.1c-1.2-1.7-1.2-2.5,0-4.2
		c1.4-2.1,3.1-3.1,5.6-2.8c1.1,0.1,2.1,0,3.2,0c3.8,0.1,4.6,1.1,3.8,5.4c3.6-1.7,6.5-3.7,9.5-6.1c-0.4-0.9-0.7-1.8-1.2-2.5
		c-3.2-4.8-7.1-9-12-12.1c-3.4-2.1-6.9-3.6-11.1-3.4c-2.7,0.1-5.2,2.4-5.4,4.9c-0.1,1.6,0.5,2.7,1.9,3.4c1.3,0.7,2.8,0.3,4.2-1
		c0.1-0.3,0.2-0.6,0.3-0.9c-0.2,0.2-0.5,0.4-0.7,0.6c-0.8-0.1-1.8,0.1-2.4-0.3c-1.5-0.9-1.4-2.7,0.1-3.6c1.9-1.2,6-0.4,7.2,1.4
		c0.9,1.3,0.9,2.7,0.1,3.9c-3.8,5.4-10.3,5.1-14.3,0.1c-1.9-2.4-0.8-6.8,1.9-9.2c3.4-3.1,7.3-3.7,11.5-2.8c0.3,0,0.6,0,1,0
		C249.6,134.9,249.3,134.6,249.1,134.4z M255.6,164.4c0.6-0.1,1.3-0.2,1.9-0.3c-0.1-0.3-0.1-0.5-0.2-0.8c-0.5,0.2-1,0.4-1.6,0.7
		c-2.3,0.2-2.7-2.4-4.2-3.2c-1.6,1.6-1.7,2.4-0.2,3C252.7,164.2,254.2,164.2,255.6,164.4z M260.2,129.9c-2.5-0.4-5.1-1.3-7,1.2
		c-0.3,0.2-0.6,0.4-0.9,0.6c0.3,0.2,0.5,0.5,0.8,0.7c0.5,1.3,1.2,2.5,2.8,2.6c2,1.1,3.8,1.1,5.4-0.9c-1.8,0.3-3.6,0.6-5.4,0.9
		c0.2-3.2,0.8-3.8,4.4-4.5c0.4,0,0.7,0.1,1.1,0.1C260.9,130.3,260.6,130.1,260.2,129.9z M276.9,161.3c0.7-0.6,1.1-1,1.6-1.4
		c1.6-1.3,3.3-1.3,5-0.4c1.1,0.6,1.7,1.5,1.6,2.9c-0.1,1.3-0.8,1.9-2,2c-0.4,0.1-0.7,0.3-1.6,0.6c1.2,1.1,2.1,1.9,2.9,2.6
		c4.8-3.6,3.9-14.5-1-20c-0.5,0.5-1.1,0.9-1.5,1.4c-1.7,1.9-3.2,4-5,5.8C274.4,157.5,274.3,158,276.9,161.3z"/>
	<path class="st6" d="M288.5,138.9c0.9-1.5,1.7-3.1,2.6-4.6c4.1,4.9,6.2,10.8,7.5,17c1.5,7.1,0.8,14-1.5,20.8
		c-2.3,6.9-6.4,12.9-12.1,17.6c-3.8,3.2-7.7,6-12.5,7.4c0-1.3,0-2.5,0-3.8c3.8-0.7,6.7-3,9.5-5.5c2.5-2.2,4.8-4.7,6.8-7.5
		c4.7-6.5,6.3-13.7,6.7-21.4c0.1-1.4-0.5-2.9-0.6-4.4c-0.2-5.1-1.8-9.7-4.1-14.2C290.2,139.2,289.6,138.7,288.5,138.9z"/>
	<path class="st6" d="M236,195.8c1.8-1.6,3.4-1.8,6-1c6.1,1.9,12.4,3.2,18.9,1.8c3.6-0.8,7.2-1.4,10.8-2.1c0,0.9,0.1,1.7,0.1,2.6
		c-0.1,0.1-0.2,0.3-0.1,0.5c0,0,0,0,0,0C259.5,201.4,247.6,201.5,236,195.8z"/>
	<path class="st6" d="M287.3,129.7c-0.7,0.7-1.3,1.4-2,2.1c-1.6-1.2-3.1-2.6-4.8-3.7c-2.6-1.8-4.6-4.4-8.1-4.7c0-1.3,0-2.6-0.1-3.9
		c4.4,1.4,8,4,11.5,6.9C285.2,127.4,286.2,128.6,287.3,129.7z"/>
	<path class="st8" d="M271.8,197.1c0-0.9-0.1-1.7-0.1-2.6c0-3.2,0.1-6.4,0.1-9.6c0.2-0.2,0.4-0.4,0.6-0.7c0,3,0.1,6,0.1,8.9
		c0,1.3,0,2.5,0,3.8C272.3,197.1,272,197.1,271.8,197.1z"/>
	<path class="st8" d="M272.4,119.6c0,1.3,0,2.6,0.1,3.9c0,2.6-0.1,5.1-0.1,7.7c-0.2-0.2-0.4-0.4-0.6-0.7c0-2.8-0.1-5.5-0.1-8.3
		c0-1,0-2.1,0-3.1c0.2-0.1,0.5-0.1,0.7-0.2C272.5,119.2,272.5,119.4,272.4,119.6z"/>
	<path d="M151,738.7c1.1-0.3,2.2-0.7,3.5-1c0.1-1,0.2-1.9,0.2-2.8c0-5.4-0.1-10.8,0-16.2c0.1-4.5,0.5-9,0.8-14.2
		c4.6,3.5,7.7,8,12.6,10.6c0.4-0.9,0.7-1.6,1.1-2.4c1.1,0.3,2.1,0.7,3.2,1c0.1,0.4,0.2,0.8,0.3,1.2c-0.1,1-0.1,2-0.2,3.2
		c-1.4-0.4-2.3-0.7-3.5-1c0,5.5,0,10.8,0,16c2.9,0.8,2.9,0.8,3.2,3.4c-1,0.3-2.1,0.6-3.1,0.9c0,0.3,0,0.7,0.1,1c9.9,1.2,20,1,29.9,3
		c0.3-1.3,0.5-2.2,0.8-3.3c1.4,0.2,2.8,0.4,4.1,0.6l0,0c0.1,3.4,0.1,3.3,3.5,3.9c3.5,0.6,7,1.7,10.6,1.9c3.6,0.2,6.5,1.9,9.9,2.7
		c3.6,0.8,7.1,2,10.6,3.1c0.7,0.2,1.3,0.6,2.5,1c-1,0.4-1.5,0.9-1.9,0.8c-9.1-2.2-18.4-0.8-27.6-1.1c-2-0.1-3.9,1-5.9,0.1
		c-0.3-0.1-0.8,0.3-1.2,0.4c-1,0.3-2,0.6-3,0.7c-2.2,0.3-4.6-1.2-6.7,0.6c-4.6-0.5-9.1,0.6-13.7,0.9c-5.6,0.4-11.1,1.6-16.6,2.5
		c-5.7,1-11.5,2-17.1,3.1c-5.5,1.2-10.9,2.5-16.3,3.9c-4.6,1.2-9.2,2.4-13.7,3.8c-4.7,1.5-9.4,3.3-14,5.2c-3.1,1.3-6.1,2.8-9.2,4.2
		c-0.5,0.2-1.2-0.1-2.1-0.1c1.6-2.6,3.6-4.2,5.6-6c0.5-0.5,1.3-0.8,1.8-1.4c3.2-3.5,7.3-5.7,11.3-8.1c2.9-1.7,5.8-3.5,8.8-5.1
		c4.8-2.4,9.7-4.7,14.6-6.8c3.7-1.6,7.5-2.9,11.3-4.2c2.1-0.7,4.3-1.1,6.8-1.7C151.2,741.4,149.6,740.3,151,738.7z M166.4,734.7
		c-4,0.4-7.3,2.7-11,3.7c0.3,2.2,1.8,2.3,3.1,1.9c2.4-0.7,4.8-1.6,7.2-2.6C166.9,737.3,167.1,736.3,166.4,734.7z"/>
	<path class="st6" d="M154.1,363.2c0.2-1.1,0.6-2.2,0.7-3.3c0.3-27.7,0.5-55.4,0.8-83c0.2-17.4,0.3-34.7,0.5-52.1c0-1.2,0-2.3,0-4
		c-3.7,1.2-7,2.2-10.3,3.3c-2.9,0.9-5.9,1.7-8.8,2.5c0.1-0.4,0.2-0.9,0.5-1.1c2.7-1.8,5-4.1,8.4-4.8c3.3-0.7,6.4-2,9.7-3.1
		c0.5,1,0.8,1.8,1.1,2.6c1.1-0.1,2-0.2,3.3-0.3c0,1.1-0.1,2.2,0,3.2c0.1,2.1,0.4,4.2,0.5,6.3c0,0.5,0.1,1.1,0.1,1.6
		c-0.2,4.8-0.5,9.5-0.6,14.3c-0.1,3.7,0,7.5,0,11.2c-0.2,12.5-0.4,25.1-0.6,37.6c0,1.6,0.3,3.1,0.5,4.7c0,0.4,0.2,0.9,0.1,1.3
		c-1.3,10.7-0.3,21.5-0.6,32.2c-0.3,10.8-0.6,21.7-1,32.7C156.8,364.8,155.2,364.6,154.1,363.2z"/>
	<path class="st8" d="M271.7,176.7c0-0.9,0-1.8,0-2.8c0.1-3.8,0.1-7.7,0.2-11.5c0.1,0,0.3,0,0.4,0c0.1,0.3,0.1,0.5,0.2,0.8
		c0,4.9,0,9.7,0,14.6c-0.2,0.4-0.4,0.9-0.6,1.3C271.8,178.3,271.7,177.5,271.7,176.7z"/>
	<path class="st9" d="M272.3,162.5c-0.1,0-0.3,0-0.4,0c-0.1-0.6-0.2-1.2-0.3-1.8c0.1-2.4,0.2-4.7,0.3-7.1c0.2,0,0.4,0,0.5,0l0.1-0.1
		C272.4,156.5,272.3,159.5,272.3,162.5z"/>
	<path class="st10" d="M249.1,134.4c0.3,0.3,0.5,0.5,0.8,0.8c-0.3,0-0.6,0-1,0C248.9,134.9,249,134.6,249.1,134.4z"/>
	<path d="M174.7,515.4c0,0.4-0.1,0.7-0.1,1.1c-1.1,0.8-2.1,1.5-3.4,2.4c-0.3-1.2-0.5-2.2-0.8-3.7c-4.2,4.4-7.8,9.2-13.5,12.6
		c-0.1-1.7-0.2-2.7-0.2-3.7c0-4.2,0-8.3,0-12.5c0-2-0.2-4,1-5.9c0.5-0.9,0.3-2.3,0.2-3.4c-0.1-2.9-0.5-5.7-0.6-8.6
		c-0.1-4.6-0.2-9.2,0-13.8c0.8-13.3,0.5-26.6,0.6-39.9c0-2,0.8-4.1,0.5-6c-1.2-8.7-0.9-17.5-0.4-26.2c0.6-11.8,0.3-23.6,0.5-35.4
		c0-0.5,0.1-1,0.2-1.8c5.3,1.5,8.3,6.1,12.8,9c0.3-1.2,0.4-2,0.7-3c0.5,0.3,0.9,0.6,1.3,0.9c2,1.6,3,3.5,1.9,6.4
		c-0.9-0.5-1.8-1-2.9-1.7c-0.2,0.7-0.4,1.4-0.4,2c0,2.7,0,5.3,0,8c0,1.5-0.3,2.9-0.5,4.4c-0.1,0.6-0.2,1.3-0.1,1.9
		c1.2,5.4,0.6,10.8,0.5,16.2c-0.1,15.5-0.2,31.1-0.7,46.6c-0.2,4.1,0.4,8.2,0.2,12.3c-0.2,4.2,0,8.3-0.1,12.5
		c-0.2,7.7-0.4,15.3-0.6,23c0,1,0,2.1,0,3.6c1.4-0.8,2.2-1.3,3.5-2.1C174.4,512.4,174.6,513.9,174.7,515.4z"/>
	<path class="st6" d="M271.9,803.9c-0.2,0-0.4-0.1-0.6-0.1c-1.4-1.5-1.6-3.5-1.8-5.4c-0.1-1.4,0.6-1.9,1.8-1.9c0.2,0,0.4,0,0.6,0
		c0.5,0.1,1,0.1,1.7,0.2c0.4,1.5,0.8,3,1.2,4.6c3.5-1.4,5.2-4.3,4.8-7.6c-0.5-3.4-3.1-5.5-7.8-6.1c0.1-1.1,0-2.7,0.1-3.8
		c2.3-0.2,4.4,0.7,6.5,1.8c3.7,2.1,5.6,5.1,5.5,9.3c-0.1,4.3-2.3,7.3-5.9,9.4C275.7,805.7,273.8,804.9,271.9,803.9z"/>
	<path d="M272.5,193.2c0-3-0.1-6-0.1-8.9c2.6-1.7,4.2-4.1,5.2-7.1c0.8-2.5,1.6-5,2.4-7.7c0.7,0.3,1.6,0.8,2.7,1.2
		c3.2,1.2,6,0.1,7.4-2.9c3.3-6.7,2.1-13.2-1-19.6c-0.2-0.4-0.5-0.7-0.7-1.1c-1.7-2.4-2.5-4.9-0.3-7.4c0.2-0.2,0.2-0.6,0.3-0.9
		c1.1-0.2,1.7,0.4,2.2,1.3c2.4,4.5,4,9.1,4.1,14.2c0,1.5,0.6,2.9,0.6,4.4c-0.3,7.7-2,15-6.7,21.4c-2,2.8-4.3,5.3-6.8,7.5
		C279.2,190.2,276.3,192.5,272.5,193.2z"/>
	<path class="st6" d="M276.9,161.3c-2.6-3.3-2.5-3.8,0.1-6.5c1.8-1.8,3.3-3.9,5-5.8c0.5-0.5,1-1,1.5-1.4c4.8,5.5,5.8,16.5,1,20
		c-0.8-0.7-1.7-1.5-2.9-2.6c0.9-0.3,1.2-0.6,1.6-0.6c1.2-0.2,1.9-0.8,2-2c0.1-1.3-0.5-2.3-1.6-2.9c-1.7-0.9-3.5-1-5,0.4
		C278,160.3,277.6,160.7,276.9,161.3z"/>
	<path d="M271.6,152.8c-3.4-5.1-7.5-9.4-12.6-13.1c1.8-0.7,3.3-1.1,4.6-1.9c1.7-1,3.6-2.1,2.8-4.7c0.1-0.3,0.1-0.5,0.2-0.8
		c1.8,1.1,3.6,2.3,5.3,3.4c-0.1,1.2-0.1,2.3-0.1,3.5C271.7,143.7,271.7,148.3,271.6,152.8z"/>
	<path d="M272.4,131.2c0-2.6,0.1-5.1,0.1-7.7c3.4,0.3,5.5,2.9,8.1,4.7c1.6,1.1,3.2,2.5,4.8,3.7c0.5,2.7-0.5,5.1-1.9,7.8
		c-1-0.9-1.8-1.7-2.7-2.3C278,135.2,275.2,133.2,272.4,131.2z"/>
	<path d="M272.4,136.3c0.9,0.5,1.9,0.8,2.7,1.4c2.2,1.6,4.1,3.6,5.9,5.9c-2.8,3.6-5,7.3-8.5,9.9l-0.1,0.1
		C272.4,147.8,272.4,142,272.4,136.3z"/>
	<path class="st6" d="M272.5,177.8c0-4.9,0-9.7,0-14.6C275.4,168.1,275.8,172.9,272.5,177.8z"/>
	<path class="st6" d="M271.7,176.7c0.1,0.8,0.1,1.6,0.2,2.4c-3.2,3.7-5.7,3.6-7.9-0.5c0.1-0.1,0.2-0.1,0.3-0.2
		C267.1,179.7,269.7,179.5,271.7,176.7z"/>
	<path class="st6" d="M260.2,130.5c-3.6,0.8-4.2,1.3-4.4,4.5l0,0c-1.6-0.1-2.3-1.3-2.8-2.6c0-0.4,0.1-0.9,0.1-1.3
		c2-2.5,4.6-1.6,7-1.2C260.2,130.1,260.3,130.3,260.2,130.5z"/>
	<path class="st11" d="M272.4,136.3c0,5.8,0,11.5,0,17.3c-0.2,0-0.4,0-0.5,0c-0.1-0.3-0.1-0.5-0.2-0.8c0-4.5,0.1-9.1,0.1-13.6
		c0-1.2,0.1-2.3,0.1-3.5C272.1,135.9,272.3,136.1,272.4,136.3z"/>
	<path class="st6" d="M255.6,164.4c-1.4-0.2-2.9-0.1-4.3-0.6c-1.6-0.6-1.5-1.4,0.2-3c1.5,0.8,1.9,3.4,4.2,3.2
		C255.7,164.1,255.7,164.2,255.6,164.4z"/>
	<path class="st6" d="M255.8,135c1.8-0.3,3.6-0.6,5.4-0.9C259.6,136.1,257.8,136.1,255.8,135C255.8,135,255.8,135,255.8,135z"/>
	<path class="st10" d="M266.6,132.3c-0.1,0.3-0.1,0.5-0.2,0.8c-0.6-0.4-1.1-0.7-1.6-1.1c0.1-0.2,0.3-0.5,0.4-0.7
		C265.7,131.7,266.1,132,266.6,132.3z"/>
	<path class="st10" d="M255.6,164.4c0.1-0.1,0.1-0.3,0.1-0.4c0.5-0.2,1-0.4,1.6-0.7c0.1,0.3,0.1,0.5,0.2,0.8
		C256.8,164.2,256.2,164.3,255.6,164.4z"/>
	<path class="st10" d="M265.5,175.3c0.5-0.1,1-0.2,1.5-0.3c0,0.2,0.1,0.4,0.1,0.6c-0.5,0.1-1.1,0.3-1.6,0.4
		C265.5,175.7,265.5,175.5,265.5,175.3z"/>
	<path class="st10" d="M260.2,130.5c0-0.2,0-0.4-0.1-0.6c0.4,0.2,0.7,0.4,1.1,0.6C260.9,130.5,260.6,130.5,260.2,130.5z"/>
	<path class="st10" d="M253.1,131.1c0,0.4-0.1,0.9-0.1,1.3c-0.3-0.2-0.5-0.5-0.8-0.7C252.5,131.5,252.8,131.3,253.1,131.1z"/>
	<path class="st6" d="M265.5,175.3c0,0.2,0,0.4,0.1,0.7c-0.5,0.2-0.9,0.4-1.4,0.7c0,0-0.1-0.1-0.1-0.1
		C264.5,176.2,265,175.7,265.5,175.3z"/>
	<path class="st6" d="M264,178.6c-0.7-0.7-0.8-1.4,0.1-2.1c0,0,0.1,0.1,0.1,0.1c0,0.6,0.1,1.2,0.1,1.8
		C264.1,178.5,264,178.6,264,178.6z"/>
	<path d="M244.7,145.7c0.2-0.2,0.5-0.4,0.7-0.6c-0.1,0.3-0.2,0.6-0.3,0.9C244.9,145.9,244.8,145.8,244.7,145.7z"/>
	<path class="st6" d="M172.7,714.8c1.1,0.6,2.2,1.2,3.4,1.7c2,1,3.9,2.4,6.4,2.4c1.2,0,2.3,0.9,3.5,1.3c5,2.8,9.1,6.7,13.4,10.5
		c2.4,2.2,3.6,4.9,4.6,7.8c-1.3-0.2-2.6-0.4-4.1-0.6c-0.3,1.1-0.5,2-0.8,3.3c-9.9-2-20-1.8-29.9-3c0-0.3,0-0.7-0.1-1
		c1-0.3,2.1-0.6,3.1-0.9c-0.3-2.5-0.3-2.5-3.2-3.4c0-5.2,0-10.5,0-16c1.2,0.3,2.1,0.6,3.5,1C172.6,716.8,172.7,715.8,172.7,714.8z
		 M184.3,724c-0.4-0.3-0.8-0.6-1.2-0.8c-2.9-1.2-5.8-2.3-8.8-3.5c-0.5-0.2-0.9-0.3-1.8-0.5c0,4.5-0.1,8.7,0,12.9
		c0,1.8,1.5,3.3,3.4,3.5c1.7,0.2,3.4,0.1,5,0.2c5.9,0.7,11.8,1.3,18.2,2c-0.7-1.4-1.1-2.5-1.7-3.3c-1-1.2-2.2-2.3-3.4-3.3
		C191,728.5,188.1,725.7,184.3,724z"/>
	<path class="st6" d="M166.4,734.7c0.7,1.6,0.5,2.6-0.7,3.1c-2.4,0.9-4.7,1.9-7.2,2.6c-1.3,0.4-2.8,0.3-3.1-1.9
		C159.2,737.4,162.4,735.1,166.4,734.7z"/>
</g>
</svg>
