<?xml version="1.0" encoding="utf-8"?>
<!-- Generator: Adobe Illustrator 24.1.0, SVG Export Plug-In . SVG Version: 6.00 Build 0)  -->
<svg version="1.1" xmlns="http://www.w3.org/2000/svg" xmlns:xlink="http://www.w3.org/1999/xlink" x="0px" y="0px"
	 viewBox="0 0 503 574" style="enable-background:new 0 0 503 574;" xml:space="preserve">
<style type="text/css">
	.st0{fill:none;}
	.st1{fill:none;stroke:#FFFFFF;stroke-width:3;stroke-linecap:round;stroke-miterlimit:10;}
	.st2{fill:#FFFFFF;stroke:#FFFFFF;stroke-width:3;stroke-linecap:round;stroke-miterlimit:10;}
	.st3{fill:#FFFFFF;}
	.st4{fill:none;stroke:#FFFFFF;stroke-width:5;stroke-linecap:round;stroke-miterlimit:10;}
	.st5{fill:#FFCC1F;}
	.st6{fill:#8A5D3B;stroke:#231F20;stroke-width:3.7714;stroke-miterlimit:10;}
	.st7{fill:#FFFFFF;stroke:#231F20;stroke-width:1.8857;stroke-miterlimit:10;}
	.st8{fill:none;stroke:#231F20;stroke-width:0.9429;stroke-linecap:round;stroke-miterlimit:10;}
	.st9{fill:#FFFFFF;stroke:#231F20;stroke-width:0.9429;stroke-miterlimit:10;}
	.st10{fill:#EC3292;stroke:#231F20;stroke-width:3.7714;stroke-linecap:round;stroke-miterlimit:10;}
	.st11{fill:none;stroke:#231F20;stroke-width:1.8857;stroke-miterlimit:10;}
	.st12{fill:#7ED2F6;stroke:#231F20;stroke-width:1.8857;stroke-miterlimit:10;}
	.st13{fill:#231F20;}
	.st14{fill:#C3996B;}
	.st15{fill:none;stroke:#FFFFFF;stroke-width:0.9429;stroke-linecap:round;stroke-miterlimit:10;}
	.st16{fill:none;stroke:#231F20;stroke-width:3.7714;stroke-linecap:round;stroke-miterlimit:10;}
	.st17{fill:none;stroke:#231F20;stroke-width:2.8286;stroke-linecap:round;stroke-miterlimit:10;}
	.st18{fill:#231F20;stroke:#231F20;stroke-width:1.0104;stroke-miterlimit:10;}
	.st19{fill:#8A5D3B;stroke:#231F20;stroke-width:0.9425;stroke-miterlimit:10;}
	.st20{fill:none;stroke:#231F20;stroke-width:1.8849;stroke-miterlimit:10;}
	.st21{fill:#B2946D;}
	.st22{fill:#B89571;stroke:#231F20;stroke-width:0.9389;stroke-miterlimit:10;}
	.st23{fill:#FFFFFF;stroke:#231F20;stroke-width:0.9389;stroke-miterlimit:10;}
	.st24{fill:#39C5F3;}
	.st25{fill:#231F20;stroke:#231F20;stroke-width:0.9389;stroke-linecap:round;stroke-miterlimit:10;}
	.st26{fill:#231F20;stroke:#231F20;stroke-width:0.9389;stroke-miterlimit:10;}
	.st27{fill:#B78A6B;stroke:#231F20;stroke-width:0.4695;stroke-linecap:round;stroke-miterlimit:10;}
	.st28{fill:#B3966C;}
	.st29{fill:#FFFFFF;stroke:#FFFFFF;stroke-width:0.4695;stroke-linecap:round;stroke-miterlimit:10;}
	.st30{opacity:0.12;fill:url(#SVGID_7_);}
	.st31{opacity:0.12;fill:url(#SVGID_8_);}
	.st32{fill:#D7C1B4;}
	.st33{fill:#D7C1B4;stroke:#231F20;stroke-width:1.1281;stroke-linecap:round;stroke-miterlimit:10;}
	.st34{fill:#D7C1B3;stroke:#231F20;stroke-width:1.1281;stroke-miterlimit:10;}
	.st35{fill:#D7C1B3;stroke:#231F20;stroke-width:6.7686;stroke-miterlimit:10;}
	.st36{fill:#E3E4E5;}
	.st37{fill:#231F20;stroke:#231F20;stroke-width:2.2562;stroke-linecap:round;stroke-miterlimit:10;}
	.st38{fill:none;stroke:#FFFFFF;stroke-width:1.1281;stroke-linecap:round;stroke-miterlimit:10;}
	.st39{fill:#231F20;stroke:#231F20;stroke-width:2.2562;stroke-miterlimit:10;}
	.st40{fill:none;stroke:#231F20;stroke-width:2.2562;stroke-linecap:round;stroke-miterlimit:10;}
	.st41{fill:#81D3F6;stroke:#231F20;stroke-width:2.2562;stroke-linecap:round;stroke-miterlimit:10;}
	.st42{fill:#D7C1B3;stroke:#231F20;stroke-width:2.2562;stroke-miterlimit:10;}
	.st43{opacity:0.12;fill:url(#SVGID_9_);}
	.st44{fill:none;stroke:#231F20;stroke-width:1.7381;stroke-miterlimit:10;}
	.st45{fill:#B89571;stroke:#231F20;stroke-width:1.3665;stroke-miterlimit:10;}
	.st46{fill:#FFFFFF;stroke:#231F20;stroke-width:1.3665;stroke-miterlimit:10;}
	.st47{fill:#231F20;stroke:#231F20;stroke-width:1.3665;stroke-linecap:round;stroke-miterlimit:10;}
	.st48{fill:#231F20;stroke:#231F20;stroke-width:1.3665;stroke-miterlimit:10;}
	.st49{fill:#B78A6B;stroke:#231F20;stroke-width:0.6833;stroke-linecap:round;stroke-miterlimit:10;}
	.st50{fill:#FFFFFF;stroke:#FFFFFF;stroke-width:0.6833;stroke-linecap:round;stroke-miterlimit:10;}
	.st51{fill:none;stroke:#231F20;stroke-width:2;stroke-linecap:round;stroke-miterlimit:10;}
	.st52{clip-path:url(#SVGID_11_);}
	.st53{clip-path:url(#SVGID_13_);fill:#F075AC;}
	.st54{fill:#B9744A;}
	.st55{fill:#F9DFD3;}
	.st56{fill:#F9DFD3;stroke:#231F20;stroke-miterlimit:10;}
	.st57{fill:#231F20;stroke:#231F20;stroke-width:4;stroke-miterlimit:10;}
	.st58{fill:#231F20;stroke:#231F20;stroke-width:3;stroke-miterlimit:10;}
	.st59{opacity:0.12;fill:url(#SVGID_14_);}
	.st60{opacity:0.12;fill:url(#SVGID_15_);}
	.st61{clip-path:url(#SVGID_17_);}
	.st62{clip-path:url(#SVGID_19_);fill:#F075AC;}
	.st63{opacity:0.12;fill:url(#SVGID_20_);}
	.st64{opacity:0.12;fill:url(#SVGID_21_);}
</style>
<pattern  x="-2109" y="-143" width="210.66" height="107.59" patternUnits="userSpaceOnUse" id="New_Pattern_Swatch_1" viewBox="0 -107.59 210.66 107.59" style="overflow:visible;">
	<g>
		<rect y="-107.59" class="st0" width="210.66" height="107.59"/>
		<line class="st1" x1="3.54" y1="-12.01" x2="209.16" y2="-13.14"/>
		<path class="st2" d="M105.49-12.84c9.43-3.86,29.56-10.82,56.19-10.15c21.76,0.55,38.37,5.95,47.49,9.57"/>
		<path class="st2" d="M3.56-12.24C12.8-16.3,32.52-23.6,58.65-23c21.36,0.49,37.67,6.06,46.63,9.79"/>
		<path class="st3" d="M51.8-63.83c1.84,1.22,3.05,3.23,3.5,5.38c0.44,2.16,0.2,4.42-0.63,6.47c-0.82,2.08-2.41,3.9-4.32,5.06
			c-1.92,1.17-4.09,1.86-6.3,2.05c-2.21,0.21-4.49-0.03-6.65-0.83c-2.18-0.77-4.16-2.24-5.6-4.06c-1.46-1.81-2.43-4.01-2.9-6.28
			c-0.46-2.28-0.42-4.6,0-6.85c0.44-2.24,1.21-4.44,2.53-6.43c1.26-2.01,2.99-3.71,4.93-5c3.88-2.61,8.46-3.83,13.02-3.85
			c4.55-0.06,9.3,1.17,13.3,3.99c1.97,1.41,3.67,3.16,5.04,5.13c1.35,1.92,2.44,4.13,3.15,6.4c1.44,4.57,1.51,9.39,0.59,13.95
			c-0.47,2.29-1.2,4.52-2.21,6.67c-0.25,0.54-0.51,1.08-0.81,1.6L68-39.65l-0.51,0.75c-0.69,1-1.34,2.03-2.18,2.9
			c-3.16,3.67-7.22,6.38-11.52,8.18c-4.32,1.8-8.9,2.76-13.52,2.91c-4.62,0.15-9.31-0.46-13.83-2.02l-1.69-0.61
			c-0.56-0.2-1.1-0.5-1.66-0.75l-1.64-0.79c-0.53-0.31-1.07-0.6-1.59-0.92c-2.08-1.29-4.02-2.82-5.76-4.53
			c-1.73-1.72-3.28-3.6-4.61-5.63c-0.68-1.02-1.24-1.99-1.81-3.09c-0.28-0.54-0.58-1.07-0.83-1.62l-0.71-1.67
			c-1.88-4.47-2.76-9.25-2.95-13.98C3-65.24,3.55-69.95,4.77-74.5c1.2-4.55,3.07-9.01,5.81-13.12c2.73-4.08,6.21-7.63,10.11-10.44
			c7.82-5.65,16.99-8.57,26.08-9.31c9.1-0.75,18.3,0.43,26.84,3.8c2.13,0.85,4.2,1.86,6.21,3.01l1.5,0.88
			c0.51,0.32,1.01,0.65,1.49,0.98c0.96,0.67,1.89,1.36,2.77,2.08c3.54,2.88,6.66,6.18,9.29,9.84c1.32,1.82,2.49,3.74,3.53,5.73
			c0.25,0.5,0.53,0.99,0.76,1.49l0.67,1.52c0.42,1.02,0.93,2.02,1.26,3.05l1.08,3.07c0.32,1.03,0.6,2.06,0.9,3.08
			c0.31,1.02,0.56,2.05,0.79,3.09c0.23,1.03,0.49,2.06,0.68,3.09c1.54,8.26,2.29,16.5,2.4,24.71c0.06,2.05,0.04,4.1,0.04,6.14
			c-0.05,2.05-0.09,4.09-0.19,6.13c-0.16,4.08-0.45,8.15-0.88,12.2c-0.75-8.11-1.72-16.16-3.04-24.1
			c-1.34-7.93-3.03-15.78-5.46-23.23c-1.28-3.69-2.58-7.36-4.33-10.68c-0.38-0.87-0.9-1.63-1.34-2.44l-0.69-1.2
			c-0.24-0.39-0.5-0.76-0.75-1.14c-1-1.52-2.14-2.93-3.33-4.3c-2.37-2.73-5.11-5.13-8.06-7.1c-0.73-0.5-1.48-0.95-2.23-1.37
			c-0.37-0.21-0.74-0.41-1.11-0.59l-1.18-0.55c-1.59-0.73-3.23-1.35-4.92-1.85c-6.73-2.12-14.1-2.53-21.08-1.43
			c-6.98,1.1-13.65,3.6-19.02,7.43c-1.36,0.93-2.62,1.98-3.78,3.11c-1.2,1.09-2.24,2.31-3.22,3.58c-0.96,1.27-1.81,2.65-2.61,4.1
			c-0.74,1.48-1.46,3.02-1.99,4.63c-0.58,1.6-0.97,3.26-1.33,4.93c-0.27,1.68-0.52,3.37-0.55,5.05c-0.11,3.37,0.33,6.73,1.42,9.8
			l0.41,1.15c0.15,0.38,0.34,0.74,0.5,1.11c0.31,0.72,0.72,1.54,1.13,2.22c0.82,1.41,1.79,2.73,2.87,3.93
			c1.09,1.19,2.3,2.26,3.61,3.18c0.33,0.23,0.67,0.44,1,0.66l1.07,0.58c0.36,0.18,0.7,0.41,1.08,0.57l1.15,0.48
			c6.17,2.52,13.78,2.71,20.25,0.39c3.23-1.15,6.18-2.93,8.45-5.29c0.62-0.55,1.07-1.23,1.58-1.87l0.38-0.48l0.33-0.52
			c0.23-0.34,0.43-0.71,0.63-1.08c0.8-1.47,1.42-3.09,1.87-4.75c0.89-3.32,1.03-6.87,0.23-10.1c-0.41-1.62-1.03-3.14-1.92-4.6
			c-0.86-1.42-1.95-2.68-3.22-3.71c-2.52-2.03-5.91-3.23-9.45-3.39c-3.52-0.22-7.16,0.55-10.13,2.3c-3.02,1.71-5.06,4.58-5.94,8.06
			c-0.89,3.44-0.48,7.16,1.52,10.02c0.98,1.42,2.3,2.56,3.91,3.25c1.6,0.72,3.43,1.06,5.26,1c3.65-0.06,7.39-1.78,8.99-5.09
			c0.81-1.65,1.17-3.57,0.94-5.41c-0.23-1.82-1.15-3.63-2.62-4.78"/>
		<line class="st4" x1="2.5" y1="-2.5" x2="208.12" y2="-3.63"/>
		<path class="st3" d="M159.99-63.83c-1.84,1.22-3.05,3.23-3.5,5.38c-0.44,2.16-0.2,4.42,0.63,6.47c0.82,2.08,2.41,3.9,4.32,5.06
			c1.92,1.17,4.09,1.86,6.3,2.05c2.21,0.21,4.49-0.03,6.65-0.83c2.18-0.77,4.16-2.24,5.6-4.06c1.46-1.81,2.43-4.01,2.9-6.28
			c0.46-2.28,0.42-4.6,0-6.85c-0.44-2.24-1.21-4.44-2.53-6.43c-1.26-2.01-2.99-3.71-4.93-5c-3.88-2.61-8.46-3.83-13.02-3.85
			c-4.55-0.06-9.3,1.17-13.3,3.99c-1.97,1.41-3.67,3.16-5.04,5.13c-1.35,1.92-2.44,4.13-3.15,6.4c-1.44,4.57-1.51,9.39-0.59,13.95
			c0.47,2.29,1.2,4.52,2.21,6.67c0.25,0.54,0.51,1.08,0.81,1.6l0.44,0.79l0.51,0.75c0.69,1,1.34,2.03,2.18,2.9
			c3.16,3.67,7.22,6.38,11.52,8.18c4.32,1.8,8.9,2.76,13.52,2.91c4.62,0.15,9.31-0.46,13.83-2.02l1.69-0.61
			c0.56-0.2,1.1-0.5,1.66-0.75l1.64-0.79c0.53-0.31,1.07-0.6,1.59-0.92c2.08-1.29,4.02-2.82,5.76-4.53c1.73-1.72,3.28-3.6,4.61-5.63
			c0.68-1.02,1.24-1.99,1.81-3.09c0.28-0.54,0.58-1.07,0.83-1.62l0.71-1.67c1.88-4.47,2.76-9.25,2.95-13.98
			c0.2-4.73-0.35-9.44-1.58-13.99c-1.2-4.55-3.07-9.01-5.81-13.12c-2.73-4.08-6.21-7.63-10.11-10.44
			c-7.82-5.65-16.99-8.57-26.08-9.31c-9.1-0.75-18.3,0.43-26.84,3.8c-2.13,0.85-4.2,1.86-6.21,3.01l-1.5,0.88
			c-0.51,0.32-1.01,0.65-1.49,0.98c-0.96,0.67-1.89,1.36-2.77,2.08c-3.54,2.88-6.66,6.18-9.29,9.84c-1.32,1.82-2.49,3.74-3.53,5.73
			c-0.25,0.5-0.53,0.99-0.76,1.49l-0.67,1.52c-0.42,1.02-0.93,2.02-1.26,3.05l-1.08,3.07c-0.32,1.03-0.6,2.06-0.9,3.08
			c-0.31,1.02-0.56,2.05-0.79,3.09c-0.23,1.03-0.49,2.06-0.68,3.09c-1.54,8.26-2.29,16.5-2.4,24.71c-0.06,2.05-0.04,4.1-0.04,6.14
			c0.05,2.05,0.09,4.09,0.19,6.13c0.16,4.08,0.45,8.15,0.88,12.2c0.75-8.11,1.72-16.16,3.04-24.1c1.34-7.93,3.03-15.78,5.46-23.23
			c1.28-3.69,2.58-7.36,4.33-10.68c0.38-0.87,0.9-1.63,1.34-2.44l0.69-1.2c0.24-0.39,0.5-0.76,0.75-1.14c1-1.52,2.14-2.93,3.33-4.3
			c2.37-2.73,5.11-5.13,8.06-7.1c0.73-0.5,1.48-0.95,2.23-1.37c0.37-0.21,0.74-0.41,1.11-0.59l1.18-0.55
			c1.59-0.73,3.23-1.35,4.92-1.85c6.73-2.12,14.1-2.53,21.08-1.43c6.98,1.1,13.65,3.6,19.02,7.43c1.36,0.93,2.62,1.98,3.78,3.11
			c1.2,1.09,2.24,2.31,3.22,3.58c0.96,1.27,1.81,2.65,2.61,4.1c0.74,1.48,1.46,3.02,1.99,4.63c0.58,1.6,0.97,3.26,1.33,4.93
			c0.27,1.68,0.52,3.37,0.55,5.05c0.11,3.37-0.33,6.73-1.42,9.8l-0.41,1.15c-0.15,0.38-0.34,0.74-0.5,1.11
			c-0.31,0.72-0.72,1.54-1.13,2.22c-0.82,1.41-1.79,2.73-2.87,3.93c-1.09,1.19-2.3,2.26-3.61,3.18c-0.33,0.23-0.67,0.44-1,0.66
			l-1.07,0.58c-0.36,0.18-0.7,0.41-1.08,0.57l-1.15,0.48c-6.17,2.52-13.78,2.71-20.25,0.39c-3.23-1.15-6.18-2.93-8.45-5.29
			c-0.62-0.55-1.07-1.23-1.58-1.87l-0.38-0.48l-0.33-0.52c-0.23-0.34-0.43-0.71-0.63-1.08c-0.8-1.47-1.42-3.09-1.87-4.75
			c-0.89-3.32-1.03-6.87-0.23-10.1c0.41-1.62,1.03-3.14,1.92-4.6c0.86-1.42,1.95-2.68,3.22-3.71c2.52-2.03,5.91-3.23,9.45-3.39
			c3.52-0.22,7.16,0.55,10.13,2.3c3.02,1.71,5.06,4.58,5.94,8.06c0.89,3.44,0.48,7.16-1.52,10.02c-0.98,1.42-2.3,2.56-3.91,3.25
			c-1.6,0.72-3.43,1.06-5.26,1c-3.65-0.06-7.39-1.78-8.99-5.09c-0.81-1.65-1.17-3.57-0.94-5.41c0.23-1.82,1.15-3.63,2.62-4.78"/>
	</g>
</pattern>
<g id="Background">
</g>
<g id="SchmoHouse">
</g>
<g id="PinkHouse">
</g>
<g id="YellowHouse">
</g>
<g id="Layer_6">
	<g>
		<path class="st5" d="M193.37,101c0.33,0.82,0.39,1.35,0.32,1.76c-0.07,0.4-0.33,0.63-0.52,0.91c-0.4,0.56-0.82,1.09-1.19,1.66
			l-1.09,1.71l-0.54,0.85l-0.48,0.88c-1.35,2.3-2.34,4.7-3.07,7.04c-0.7,2.34-1,4.64-0.79,6.74c0.1,1.05,0.29,2.06,0.67,3.02
			c0.18,0.48,0.36,0.96,0.61,1.42c0.22,0.46,0.52,0.96,0.79,1.33c0.55,0.8,1.23,1.59,2.04,2.32c0.8,0.74,1.7,1.45,2.68,2.1
			c1.95,1.32,4.19,2.44,6.58,3.32c4.76,1.75,10.25,2.35,15.3,0.98c5.05-1.29,9.56-4.41,12.3-8.72c0.35-0.53,0.64-1.1,0.96-1.65
			c0.25-0.57,0.55-1.11,0.75-1.7c0.47-1.15,0.76-2.37,0.98-3.58c0.21-1.22,0.25-2.44,0.22-3.65c-0.1-1.19-0.23-2.38-0.6-3.49
			c-0.12-0.57-0.39-1.08-0.57-1.63c-0.28-0.49-0.47-1.04-0.82-1.49c-0.57-0.98-1.35-1.81-2.17-2.61c-0.42-0.38-0.9-0.75-1.33-1.08
			l-0.66-0.42l-0.79-0.42c-1.11-0.53-2.3-1.06-3.55-1.51c-2.49-0.93-5.08-1.82-7.69-2.61c-1.3-0.43-2.62-0.8-3.93-1.2
			c-1.29-0.36-2.68-0.77-3.82-0.99l-0.14-2.08c0.84-0.14,1.58-0.19,2.31-0.19c0.74-0.02,1.46,0.01,2.18,0.04
			c1.44,0.07,2.86,0.22,4.28,0.4c2.83,0.4,5.64,0.94,8.44,1.78c1.4,0.41,2.8,0.91,4.23,1.55l1.08,0.53
			c0.37,0.21,0.75,0.45,1.12,0.68c0.68,0.49,1.31,0.98,1.93,1.52c2.42,2.22,4.23,5.21,4.96,8.39c0.77,3.17,0.65,6.42-0.1,9.44
			c-0.73,3-2.13,5.9-3.95,8.29c-1.81,2.43-4.04,4.54-6.52,6.23c-2.49,1.68-5.24,2.93-8.08,3.79c-2.84,0.87-5.77,1.43-8.74,1.67
			c-1.49,0.15-2.99,0.19-4.5,0.16c-1.51-0.02-3.03-0.13-4.55-0.35c-3.03-0.44-6.08-1.24-8.96-2.72c-1.44-0.72-2.84-1.62-4.14-2.72
			c-1.31-1.07-2.51-2.39-3.5-3.91c-1.92-2.91-3.03-6.45-3.02-9.93c0-3.48,0.96-6.75,2.4-9.54c0.33-0.72,0.74-1.38,1.14-2.04
			c0.4-0.66,0.81-1.32,1.28-1.91l1.36-1.8l1.49-1.66l0.74-0.82l0.79-0.76l1.57-1.52c0.52-0.5,1.09-0.95,1.63-1.42
			c0.29-0.22,0.51-0.51,0.91-0.61C192.03,100.67,192.57,100.69,193.37,101z"/>
	</g>
	<ellipse class="st6" cx="139.94" cy="88.89" rx="77.17" ry="75.13"/>
	
		<ellipse transform="matrix(0.973 -0.2307 0.2307 0.973 -12.0904 40.2318)" class="st7" cx="166.02" cy="71.82" rx="15.48" ry="23.51"/>
	
		<ellipse transform="matrix(0.973 -0.2307 0.2307 0.973 -13.8919 35.0126)" class="st7" cx="142.8" cy="76.92" rx="15.48" ry="23.51"/>
	<path class="st8" d="M176.69,57.09c2.46,2.68,6.34,3.55,9.23,2.31c3-1.29,3.68-4.32,3.75-4.65c0.08-0.39,0.63-3.46-1.82-5.66
		c-0.4-0.36-2.12-1.91-4.65-1.72c-1.62,0.12-3.66,0.95-4.43,2.73c-0.08,0.19-0.82,1.98,0.34,3.54c1.09,1.46,3.54,2.34,5.22,1.42
		c1.11-0.62,2.02-2.11,1.36-3.34c-0.56-1.04-2.17-1.75-3.29-1.21c-0.95,0.46-1.52,1.81-0.91,2.43c0.38,0.38,1.16,0.43,1.93,0.2"/>
	<path class="st8" d="M128.72,61.39c-1.56,3.81-5.6,6.32-9.51,6.2c-4.06-0.12-6.26-3.01-6.49-3.34c-0.27-0.37-2.36-3.37-0.58-6.68
		c0.29-0.54,1.54-2.87,4.53-3.71c1.91-0.54,4.65-0.5,6.37,1.05c0.19,0.17,1.87,1.73,1.28,3.85c-0.56,1.98-2.97,3.91-5.33,3.62
		c-1.57-0.19-3.32-1.38-3.14-2.94c0.15-1.32,1.67-2.72,3.21-2.62c1.31,0.09,2.6,1.27,2.19,2.17c-0.26,0.55-1.13,0.93-2.12,1"/>
	<path class="st9" d="M149.3,112.42c3.69,3.73,9.44,5.31,14.83,4.07c5.35-1.23,9.5-5.02,10.75-9.82
		c3.49,13.74-0.84,24.54-6.06,25.76C163.59,133.66,153.78,126.09,149.3,112.42z"/>
	<path class="st8" d="M158.16,99.89c-0.23,0.35-2.44,3.7-1.06,5.38c1.85,2.25,9.38,0.57,9.89-1.94c0.33-1.59-2.21-3.29-3.21-3.89"/>
	<path class="st6" d="M134.47,165.38c0.34,6.58,0.28,13.41,0.62,19.99c-1.82,0.48-6.03,0.71-6.11,2.86
		c-0.09,2.37,5.63,4.94,10.95,4.29c4.86-0.6,8.73-4.87,8.1-7.06c-0.51-1.76-3.59-1.59-5.61-1.79c0.19-6.55,0.21-11.9,0.4-18.46
		C140.03,165.27,137.25,165.32,134.47,165.38z"/>
	<path class="st10" d="M148.03,184.89c3.15,0.15,19.07,1.09,43.25,3.42c-11.4,20.58-22.8,41.16-34.21,61.74
		c2.94-0.51,10.99-1.54,18,2.61c4.18,2.47,6.34,5.8,7.88,8.62c8.35,15.33,7.43,30.87,7.43,30.87c0,36.72-6.94,58.09-6.3,79.58
		c0.31,10.52,2.08,26.49,9.68,46.1c-1.9,1.23-4.83,2.8-8.66,3.54c-10.55,2.04-19.35-3.83-30.16-9.22
		c-9.94-4.96-23.79-10.63-32.84-12.4c-10.88-2.13-27.57-1.13-51.75,14.62c4.16-5.78,9.83-14.9,13.56-26.86
		c6.45-20.7,0.74-29.57,3.82-61.87c0.76-7.95,2.52-22.3,8.44-39.42c5.53-15.99,11.2-24.29,19.93-30.09
		c4.96-3.29,9.81-5.05,13.17-6.02c-11.94-18.86-23.87-37.71-35.81-56.57c12.83-2.52,23.89-3.53,36.72-6.05
		c-0.3,0.07-0.08-0.67-1.63,0.91c-1.54,1.57,3.21,3.85,3.83,4.16c5.61,2.76,12.02-0.36,12.4-0.55c0.77-0.39,4.55-2.3,4.22-4.19
		C148.66,185.85,147.58,184.87,148.03,184.89z"/>
	<path class="st11" d="M183.47,188.62c9.23,4.97,30.22,14.85,58.26,15.73c28.68,0.9,49.2-8.1,57.96-12.58"/>
	<path class="st11" d="M94.54,196.5c-12.35,11.9-24.71,23.81-37.06,35.71c12.13,10.6,24.26,21.21,36.39,31.81"/>
	<path class="st12" d="M150.03,409c0.57,54.16,1.14,108.32,1.71,162.48"/>
	<path class="st12" d="M121.86,400.82c0.55,56.44,1.1,112.89,1.65,169.33"/>
	<g>
		<path class="st13" d="M88.26,35.14c3.69,2.73,9.58,7.78,13.82,15.52c2.17,3.96,5.64,10.5,4.86,19.24
			c-0.24,2.65-1.15,11.32-8.96,18.92c-3.27,3.18-7.5,7.31-14.59,8.08c-6.93,0.75-14.68-1.91-18.3-6.8c-1.81-2.45-2.19-4.92-2.3-7.44
			c-0.19-4.37,0.12-16.01,11.52-31.99C77.23,46.57,81.69,41.05,88.26,35.14z"/>
		<path class="st13" d="M88.26,35.14c5.52,3.97,10.33,9.02,13.76,14.95c1.7,2.95,3.24,6.04,4.2,9.35c0.97,3.3,1.36,6.77,1.11,10.21
			c-0.41,6.88-3.39,13.57-8.15,18.56c-2.38,2.45-4.88,4.86-7.91,6.6c-3.01,1.74-6.5,2.65-9.97,2.68c-3.47,0.03-6.94-0.69-10.1-2.14
			c-3.13-1.44-6.06-3.72-7.61-6.95c-0.76-1.61-1.08-3.38-1.17-5.1c-0.1-1.72-0.08-3.45,0.08-5.16c0.32-3.43,1.1-6.79,2.23-10.03
			c2.23-6.49,5.69-12.47,9.69-17.98C78.47,44.63,83.16,39.64,88.26,35.14z M88.26,35.14c-5,4.61-9.56,9.7-13.47,15.25
			c-1.93,2.79-3.79,5.63-5.37,8.63c-1.58,2.99-2.95,6.1-4.01,9.31c-1.07,3.2-1.79,6.52-2.1,9.87c-0.15,1.68-0.17,3.36-0.06,5.03
			c0.1,1.67,0.41,3.31,1.12,4.79c1.43,2.96,4.2,5.12,7.2,6.49c3.03,1.37,6.39,2.05,9.71,2.01c3.33-0.01,6.64-0.86,9.54-2.52
			c2.9-1.64,5.38-4,7.73-6.41c4.67-4.83,7.53-11.32,8.05-18.03c0.29-3.35-0.05-6.74-0.96-9.99c-0.9-3.25-2.38-6.32-4.02-9.28
			C98.36,44.37,93.69,39.24,88.26,35.14z"/>
	</g>
	<g>
		<path class="st13" d="M88.41,36.04c2.9,2.33,8.21,5.99,15.98,8.29c3.98,1.18,10.54,3.04,18.91,1.79
			c2.53-0.38,10.83-1.72,17.58-7.74c2.83-2.52,6.49-5.78,6.71-10.75c0.22-4.85-2.93-10-7.91-12.1c-2.49-1.05-4.91-1.11-7.34-0.98
			c-4.23,0.22-15.44,1.39-30,10.58C98.62,27.47,93.62,31.01,88.41,36.04z"/>
		<path class="st13" d="M88.41,36.04c4.76,3.55,10.15,6.2,15.83,7.76c2.84,0.81,5.71,1.5,8.62,1.82c2.91,0.34,5.84,0.33,8.73-0.01
			c5.78-0.72,11.47-2.56,16.18-5.9c1.17-0.86,2.25-1.74,3.35-2.75c1.08-0.98,2.11-1.99,2.99-3.1c1.78-2.18,2.81-4.85,2.51-7.57
			c-0.22-2.72-1.55-5.34-3.47-7.31c-1.96-1.97-4.55-3.22-7.33-3.49c-1.39-0.15-2.84-0.11-4.29-0.02c-1.45,0.1-2.9,0.26-4.34,0.5
			c-2.88,0.46-5.73,1.19-8.53,2.08c-2.79,0.9-5.53,1.99-8.2,3.23c-2.66,1.26-5.25,2.68-7.79,4.19
			C97.57,28.48,92.83,32.07,88.41,36.04z M88.41,36.04c8.31-8.48,18.46-15.33,29.78-19.37c2.83-1,5.74-1.82,8.71-2.33
			c1.48-0.27,2.98-0.47,4.49-0.59c1.5-0.12,3.03-0.19,4.6-0.05c3.15,0.26,6.22,1.72,8.45,3.96c2.22,2.25,3.77,5.23,4.05,8.45
			c0.14,1.6-0.04,3.25-0.6,4.77c-0.53,1.53-1.38,2.9-2.36,4.12c-0.98,1.22-2.09,2.29-3.2,3.29c-1.08,1-2.31,2-3.55,2.87
			c-5.07,3.45-11.04,5.34-17.05,5.88c-3.01,0.27-6.05,0.19-9.04-0.25c-2.98-0.42-5.9-1.2-8.73-2.12
			C98.28,42.79,92.91,39.92,88.41,36.04z"/>
	</g>
	<g>
		<path class="st13" d="M69.01,57.92c-1.57,2.61-6.24,4.51-11.04,4.34c-4.46-0.16-8.54-2.65-10.72-5.64
			c-3.55-4.87-1.77-10.66,0.16-16.63c4.59-14.14,14.46-22.75,19-26.61c10.54-8.96,17.5-9.92,19.32-10.12
			c2.53-0.28,7.7-0.85,11.69,1.88c4.96,3.39,6.41,10.73,3.41,18.37C94.01,26.95,76.78,44.96,69.01,57.92z"/>
		<path class="st13" d="M69.01,57.92c-0.72,1.16-1.84,2-3.02,2.63c-1.2,0.63-2.49,1.08-3.81,1.36c-2.64,0.55-5.44,0.57-8.03-0.29
			c-2.58-0.84-4.95-2.39-6.7-4.49c-0.86-1.06-1.56-2.27-1.97-3.59c-0.42-1.32-0.57-2.71-0.53-4.08c1.2-10.86,6.04-21.18,13.3-29.38
			c1.81-2.05,3.76-3.98,5.78-5.81c2.01-1.82,4.13-3.57,6.36-5.17c2.23-1.6,4.58-3.06,7.07-4.26c2.5-1.17,5.16-2.14,7.99-2.48
			c2.71-0.33,5.58-0.45,8.37,0.27c1.39,0.36,2.74,0.93,3.95,1.75c1.2,0.83,2.24,1.89,3.03,3.1c1.61,2.42,2.24,5.32,2.22,8.1
			c-0.01,2.81-0.69,5.55-1.71,8.1l-0.07,0.18l-0.18,0.1c-3.35,1.81-6.35,4.45-9.25,7.06c-2.89,2.65-5.68,5.43-8.35,8.3
			c-2.66,2.89-5.23,5.87-7.67,8.95C73.37,51.37,71.05,54.55,69.01,57.92z M69.01,57.92c2.02-3.38,4.32-6.58,6.72-9.69
			c2.4-3.12,4.91-6.15,7.52-9.1c2.59-2.96,5.29-5.84,8.11-8.59c2.85-2.73,5.71-5.45,9.24-7.51l-0.25,0.27
			c0.9-2.48,1.46-5.1,1.38-7.71c-0.06-2.59-0.74-5.19-2.2-7.24c-0.72-1.02-1.62-1.92-2.66-2.6c-1.04-0.68-2.22-1.15-3.45-1.44
			c-2.48-0.58-5.11-0.45-7.74-0.13c-2.54,0.31-5.03,1.23-7.4,2.36c-2.37,1.14-4.65,2.52-6.82,4.06c-4.29,3.12-8.42,6.64-12.03,10.55
			c-3.62,3.91-6.8,8.27-9.14,13.09c-1.2,2.4-2.16,4.88-3,7.45c-0.84,2.55-1.63,5.14-1.78,7.79c-0.07,1.32,0.03,2.66,0.39,3.93
			c0.35,1.28,0.99,2.46,1.79,3.53c1.66,2.09,3.97,3.67,6.5,4.54c2.54,0.91,5.34,0.92,7.97,0.38c1.32-0.27,2.61-0.72,3.81-1.33
			C67.16,59.9,68.29,59.07,69.01,57.92z"/>
	</g>
	<g>
		<path class="st14" d="M63.4,78.49c0.74-1.8,1.74-3.47,2.94-5.03c0.61-0.77,1.29-1.5,2.11-2.11c0.83-0.6,1.71-1.03,2.62-1.42
			c1.82-0.76,3.78-1.24,5.77-1.28c1.99-0.05,4,0.35,5.8,1.22c1.81,0.85,3.38,2.19,4.54,3.81c1.16,1.62,1.94,3.47,2.38,5.38
			c0.39,1.92,0.62,3.91,0.15,5.88c-0.44,1.97-1.76,3.69-3.43,4.74c-1.66,1.08-3.58,1.73-5.55,1.86c-1.96,0.13-4.02-0.35-5.61-1.55
			c-1.61-1.18-2.7-3.01-3-4.96c-0.32-1.94,0.15-4.07,1.51-5.56c1.37-1.47,3.34-2.2,5.29-2.31c0.98-0.04,1.98,0.08,2.9,0.46
			c0.92,0.38,1.72,0.98,2.39,1.7c0.66,0.73,1.16,1.63,1.31,2.62c0.08,0.49,0.08,1-0.04,1.49c-0.1,0.51-0.42,0.92-0.71,1.31
			c-0.31,0.38-0.64,0.74-1.03,1.05c-0.2,0.15-0.4,0.3-0.66,0.39c-0.24,0.07-0.49,0.11-0.74,0.12c-0.49,0.03-1-0.01-1.47-0.24
			c-0.23-0.11-0.46-0.3-0.54-0.59c-0.08-0.29,0.02-0.56,0.15-0.78c0.03-0.06,0.11-0.08,0.16-0.04s0.08,0.11,0.04,0.16
			c-0.11,0.19-0.18,0.41-0.12,0.6c0.05,0.19,0.22,0.34,0.42,0.43c0.4,0.19,0.89,0.24,1.34,0.21c0.99,0.03,1.62-0.76,2.24-1.47
			c0.28-0.38,0.57-0.75,0.66-1.2c0.1-0.45,0.1-0.92,0.02-1.38c-0.16-0.92-0.63-1.77-1.26-2.45c-0.63-0.69-1.42-1.25-2.28-1.6
			c-0.86-0.36-1.82-0.46-2.75-0.41c-1.86,0.12-3.76,0.85-5.01,2.22c-1.24,1.39-1.68,3.39-1.36,5.22c0.3,1.84,1.34,3.55,2.85,4.64
			c1.5,1.11,3.43,1.55,5.29,1.41c1.87-0.14,3.71-0.77,5.25-1.81c1.56-1.03,2.72-2.6,3.1-4.41c0.41-1.8,0.17-3.73-0.23-5.55
			c-0.87-3.63-3.16-7.02-6.57-8.54c-3.38-1.57-7.39-1.35-10.82,0.11c-0.85,0.37-1.71,0.79-2.44,1.31c-0.73,0.52-1.39,1.2-2.01,1.9
			c-1.24,1.41-2.37,2.97-3.41,4.57l0,0c-0.03,0.05-0.09,0.06-0.14,0.03C63.4,78.59,63.39,78.53,63.4,78.49z"/>
	</g>
	<g>
		<path class="st14" d="M145.01,19.61c-1.03-1.45-2.34-2.68-3.83-3.6c-1.49-0.94-3.18-1.5-4.89-1.86c-1.71-0.37-3.48-0.46-5.2-0.25
			c-1.72,0.22-3.39,0.81-4.86,1.69c-1.47,0.89-2.7,2.14-3.61,3.59c-0.9,1.46-1.47,3.12-1.76,4.82c-0.15,0.86-0.19,1.7-0.18,2.58
			c0,0.86,0.07,1.72,0.27,2.54c0.36,1.65,1.26,3.15,2.59,4.17c1.33,1.02,2.95,1.7,4.63,2.01c1.67,0.32,3.43,0.27,5.03-0.27
			c1.59-0.54,2.99-1.63,3.78-3.1c0.77-1.48,0.95-3.25,0.57-4.9c-0.39-1.63-1.35-3.19-2.84-3.99c-1.48-0.83-3.33-1.04-4.87-0.28
			c-1.52,0.71-2.77,2.26-2.75,4.01c0,0.86,0.31,1.73,0.96,2.32c0.63,0.6,1.51,0.91,2.4,0.96c-0.88-0.01-1.79-0.27-2.49-0.86
			c-0.71-0.58-1.08-1.51-1.11-2.42c-0.09-1.87,1.17-3.58,2.79-4.43c1.66-0.89,3.74-0.7,5.36,0.17c1.69,0.86,2.8,2.56,3.27,4.34
			c0.47,1.79,0.32,3.77-0.55,5.45c-0.88,1.68-2.46,2.92-4.22,3.53c-1.77,0.61-3.67,0.68-5.48,0.35c-1.81-0.32-3.56-1.02-5.05-2.16
			c-1.49-1.16-2.51-2.89-2.88-4.71c-0.2-0.91-0.27-1.83-0.27-2.74c0-0.89,0.06-1.83,0.22-2.72c0.31-1.79,0.94-3.55,1.91-5.1
			c0.98-1.55,2.34-2.87,3.93-3.78c1.59-0.9,3.35-1.48,5.16-1.66c1.8-0.17,3.63-0.04,5.37,0.39c1.73,0.44,3.45,1.07,4.93,2.1
			C142.8,16.79,144.07,18.1,145.01,19.61z"/>
	</g>
	<g>
		<path class="st14" d="M89.23,33.87c0.81-2.24,1.39-4.57,1.6-6.93c0.08-1.18,0.08-2.37-0.14-3.52c-0.24-1.14-0.72-2.24-1.53-3.04
			c-0.22-0.18-0.4-0.41-0.65-0.55l-0.74-0.43c-0.54-0.18-1.07-0.4-1.65-0.44c-0.56-0.13-1.15-0.07-1.73-0.09
			c-0.58,0.08-1.16,0.08-1.73,0.22c-2.3,0.44-4.52,1.32-6.61,2.39c-4.16,2.21-8.04,5.08-10.82,8.88c-1.4,1.88-2.59,3.93-3.49,6.1
			c-0.89,2.16-1.57,4.45-1.67,6.75c-0.05,1.14,0.04,2.31,0.46,3.3c0.22,0.49,0.52,0.92,0.92,1.23c0.42,0.28,0.89,0.51,1.44,0.55
			c1.07,0.17,2.24-0.07,3.34-0.37c1.11-0.32,2.2-0.76,3.25-1.28c2.11-1.03,4.03-2.39,5.58-4.14c0.79-0.86,1.49-1.8,2.08-2.8
			c0.6-1,1.12-2.05,1.43-3.16c0.3-1.09,0.49-2.29,0.11-3.3l-0.15-0.37l-0.23-0.32c-0.13-0.23-0.36-0.38-0.58-0.53
			c-0.45-0.29-1-0.45-1.56-0.54c-2.26-0.3-4.72,0.41-6.3,2.12c-0.79,0.83-1.46,1.86-1.58,2.99c-0.06,0.56,0.09,1.12,0.45,1.55
			c0.37,0.42,0.89,0.73,1.43,0.92c1.08,0.39,2.37,0.37,3.37-0.27c1-0.63,1.55-1.87,1.43-3.05c0.16,1.18-0.35,2.46-1.36,3.15
			c-1.01,0.7-2.36,0.76-3.51,0.39c-0.58-0.18-1.14-0.48-1.57-0.95c-0.43-0.48-0.62-1.14-0.58-1.77c0.1-1.27,0.78-2.37,1.59-3.28
			c0.83-0.9,1.89-1.62,3.07-2c1.17-0.38,2.41-0.54,3.65-0.39c0.62,0.08,1.24,0.25,1.81,0.59c0.27,0.18,0.56,0.37,0.74,0.66
			c0.1,0.13,0.21,0.27,0.3,0.41l0.2,0.45c0.48,1.25,0.27,2.55-0.03,3.73c-0.68,2.37-1.98,4.5-3.61,6.31
			c-1.61,1.83-3.64,3.29-5.81,4.36c-1.09,0.54-2.21,1.01-3.39,1.35c-1.18,0.33-2.41,0.6-3.71,0.42c-0.65-0.06-1.3-0.33-1.86-0.72
			c-0.55-0.41-0.95-0.99-1.22-1.58c-0.52-1.21-0.61-2.49-0.56-3.72c0.13-2.47,0.85-4.83,1.78-7.06c0.95-2.23,2.18-4.33,3.64-6.26
			c1.45-1.94,3.18-3.67,5.08-5.16c1.89-1.5,3.94-2.79,6.1-3.85c2.16-1.06,4.44-1.92,6.84-2.33c0.59-0.14,1.21-0.13,1.81-0.2
			c0.61,0.03,1.23-0.01,1.83,0.13c0.62,0.06,1.2,0.3,1.78,0.51l0.8,0.48c0.27,0.15,0.47,0.41,0.7,0.62c0.86,0.91,1.33,2.11,1.54,3.3
			c0.19,1.2,0.15,2.41,0.03,3.61C90.77,29.34,90.11,31.66,89.23,33.87z"/>
	</g>
	<g>
		
			<ellipse transform="matrix(0.9873 -0.1591 0.1591 0.9873 -11.617 23.5582)" class="st13" cx="141.34" cy="84.34" rx="9.83" ry="16.28"/>
		
			<ellipse transform="matrix(0.9873 -0.1591 0.1591 0.9873 -10.5159 27.1163)" class="st13" cx="164.11" cy="79.24" rx="9.83" ry="16.28"/>
		<g>
			<path class="st15" d="M162.25,82.56c4.2-0.82,8.39-1.64,12.59-2.46"/>
			<path class="st15" d="M168.47,80.89c-0.92-1.96-0.3-4.1,1.15-4.91c1.59-0.88,4.03-0.08,4.48,1.37c0.4,1.28-0.71,3.17-1.9,3.12
				c-0.76-0.03-1.71-0.81-1.69-1.56c0.01-0.48,0.42-0.92,0.87-1c0.11-0.02,0.57-0.1,0.83,0.28c0.18,0.26,0.24,0.59,0.11,0.89"/>
			<path class="st15" d="M168.5,81.38c0.2-2.12-1.04-4.04-2.73-4.56c-2.15-0.67-4.58,1.07-4.52,2.66c0.05,1.32,1.84,2.89,3.11,2.52
				c0.8-0.23,1.56-1.25,1.28-1.97c-0.18-0.46-0.77-0.78-1.28-0.74c-0.13,0.01-0.64,0.06-0.79,0.5c-0.15,0.43,0.17,0.87,0.19,0.9"/>
		</g>
		<g>
			<path class="st15" d="M140.57,87.76c4.2-0.82,8.39-1.64,12.59-2.46"/>
			<path class="st15" d="M146.79,86.09c-0.92-1.96-0.3-4.1,1.15-4.91c1.59-0.88,4.03-0.08,4.48,1.37c0.4,1.28-0.71,3.17-1.9,3.12
				c-0.76-0.03-1.71-0.81-1.69-1.56c0.01-0.48,0.42-0.92,0.87-1c0.11-0.02,0.57-0.1,0.83,0.28c0.18,0.26,0.24,0.59,0.11,0.89"/>
			<path class="st15" d="M146.82,86.58c0.2-2.12-1.04-4.04-2.73-4.56c-2.15-0.67-4.58,1.07-4.52,2.66c0.05,1.32,1.84,2.89,3.11,2.52
				c0.8-0.23,1.56-1.25,1.28-1.97c-0.18-0.46-0.77-0.78-1.28-0.74c-0.13,0.01-0.64,0.06-0.79,0.5c-0.15,0.43,0.17,0.87,0.19,0.9"/>
		</g>
	</g>
	<path class="st11" d="M130.44,249.91c1.3,0.94,5.3,3.61,11.45,4.07c7.37,0.56,12.6-2.44,13.83-3.18c1.2-2.71,4.9-10.02,13.92-15.29
		c10.48-6.12,21.14-5.38,24.16-5.08c1.61,2.29,1.8,4.15,1.68,5.38c-0.47,4.85-6.49,7.94-11.41,10.46c-3.44,1.76-6.69,2.87-9.39,3.59
		c3.59,1.35,9.05,3.72,14.76,7.77c6.8,4.81,8.45,8.09,18.12,16.44c10.29,8.89,13.59,9.64,15.77,9.86c0.62,0.06,9.79,0.85,14.76-5.38
		c2.83-3.54,3.43-8.27,1.68-12.25c-0.41-0.93-2.29-5.21-7.38-6.87c-0.93-0.31-6.2-2.03-10.06,0.9c-3.39,2.57-3.84,7.31-1.68,10.46
		c1.28,1.86,4.19,4.21,7.38,3.59c2.01-0.4,4.34-2.02,4.36-4.18c0.01-1.29-0.79-3.1-2.68-3.59c-1.4-0.35-2.97,0.11-4.03,1.2"/>
	<path class="st11" d="M118.26,236.71c-4.37-2.56-8.31-4.01-11.09-4.85c-5.12-1.55-11.91-3.6-15.69-0.75
		c-0.28,0.21-1.99,1.54-2.09,3.45c-0.06,1.11,0.38,3.11,6.07,6.71c6.53,4.14,12.74,5.81,14.86,6.34c3.49,0.87,8.52,1.8,14.75,1.86"
		/>
	<path class="st16" d="M192.91,414.95c3.54,4.19,9.27,9.59,17.88,13.45c5.17,2.32,11.57,5.19,19.87,4.25
		c8.46-0.96,13.96-5.31,17.09-7.79c3.55-2.81,13.82-10.94,13.11-23.01c-0.12-2.03-0.6-9.48-7.15-15.22
		c-7.8-6.84-19.68-7.31-28.21-4.25c-6.07,2.18-15.67,8.02-15.5,16.28c0.08,3.73,2.16,8.61,7.15,10.97c4.5,2.13,10.93,1.99,14.7-1.42
		c3.58-3.23,4.5-9.17,1.99-10.97c-1.67-1.2-5.47-1.02-6.76,1.06c-0.94,1.52-0.37,3.79,1.59,5.31"/>
	<path class="st17" d="M73.3,410.71c-3.66,4.19-9.59,9.59-18.49,13.45c-5.35,2.32-11.96,5.19-20.55,4.25
		c-8.75-0.96-14.44-5.31-17.67-7.79c-3.67-2.81-14.29-10.94-13.56-23.01c0.12-2.03,0.62-9.48,7.4-15.22
		c8.07-6.84,20.35-7.31,29.17-4.25c6.28,2.18,16.2,8.02,16.03,16.28c-0.08,3.73-2.23,8.61-7.4,10.97c-4.66,2.13-11.3,1.99-15.2-1.42
		c-3.7-3.23-4.66-9.17-2.05-10.97c1.73-1.2,5.66-1.02,6.99,1.06c0.97,1.52,0.39,3.79-1.64,5.31"/>
	<g>
		<path class="st5" d="M71.21,128.68c0.33,0.82,0.39,1.35,0.32,1.76c-0.07,0.4-0.33,0.63-0.52,0.91c-0.4,0.56-0.82,1.09-1.19,1.66
			l-1.09,1.71l-0.54,0.85l-0.48,0.88c-1.35,2.3-2.34,4.7-3.07,7.04c-0.7,2.34-1,4.64-0.79,6.74c0.1,1.05,0.29,2.06,0.67,3.02
			c0.18,0.48,0.36,0.96,0.61,1.42c0.22,0.46,0.52,0.96,0.79,1.33c0.55,0.8,1.23,1.59,2.04,2.32c0.8,0.74,1.7,1.45,2.68,2.1
			c1.95,1.32,4.19,2.44,6.57,3.32c4.76,1.75,10.25,2.35,15.3,0.98c5.05-1.29,9.56-4.41,12.3-8.72c0.35-0.53,0.64-1.1,0.96-1.65
			c0.25-0.57,0.55-1.11,0.75-1.7c0.47-1.15,0.76-2.37,0.98-3.58c0.21-1.22,0.25-2.44,0.22-3.65c-0.1-1.19-0.23-2.38-0.6-3.49
			c-0.12-0.57-0.39-1.08-0.57-1.63c-0.28-0.49-0.47-1.04-0.82-1.49c-0.57-0.98-1.35-1.81-2.17-2.61c-0.42-0.38-0.9-0.75-1.33-1.08
			l-0.66-0.42l-0.79-0.42c-1.11-0.53-2.3-1.06-3.55-1.51c-2.49-0.93-5.08-1.82-7.69-2.61c-1.3-0.43-2.62-0.8-3.93-1.2
			c-1.29-0.36-2.68-0.77-3.82-0.99l-0.14-2.08c0.84-0.14,1.58-0.19,2.31-0.19c0.74-0.02,1.46,0.01,2.18,0.04
			c1.44,0.07,2.86,0.22,4.28,0.4c2.83,0.4,5.64,0.94,8.44,1.78c1.4,0.41,2.8,0.91,4.23,1.55l1.08,0.53
			c0.37,0.21,0.75,0.45,1.12,0.68c0.68,0.49,1.31,0.98,1.93,1.52c2.42,2.22,4.23,5.21,4.96,8.39c0.77,3.17,0.65,6.42-0.1,9.44
			c-0.73,3-2.13,5.9-3.95,8.29c-1.81,2.43-4.04,4.54-6.52,6.23c-2.49,1.68-5.24,2.93-8.08,3.79c-2.84,0.87-5.77,1.43-8.74,1.67
			c-1.49,0.15-2.99,0.19-4.5,0.16c-1.51-0.02-3.03-0.13-4.55-0.35c-3.03-0.44-6.08-1.24-8.96-2.72c-1.44-0.72-2.84-1.62-4.14-2.72
			c-1.31-1.07-2.51-2.39-3.5-3.91c-1.92-2.91-3.03-6.45-3.02-9.93c0-3.48,0.96-6.75,2.4-9.54c0.33-0.72,0.74-1.38,1.14-2.04
			c0.4-0.66,0.81-1.32,1.28-1.91l1.36-1.8l1.49-1.66l0.74-0.82l0.79-0.76l1.57-1.52c0.52-0.5,1.09-0.95,1.63-1.42
			c0.28-0.22,0.51-0.51,0.91-0.61C69.87,128.36,70.4,128.38,71.21,128.68z"/>
	</g>
	<ellipse class="st18" cx="161.1" cy="571.51" rx="9.6" ry="2.21"/>
	<ellipse class="st18" cx="114.38" cy="570.34" rx="10.2" ry="1.95"/>
</g>
<g id="Layer_5">
	
		<ellipse transform="matrix(0.3243 -0.946 0.946 0.3243 27.9279 392.0234)" class="st19" cx="288.38" cy="176.46" rx="2.47" ry="8.83"/>
	<path class="st20" d="M172.95,248.32c1.31,2.13,3.23,5.44,5.25,9.66c2.57,5.36,3.21,7.86,6.27,15.93
		c3.76,9.93,5.7,14.98,8.47,18.98c4.75,6.86,8.99,9.22,10.51,10c2.74,1.4,6.73,3.44,11.36,2.03c5.36-1.62,7.5-6.64,7.63-6.95
		c1.73-4.23,0.36-8.02-0.17-9.49c-0.7-1.95-1.84-5.1-5.08-6.61c-0.44-0.2-4.4-1.97-7.8,0.34c-2.53,1.72-4.16,5.32-2.88,8.31
		c0.74,1.72,2.55,3.49,4.92,3.56c1.44,0.04,3.76-0.52,4.58-2.54c0.7-1.74,0.08-4.04-1.53-4.92c-0.98-0.54-2.77-0.77-3.56,0.34
		c-0.53,0.75-0.46,1.9,0.17,2.88"/>
	
		<ellipse transform="matrix(0.6358 -0.7719 0.7719 0.6358 -169.7968 173.1926)" class="st19" cx="98.61" cy="266.51" rx="2.12" ry="7.71"/>
	
		<pattern  id="SVGID_2_" xlink:href="#New_Pattern_Swatch_1" patternTransform="matrix(0.1667 -0.0343 0.0339 0.1644 -4382.0869 -6179.0503)">
	</pattern>
	<path style="opacity:0.12;fill:url(#SVGID_2_);" d="M260.69,425.79c-0.04,4.16-5.35,49.02-6.24,53.47
		c-20.29,0.03-44.56,0.5-64.85,0.52c2.32-1.33-4.63-51.97-5.26-54.29C201.27,425.5,244.05,424.31,260.69,425.79z"/>
	<g>
		<g>
			<path class="st32" d="M276.95,343.99c-7.55,8.41-15.77,18.64-23.89,30.86c-7.22,10.87-13.03,21.29-17.7,30.73"/>
			<path class="st13" d="M278.21,345.12c-3.93,4.76-7.85,9.52-11.58,14.43c-3.76,4.88-7.31,9.93-10.75,15.04
				c-1.73,2.55-3.4,5.14-5.09,7.72l-4.96,7.81c-1.66,2.6-3.4,5.16-5.03,7.8c-0.82,1.31-1.64,2.63-2.4,3.98
				c-0.39,0.67-0.76,1.35-1.13,2.03l-0.55,1.02l-0.27,0.51c-0.11,0.16-0.1,0.38,0.43,0.86c-0.41,0.84-1.43,1.18-2.27,0.77
				c-0.84-0.41-1.18-1.43-0.77-2.27c0.7,0.13,0.89,0,0.95-0.18l0.25-0.53l0.5-1.06c0.34-0.7,0.67-1.41,0.99-2.12l1.94-4.27
				c1.31-2.84,2.59-5.7,4.05-8.47c1.45-2.78,3.04-5.47,4.66-8.15c1.61-2.69,3.32-5.31,5.06-7.91c3.51-5.19,7.24-10.22,11.12-15.13
				c3.9-4.89,7.96-9.67,12.33-14.15c0.65-0.67,1.72-0.69,2.39-0.03C278.72,343.44,278.76,344.45,278.21,345.12z"/>
		</g>
		
			<ellipse transform="matrix(0.3645 -0.9312 0.9312 0.3645 -238.6734 479.1769)" class="st33" cx="231.74" cy="414.46" rx="11.17" ry="2.26"/>
		<g>
			<path class="st13" d="M430.85,338.11c2.7,1.53,5.24,3.31,7.7,5.2c2.45,1.89,4.86,3.85,7.17,5.92c4.63,4.12,8.97,8.56,12.96,13.29
				c3.99,4.73,7.6,9.77,10.93,14.98c3.31,5.23,6.27,10.66,8.95,16.24c0.4,0.84,0.05,1.85-0.8,2.26c-0.84,0.4-1.85,0.05-2.26-0.8
				c-0.01-0.02-0.02-0.04-0.03-0.06c-2.4-5.54-5.24-10.89-8.48-15.99c-3.24-5.1-6.9-9.92-10.83-14.48
				c-3.95-4.56-8.24-8.82-12.8-12.75c-4.54-3.97-9.49-7.41-14.36-10.97c-0.76-0.55-0.92-1.61-0.37-2.37
				C429.15,337.88,430.11,337.69,430.85,338.11z"/>
		</g>
		
			<ellipse transform="matrix(0.8884 -0.4592 0.4592 0.8884 -132.0191 266.8027)" class="st34" cx="482.61" cy="404.87" rx="3.15" ry="11.56"/>
		<ellipse class="st35" cx="348.46" cy="221.08" rx="144.54" ry="111.08"/>
		<g>
			<path class="st36" d="M459.21,153.68c-1.19-2.75-6.36-13.93-15.46-15.5c-12.69-2.2-25.57,15.58-26.86,31.11
				c-1.79,21.4,17.85,41.75,38.03,42.32c15.03,0.43,29.41-12.35,27.87-27.4c-1.22-11.92-12.55-26.54-25.03-27.12
				c-9.21-0.43-19.22,6.79-17.87,15.07c1.22,7.49,9.47,15.73,15.25,13.18c3.48-1.54,4.71-6.49,5.08-8.28"/>
			<path class="st13" d="M459.21,153.68c-1.28-2.54-2.78-4.97-4.53-7.17c-1.74-2.2-3.77-4.18-6.12-5.56c-2.33-1.4-5-2.07-7.59-1.84
				c-2.61,0.21-5.09,1.33-7.29,2.83c-4.43,3.05-7.77,7.6-10.28,12.41c-2.47,4.86-4.08,10.2-4.37,15.5
				c-0.29,5.32,0.9,10.64,3.06,15.52c2.19,4.88,5.31,9.36,9.11,13.2c3.82,3.81,8.35,6.98,13.36,9.02
				c5.01,1.99,10.55,2.82,15.78,1.88c2.62-0.52,5.15-1.47,7.52-2.7c2.38-1.24,4.5-2.92,6.39-4.79c1.91-1.86,3.41-4.1,4.54-6.45
				c0.25-0.61,0.6-1.17,0.77-1.8l0.61-1.86c0.25-1.27,0.57-2.53,0.59-3.83c0.42-5.13-1.51-10.35-4.24-14.9
				c-0.67-1.16-1.47-2.23-2.26-3.31c-0.85-1.02-1.69-2.06-2.64-2.99c-1.87-1.87-3.9-3.56-6.14-4.84c-2.24-1.25-4.64-2.1-7.06-2.36
				c-2.41-0.3-4.93,0.09-7.29,0.95c-2.35,0.85-4.6,2.15-6.28,3.91c-0.89,0.85-1.53,1.85-2.09,2.85c-0.51,1.03-0.79,2.11-0.87,3.21
				c0,1.07,0.15,2.28,0.57,3.47c0.39,1.18,0.89,2.38,1.57,3.48c0.65,1.12,1.43,2.17,2.31,3.12c0.86,0.98,1.84,1.81,2.89,2.51
				c2.09,1.41,4.58,1.88,6.51,0.53c0.96-0.69,1.78-1.73,2.41-2.91c0.64-1.18,1.15-2.47,1.53-3.81l0-0.01
				c0.08-0.3,0.39-0.47,0.69-0.38c0.27,0.08,0.44,0.34,0.4,0.61c-0.2,1.45-0.5,2.9-1.05,4.31c-0.55,1.4-1.31,2.81-2.57,3.93
				c-1.24,1.14-3.05,1.75-4.75,1.72c-1.72-0.02-3.32-0.57-4.71-1.33c-2.81-1.51-5.05-3.73-6.8-6.29c-1.74-2.58-3.1-5.46-3.22-9.02
				c0.02-1.75,0.4-3.47,1.09-5.03c0.72-1.52,1.63-2.96,2.77-4.12c2.21-2.42,4.98-4.11,7.93-5.27c2.95-1.15,6.21-1.67,9.46-1.32
				c3.24,0.3,6.32,1.42,9.01,2.98c2.69,1.59,5.08,3.55,7.16,5.77c2.09,2.21,3.88,4.66,5.37,7.29c1.49,2.62,2.71,5.41,3.54,8.35
				l0.52,2.24c0.13,0.76,0.22,1.53,0.33,2.3c0.08,0.77,0.06,1.56,0.09,2.33c0,0.39,0.03,0.78,0,1.17l-0.12,1.16
				c-0.09,1.56-0.5,3.06-0.86,4.57l-0.79,2.18c-0.23,0.74-0.65,1.39-0.97,2.09c-1.43,2.7-3.2,5.23-5.41,7.31
				c-2.19,2.08-4.62,3.91-7.3,5.3c-2.68,1.37-5.54,2.4-8.5,2.99c-2.97,0.55-6.05,0.65-9.01,0.3l-1.12-0.09l-1.1-0.21l-2.21-0.42
				c-0.75-0.11-1.44-0.4-2.16-0.59l-2.15-0.64c-5.64-1.99-10.79-5.24-15.17-9.3c-4.38-4.05-8-9.01-10.35-14.56
				c-2.39-5.53-3.48-11.68-2.98-17.73c0.23-3.03,0.89-5.98,1.84-8.8c0.94-2.83,2.17-5.54,3.62-8.12c1.47-2.57,3.17-5.02,5.17-7.22
				c1.98-2.21,4.24-4.21,6.83-5.77c2.57-1.55,5.55-2.64,8.65-2.69c3.09-0.09,6.15,0.96,8.54,2.72c2.44,1.72,4.36,3.97,5.95,6.37
				C456.97,148.42,458.2,151.02,459.21,153.68z"/>
		</g>
		<g>
			<path class="st36" d="M240.88,150.11c1.49-2.56,7.86-12.93,17-13.23c12.74-0.41,23.38,19,22.88,34.58
				c-0.69,21.47-22.37,38.92-42.3,36.68c-14.85-1.66-27.53-16.33-24.3-31.04c2.56-11.65,15.4-24.58,27.76-23.42
				c9.12,0.86,18.14,9.4,15.86,17.43c-2.07,7.26-11.13,14.28-16.53,10.95c-3.25-2-3.89-7.09-4.05-8.92"/>
			<path class="st13" d="M240.88,150.11c1.28-2.53,2.76-4.99,4.63-7.2c1.83-2.22,4.03-4.23,6.71-5.63c0.65-0.38,1.38-0.62,2.08-0.92
				l1.11-0.32c0.37-0.12,0.74-0.21,1.13-0.25c1.53-0.31,3.12-0.26,4.66,0c3.1,0.54,5.92,2.05,8.29,3.94c1.2,0.94,2.28,2,3.29,3.12
				c1.01,1.11,1.94,2.3,2.79,3.52c1.71,2.45,3.14,5.08,4.31,7.82c2.27,5.49,3.69,11.4,3.6,17.55c-0.15,6.15-1.95,12.2-4.92,17.52
				l-1.15,1.98c-0.39,0.66-0.88,1.24-1.32,1.87l-1.35,1.84l-1.51,1.71c-0.51,0.56-1.01,1.13-1.56,1.66l-1.69,1.52
				c-1.09,1.06-2.33,1.93-3.56,2.81c-1.19,0.93-2.55,1.62-3.84,2.4c-0.64,0.4-1.33,0.71-2.02,1.02l-2.05,0.94
				c-1.38,0.59-2.83,1.02-4.24,1.53c-1.46,0.37-2.92,0.75-4.38,1.04c-2.97,0.45-5.97,0.74-8.96,0.52c-2.98-0.12-6-0.73-8.83-1.73
				c-2.84-1-5.52-2.34-8.14-3.88c-2.62-1.55-4.97-3.58-6.92-5.98c-0.46-0.62-0.94-1.23-1.37-1.87l-1.17-2.01
				c-0.42-0.65-0.67-1.4-1.01-2.1l-0.48-1.06c-0.13-0.37-0.25-0.74-0.37-1.11c-0.22-0.75-0.53-1.47-0.68-2.24l-0.48-2.3
				c-0.16-1.56-0.37-3.13-0.25-4.71c-0.02-1.58,0.33-3.13,0.59-4.68l0.64-2.25l0.83-2.16c1.21-2.82,2.8-5.42,4.64-7.8
				c1.83-2.39,3.95-4.55,6.32-6.42c2.37-1.87,4.98-3.48,7.84-4.62c2.86-1.14,6.02-1.72,9.18-1.51c3.18,0.16,6.2,1.2,8.86,2.72
				c2.67,1.53,5.07,3.55,6.86,6.13c0.93,1.25,1.61,2.72,2.13,4.23c0.47,1.55,0.66,3.2,0.5,4.84c-0.46,3.33-2.08,6-4.04,8.31
				c-0.98,1.15-2.09,2.19-3.31,3.09c-1.2,0.92-2.54,1.68-3.99,2.24c-1.43,0.56-3.04,0.9-4.69,0.69c-1.63-0.2-3.26-1.02-4.32-2.26
				c-1.08-1.22-1.69-2.68-2.11-4.11c-0.42-1.44-0.62-2.9-0.71-4.36c-0.03-0.41,0.28-0.76,0.69-0.78c0.39-0.02,0.73,0.26,0.78,0.65
				l0,0.01c0.16,1.36,0.43,2.71,0.88,3.97c0.44,1.26,1.06,2.43,1.91,3.3c0.43,0.42,0.88,0.81,1.43,1.01
				c0.27,0.11,0.51,0.26,0.81,0.29c0.29,0.04,0.55,0.17,0.86,0.14c1.17,0.11,2.42-0.2,3.59-0.73c1.17-0.52,2.29-1.21,3.3-2.07
				c1.02-0.83,1.95-1.79,2.76-2.83c0.83-1.02,1.5-2.16,2.05-3.32c0.58-1.16,0.89-2.39,1.02-3.54c0.07-1.18-0.11-2.38-0.49-3.53
				c-0.45-1.14-1-2.26-1.8-3.26c-1.51-2.04-3.6-3.69-5.88-4.89c-4.6-2.54-9.94-2.58-14.69-0.51c-2.38,1.01-4.61,2.44-6.65,4.12
				c-2.04,1.67-3.88,3.63-5.45,5.77c-3.11,4.26-5.45,9.23-5.4,14.25c-0.09,1.26,0.13,2.51,0.27,3.76l0.43,1.85
				c0.12,0.62,0.4,1.2,0.59,1.81c0.89,2.38,2.14,4.64,3.72,6.68c0.36,0.54,0.79,1.02,1.19,1.53c0.41,0.5,0.79,1.03,1.25,1.49
				l1.33,1.45l1.45,1.35c2,1.72,4.3,3.18,6.83,4.01c0.62,0.24,1.28,0.35,1.91,0.54l0.96,0.25l0.98,0.15
				c0.66,0.08,1.29,0.24,1.96,0.25l2,0.04l1,0.02c0.33,0,0.67-0.06,1-0.08l1.99-0.2c0.66-0.04,1.31-0.22,1.97-0.37l1.95-0.44
				c5.16-1.38,9.89-4.07,14.02-7.35c1.01-0.86,2.07-1.64,2.98-2.6l1.42-1.37c0.46-0.47,0.86-0.99,1.31-1.47l1.32-1.46l1.17-1.58
				c0.38-0.53,0.81-1.03,1.14-1.59l1.03-1.67c2.69-4.47,4.38-9.53,4.68-14.72c0.32-5.19-0.63-10.59-2.44-15.64
				c-1.83-5.03-4.51-9.9-8.35-13.5c-1.9-1.8-4.13-3.23-6.59-3.87c-1.22-0.32-2.5-0.46-3.77-0.33c-0.32,0-0.64,0.04-0.96,0.11
				l-0.96,0.17c-0.62,0.21-1.27,0.34-1.87,0.62c-2.47,1-4.74,2.64-6.75,4.56C244.28,145.58,242.48,147.77,240.88,150.11z"/>
		</g>
		<g>
			
				<ellipse transform="matrix(0.7526 -0.6585 0.6585 0.7526 -284.3484 340.0075)" class="st37" cx="310.28" cy="548.39" rx="16.08" ry="6.78"/>
			
				<ellipse transform="matrix(0.6317 -0.7752 0.7752 0.6317 -272.6513 515.7406)" class="st37" cx="406.49" cy="544.84" rx="6.8" ry="16.04"/>
		</g>
		<g>
			<ellipse class="st3" cx="362.32" cy="168.67" rx="19.78" ry="37.85"/>
			<path class="st13" d="M384.63,168.67c0.11,7.99-0.94,16.07-3.78,23.78c-1.46,3.84-3.36,7.61-6.23,10.95
				c-1.45,1.65-3.13,3.22-5.21,4.4c-2.05,1.2-4.54,1.96-7.08,2.01c-2.54,0.01-5.06-0.69-7.16-1.86c-2.14-1.14-3.86-2.7-5.34-4.35
				c-2.94-3.35-4.83-7.17-6.3-11.03c-2.85-7.76-3.89-15.87-3.77-23.89c0.15-8.01,1.49-16.05,4.55-23.58
				c1.57-3.74,3.54-7.4,6.41-10.54c1.44-1.55,3.08-3,5.06-4.05c1.95-1.08,4.25-1.71,6.56-1.69c1.15,0.03,2.3,0.16,3.4,0.48
				c1.09,0.33,2.16,0.72,3.13,1.27c1.97,1.05,3.64,2.46,5.09,4.01c2.89,3.12,4.83,6.81,6.36,10.56
				C383.27,152.66,384.54,160.68,384.63,168.67z M379.56,168.67c0.06-7.45-0.99-14.98-3.58-21.87c-1.31-3.42-3.05-6.68-5.31-9.34
				c-2.21-2.67-5.19-4.66-8.35-4.61c-3.14,0.04-6.09,1.97-8.34,4.61c-2.28,2.65-3.99,5.93-5.26,9.36
				c-2.51,6.91-3.49,14.43-3.37,21.85c0.14,7.42,1.41,14.86,4.14,21.54c1.37,3.31,3.16,6.43,5.37,8.87
				c2.19,2.46,4.81,4.12,7.46,4.14c2.64,0.09,5.41-1.48,7.67-3.96c2.28-2.45,4.06-5.62,5.44-8.95
				C378.16,183.59,379.42,176.11,379.56,168.67z"/>
		</g>
		<g>
			<ellipse class="st3" cx="330.81" cy="170.67" rx="19.78" ry="37.85"/>
			<path class="st13" d="M353.43,170.67c0.15,8.02-1.04,16.14-4.02,23.81c-1.51,3.82-3.5,7.55-6.43,10.81
				c-1.47,1.61-3.17,3.12-5.24,4.23c-2.04,1.14-4.47,1.82-6.93,1.81c-2.46-0.02-4.87-0.73-6.88-1.89c-2.05-1.13-3.71-2.65-5.15-4.27
				c-2.87-3.26-4.8-7-6.28-10.8c-2.91-7.65-4.04-15.71-4-23.7c0.05-7.99,1.35-16.02,4.36-23.56c1.52-3.75,3.52-7.43,6.55-10.39
				c1.49-1.48,3.19-2.8,5.13-3.76c1.92-0.98,4.09-1.57,6.29-1.59c2.2-0.01,4.4,0.58,6.27,1.62c1.91,1.01,3.53,2.39,4.95,3.9
				c2.85,3.03,4.91,6.6,6.52,10.3c1.6,3.71,2.78,7.58,3.57,11.51C352.89,162.65,353.31,166.65,353.43,170.67z M347.74,170.67
				c0.1-3.72-0.07-7.45-0.57-11.13c-0.48-3.68-1.26-7.34-2.46-10.83c-1.23-3.47-2.85-6.84-5.16-9.6c-1.16-1.35-2.46-2.59-3.96-3.44
				c-1.48-0.87-3.12-1.35-4.79-1.4c-0.83,0.03-1.66,0.12-2.47,0.36c-0.79,0.28-1.59,0.58-2.3,1.07c-1.46,0.89-2.69,2.2-3.78,3.58
				c-2.13,2.83-3.81,6.09-5.12,9.51c-2.57,6.9-3.59,14.43-3.56,21.87c0.06,7.45,1.24,14.94,3.91,21.73c1.35,3.37,3.1,6.58,5.39,9.1
				c2.26,2.54,5.1,4.24,7.93,4.2c2.83-0.02,5.59-1.78,7.79-4.32c2.23-2.53,3.92-5.74,5.24-9.09
				C346.44,185.52,347.57,178.08,347.74,170.67z"/>
		</g>
		<g>
			<g>
				<path class="st13" d="M341.99,220.73c0.25,1.15-0.39,1.47-0.72,2.06c-0.38,0.55-0.73,1.12-1.04,1.7
					c-0.61,1.15-1.08,2.37-1.12,3.51c-0.06,1.14,0.32,2.06,1.11,2.89c0.77,0.82,1.83,1.49,2.96,2.03c1.13,0.55,2.35,1,3.61,1.35
					c1.25,0.37,2.54,0.67,3.84,0.89c1.3,0.24,2.62,0.42,3.94,0.54c1.32,0.14,2.65,0.2,3.97,0.2c2.64,0.02,5.29-0.17,7.77-0.76
					c2.44-0.56,4.89-1.63,5.87-3.39c0.47-0.85,0.6-2.08,0.46-3.31c-0.14-1.24-0.5-2.51-0.99-3.74c-0.47-1.24-1.1-2.44-1.76-3.63
					c-0.35-0.58-0.7-1.17-1.06-1.75l-0.57-0.85c-0.2-0.28-0.41-0.55-0.22-1.13c0.6-0.04,0.81,0.25,1.03,0.52l0.68,0.8
					c0.44,0.54,0.86,1.11,1.3,1.66c0.82,1.15,1.62,2.32,2.29,3.61c0.69,1.27,1.26,2.63,1.6,4.13c0.32,1.48,0.44,3.15-0.22,4.85
					c-0.72,1.65-1.98,2.86-3.32,3.71c-1.35,0.84-2.77,1.41-4.21,1.83c-2.87,0.83-5.79,1.1-8.67,1.11c-2.89-0.01-5.76-0.31-8.59-0.91
					c-2.82-0.63-5.62-1.51-8.22-3.05c-1.28-0.78-2.54-1.72-3.55-3.03c-1.04-1.25-1.61-3.2-1.27-4.81c0.26-1.63,1.01-2.98,1.82-4.19
					c0.42-0.6,0.86-1.17,1.33-1.71C340.56,221.35,340.82,220.61,341.99,220.73z"/>
			</g>
			<g>
				<path class="st13" d="M368.05,217.33c0.08-0.41,0.3-0.66,0.54-0.87c0.24-0.22,0.52-0.39,0.78-0.59c0.52-0.4,1.09-0.72,1.66-1.05
					c1.15-0.64,2.4-1.12,3.7-1.44c2.59-0.63,5.45-0.64,8.12,0.39c1.33,0.51,2.58,1.33,3.62,2.34c1.03,1.01,1.88,2.19,2.51,3.48
					c0.62,1.3,1.06,2.69,1.21,4.18c0.13,1.48,0,3.06-0.68,4.58c-0.33,0.76-0.86,1.45-1.47,2.05c-0.63,0.57-1.34,1.03-2.05,1.33
					c-1.44,0.62-2.91,0.88-4.37,0.86c-1.46-0.04-2.92-0.3-4.33-0.95c-0.69-0.37-1.39-0.76-1.97-1.42c-0.58-0.63-1.03-1.46-1.2-2.25
					c-0.36-1.6-0.15-3.17,0.57-4.56c0.37-0.69,0.9-1.33,1.59-1.8c0.7-0.47,1.54-0.7,2.28-0.71c0.76-0.01,1.5,0.12,2.2,0.43
					c0.69,0.3,1.33,0.81,1.71,1.49c0.38,0.67,0.48,1.45,0.35,2.15c-0.14,0.7-0.47,1.32-0.9,1.81c-0.05,0.06-0.14,0.06-0.19,0.01
					c-0.05-0.04-0.06-0.11-0.03-0.17c0.58-1.09,0.55-2.43-0.14-3.19c-0.66-0.77-1.82-0.99-2.83-0.79c-1.03,0.17-1.64,0.8-2,1.73
					c-0.34,0.91-0.38,2.02-0.07,2.87c0.15,0.44,0.38,0.73,0.68,1c0.28,0.29,0.73,0.5,1.16,0.71c0.93,0.36,2.03,0.5,3.1,0.46
					c1.07-0.03,2.15-0.26,3.03-0.68c0.91-0.42,1.45-0.98,1.81-1.8c0.75-1.63,0.49-4.01-0.37-6c-0.86-2.03-2.29-3.82-4.26-4.86
					c-1.97-1.08-4.42-1.44-6.8-1.16c-1.19,0.14-2.39,0.43-3.52,0.89c-0.56,0.23-1.14,0.47-1.67,0.79c-0.27,0.16-0.55,0.29-0.8,0.47
					C368.76,217.23,368.48,217.36,368.05,217.33z"/>
			</g>
			<g>
				<path class="st13" d="M341.92,220.54c-0.94,0.14-1.41-0.26-2-0.54c-0.56-0.31-1.17-0.54-1.76-0.77
					c-1.2-0.46-2.45-0.73-3.71-0.89c-2.5-0.31-5.07-0.04-7.26,0.92c-2.19,0.92-3.91,2.58-4.98,4.64c-1.08,2-1.45,4.51-0.62,6.18
					c0.64,1.65,3.03,2.46,5.37,2.57c1.17,0.06,2.37-0.07,3.42-0.41c0.53-0.16,1-0.4,1.38-0.68l0.28-0.21
					c0.07-0.08,0.14-0.16,0.21-0.23c0.15-0.15,0.25-0.33,0.35-0.54c0.39-0.83,0.37-2.01-0.02-2.95c-0.4-0.97-1.13-1.62-2.26-1.8
					c-1.1-0.2-2.38-0.02-3.15,0.72c-0.8,0.72-0.85,2.14-0.16,3.23c0.05,0.09,0.03,0.2-0.06,0.26c-0.08,0.05-0.18,0.03-0.24-0.03
					c-0.47-0.52-0.85-1.17-0.96-1.93c-0.11-0.75,0.07-1.6,0.56-2.25c0.47-0.67,1.19-1.11,1.91-1.37c0.73-0.27,1.5-0.38,2.27-0.35
					c0.77,0.02,1.62,0.24,2.35,0.7c0.73,0.45,1.31,1.11,1.71,1.83c0.79,1.45,1.01,3.16,0.46,4.85c-0.28,0.83-0.85,1.67-1.51,2.2
					c-0.66,0.56-1.39,0.96-2.12,1.24c-1.47,0.57-2.97,0.8-4.47,0.82c-1.5,0-3.02-0.24-4.51-0.83c-0.74-0.28-1.49-0.71-2.17-1.27
					c-0.66-0.59-1.26-1.29-1.63-2.09c-0.78-1.58-0.92-3.3-0.74-4.86c0.2-1.57,0.74-3.04,1.48-4.37c0.76-1.32,1.75-2.51,2.92-3.49
					c1.18-0.97,2.55-1.71,3.97-2.16c2.84-0.91,5.81-0.9,8.56-0.26c1.38,0.33,2.72,0.78,3.96,1.42c0.62,0.32,1.24,0.64,1.81,1.04
					C341.15,219.24,341.75,219.63,341.92,220.54z"/>
			</g>
		</g>
		<g>
			<g>
				<path class="st3" d="M318.82,241.68c2.84,4.15,14.83,20.74,33.32,21.25c20.94,0.57,34.3-19.92,36.59-23.55
					c-0.52,28.71-14.32,52.02-31.11,54.87C338.76,297.44,320.43,274.1,318.82,241.68z"/>
				<path class="st13" d="M318.27,240.07c0.37-0.04,1.09,0.04,1.61,0.44c0.26,0.18,0.45,0.4,0.59,0.59l0.11,0.16l0.38,0.54
					l0.78,1.06c0.52,0.7,1.07,1.39,1.62,2.07c1.11,1.35,2.28,2.66,3.51,3.91c2.45,2.49,5.13,4.76,8.03,6.66
					c2.9,1.89,6.02,3.43,9.29,4.42c3.27,0.99,6.7,1.44,10.11,1.29c6.84-0.26,13.41-3.1,18.95-7.27c5.56-4.18,10.28-9.57,14.05-15.46
					l3.32-5.21l-0.2,6.14v0c0,11.9-2.25,23.94-7.51,34.86c-2.63,5.44-6.09,10.59-10.66,14.82c-2.3,2.09-4.87,3.95-7.76,5.33
					c-2.88,1.36-6.06,2.26-9.31,2.4c-3.25,0.17-6.51-0.44-9.5-1.57c-3-1.14-5.73-2.79-8.17-4.73c-4.87-3.91-8.66-8.87-11.56-14.19
					c-2.91-5.33-4.99-11.02-6.45-16.84c-0.71-2.91-1.25-5.86-1.65-8.82c-0.2-1.48-0.35-2.97-0.48-4.45l-0.14-2.23l-0.03-0.56
					l-0.01-0.15l-0.01-0.3c0-0.21,0.01-0.43,0.05-0.66c0.06-0.46,0.23-0.94,0.44-1.33C317.87,240.61,318.1,240.31,318.27,240.07z
					 M319.36,243.28c0.2,0.12,0.45,0.19,0.68,0.17c0.23-0.02,0.42-0.14,0.5-0.24c0.04-0.05,0.07-0.08,0.08-0.11
					c0.01-0.01,0.01-0.02,0.01-0.03l0.01,0.13l0.05,0.54l0.23,2.14c0.17,1.42,0.36,2.84,0.6,4.25c0.47,2.82,1.08,5.62,1.84,8.36
					c1.49,5.5,3.58,10.83,6.38,15.72c2.8,4.87,6.26,9.38,10.56,12.76c4.26,3.38,9.45,5.49,14.66,5.24c2.6-0.1,5.16-0.8,7.57-1.92
					c2.41-1.13,4.64-2.71,6.67-4.53c4.06-3.7,7.26-8.4,9.83-13.41c2.56-5.04,4.41-10.46,5.72-16.01c1.34-5.55,2.01-11.27,2.28-17v0
					l3.12,0.93c-1.98,3.14-4.22,6.08-6.7,8.83c-2.48,2.75-5.19,5.31-8.18,7.54c-2.98,2.24-6.26,4.14-9.76,5.54
					c-1.76,0.68-3.57,1.25-5.42,1.66c-1.86,0.38-3.74,0.66-5.64,0.73c-3.8,0.17-7.61-0.34-11.24-1.43
					c-3.63-1.1-7.03-2.79-10.17-4.83c-3.13-2.05-5.99-4.47-8.59-7.12c-1.3-1.32-2.53-2.71-3.71-4.14c-0.58-0.72-1.16-1.44-1.71-2.18
					l-0.82-1.12l-0.4-0.57l-0.08-0.12c0.07,0.1,0.2,0.22,0.4,0.32C318.53,243.61,319.11,243.5,319.36,243.28z"/>
			</g>
		</g>
		<path class="st38" d="M332.25,184.97c4.65-0.36,9.29-0.72,13.94-1.08"/>
		<g>
			<ellipse class="st39" cx="327.26" cy="180.28" rx="12.51" ry="28.85"/>
			<path class="st38" d="M335.04,182.94c-0.65-2.72,0.4-5.41,2.09-6.22c1.86-0.88,4.33,0.58,4.57,2.55
				c0.21,1.74-1.32,4.02-2.59,3.75c-0.81-0.17-1.69-1.34-1.54-2.32c0.1-0.63,0.61-1.14,1.11-1.16c0.12-0.01,0.63-0.03,0.84,0.51
				c0.15,0.37,0.15,0.81-0.04,1.18"/>
			<path class="st38" d="M334.99,183.58c0.58-2.74-0.41-5.46-2.12-6.43c-2.19-1.24-5.1,0.62-5.31,2.7
				c-0.18,1.74,1.46,4.09,2.89,3.82c0.9-0.17,1.89-1.37,1.72-2.36c-0.11-0.64-0.68-1.16-1.24-1.18c-0.14-0.01-0.7-0.03-0.94,0.52
				c-0.24,0.54,0.03,1.17,0.05,1.2"/>
		</g>
		<g>
			<ellipse class="st39" cx="358.49" cy="179.11" rx="12.51" ry="28.85"/>
			<g>
				<path class="st38" d="M358.45,184.16c4.65-0.36,9.29-0.72,13.94-1.08"/>
				<path class="st38" d="M365.42,183.03c-0.65-2.72,0.4-5.41,2.09-6.22c1.86-0.88,4.33,0.58,4.57,2.55
					c0.21,1.74-1.32,4.02-2.59,3.75c-0.81-0.17-1.69-1.34-1.54-2.32c0.1-0.63,0.61-1.14,1.11-1.16c0.12-0.01,0.63-0.03,0.84,0.51
					c0.15,0.37,0.15,0.81-0.04,1.18"/>
				<path class="st38" d="M365.36,183.68c0.58-2.74-0.41-5.46-2.12-6.43c-2.19-1.24-5.1,0.62-5.31,2.7
					c-0.18,1.74,1.46,4.09,2.89,3.82c0.9-0.17,1.89-1.37,1.72-2.36c-0.11-0.64-0.68-1.16-1.24-1.18c-0.14-0.01-0.7-0.03-0.94,0.52
					c-0.24,0.54,0.03,1.17,0.05,1.2"/>
			</g>
		</g>
		<g>
			<line class="st40" x1="312.7" y1="159.49" x2="346.6" y2="141.96"/>
			<line class="st40" x1="347.31" y1="141.74" x2="381.46" y2="159.01"/>
		</g>
		<g>
			<g>
				<path class="st41" d="M359.21,343.17c16.59-0.03,57.56-4.25,74.15-4.28c6.47,15.46,12.97,33.71,18.4,54.57
					c4.14,15.92,7,30.82,8.97,44.32c-69.65-0.68-139.29-1.37-208.94-2.05c1.46-13.26,3.95-28.54,8.19-45.18
					c4.71-18.47,10.49-34.36,16.11-47.45c11.04,0.11,22.09,0.12,33.13,0.32c12.72,0.22,25.43,0.45,33.13,0.32
					c-5.67,3.17-1.3,9.27,9.11,8.77C363.16,351.94,362.99,345.59,359.21,343.17z"/>
				<path class="st37" d="M251.82,437.24c11.29,17.42,22.87,36.88,34.23,58.4c9.28,17.59,17.37,34.58,24.43,50.72
					c9.2,0.17,18.4,0.34,27.6,0.51c1.72-6.64,4.43-14.82,8.8-23.62c5.22-10.51,11.13-18.48,15.99-24.12
					c5.33,7.29,11.31,16.99,16.29,29.2c2.46,6.04,4.31,11.77,5.7,17.02c7.95-0.51,15.91-1.02,23.86-1.52
					c5.94-15.99,13.03-33.12,21.52-51.03c9.43-19.88,19.16-37.71,28.62-53.5C389.85,438.61,320.83,437.92,251.82,437.24z"/>
			</g>
			<path class="st42" d="M342.79,335.05c0.48,0.63,1.24,1.81,1.63,3.49c0.52,2.23,0.11,4.08-0.13,4.89
				c-4.3,3.04-4.13,4.77-4.04,5.21c0.54,2.6,7.09,2.78,10,2.86c3.25,0.09,7.73,0.21,9.37-2.63c0.14-0.24,0.92-1.6,0.52-3.15
				c-0.49-1.87-2.34-2.58-2.57-2.67c-0.38-0.44-1.47-1.82-1.7-3.97c-0.25-2.34,0.68-4.07,0.96-4.56"/>
		</g>
		
			<pattern  id="SVGID_4_" xlink:href="#New_Pattern_Swatch_1" patternTransform="matrix(0.2864 -0.064 0.0582 0.3068 -3892.7925 -5080.4878)">
		</pattern>
		<path style="opacity:0.12;fill:url(#SVGID_4_);" d="M433.35,338.88c-0.07,7.76,28.9,90.57,27.37,98.89
			c-34.87,0.05-174.07-2.1-208.94-2.05c1.4-5.33,26.25-87.39,25.16-91.73c22.45-0.19,44.89-0.38,67.34-0.56
			c-5.11,2.41-7.21,8.7,5.97,8.06c13.09-0.63,11.39-6.31,7.31-8.44C382.83,341.66,408.09,340.27,433.35,338.88z"/>
		<path class="st44" d="M417.27,486.34l-0.07,7.11c0.46,1.82,1.53,3.05,2.74,3.15c1.18,0.1,2.3-0.9,2.89-2.56
			c-0.07-2.87-0.15-5.75-0.22-8.62"/>
	</g>
	<g>
		<g>
			<ellipse class="st21" cx="212.67" cy="324.9" rx="80.77" ry="82.7"/>
			<path class="st13" d="M295.08,324.9c0.01,10.9-2.04,21.82-6.09,31.96c-4.04,10.14-10.05,19.49-17.63,27.36
				c-7.57,7.87-16.7,14.27-26.75,18.59c-10.04,4.34-20.98,6.59-31.92,6.6c-10.94-0.01-21.87-2.33-31.88-6.7
				c-10.02-4.35-19.11-10.77-26.63-18.65c-7.52-7.88-13.51-17.2-17.51-27.32c-4.02-10.11-6.03-20.98-6.01-31.84
				c0-10.86,2.04-21.72,6.08-31.82c4.02-10.09,10.01-19.4,17.56-27.23c7.53-7.84,16.63-14.19,26.63-18.49
				c9.99-4.31,20.88-6.55,31.77-6.56c5.45,0.02,10.86,0.8,16.16,1.95c5.3,1.15,10.52,2.7,15.51,4.84c10,4.23,19.1,10.52,26.67,18.31
				c7.57,7.79,13.65,17.04,17.75,27.13C292.87,303.11,295.02,314,295.08,324.9z M291.8,324.9c0.03-10.5-1.86-21.01-5.72-30.79
				c-3.84-9.78-9.58-18.85-16.87-26.45c-7.28-7.62-16.06-13.81-25.75-18.01c-4.84-2.08-9.88-3.76-15.07-4.75
				c-5.19-1-10.47-1.29-15.72-1.28c-10.51-0.01-21.02,2.12-30.69,6.27c-9.67,4.13-18.48,10.26-25.79,17.83
				c-7.32,7.57-13.14,16.57-17.06,26.35c-3.93,9.77-5.94,20.3-5.96,30.85c0.03,10.54,2.07,21.07,6.02,30.82
				c3.94,9.75,9.77,18.75,17.11,26.26c7.33,7.53,16.14,13.6,25.79,17.67c9.65,4.1,20.11,6.15,30.57,6.13
				c10.46,0.01,20.91-2.1,30.53-6.23c9.63-4.1,18.39-10.2,25.67-17.73c7.29-7.53,13.09-16.49,16.99-26.22
				C289.78,345.88,291.78,335.4,291.8,324.9z"/>
		</g>
		<g>
			<path class="st13" d="M210.26,241.05c3.36,0.86,6.85,1.21,10.29,1.03c1.72-0.12,3.41-0.4,5.06-0.82c1.65-0.45,3.23-1.1,4.72-1.9
				c2.93-1.68,5.68-3.98,7.62-6.72c0.96-1.37,1.67-2.92,1.83-4.52c0.04-0.4,0.08-0.8,0.02-1.19l-0.04-0.6
				c-0.04-0.2-0.07-0.39-0.12-0.59c-0.19-0.79-0.51-1.56-0.91-2.27c-0.8-1.42-2-2.69-3.47-3.15c-1.46-0.5-3.08,0.02-4.37,1.04
				c-1.27,1.02-2.48,2.38-3.13,3.85c-0.68,1.47-0.46,3.2,0.73,4.29c1.15,1.09,2.92,1.59,4.49,1.24c1.57-0.36,3.09-1.45,3.75-2.91
				c0.33-0.73,0.33-1.52-0.11-2.19c-0.41-0.67-1.08-1.23-1.83-1.43c-0.75-0.21-1.57,0.02-2.14,0.57c-0.58,0.54-0.93,1.34-0.98,2.15
				l-0.02,0.3l-0.6-0.04l0.02-0.3c0.05-0.95,0.43-1.9,1.14-2.59c0.69-0.7,1.79-1.03,2.77-0.77c0.97,0.25,1.77,0.9,2.3,1.72
				c0.27,0.41,0.44,0.91,0.48,1.42c0.03,0.52-0.09,1.01-0.27,1.47c-0.79,1.8-2.44,3-4.29,3.49c-1.89,0.44-3.94-0.07-5.4-1.39
				c-0.73-0.66-1.26-1.57-1.44-2.57c-0.2-1,0.01-2.02,0.36-2.91c0.36-0.89,0.88-1.69,1.46-2.41c0.59-0.72,1.2-1.39,1.95-1.99
				c0.74-0.59,1.59-1.1,2.55-1.36c0.96-0.29,2.03-0.27,2.99,0.02c1.96,0.6,3.36,2.12,4.32,3.73c0.48,0.82,0.85,1.7,1.1,2.63
				c0.06,0.23,0.1,0.47,0.16,0.71l0.07,0.73c0.07,0.49,0.04,0.97,0,1.46c-0.17,1.94-0.98,3.73-2.02,5.27
				c-1.04,1.54-2.3,2.9-3.66,4.12c-0.68,0.61-1.39,1.18-2.13,1.73c-0.73,0.53-1.54,1.01-2.32,1.49c-1.63,0.87-3.34,1.58-5.11,2.06
				c-1.78,0.46-3.6,0.74-5.42,0.83c-3.65,0.16-7.28-0.34-10.75-1.38l-0.65-0.2l0.36-1.29L210.26,241.05z"/>
		</g>
		<path class="st45" d="M210.59,407.96c0.2,2.99,0.39,5.97,0.59,8.96c0.11,0.14,1.34,1.71,3.38,1.62c1.53-0.07,2.9-1.04,3.53-2.5
			c-0.24-2.79-0.49-5.58-0.73-8.37"/>
		<g>
			
				<ellipse transform="matrix(0.9844 -0.176 0.176 0.9844 -48.7876 48.1428)" class="st46" cx="247.01" cy="299.11" rx="15.89" ry="26.93"/>
			
				<ellipse transform="matrix(0.9862 -0.1658 0.1658 0.9862 -47.0845 41.2299)" class="st46" cx="223.37" cy="302.59" rx="16.31" ry="27.6"/>
		</g>
		<g>
			<path class="st13" d="M237.45,330.7c-0.44,0.91-0.84,1.87-0.97,2.81c-0.17,0.94-0.01,1.83,0.49,2.33
				c0.48,0.52,1.33,0.77,2.25,0.83c0.92,0.06,1.9,0,2.88-0.16c0.99-0.18,2.04-0.3,2.91-0.58c0.89-0.26,1.62-0.66,1.85-1.22
				c0.28-0.58,0.14-1.5-0.27-2.32c-0.4-0.84-1.03-1.6-1.76-2.3l-0.01-0.01c-0.14-0.14-0.15-0.36-0.01-0.5
				c0.11-0.12,0.28-0.14,0.42-0.07c0.99,0.49,1.87,1.22,2.55,2.17c0.65,0.94,1.19,2.22,0.74,3.65c-0.21,0.71-0.74,1.28-1.27,1.65
				c-0.54,0.38-1.1,0.64-1.65,0.81c-1.12,0.35-2.15,0.52-3.22,0.66c-1.09,0.13-2.2,0.22-3.36,0.05c-0.57-0.08-1.16-0.21-1.74-0.47
				c-0.57-0.25-1.15-0.64-1.56-1.21c-0.4-0.55-0.63-1.22-0.65-1.86c-0.03-0.64,0.08-1.23,0.27-1.77c0.4-1.07,0.96-2.01,1.69-2.82
				c0.1-0.11,0.26-0.11,0.36-0.02c0.09,0.08,0.11,0.2,0.06,0.3L237.45,330.7z"/>
		</g>
		<g>
			<path class="st3" d="M231.36,347.24c0.61,0.74,5.31,6.21,12.64,5.61c7.45-0.61,11.44-7,11.93-7.82
				c1.9,10.3-4.1,19.17-10.35,20.04C239.03,365.99,231,358.32,231.36,347.24z"/>
			<path class="st13" d="M231.27,346.97c0.12,0.02,0.33,0.1,0.44,0.23l0.17,0.18l0.31,0.32c0.21,0.21,0.43,0.41,0.65,0.61
				c0.45,0.39,0.91,0.77,1.39,1.12c0.96,0.7,2,1.29,3.08,1.75c2.15,0.95,4.53,1.33,6.85,1.06c1.16-0.14,2.29-0.42,3.38-0.83
				c1.08-0.44,2.11-0.99,3.06-1.65c0.95-0.68,1.83-1.46,2.63-2.31c0.4-0.43,0.77-0.88,1.14-1.34c0.17-0.24,0.35-0.47,0.51-0.71
				c0.17-0.24,0.29-0.5,0.74-0.56l0,0l0.46-0.84l0.23,0.97c0.5,2.08,0.64,4.26,0.49,6.42c-0.19,2.16-0.72,4.3-1.6,6.31
				c-0.87,2.01-2.15,3.87-3.79,5.4c-0.41,0.38-0.84,0.75-1.31,1.06c-0.45,0.35-0.95,0.62-1.46,0.88c-0.49,0.29-1.07,0.44-1.6,0.66
				l-0.86,0.19c-0.28,0.07-0.57,0.12-0.87,0.12c-2.35,0.18-4.65-0.54-6.53-1.75c-1.88-1.22-3.46-2.83-4.65-4.67
				c-1.2-1.83-2.08-3.86-2.57-5.97c-0.16-0.52-0.2-1.06-0.29-1.59c-0.1-0.53-0.15-1.06-0.17-1.6c-0.02-0.56-0.11-1.01-0.05-1.69
				C231.06,348.09,231.21,347.48,231.27,346.97z M231.45,347.5c0.08,0.54,0.24,0.98,0.29,1.38c0.02,0.37,0.13,0.96,0.2,1.45
				c0.07,0.51,0.16,1.02,0.3,1.51c0.14,0.49,0.22,1,0.41,1.48c0.59,1.95,1.5,3.8,2.7,5.41c1.2,1.61,2.64,3.03,4.33,4.04
				c1.67,1.02,3.6,1.58,5.44,1.41c1.85-0.12,3.6-1.15,5.05-2.43c1.47-1.3,2.63-2.96,3.54-4.75c0.9-1.8,1.49-3.76,1.77-5.77
				c0.33-2.01,0.31-4.07,0.08-6.13l0.68,0.12l0,0c0.13,0.45-0.07,0.7-0.26,0.96c-0.18,0.26-0.37,0.51-0.56,0.76
				c-0.39,0.49-0.8,0.97-1.24,1.42c-0.87,0.91-1.83,1.73-2.86,2.45c-1.05,0.71-2.17,1.29-3.36,1.75c-1.19,0.43-2.44,0.72-3.7,0.82
				c-2.52,0.21-5.09-0.28-7.34-1.36c-1.12-0.55-2.18-1.23-3.14-2c-0.49-0.38-0.95-0.8-1.39-1.23c-0.22-0.22-0.44-0.44-0.64-0.67
				l-0.31-0.35c-0.04-0.05-0.12-0.14-0.13-0.16C231.32,347.63,231.43,347.6,231.45,347.5z"/>
		</g>
		<g>
			<g>
				<path class="st24" d="M217.55,415.98c14.47,0.44,28.94,0.88,43.41,1.32c-1.99,9.01-3.77,19.03-5.05,29.97
					c-1.27,10.92-1.85,21.07-1.98,30.29c-23.93-0.17-47.87-0.33-71.8-0.5c-0.38-9.28-1.16-19.32-2.5-29.98
					c-1.35-10.7-3.09-20.65-5.03-29.77c11.83-0.25,23.66-0.5,35.49-0.75c0.04,0.13,0.79,2.26,2.69,2.71
					C214.63,419.69,216.85,418.37,217.55,415.98z"/>
				<path class="st13" d="M216.95,415.15l44.03,1.48l0.81,0.03l-0.17,0.79c-2.13,9.88-3.76,19.86-4.88,29.9
					c-1.1,10.04-1.7,20.13-1.78,30.22l-0.01,1.02l-1.02-0.01l-35.9-0.22l-35.9-0.28l-0.01,0l-0.96-0.01l-0.05-0.97
					c-0.27-5-0.64-10-1.12-14.98c-0.45-4.99-1.01-9.96-1.67-14.93c-0.67-4.96-1.39-9.91-2.24-14.85c-0.85-4.93-1.8-9.85-2.85-14.74
					l-0.36-1.66l1.7-0.03l8.87-0.15l8.87-0.13l8.87-0.08l8.87,0h0.01h0.74l0.25,0.7c0.21,0.59,0.64,1.25,1.12,1.62
					c0.48,0.38,1.03,0.52,1.65,0.44c0.61-0.07,1.22-0.4,1.71-0.86c0.24-0.23,0.45-0.5,0.63-0.79c0.08-0.15,0.17-0.3,0.23-0.46
					l0.18-0.42C216.68,415.54,216.81,415.33,216.95,415.15z M218.16,416.81c0.07,0.03,0.14,0.02,0.17,0c0.01,0.01,0.04-0.05,0.02,0
					l-0.08,0.18c-0.1,0.24-0.22,0.47-0.35,0.69c-0.27,0.44-0.59,0.86-0.97,1.22c-0.77,0.71-1.74,1.26-2.84,1.41
					c-1.09,0.17-2.34-0.16-3.2-0.87c-0.87-0.72-1.41-1.55-1.79-2.58l0.99,0.7l-0.01,0l-8.87,0.37l-8.87,0.29l-8.87,0.24l-8.87,0.22
					l1.34-1.69c1.04,4.94,1.97,9.89,2.8,14.87c0.82,4.98,1.57,9.97,2.16,14.97c0.59,5.01,1.09,10.03,1.47,15.05
					c0.36,5.03,0.61,10.06,0.76,15.1l-1.02-0.98h0.01l35.9,0.22l35.9,0.28l-1.03,1.01c0.44-20.32,2.93-40.58,7.4-60.38l0.64,0.82
					l-21.46-0.61L218.16,416.81z"/>
			</g>
			<path class="st47" d="M181.71,476.97c0.21,10.25,0.12,21.15-0.4,32.62c-0.5,11.17-1.35,21.75-2.44,31.71
				c12.05,0.57,24.09,1.14,36.14,1.7c-0.25-6.64-0.16-14.15,0.57-22.34c0.79-8.98,2.19-17.04,3.78-24.01
				c2.22,6.85,4.35,14.67,6.05,23.38c1.56,8.03,2.5,15.49,3.03,22.22c11.48,0,22.96,0,34.44,0c-2.39-8.87-4.58-19-6.15-30.24
				c-1.74-12.49-2.36-23.91-2.37-33.9"/>
		</g>
		<g>
			<path class="st13" d="M205.87,565.52c-4.27-8.16-6.07-17.68-5-26.99c0.09-0.79,0.8-1.36,1.59-1.27s1.36,0.8,1.27,1.59
				c0,0.03-0.01,0.06-0.01,0.08c-1.49,8.66-0.32,17.84,3.38,25.98c0.16,0.34,0,0.75-0.34,0.91
				C206.42,565.97,206.03,565.84,205.87,565.52z"/>
		</g>
		<ellipse class="st48" cx="249.52" cy="566.41" rx="10.42" ry="2.95"/>
		<g>
			<path class="st13" d="M238.71,565.72c3.32-7.36,4.78-15.47,4.27-23.41c-0.05-0.79,0.55-1.48,1.35-1.53
				c0.79-0.05,1.48,0.55,1.53,1.35c0,0.03,0,0.06,0,0.08v0.01c0.02,8.42-2.05,16.76-5.92,24.1c-0.18,0.33-0.59,0.46-0.92,0.29
				C238.7,566.44,238.57,566.05,238.71,565.72z"/>
		</g>
		<ellipse class="st48" cx="194.7" cy="566.01" rx="11.81" ry="3.35"/>
		<g>
			<path class="st13" d="M121.16,471.44c2.96-5.4,6.3-10.59,9.99-15.51c3.69-4.93,7.75-9.58,12.11-13.93
				c8.74-8.69,18.73-16.12,29.59-21.98c0.49-0.26,1.09-0.08,1.35,0.4c0.26,0.49,0.08,1.09-0.4,1.35l-0.01,0
				c-10.74,5.68-20.66,12.91-29.35,21.42c-4.35,4.25-8.39,8.81-12.08,13.65c-3.7,4.83-7.04,9.94-10.01,15.25
				c-0.18,0.33-0.6,0.45-0.93,0.26C121.1,472.18,120.98,471.77,121.16,471.44z"/>
		</g>
		
			<ellipse transform="matrix(0.3303 -0.9439 0.9439 0.3303 -371.1516 433.0258)" class="st49" cx="119.58" cy="478.07" rx="7.13" ry="1.93"/>
		<g>
			<path class="st13" d="M260.97,419.38c0.8-0.16,1.58-0.12,2.37-0.1c0.79,0.02,1.57,0.02,2.36,0.02c1.57-0.03,3.15-0.09,4.72-0.22
				c3.14-0.26,6.26-0.71,9.34-1.39c3.07-0.69,6.1-1.59,9.06-2.67c1.45-0.61,2.94-1.13,4.35-1.84l2.14-1.01l2.08-1.12
				c5.53-3.02,10.58-6.91,15-11.4c4.43-4.49,8.22-9.61,11.23-15.17c0.18-0.33,0.59-0.46,0.93-0.28c0.33,0.18,0.45,0.59,0.28,0.92
				c-3.01,5.7-6.83,10.97-11.32,15.61c-4.51,4.62-9.66,8.62-15.32,11.73l-2.13,1.16l-2.19,1.04c-1.44,0.73-2.97,1.27-4.46,1.9
				c-3.03,1.12-6.13,2.05-9.27,2.77c-3.15,0.7-6.35,1.18-9.57,1.46c-1.61,0.14-3.22,0.21-4.84,0.24c-0.81,0-1.62,0.01-2.42-0.01
				c-0.81-0.01-1.62-0.04-2.41-0.28c-0.37-0.11-0.58-0.51-0.47-0.88c0.08-0.26,0.29-0.44,0.54-0.48L260.97,419.38z"/>
		</g>
		<g>
			
				<ellipse transform="matrix(0.3833 -0.9236 0.9236 0.3833 -148.1377 535.2791)" class="st28" cx="326.78" cy="378.58" rx="7.13" ry="1.93"/>
			<path class="st13" d="M329.65,371.67c0.5,0.25,0.6,0.72,0.67,1.05c0.05,0.35,0.07,0.7,0.04,1.04c-0.04,0.67-0.16,1.32-0.3,1.96
				c-0.31,1.27-0.76,2.5-1.28,3.69c-0.53,1.19-1.13,2.34-1.84,3.43c-0.35,0.54-0.73,1.07-1.18,1.56c-0.22,0.24-0.47,0.46-0.74,0.66
				c-0.27,0.18-0.63,0.37-1.03,0.23c-0.38-0.18-0.49-0.57-0.56-0.89c-0.05-0.33-0.07-0.67-0.05-0.99c0.03-0.66,0.13-1.3,0.27-1.93
				c0.27-1.27,0.66-2.51,1.13-3.72c0.48-1.2,1.02-2.39,1.71-3.51c0.35-0.55,0.72-1.1,1.17-1.6c0.22-0.25,0.48-0.49,0.76-0.7
				C328.72,371.75,329.12,371.5,329.65,371.67z M329.39,372.3c-0.1-0.05-0.35,0.02-0.58,0.18c-0.23,0.17-0.46,0.36-0.66,0.59
				c-0.42,0.45-0.79,0.96-1.13,1.49c-0.69,1.06-1.28,2.19-1.8,3.35c-0.5,1.17-0.95,2.37-1.25,3.61c-0.14,0.62-0.26,1.25-0.29,1.88
				c-0.02,0.31-0.01,0.63,0.03,0.93c0.05,0.29,0.17,0.59,0.39,0.7c0.23,0.08,0.53-0.05,0.77-0.22c0.24-0.18,0.48-0.39,0.68-0.63
				c0.42-0.47,0.78-0.99,1.12-1.53c0.67-1.09,1.2-2.25,1.67-3.43c0.46-1.19,0.84-2.41,1.1-3.64c0.13-0.62,0.23-1.24,0.26-1.85
				c0.02-0.31,0-0.61-0.05-0.89C329.62,372.57,329.49,372.34,329.39,372.3z"/>
		</g>
		
			<ellipse transform="matrix(0.9849 -0.1729 0.1729 0.9849 -46.8605 48.1041)" class="st48" cx="252.62" cy="292.97" rx="7.91" ry="16.41"/>
		
			<ellipse transform="matrix(0.9916 -0.1297 0.1297 0.9916 -36.4156 32.2081)" class="st48" cx="229.16" cy="295.79" rx="8.07" ry="16.35"/>
		<g>
			<path class="st50" d="M226.67,294.61c3.96-0.58,7.93-1.15,11.89-1.73"/>
			<g>
				<path class="st3" d="M232.27,293.69c-0.31-0.91-0.36-1.95,0.01-2.88c0.35-0.93,1.13-1.71,2.06-2.05
					c0.9-0.34,1.92-0.46,2.87-0.12c0.94,0.33,1.71,1.25,1.72,2.28c0.02,0.51-0.17,1.04-0.52,1.41c-0.35,0.37-0.78,0.61-1.22,0.77
					c-0.44,0.17-0.91,0.26-1.4,0.26c-0.47-0.01-1-0.13-1.37-0.5c-0.37-0.36-0.5-0.96-0.29-1.43c0.22-0.47,0.64-0.76,1.07-0.95
					c0.43-0.19,0.99-0.23,1.4,0.07c0.43,0.28,0.53,0.89,0.31,1.31l0,0c-0.02,0.03-0.06,0.05-0.09,0.03
					c-0.03-0.02-0.05-0.06-0.03-0.09c0.18-0.39,0.06-0.88-0.3-1.1c-0.35-0.23-0.81-0.18-1.19,0c-0.38,0.18-0.74,0.47-0.88,0.84
					c-0.14,0.37-0.04,0.8,0.25,1.06c0.6,0.54,1.6,0.4,2.36,0.09c0.8-0.3,1.46-0.95,1.38-1.76c-0.03-0.8-0.65-1.49-1.4-1.73
					c-0.77-0.25-1.65-0.13-2.42,0.19c-0.76,0.31-1.37,0.91-1.65,1.67c-0.29,0.76-0.26,1.62-0.02,2.42c0.05,0.18-0.05,0.37-0.23,0.43
					C232.52,293.95,232.33,293.86,232.27,293.69z"/>
			</g>
			<g>
				<path class="st3" d="M232.27,293.49c0.17-0.8-0.02-1.62-0.54-2.19c-0.51-0.58-1.33-0.9-2.16-1.07
					c-0.83-0.17-1.71-0.15-2.44,0.24c-0.72,0.36-1.28,1.14-1.26,1.95c0.02,0.41,0.16,0.81,0.44,1.1c0.28,0.29,0.68,0.45,1.1,0.53
					c0.82,0.14,1.83,0.04,2.34-0.62c0.24-0.32,0.29-0.78,0.09-1.14c-0.2-0.36-0.62-0.56-1.04-0.63c-0.42-0.08-0.88,0-1.15,0.32
					c-0.28,0.31-0.25,0.8,0.03,1.12c0.03,0.04,0.03,0.1-0.01,0.14c-0.04,0.03-0.1,0.03-0.14-0.01l-0.01-0.01
					c-0.33-0.36-0.38-0.99-0.04-1.38c0.33-0.4,0.89-0.49,1.35-0.41c0.46,0.08,0.96,0.28,1.23,0.73c0.27,0.44,0.22,1.03-0.07,1.44
					c-0.29,0.42-0.77,0.65-1.23,0.77c-0.47,0.11-0.95,0.12-1.42,0.05c-0.47-0.08-0.96-0.24-1.33-0.61c-0.37-0.36-0.56-0.87-0.6-1.36
					c-0.07-1.03,0.55-1.99,1.41-2.5c0.87-0.52,1.91-0.62,2.86-0.47c0.94,0.15,1.94,0.47,2.65,1.28c0.72,0.78,0.91,1.97,0.59,2.91
					l0,0.01c-0.06,0.18-0.25,0.28-0.43,0.21C232.33,293.83,232.23,293.66,232.27,293.49z"/>
			</g>
		</g>
		<g>
			<path class="st50" d="M249.06,293.19c3.96-0.58,7.93-1.15,11.89-1.73"/>
			<g>
				<path class="st3" d="M254.67,292.26c-0.31-0.91-0.36-1.95,0.01-2.88c0.35-0.93,1.13-1.71,2.06-2.05
					c0.9-0.34,1.92-0.46,2.87-0.12c0.94,0.33,1.71,1.25,1.72,2.28c0.02,0.51-0.17,1.04-0.52,1.41c-0.35,0.37-0.78,0.61-1.22,0.77
					c-0.44,0.17-0.91,0.26-1.4,0.26c-0.47-0.01-1-0.13-1.37-0.5c-0.37-0.36-0.5-0.96-0.29-1.43c0.22-0.47,0.64-0.76,1.07-0.95
					c0.43-0.19,0.99-0.23,1.4,0.07c0.43,0.28,0.53,0.89,0.31,1.31l0,0c-0.02,0.03-0.06,0.05-0.09,0.03
					c-0.03-0.02-0.05-0.06-0.03-0.09c0.18-0.39,0.06-0.88-0.3-1.1c-0.35-0.23-0.81-0.18-1.19,0c-0.38,0.18-0.74,0.47-0.88,0.84
					c-0.14,0.37-0.04,0.8,0.25,1.06c0.6,0.54,1.6,0.4,2.36,0.09c0.8-0.3,1.46-0.95,1.38-1.76c-0.03-0.8-0.65-1.49-1.4-1.73
					c-0.77-0.25-1.65-0.13-2.42,0.19c-0.76,0.31-1.37,0.91-1.65,1.67c-0.29,0.76-0.26,1.62-0.02,2.42c0.05,0.18-0.05,0.37-0.23,0.43
					C254.91,292.53,254.73,292.43,254.67,292.26z"/>
			</g>
			<g>
				<path class="st3" d="M254.66,292.07c0.17-0.8-0.02-1.62-0.54-2.19c-0.51-0.58-1.33-0.9-2.16-1.07
					c-0.83-0.17-1.71-0.15-2.44,0.24c-0.72,0.36-1.28,1.14-1.26,1.95c0.02,0.41,0.16,0.81,0.44,1.1c0.28,0.29,0.68,0.45,1.1,0.53
					c0.82,0.14,1.83,0.04,2.34-0.62c0.24-0.32,0.29-0.78,0.09-1.14c-0.2-0.36-0.62-0.56-1.04-0.63c-0.42-0.08-0.88,0-1.15,0.32
					c-0.28,0.31-0.25,0.8,0.03,1.12c0.03,0.04,0.03,0.1-0.01,0.14c-0.04,0.03-0.1,0.03-0.14-0.01l-0.01-0.01
					c-0.33-0.36-0.38-0.99-0.04-1.38c0.33-0.4,0.89-0.49,1.35-0.41c0.46,0.08,0.96,0.28,1.23,0.73c0.27,0.44,0.22,1.03-0.07,1.44
					c-0.29,0.42-0.77,0.65-1.23,0.77c-0.47,0.11-0.95,0.12-1.42,0.05c-0.47-0.08-0.96-0.24-1.33-0.61c-0.37-0.36-0.56-0.87-0.6-1.36
					c-0.07-1.03,0.55-1.99,1.41-2.5c0.87-0.52,1.91-0.62,2.86-0.47c0.94,0.15,1.94,0.47,2.65,1.28c0.72,0.78,0.91,1.97,0.59,2.91
					l0,0.01c-0.06,0.18-0.25,0.28-0.43,0.21C254.72,292.41,254.63,292.24,254.66,292.07z"/>
			</g>
		</g>
	</g>
	<g>
		<path class="st51" d="M372.77,550.37c0.22-0.14,0.44-0.28,0.65-0.42c4.95-3.1,12.24-6.56,20.58-6.02
			c11.19,0.72,15.23,8.05,26.77,9.43c5.5,0.67,13.83,0.11,25.23-6.21"/>
		<g>
			<g>
				<defs>
					<rect id="SVGID_16_" x="373.42" y="491.2" width="73.06" height="61.38"/>
				</defs>
				<clipPath id="SVGID_6_">
					<use xlink:href="#SVGID_16_"  style="overflow:visible;"/>
				</clipPath>
				<g style="clip-path:url(#SVGID_6_);">
					<defs>
						<rect id="SVGID_18_" x="373.42" y="491.2" width="73.06" height="61.38"/>
					</defs>
					<clipPath id="SVGID_7_">
						<use xlink:href="#SVGID_18_"  style="overflow:visible;"/>
					</clipPath>
					<path style="clip-path:url(#SVGID_7_);fill:#F075AC;" d="M446.48,545.78l-0.47,0.37c-11.4,6.32-19.73,6.88-25.23,6.21
						c-11.54-1.38-15.58-8.71-26.77-9.43c-8.34-0.54-15.63,2.92-20.58,6.02c12.17-11.11,16.15-29.77,17.12-34.84l0.01-1.08
						l44.72,0.35l-0.01,0.74C435.98,518.58,438.68,533.65,446.48,545.78"/>
					<path style="clip-path:url(#SVGID_7_);fill:#F075AC;" d="M440.62,493.27c-1.72,6.7-3.43,13.41-5.15,20.11h-0.2l-44.72-0.35
						h-0.23c-2.7-7.28-5.42-14.55-8.12-21.83c6.82,0.23,13.63,0.46,20.44,0.7l10.55,0.48C422.34,492.68,431.48,492.97,440.62,493.27
						"/>
				</g>
			</g>
			<g>
				<path class="st54" d="M448.94,346.8c1.56,1.53,5.37,4.85,11.1,5.65c7.56,1.07,16.6-2.5,19.02-8.89
					c3.5-9.25-8.6-19.82-11.58-22.43c-12.41-10.84-33.33-16.43-39.35-9c-4.48,5.53-0.56,18.14,7.12,24.84
					c6.29,5.5,18.01,9.58,23.91,4c3.71-3.5,4.12-9.86,2.25-14.37c-4.07-9.79-19.6-12.38-23.51-8.05c-2.64,2.92-1.2,10.33,3.28,13.47
					c3.3,2.32,8.7,2.62,10.02,0.41c1.54-2.59-2.45-8.72-5.2-8.36c-0.48,0.06-1.48,0.4-2.46,2.49"/>
				<g>
					<path class="st55" d="M480.45,408.34c0,41.42-33.58,75-75,75c-41.42,0-75-33.58-75-75c0-41.42,33.58-75,75-75
						C446.87,333.34,480.45,366.92,480.45,408.34"/>
					<g>
						<path class="st13" d="M382.6,434.56c-0.42,1.49-0.3,2.95,0.34,3.97c0.65,1.03,1.75,1.56,2.9,1.52
							c1.17-0.04,2.26-0.57,2.77-1.63c0.53-1.07,0.5-2.52-0.48-3.75c0.74,0.26,1.38,0.87,1.75,1.65c0.36,0.79,0.44,1.72,0.21,2.6
							c-0.2,0.89-0.81,1.73-1.58,2.28c-0.78,0.55-1.7,0.81-2.62,0.84c-0.91,0.02-1.88-0.21-2.66-0.74c-0.76-0.52-1.4-1.26-1.7-2.12
							C380.89,437.47,381.46,435.61,382.6,434.56z"/>
					</g>
					<g>
						<path class="st13" d="M378.01,464.35c3.38,0.89,6.65,1.32,9.96,1.18c1.65-0.05,3.29-0.25,4.92-0.57
							c1.64-0.33,3.26-0.78,4.91-1.35c-1.28,1.22-2.87,2.08-4.54,2.69c-1.67,0.63-3.45,0.93-5.24,1.01
							c-1.79,0.05-3.58-0.12-5.3-0.62C381.02,466.21,379.38,465.46,378.01,464.35z"/>
					</g>
					<g>
						<path class="st13" d="M416.35,551.44c0.08,4.03,0.15,8.06,0.23,12.09c0.43-0.35,6.84-5.28,11.09-1.51
							c1.2,1.07,2.71,3.25,2.31,4.84c-0.57,2.28-4.71,2.71-7.54,2.02c-2.86-0.7-4.86-2.64-5.86-3.77"/>
						<g>
							<path class="st13" d="M417.09,551.3c0.81,4.05,0.85,8.25,0.26,12.34l-1.22-0.74c2.34-1.64,5.08-2.93,8.13-2.89
								c1.49,0.04,3.16,0.58,4.25,1.75c1.03,1.09,1.92,2.3,2.24,3.96c0.06,0.42,0.07,0.87-0.04,1.33c-0.14,0.45-0.35,0.89-0.66,1.21
								c-0.61,0.67-1.37,1.02-2.1,1.26c-1.48,0.44-2.96,0.48-4.42,0.31c-1.46-0.17-2.92-0.68-4.18-1.43
								c-1.27-0.75-2.38-1.73-3.33-2.81c-0.28-0.31-0.25-0.78,0.06-1.06c0.31-0.28,0.78-0.25,1.06,0.06l0,0
								c1.73,1.97,4.01,3.46,6.57,3.73c1.27,0.15,2.61,0.1,3.78-0.26c0.58-0.18,1.1-0.46,1.42-0.82c0.33-0.36,0.43-0.76,0.34-1.3
								c-0.19-1.08-0.96-2.24-1.82-3.11c-0.82-0.88-1.98-1.25-3.22-1.3c-2.51-0.05-5.05,1.09-7.18,2.61l-1.48,1.06l0.27-1.8
								c0.58-3.93,0.46-7.93-0.2-11.84c-0.07-0.41,0.2-0.8,0.61-0.87C416.62,550.64,417.01,550.91,417.09,551.3z"/>
						</g>
					</g>
					<g>
						<path class="st13" d="M408.6,548.22c-0.05,5.24-0.09,10.49-0.14,15.73c-0.45-0.26-7.11-4.06-11.53-1.16
							c-1.25,0.82-2.81,2.5-2.4,3.72c0.59,1.74,5.04,2,7.84,1.55c3.23-0.52,5.27-2.16,6.09-2.9"/>
						<g>
							<path class="st13" d="M409.59,548.49c-1.39,4.94-1.47,10.24-0.23,15.23l0.52,2.11l-1.91-1.07c-2.17-1.21-4.7-2.13-7.13-2.15
								c-1.21-0.01-2.39,0.25-3.36,0.86c-0.95,0.58-1.96,1.61-2.17,2.43c-0.04,0.19-0.03,0.3,0.03,0.4c0,0.06,0.1,0.11,0.13,0.18
								c0.09,0.06,0.15,0.14,0.27,0.19c0.42,0.25,1.01,0.43,1.6,0.55c1.21,0.23,2.51,0.26,3.78,0.18c2.52-0.15,4.95-1.12,6.81-2.8
								c0.31-0.28,0.78-0.25,1.06,0.06c0.27,0.31,0.25,0.78-0.05,1.05c-2.09,1.93-4.89,3.07-7.69,3.27
								c-1.39,0.11-2.79,0.1-4.21-0.15c-0.71-0.14-1.43-0.31-2.17-0.74c-0.18-0.09-0.37-0.26-0.54-0.4
								c-0.17-0.2-0.35-0.35-0.47-0.61c-0.29-0.48-0.3-1.09-0.2-1.54c0.22-0.93,0.71-1.54,1.19-2.11c0.51-0.55,1.05-1.04,1.7-1.44
								c1.29-0.83,2.83-1.16,4.28-1.17c1.46-0.01,2.87,0.26,4.21,0.67c1.35,0.42,2.61,0.95,3.87,1.65l-1.39,1.04
								c-1.38-5.29-1.37-10.94,0.05-16.24c0.15-0.55,0.71-0.88,1.26-0.73c0.55,0.15,0.88,0.71,0.73,1.26
								C409.6,548.48,409.59,548.49,409.59,548.49z"/>
						</g>
					</g>
					<g>
						<g>
							<path class="st13" d="M442.25,493.7c1.94,3.92,4.58,7.53,7.8,10.56c3.21,3.04,6.99,5.52,11.1,7.27
								c0.27,0.12,0.4,0.43,0.29,0.71c-0.11,0.26-0.41,0.39-0.68,0.3c-4.33-1.55-8.41-3.88-11.96-6.87
								c-3.56-2.99-6.6-6.63-8.92-10.71c-0.37-0.64-0.14-1.47,0.5-1.83c0.64-0.37,1.47-0.14,1.83,0.5
								C442.22,493.65,442.24,493.68,442.25,493.7z"/>
						</g>
						<path class="st56" d="M464.24,508.49c2.46-0.98,4.7-1.16,5-0.4c0.3,0.76-1.44,2.17-3.9,3.15c-2.46,0.98-4.7,1.16-5,0.4
							C460.04,510.88,461.78,509.47,464.24,508.49z"/>
					</g>
					<g>
						<g>
							<path class="st13" d="M383.53,493.54c-2.28,4.06-5.27,7.7-8.79,10.69c-3.51,3-7.54,5.33-11.84,6.89
								c-0.28,0.1-0.59-0.04-0.69-0.32c-0.1-0.27,0.03-0.57,0.29-0.68c4.07-1.76,7.81-4.24,10.97-7.29
								c3.17-3.04,5.77-6.63,7.67-10.54c0.32-0.67,1.13-0.95,1.8-0.62c0.67,0.32,0.95,1.13,0.62,1.8
								C383.56,493.49,383.54,493.52,383.53,493.54z"/>
						</g>
						<path class="st56" d="M359.46,507.06c-2.43-0.98-4.64-1.16-4.94-0.4c-0.3,0.76,1.43,2.17,3.85,3.15
							c2.43,0.98,4.64,1.16,4.94,0.4C363.62,509.46,361.89,508.05,359.46,507.06z"/>
					</g>
					<g>
						<g>
							<path class="st3" d="M388.61,402.39c0,17.46-7.38,31.61-16.49,31.61c-9.11,0-16.49-14.15-16.49-31.61
								c0-17.46,7.38-31.61,16.49-31.61C381.23,370.78,388.61,384.93,388.61,402.39z"/>
							<path class="st13" d="M389.89,402.39c-0.06,6.58-1.09,13.19-3.52,19.38c-1.23,3.08-2.82,6.08-5.1,8.63
								c-1.14,1.26-2.45,2.43-4.01,3.28c-1.54,0.87-3.33,1.37-5.14,1.39c-1.82,0-3.61-0.51-5.15-1.38
								c-1.56-0.84-2.87-2.02-4.02-3.28c-2.29-2.55-3.88-5.55-5.12-8.63c-2.43-6.2-3.44-12.82-3.49-19.4
								c-0.02-6.58,0.92-13.22,3.29-19.48c1.21-3.11,2.79-6.15,5.08-8.77c1.15-1.29,2.48-2.51,4.08-3.39
								c1.58-0.91,3.44-1.47,5.34-1.47c1.89,0.02,3.76,0.56,5.34,1.47c1.6,0.88,2.93,2.09,4.09,3.39c2.3,2.61,3.89,5.65,5.1,8.76
								C389,389.17,389.93,395.81,389.89,402.39z M387.34,402.39c-0.06-6.31-1.06-12.65-3.35-18.44c-1.15-2.88-2.63-5.64-4.63-7.86
								c-1.96-2.22-4.54-3.83-7.24-3.81c-2.69-0.01-5.28,1.58-7.24,3.8c-2,2.22-3.49,4.98-4.65,7.86
								c-2.28,5.8-3.27,12.15-3.31,18.45c-0.03,6.31,0.89,12.67,3.11,18.53c1.13,2.91,2.6,5.71,4.61,7.99
								c1.97,2.28,4.62,4,7.49,4.01c2.87,0.02,5.53-1.71,7.51-3.98c2.02-2.28,3.5-5.08,4.63-7.99
								C386.48,415.07,387.38,408.7,387.34,402.39z"/>
						</g>
						<g>
							<path class="st3" d="M414.54,402.99c0,17.53-7.2,31.74-16.08,31.74c-8.88,0-16.08-14.21-16.08-31.74
								c0-17.53,7.2-31.74,16.08-31.74C407.34,371.25,414.54,385.46,414.54,402.99z"/>
							<path class="st13" d="M415.77,402.99c-0.08,6.54-1.08,13.12-3.44,19.28c-1.2,3.06-2.74,6.05-4.94,8.62
								c-1.1,1.27-2.36,2.46-3.88,3.33c-1.5,0.89-3.26,1.43-5.05,1.43c-0.89-0.02-1.79-0.13-2.64-0.38
								c-0.85-0.26-1.67-0.59-2.42-1.04c-1.52-0.87-2.79-2.05-3.91-3.32c-2.21-2.57-3.74-5.57-4.94-8.64
								c-2.34-6.18-3.32-12.76-3.38-19.3c-0.03-6.54,0.85-13.14,3.12-19.4c1.16-3.11,2.66-6.16,4.88-8.81
								c1.12-1.31,2.41-2.55,3.98-3.47c1.55-0.94,3.41-1.53,5.32-1.55c1.91,0,3.77,0.59,5.33,1.53c1.58,0.92,2.87,2.16,4,3.47
								c2.23,2.66,3.74,5.7,4.92,8.81C414.96,389.83,415.82,396.44,415.77,402.99z M413.32,402.99c-0.07-6.29-1.06-12.62-3.28-18.42
								c-1.11-2.88-2.55-5.66-4.48-7.92c-1.91-2.25-4.44-3.92-7.1-3.9c-2.66-0.05-5.21,1.63-7.13,3.88
								c-1.95,2.26-3.4,5.04-4.52,7.92c-2.21,5.82-3.17,12.15-3.23,18.45c-0.04,6.3,0.83,12.65,2.96,18.55
								c1.09,2.92,2.5,5.75,4.46,8.1c1.93,2.32,4.55,4.17,7.45,4.16c2.9,0.02,5.54-1.81,7.49-4.13c1.96-2.35,3.37-5.19,4.46-8.11
								C412.53,415.64,413.37,409.28,413.32,402.99z"/>
						</g>
						<g>
							<path class="st13" d="M407.39,375.21c0.69,2.23,2.31,4.16,4.37,5.2c2.02,1.09,4.61,1.16,6.55,0.14
								c1.94-1.04,3.1-3.36,2.91-5.64c-0.07-1.15-0.42-2.28-1.08-3.17c-0.65-0.91-1.59-1.62-2.65-1.94
								c-1.03-0.34-2.26-0.29-3.19,0.18c-0.94,0.48-1.62,1.45-1.82,2.54c-0.19,1.08,0.04,2.3,0.74,3.14
								c0.68,0.86,1.82,1.35,2.89,1.16c1.06-0.14,1.86-1.16,1.84-2.28c-0.01-0.56-0.17-1.12-0.52-1.54
								c-0.34-0.42-0.86-0.71-1.4-0.75c-0.55-0.04-1.08,0.16-1.38,0.63c-0.3,0.45-0.33,1.09-0.09,1.59c0.24,0.5,0.81,0.85,1.38,0.75
								c0.56-0.07,0.93-0.72,0.75-1.29l0.23-0.07c0.27,0.66-0.13,1.57-0.91,1.72c-0.73,0.18-1.51-0.23-1.87-0.87
								c-0.36-0.65-0.38-1.46,0-2.13c0.36-0.69,1.18-1.07,1.92-1.04c0.76,0.02,1.48,0.38,1.98,0.94c0.51,0.56,0.77,1.31,0.8,2.04
								c0.03,0.74-0.17,1.51-0.62,2.13c-0.44,0.62-1.16,1.09-1.91,1.23c-1.49,0.34-3.1-0.28-4.06-1.42c-1-1.15-1.35-2.71-1.15-4.17
								c0.21-1.47,1.1-2.88,2.46-3.65c1.38-0.75,2.94-0.82,4.38-0.43c1.44,0.4,2.69,1.31,3.58,2.49c0.91,1.18,1.38,2.63,1.5,4.06
								c0.14,1.45-0.13,2.94-0.76,4.27c-0.65,1.33-1.69,2.48-3.01,3.22c-2.66,1.43-5.86,1.28-8.42-0.03
								c-2.57-1.31-4.53-3.69-5.36-6.42L407.39,375.21z"/>
						</g>
						<g>
							<path class="st13" d="M363.17,377.21c-1.11,2.6-3.24,4.75-5.89,5.82c-2.64,1.08-5.82,0.97-8.32-0.72
								c-1.23-0.86-2.13-2.13-2.62-3.51c-0.47-1.39-0.56-2.88-0.26-4.29c0.27-1.39,0.89-2.76,1.89-3.84
								c0.98-1.08,2.3-1.86,3.75-2.13c1.45-0.27,3-0.06,4.29,0.82c1.27,0.89,1.99,2.4,2.02,3.87c0.03,1.46-0.48,2.94-1.57,3.98
								c-1.05,1.03-2.68,1.52-4.13,1.04c-0.73-0.21-1.39-0.75-1.76-1.41c-0.38-0.67-0.48-1.45-0.37-2.17c0.12-0.72,0.45-1.42,1-1.93
								c0.54-0.5,1.29-0.8,2.04-0.76c0.74,0.03,1.52,0.5,1.8,1.22c0.3,0.7,0.18,1.5-0.24,2.1c-0.42,0.6-1.22,0.94-1.93,0.69
								c-0.36-0.11-0.65-0.41-0.77-0.75c-0.12-0.35-0.09-0.73,0.06-1.04l0.22,0.1c-0.24,0.55,0.04,1.23,0.59,1.35
								c0.54,0.15,1.14-0.15,1.42-0.62c0.29-0.47,0.33-1.11,0.09-1.58c-0.23-0.49-0.74-0.75-1.28-0.75c-0.53,0-1.07,0.24-1.45,0.62
								c-0.38,0.38-0.6,0.92-0.67,1.47c-0.14,1.1,0.52,2.2,1.55,2.42c1.03,0.28,2.2-0.11,2.95-0.9c0.76-0.77,1.12-1.94,1.06-3.03
								c-0.06-1.1-0.63-2.12-1.49-2.68c-0.86-0.55-2.06-0.71-3.11-0.46c-1.07,0.23-2.07,0.84-2.8,1.68c-0.74,0.82-1.2,1.9-1.4,3.02
								c-0.44,2.23,0.43,4.64,2.22,5.85c0.87,0.6,2,0.93,3.12,1.01c1.12,0.08,2.27-0.14,3.32-0.57c2.13-0.85,3.9-2.6,4.82-4.73
								L363.17,377.21z"/>
						</g>
					</g>
					<g>
						<path class="st57" d="M374.53,402.81c0,11.32-4.21,20.49-9.41,20.49c-5.2,0-9.41-9.18-9.41-20.49
							c0-11.32,4.21-20.49,9.41-20.49C370.32,382.32,374.53,391.49,374.53,402.81z"/>
						<g>
							<g>
								<path class="st3" d="M361.86,401.57c-0.66-1.05-0.82-2.43-0.43-3.67c0.41-1.24,1.4-2.27,2.6-2.82
									c1.2-0.57,2.71-0.6,3.93,0.02c1.2,0.61,2.22,1.64,2.57,3.07c0.15,0.71,0,1.54-0.46,2.14c-0.44,0.6-1.05,0.99-1.68,1.24
									c-0.64,0.24-1.31,0.36-1.99,0.33c-0.67-0.04-1.42-0.22-1.95-0.8c-0.5-0.57-0.67-1.29-0.61-1.99
									c0.04-0.71,0.55-1.41,1.19-1.65c0.61-0.26,1.4-0.31,1.94,0.18c0.53,0.48,0.51,1.26,0.26,1.8c0.15-0.59,0.03-1.28-0.43-1.6
									c-0.45-0.32-1.09-0.21-1.55,0.06c-1.04,0.48-0.94,1.99-0.24,2.67c1.5,1.2,5.08-0.14,4.55-2.17c-0.21-1-1.05-1.92-2.02-2.42
									c-0.96-0.54-2.15-0.54-3.21-0.16c-1.06,0.39-1.99,1.22-2.44,2.29C361.39,399.14,361.41,400.42,361.86,401.57z"/>
							</g>
							<g>
								<path class="st3" d="M361.59,401.7c0.5-1.16,0.52-2.48,0-3.55c-0.48-1.09-1.46-1.89-2.56-2.28
									c-1.1-0.38-2.31-0.38-3.32,0.15c-1,0.49-1.9,1.4-2.14,2.41c-0.28,1,0.53,1.9,1.59,2.3c1.02,0.43,2.37,0.51,3.15-0.08
									c0.37-0.32,0.6-0.88,0.59-1.41c0-0.54-0.29-1.01-0.81-1.27c-0.48-0.27-1.13-0.39-1.61-0.09c-0.49,0.3-0.65,1.01-0.48,1.61
									c-0.26-0.56-0.25-1.36,0.32-1.82c0.57-0.45,1.36-0.4,1.98-0.14c0.32,0.14,0.62,0.34,0.85,0.65c0.22,0.3,0.34,0.66,0.38,1.02
									c0.05,0.72-0.16,1.45-0.69,2.01c-0.57,0.55-1.32,0.72-2,0.74c-0.69,0.02-1.37-0.1-2.02-0.34c-0.64-0.25-1.27-0.62-1.73-1.22
									c-0.24-0.29-0.4-0.66-0.5-1.04c-0.07-0.38-0.07-0.78,0.01-1.15c0.39-1.46,1.48-2.46,2.71-3.05c1.26-0.59,2.78-0.56,4-0.01
									c1.23,0.54,2.28,1.54,2.73,2.81C362.47,399.23,362.3,400.65,361.59,401.7z"/>
							</g>
							<g>
								<path class="st3" d="M353.72,401.96c2.77-0.39,5.53-0.48,8.3-0.5c2.77,0.01,5.53,0.1,8.3,0.5c-2.77,0.4-5.53,0.49-8.3,0.5
									C359.25,402.44,356.48,402.35,353.72,401.96z"/>
							</g>
						</g>
						<path class="st58" d="M400.37,402.33c0,11.06-4.32,20.02-9.64,20.02c-5.32,0-9.64-8.96-9.64-20.02
							c0-11.05,4.32-20.02,9.64-20.02C396.05,382.32,400.37,391.28,400.37,402.33"/>
						<g>
							<g>
								<path class="st3" d="M385.39,400.85c2.77-0.39,5.53-0.48,8.3-0.5c2.77,0.01,5.53,0.1,8.3,0.5c-2.77,0.4-5.53,0.49-8.3,0.5
									C390.92,401.33,388.16,401.24,385.39,400.85z"/>
							</g>
							<g>
								<path class="st3" d="M394.21,400.82c-0.66-1.05-0.82-2.43-0.43-3.67c0.41-1.24,1.4-2.27,2.6-2.82
									c1.2-0.57,2.71-0.6,3.93,0.02c1.2,0.61,2.22,1.64,2.57,3.07c0.15,0.71,0,1.54-0.46,2.14c-0.44,0.6-1.05,0.99-1.68,1.24
									c-0.64,0.24-1.31,0.36-1.99,0.33c-0.67-0.04-1.42-0.22-1.95-0.8c-0.5-0.57-0.67-1.29-0.61-1.99
									c0.04-0.71,0.55-1.41,1.19-1.65c0.61-0.26,1.4-0.31,1.94,0.18c0.53,0.48,0.51,1.26,0.26,1.8c0.15-0.59,0.03-1.28-0.43-1.6
									c-0.45-0.32-1.09-0.21-1.55,0.06c-1.04,0.47-0.94,1.99-0.24,2.67c1.5,1.2,5.08-0.15,4.55-2.17c-0.21-1-1.05-1.92-2.02-2.42
									c-0.96-0.54-2.15-0.54-3.21-0.16c-1.06,0.39-1.99,1.22-2.44,2.29C393.74,398.39,393.76,399.68,394.21,400.82z"/>
							</g>
							<g>
								<path class="st3" d="M393.94,400.96c0.5-1.16,0.52-2.48,0-3.55c-0.48-1.09-1.46-1.89-2.56-2.28
									c-1.1-0.38-2.31-0.38-3.32,0.15c-1,0.49-1.9,1.4-2.14,2.41c-0.28,1,0.53,1.9,1.59,2.3c1.02,0.43,2.37,0.51,3.15-0.08
									c0.37-0.32,0.6-0.89,0.59-1.41c0-0.54-0.29-1.01-0.81-1.27c-0.48-0.27-1.13-0.39-1.61-0.09c-0.49,0.3-0.65,1.01-0.48,1.61
									c-0.26-0.56-0.25-1.36,0.32-1.82c0.57-0.45,1.36-0.4,1.98-0.14c0.32,0.14,0.62,0.34,0.85,0.65c0.22,0.3,0.34,0.66,0.38,1.02
									c0.05,0.72-0.16,1.45-0.69,2.01c-0.57,0.55-1.32,0.71-2.01,0.74c-0.69,0.02-1.37-0.1-2.02-0.34
									c-0.64-0.25-1.27-0.61-1.73-1.22c-0.24-0.29-0.4-0.66-0.5-1.04c-0.07-0.38-0.07-0.78,0.01-1.15
									c0.39-1.46,1.48-2.46,2.71-3.05c1.26-0.59,2.78-0.57,4-0.01c1.23,0.54,2.28,1.54,2.73,2.81
									C394.82,398.48,394.65,399.9,393.94,400.96z"/>
							</g>
						</g>
					</g>
					<g>
						<g>
							<path class="st54" d="M367.59,343.88c1.95-0.99,6.3-3.56,8.88-8.73c3.4-6.83,2.89-16.53-2.41-20.85
								c-7.66-6.25-21.53,1.87-24.95,3.88c-14.21,8.33-26.14,26.41-21.01,34.47c3.83,6,17.03,6.27,25.82,1.12
								c7.21-4.23,14.79-14.05,11.37-21.42c-2.15-4.62-8.05-7.03-12.91-6.68c-10.58,0.76-17.95,14.67-15.09,19.75
								c1.93,3.43,9.42,4.41,13.82,1.16c3.24-2.4,5.24-7.42,3.57-9.37c-1.96-2.28-9.05-0.43-9.58,2.28
								c-0.09,0.48-0.09,1.53,1.59,3.13"/>
							<g>
								<path class="st13" d="M367.59,343.88c3.66-3.88,6.48-7.35,8.01-11.71c1.46-4.32,1.45-9.38-0.45-13.29
									c-0.95-1.94-2.42-3.47-4.31-4.23c-1.89-0.78-4.17-0.88-6.46-0.58c-4.62,0.65-9.21,2.68-13.51,5.07
									c-4.31,2.36-8.21,5.39-11.71,8.89c-3.47,3.5-6.55,7.45-8.77,11.81c-1.08,2.18-1.94,4.48-2.24,6.8
									c-0.32,2.31,0.05,4.64,1.52,6.25c1.5,1.61,3.76,2.56,6.09,3.06c2.35,0.48,4.82,0.53,7.25,0.28
									c4.86-0.54,9.62-2.3,13.34-5.46c1.88-1.55,3.56-3.36,4.97-5.32c1.39-1.97,2.56-4.12,3.09-6.36
									c0.52-2.22,0.47-4.53-0.58-6.39c-1.01-1.88-2.83-3.32-4.89-4.25c-2.06-0.92-4.4-1.35-6.61-1.16
									c-2.21,0.19-4.36,1.07-6.26,2.37c-1.9,1.31-3.56,3.04-4.9,4.99c-1.33,1.94-2.38,4.13-2.84,6.33
									c-0.23,1.09-0.27,2.21-0.04,3.09c0.1,0.46,0.32,0.77,0.58,1.12c0.3,0.32,0.66,0.65,1.11,0.9c1.8,1.04,4.24,1.37,6.47,1.04
									c1.12-0.17,2.22-0.5,3.19-1.03c0.96-0.52,1.8-1.27,2.53-2.16c0.73-0.88,1.32-1.9,1.7-2.96c0.4-1.03,0.52-2.21,0.21-2.9
									c-0.24-0.61-1.32-0.99-2.44-1.01c-1.13-0.02-2.31,0.2-3.4,0.6c-0.53,0.21-1.07,0.46-1.5,0.78c-0.45,0.31-0.81,0.7-0.92,1.08
									c-0.17,0.35-0.04,0.83,0.21,1.31c0.25,0.48,0.63,0.94,1.05,1.37l0.01,0.01c0.21,0.22,0.21,0.58-0.02,0.79
									c-0.21,0.2-0.55,0.21-0.76,0.01c-0.49-0.45-0.97-0.94-1.36-1.55c-0.37-0.59-0.72-1.43-0.46-2.31
									c0.22-0.86,0.79-1.44,1.34-1.88c0.56-0.47,1.18-0.78,1.8-1.07c1.26-0.54,2.59-0.86,4-0.92c0.71,0.01,1.43,0.02,2.19,0.29
									c0.73,0.24,1.57,0.74,2.01,1.58c0.44,0.8,0.5,1.63,0.47,2.38c-0.03,0.76-0.19,1.46-0.41,2.13
									c-0.43,1.34-1.09,2.57-1.93,3.68c-0.83,1.11-1.88,2.11-3.12,2.85c-1.23,0.73-2.59,1.19-3.96,1.44
									c-1.37,0.25-2.78,0.3-4.17,0.14c-1.39-0.17-2.79-0.53-4.11-1.27c-0.66-0.35-1.29-0.85-1.85-1.45
									c-0.54-0.62-1.02-1.4-1.21-2.19c-0.44-1.56-0.35-3.05-0.1-4.44c0.52-2.78,1.7-5.25,3.2-7.51c1.51-2.24,3.38-4.26,5.63-5.86
									c2.24-1.6,4.94-2.72,7.79-2.96c2.85-0.24,5.65,0.33,8.19,1.51c2.52,1.17,4.86,3.09,6.18,5.75c0.34,0.65,0.53,1.37,0.77,2.06
									l0.19,1.08l0.09,0.54l0.02,0.54l0.02,1.08c-0.02,0.36-0.07,0.7-0.11,1.06c-0.05,0.71-0.25,1.38-0.41,2.05
									c-0.74,2.68-2.14,5.01-3.73,7.11c-1.61,2.1-3.49,3.96-5.56,5.58c-2.05,1.63-4.38,2.98-6.84,3.92
									c-2.45,0.95-5.02,1.56-7.62,1.85c-2.6,0.29-5.26,0.28-7.88-0.23c-2.59-0.53-5.27-1.54-7.28-3.64
									c-0.98-1.08-1.7-2.41-2.02-3.81c-0.34-1.4-0.36-2.81-0.21-4.16c0.29-2.72,1.21-5.24,2.29-7.63
									c2.24-4.76,5.35-8.99,8.88-12.8c3.55-3.78,7.62-7.17,12.15-9.78c2.23-1.32,4.55-2.54,6.98-3.56
									c2.43-1.02,4.98-1.87,7.69-2.31c2.7-0.43,5.67-0.43,8.5,0.72c2.85,1.11,5.11,3.5,6.38,6.09c0.36,0.64,0.58,1.32,0.85,1.99
									c0.2,0.68,0.43,1.36,0.56,2.05c0.32,1.38,0.42,2.77,0.47,4.16c0.01,2.77-0.38,5.52-1.31,8.14
									c-0.45,1.31-1.04,2.59-1.77,3.78c-0.75,1.18-1.64,2.27-2.67,3.19C372.77,342.25,370.28,343.55,367.59,343.88z"/>
							</g>
						</g>
						<g>
							<path class="st13" d="M448.94,346.8c2.16,1.42,4.34,2.59,6.62,3.39c2.28,0.81,4.64,1.17,7.01,1.19
								c4.72-0.01,9.67-1.63,12.94-4.87c1.62-1.61,2.69-3.65,2.81-5.85c0.15-2.21-0.56-4.48-1.61-6.61
								c-2.18-4.27-5.62-7.97-9.3-11.29c-3.66-3.34-7.84-6.06-12.3-8.24c-4.46-2.15-9.22-3.79-14.09-4.47
								c-2.43-0.32-4.9-0.38-7.21,0.1c-2.31,0.46-4.42,1.58-5.47,3.51c-1.05,1.95-1.23,4.41-0.95,6.77
								c0.29,2.39,1.04,4.74,2.06,6.96c2.09,4.43,5.26,8.36,9.42,10.89c2.07,1.28,4.3,2.32,6.61,3.04c2.3,0.7,4.71,1.14,7.01,0.94
								c2.27-0.2,4.45-0.97,5.9-2.56c1.48-1.54,2.32-3.73,2.54-5.99c0.25-2.26-0.07-4.64-0.95-6.7c-0.86-2.07-2.38-3.87-4.24-5.28
								c-1.86-1.41-4.05-2.45-6.34-3.12c-2.28-0.66-4.71-0.98-6.99-0.7c-1.13,0.13-2.23,0.45-3.04,0.98
								c-0.8,0.5-1.22,1.33-1.47,2.38c-0.45,2.1,0.04,4.56,1.08,6.61c0.52,1.03,1.2,1.98,2.03,2.76c0.83,0.77,1.83,1.34,2.92,1.76
								c1.09,0.42,2.26,0.66,3.41,0.68c1.13,0.04,2.34-0.19,2.98-0.78c0.59-0.55,0.57-1.76,0.23-2.85c-0.35-1.11-0.95-2.18-1.69-3.1
								c-0.38-0.45-0.79-0.89-1.26-1.21c-0.45-0.34-0.97-0.58-1.44-0.57c-0.46-0.04-0.92,0.27-1.31,0.69
								c-0.39,0.42-0.71,0.94-0.99,1.48l0,0.01c-0.09,0.18-0.32,0.25-0.5,0.16c-0.17-0.09-0.24-0.3-0.17-0.48
								c0.27-0.6,0.57-1.19,1.02-1.73c0.43-0.51,1.07-1.07,1.91-1.09c0.81-0.06,1.51,0.27,2.09,0.65c0.6,0.37,1.08,0.84,1.55,1.34
								c0.89,1.01,1.61,2.15,2.09,3.44c0.21,0.66,0.42,1.33,0.4,2.09c0,0.73-0.19,1.63-0.8,2.26c-0.58,0.62-1.31,0.93-2,1.14
								c-0.7,0.21-1.4,0.28-2.09,0.28c-1.38,0.02-2.73-0.22-4.03-0.66c-1.29-0.43-2.55-1.09-3.62-2.02
								c-1.06-0.92-1.91-2.04-2.57-3.24c-1.29-2.41-2.02-5.17-1.53-8.07c0.11-0.72,0.38-1.45,0.76-2.15
								c0.41-0.68,0.97-1.35,1.63-1.77c1.3-0.88,2.72-1.26,4.09-1.46c2.76-0.38,5.46-0.05,8.05,0.64c2.58,0.71,5.07,1.83,7.29,3.44
								c2.2,1.6,4.12,3.76,5.27,6.36c1.12,2.6,1.49,5.41,1.21,8.18c-0.31,2.75-1.35,5.57-3.43,7.68c-0.5,0.53-1.13,0.94-1.7,1.39
								l-0.96,0.53l-0.48,0.26l-0.51,0.19l-1.02,0.36c-0.34,0.1-0.69,0.16-1.04,0.23c-0.69,0.18-1.39,0.2-2.08,0.26
								c-2.77,0.16-5.43-0.42-7.94-1.27c-2.5-0.86-4.87-2.05-7.06-3.5c-2.2-1.43-4.23-3.2-5.89-5.25c-1.67-2.03-3.05-4.29-4.14-6.67
								c-1.09-2.38-1.92-4.9-2.26-7.55c-0.31-2.62-0.19-5.47,1.17-8.03c0.72-1.25,1.75-2.35,2.97-3.08c1.21-0.75,2.54-1.2,3.86-1.48
								c2.66-0.56,5.32-0.47,7.92-0.18c5.19,0.66,10.15,2.3,14.84,4.48c4.67,2.19,9.11,5.01,12.97,8.48c1.93,1.7,3.79,3.52,5.5,5.49
								c1.7,1.97,3.27,4.1,4.5,6.49c1.22,2.37,2.08,5.11,1.9,7.99c-0.16,2.89-1.62,5.62-3.59,7.56c-0.98,0.99-2.09,1.82-3.27,2.5
								c-1.16,0.71-2.41,1.23-3.67,1.7c-2.54,0.86-5.21,1.34-7.9,1.28C457.13,353.88,451.84,351.06,448.94,346.8z"/>
						</g>
						<g>
							<path class="st13" d="M422.18,361.44c1.46-1.62,2.93-3.23,4.42-4.82l4.51-4.73l4.57-4.65c1.53-1.54,3.09-3.06,4.66-4.56
								c0.62-0.59,1.6-0.57,2.19,0.05c0.59,0.62,0.57,1.6-0.05,2.19c-0.01,0.01-0.03,0.03-0.05,0.05c-1.63,1.43-3.28,2.85-4.95,4.25
								l-5.03,4.16l-5.1,4.08C425.65,358.8,423.92,360.13,422.18,361.44z"/>
						</g>
						<g>
							<path class="st13" d="M440.08,365.28c0.46-1.83,1.1-3.57,1.8-5.28c0.7-1.71,1.46-3.39,2.3-5.03
								c0.83-1.65,1.73-3.25,2.69-4.83c0.96-1.58,1.99-3.12,3.19-4.58c-0.46,1.83-1.1,3.57-1.8,5.28c-0.7,1.71-1.46,3.39-2.3,5.03
								c-0.83,1.64-1.73,3.25-2.69,4.83C442.3,362.27,441.28,363.82,440.08,365.28z"/>
						</g>
						<g>
							<path class="st13" d="M452.96,370.04c-0.28-1.8-0.37-3.59-0.39-5.37c-0.02-1.78,0.03-3.56,0.16-5.33
								c0.12-1.77,0.33-3.54,0.6-5.3c0.27-1.76,0.62-3.51,1.16-5.25c0.29,1.8,0.37,3.59,0.39,5.37c0.02,1.78-0.03,3.56-0.17,5.33
								c-0.13,1.77-0.33,3.54-0.61,5.3C453.84,366.54,453.5,368.3,452.96,370.04z"/>
						</g>
						<g>
							<path class="st13" d="M462.34,371.25c-0.79-1.28-1.38-2.61-1.91-3.96c-0.53-1.35-0.99-2.72-1.38-4.11
								c-0.39-1.39-0.7-2.8-0.95-4.23c-0.25-1.43-0.43-2.88-0.41-4.38c0.79,1.28,1.39,2.61,1.92,3.96c0.53,1.35,0.99,2.72,1.37,4.11
								c0.39,1.39,0.7,2.8,0.95,4.23C462.17,368.3,462.35,369.75,462.34,371.25z"/>
						</g>
						<g>
							<path class="st13" d="M396.93,340.19c-1.98,0.38-3.95,0.56-5.92,0.67c-1.97,0.11-3.94,0.15-5.91,0.12
								c-1.97-0.03-3.93-0.15-5.9-0.33c-1.97-0.18-3.93-0.43-5.89-0.89c1.98-0.38,3.95-0.56,5.92-0.67
								c1.97-0.11,3.94-0.15,5.91-0.11c1.97,0.03,3.93,0.15,5.9,0.33C393,339.49,394.97,339.74,396.93,340.19z"/>
						</g>
						<g>
							<path class="st13" d="M385.05,345.69c-1.71,0.04-3.38-0.12-5.03-0.34c-1.65-0.22-3.29-0.52-4.91-0.89
								c-1.62-0.36-3.22-0.81-4.81-1.32c-1.59-0.51-3.16-1.09-4.69-1.86c1.71-0.04,3.38,0.12,5.03,0.34
								c1.65,0.23,3.29,0.52,4.91,0.89c1.62,0.37,3.22,0.81,4.81,1.32C381.95,344.34,383.53,344.92,385.05,345.69z"/>
						</g>
						<g>
							<path class="st13" d="M373.31,357.02c-1.29-0.66-2.45-1.46-3.55-2.31c-1.11-0.85-2.17-1.75-3.17-2.71
								c-1.01-0.95-1.96-1.97-2.87-3.03c-0.9-1.06-1.76-2.18-2.48-3.43c1.29,0.65,2.45,1.45,3.55,2.3c1.11,0.85,2.17,1.75,3.17,2.71
								c1.01,0.96,1.96,1.97,2.86,3.03C371.74,354.65,372.59,355.77,373.31,357.02z"/>
						</g>
						<g>
							<path class="st13" d="M362.68,362.59c-0.89-0.72-1.59-1.55-2.25-2.4c-0.65-0.86-1.23-1.75-1.76-2.68
								c-0.52-0.93-0.99-1.89-1.38-2.89c-0.38-1.01-0.73-2.04-0.88-3.17c0.89,0.72,1.59,1.55,2.25,2.4
								c0.65,0.86,1.23,1.75,1.75,2.68c0.52,0.93,0.99,1.89,1.38,2.89C362.18,360.43,362.52,361.46,362.68,362.59z"/>
						</g>
						<g>
							<path class="st13" d="M352.09,366.22c-0.4-0.81-0.58-1.61-0.72-2.41c-0.13-0.8-0.17-1.6-0.15-2.39
								c0.02-0.8,0.11-1.59,0.28-2.38c0.18-0.79,0.41-1.58,0.85-2.37c0.4,0.81,0.59,1.61,0.72,2.41c0.13,0.8,0.17,1.6,0.15,2.39
								c-0.02,0.8-0.11,1.59-0.28,2.38C352.75,364.64,352.52,365.43,352.09,366.22z"/>
						</g>
						<path class="st55" d="M404.15,484.08l-0.09,7.85c0.55,2.01,1.84,3.36,3.29,3.47c1.41,0.11,2.76-0.99,3.46-2.83
							c-0.09-3.17-0.17-6.35-0.26-9.52"/>
						<g>
							<path class="st13" d="M482.73,408.34c0.01,10.11-1.97,20.24-5.85,29.59c-3.86,9.36-9.6,17.93-16.75,25.1
								c-7.15,7.16-15.72,12.91-25.08,16.8c-9.35,3.9-19.48,5.9-29.61,5.91c-10.13,0.01-20.26-1.98-29.63-5.86
								c-9.37-3.87-17.96-9.61-25.13-16.77c-7.17-7.16-12.93-15.74-16.82-25.11c-3.9-9.37-5.91-19.51-5.92-29.65
								c0.01-10.14,2.01-20.29,5.92-29.65c3.89-9.37,9.65-17.95,16.82-25.11c7.18-7.16,15.76-12.9,25.13-16.77
								c9.37-3.88,19.51-5.86,29.63-5.86c10.13,0.01,20.26,2.01,29.61,5.91c9.36,3.88,17.92,9.63,25.08,16.8
								c7.15,7.16,12.88,15.74,16.75,25.1C480.76,388.11,482.74,398.23,482.73,408.34z M478.18,408.34
								c-0.01-9.53-1.89-19.04-5.55-27.82c-3.65-8.79-9.05-16.84-15.79-23.56c-6.74-6.72-14.8-12.11-23.58-15.74
								c-8.79-3.64-18.29-5.5-27.8-5.49c-9.51,0.01-19.01,1.89-27.78,5.54c-8.77,3.64-16.81,9.04-23.53,15.76
								c-6.71,6.73-12.09,14.77-15.71,23.55c-3.63,8.77-5.49,18.26-5.49,27.76c-0.01,9.5,1.85,18.99,5.48,27.76
								c3.62,8.78,9,16.82,15.71,23.55c6.71,6.72,14.75,12.12,23.53,15.76c8.77,3.65,18.27,5.53,27.78,5.54
								c9.51,0.01,19.02-1.85,27.8-5.49c8.79-3.63,16.85-9.01,23.58-15.74c6.73-6.72,12.14-14.77,15.79-23.56
								C476.28,427.38,478.16,417.87,478.18,408.34z"/>
						</g>
						<g>
							<path class="st13" d="M412.16,348.79c1.72-0.98,3.44-1.94,5.18-2.88l5.22-2.77c3.51-1.79,7.01-3.59,10.58-5.24
								c0.78-0.36,1.7-0.02,2.06,0.76c0.36,0.78,0.02,1.7-0.76,2.06c-0.02,0.01-0.04,0.02-0.05,0.02
								c-3.63,1.51-7.33,2.86-11.02,4.23l-5.58,1.96C415.92,347.58,414.04,348.2,412.16,348.79z"/>
						</g>
						<g>
							<path class="st13" d="M406.46,340.1c1.3-0.5,2.61-0.98,3.92-1.44l3.94-1.32c2.64-0.82,5.28-1.66,7.96-2.32
								c0.83-0.21,1.67,0.3,1.88,1.13c0.21,0.83-0.3,1.67-1.13,1.88c-0.02,0.01-0.06,0.01-0.08,0.02c-2.71,0.52-5.45,0.88-8.2,1.24
								l-4.13,0.46C409.24,339.9,407.86,340.01,406.46,340.1z"/>
						</g>
					</g>
					<g>
						<g>
							<path class="st13" d="M391.52,514.3c-0.52,3.29-1.27,6.54-2.2,9.74c-0.95,3.2-2.08,6.35-3.45,9.41
								c-1.39,3.05-2.97,6.03-4.89,8.82c-1.91,2.77-4.02,5.52-6.89,7.42c-0.47,0.31-1.09,0.18-1.4-0.28
								c-0.24-0.37-0.22-0.83,0.03-1.17l0.02-0.03c1.95-2.59,4.08-4.9,5.9-7.54c1.84-2.61,3.37-5.45,4.74-8.37
								c2.76-5.83,4.73-12.05,6.17-18.38c0.12-0.54,0.66-0.88,1.2-0.76C391.27,513.28,391.6,513.78,391.52,514.3z"/>
						</g>
						<g>
							<path class="st13" d="M411.43,491.6l29.21,0.84l1.04,0.03l-0.26,1.01c-0.87,3.44-2.15,6.7-3.21,9.98
								c-1.05,3.26-1.94,6.59-1.83,9.9l-0.92,0.95c-7.53,0.07-15.05-0.01-22.58-0.11l-11.29-0.2l-11.28-0.29l-0.58-0.01l-0.08-0.56
								v0c-0.55-3.76-1.93-7.39-3.46-10.93c-1.54-3.55-3.26-7.06-4.64-10.75l-0.36-0.97l1.04,0.03l21.15,0.71
								c0.39,0.01,0.7,0.34,0.69,0.73c-0.01,0.39-0.34,0.7-0.73,0.69l0,0l-21.15-0.74l0.67-0.93c1.34,3.61,3.05,7.1,4.6,10.69
								c1.54,3.59,2.97,7.32,3.54,11.28v0l-0.67-0.58c3.77-0.06,7.53-0.1,11.29-0.11l11.29-0.02l11.29,0.06
								c3.76,0.04,7.53,0.1,11.28,0.18l-0.92,0.95c-0.08-3.69,0.91-7.18,2-10.5c1.11-3.33,2.39-6.55,3.26-9.85l0.78,1.04l-29.2-1.06
								c-0.4-0.01-0.71-0.35-0.7-0.75C410.7,491.89,411.04,491.58,411.43,491.6z"/>
						</g>
						
							<pattern  id="SVGID_8_" xlink:href="#New_Pattern_Swatch_1" patternTransform="matrix(0.2645 -0.0545 0.0538 0.261 -3564.2073 -5529.5513)">
						</pattern>
						<path class="st31" d="M391.19,512.19c-0.71-2.79-1.63-5.82-2.82-9.02c-1.63-4.37-3.44-8.19-5.21-11.45
							c6.68,0.33,13.36,0.65,20.04,0.98c0.44,2.26,2.45,3.82,4.59,3.71c1.87-0.1,3.52-1.47,4.03-3.38
							c9.24,0.4,18.47,0.81,27.71,1.21c-0.95,2.45-1.88,5.11-2.74,7.98c-1.08,3.6-1.89,7.01-2.5,10.15"/>
						<g>
							<path class="st13" d="M444.47,541.21c0.88,1.94,2.23,3.67,3.74,5.19c1.52,1.52,3.25,2.84,5.1,3.91
								c1.84,1.07,3.83,1.91,5.85,2.33c2.01,0.45,4.1,0.44,5.9-0.26c3.76-1.37,6.54-5.06,6.85-9.09c0.17-1.99-0.24-4.1-1.23-5.83
								c-0.97-1.74-2.64-3.09-4.55-3.75c-1.91-0.68-4.06-0.62-5.95,0.13c-1.87,0.7-3.34,2.3-3.93,4.19
								c-0.59,1.87-0.27,4.08,0.86,5.6c1.13,1.54,3.19,2.35,5.07,1.99c0.95-0.16,1.83-0.56,2.47-1.22c0.65-0.65,1.05-1.55,1.11-2.47
								c0.07-0.91-0.2-1.89-0.74-2.58c-0.56-0.7-1.44-1.15-2.36-1.18c-0.92-0.03-1.87,0.32-2.39,1.05c-0.55,0.7-0.67,1.76-0.26,2.59
								c0.4,0.82,1.42,1.29,2.37,1.07c0.96-0.17,1.63-1.27,1.28-2.28c-0.02-0.07,0.01-0.14,0.08-0.16c0.06-0.02,0.13,0.01,0.16,0.06
								c0.27,0.53,0.29,1.2,0.04,1.77c-0.24,0.57-0.77,1.03-1.37,1.23c-1.19,0.45-2.68-0.06-3.37-1.22
								c-0.68-1.12-0.64-2.61,0.1-3.73c0.36-0.56,0.89-1.01,1.5-1.29c0.59-0.28,1.23-0.43,1.89-0.43c1.3-0.01,2.61,0.56,3.49,1.56
								c0.89,1.02,1.24,2.35,1.17,3.64c-0.07,1.29-0.61,2.56-1.51,3.5c-0.9,0.96-2.13,1.54-3.36,1.76c-2.5,0.47-5.2-0.6-6.71-2.65
								c-1.5-2.07-1.81-4.74-1.08-7.1c0.75-2.34,2.58-4.34,4.88-5.22c2.24-0.91,4.8-0.96,7.1-0.23c2.31,0.72,4.36,2.31,5.64,4.4
								c1.29,2.09,1.86,4.52,1.75,6.95c-0.12,2.42-0.94,4.83-2.4,6.8c-1.45,1.97-3.47,3.51-5.77,4.37c-2.39,0.86-4.94,0.76-7.23,0.2
								c-2.3-0.59-4.42-1.63-6.35-2.88c-1.93-1.27-3.68-2.77-5.2-4.48c-1.52-1.71-2.83-3.64-3.7-5.79c-0.12-0.3,0.02-0.63,0.32-0.75
								C444.01,540.78,444.34,540.92,444.47,541.21L444.47,541.21z"/>
						</g>
						<g>
							<path class="st13" d="M380.22,541.91c-1.12,2.41-2.82,4.45-4.7,6.24c-1.89,1.78-4.01,3.33-6.27,4.62
								c-2.27,1.29-4.68,2.34-7.24,3.03c-2.55,0.66-5.27,0.96-7.99,0.55c-1.37-0.21-2.67-0.61-3.92-1.15
								c-1.25-0.54-2.44-1.24-3.52-2.1c-2.17-1.69-3.85-4.17-4.36-6.98c-0.54-2.81,0.21-5.74,1.85-8.01
								c1.68-2.25,4.12-3.74,6.69-4.5c2.57-0.77,5.32-0.89,7.94-0.33c2.61,0.52,5.25,1.97,6.71,4.44c0.7,1.23,1.09,2.7,0.91,4.15
								c-0.16,1.42-0.73,2.82-1.71,3.89c-1.96,2.13-4.83,3.02-7.56,2.87c-1.37-0.09-2.75-0.41-4-1.17c-1.22-0.74-2.27-1.98-2.56-3.5
								c-0.29-1.51,0.22-3.14,1.33-4.17c1.09-1.03,2.5-1.52,3.9-1.61c0.7-0.04,1.41,0.02,2.09,0.2c0.69,0.17,1.37,0.49,1.93,0.98
								c0.56,0.49,0.99,1.18,1.11,1.95c0.13,0.77-0.07,1.56-0.5,2.18c-0.92,1.24-2.47,1.62-3.81,1.37c-0.66-0.11-1.36-0.42-1.8-0.98
								c-0.47-0.54-0.55-1.38-0.21-1.98c0.03-0.06,0.11-0.08,0.17-0.05c0.06,0.03,0.08,0.1,0.06,0.16
								c-0.23,0.56-0.07,1.17,0.33,1.56c0.39,0.41,0.96,0.6,1.54,0.65c1.14,0.1,2.39-0.36,2.93-1.25c0.57-0.91,0.25-2.07-0.6-2.68
								c-0.81-0.66-2.03-0.85-3.14-0.75c-1.12,0.11-2.22,0.58-2.95,1.33c-0.72,0.73-1.05,1.82-0.84,2.8
								c0.2,0.99,0.92,1.86,1.86,2.41c0.93,0.56,2.09,0.82,3.24,0.88c2.29,0.14,4.72-0.66,6.22-2.3c0.74-0.8,1.18-1.86,1.31-2.94
								c0.14-1.08-0.15-2.19-0.68-3.16c-1.13-1.95-3.32-3.19-5.64-3.64c-2.34-0.49-4.82-0.37-7.08,0.38
								c-2.25,0.73-4.34,2.08-5.63,3.97c-1.26,1.87-1.77,4.29-1.27,6.46c0.47,2.2,1.87,4.14,3.67,5.56c1.8,1.43,4.09,2.36,6.36,2.77
								c2.3,0.4,4.73,0.18,7.09-0.36c2.37-0.52,4.68-1.43,6.87-2.54c2.2-1.12,4.28-2.49,6.15-4.09c1.86-1.61,3.57-3.45,4.66-5.62
								l0.01-0.01c0.14-0.28,0.49-0.4,0.78-0.25C380.23,541.29,380.35,541.63,380.22,541.91z"/>
						</g>
						
							<pattern  id="SVGID_9_" xlink:href="#New_Pattern_Swatch_1" patternTransform="matrix(0.2645 -0.0545 0.0538 0.261 -3564.2073 -5529.5513)">
						</pattern>
						<path class="st43" d="M379.17,544.72c2.49-3.29,5.42-7.83,7.86-13.63c2.84-6.75,4.01-12.84,4.52-17.31
							c14.24,0.22,28.47,0.44,42.71,0.66c0.77,4.35,1.97,9.36,3.83,14.78c2.19,6.34,4.77,11.71,7.2,16.05
							c-14.23,7.4-23.69,6.93-29.84,4.91c-7.01-2.3-10.71-6.95-19.57-8.03C389.05,541.3,383.14,543.06,379.17,544.72z"/>
					</g>
				</g>
			</g>
		</g>
		<g>
			<path class="st13" d="M436.25,513.96c0.44,2.75,1,5.49,1.63,8.21c0.64,2.72,1.4,5.41,2.28,8.05c0.88,2.65,1.86,5.26,3,7.8
				c0.27,0.64,0.58,1.27,0.87,1.9c0.28,0.64,0.58,1.27,0.9,1.89c0.59,1.27,1.35,2.43,1.66,3.89l0,0.01
				c0.02,0.08-0.03,0.15-0.11,0.17c-0.04,0.01-0.09,0-0.12-0.03c-1.14-0.95-1.9-2.17-2.61-3.4c-0.76-1.21-1.39-2.49-2.04-3.76
				c-1.24-2.56-2.29-5.22-3.24-7.9c-1.87-5.37-3.3-10.9-4.21-16.52c-0.09-0.55,0.28-1.06,0.83-1.15
				C435.65,513.05,436.16,513.42,436.25,513.96L436.25,513.96z"/>
		</g>
	</g>
</g>
</svg>
