<svg id="Layer_1" data-name="Layer 1" xmlns="http://www.w3.org/2000/svg" viewBox="0 0 1008 626.09"><defs><style>.cls-1,.cls-14,.cls-15,.cls-16,.cls-17,.cls-23,.cls-26,.cls-36{fill:#fff;}.cls-1,.cls-13{stroke:#a7a9ac;stroke-width:5px;}.cls-1,.cls-13,.cls-14,.cls-15,.cls-16,.cls-17,.cls-18,.cls-19,.cls-2,.cls-20,.cls-21,.cls-22,.cls-23,.cls-27,.cls-28,.cls-29,.cls-3,.cls-30,.cls-31,.cls-32,.cls-33,.cls-34,.cls-36,.cls-4,.cls-5,.cls-6,.cls-7,.cls-8,.cls-9{stroke-miterlimit:10;}.cls-2,.cls-3,.cls-4,.cls-5{fill:#f9e308;stroke:#f9e308;}.cls-15,.cls-17,.cls-3,.cls-5,.cls-7,.cls-9{stroke-linecap:round;}.cls-15,.cls-3,.cls-7{stroke-width:1.4px;}.cls-16,.cls-4,.cls-8{stroke-width:0.47px;}.cls-17,.cls-5,.cls-9{stroke-width:2.79px;}.cls-11,.cls-6,.cls-7,.cls-8,.cls-9{fill:#e94897;}.cls-6,.cls-7,.cls-8,.cls-9{stroke:#ef519d;}.cls-10,.cls-13{fill:#29b8e4;}.cls-12{fill:#f8e300;}.cls-14,.cls-15,.cls-16,.cls-17{stroke:#fff;}.cls-18,.cls-30,.cls-31{fill:#e64097;}.cls-18,.cls-19,.cls-20,.cls-21,.cls-22,.cls-27,.cls-28,.cls-29,.cls-30,.cls-31,.cls-32,.cls-33,.cls-34{stroke:#231f20;}.cls-18{stroke-width:1.98px;}.cls-19,.cls-21,.cls-22{fill:#ef8e23;}.cls-19{stroke-width:1px;}.cls-20,.cls-24,.cls-29,.cls-34{fill:#f8d2af;}.cls-20{stroke-width:3.19px;}.cls-21,.cls-29{stroke-width:1.06px;}.cls-22{stroke-width:0.82px;}.cls-23{stroke:#ef69a7;stroke-width:2.65px;}.cls-25,.cls-27,.cls-28{fill:#231f20;}.cls-27{stroke-width:2.31px;}.cls-28{stroke-width:1.73px;}.cls-30{stroke-width:2.49px;}.cls-31{stroke-width:2.62px;}.cls-32,.cls-33{fill:none;}.cls-32{stroke-width:2.57px;}.cls-33{stroke-width:2.37px;}.cls-34{stroke-width:0.67px;}.cls-35{fill:#ee8d22;}.cls-36{stroke:#059ece;stroke-width:2.77px;}.cls-37{font-size:10.41px;fill:#010101;font-family:Helvetica-Light, Helvetica;font-weight:300;}</style></defs><title>StageBackground</title><rect class="cls-1" x="174.2" y="30.55" width="163.56" height="110.3"/><path class="cls-2" d="M255.82,105.35a65.51,65.51,0,0,1,48.26-.27"/><path class="cls-3" d="M255.82,105.35a65.51,65.51,0,0,1,48.26-.27"/><path class="cls-2" d="M208.37,105.63a60.82,60.82,0,0,1,47.36-.45"/><path class="cls-3" d="M208.37,105.63a60.82,60.82,0,0,1,47.36-.45"/><path class="cls-2" d="M230.83,81.62a4,4,0,0,1,1.63,2.5,5.25,5.25,0,0,1-.29,3,5,5,0,0,1-2,2.36,7.14,7.14,0,0,1-6,.56,5.79,5.79,0,0,1-2.61-1.89,6.86,6.86,0,0,1-1.35-2.92,8.35,8.35,0,0,1,0-3.19,8,8,0,0,1,1.18-3,7.71,7.71,0,0,1,2.29-2.33,11,11,0,0,1,6.06-1.79,10.49,10.49,0,0,1,6.19,1.85,10.06,10.06,0,0,1,2.35,2.39,11.19,11.19,0,0,1,1.47,3,13,13,0,0,1,.27,6.49,13.84,13.84,0,0,1-1,3.11,7.29,7.29,0,0,1-.37.74l-.21.37-.24.35a10.32,10.32,0,0,1-1,1.35,14.38,14.38,0,0,1-5.36,3.81,18.26,18.26,0,0,1-12.73.41l-.79-.28c-.26-.1-.51-.23-.77-.35l-.77-.37c-.24-.14-.5-.28-.74-.43a15.61,15.61,0,0,1-2.68-2.1,16.78,16.78,0,0,1-2.14-2.62,13.85,13.85,0,0,1-.84-1.44c-.13-.25-.27-.5-.39-.76l-.33-.77a18.7,18.7,0,0,1-1.38-6.51,21.65,21.65,0,0,1,.74-6.51,20.14,20.14,0,0,1,2.7-6.11,19.1,19.1,0,0,1,4.71-4.86,24,24,0,0,1,12.14-4.33A27.89,27.89,0,0,1,241,63.11a22.68,22.68,0,0,1,2.89,1.41l.7.41c.23.15.47.3.69.46q.68.47,1.29,1a24,24,0,0,1,4.32,4.58,21.09,21.09,0,0,1,1.65,2.67c.11.23.24.46.35.7l.31.71c.2.47.44.94.59,1.42l.5,1.42c.15.48.28,1,.42,1.44s.26,1,.37,1.44.22,1,.31,1.43a67.17,67.17,0,0,1,1.12,11.51c0,1,0,1.9,0,2.86s0,1.9-.09,2.85q-.1,2.85-.41,5.68c-.35-3.78-.8-7.52-1.41-11.22A76.63,76.63,0,0,0,252.06,83a37.29,37.29,0,0,0-2-5c-.17-.4-.42-.76-.62-1.13l-.32-.56c-.11-.19-.24-.36-.35-.53a19,19,0,0,0-1.55-2,19.28,19.28,0,0,0-3.75-3.31c-.34-.23-.69-.44-1-.64a5.12,5.12,0,0,0-.52-.27l-.55-.26a16.57,16.57,0,0,0-2.29-.86,21.7,21.7,0,0,0-9.81-.67,20.93,20.93,0,0,0-8.86,3.46,12.34,12.34,0,0,0-1.76,1.45,13,13,0,0,0-1.49,1.66,15.52,15.52,0,0,0-1.22,1.91,14.76,14.76,0,0,0-.92,2.16,15.19,15.19,0,0,0-.62,2.29,15.63,15.63,0,0,0-.26,2.36,12.43,12.43,0,0,0,.67,4.56l.19.54c.07.17.16.34.23.51a10.16,10.16,0,0,0,.53,1,10.49,10.49,0,0,0,1.34,1.83,9.9,9.9,0,0,0,1.68,1.48l.46.31.5.27c.17.08.33.19.51.26l.53.23a13.56,13.56,0,0,0,9.42.18,10.33,10.33,0,0,0,3.94-2.46,7.48,7.48,0,0,0,.73-.87l.18-.23.15-.24c.1-.16.2-.33.29-.5a10.59,10.59,0,0,0,.87-2.21,9.49,9.49,0,0,0,.1-4.7,7.58,7.58,0,0,0-.89-2.14,6.73,6.73,0,0,0-1.5-1.73,7.54,7.54,0,0,0-4.4-1.58,8.41,8.41,0,0,0-4.71,1.07,5.85,5.85,0,0,0-2.77,3.75,5.67,5.67,0,0,0,.71,4.67,4.26,4.26,0,0,0,1.82,1.51,5.47,5.47,0,0,0,2.45.47,4.67,4.67,0,0,0,4.19-2.37,4.55,4.55,0,0,0,.43-2.52A3.38,3.38,0,0,0,230.55,82"/><path class="cls-4" d="M230.83,81.62a4,4,0,0,1,1.63,2.5,5.25,5.25,0,0,1-.29,3,5,5,0,0,1-2,2.36,7.14,7.14,0,0,1-6,.56,5.79,5.79,0,0,1-2.61-1.89,6.86,6.86,0,0,1-1.35-2.92,8.35,8.35,0,0,1,0-3.19,8,8,0,0,1,1.18-3,7.71,7.71,0,0,1,2.29-2.33,11,11,0,0,1,6.06-1.79,10.49,10.49,0,0,1,6.19,1.85,10.06,10.06,0,0,1,2.35,2.39,11.19,11.19,0,0,1,1.47,3,13,13,0,0,1,.27,6.49,13.84,13.84,0,0,1-1,3.11,7.29,7.29,0,0,1-.37.74l-.21.37-.24.35a10.32,10.32,0,0,1-1,1.35,14.38,14.38,0,0,1-5.36,3.81,18.26,18.26,0,0,1-12.73.41l-.79-.28c-.26-.1-.51-.23-.77-.35l-.77-.37c-.24-.14-.5-.28-.74-.43a15.61,15.61,0,0,1-2.68-2.1,16.78,16.78,0,0,1-2.14-2.62,13.85,13.85,0,0,1-.84-1.44c-.13-.25-.27-.5-.39-.76l-.33-.77a18.7,18.7,0,0,1-1.38-6.51,21.65,21.65,0,0,1,.74-6.51,20.14,20.14,0,0,1,2.7-6.11,19.1,19.1,0,0,1,4.71-4.86,24,24,0,0,1,12.14-4.33A27.89,27.89,0,0,1,241,63.11a22.68,22.68,0,0,1,2.89,1.41l.7.41c.23.15.47.3.69.46q.68.47,1.29,1a24,24,0,0,1,4.32,4.58,21.09,21.09,0,0,1,1.65,2.67c.11.23.24.46.35.7l.31.71c.2.47.44.94.59,1.42l.5,1.42c.15.48.28,1,.42,1.44s.26,1,.37,1.44.22,1,.31,1.43a67.17,67.17,0,0,1,1.12,11.51c0,1,0,1.9,0,2.86s0,1.9-.09,2.85q-.1,2.85-.41,5.68c-.35-3.78-.8-7.52-1.41-11.22A76.63,76.63,0,0,0,252.06,83a37.29,37.29,0,0,0-2-5c-.17-.4-.42-.76-.62-1.13l-.32-.56c-.11-.19-.24-.36-.35-.53a19,19,0,0,0-1.55-2,19.28,19.28,0,0,0-3.75-3.31c-.34-.23-.69-.44-1-.64a5.12,5.12,0,0,0-.52-.27l-.55-.26a16.57,16.57,0,0,0-2.29-.86,21.7,21.7,0,0,0-9.81-.67,20.93,20.93,0,0,0-8.86,3.46,12.34,12.34,0,0,0-1.76,1.45,13,13,0,0,0-1.49,1.66,15.52,15.52,0,0,0-1.22,1.91,14.76,14.76,0,0,0-.92,2.16,15.19,15.19,0,0,0-.62,2.29,15.63,15.63,0,0,0-.26,2.36,12.43,12.43,0,0,0,.67,4.56l.19.54c.07.17.16.34.23.51a10.16,10.16,0,0,0,.53,1,10.49,10.49,0,0,0,1.34,1.83,9.9,9.9,0,0,0,1.68,1.48l.46.31.5.27c.17.08.33.19.51.26l.53.23a13.56,13.56,0,0,0,9.42.18,10.33,10.33,0,0,0,3.94-2.46,7.48,7.48,0,0,0,.73-.87l.18-.23.15-.24c.1-.16.2-.33.29-.5a10.59,10.59,0,0,0,.87-2.21,9.49,9.49,0,0,0,.1-4.7,7.58,7.58,0,0,0-.89-2.14,6.73,6.73,0,0,0-1.5-1.73,7.54,7.54,0,0,0-4.4-1.58,8.41,8.41,0,0,0-4.71,1.07,5.85,5.85,0,0,0-2.77,3.75,5.67,5.67,0,0,0,.71,4.67,4.26,4.26,0,0,0,1.82,1.51,5.47,5.47,0,0,0,2.45.47,4.67,4.67,0,0,0,4.19-2.37,4.55,4.55,0,0,0,.43-2.52A3.38,3.38,0,0,0,230.55,82"/><line class="cls-2" x1="207.88" y1="110.16" x2="303.6" y2="109.64"/><line class="cls-5" x1="207.88" y1="110.16" x2="303.6" y2="109.64"/><path class="cls-2" d="M281.19,81.62a4,4,0,0,0-1.63,2.5,5.25,5.25,0,0,0,.29,3,4.93,4.93,0,0,0,2,2.36,7.14,7.14,0,0,0,6,.56,5.79,5.79,0,0,0,2.61-1.89,6.86,6.86,0,0,0,1.35-2.92,8.35,8.35,0,0,0,0-3.19,8.17,8.17,0,0,0-1.18-3,7.71,7.71,0,0,0-2.29-2.33,11,11,0,0,0-6.06-1.79,10.49,10.49,0,0,0-6.19,1.85,10.06,10.06,0,0,0-2.35,2.39,11.19,11.19,0,0,0-1.47,3,13,13,0,0,0-.27,6.49,13.82,13.82,0,0,0,1,3.11c.12.25.24.5.38.74l.21.37.24.35a10.32,10.32,0,0,0,1,1.35,14.38,14.38,0,0,0,5.36,3.81,18.26,18.26,0,0,0,12.73.41l.79-.28c.26-.1.51-.23.77-.35l.77-.37.74-.43a15.61,15.61,0,0,0,2.68-2.1,16.78,16.78,0,0,0,2.14-2.62,13.85,13.85,0,0,0,.84-1.44c.13-.25.27-.5.39-.76l.33-.77a18.7,18.7,0,0,0,1.38-6.51,21.65,21.65,0,0,0-.74-6.51,20.39,20.39,0,0,0-2.7-6.11,19.27,19.27,0,0,0-4.71-4.86,24,24,0,0,0-12.14-4.33A27.87,27.87,0,0,0,271,63.11a22.68,22.68,0,0,0-2.89,1.41l-.7.41c-.23.15-.47.3-.69.46q-.67.47-1.29,1a24.37,24.37,0,0,0-4.33,4.58,22.23,22.23,0,0,0-1.64,2.67c-.11.23-.24.46-.35.7l-.31.71c-.2.47-.44.94-.59,1.42l-.5,1.42c-.15.48-.28,1-.42,1.44s-.26,1-.37,1.44-.23,1-.32,1.43a68.16,68.16,0,0,0-1.11,11.51c0,1,0,1.9,0,2.86s0,1.9.09,2.85q.1,2.85.41,5.68c.34-3.78.8-7.52,1.41-11.22A76.63,76.63,0,0,1,260,83a36,36,0,0,1,2-5c.17-.4.42-.76.62-1.13l.32-.56c.11-.19.24-.36.35-.53a20,20,0,0,1,5.3-5.31c.34-.23.69-.44,1-.64a5.12,5.12,0,0,1,.52-.27l.55-.26a16.57,16.57,0,0,1,2.29-.86,21.7,21.7,0,0,1,9.81-.67,21,21,0,0,1,8.86,3.46,15,15,0,0,1,3.25,3.11,15.52,15.52,0,0,1,1.22,1.91,15.93,15.93,0,0,1,.92,2.16,16.48,16.48,0,0,1,.62,2.29,15.63,15.63,0,0,1,.26,2.36,12.43,12.43,0,0,1-.67,4.56l-.19.54c-.07.17-.16.34-.23.51a10.16,10.16,0,0,1-.53,1A10.49,10.49,0,0,1,295,91.59a10.3,10.3,0,0,1-1.68,1.48l-.46.31-.5.27c-.17.08-.33.19-.51.26l-.53.23a13.56,13.56,0,0,1-9.42.18,10.33,10.33,0,0,1-3.94-2.46,7.48,7.48,0,0,1-.73-.87l-.18-.23-.15-.24a5,5,0,0,1-.29-.5,10.59,10.59,0,0,1-.87-2.21,9.37,9.37,0,0,1-.1-4.7,7,7,0,0,1,.89-2.14,6.73,6.73,0,0,1,1.5-1.73,7.54,7.54,0,0,1,4.4-1.58,8.41,8.41,0,0,1,4.71,1.07,5.85,5.85,0,0,1,2.77,3.75,5.7,5.7,0,0,1-.71,4.67,4.26,4.26,0,0,1-1.82,1.51,5.47,5.47,0,0,1-2.45.47,4.67,4.67,0,0,1-4.19-2.37,4.47,4.47,0,0,1-.43-2.52A3.38,3.38,0,0,1,281.47,82"/><path class="cls-4" d="M281.19,81.62a4,4,0,0,0-1.63,2.5,5.25,5.25,0,0,0,.29,3,4.93,4.93,0,0,0,2,2.36,7.14,7.14,0,0,0,6,.56,5.79,5.79,0,0,0,2.61-1.89,6.86,6.86,0,0,0,1.35-2.92,8.35,8.35,0,0,0,0-3.19,8.17,8.17,0,0,0-1.18-3,7.71,7.71,0,0,0-2.29-2.33,11,11,0,0,0-6.06-1.79,10.49,10.49,0,0,0-6.19,1.85,10.06,10.06,0,0,0-2.35,2.39,11.19,11.19,0,0,0-1.47,3,13,13,0,0,0-.27,6.49,13.82,13.82,0,0,0,1,3.11c.12.25.24.5.38.74l.21.37.24.35a10.32,10.32,0,0,0,1,1.35,14.38,14.38,0,0,0,5.36,3.81,18.26,18.26,0,0,0,12.73.41l.79-.28c.26-.1.51-.23.77-.35l.77-.37.74-.43a15.61,15.61,0,0,0,2.68-2.1,16.78,16.78,0,0,0,2.14-2.62,13.85,13.85,0,0,0,.84-1.44c.13-.25.27-.5.39-.76l.33-.77a18.7,18.7,0,0,0,1.38-6.51,21.65,21.65,0,0,0-.74-6.51,20.39,20.39,0,0,0-2.7-6.11,19.27,19.27,0,0,0-4.71-4.86,24,24,0,0,0-12.14-4.33A27.87,27.87,0,0,0,271,63.11a22.68,22.68,0,0,0-2.89,1.41l-.7.41c-.23.15-.47.3-.69.46q-.67.47-1.29,1a24.37,24.37,0,0,0-4.33,4.58,22.23,22.23,0,0,0-1.64,2.67c-.11.23-.24.46-.35.7l-.31.71c-.2.47-.44.94-.59,1.42l-.5,1.42c-.15.48-.28,1-.42,1.44s-.26,1-.37,1.44-.23,1-.32,1.43a68.16,68.16,0,0,0-1.11,11.51c0,1,0,1.9,0,2.86s0,1.9.09,2.85q.1,2.85.41,5.68c.34-3.78.8-7.52,1.41-11.22A76.63,76.63,0,0,1,260,83a36,36,0,0,1,2-5c.17-.4.42-.76.62-1.13l.32-.56c.11-.19.24-.36.35-.53a20,20,0,0,1,5.3-5.31c.34-.23.69-.44,1-.64a5.12,5.12,0,0,1,.52-.27l.55-.26a16.57,16.57,0,0,1,2.29-.86,21.7,21.7,0,0,1,9.81-.67,21,21,0,0,1,8.86,3.46,15,15,0,0,1,3.25,3.11,15.52,15.52,0,0,1,1.22,1.91,15.93,15.93,0,0,1,.92,2.16,16.48,16.48,0,0,1,.62,2.29,15.63,15.63,0,0,1,.26,2.36,12.43,12.43,0,0,1-.67,4.56l-.19.54c-.07.17-.16.34-.23.51a10.16,10.16,0,0,1-.53,1A10.49,10.49,0,0,1,295,91.59a10.3,10.3,0,0,1-1.68,1.48l-.46.31-.5.27c-.17.08-.33.19-.51.26l-.53.23a13.56,13.56,0,0,1-9.42.18,10.33,10.33,0,0,1-3.94-2.46,7.48,7.48,0,0,1-.73-.87l-.18-.23-.15-.24a5,5,0,0,1-.29-.5,10.59,10.59,0,0,1-.87-2.21,9.37,9.37,0,0,1-.1-4.7,7,7,0,0,1,.89-2.14,6.73,6.73,0,0,1,1.5-1.73,7.54,7.54,0,0,1,4.4-1.58,8.41,8.41,0,0,1,4.71,1.07,5.85,5.85,0,0,1,2.77,3.75,5.7,5.7,0,0,1-.71,4.67,4.26,4.26,0,0,1-1.82,1.51,5.47,5.47,0,0,1-2.45.47,4.67,4.67,0,0,1-4.19-2.37,4.47,4.47,0,0,1-.43-2.52A3.38,3.38,0,0,1,281.47,82"/><line class="cls-2" x1="208.36" y1="105.89" x2="304.08" y2="105.36"/><line class="cls-3" x1="208.36" y1="105.89" x2="304.08" y2="105.36"/><rect class="cls-1" x="670.24" y="35.26" width="163.56" height="110.3"/><path class="cls-6" d="M751.86,110.06A65,65,0,0,1,778,105.33a64.32,64.32,0,0,1,22.1,4.46"/><path class="cls-7" d="M751.86,110.06A65,65,0,0,1,778,105.33a64.32,64.32,0,0,1,22.1,4.46"/><path class="cls-6" d="M704.41,110.33a60.88,60.88,0,0,1,47.36-.44"/><path class="cls-7" d="M704.41,110.33a60.88,60.88,0,0,1,47.36-.44"/><path class="cls-6" d="M726.87,86.32a4,4,0,0,1,1.63,2.51,5.27,5.27,0,0,1-.29,3,5,5,0,0,1-2,2.35,6.76,6.76,0,0,1-2.94,1,7,7,0,0,1-3.09-.39,5.86,5.86,0,0,1-2.61-1.89A7,7,0,0,1,716.21,90a8.61,8.61,0,0,1,1.18-6.19,8,8,0,0,1,2.29-2.33,11,11,0,0,1,6.06-1.79,10.58,10.58,0,0,1,6.19,1.86,9.88,9.88,0,0,1,2.35,2.39,11,11,0,0,1,1.47,3,13,13,0,0,1,.27,6.49,14.19,14.19,0,0,1-1,3.11,7.29,7.29,0,0,1-.37.74l-.21.37-.24.35a11,11,0,0,1-1,1.35,14.38,14.38,0,0,1-5.36,3.81,18.26,18.26,0,0,1-12.73.41l-.79-.29c-.26-.09-.51-.23-.77-.34l-.77-.37c-.24-.14-.5-.28-.74-.43a15.19,15.19,0,0,1-2.68-2.11,16.78,16.78,0,0,1-2.14-2.62,12,12,0,0,1-.84-1.44c-.13-.25-.27-.49-.39-.75l-.33-.78a18.65,18.65,0,0,1-1.38-6.5,21.68,21.68,0,0,1,.74-6.52,20.2,20.2,0,0,1,2.7-6.1,18.94,18.94,0,0,1,4.71-4.86,24,24,0,0,1,12.14-4.34A27.76,27.76,0,0,1,737,67.82a22.62,22.62,0,0,1,2.89,1.4l.7.41.69.46c.45.31.88.63,1.29,1a23.71,23.71,0,0,1,4.32,4.58,20.41,20.41,0,0,1,1.65,2.67c.11.23.24.46.35.69l.31.71c.2.48.44.94.59,1.42l.5,1.43c.15.48.28,1,.42,1.43s.26,1,.37,1.44.22,1,.31,1.44a67.15,67.15,0,0,1,1.12,11.5c0,1,0,1.91,0,2.86s0,1.91-.09,2.86q-.11,2.85-.41,5.68c-.35-3.78-.8-7.53-1.41-11.22a76.44,76.44,0,0,0-2.54-10.82,37.15,37.15,0,0,0-2-5c-.17-.41-.42-.76-.62-1.14l-.32-.56c-.11-.18-.24-.35-.35-.53a21.36,21.36,0,0,0-1.55-2,18.62,18.62,0,0,0-3.75-3.3,10.4,10.4,0,0,0-1-.64l-.52-.28-.55-.26a16.57,16.57,0,0,0-2.29-.86,21.7,21.7,0,0,0-9.81-.66A20.8,20.8,0,0,0,716.42,76a14.42,14.42,0,0,0-3.25,3.11A14.8,14.8,0,0,0,712,81a15.8,15.8,0,0,0-.92,2.15,15.32,15.32,0,0,0-.62,2.3,15.64,15.64,0,0,0-.26,2.35,12.43,12.43,0,0,0,.67,4.56l.19.54c.07.18.16.34.23.52a10,10,0,0,0,.53,1,10.13,10.13,0,0,0,1.34,1.83,9.9,9.9,0,0,0,1.68,1.49l.46.3.5.27a5,5,0,0,0,.51.27l.53.22a13.56,13.56,0,0,0,9.42.18,10.1,10.1,0,0,0,3.94-2.46,6.12,6.12,0,0,0,.73-.87l.18-.22.15-.24c.1-.16.2-.33.29-.5a10.46,10.46,0,0,0,.87-2.22,9.48,9.48,0,0,0,.1-4.7,7.83,7.83,0,0,0-.89-2.14,6.9,6.9,0,0,0-1.5-1.73,7.68,7.68,0,0,0-4.4-1.58A8.33,8.33,0,0,0,721,83.44a5.83,5.83,0,0,0-2.77,3.75,5.68,5.68,0,0,0,.71,4.66,4.28,4.28,0,0,0,1.82,1.52,5.61,5.61,0,0,0,2.45.46,4.66,4.66,0,0,0,4.19-2.36A4.57,4.57,0,0,0,727.8,89a3.43,3.43,0,0,0-1.21-2.23"/><path class="cls-8" d="M726.87,86.32a4,4,0,0,1,1.63,2.51,5.27,5.27,0,0,1-.29,3,5,5,0,0,1-2,2.35,6.76,6.76,0,0,1-2.94,1,7,7,0,0,1-3.09-.39,5.86,5.86,0,0,1-2.61-1.89A7,7,0,0,1,716.21,90a8.61,8.61,0,0,1,1.18-6.19,8,8,0,0,1,2.29-2.33,11,11,0,0,1,6.06-1.79,10.58,10.58,0,0,1,6.19,1.86,9.88,9.88,0,0,1,2.35,2.39,11,11,0,0,1,1.47,3,13,13,0,0,1,.27,6.49,14.19,14.19,0,0,1-1,3.11,7.29,7.29,0,0,1-.37.74l-.21.37-.24.35a11,11,0,0,1-1,1.35,14.38,14.38,0,0,1-5.36,3.81,18.26,18.26,0,0,1-12.73.41l-.79-.29c-.26-.09-.51-.23-.77-.34l-.77-.37c-.24-.14-.5-.28-.74-.43a15.19,15.19,0,0,1-2.68-2.11,16.78,16.78,0,0,1-2.14-2.62,12,12,0,0,1-.84-1.44c-.13-.25-.27-.49-.39-.75l-.33-.78a18.65,18.65,0,0,1-1.38-6.5,21.68,21.68,0,0,1,.74-6.52,20.2,20.2,0,0,1,2.7-6.1,18.94,18.94,0,0,1,4.71-4.86,24,24,0,0,1,12.14-4.34A27.76,27.76,0,0,1,737,67.82a22.62,22.62,0,0,1,2.89,1.4l.7.41.69.46c.45.31.88.63,1.29,1a23.71,23.71,0,0,1,4.32,4.58,20.41,20.41,0,0,1,1.65,2.67c.11.23.24.46.35.69l.31.71c.2.48.44.94.59,1.42l.5,1.43c.15.48.28,1,.42,1.43s.26,1,.37,1.44.22,1,.31,1.44a67.15,67.15,0,0,1,1.12,11.5c0,1,0,1.91,0,2.86s0,1.91-.09,2.86q-.11,2.85-.41,5.68c-.35-3.78-.8-7.53-1.41-11.22a76.44,76.44,0,0,0-2.54-10.82,37.15,37.15,0,0,0-2-5c-.17-.41-.42-.76-.62-1.14l-.32-.56c-.11-.18-.24-.35-.35-.53a21.36,21.36,0,0,0-1.55-2,18.62,18.62,0,0,0-3.75-3.3,10.4,10.4,0,0,0-1-.64l-.52-.28-.55-.26a16.57,16.57,0,0,0-2.29-.86,21.7,21.7,0,0,0-9.81-.66A20.8,20.8,0,0,0,716.42,76a14.42,14.42,0,0,0-3.25,3.11A14.8,14.8,0,0,0,712,81a15.8,15.8,0,0,0-.92,2.15,15.32,15.32,0,0,0-.62,2.3,15.64,15.64,0,0,0-.26,2.35,12.43,12.43,0,0,0,.67,4.56l.19.54c.07.18.16.34.23.52a10,10,0,0,0,.53,1,10.13,10.13,0,0,0,1.34,1.83,9.9,9.9,0,0,0,1.68,1.49l.46.3.5.27a5,5,0,0,0,.51.27l.53.22a13.56,13.56,0,0,0,9.42.18,10.1,10.1,0,0,0,3.94-2.46,6.12,6.12,0,0,0,.73-.87l.18-.22.15-.24c.1-.16.2-.33.29-.5a10.46,10.46,0,0,0,.87-2.22,9.48,9.48,0,0,0,.1-4.7,7.83,7.83,0,0,0-.89-2.14,6.9,6.9,0,0,0-1.5-1.73,7.68,7.68,0,0,0-4.4-1.58A8.33,8.33,0,0,0,721,83.44a5.83,5.83,0,0,0-2.77,3.75,5.68,5.68,0,0,0,.71,4.66,4.28,4.28,0,0,0,1.82,1.52,5.61,5.61,0,0,0,2.45.46,4.66,4.66,0,0,0,4.19-2.36A4.57,4.57,0,0,0,727.8,89a3.43,3.43,0,0,0-1.21-2.23"/><line class="cls-6" x1="703.92" y1="114.87" x2="799.64" y2="114.34"/><line class="cls-9" x1="703.92" y1="114.87" x2="799.64" y2="114.34"/><path class="cls-6" d="M777.23,86.32a4,4,0,0,0-1.63,2.51,5.27,5.27,0,0,0,.29,3,4.9,4.9,0,0,0,2,2.35,6.76,6.76,0,0,0,2.94,1,7,7,0,0,0,3.09-.39,5.86,5.86,0,0,0,2.61-1.89A7,7,0,0,0,787.89,90a8.61,8.61,0,0,0-1.18-6.19,8,8,0,0,0-2.29-2.33,11,11,0,0,0-6.06-1.79,10.58,10.58,0,0,0-6.19,1.86,9.88,9.88,0,0,0-2.35,2.39,11,11,0,0,0-1.47,3,13,13,0,0,0-.27,6.49,14.15,14.15,0,0,0,1,3.11c.12.25.24.5.38.74l.21.37.24.35a11,11,0,0,0,1,1.35,14.38,14.38,0,0,0,5.36,3.81,18.26,18.26,0,0,0,12.73.41l.79-.29c.26-.09.51-.23.77-.34l.77-.37.74-.43a15.19,15.19,0,0,0,2.68-2.11,16.78,16.78,0,0,0,2.14-2.62,12,12,0,0,0,.84-1.44c.13-.25.27-.49.39-.75l.33-.78a18.65,18.65,0,0,0,1.38-6.5,21.68,21.68,0,0,0-.74-6.52,20.45,20.45,0,0,0-2.7-6.1,19.11,19.11,0,0,0-4.71-4.86,24,24,0,0,0-12.14-4.34,27.76,27.76,0,0,0-12.49,1.77,22.62,22.62,0,0,0-2.89,1.4l-.7.41-.69.46c-.45.31-.88.63-1.29,1a23.71,23.71,0,0,0-4.32,4.58,20.41,20.41,0,0,0-1.65,2.67c-.11.23-.24.46-.35.69l-.31.71c-.2.48-.44.94-.59,1.42l-.5,1.43c-.15.48-.28,1-.42,1.43s-.26,1-.37,1.44-.23,1-.31,1.44a67.15,67.15,0,0,0-1.12,11.5c0,1,0,1.91,0,2.86s0,1.91.09,2.86q.11,2.85.41,5.68c.34-3.78.8-7.53,1.41-11.22A76.44,76.44,0,0,1,756,87.73a35.87,35.87,0,0,1,2-5c.17-.41.42-.76.62-1.14l.32-.56c.11-.18.24-.35.35-.53a21.36,21.36,0,0,1,1.55-2,18.62,18.62,0,0,1,3.75-3.3,10.4,10.4,0,0,1,1-.64l.52-.28.55-.26a16.57,16.57,0,0,1,2.29-.86,21.7,21.7,0,0,1,9.81-.66A20.85,20.85,0,0,1,787.68,76a13.63,13.63,0,0,1,1.76,1.44,13.08,13.08,0,0,1,1.49,1.67A14.8,14.8,0,0,1,792.15,81a15.8,15.8,0,0,1,.92,2.15,15.32,15.32,0,0,1,.62,2.3,15.64,15.64,0,0,1,.26,2.35,12.43,12.43,0,0,1-.67,4.56l-.19.54c-.07.18-.16.34-.23.52a10,10,0,0,1-.53,1A10.13,10.13,0,0,1,791,96.29a9.9,9.9,0,0,1-1.68,1.49l-.46.3-.5.27a5,5,0,0,1-.51.27l-.53.22a13.56,13.56,0,0,1-9.42.18A10.1,10.1,0,0,1,774,96.56a6.12,6.12,0,0,1-.73-.87l-.18-.22-.15-.24c-.1-.16-.2-.33-.29-.5a10.46,10.46,0,0,1-.87-2.22,9.48,9.48,0,0,1-.1-4.7,7.53,7.53,0,0,1,.89-2.14,6.9,6.9,0,0,1,1.5-1.73,7.68,7.68,0,0,1,4.4-1.58,8.33,8.33,0,0,1,4.71,1.08,5.83,5.83,0,0,1,2.77,3.75,5.68,5.68,0,0,1-.71,4.66,4.28,4.28,0,0,1-1.82,1.52,5.61,5.61,0,0,1-2.45.46,4.66,4.66,0,0,1-4.19-2.36A4.48,4.48,0,0,1,776.3,89a3.43,3.43,0,0,1,1.21-2.23"/><path class="cls-8" d="M777.23,86.32a4,4,0,0,0-1.63,2.51,5.27,5.27,0,0,0,.29,3,4.9,4.9,0,0,0,2,2.35,6.76,6.76,0,0,0,2.94,1,7,7,0,0,0,3.09-.39,5.86,5.86,0,0,0,2.61-1.89A7,7,0,0,0,787.89,90a8.61,8.61,0,0,0-1.18-6.19,8,8,0,0,0-2.29-2.33,11,11,0,0,0-6.06-1.79,10.58,10.58,0,0,0-6.19,1.86,9.88,9.88,0,0,0-2.35,2.39,11,11,0,0,0-1.47,3,13,13,0,0,0-.27,6.49,14.15,14.15,0,0,0,1,3.11c.12.25.24.5.38.74l.21.37.24.35a11,11,0,0,0,1,1.35,14.38,14.38,0,0,0,5.36,3.81,18.26,18.26,0,0,0,12.73.41l.79-.29c.26-.09.51-.23.77-.34l.77-.37.74-.43a15.19,15.19,0,0,0,2.68-2.11,16.78,16.78,0,0,0,2.14-2.62,12,12,0,0,0,.84-1.44c.13-.25.27-.49.39-.75l.33-.78a18.65,18.65,0,0,0,1.38-6.5,21.68,21.68,0,0,0-.74-6.52,20.45,20.45,0,0,0-2.7-6.1,19.11,19.11,0,0,0-4.71-4.86,24,24,0,0,0-12.14-4.34,27.76,27.76,0,0,0-12.49,1.77,22.62,22.62,0,0,0-2.89,1.4l-.7.41-.69.46c-.45.31-.88.63-1.29,1a23.71,23.71,0,0,0-4.32,4.58,20.41,20.41,0,0,0-1.65,2.67c-.11.23-.24.46-.35.69l-.31.71c-.2.48-.44.94-.59,1.42l-.5,1.43c-.15.48-.28,1-.42,1.43s-.26,1-.37,1.44-.23,1-.31,1.44a67.15,67.15,0,0,0-1.12,11.5c0,1,0,1.91,0,2.86s0,1.91.09,2.86q.11,2.85.41,5.68c.34-3.78.8-7.53,1.41-11.22A76.44,76.44,0,0,1,756,87.73a35.87,35.87,0,0,1,2-5c.17-.41.42-.76.62-1.14l.32-.56c.11-.18.24-.35.35-.53a21.36,21.36,0,0,1,1.55-2,18.62,18.62,0,0,1,3.75-3.3,10.4,10.4,0,0,1,1-.64l.52-.28.55-.26a16.57,16.57,0,0,1,2.29-.86,21.7,21.7,0,0,1,9.81-.66A20.85,20.85,0,0,1,787.68,76a13.63,13.63,0,0,1,1.76,1.44,13.08,13.08,0,0,1,1.49,1.67A14.8,14.8,0,0,1,792.15,81a15.8,15.8,0,0,1,.92,2.15,15.32,15.32,0,0,1,.62,2.3,15.64,15.64,0,0,1,.26,2.35,12.43,12.43,0,0,1-.67,4.56l-.19.54c-.07.18-.16.34-.23.52a10,10,0,0,1-.53,1A10.13,10.13,0,0,1,791,96.29a9.9,9.9,0,0,1-1.68,1.49l-.46.3-.5.27a5,5,0,0,1-.51.27l-.53.22a13.56,13.56,0,0,1-9.42.18A10.1,10.1,0,0,1,774,96.56a6.12,6.12,0,0,1-.73-.87l-.18-.22-.15-.24c-.1-.16-.2-.33-.29-.5a10.46,10.46,0,0,1-.87-2.22,9.48,9.48,0,0,1-.1-4.7,7.53,7.53,0,0,1,.89-2.14,6.9,6.9,0,0,1,1.5-1.73,7.68,7.68,0,0,1,4.4-1.58,8.33,8.33,0,0,1,4.71,1.08,5.83,5.83,0,0,1,2.77,3.75,5.68,5.68,0,0,1-.71,4.66,4.28,4.28,0,0,1-1.82,1.52,5.61,5.61,0,0,1-2.45.46,4.66,4.66,0,0,1-4.19-2.36A4.48,4.48,0,0,1,776.3,89a3.43,3.43,0,0,1,1.21-2.23"/><line class="cls-6" x1="704.4" y1="110.6" x2="800.12" y2="110.07"/><line class="cls-7" x1="704.4" y1="110.6" x2="800.12" y2="110.07"/><rect class="cls-10" x="49.6" y="-0.17" width="18.16" height="612"/><rect class="cls-11" x="71.58" y="-0.17" width="18.16" height="612"/><rect class="cls-12" x="27.61" y="-0.17" width="18.16" height="612"/><rect class="cls-10" x="940.24" y="0.7" width="18.16" height="615.57"/><rect class="cls-11" x="962.23" y="0.7" width="18.16" height="615.57"/><rect class="cls-12" x="918.26" y="0.7" width="18.16" height="615.57"/><rect class="cls-13" x="422.22" y="31.37" width="163.56" height="110.3"/><path class="cls-14" d="M503.84,103.86A65,65,0,0,1,530,99.13a64.32,64.32,0,0,1,22.1,4.46"/><path class="cls-15" d="M503.84,103.86A65,65,0,0,1,530,99.13a64.32,64.32,0,0,1,22.1,4.46"/><path class="cls-14" d="M456.39,104.13a60.88,60.88,0,0,1,47.36-.44"/><path class="cls-15" d="M456.39,104.13a60.88,60.88,0,0,1,47.36-.44"/><path class="cls-14" d="M478.85,80.12a4,4,0,0,1,1.63,2.5,5.29,5.29,0,0,1-.29,3,5,5,0,0,1-2,2.35,6.76,6.76,0,0,1-2.94,1,7,7,0,0,1-3.09-.39,5.86,5.86,0,0,1-2.61-1.89,7,7,0,0,1-1.35-2.93,8.59,8.59,0,0,1,1.18-6.18,7.83,7.83,0,0,1,2.29-2.33,11,11,0,0,1,6.06-1.79,10.58,10.58,0,0,1,6.19,1.86,9.88,9.88,0,0,1,2.35,2.39,11.13,11.13,0,0,1,1.47,3,13,13,0,0,1,.27,6.5,14.19,14.19,0,0,1-1,3.11,7.29,7.29,0,0,1-.37.74l-.21.37-.24.35a11,11,0,0,1-1,1.35,14.35,14.35,0,0,1-5.36,3.8,18.19,18.19,0,0,1-12.73.42l-.79-.29c-.26-.09-.51-.23-.77-.34l-.77-.37c-.24-.14-.5-.28-.74-.43a15.19,15.19,0,0,1-2.68-2.11,16.78,16.78,0,0,1-2.14-2.62,12.88,12.88,0,0,1-.84-1.44c-.13-.25-.27-.5-.39-.75l-.33-.78a18.65,18.65,0,0,1-1.38-6.5,21.68,21.68,0,0,1,.74-6.52,20.36,20.36,0,0,1,2.7-6.11,18.9,18.9,0,0,1,4.71-4.85,23.87,23.87,0,0,1,12.14-4.34A27.76,27.76,0,0,1,489,61.62a22.62,22.62,0,0,1,2.89,1.4l.7.41.69.46c.45.31.88.63,1.29,1a23.71,23.71,0,0,1,4.32,4.58,20.41,20.41,0,0,1,1.65,2.67c.11.23.24.46.35.69l.31.71c.2.48.44.94.59,1.42l.5,1.43c.15.48.28,1,.42,1.43s.26,1,.37,1.44.22,1,.31,1.44a67.15,67.15,0,0,1,1.12,11.5c0,1,0,1.91,0,2.86s0,1.91-.09,2.86c-.07,1.89-.21,3.79-.41,5.67-.35-3.77-.8-7.52-1.41-11.21a76.44,76.44,0,0,0-2.54-10.82,37.15,37.15,0,0,0-2-5c-.17-.41-.42-.76-.62-1.14l-.32-.56c-.11-.18-.24-.35-.35-.53a21.36,21.36,0,0,0-1.55-2A19,19,0,0,0,491.47,69c-.34-.23-.69-.44-1-.63l-.52-.28-.55-.26a16.57,16.57,0,0,0-2.29-.86,21.7,21.7,0,0,0-9.81-.66,20.8,20.8,0,0,0-8.86,3.46,14.42,14.42,0,0,0-3.25,3.11,14.8,14.8,0,0,0-1.22,1.91A15.8,15.8,0,0,0,463,77a15.32,15.32,0,0,0-.62,2.3,15.64,15.64,0,0,0-.26,2.35,12.43,12.43,0,0,0,.67,4.56l.19.54c.07.18.16.34.23.52a11.15,11.15,0,0,0,.53,1,10.49,10.49,0,0,0,1.34,1.83,9.9,9.9,0,0,0,1.68,1.49l.46.3.5.27c.17.09.33.19.51.27l.53.22a13.56,13.56,0,0,0,9.42.18,10.1,10.1,0,0,0,3.94-2.46,6.12,6.12,0,0,0,.73-.87l.18-.22.15-.24c.1-.16.2-.33.29-.51a10.17,10.17,0,0,0,.87-2.21,9.48,9.48,0,0,0,.1-4.7,7.83,7.83,0,0,0-.89-2.14,6.73,6.73,0,0,0-1.5-1.73,7.68,7.68,0,0,0-4.4-1.58A8.33,8.33,0,0,0,473,77.24,5.83,5.83,0,0,0,470.18,81a5.64,5.64,0,0,0,.71,4.66,4.28,4.28,0,0,0,1.82,1.52,5.61,5.61,0,0,0,2.45.46,4.65,4.65,0,0,0,4.19-2.37,4.52,4.52,0,0,0,.43-2.51,3.43,3.43,0,0,0-1.21-2.23"/><path class="cls-16" d="M478.85,80.12a4,4,0,0,1,1.63,2.5,5.29,5.29,0,0,1-.29,3,5,5,0,0,1-2,2.35,6.76,6.76,0,0,1-2.94,1,7,7,0,0,1-3.09-.39,5.86,5.86,0,0,1-2.61-1.89,7,7,0,0,1-1.35-2.93,8.59,8.59,0,0,1,1.18-6.18,7.83,7.83,0,0,1,2.29-2.33,11,11,0,0,1,6.06-1.79,10.58,10.58,0,0,1,6.19,1.86,9.88,9.88,0,0,1,2.35,2.39,11.13,11.13,0,0,1,1.47,3,13,13,0,0,1,.27,6.5,14.19,14.19,0,0,1-1,3.11,7.29,7.29,0,0,1-.37.74l-.21.37-.24.35a11,11,0,0,1-1,1.35,14.35,14.35,0,0,1-5.36,3.8,18.19,18.19,0,0,1-12.73.42l-.79-.29c-.26-.09-.51-.23-.77-.34l-.77-.37c-.24-.14-.5-.28-.74-.43a15.19,15.19,0,0,1-2.68-2.11,16.78,16.78,0,0,1-2.14-2.62,12.88,12.88,0,0,1-.84-1.44c-.13-.25-.27-.5-.39-.75l-.33-.78a18.65,18.65,0,0,1-1.38-6.5,21.68,21.68,0,0,1,.74-6.52,20.36,20.36,0,0,1,2.7-6.11,18.9,18.9,0,0,1,4.71-4.85,23.87,23.87,0,0,1,12.14-4.34A27.76,27.76,0,0,1,489,61.62a22.62,22.62,0,0,1,2.89,1.4l.7.41.69.46c.45.31.88.63,1.29,1a23.71,23.71,0,0,1,4.32,4.58,20.41,20.41,0,0,1,1.65,2.67c.11.23.24.46.35.69l.31.71c.2.48.44.94.59,1.42l.5,1.43c.15.48.28,1,.42,1.43s.26,1,.37,1.44.22,1,.31,1.44a67.15,67.15,0,0,1,1.12,11.5c0,1,0,1.91,0,2.86s0,1.91-.09,2.86c-.07,1.89-.21,3.79-.41,5.67-.35-3.77-.8-7.52-1.41-11.21a76.44,76.44,0,0,0-2.54-10.82,37.15,37.15,0,0,0-2-5c-.17-.41-.42-.76-.62-1.14l-.32-.56c-.11-.18-.24-.35-.35-.53a21.36,21.36,0,0,0-1.55-2A19,19,0,0,0,491.47,69c-.34-.23-.69-.44-1-.63l-.52-.28-.55-.26a16.57,16.57,0,0,0-2.29-.86,21.7,21.7,0,0,0-9.81-.66,20.8,20.8,0,0,0-8.86,3.46,14.42,14.42,0,0,0-3.25,3.11,14.8,14.8,0,0,0-1.22,1.91A15.8,15.8,0,0,0,463,77a15.32,15.32,0,0,0-.62,2.3,15.64,15.64,0,0,0-.26,2.35,12.43,12.43,0,0,0,.67,4.56l.19.54c.07.18.16.34.23.52a11.15,11.15,0,0,0,.53,1,10.49,10.49,0,0,0,1.34,1.83,9.9,9.9,0,0,0,1.68,1.49l.46.3.5.27c.17.09.33.19.51.27l.53.22a13.56,13.56,0,0,0,9.42.18,10.1,10.1,0,0,0,3.94-2.46,6.12,6.12,0,0,0,.73-.87l.18-.22.15-.24c.1-.16.2-.33.29-.51a10.17,10.17,0,0,0,.87-2.21,9.48,9.48,0,0,0,.1-4.7,7.83,7.83,0,0,0-.89-2.14,6.73,6.73,0,0,0-1.5-1.73,7.68,7.68,0,0,0-4.4-1.58A8.33,8.33,0,0,0,473,77.24,5.83,5.83,0,0,0,470.18,81a5.64,5.64,0,0,0,.71,4.66,4.28,4.28,0,0,0,1.82,1.52,5.61,5.61,0,0,0,2.45.46,4.65,4.65,0,0,0,4.19-2.37,4.52,4.52,0,0,0,.43-2.51,3.43,3.43,0,0,0-1.21-2.23"/><line class="cls-14" x1="455.9" y1="108.67" x2="551.62" y2="108.14"/><line class="cls-17" x1="455.9" y1="108.67" x2="551.62" y2="108.14"/><path class="cls-14" d="M529.21,80.12a4,4,0,0,0-1.63,2.5,5.29,5.29,0,0,0,.29,3,5,5,0,0,0,2,2.35,6.76,6.76,0,0,0,2.94,1,7,7,0,0,0,3.09-.39,5.86,5.86,0,0,0,2.61-1.89,7,7,0,0,0,1.35-2.93,8.59,8.59,0,0,0-1.18-6.18,7.83,7.83,0,0,0-2.29-2.33,11,11,0,0,0-6.06-1.79,10.58,10.58,0,0,0-6.19,1.86,9.88,9.88,0,0,0-2.35,2.39,11.13,11.13,0,0,0-1.47,3,13,13,0,0,0-.27,6.5,14.15,14.15,0,0,0,1,3.11c.12.25.24.5.38.74l.21.37.24.35a11,11,0,0,0,1,1.35,14.35,14.35,0,0,0,5.36,3.8,17.8,17.8,0,0,0,6.3,1.36A18,18,0,0,0,541,97.3l.79-.29c.26-.09.51-.23.77-.34l.77-.37.74-.43a15.19,15.19,0,0,0,2.68-2.11,16.78,16.78,0,0,0,2.14-2.62,12.88,12.88,0,0,0,.84-1.44c.13-.25.27-.5.39-.75l.33-.78a18.65,18.65,0,0,0,1.38-6.5,21.68,21.68,0,0,0-.74-6.52A20.61,20.61,0,0,0,548.4,69a19.07,19.07,0,0,0-4.71-4.85,23.87,23.87,0,0,0-12.14-4.34,27.76,27.76,0,0,0-12.49,1.77,22.62,22.62,0,0,0-2.89,1.4l-.7.41-.69.46c-.45.31-.88.63-1.29,1a23.71,23.71,0,0,0-4.32,4.58,20.41,20.41,0,0,0-1.65,2.67c-.11.23-.24.46-.35.69l-.31.71c-.2.48-.44.94-.59,1.42l-.5,1.43c-.15.48-.28,1-.42,1.43s-.26,1-.37,1.44-.23,1-.31,1.44a67.15,67.15,0,0,0-1.12,11.5c0,1,0,1.91,0,2.86s0,1.91.09,2.86c.07,1.89.21,3.79.41,5.67.34-3.77.8-7.52,1.41-11.21A76.44,76.44,0,0,1,508,81.53a35.87,35.87,0,0,1,2-5c.17-.41.42-.76.62-1.14l.32-.56c.11-.18.24-.35.35-.53a21.36,21.36,0,0,1,1.55-2A19,19,0,0,1,516.59,69c.34-.23.69-.44,1-.63l.52-.28.55-.26A16.57,16.57,0,0,1,521,67a21.7,21.7,0,0,1,9.81-.66,20.85,20.85,0,0,1,8.86,3.46,13.63,13.63,0,0,1,1.76,1.44,13.08,13.08,0,0,1,1.49,1.67,14.8,14.8,0,0,1,1.22,1.91,15.8,15.8,0,0,1,.92,2.15,16.61,16.61,0,0,1,.62,2.3,15.64,15.64,0,0,1,.26,2.35,12.43,12.43,0,0,1-.67,4.56l-.19.54c-.07.18-.16.34-.23.52a11.15,11.15,0,0,1-.53,1A10.49,10.49,0,0,1,543,90.09a9.9,9.9,0,0,1-1.68,1.49l-.46.3-.5.27c-.17.09-.33.19-.51.27l-.53.22a13.56,13.56,0,0,1-9.42.18,10.1,10.1,0,0,1-3.94-2.46,6.12,6.12,0,0,1-.73-.87l-.18-.22-.15-.24c-.1-.16-.2-.33-.29-.51a10.17,10.17,0,0,1-.87-2.21,9.37,9.37,0,0,1-.1-4.7,7.25,7.25,0,0,1,.89-2.14,6.73,6.73,0,0,1,1.5-1.73,7.68,7.68,0,0,1,4.4-1.58,8.33,8.33,0,0,1,4.71,1.08A5.83,5.83,0,0,1,537.88,81a5.68,5.68,0,0,1-.71,4.66,4.28,4.28,0,0,1-1.82,1.52,5.61,5.61,0,0,1-2.45.46,4.65,4.65,0,0,1-4.19-2.37,4.43,4.43,0,0,1-.43-2.51,3.43,3.43,0,0,1,1.21-2.23"/><path class="cls-16" d="M529.21,80.12a4,4,0,0,0-1.63,2.5,5.29,5.29,0,0,0,.29,3,5,5,0,0,0,2,2.35,6.76,6.76,0,0,0,2.94,1,7,7,0,0,0,3.09-.39,5.86,5.86,0,0,0,2.61-1.89,7,7,0,0,0,1.35-2.93,8.59,8.59,0,0,0-1.18-6.18,7.83,7.83,0,0,0-2.29-2.33,11,11,0,0,0-6.06-1.79,10.58,10.58,0,0,0-6.19,1.86,9.88,9.88,0,0,0-2.35,2.39,11.13,11.13,0,0,0-1.47,3,13,13,0,0,0-.27,6.5,14.15,14.15,0,0,0,1,3.11c.12.25.24.5.38.74l.21.37.24.35a11,11,0,0,0,1,1.35,14.35,14.35,0,0,0,5.36,3.8,17.8,17.8,0,0,0,6.3,1.36A18,18,0,0,0,541,97.3l.79-.29c.26-.09.51-.23.77-.34l.77-.37.74-.43a15.19,15.19,0,0,0,2.68-2.11,16.78,16.78,0,0,0,2.14-2.62,12.88,12.88,0,0,0,.84-1.44c.13-.25.27-.5.39-.75l.33-.78a18.65,18.65,0,0,0,1.38-6.5,21.68,21.68,0,0,0-.74-6.52A20.61,20.61,0,0,0,548.4,69a19.07,19.07,0,0,0-4.71-4.85,23.87,23.87,0,0,0-12.14-4.34,27.76,27.76,0,0,0-12.49,1.77,22.62,22.62,0,0,0-2.89,1.4l-.7.41-.69.46c-.45.31-.88.63-1.29,1a23.71,23.71,0,0,0-4.32,4.58,20.41,20.41,0,0,0-1.65,2.67c-.11.23-.24.46-.35.69l-.31.71c-.2.48-.44.94-.59,1.42l-.5,1.43c-.15.48-.28,1-.42,1.43s-.26,1-.37,1.44-.23,1-.31,1.44a67.15,67.15,0,0,0-1.12,11.5c0,1,0,1.91,0,2.86s0,1.91.09,2.86c.07,1.89.21,3.79.41,5.67.34-3.77.8-7.52,1.41-11.21A76.44,76.44,0,0,1,508,81.53a35.87,35.87,0,0,1,2-5c.17-.41.42-.76.62-1.14l.32-.56c.11-.18.24-.35.35-.53a21.36,21.36,0,0,1,1.55-2A19,19,0,0,1,516.59,69c.34-.23.69-.44,1-.63l.52-.28.55-.26A16.57,16.57,0,0,1,521,67a21.7,21.7,0,0,1,9.81-.66,20.85,20.85,0,0,1,8.86,3.46,13.63,13.63,0,0,1,1.76,1.44,13.08,13.08,0,0,1,1.49,1.67,14.8,14.8,0,0,1,1.22,1.91,15.8,15.8,0,0,1,.92,2.15,16.61,16.61,0,0,1,.62,2.3,15.64,15.64,0,0,1,.26,2.35,12.43,12.43,0,0,1-.67,4.56l-.19.54c-.07.18-.16.34-.23.52a11.15,11.15,0,0,1-.53,1A10.49,10.49,0,0,1,543,90.09a9.9,9.9,0,0,1-1.68,1.49l-.46.3-.5.27c-.17.09-.33.19-.51.27l-.53.22a13.56,13.56,0,0,1-9.42.18,10.1,10.1,0,0,1-3.94-2.46,6.12,6.12,0,0,1-.73-.87l-.18-.22-.15-.24c-.1-.16-.2-.33-.29-.51a10.17,10.17,0,0,1-.87-2.21,9.37,9.37,0,0,1-.1-4.7,7.25,7.25,0,0,1,.89-2.14,6.73,6.73,0,0,1,1.5-1.73,7.68,7.68,0,0,1,4.4-1.58,8.33,8.33,0,0,1,4.71,1.08A5.83,5.83,0,0,1,537.88,81a5.68,5.68,0,0,1-.71,4.66,4.28,4.28,0,0,1-1.82,1.52,5.61,5.61,0,0,1-2.45.46,4.65,4.65,0,0,1-4.19-2.37,4.43,4.43,0,0,1-.43-2.51,3.43,3.43,0,0,1,1.21-2.23"/><line class="cls-14" x1="456.38" y1="104.4" x2="552.1" y2="103.87"/><line class="cls-15" x1="456.38" y1="104.4" x2="552.1" y2="103.87"/><path class="cls-18" d="M141.1,66.59,139.81,47c-.25-.82-3.3-10.27-13.3-13.33-10.4-3.18-18.71,3.47-19.26,3.93L95.41,53.65Z"/><path class="cls-18" d="M143.34,98.28c4.93-2.68,14.47-8.74,15.17-17.24,1.38-16.72-31.77-28.09-35.31-29.3-17.33-5.93-42.57-8.09-47,1.09-2.1,4.32.83,10.28,4.88,15.77.75-3.25,2.43-8.08,6.64-11.07,7.72-5.5,18.79-1.18,36.44,6,15.78,6.41,23.72,9.77,25.39,17S146,95.15,143.34,98.28Z"/><path class="cls-19" d="M129.42,153.42a29,29,0,0,1,.49,14.48,27.87,27.87,0,0,1-8,14.38c4.46,1.05,7.26,5.89,6.7,10.83-.64,5.69-5.61,10.4-10.87,9.44,2.74,2.74,3.64,7.35,2.29,11.47-1.47,4.44-5.29,7.41-9.26,7.12a9.46,9.46,0,0,1,2,9.6c-1.07,3.24-3.64,5.58-6.53,5.92,2.93,1.16,4.44,4.82,3.65,8.16-.9,3.78-4.56,6.36-7.92,5.1q-5.09,20.82-10.16,41.64l-15.54-5.89,23.82-42a9.17,9.17,0,0,1-2.78-7.38,9,9,0,0,1,8.39-7.91c-4.69-2.81-5.9-9.69-3.43-14.18a8.23,8.23,0,0,1,9.75-4.07,10.28,10.28,0,0,1-3.8-10c.87-4.9,5.12-8.82,9.83-8.41a23.91,23.91,0,0,1-3.62-17.68,24.22,24.22,0,0,1,6.66-12.75c-.29-2.39-.57-4.77-.86-7.15-2.44.08-18.28.43-20.79-8.22-3.4-11.65,18.42-36.23,27.47-31.52C132.87,117.52,134.25,134,129.42,153.42Z"/><ellipse class="cls-20" cx="102.25" cy="109.9" rx="57.15" ry="42.62" transform="translate(-39.68 158.78) rotate(-66.07)"/><path class="cls-21" d="M127.62,57.32a86.46,86.46,0,0,1-22.44,16.14A80.63,80.63,0,0,1,67,81.9c1.45-3.23,8.22-17.41,24.1-24.69A43.85,43.85,0,0,1,127.62,57.32Z"/><path class="cls-22" d="M128.84,57.9A50.59,50.59,0,0,0,130,81a46,46,0,0,0,18,24.88c.8-2.56,5.84-19.53-3.43-34.42A35.15,35.15,0,0,0,128.84,57.9Z"/><path class="cls-23" d="M105.77,138.83a12.68,12.68,0,0,1-8.32,2c-4.66-.61-8.56-4.14-10.26-9.13a11.26,11.26,0,0,0-.88,7.37,9.65,9.65,0,0,0,7.94,7.18C98.82,146.89,103.65,143.88,105.77,138.83Z"/><path class="cls-24" d="M102.1,120q.18,4.73.2,9.63c0,.76,0,1.51,0,2.25a12.76,12.76,0,0,1-2.78,0,13.3,13.3,0,0,1-3.74-.95"/><path class="cls-25" d="M102.1,120c.18,1,.31,2,.41,3s.18,2,.24,3,.09,2,.12,3,0,2,0,3l0,.5-.47,0a11,11,0,0,1-6.59-1.49,17.1,17.1,0,0,0,6.46.4l-.49.54,0-3c0-1,0-2,0-3s0-2,.12-3S102,121,102.1,120Z"/><path class="cls-26" d="M105.91,105.28c-4,8.77-3.22,17.59,1.83,19.71s12.42-3.27,16.45-12,3.22-17.59-1.83-19.7S109.94,96.52,105.91,105.28Z"/><path class="cls-25" d="M106.57,105.59A26,26,0,0,0,104,115.86a13.82,13.82,0,0,0,.84,5.13,6,6,0,0,0,3.33,3.49,6.74,6.74,0,0,0,4.88-.32,15.11,15.11,0,0,0,4.35-2.86,27.16,27.16,0,0,0,6.12-8.66,26,26,0,0,0,2.42-10.27,13.47,13.47,0,0,0-.87-5A5.84,5.84,0,0,0,121.84,94a6.47,6.47,0,0,0-4.72.26,15,15,0,0,0-4.33,2.8A27,27,0,0,0,106.57,105.59Zm-1.33-.61a28.28,28.28,0,0,1,6.45-9.16,16.66,16.66,0,0,1,4.81-3.14,8.17,8.17,0,0,1,6-.31,7.46,7.46,0,0,1,4.16,4.32,15,15,0,0,1,.94,5.69,27.3,27.3,0,0,1-2.68,10.88,28.29,28.29,0,0,1-6.56,9,16.14,16.14,0,0,1-4.78,3.06,7.94,7.94,0,0,1-5.8.26,7.34,7.34,0,0,1-4.06-4.16,14.72,14.72,0,0,1-1-5.62A27.17,27.17,0,0,1,105.24,105Z"/><path class="cls-26" d="M91.39,99.56c-4,8.8-3.34,17.61,1.58,19.67s12.2-3.39,16.26-12.19,3.34-17.61-1.58-19.68S95.45,90.76,91.39,99.56Z"/><path class="cls-25" d="M92,99.86a26.88,26.88,0,0,0-2.66,10.23,13.84,13.84,0,0,0,.73,5.14,5.84,5.84,0,0,0,3.27,3.56,6.48,6.48,0,0,0,4.89-.39,15.29,15.29,0,0,0,4.3-3,27.68,27.68,0,0,0,6-8.69,26.68,26.68,0,0,0,2.47-10.24,13.51,13.51,0,0,0-.78-5.05,5.6,5.6,0,0,0-3.14-3.36,5.68,5.68,0,0,0-2.3-.29,8.11,8.11,0,0,0-2.37.64A15.19,15.19,0,0,0,98.2,91.3,27.89,27.89,0,0,0,92,99.86Zm-1.28-.59a29.34,29.34,0,0,1,6.34-9.17,16.84,16.84,0,0,1,4.72-3.21,10.15,10.15,0,0,1,2.87-.78,7,7,0,0,1,3.06.38,7.23,7.23,0,0,1,4.07,4.38,15.18,15.18,0,0,1,.81,5.67,28.22,28.22,0,0,1-2.76,10.79,29.43,29.43,0,0,1-6.46,9,16.65,16.65,0,0,1-4.7,3.11,9.72,9.72,0,0,1-2.79.72,6.48,6.48,0,0,1-6.86-4.54,15,15,0,0,1-.86-5.58A28.08,28.08,0,0,1,90.75,99.27Z"/><path class="cls-25" d="M102.66,88a6.45,6.45,0,0,1-4.41,2,5.91,5.91,0,0,1-4.51-1.78,4.07,4.07,0,0,1-.51-4.79,4.26,4.26,0,0,1,4.27-2.17,3.83,3.83,0,0,1,2.25,1.13,2.69,2.69,0,0,1,.62,2.47,2.81,2.81,0,0,1-1.63,1.89,2.69,2.69,0,0,1-2.45-.18,1.91,1.91,0,0,1-.81-1,1.75,1.75,0,0,1,.12-1.29,1.77,1.77,0,0,1,2.18-.89,1.25,1.25,0,0,1,.85.93,1.16,1.16,0,0,1-.49,1.14,1.11,1.11,0,0,1-1.2,0,.72.72,0,0,1-.13-1.11l.1.1a.53.53,0,0,0,.14.83.87.87,0,0,0,.93-.07.83.83,0,0,0,.31-.84.88.88,0,0,0-.64-.61,1.32,1.32,0,0,0-1.6.72,1.22,1.22,0,0,0,.55,1.58,2.09,2.09,0,0,0,1.87.07,2.11,2.11,0,0,0,1.15-1.45,1.86,1.86,0,0,0-.5-1.7,2.88,2.88,0,0,0-1.73-.78,3.25,3.25,0,0,0-3.26,1.72,3,3,0,0,0,.43,3.56,5.22,5.22,0,0,0,7.26-.25Z"/><path class="cls-25" d="M127,98.56a5,5,0,0,0,5.21,4.8,3.14,3.14,0,0,0,2.67-2.38,3,3,0,0,0-1.26-3.36,2.74,2.74,0,0,0-1.8-.51,2,2,0,0,0-1.49,1,2,2,0,0,0-.12,1.8,2,2,0,0,0,1.43,1.14,1.25,1.25,0,0,0,1.45-.84,1.24,1.24,0,0,0-.7-1.55.92.92,0,0,0-.88.06.85.85,0,0,0-.33.82.82.82,0,0,0,.65.64.54.54,0,0,0,.65-.53h.14a.73.73,0,0,1-.82.75,1.07,1.07,0,0,1-.89-.79,1.17,1.17,0,0,1,.39-1.16,1.29,1.29,0,0,1,1.24-.17,1.71,1.71,0,0,1,1,2.09,1.82,1.82,0,0,1-2,1.28,2.6,2.6,0,0,1-2-1.44,2.76,2.76,0,0,1,2.13-3.9,3.64,3.64,0,0,1,2.42.56,4,4,0,0,1,1.58,1.92,4.13,4.13,0,0,1,.16,2.48,4.22,4.22,0,0,1-3.52,3.23,5.7,5.7,0,0,1-4.54-1.51,6.12,6.12,0,0,1-2-4.36Z"/><path class="cls-27" d="M113.77,105.2c-2.61,5.68-2.4,11.27.48,12.47s7.34-2.42,10-8.1,2.4-11.27-.48-12.48S116.39,99.51,113.77,105.2Z"/><path class="cls-26" d="M121.09,107.52a2.33,2.33,0,0,0,.8-1.83,2.4,2.4,0,0,0-.9-1.7,2.55,2.55,0,0,0-1.78-.61,2.32,2.32,0,0,0-1.67.75c-.38.44-.14,1.08.34,1.51a2,2,0,0,0,1.69.63c.55-.15,1-.92.49-1.39a1,1,0,0,0-.83-.4.79.79,0,0,0-.62.71.82.82,0,0,1,.59-.85,1.17,1.17,0,0,1,1.07.35,1.06,1.06,0,0,1,.28,1.14,1.43,1.43,0,0,1-.84.86,2.38,2.38,0,0,1-2.19-.66,2.18,2.18,0,0,1-.67-1,1.4,1.4,0,0,1,.23-1.25,3,3,0,0,1,4.21-.13,2.77,2.77,0,0,1,.88,2A2.37,2.37,0,0,1,121.09,107.52Z"/><path class="cls-26" d="M121.2,107.65a2.24,2.24,0,0,1,.7-2.05,3,3,0,0,1,2.14-.71A2.94,2.94,0,0,1,127,108a1.45,1.45,0,0,1-.83,1,2.66,2.66,0,0,1-1.2.17,3.41,3.41,0,0,1-1.13-.28,1.89,1.89,0,0,1-.94-.79,1.39,1.39,0,0,1,0-1.24,1.14,1.14,0,0,1,1.06-.56,1.3,1.3,0,0,1,1,.49.78.78,0,0,1-.21,1,.74.74,0,0,0,.09-.94,1.12,1.12,0,0,0-.91-.3.8.8,0,0,0-.74.45.93.93,0,0,0,0,.86,2.3,2.3,0,0,0,1.72.75c.66,0,1.35-.19,1.43-.76a2.09,2.09,0,0,0-.63-1.73,2.75,2.75,0,0,0-1.77-.83,2.7,2.7,0,0,0-1.93.49A2.15,2.15,0,0,0,121.2,107.65Z"/><path class="cls-26" d="M125.51,109.61c-.81-.22-1.6-.49-2.38-.76s-1.56-.59-2.33-.91-1.53-.65-2.28-1-1.49-.74-2.21-1.17c.81.21,1.6.48,2.39.76s1.55.59,2.32.9,1.53.66,2.28,1S124.79,109.18,125.51,109.61Z"/><path class="cls-28" d="M99.56,99c-2.55,5.55-2.23,11.06.72,12.29s7.41-2.26,10-7.81,2.23-11.05-.72-12.29-7.41,2.26-10,7.81"/><path class="cls-26" d="M108.21,101.69c-.82-.22-1.6-.49-2.39-.77s-1.56-.58-2.33-.9-1.52-.65-2.27-1-1.49-.74-2.22-1.17c.82.21,1.61.48,2.39.76s1.56.59,2.33.9,1.52.66,2.27,1A24.78,24.78,0,0,1,108.21,101.69Z"/><path class="cls-26" d="M103.32,99.62a2.27,2.27,0,0,0,.8-1.82,2.37,2.37,0,0,0-.89-1.7,2.58,2.58,0,0,0-1.79-.62,2.32,2.32,0,0,0-1.66.76c-.39.44-.15,1.08.34,1.51a2.1,2.1,0,0,0,1.69.63c.55-.15,1-.92.49-1.39a1,1,0,0,0-.83-.4.8.8,0,0,0-.63.7.84.84,0,0,1,.6-.85,1.19,1.19,0,0,1,1.07.35,1.09,1.09,0,0,1,.28,1.14,1.5,1.5,0,0,1-.84.87,2.41,2.41,0,0,1-2.19-.66,2.24,2.24,0,0,1-.67-1,1.39,1.39,0,0,1,.23-1.26,3,3,0,0,1,4.21-.12,2.72,2.72,0,0,1,.87,2A2.29,2.29,0,0,1,103.32,99.62Z"/><path class="cls-26" d="M103.44,99.75a2.21,2.21,0,0,1,.69-2,3.1,3.1,0,0,1,2.15-.72,3,3,0,0,1,2.93,3.12,1.41,1.41,0,0,1-.83,1,2.53,2.53,0,0,1-1.2.17A3.72,3.72,0,0,1,106,101a1.89,1.89,0,0,1-.93-.8,1.33,1.33,0,0,1,0-1.24,1.16,1.16,0,0,1,1.06-.56,1.32,1.32,0,0,1,1,.5.78.78,0,0,1-.22,1,.72.72,0,0,0,.09-.94,1.06,1.06,0,0,0-.91-.3.81.81,0,0,0-.74.45.94.94,0,0,0,0,.85,2.31,2.31,0,0,0,1.71.76c.66,0,1.35-.2,1.44-.77a2.16,2.16,0,0,0-.63-1.73,2.83,2.83,0,0,0-1.77-.83,2.74,2.74,0,0,0-1.94.49A2.18,2.18,0,0,0,103.44,99.75Z"/><path class="cls-29" d="M77.48,160.49,72,172.87a4.14,4.14,0,0,0,1.24,4.51,4,4,0,0,0,5.46-1l6.11-12.59Z"/><path class="cls-30" d="M.78,306-85.84,417.11"/><path class="cls-31" d="M71.56,170.14a4.86,4.86,0,0,0-2.09,3.42c-.09,3.38,5.52,6.85,8.66,5.15a5.16,5.16,0,0,0,2.23-3.32l30.85,25.71c-13.53,4.53-31.87,13.39-45.53,31.35-1.74,2.29-3.29,4.58-4.7,6.87,2.25,22.21-2.6,36.64-7.39,45.67-6.3,11.88-13.84,17-20.36,32.31a88.26,88.26,0,0,0-6.77,28.84L-49,291.93a75.92,75.92,0,0,0,20.55-13.74c11.19-10.57,13.9-19.91,20.67-29.58,6.21-8.86,17.13-19.85,37.76-28.2a125.47,125.47,0,0,0,5.22-12.79A132.32,132.32,0,0,0,42,156.16Z"/><path class="cls-32" d="M108.16,203.91a98,98,0,0,0,29.38,3.39c31-1.17,52.94-17,61.75-24.18"/><path class="cls-33" d="M41,161.73A213.09,213.09,0,0,1,16,178a214,214,0,0,1-63.6,23"/><ellipse class="cls-34" cx="208.55" cy="186.26" rx="3.01" ry="11.04" transform="translate(-29.16 333.5) rotate(-73.54)"/><path class="cls-35" d="M91.14,288.09a8.22,8.22,0,0,0,2.2,5.94A6.13,6.13,0,0,0,96,295.67a5.17,5.17,0,0,0,3,.06,6.19,6.19,0,0,0,4-4.53,6.05,6.05,0,0,0,0-3.16,4.52,4.52,0,0,0-1.71-2.5,3.5,3.5,0,0,0-2.84-.57,3.6,3.6,0,0,0-2.24,1.94,4.12,4.12,0,0,0-.29,3,2.56,2.56,0,0,0,2.17,1.81,2.23,2.23,0,0,0,2.2-1.7,2.43,2.43,0,0,0,0-1.53,1.68,1.68,0,0,0-1-1.06,1.25,1.25,0,0,0-1.36.28,1.76,1.76,0,0,0-.53,1.43,1.1,1.1,0,0,0,1,1,1,1,0,0,0,1-1h.23a1.31,1.31,0,0,1-1.24,1.36,1.53,1.53,0,0,1-1.42-1.32,2.3,2.3,0,0,1,.58-1.9,1.92,1.92,0,0,1,2-.53,2.44,2.44,0,0,1,1.5,1.43,3.32,3.32,0,0,1,.09,2,3.57,3.57,0,0,1-1.08,1.76,2.87,2.87,0,0,1-2,.73,3.59,3.59,0,0,1-3.22-2.42,5.37,5.37,0,0,1,.21-4,4.76,4.76,0,0,1,7.13-2.09,6,6,0,0,1,2.41,3.32,7.73,7.73,0,0,1,.08,4,7.87,7.87,0,0,1-5.16,5.9,7.65,7.65,0,0,1-7.6-2.13A10.11,10.11,0,0,1,89.25,288Z"/><path class="cls-35" d="M82,282.33a13.94,13.94,0,0,1-6.62,7,11.31,11.31,0,0,1-4.87,1.14A9,9,0,0,1,65.56,289a7.79,7.79,0,0,1-3-4.21,9.8,9.8,0,0,1-.13-5,9.36,9.36,0,0,1,6.4-7.19,6.26,6.26,0,0,1,5.09.72,5.5,5.5,0,0,1,2.24,4.61,6.83,6.83,0,0,1-1.83,4.62,4.93,4.93,0,0,1-4.76,1.5,3.25,3.25,0,0,1-2.09-1.67,4,4,0,0,1-.34-2.55,3.78,3.78,0,0,1,3.48-3.26,2.38,2.38,0,0,1,1.28.35,2.1,2.1,0,0,1,.84,1.05,2.73,2.73,0,0,1-.33,2.44,2.07,2.07,0,0,1-2.21.93,1.27,1.27,0,0,1-.9-.88,1.7,1.7,0,0,1,.1-1.22l.27.11a1.1,1.1,0,0,0,.64,1.58,1.59,1.59,0,0,0,1.63-.82,2.13,2.13,0,0,0,.15-1.88,1.4,1.4,0,0,0-1.46-.82,2.48,2.48,0,0,0-1.66.84A3.35,3.35,0,0,0,68.2,280a2.38,2.38,0,0,0,1.7,2.83,3.67,3.67,0,0,0,3.39-1.27A5.35,5.35,0,0,0,74.58,278,3.84,3.84,0,0,0,73,274.79a4.52,4.52,0,0,0-3.6-.33,6.6,6.6,0,0,0-3.19,2.18,8.09,8.09,0,0,0-1.65,3.6,6.65,6.65,0,0,0,2.34,6.91,6.83,6.83,0,0,0,3.63,1,9.28,9.28,0,0,0,3.83-.94,11.64,11.64,0,0,0,5.51-5.83Z"/><path class="cls-36" d="M153.15,147.51c22.48-2.45,53.6-8.34,74.08-24.63,21.63-17.2,13.67-31.91,26-45.69,38.42-42.8,243.31-43.52,276.28,5.63,17.08,25.46-12.42,63.62-53.16,80.38-65.64,27-160.61-1.45-169.15-4.1-27.39-8.48-39.83-17.36-71-20.33C202.57,135.55,173,141.75,153.15,147.51Z"/><text class="cls-37" transform="translate(267.73 86.88) scale(1.06 1)">Hi I’m Miss Rose! I made these little videos to help <tspan x="13.87" y="10.76">you memorize entire books of the Bible! Just </tspan><tspan x="22.53" y="21.51">choose a verse to start, and loop it in the </tspan><tspan x="1.44" y="32.27">background of your life - before you know it, you’ll </tspan><tspan x="23.42" y="43.02">be singing a whole book of God’s Word!</tspan></text></svg>