<?xml version="1.0" encoding="utf-8"?>
<!-- Generator: Adobe Illustrator 23.0.3, SVG Export Plug-In . SVG Version: 6.00 Build 0)  -->
<svg version="1.1" id="Layer_1" xmlns="http://www.w3.org/2000/svg" xmlns:xlink="http://www.w3.org/1999/xlink" x="0px" y="0px"
	 viewBox="0 0 338.41 312" style="enable-background:new 0 0 338.41 312;" xml:space="preserve">
<style type="text/css">
	.st0{fill:#00ADEE;}
	.st1{fill:#28B7FF;}
	.st2{fill:none;stroke:#231F20;stroke-linecap:round;stroke-miterlimit:10;}
	.st3{fill:#FFFFFF;stroke:#231F20;stroke-linecap:round;stroke-miterlimit:10;}
	.st4{fill:#231F20;stroke:#231F20;stroke-linecap:round;stroke-miterlimit:10;}
	.st5{fill:#FF4BBD;}
	.st6{fill:none;stroke:#231F20;stroke-miterlimit:10;}
	.st7{fill:none;stroke:#000000;stroke-linecap:round;stroke-miterlimit:10;}
	.st8{fill:none;stroke:#FFFFFF;stroke-linecap:round;stroke-miterlimit:10;}
	.st9{fill:none;stroke:#00C2FF;stroke-linecap:round;stroke-miterlimit:10;}
	.st10{fill:none;stroke:#00ADEE;stroke-linecap:round;stroke-miterlimit:10;}
	.st11{fill:none;}
	.st12{fill:#FFFF00;}
	.st13{fill:none;stroke:#000000;stroke-miterlimit:10;}
	.st14{fill:#FFFFFF;stroke:#FFFFFF;stroke-linecap:square;stroke-miterlimit:10;}
	.st15{fill:#FFFFFF;}
</style>
<g>
	<path class="st0" d="M219.25,284.53h0.85C219.88,284.23,219.62,284.14,219.25,284.53z"/>
	<path class="st1" d="M271.12,57.24H59.7v227.03h156.1c0.36-0.37,0.62-0.29,0.84,0h54.49V57.24H271.12z"/>
	<path class="st2" d="M256.88,101.31c-0.75-4.17-2.74-12.74-8.41-21.2c-8.45-12.61-19.1-16.1-22.07-17.07
		c-15.24-5-32.54,1.81-39.22,17.43c-7.48,17.5,4.38,31.96-3.49,54.2c-0.96,2.71-8.84,24.94-23.23,22.09
		c-9.36-1.86-20.41-14.13-21.35-27.16c-0.79-10.9,5.59-18.84,14.23-17.74c6.92,0.88,13.03,8.66,13.66,17.38
		c0.5,6.98-3.58,12.06-9.11,11.35c-4.43-0.56-8.34-5.55-8.74-11.13c-0.32-4.46,2.29-7.72,5.83-7.27c2.83,0.36,5.34,3.55,5.6,7.12
		c0.18,2.48-1.5,5.22-3.73,4.65c-1.51-0.39-2.98-2.22-3.58-4.56"/>
	
		<ellipse transform="matrix(0.4604 -0.8877 0.8877 0.4604 -13.9438 159.635)" class="st3" cx="124.34" cy="91.29" rx="50.33" ry="78.43"/>
	<path class="st3" d="M151.76,84.66c-0.31,8.42-3.34,20.37-11.62,16.96s-7.39-17.22-7.31-25.42s2.08-19.92,10.46-16.84
		C151.67,62.45,152.06,76.24,151.76,84.66z"/>
	<path class="st3" d="M134.79,76.3c-0.4,9.62-4.29,21.05-13.66,17.85s-9.1-17.32-8.18-26.57s3.5-21.79,12.84-18.25
		S135.19,66.68,134.79,76.3z"/>
	<path class="st4" d="M146.69,78.71c0,5.55-0.44,17.02-6.63,14.91c-6.18-2.11-4.18-13.9-4.22-19.4c-0.04-5.5-0.08-16.85,6.17-14.92
		S146.68,73.16,146.69,78.71z"/>
	<path class="st4" d="M130.01,70.29c-0.27,6.82-1.85,16.82-9.05,14.69c-7.2-2.14-6.26-13.6-5.78-20.28
		c0.47-6.68,1.82-17.27,8.86-14.94C131.09,52.07,130.28,63.46,130.01,70.29z"/>
	<path class="st2" d="M127.62,96.46c-0.89,1.71-2.78,1.48-1.93,4.16c0.85,2.68,2.68,3.81,5.6,3.99c0.26,0.02,4.16,0.31,3.84-2.04
		c-0.16-1.19,0.13-2.91-1.03-3.73"/>
	<path class="st2" d="M119.13,49.26c-3.05,3.98-6.33,6.13-10.87,4.34c-3.63-1.43-5.23-5.02-4.17-9.35c0.85-3.47,3.82-4,6.46-3
		c2.11,0.8,3.31,3.29,2.77,5.77s-2.47,2.62-4.15,2.19c-1.67-0.43-2.14-2.05-1.88-3.72c0.26-1.67,1.53-1.67,2.58-1.4
		s1.42,1.3,1.23,2.37c-0.19,1.07-1,1.12-1.71,0.89c-0.71-0.22-0.76-0.84-0.83-1.57"/>
	<path class="st2" d="M149.73,66.13c2.02,3.62,4.19,7.94,8.32,7.63c3.3-0.24,3.13-4.13,2.16-7.16c-0.77-2.43-2.66-5.14-5.14-4.94
		c-1.99,0.16-1.93,2.7-1.44,4.45c0.5,1.75,1.72,3.27,3.24,3.33c1.52,0.06,1.3-1.63,1.03-2.81s-1.09-2.1-2.06-2.14
		s-0.83,1.05-0.66,1.8c0.18,0.75,0.7,1.36,1.32,1.37c0.63,0.01,0.46-0.66,0.46-1.15"/>
	<path class="st2" d="M191.59,102.89"/>
	<path class="st2" d="M161.44,62.89"/>
	<path class="st2" d="M161.44,62.89"/>
	<path class="st2" d="M158.89,57.5"/>
	<path class="st3" d="M87.49,23.85"/>
	<g id="XMLID_4_">
		<g>
			<path class="st5" d="M104.85,7.29c23.51-11.82,46.79-0.82,62.91,21.03c9.89,13.4,5.9,25.13,9.16,40.42l-0.35,0.9
				c-15.93-9.73-32.13-22.85-52.12-31.26c-6.56-2.74-23.55-5.21-33.69-3.28l-0.03-0.35C96.43,24.62,93.47,13.01,104.85,7.29z"/>
		</g>
		<g>
			<path class="st6" d="M190.66,56.35c0.42,1.25,1.37,2.59,0.09,3.66c-1.28,1.07-2.79,0.48-3.84-0.99s-2.01-4-0.43-5.5
				c1.98-1.88,4.39-0.75,5.96,1.25c1.96,2.5,3.26,6.23,0.84,8.77c-3.02,3.18-6.85,1.11-9.3-1.89c-3.06-3.74-5.1-9.85-1.33-13.64
				c4.71-4.73,11.14-3,14.45,3.33c3.94,7.53,10.28,15.38-0.12,22.01c-5.24,3.35-12.25,1.29-20.42-3.71
				c-15.93-9.73-32.13-22.85-52.12-31.26c-6.56-2.74-23.55-5.21-33.69-3.28c-0.31,0.06-0.62,0.12-0.92,0.19
				c-2.02,0.45-7.01,1.2-12.13-1.63c-1.14-0.64-8.22-4.73-9.8-13.91c-0.36-2.08-1.12-9.16,2.85-14.62c1.44-1.98,3.56-3.4,6.69-4.28
				c6.23-1.78,11.24,3.54,12.9,10.53c1.25,5.21-1.27,10.09-6.14,10.61c-3.64,0.38-7.23-2.32-8.14-6.86
				c-0.68-3.39,0.73-6.43,3.91-6.81c2.37-0.27,4.66,1.47,5.26,4.39c0.45,2.2-0.52,4.05-2.49,4.39c-1.44,0.25-2.99-1-3.34-2.67
				s0.59-2.15,1.44-3.14"/>
			<path class="st6" d="M90.72,34.76c5.7-10.14,2.75-21.74,14.13-27.47c23.51-11.82,46.79-0.82,62.91,21.03
				c9.89,13.4,5.9,25.13,9.16,40.42"/>
		</g>
	</g>
	<g id="XMLID_3_">
		<g>
			<path class="st5" d="M158.22,166.2c-0.05,0.75-0.1,1.5-0.15,2.26v0.01c-0.32,4.9-0.59,9.9-0.8,15.01
				c-0.43,10.22-0.61,20.08-0.59,29.54c10.32,7.7,20.63,15.38,30.95,23.07c3.97,3.76,9.95,10.47,14.49,20.86
				c4.73,10.83,5.99,21.34,6.09,29.19c-21.3-0.18-42.89-0.71-64.37-1.1c-9.45-0.17-18.88-0.31-28.25-0.39
				c-3.63-0.03-7.24-0.04-10.85-0.05c-2.39-9.82-4.77-19.64-7.16-29.46c4.44-10.82,8.88-21.63,13.32-32.44
				c-10.18-14.63-20.35-29.29-30.52-43.93c-0.95-1.37-1.89-2.72-2.84-4.09c2.82-3.58,8.5-9.84,17.33-13.58
				c6.32-2.69,11.93-3.1,15.61-3.02c-1.99,1.44-5.21,4.3-6.57,9.01c-0.33,1.16-0.5,2.04-0.41,3.17c0.43,5.2,5.82,6.86,9.61,6.85
				c4.48-0.01,8.67,0.29,11.63-2.48c0.63-0.59,2.12-2.19,2.8-4.77c1.2-4.52-0.68-10.01-4.69-14.01c4.78,0.79,9.9,1.87,15.31,3.35
				C145.59,161.24,152.29,163.68,158.22,166.2z"/>
		</g>
		<g>
			<path class="st7" d="M113.02,142.13c-0.9,5.31-1.79,10.62-2.54,15.96c-0.2,1.41-0.38,2.82-0.56,4.23"/>
			<path class="st7" d="M120.86,163.88c0.34-6.96,2.14-13.29,4.3-19.71"/>
			<path class="st7" d="M158.08,168.46c0.05-0.76,0.1-1.51,0.15-2.26c-5.93-2.53-12.63-4.96-20.06-6.99
				c-5.41-1.48-10.53-2.56-15.31-3.35c4,4.01,5.89,9.49,4.69,14.01c-0.68,2.57-2.17,4.17-2.8,4.77c-2.96,2.77-7.15,2.47-11.63,2.48
				c-3.8,0-9.18-1.65-9.61-6.85c-0.09-1.13,0.07-2.01,0.41-3.17c1.36-4.72,4.58-7.58,6.57-9.01c-3.68-0.09-9.29,0.33-15.61,3.02
				c-8.83,3.75-14.52,10-17.33,13.58c0.95,1.37,1.89,2.72,2.84,4.09c10.17,14.64,20.35,29.29,30.52,43.93
				c-4.44,10.82-8.88,21.63-13.32,32.44c2.39,9.82,4.77,19.64,7.16,29.46"/>
			<path class="st7" d="M143.85,285.04c21.47,0.39,43.07,0.92,64.37,1.1c-0.1-7.85-1.36-18.35-6.09-29.19
				c-4.54-10.39-10.53-17.1-14.49-20.86c-10.32-7.69-20.63-15.38-30.95-23.07c-0.02-9.46,0.16-19.33,0.59-29.54
				c0.21-5.1,0.48-10.1,0.8-15.01"/>
			<path class="st7" d="M115.59,284.65c9.37,0.08,18.8,0.22,28.25,0.39"/>
			<path class="st7" d="M104.74,284.6c3.61,0,7.22,0.02,10.85,0.05"/>
			<path class="st7" d="M158.08,168.46L158.08,168.46c2.83,3.83,7.15,9.48,12.72,15.94c11.44,13.29,16.5,16.54,22.27,24.17
				c5.06,6.68,11.16,17.37,14.79,34.53"/>
			<path class="st7" d="M32.39,84.74c-1.94,4.36-4.45,11.26-5.45,20.13c-2.2,19.42,4.41,34.33,6.45,38.78
				c13.67,29.8,43.74,34.66,46.99,35.12"/>
		</g>
	</g>
	<path class="st2" d="M46.61,112.33"/>
	<g>
		<path class="st2" d="M26.73,251.21c-2.8,9.12-6.65,17.07-15.98,14.32c-7.46-2.21-10.47-10.9-10.24-19.44
			c0.18-6.83,4.03-10.91,9.78-9.39c4.61,1.22,6.74,6.96,6.45,12.31c-0.23,4.28-2.53,7.29-6.26,6.17c-2.99-0.9-4.31-4.49-4.17-7.96
			c0.11-2.78,1.68-4.4,4.01-3.92c1.87,0.38,2.7,2.95,2.68,4.9c-0.02,1.95-0.99,3.02-2.48,2.76c-1.49-0.26-1.55-1.85-1.95-3.22"/>
		<path class="st3" d="M44,125.57c-3.25,0.3-5.61,1.06-6.92,4.91c-0.99,2.91-0.66,5.8,0.56,8.6s3.34,3.78,5.89,4.11
			c-1.61,0.83-2.7,0.5-4.26,2.03c-1.56,1.53-3.57,3.27-3.31,6.38s2.09,5.53,4.6,6.74c-2.48,1.1-3.39,0.2-5.79,2.93
			c-0.69,0.78-3.52,4.78-2.29,7.35c0.75,1.57,1.68,4.57,3.74,4.86c-1.94-0.6-3.38,1.09-4.88,2.04c-1.5,0.95-1.55,5.91-1.47,6.5
			c0.63,4.45,1.85,5.72,3.96,8.61c-2.36,0.21-3.52-0.75-5.49,1.7s-2.62,7.73-1.56,10.88c1.06,3.15,2.53,3.64,4.64,5.28
			c-3.52,1.83-5.45,2.08-8.17,6.26c-0.9,1.39-2.91,6.02-1.81,8.75c1.57,3.87,6.44,5.7,6.81,10.41c0.26,3.33-4.27,2.68-5.95,5.05
			c-0.59,0.83-2.22,2.51-1.53,4.54c0.94,2.76,2.75,5.34,5.25,6.75c3.47,1.96,4.37,4.21,9.17,4.04c0.82-0.03,6.28-0.66,5.11-5.35
			c-1-4.04-1.97-10.64-6.08-13c4.41-2.35,7.01-5.21,6.79-11.15c-0.15-4.01-2.82-5.65-4.82-8.35c1.21-1.74,3.24-4.65,4.34-6.12
			c1.11-1.47,2.4-2.86,2.22-4.3c-0.59-4.75-3.15-6.27-5.8-9.18c1.75-1.8,3.04-2.94,3.45-5.93c0.42-2.98-0.45-6.03-1.78-8.65
			c2.85-1.03,4.76-2.06,5.34-5.9c0.57-3.83-0.86-6.98-2.85-9.94c2.81-1.84,4.69-4.18,5.73-7.78c0.52-1.8,0.06-3.34,0.07-5.1
			c2.29-1.03,3.87-0.74,5.39-3.61s1.69-6.98,1.03-10.43c1.35,0.18,2.5-0.35,3.63-1.13c1.58-1.09,1.66-5.44,1.53-6.64
			c-0.42-3.74-1.32-5.17-2.62-8.06c3.12,0.86,4.07,3.62,7.62,1.4c3.55-2.21,5.73-8.01,5.9-12.99c-2.93-5.5-6.18-10.59-9.26-15.97
			c-3.64-1.17-6.46-1.46-8.85,2.62s-1.85,8.77-1.04,13.4c-2.4,0.63-3.8-0.4-5.53,2.53C42.97,117.61,42.95,122.05,44,125.57z"/>
		<path class="st2" d="M26.06,253.74c-2.24,7.91-3.07,16.09,1.36,23.01c3.54,5.53,7.85,4.61,11.12-0.61
			c2.62-4.18,2.08-10.22-0.61-14.33c-2.16-3.28-5.09-2.99-7.06,0.47c-1.57,2.77-1.31,6.6,0.36,9.28c1.34,2.14,3.27,1.68,4.49-0.16
			c1.22-1.84,0.79-4.19-0.08-5.9c-0.87-1.71-2.04-1.25-2.91-0.07c-0.87,1.18-0.59,2.72,0.03,3.84c0.61,1.12,1.19,0.59,1.93,0.12"/>
	</g>
	<path class="st2" d="M29.98,73.6c0.37-3.13-0.46-7.56,3.71-7.14c1.22,0.12,4.03,6.08,2.88,9.16c-0.85,2.26-0.93,8.22-4.18,9.12
		C30.9,81.31,29.51,77.66,29.98,73.6z"/>
	<g>
		<path class="st8" d="M144.13,76.26c-0.39-1.55-1.26-3.21-2.7-3.34s-1.53,1.43-1.48,2.66s0.75,2.12,1.68,2.27
			c0.93,0.15,0.99-0.92,0.95-1.69c-0.04-0.77-0.48-1.36-1.08-1.45c-0.59-0.09-0.63,0.59-0.61,1.08c0.03,0.5,0.31,0.87,0.69,0.93
			s0.39-0.38,0.39-0.69c0-0.31-0.22-0.54-0.41-0.6c-0.2-0.07-0.17,0.08-0.21,0.21c-0.04,0.14,0.05,0.21,0.08,0.33"/>
		<path class="st8" d="M144.18,76.32c0.09,0.54,0.18,1.08,0.27,1.62"/>
		<path class="st8" d="M144.25,76.26c-0.09-1.51,0.3-3.21,1.7-3.45s1.96,1.34,2.3,2.54c0.34,1.21-0.08,2.11-0.99,2.36
			s-1.26-0.85-1.47-1.61c-0.21-0.75,0.06-1.35,0.64-1.5s0.81,0.55,0.94,1.03s-0.04,0.86-0.41,0.96c-0.37,0.1-0.51-0.36-0.6-0.65
			c-0.1-0.29,0.05-0.54,0.23-0.62c0.19-0.09,0.2,0.08,0.28,0.2c0.08,0.12,0.01,0.21,0.02,0.33"/>
		<path class="st8" d="M144.21,76.32c0.07,0.54,0.15,1.08,0.22,1.62"/>
		<path class="st8" d="M140.87,78.4c2.52-0.05,5.04-0.11,7.57-0.16"/>
	</g>
	<g>
		<path class="st8" d="M126.09,67.11c-0.49-1.66-1.55-3.19-3.06-3.3s-1.74,1.35-1.68,2.7c0.06,1.35,0.92,2.11,1.9,2.25
			c0.97,0.14,1.12-0.87,1.07-1.71s-0.6-1.35-1.22-1.43s-0.72,0.55-0.69,1.1c0.03,0.54,0.38,0.86,0.78,0.92s0.44-0.36,0.44-0.7
			s-0.26-0.54-0.47-0.6s-0.19,0.07-0.24,0.22c-0.05,0.14,0.06,0.21,0.09,0.33"/>
		<path class="st8" d="M126.15,67.16c0.1,0.54,0.2,1.07,0.3,1.61"/>
		<path class="st8" d="M126.23,67.11c-0.08-1.67,0.48-3.25,1.94-3.53s2.1,1.23,2.47,2.5s-0.07,2.1-1,2.39s-1.42-0.76-1.66-1.58
			c-0.24-0.81,0.12-1.37,0.73-1.53c0.6-0.16,0.9,0.49,1.05,1.01c0.15,0.53-0.06,0.87-0.45,0.98s-0.57-0.32-0.68-0.64
			c-0.12-0.32,0.07-0.55,0.27-0.63c0.2-0.09,0.22,0.07,0.31,0.19s0.01,0.21,0.02,0.34"/>
		<path class="st8" d="M126.19,67.16c0.08,0.54,0.16,1.07,0.25,1.61"/>
		<path class="st8" d="M122.38,69.32c2.82-0.12,5.64-0.25,8.46-0.33"/>
	</g>
	<path class="st2" d="M107.79,117.51c2.63,3.06,5.53,4.65,6.95,5.44c5.18,2.89,16.98,5.25,24.15,1.28
		c7.17-3.97,13.49-9.63,16.77-18.79c-0.97,10.32,1.33,19.74-7.31,26.51c-9.39,7.36-16.16,10.38-29.35,8.33
		c-6.51-1.01-18.56-9.48-19.05-21.78c-0.31-7.72-0.1-19.29,3.41-26.94C102.81,93.71,99.42,107.75,107.79,117.51z"/>
	<path class="st2" d="M102.84,92.92c1.51-2.98,3.4-6.6,6.74-5.02c2.68,1.26,2.1,4.95,1.25,7.55c-0.68,2.08-2.33,4.18-4.21,3.39
		s-1.27-3.21-0.82-4.77s1.48-2.72,2.74-2.24c1.26,0.48,0.69,1.98,0.56,3.04"/>
	<path class="st2" d="M155.41,106.22c0.5-2.76,0.62-6.76-1.75-8.22c-2.37-1.45-3.27,1.88-3.85,3.83c-0.58,1.95-0.44,4.38,1.04,5.4
		c1.48,1.01,2.1-1.19,2.45-2.42c0.36-1.23,0.31-2.82-0.67-3.47c-0.97-0.65-1.26,0.78-1.6,1.51"/>
	<path class="st9" d="M117.28,53.53c-1.96,7.31-2.35,13.4-2.36,17.45c-0.01,5.98,1.3,8.26,2.04,10.54c0.42,1.3,3.75,4.25,5.76,4.2
		c2.01-0.06,5.82-2.99,6.53-5.05c0.99-2.84,1.71-5.16,1.85-7.13c0.5-7.44-0.53-14.78-1.76-20.5"/>
	<path class="st10" d="M217.18,133.76"/>
	<path class="st9" d="M135.69,63.37c-0.16,3.38-0.32,6.12-0.42,7.94c0,0-0.3,4.64-0.36,12.5c-0.01,1.42,0.09,2.56,0.25,3.55
		c0.13,0.77,0.29,1.8,0.65,2.71c0.75,1.92,2.9,4.73,5.42,4.58c2.83-0.16,4.49-3.97,4.67-4.38c0.62-1.43,0.86-3.33,1.33-7.14
		c0.05-0.37,0.07-0.63,0.09-0.8c0,0,0.22-2.02,0.23-4.31c0.01-1.81-0.39-7.92-1.52-16.16"/>
	<line class="st11" x1="109.14" y1="221.62" x2="108.98" y2="222.56"/>
	<path class="st2" d="M299.26,189.89"/>
	<path class="st2" d="M289.01,154.4"/>
	<path class="st2" d="M289.01,154.4"/>
	<path class="st2" d="M288.83,150.24"/>
	<path class="st3" d="M247.72,102.61"/>
	<path class="st2" d="M133.01,212.13c2.4-1.53,4.65-0.71,5.26-0.46c0.01,0.26,0.19,4.91-2.5,7.47c-1.97,1.88-4.67,1.85-6.81-0.09
		C129.08,218.42,129.91,214.11,133.01,212.13z"/>
	<path class="st3" d="M306.43,213.4c-12.8,19.4-46.76,8.88-75.84-23.51c-23.51-26.2-43.04-74.88-29.5-93.8
		c9.5-13.28,33.57-9.55,57.81,6.55l10.27,8.95c2.12,1.95,4.81,4.61,7.76,8.03C300,146.31,318.28,195.44,306.43,213.4z"/>
	
		<ellipse transform="matrix(0.4542 -0.8909 0.8909 0.4542 0.3583 332.0589)" class="st3" cx="271.19" cy="165.74" rx="19.77" ry="10.66"/>
	
		<ellipse transform="matrix(0.4555 -0.8902 0.8902 0.4555 7.1232 311.8336)" class="st3" cx="258.48" cy="150.09" rx="20.55" ry="11.03"/>
	
		<ellipse transform="matrix(0.5262 -0.8504 0.8504 0.5262 -11.2902 311.5912)" class="st4" cx="273.96" cy="165.93" rx="14.41" ry="6.23"/>
	
		<ellipse transform="matrix(0.5423 -0.8402 0.8402 0.5423 -7.5111 287.6443)" class="st4" cx="260.25" cy="150.72" rx="15.92" ry="7.56"/>
	<path class="st2" d="M252.3,170.46c-0.13,0-2.25,0.03-2.73,1.83c-0.53,1.99,1.36,4.56,2.78,5.69c0.13,0.1,2.91,2.26,4.11,0.68
		c0.61-0.8,0.6-2.3,0.08-3.81"/>
	<path class="st2" d="M217.53,123.99c-0.15-0.68-0.69-1.18-1.21-1.13c-0.65,0.07-1.03,0.82-0.84,1.67c0.23,1.06,1.08,1.85,1.89,1.76
		c1.02-0.11,1.61-1.28,1.32-2.61c-0.36-1.66-1.68-2.89-2.95-2.75c-1.59,0.18-2.51,2-2.06,4.08c0.56,2.59,2.63,4.52,4.61,4.3
		c2.48-0.27,3.92-3.13,3.22-6.37c-0.88-4.05-4.1-7.06-7.21-6.72c-3.79,0.42-4.73,7.59-5.03,9.95c-1.17,9.14,2.18,18.39,5.26,25.1
		c13.54,29.48,41.94,53.66,62.36,59.37c11.51,3.22,17.57-0.25,19.2-2.39c0.2-0.27,0.97-1.28,1.09-2.97c0.21-2.86-1.49-6.93-4-7.96
		c-1.24-0.51-2.8-0.33-3.7,0.88c-0.16,0.22-0.62,0.84-0.7,1.9c-0.15,1.91,0.98,4.45,2.56,5.1c0.79,0.32,1.79,0.21,2.37-0.56
		c0.1-0.14,0.39-0.54,0.45-1.21c0.09-1.22-0.63-2.85-1.64-3.26c-0.51-0.21-1.15-0.14-1.52,0.36c-0.07,0.09-0.25,0.34-0.29,0.78
		c-0.06,0.78,0.4,1.82,1.05,2.09c0.32,0.13,0.73,0.09,0.97-0.23c0.04-0.06,0.17-0.23,0.18-0.5c0.03-0.45-0.24-0.97-0.67-1.34"/>
	<path class="st2" d="M262.98,131.36c-3.66,1.18-7.98-1.87-9.64-6.81c-1.33-3.95-0.03-7.91,2.9-8.85c2.34-0.75,5.11,1.2,6.17,4.36
		c0.85,2.53,0.02,5.06-1.86,5.67c-1.5,0.48-3.27-0.77-3.95-2.79c-0.54-1.62-0.01-3.24,1.19-3.63c0.96-0.31,2.09,0.49,2.53,1.78
		c0.35,1.04,0.01,2.07-0.76,2.32c-0.61,0.2-1.34-0.31-1.62-1.14c-0.22-0.66,0-1.33,0.49-1.49"/>
	<path class="st2" d="M284.21,156.98c0.34,4.42,3.29,8.32,6.6,8.72c2.65,0.32,4.57-2.29,4.3-5.82c-0.22-2.83-2.11-5.32-4.23-5.58
		c-1.69-0.2-2.93,1.46-2.75,3.72c0.14,1.81,1.35,3.41,2.7,3.57c1.08,0.13,1.87-0.94,1.76-2.38c-0.09-1.16-0.86-2.18-1.73-2.29
		c-0.69-0.08-1.2,0.6-1.13,1.53c0.06,0.74,0.55,1.4,1.11,1.46c0.44,0.05,0.77-0.38,0.72-0.98"/>
	<path class="st2" d="M310.12,196.42c2.87,4.11,6.12,9.95,5.92,15.83c-0.28,8.05-6.84,10.84-15.72,17.43
		c-10.99,8.15-29.2,21.86-28.16,39.76c0.43,7.48,4.41,13.51,5.71,15.48c5.39,8.16,16.23,16.58,23.3,11.73
		c5.18-3.55,8.07-14.03,3.81-22.03c-3.19-6.01-10.43-10.66-14.91-7.51c-3.32,2.34-5.15,9-2.44,14.1c2.04,3.84,6.68,6.82,9.54,4.8
		c2.13-1.5,3.3-5.76,1.56-9.03c-1.31-2.46-4.27-4.37-6.11-3.08c-1.33,0.94-2.2,3.65-1,5.78c0.82,1.45,2.4,2.27,3.91,1.97"/>
	<g id="XMLID_2_">
		<g>
			<path class="st12" d="M328.06,169.2c-2.39,16.4-13.64,23.87-17.49,26.11l-0.76,0.48c-13.36-26.99-8.37-35.94-20.52-55.38
				c-4.29-6.86-14.7-23.5-23.32-30.65c3.99-3.66,11.93-9.4,22.43-7.29C310.08,106.81,331.95,142.45,328.06,169.2z"/>
		</g>
		<g>
			<path class="st2" d="M328.99,200.52c0.09,1.51-0.74,2.6-1.87,2.43c-1.39-0.21-2.62-1.91-2.72-3.8c-0.14-2.36,1.17-4.06,2.91-3.8
				c2.19,0.33,4.09,2.98,4.26,5.93c0.22,3.69-1.82,6.34-4.55,5.93c-3.41-0.51-6.39-4.66-6.66-9.27c-0.33-5.76,2.86-9.91,7.12-9.27
				c5.33,0.8,9.99,7.28,10.4,14.48c0.5,8.57-5.32,15.21-11.12,14.48c-2.92-0.37-7.05-2.9-15.1-18.22c-0.66-1.25-1.27-2.46-1.86-3.64
				c-13.36-26.99-8.37-35.94-20.52-55.38c-4.29-6.86-14.7-23.5-23.32-30.65c-0.94-0.78-6.18-5.03-9.3-12.25
				c-1.13-2.61-1.46-4.39-1.57-5.11c-1.04-6.69,2.16-11.29,2.63-11.95c3.56-4.95,11.14-7.4,16.45-1.87
				c3.97,4.13,6.53,12.6,3.76,17.21c-2.07,3.44-7.13,4.75-10.53,1.19c-2.54-2.67-4.18-8.07-2.4-11.01c1.32-2.2,4.56-3.05,6.74-0.77
				c1.63,1.71,2.67,5.16,1.54,7.04c-0.85,1.41-2.92,1.95-4.31,0.5c-1.02-1.08-1.77-3.31-0.98-4.51c0.53-0.82,1.65-0.96,2.75-0.32"/>
			<path class="st2" d="M265.97,109.76c3.99-3.66,11.93-9.4,22.43-7.29c21.68,4.34,43.55,39.98,39.66,66.73
				c-2.39,16.4-13.64,23.87-17.49,26.11"/>
		</g>
	</g>
	<g id="XMLID_1_">
		<g>
			<path class="st12" d="M244.04,240.09c-3.33,6.6-6.65,13.21-9.98,19.82c-8.26,1.95-16.51,3.91-24.77,5.87
				c0.87,2.89,3.04,10.45,4.41,20.38c-32.42-0.17-65.61-1.25-98.1-1.5c-1.94-2-3.9-3.99-5.82-5.99
				c5.81-8.76,15.91-21.41,31.68-30.96c15.61-9.46,30.47-12.05,40.18-12.74c-0.75-11.91-1.5-23.82-2.25-35.73
				c5.14-5.39,10.28-10.78,15.42-16.17l26.72,20.53c-1.83-1.3-4.41-2.73-5.8-1.56c-2.41,2.02-0.94,11.66,3.78,16.32
				c3.98,3.92,10.29,4.35,11.5,0.89c0.6-1.71-0.16-4.06-0.91-5.76L244.04,240.09z"/>
		</g>
		<g>
			<path class="st13" d="M230.59,189.87c-3.03,4.58-6.04,9.15-9.07,13.73"/>
			<path class="st13" d="M230.09,213.49c3.17-4.8,6.33-9.6,9.5-14.41"/>
			<path class="st13" d="M194.8,183.07c-5.14,5.39-10.28,10.78-15.42,16.17c0.75,11.91,1.5,23.82,2.25,35.73
				c-9.71,0.69-24.57,3.28-40.18,12.74c-15.77,9.55-25.87,22.2-31.68,30.96c1.92,1.99,3.88,3.99,5.82,5.99
				c32.49,0.25,65.68,1.33,98.1,1.5c-1.36-9.93-3.54-17.49-4.41-20.38c8.26-1.95,16.51-3.91,24.77-5.87
				c3.33-6.61,6.65-13.21,9.98-19.82l-13.94-26.6c0.75,1.69,1.51,4.05,0.91,5.76c-1.21,3.46-7.52,3.04-11.5-0.89
				c-4.73-4.66-6.19-14.29-3.78-16.32c1.39-1.16,3.97,0.27,5.8,1.56L194.8,183.07z"/>
			<path class="st13" d="M244.04,240.09c5.19,18.3,10.39,36.6,15.59,54.9"/>
			<path class="st13" d="M138.53,211.66c6.81-4.33,14.08-8.62,21.82-12.75c12.16-6.5,23.72-11.67,34.45-15.83"/>
		</g>
	</g>
	<path class="st2" d="M259.36,303.63c-1.03-4.12,0.14-7.6,0.49-8.54c0.25,0.03,4.69,0.58,6.65,5.35c1.44,3.51,0.94,7.84-1.29,10.92
		C264.64,311.07,260.7,308.97,259.36,303.63z"/>
	<g>
		<path class="st8" d="M276.78,165.49c1.04-1.26,1.05-3.22,0.01-4.37c-0.83-0.92-2.18-0.84-3.02,0.17
			c-0.67,0.81-0.67,2.06-0.01,2.79c0.53,0.59,1.39,0.54,1.93-0.11c0.43-0.52,0.43-1.32,0.01-1.79c-0.34-0.38-0.89-0.34-1.23,0.07
			c-0.27,0.33-0.28,0.84,0,1.14c0.22,0.24,0.57,0.22,0.79-0.04c0.17-0.2,0.16-0.59,0-0.73c-0.06-0.06-0.19-0.11-0.3-0.03
			s-0.12,0.23-0.12,0.25"/>
		<path class="st8" d="M276.78,165.49c-0.27,0.34-0.54,0.69-0.81,1.03"/>
		<path class="st8" d="M276.81,165.53c1.04-1.26,2.75-1.34,3.8-0.18c0.84,0.93,0.85,2.51,0.02,3.52c-0.67,0.81-1.76,0.86-2.43,0.11
			c-0.54-0.6-0.54-1.61-0.01-2.25c0.43-0.52,1.13-0.55,1.56-0.07c0.35,0.38,0.35,1.03,0.01,1.44c-0.27,0.33-0.72,0.35-1,0.05
			c-0.22-0.24-0.22-0.66,0-0.92c0.17-0.2,0.51-0.21,0.64-0.03c0.05,0.07,0.11,0.22,0.04,0.35c-0.06,0.13-0.2,0.15-0.21,0.15"/>
		<path class="st8" d="M276.81,165.53c-0.28,0.33-0.57,0.66-0.85,0.99"/>
		<line class="st8" x1="272.85" y1="163.52" x2="278.93" y2="170.26"/>
	</g>
	<path class="st8" d="M264.27,152.12c-0.24,0.29-0.48,0.58-0.72,0.87"/>
	<g>
		<path class="st8" d="M264.49,151.88c0.92-1.07,0.91-2.74-0.02-3.73c-0.74-0.79-1.95-0.74-2.68,0.12
			c-0.59,0.69-0.59,1.75,0.01,2.39c0.48,0.51,1.25,0.47,1.72-0.08c0.38-0.44,0.37-1.12-0.01-1.53c-0.3-0.32-0.8-0.3-1.1,0.05
			c-0.24,0.28-0.24,0.72,0,0.98c0.2,0.21,0.51,0.19,0.7-0.03c0.15-0.17,0.14-0.5,0-0.63c-0.05-0.05-0.17-0.1-0.27-0.03
			c-0.09,0.07-0.11,0.2-0.11,0.22"/>
		<path class="st8" d="M264.52,151.91c0.92-1.07,2.44-1.12,3.38-0.12c0.76,0.8,0.77,2.15,0.04,3.01c-0.59,0.69-1.56,0.72-2.17,0.07
			c-0.48-0.52-0.5-1.38-0.02-1.93c0.38-0.44,1-0.46,1.39-0.05c0.31,0.33,0.32,0.88,0.02,1.23c-0.24,0.28-0.64,0.29-0.89,0.03
			c-0.2-0.21-0.2-0.56-0.01-0.79c0.15-0.17,0.45-0.17,0.57-0.02c0.05,0.06,0.1,0.19,0.04,0.3c-0.05,0.11-0.17,0.13-0.19,0.13"/>
		<path class="st8" d="M264.52,151.91c-0.25,0.28-0.5,0.56-0.75,0.83"/>
		<line class="st8" x1="260.98" y1="150.16" x2="266.43" y2="155.97"/>
	</g>
	<path class="st8" d="M269.51,137.87"/>
	<path class="st9" d="M271.25,140.44c-0.12-0.68-0.59-2.79-2.34-3.83c-2-1.19-4.38-0.23-6.06,0.46c-3.59,1.46-5.73,4.2-7.42,6.37
		c-1.13,1.45-2.07,2.97-3.08,4.59c-1.08,1.73-1.76,2.83-2.24,3.84c-1.5,3.15-2.9,9.45,0.25,12.11c2.24,1.89,5.72,1.04,6.19,0.92
		c1.7-0.44,3.08-1.66,5.78-4.07c1.69-1.51,3.02-2.85,3.94-3.81"/>
	<path class="st4" d="M252.46,166.6"/>
	<path class="st3" d="M251.8,142.64"/>
	<path class="st9" d="M283.73,155.48c-0.23-0.58-0.76-1.65-1.87-2.28c-1.65-0.94-3.52-0.31-4.67,0.1c-3.42,1.22-5.39,3.83-7.37,6.54
		c-1.71,2.33-3.42,4.68-4.46,8.31c-0.59,2.08-2.36,8.23,0.31,10.17c2.4,1.75,7.08-0.85,7.42-1.04c1.42-0.81,2.42-1.83,3.17-2.6
		c1.39-1.42,2.31-2.81,2.91-3.84"/>
	<g>
		<path class="st14" d="M159.69,46.75c-0.9,1.01-1.86,1.53-2.53,1.8c0.78,0.69,1.85,1.81,2.75,3.49c1.68,3.13,1.77,6.27,1.74,7.62
			c-0.02-1.07,0-4.83,2.32-7.96c1.05-1.42,2.21-2.23,3.03-2.68c-0.71-0.35-1.67-0.95-2.57-1.99c-2.23-2.58-2.47-5.93-2.51-6.91
			C161.92,40.87,161.88,44.28,159.69,46.75z"/>
		<polygon class="st15" points="161.76,31.36 162.59,40.1 161.24,40.13 		"/>
		<polygon class="st15" points="161.8,69.11 162.31,59.58 160.96,59.61 		"/>
	</g>
	<g>
		<path class="st14" d="M109.06,232.9c-0.9,1.01-1.86,1.53-2.53,1.8c0.78,0.69,1.85,1.81,2.75,3.49c1.68,3.13,1.77,6.27,1.74,7.62
			c-0.02-1.07,0-4.83,2.32-7.96c1.05-1.42,2.21-2.23,3.03-2.68c-0.71-0.35-1.67-0.95-2.57-1.99c-2.23-2.58-2.47-5.93-2.51-6.91
			C111.3,227.02,111.26,230.42,109.06,232.9z"/>
		<polygon class="st15" points="111.14,217.5 111.97,226.24 110.61,226.28 		"/>
		<polygon class="st15" points="111.17,255.26 111.69,245.72 110.33,245.76 		"/>
	</g>
	<g>
		<path class="st14" d="M256.61,240.23c-0.9,1.01-1.86,1.53-2.53,1.8c0.78,0.69,1.85,1.81,2.75,3.49c1.68,3.13,1.77,6.27,1.74,7.62
			c-0.02-1.07,0-4.83,2.32-7.96c1.05-1.42,2.21-2.23,3.03-2.68c-0.71-0.35-1.67-0.95-2.57-1.99c-2.23-2.58-2.47-5.93-2.51-6.91
			C258.84,234.35,258.81,237.76,256.61,240.23z"/>
		<polygon class="st15" points="258.69,224.84 259.52,233.58 258.16,233.61 		"/>
		<polygon class="st15" points="258.72,262.6 259.23,253.06 257.88,253.1 		"/>
	</g>
	<g>
		<g>
			<path class="st15" d="M124.29,144.51c0.39,0.22,0.98,0.44,1.43,0.37c0.16-0.02,0.32-0.2,0.35-0.35c0.11-0.62-0.37-1.14-0.94-1.28
				c-0.63-0.15-0.89,0.81-0.27,0.96c0.15,0.19,0.23,0.21,0.24,0.05c0.12-0.12,0.23-0.23,0.35-0.35c0.19-0.03-0.28-0.13-0.27-0.13
				c-0.14-0.04-0.26-0.08-0.39-0.15C124.23,143.33,123.73,144.2,124.29,144.51L124.29,144.51z"/>
		</g>
	</g>
	<g>
		<g>
			<path class="st15" d="M113.8,143.25c2.13,0.76,4.29,1.45,6.47,2.04c0.62,0.17,0.89-0.79,0.27-0.96c-2.18-0.6-4.34-1.28-6.47-2.04
				C113.46,142.07,113.2,143.03,113.8,143.25L113.8,143.25z"/>
		</g>
	</g>
	<g>
		<g>
			<path class="st15" d="M120.3,145.27c1.07,0.4,2.15,0.75,3.24,1.06c0.62,0.18,0.88-0.79,0.27-0.96c-1.09-0.31-2.17-0.67-3.24-1.06
				C119.96,144.08,119.7,145.05,120.3,145.27L120.3,145.27z"/>
		</g>
	</g>
	<g>
		<g>
			<path class="st15" d="M123.04,146.07c-1.23,3.74-2.04,7.52-2.7,11.39c-0.11,0.63,0.86,0.9,0.96,0.27
				c0.67-3.87,1.47-7.66,2.7-11.39C124.2,145.73,123.24,145.46,123.04,146.07L123.04,146.07z"/>
		</g>
	</g>
	<g>
		<g>
			<path class="st15" d="M120.2,157.45c-0.73,2.37-0.47,4.84-1.02,7.26c-0.14,0.63,0.82,0.89,0.96,0.27c0.55-2.4,0.3-4.91,1.02-7.26
				C121.36,157.1,120.39,156.84,120.2,157.45L120.2,157.45z"/>
		</g>
	</g>
	<g>
		<g>
			<path class="st15" d="M119.79,164.72c0.79,0.86,2,0.68,2.43-0.44c0.32-0.84,0.14-1.96,0.2-2.84c0.1-1.45,0.36-2.88,0.72-4.29
				c0.16-0.62-0.8-0.89-0.96-0.27c-0.29,1.13-0.52,2.28-0.65,3.44c-0.06,0.56-0.11,1.12-0.14,1.68c0,0,0,2.99-0.9,2.02
				C120.06,163.54,119.35,164.25,119.79,164.72L119.79,164.72z"/>
		</g>
	</g>
	<g>
		<g>
			<path class="st15" d="M122.36,157.5c2.79,2.81,4.21,6.42,4.1,10.38c-0.02,0.64,0.98,0.64,1,0c0.12-4.2-1.43-8.1-4.39-11.08
				C122.61,156.33,121.9,157.04,122.36,157.5L122.36,157.5z"/>
		</g>
	</g>
	<g>
		<g>
			<path class="st15" d="M126.45,168.06c-0.43,4-2.8,6.91-6.9,7.48c-3.09,0.43-8.09,0.83-10.91-0.66c-0.57-0.3-1.08,0.56-0.5,0.86
				c1.82,0.96,4.14,0.96,6.16,1.01c2.47,0.05,5.18,0.13,7.54-0.69c3.49-1.21,5.24-4.49,5.62-8
				C127.52,167.42,126.52,167.43,126.45,168.06L126.45,168.06z"/>
		</g>
	</g>
	<g>
		<g>
			<path class="st15" d="M108.94,159.99c-4.72,2.93-8.08,13.23-1.19,15.75c0.61,0.22,0.87-0.74,0.27-0.96
				c-2.79-1.02-3.51-4.56-2.95-7.04c0.54-2.41,2.22-5.54,4.38-6.88C109.99,160.51,109.49,159.65,108.94,159.99L108.94,159.99z"/>
		</g>
	</g>
	<g>
		<g>
			<path class="st15" d="M113.36,143.13c-1.02,6.48-2.75,13.06-2.84,19.64c-0.01,0.64,0.99,0.64,1,0c0.09-6.47,1.8-12.99,2.8-19.37
				C114.42,142.77,113.46,142.5,113.36,143.13L113.36,143.13z"/>
		</g>
	</g>
	<g>
		<g>
			<path class="st15" d="M109,161.33c0.64,0,0.64-1,0-1C108.35,160.33,108.35,161.33,109,161.33L109,161.33z"/>
		</g>
	</g>
	<g>
		<g>
			<path class="st15" d="M108.52,160.83c-0.05,0.84-0.23,2.76,0.84,3.09c0.46,0.14,1.06,0.09,1.46-0.19
				c0.5-0.35,0.45-0.92,0.65-1.44c-0.32,0-0.64,0-0.96,0c-0.03-0.13-0.1,0.17-0.17,0.24c-0.13,0.15-0.29,0.23-0.48,0.14
				c-0.31-0.14-0.37-0.69-0.43-0.98c-0.13-0.63-1.09-0.36-0.96,0.27c0.17,0.84,0.62,1.82,1.64,1.75c0.78-0.06,1.52-0.89,1.37-1.68
				c-0.1-0.53-0.81-0.41-0.96,0c-0.09,0.24-0.08,0.65-0.25,0.84c-0.09,0.1-0.22,0.14-0.36,0.12c-0.23-0.03-0.19,0.05-0.28-0.22
				c-0.2-0.62-0.15-1.29-0.11-1.93C109.55,160.18,108.55,160.19,108.52,160.83L108.52,160.83z"/>
		</g>
	</g>
	<g>
		<g>
			<path class="st15" d="M114.4,147.66c1.95,0.92,3.85,1.61,5.95,2.07c-0.5-1.22-1-2.45-1.49-3.67c-1.12,2.24-1.59,4.39-2.25,6.84
				c-0.81,3-0.55,6.3-1.64,9.2c1.61,0,3.21,0,4.82,0c-1.05-3.5-1.56-7.03-1.27-10.68c0.16-2.06,1.14-4.33-0.62-5.93
				c-0.6-0.55-1.61-0.99-2.43-0.64c-2.75,1.16-3.09,4.62-3.64,7.24c-0.87,4.2-0.76,8.78-1.07,13.06c-0.23,3.21,4.77,3.2,5,0
				c0.21-2.98,0.43-5.95,0.64-8.93c0.11-1.47,0.27-2.72,0.73-4.14c0.09-0.27,1.49-3.18-0.33-2.41c-0.81-0.21-1.62-0.43-2.43-0.64
				c-0.89-0.81-0.92,5.56-0.87,6.45c0.17,2.72,0.69,5.35,1.47,7.95c0.75,2.49,3.98,2.25,4.82,0c1.76-4.7,1.34-10.77,3.38-14.85
				c0.68-1.36,0.18-3.31-1.49-3.67c-1.72-0.37-3.14-0.8-4.76-1.56C114.03,141.98,111.49,146.29,114.4,147.66L114.4,147.66z"/>
		</g>
	</g>
	<g>
		<g>
			<path class="st15" d="M106.74,162.08c-1.46,3.28-3.44,5.54-2.43,9.39c0.84,3.18,3.45,4.41,6.46,4.99
				c1.15,0.22,2.52-1.04,1.69-2.2c-0.84-1.18-1.82-2.88-1.59-4.4c0.37-2.48,2.65-2.18,4.65-2.21c1.93-0.03,1.93-3.03,0-3
				c-2.69,0.04-6.17-0.07-7.3,2.92c-1.03,2.69,0.07,5.98,1.66,8.2c0.56-0.73,1.13-1.47,1.69-2.2c-2.32-0.45-4.26-1.13-4.51-3.8
				c-0.24-2.5,1.32-4.05,2.27-6.17C110.11,161.85,107.53,160.32,106.74,162.08L106.74,162.08z"/>
		</g>
	</g>
	<g>
		<g>
			<path class="st15" d="M121.77,159.31c0.29,3.15,2.01,6.34,1.56,9.51c0.98,0.13,1.96,0.27,2.95,0.4c0.03-2.26,0.06-4.52,0.09-6.78
				c-0.98,0.13-1.96,0.27-2.95,0.4c1.1,2.75,1.09,6.72-1.82,8.43c-1.66,0.98-0.16,3.57,1.51,2.59c4.08-2.39,4.84-7.73,3.19-11.81
				c-0.6-1.49-2.92-1.41-2.95,0.4c-0.03,2.26-0.06,4.52-0.09,6.78c-0.02,1.64,2.7,2.11,2.95,0.4c0.52-3.66-1.12-6.73-1.45-10.31
				C124.59,157.4,121.59,157.38,121.77,159.31L121.77,159.31z"/>
		</g>
	</g>
	<g>
		<g>
			<path class="st15" d="M122.79,164.54c-2.01,0.02-4.02,0.01-6.03-0.02c-3.29-0.05-4.19,5.28-0.8,5.89
				c0.76,0.14,1.49,0.24,2.26,0.28c2.44,0.14,3.51-2.61,2.59-4.51c-0.17-0.4-0.38-0.78-0.63-1.14c-1.07-1.7-3.25-1.92-4.71-0.61
				c-1.4,1.26-3.3,1.77-4.66,3.13c-1.38,1.38-2.55,3.65-1.51,5.55c2.22,4.04,8.53,1.67,12.03,1.46c3.56-0.22,3.85-4.61,0.8-5.89
				c-3.39-1.42-6.31,1-9.55,1.78c-2.85,0.68-2.87,5.11,0,5.79c2.35,0.55,4.54,0.21,6.89-0.14c0.99-0.15,1.99-0.22,2.91-0.65
				c0.95-0.45,1.45-1.18,2.18-1.9c2.76-2.71-1.49-6.95-4.24-4.24c-0.24,0.2-0.44,0.43-0.62,0.68c-0.25,0.39-0.3,0.41-0.16,0.08
				c-0.47,0.2-1.17,0.17-1.66,0.25c-1.23,0.18-2.48,0.43-3.7,0.14c0,1.93,0,3.86,0,5.79c1.3-0.31,2.54-0.72,3.77-1.24
				c1.01-0.43,1.55-0.97,2.59-0.54c0.27-1.96,0.53-3.93,0.8-5.89c-1.38,0.08-2.75,0.23-4.12,0.42c-0.44,0.06-2.95,0.77-3.2,0.49
				c0.29,0.71,0.59,1.41,0.88,2.12c-0.09,0.92,0,0.33,0.54-0.1c0.4-0.32,0.91-0.54,1.36-0.78c1.06-0.59,2.01-1.23,2.92-2.04
				c-1.57-0.2-3.14-0.4-4.71-0.61c0.25,0.36,0.46,0.74,0.63,1.14c0.86-1.5,1.73-3.01,2.59-4.51c-0.22-0.02-0.44-0.04-0.67-0.07
				c-0.27,1.96-0.53,3.93-0.8,5.89c2.01,0.03,4.02,0.04,6.03,0.02C126.64,170.51,126.65,164.51,122.79,164.54L122.79,164.54z"/>
		</g>
	</g>
	<g>
		<g>
			<path class="st15" d="M108.4,163.84c-0.89,0.96-1.84,2.17-2.19,3.46c-0.38,1.42,0.02,2.75,0.35,4.12
				c0.37,1.53,2.18,2.58,3.69,2.1c1.59-0.51,2.49-2.05,2.1-3.69c-0.07-0.3-0.14-0.6-0.21-0.89c-0.05-0.2-0.1-0.4-0.14-0.6
				c0.07,0.28,0.04,0.54-0.08,0.77c-0.08,0.16-0.04,0.09,0.11-0.2c0.07-0.13,0.15-0.26,0.24-0.38c0.12-0.17,0.11-0.17-0.02,0
				c0.13-0.16,0.26-0.3,0.4-0.45c1.07-1.15,1.22-3.12,0-4.24C111.48,162.78,109.54,162.62,108.4,163.84L108.4,163.84z"/>
		</g>
	</g>
	<g>
		<g>
			<path class="st15" d="M123.52,165.77c2.57,0,2.58-4,0-4C120.95,161.77,120.94,165.77,123.52,165.77L123.52,165.77z"/>
		</g>
	</g>
	<g>
		<g>
			<path class="st15" d="M108.61,160.85c-0.04,0.34-0.12,0.66-0.22,0.99c-0.18,0.62,0.78,0.88,0.96,0.27
				c0.12-0.41,0.2-0.82,0.26-1.25C109.7,160.21,108.69,160.22,108.61,160.85L108.61,160.85z"/>
		</g>
	</g>
	<g>
		<g>
			<path class="st15" d="M228.91,202.29c-1.44,1.58-2.89,3.16-4.33,4.74c-0.43,0.47,0.27,1.18,0.71,0.71
				c1.44-1.58,2.89-3.16,4.33-4.74C230.05,202.53,229.34,201.82,228.91,202.29L228.91,202.29z"/>
		</g>
	</g>
	<g>
		<g>
			<path class="st15" d="M238.18,198.97c-2.65,4.7-6.2,9.02-9.22,13.51c-0.36,0.54,0.51,1.04,0.86,0.5
				c3.03-4.5,6.56-8.79,9.22-13.51C239.36,198.91,238.5,198.41,238.18,198.97L238.18,198.97z"/>
		</g>
	</g>
	<g>
		<g>
			<path class="st15" d="M228.76,213.08c0.17,0.56,1.75,5.95,0.51,5.85c-0.64-0.06-0.64,0.95,0,1c2.91,0.25,0.81-5.9,0.45-7.11
				C229.54,212.2,228.58,212.46,228.76,213.08L228.76,213.08z"/>
		</g>
	</g>
	<g>
		<g>
			<path class="st15" d="M229.43,219.04c-2.57,2.99-8.11-0.15-10.05-2.55c-1.72-2.13-2.41-4.98-3.18-7.55
				c-0.18-0.61-1.15-0.35-0.96,0.27c1.1,3.66,2.12,7.53,5.45,9.78c2.64,1.79,6.93,3.7,9.46,0.76
				C230.56,219.26,229.85,218.55,229.43,219.04L229.43,219.04z"/>
		</g>
	</g>
	<g>
		<g>
			<path class="st15" d="M216.31,208.72c-0.12-0.96-0.27-1.91-0.37-2.87c-0.04-0.36-0.08-0.72-0.06-1.08
				c0.06-1.09,0.29-1.6,1.33-1.73c1.01-0.12,1.63,0.48,2.5,0.94c0.66,0.35,1.34,0.65,2.05,0.88c0.61,0.2,0.88-0.77,0.27-0.96
				c-1.32-0.43-2.38-1.21-3.61-1.8c-0.77-0.37-1.55-0.44-2.29,0.06c-2.07,1.39-1.09,4.58-0.83,6.57
				C215.39,209.35,216.39,209.35,216.31,208.72L216.31,208.72z"/>
		</g>
	</g>
	<g>
		<g>
			<path class="st15" d="M222.31,204.57c1.57-2.32,3.16-4.63,4.77-6.93c0.37-0.53-0.5-1.03-0.86-0.5c-1.61,2.3-3.2,4.61-4.77,6.93
				C221.09,204.6,221.95,205.1,222.31,204.57L222.31,204.57z"/>
		</g>
	</g>
	<g>
		<g>
			<path class="st15" d="M227.18,197.76c0.78-1.09,1.51-2.22,2.18-3.39c0.54-0.95,1.05-2.05,1.79-2.85
				c0.44-0.47-0.27-1.18-0.71-0.71c-0.66,0.71-1.16,1.61-1.62,2.46c-0.75,1.38-1.59,2.7-2.5,3.97
				C225.94,197.78,226.81,198.28,227.18,197.76L227.18,197.76z"/>
		</g>
	</g>
	<g>
		<g>
			<path class="st15" d="M230.2,191.71c2.84,2.39,5.02,5.52,7.96,7.77c0.51,0.39,1.01-0.48,0.5-0.86c-2.87-2.18-4.99-5.27-7.76-7.61
				C230.42,190.59,229.71,191.3,230.2,191.71L230.2,191.71z"/>
		</g>
	</g>
	<g>
		<g>
			<path class="st15" d="M231.61,199.53c-3.16,3.47-6.32,6.93-9.49,10.38c-2.61,2.84,1.62,7.09,4.24,4.24
				c3.17-3.45,6.34-6.91,9.49-10.38C238.44,200.92,234.21,196.66,231.61,199.53L231.61,199.53z"/>
		</g>
	</g>
	<g>
		<g>
			<path class="st15" d="M227.04,197.73c-0.66,1.85-3.01,3.17-4.34,4.51c-1.68,1.69-3.15,3.58-4.45,5.56
				c-2.13,3.23,3.06,6.24,5.18,3.03c1.45-2.2,3.16-4.11,5.13-5.86c1.88-1.66,3.41-3.25,4.27-5.65
				C234.13,195.68,228.34,194.11,227.04,197.73L227.04,197.73z"/>
		</g>
	</g>
	<g>
		<g>
			<path class="st15" d="M228.67,202.18c3.86,0,3.87-6,0-6C224.81,196.18,224.8,202.18,228.67,202.18L228.67,202.18z"/>
		</g>
	</g>
	<g>
		<g>
			<path class="st15" d="M226.93,205.57c-1.87,1.57-3.27,3.71-3.85,6.1c-0.57,2.38,0.56,4.04,0.56,6.34
				c1.27-0.96,2.53-1.93,3.8-2.89c-4.35-1.37-5.52-6.43-6.27-10.27c-0.74-3.79-6.52-2.18-5.79,1.6c0.66,3.38,1.25,6.08,3.36,8.85
				c1.92,2.54,4,4.63,7.1,5.61c1.87,0.59,3.8-1,3.8-2.89c0-1-0.01-2.05-0.26-3.02c-0.06-0.22-0.6-1.59-0.58-1.32
				c-0.1-1.51,1.35-2.99,2.38-3.86C234.14,207.32,229.87,203.1,226.93,205.57L226.93,205.57z"/>
		</g>
	</g>
	<g>
		<g>
			<path class="st15" d="M217.85,215.22c1.01,1.3,1.99,2.68,3.48,3.46c1.14,0.6,2.15-1.13,1.01-1.73c-1.32-0.69-2.18-2-3.08-3.15
				c-0.33-0.43-1.06-0.34-1.41,0C217.42,214.23,217.52,214.8,217.85,215.22L217.85,215.22z"/>
		</g>
	</g>
	<g>
		<g>
			<path class="st15" d="M228.67,217.45c0,0.19-0.06,0.18,0.02,0.12c-0.43,0.32-0.65,0.86-0.36,1.37c0.25,0.43,0.93,0.68,1.37,0.36
				c0.61-0.46,0.99-1.06,0.97-1.85C230.64,216.17,228.64,216.16,228.67,217.45L228.67,217.45z"/>
		</g>
	</g>
	<g>
		<g>
			<path class="st15" d="M229.48,213.94c-0.11-1.46,0.99-2.58,1.78-3.71c0.77-1.1,1.73-1.96,2.57-2.99c0.8-0.99-0.6-2.41-1.41-1.41
				c-1.06,1.31-2.21,2.43-3.18,3.82c-0.96,1.38-1.9,2.52-1.76,4.29C227.58,215.22,229.58,215.23,229.48,213.94L229.48,213.94z"/>
		</g>
	</g>
	<g>
		<g>
			<path class="st15" d="M216.81,204.48c1.29,0,1.29-2,0-2C215.53,202.48,215.53,204.48,216.81,204.48L216.81,204.48z"/>
		</g>
	</g>
	<g>
		<g>
			<path class="st15" d="M229.53,196.41c0.56-0.84,1.17-2.09,1.97-2.73c-0.4,0.05-0.81,0.1-1.21,0.16c1.2,0.57,2.38,2.11,3.34,3.04
				c1.08,1.06,2.13,2.14,3.16,3.25c-0.05-0.4-0.1-0.81-0.16-1.21c-0.26,0.52-0.55,0.93-0.97,1.34c0.52,0.07,1.05,0.13,1.57,0.2
				c-0.43-0.76-0.64-1.63-1.1-2.37c-0.48-0.78-1.26-1.16-1.89-1.78c-1.16-1.14-1.79-2.37-3.58-2.38c-0.9-0.01-1.28,1.08-0.71,1.71
				c0.92,1.01,2.58,2.35,3.11,3.62c0.05-0.4,0.1-0.81,0.16-1.21c-0.03,0.03-0.07,0.06-0.1,0.09c0.4-0.05,0.81-0.1,1.21-0.16
				c-0.03-0.02-0.07-0.04-0.1-0.05c-1.13-0.63-2.14,1.1-1.01,1.73c0.03,0.02,0.07,0.04,0.1,0.05c0.42,0.23,0.86,0.14,1.21-0.16
				c0.03-0.03,0.07-0.06,0.1-0.09c0.37-0.31,0.32-0.82,0.16-1.21c-0.62-1.47-2.35-2.85-3.43-4.03c-0.24,0.57-0.47,1.14-0.71,1.71
				c0.99,0.01,2.18,1.77,2.87,2.38c1.1,0.97,1.29,1.96,1.98,3.17c0.32,0.56,1.12,0.65,1.57,0.2c0.54-0.53,0.94-1.07,1.28-1.75
				c0.21-0.41,0.16-0.87-0.16-1.21c-1.18-1.26-2.38-2.5-3.62-3.7c-0.96-0.93-2.06-2.33-3.28-2.91c-0.45-0.21-0.83-0.14-1.21,0.16
				c-0.93,0.74-1.64,2.16-2.29,3.13C227.08,196.48,228.81,197.48,229.53,196.41L229.53,196.41z"/>
		</g>
	</g>
</g>
</svg>
