<?xml version="1.0" encoding="utf-8"?>
<!-- Generator: Adobe Illustrator 23.0.3, SVG Export Plug-In . SVG Version: 6.00 Build 0)  -->
<svg version="1.1" id="Layer_1" xmlns="http://www.w3.org/2000/svg" xmlns:xlink="http://www.w3.org/1999/xlink" x="0px" y="0px"
	 viewBox="0 0 247.38 247.38" style="enable-background:new 0 0 247.38 247.38;" xml:space="preserve">
<style type="text/css">
	.st0{fill:#FFFFFF;stroke:#000000;stroke-miterlimit:10;}
	.st1{fill:none;stroke:#FF4BBD;stroke-width:5;stroke-linecap:round;stroke-miterlimit:10;}
	.st2{fill:none;}
	.st3{fill:#231F20;}
	.st4{font-family:'Geneva';}
	.st5{font-size:17px;}
	.st6{fill:none;stroke:#231F20;stroke-miterlimit:10;}
	.st7{fill:none;stroke:#00ADEE;stroke-width:4;stroke-linecap:round;stroke-miterlimit:10;}
	.st8{fill:#FF4BBD;}
	.st9{font-size:47px;}
	.st10{fill:none;stroke:#FF4BBD;stroke-miterlimit:10;}
	.st11{font-size:13px;}
	.st12{fill:none;stroke:#231F20;stroke-width:0.5;stroke-miterlimit:10;}
	.st13{fill:none;stroke:#231F20;stroke-width:2;stroke-miterlimit:10;}
	.st14{fill:#FFFF00;stroke:#000000;stroke-width:0.25;stroke-miterlimit:10;}
	.st15{fill:#FFFF00;}
	.st16{opacity:0.7;fill:none;stroke:#FF4BBD;stroke-width:31;stroke-miterlimit:10;enable-background:new    ;}
	.st17{fill:#FFFFFF;}
	.st18{fill:none;stroke:#FFFFFF;stroke-miterlimit:10;}
	.st19{opacity:0.7;}
</style>
<rect x="1" y="1" class="st0" width="245.38" height="245.38"/>
<line class="st1" x1="20.71" y1="50.68" x2="18.7" y2="158.89"/>
<rect x="66.96" y="178.63" class="st2" width="180.29" height="21.34"/>
<text transform="matrix(1.1493 0 0 1 66.9552 192.029)" class="st3 st4 st5">EPHESIANS</text>
<text transform="matrix(1.1493 0 0 1 66.9552 192.029)" class="st6 st4 st5">EPHESIANS</text>
<path class="st7" d="M117.24,150.32c0-13.47-11.05-24.39-24.68-24.39c-10.9,0-19.74,8.74-19.74,19.51c0,8.62,7.07,15.61,15.79,15.61
	c6.98,0,12.64-5.59,12.64-12.49c0-5.52-4.53-9.99-10.11-9.99c-4.47,0-8.09,3.58-8.09,7.99c0,3.53,2.9,6.39,6.47,6.39
	c2.86,0,5.18-2.29,5.18-5.12c0-2.17-2.26-4.27-4.14-4.09c-0.73,0.07-1.94,0.54-2.24,1.66c-0.29,1.09,0.49,2.06,0.58,2.18"/>
<path class="st7" d="M117.24,150.32c0.09,3.58,0.17,7.16,0.26,10.73"/>
<path class="st7" d="M117.64,150.32c0-13.47,11.24-24.39,25.11-24.39c11.1,0,20.09,8.74,20.09,19.51c0,8.62-7.2,15.61-16.07,15.61
	c-7.1,0-12.86-5.59-12.86-12.49c0-5.52,4.61-9.99,10.29-9.99c4.54,0,8.23,3.58,8.23,7.99c0,3.53-2.95,6.39-6.58,6.39
	c-2.91,0-5.27-2.29-5.27-5.12c0-2.17,2.3-4.27,4.21-4.09c0.75,0.07,1.97,0.54,2.27,1.66c0.29,1.09-0.49,2.06-0.59,2.18"/>
<path class="st7" d="M117.64,150.32c-0.09,3.58-0.17,7.16-0.26,10.73"/>
<path class="st1" d="M36.98,104.09c17.21,0.79,31.79-14.43,32.57-34c0.61-15.65-10.04-28.86-23.81-29.49
	c-11.01-0.51-20.35,9.23-20.84,21.76c-0.4,10.02,6.42,18.47,15.24,18.88c7.05,0.32,13.02-5.91,13.34-13.92
	c0.25-6.41-4.11-11.82-9.75-12.08c-4.51-0.21-8.33,3.78-8.54,8.91c-0.16,4.1,2.63,7.57,6.24,7.73c2.77,0.13,5.59-2.99,5.46-5.7
	c-0.05-1.06-0.58-2.82-2-3.31c-1.38-0.48-2.66,0.58-2.82,0.71"/>
<path class="st1" d="M36.98,104.09c-4.58-0.09-9.15-0.17-13.73-0.26"/>
<path class="st1" d="M36.95,104.65c17.21,0.79,30.52,17.58,29.73,37.49c-0.63,15.93-12.31,28.33-26.07,27.7
	c-11.01-0.51-19.53-11.25-19.03-23.99c0.4-10.2,7.88-18.13,16.69-17.72c7.05,0.32,12.5,7.2,12.18,15.36
	c-0.26,6.52-5.04,11.6-10.68,11.34c-4.51-0.21-8-4.61-7.79-9.83c0.17-4.18,3.23-7.43,6.83-7.26c2.77,0.13,5.33,3.55,4.99,6.29
	c-0.13,1.07-0.8,2.8-2.25,3.17c-1.41,0.35-2.61-0.83-2.75-0.98"/>
<path class="st1" d="M36.95,104.65c-4.57-0.34-9.13-0.67-13.7-1.01"/>
<line class="st7" x1="79.04" y1="163.53" x2="159.08" y2="163.64"/>
<rect x="55.77" y="51.04" class="st2" width="95.8" height="57.46"/>
<text transform="matrix(1.1493 0 0 1 55.7677 88.0715)" class="st8 st4 st9"> UY </text>
<text transform="matrix(1.1493 0 0 1 55.7677 88.0715)" class="st10 st4 st9"> UY </text>
<rect x="129.96" y="67.08" class="st2" width="40.06" height="14.3"/>
<text transform="matrix(1.1493 0 0 1 129.964 77.3283)" class="st3 st4 st11"> THE </text>
<text transform="matrix(1.1493 0 0 1 129.964 77.3283)" class="st12 st4 st11"> THE </text>
<rect x="1" y="1" class="st13" width="245.38" height="245.38"/>
<g>
	<path class="st14" d="M199.03,117.53c-6.81,0-13.84-1.48-21-4.42c-1.28-0.53-1.89-1.99-1.36-3.26c0.53-1.28,1.99-1.89,3.26-1.36
		c10.16,4.18,19.97,5.12,29.13,2.8c2.15-0.54,4.37-1.11,7.03-2.66c13.68-8,17.39-23.11,15.6-30.81c-1.2-5.16-4.26-9.45-8.38-11.75
		c-3.54-1.98-7.61-2.36-11.47-1.07c-6.86,2.29-10.94,10.6-9.09,18.52c0.71,3.06,2.51,5.59,4.93,6.94c2.04,1.14,4.39,1.36,6.61,0.62
		c3.96-1.32,6.31-6.17,5.23-10.8c-0.4-1.71-1.39-3.12-2.72-3.86c-0.77-0.43-2-0.83-3.51-0.33c-2.07,0.69-3.33,3.37-2.76,5.85
		c0.18,0.79,0.81,1.55,1.61,1.94c0.48,0.24,0.85,0.24,0.97,0.19c0.13-0.06,0.61-0.4,0.61-0.78c0-0.37-0.41-0.73-0.41-0.73
		c-1.05-0.88-1.22-2.45-0.35-3.52c0.87-1.06,2.41-1.24,3.48-0.38c0.53,0.43,2.27,2.02,2.28,4.61c0.01,2.58-1.76,4.55-3.53,5.35
		c-1.56,0.71-3.48,0.62-5.25-0.25c-2.15-1.06-3.75-3.03-4.27-5.29c-1.18-5.05,1.48-10.2,6.04-11.73c2.53-0.85,5.21-0.6,7.53,0.7
		c2.55,1.43,4.43,4.01,5.15,7.09c1.65,7.07-2.17,14.55-8.51,16.67c-3.58,1.2-7.35,0.84-10.64-0.99c-3.64-2.04-6.33-5.74-7.36-10.17
		c-2.42-10.36,3.14-21.31,12.38-24.4c5.21-1.74,10.71-1.23,15.49,1.44c5.35,2.99,9.29,8.45,10.81,14.98
		c3.6,15.47-8.58,30.78-17.94,36.26c-3.27,1.91-5.95,2.59-8.32,3.19C206.62,117.06,202.86,117.53,199.03,117.53z"/>
	<path class="st14" d="M210.57,174.75c-0.35,0-0.7-0.01-1.05-0.04c-4.49-0.35-8.96-2.98-12.28-7.22
		c-3.74-4.78-5.44-10.84-4.55-16.19c1.1-6.56,5.84-12.01,11.54-13.25c6.19-1.35,14.05,2.25,15.88,9.76
		c1.33,5.47-1.33,10.04-1.64,10.54c-1.84,3-4.91,5.1-8.21,5.61c-2.68,0.41-5.21-0.28-7.14-1.94c-2.62-2.27-4.6-6.79-3.33-11.03
		c0.98-3.25,3.62-5.65,6.57-5.98c2.96-0.32,6.37,1.1,7.15,4.44c0.64,2.73-0.66,5.78-3.17,7.43c-1.16,0.76-2.7,0.44-3.46-0.71
		s-0.44-2.7,0.71-3.46c0.8-0.53,1.19-1.52,1.05-2.11c-0.13-0.54-1.31-0.65-1.75-0.61c-0.94,0.1-1.94,1.15-2.33,2.44
		c-0.69,2.29,0.68,4.82,1.82,5.81c1.02,0.88,2.24,0.91,3.1,0.78c1.84-0.28,3.64-1.54,4.71-3.28c0.02-0.03,1.9-3.22,1.05-6.74
		c-1.13-4.61-6.15-6.9-9.96-6.07c-3.63,0.79-6.93,4.75-7.67,9.19c-0.67,3.99,0.66,8.58,3.56,12.28c2.46,3.14,5.64,5.08,8.73,5.32
		c7.1,0.55,12.48-8.2,14.02-14.58c2.64-10.96-4.02-20.5-6.21-23.63c-5.73-8.2-13.28-10.74-19.35-12.79
		c-6.19-2.08-12.63-2.81-19.14-2.17c-1.38,0.15-2.6-0.87-2.74-2.24s0.87-2.6,2.24-2.73c7.22-0.72,14.36,0.09,21.23,2.4
		c6.41,2.16,15.18,5.11,21.85,14.66c6.73,9.63,9.07,18.94,6.97,27.67c-1.1,4.56-3.42,9.1-6.36,12.44
		C218.95,172.69,214.87,174.75,210.57,174.75z"/>
	<path class="st14" d="M175.54,174.31c-0.02,0-0.04,0-0.06,0c-1.38-0.03-2.47-1.18-2.44-2.56l2.62-111.52
		c0.03-1.38,1.18-2.5,2.56-2.44c1.38,0.03,2.47,1.18,2.44,2.56l-2.62,111.52C178.01,173.23,176.9,174.31,175.54,174.31z"/>
	<g>
		<g>
			<path class="st15" d="M179.32,113.55c0.43-0.1-0.47,0.02-0.16,0.02c0.26,0.01-0.61-0.18-0.16-0.01
				c-0.11-0.04-0.45-0.27-0.19-0.08c0.42,0.31-0.42-0.4-0.05-0.03c0.91,0.94,2.63,0.98,3.54,0c0.93-1.01,0.97-2.53,0-3.54
				c-1.12-1.16-2.75-1.56-4.3-1.19c-1.27,0.3-2.15,1.82-1.75,3.08C176.68,113.13,177.96,113.87,179.32,113.55L179.32,113.55z"/>
		</g>
	</g>
	<g>
		<g>
			<path class="st15" d="M179.07,109.35c0.05,0.01,0.11,0.03,0.16,0.04c0.58,0.28,1.08-0.58,0.5-0.86c-0.14-0.07-0.24-0.11-0.4-0.14
				C178.71,108.28,178.44,109.25,179.07,109.35L179.07,109.35z"/>
		</g>
	</g>
	<g>
		<g>
			<path class="st15" d="M182.38,112.18c3.18-0.56,6.38,0.15,9.39,1.17c0.61,0.21,0.87-0.76,0.27-0.96
				c-3.19-1.08-6.56-1.77-9.92-1.17C181.48,111.32,181.75,112.29,182.38,112.18L182.38,112.18z"/>
		</g>
	</g>
	<g>
		<g>
			<path class="st15" d="M179.03,113.53c0.08,0.94-0.65,1.69-0.36,2.66c0.18,0.62,1.15,0.35,0.96-0.27
				c-0.12-0.41,0.05-0.79,0.19-1.18c0.14-0.4,0.24-0.79,0.21-1.22C179.98,112.89,178.98,112.89,179.03,113.53L179.03,113.53z"/>
		</g>
	</g>
	<g>
		<g>
			<path class="st15" d="M204.14,115.05c-0.88,0.09-1.72-0.04-2.51-0.4c-0.09,0.32-0.18,0.64-0.27,0.96
				c0.69,0.14,1.38,0.27,2.07,0.41c0.43,0.08,0.92-0.5,0.49-0.84c-3.26-2.52-8.24-2.8-12.19-3c-0.64-0.03-0.64,0.97,0,1
				c3.59,0.18,8.48,0.38,11.49,2.71c0.16-0.28,0.32-0.56,0.49-0.84c-0.69-0.13-1.38-0.27-2.07-0.41c-0.63-0.12-0.88,0.76-0.27,0.96
				c0.98,0.33,1.76,0.45,2.78,0.43C204.78,116.04,204.79,115.04,204.14,115.05L204.14,115.05z"/>
		</g>
	</g>
	<g>
		<g>
			<path class="st15" d="M204.25,116.02c0.88,0.24,1.73,0.53,2.57,0.87c0.6,0.24,0.86-0.72,0.27-0.96c-0.84-0.34-1.7-0.63-2.57-0.87
				C203.89,114.89,203.62,115.86,204.25,116.02L204.25,116.02z"/>
		</g>
	</g>
</g>
<line class="st16" x1="12.69" y1="234.69" x2="234.64" y2="12.74"/>
<rect x="66.02" y="94.28" transform="matrix(0.7028 -0.7114 0.7114 0.7028 -39.1038 142.9821)" class="st2" width="171.09" height="48.03"/>
<text transform="matrix(0.8078 -0.8176 0.7114 0.7028 83.9096 171.636)" class="st17 st4 st5">COMING SOON!</text>
<text transform="matrix(0.8078 -0.8176 0.7114 0.7028 83.9096 171.636)" class="st18 st4 st5">COMING SOON!</text>
<g class="st19">
	<polygon class="st8" points="1.27,246.15 24.16,246.12 1.3,223.26 	"/>
</g>
<g class="st19">
	<polygon class="st8" points="246.29,1.62 246.38,24.38 223.53,1.52 	"/>
</g>
</svg>
