<svg id="Layer_2" data-name="Layer 2" xmlns="http://www.w3.org/2000/svg" viewBox="0 0 264.36 262.45"><defs><style>.cls-1{fill:#00aeef;stroke:#00aeef;stroke-width:8px;}.cls-1,.cls-3,.cls-4{stroke-miterlimit:10;}.cls-2,.cls-3,.cls-4{fill:#fff;}.cls-3,.cls-4{stroke:#fff;}.cls-3{stroke-width:7.64px;}.cls-4{stroke-width:7.63px;}</style></defs><circle class="cls-1" cx="133.36" cy="131.29" r="126.29"/><path class="cls-2" d="M121.48,148.21a9.76,9.76,0,0,0,5.62-5.33,8.34,8.34,0,0,0-.36-7.51,6.93,6.93,0,0,0-6.62-3.08,6.6,6.6,0,0,0-3.56,1.39,5.78,5.78,0,0,0-2,3.17,5,5,0,0,0,.45,3.66,4.23,4.23,0,0,0,3,2,4.47,4.47,0,0,0,3.57-1,3.59,3.59,0,0,0,1.12-3.44,2.81,2.81,0,0,0-4.55-1.37,2.33,2.33,0,0,0-.78,1.71,1.8,1.8,0,0,0,.86,1.63,2,2,0,0,0,1.92,0,1.59,1.59,0,0,0,.8-1.74,1.29,1.29,0,0,0-1.68-.89,1.36,1.36,0,0,1,1.82.85,1.81,1.81,0,0,1-.79,2,2.29,2.29,0,0,1-3.52-1.9,3,3,0,0,1,.88-2.23,3.52,3.52,0,0,1,2.2-1,3.7,3.7,0,0,1,2.37.59,3.59,3.59,0,0,1,1.47,2,4.62,4.62,0,0,1-1.28,4.6,5.76,5.76,0,0,1-4.58,1.48,5.68,5.68,0,0,1-4.17-2.55,6.59,6.59,0,0,1-.79-4.84,7.46,7.46,0,0,1,2.52-4.17,8.49,8.49,0,0,1,4.48-1.89,9.25,9.25,0,0,1,4.81.68,9.13,9.13,0,0,1,2.1,1.31,8.66,8.66,0,0,1,1.64,1.88,10.31,10.31,0,0,1,.56,9.41,11.76,11.76,0,0,1-6.85,6.38l-.94.33-.67-1.86Z"/><path class="cls-2" d="M124.94,197a11.2,11.2,0,0,1,7.64,6.22,11.83,11.83,0,0,1-.06,9.86,9.55,9.55,0,0,1-8.25,5.37,8.89,8.89,0,0,1-2.56-.31,7,7,0,0,1-2.38-1.14,7.6,7.6,0,0,1-2.84-4.29,7.69,7.69,0,0,1,.53-5.08,6.39,6.39,0,0,1,3.9-3.28,5.86,5.86,0,0,1,2.6-.15,4.79,4.79,0,0,1,2.39,1.11,4.89,4.89,0,0,1,1.54,4.76,4.07,4.07,0,0,1-3.63,3.26,3.29,3.29,0,0,1-2.43-.78,3.09,3.09,0,0,1-1-2.31,2.76,2.76,0,0,1,1.08-2.22,2.3,2.3,0,0,1,2.38-.24,1.88,1.88,0,0,1,.93,2.09A1.49,1.49,0,0,1,123,211a1.41,1.41,0,0,0,1.63-1.18,1.65,1.65,0,0,0-.92-1.79,1.94,1.94,0,0,0-2,.34,2.21,2.21,0,0,0-.74,1.84,2.46,2.46,0,0,0,.87,1.76,2.53,2.53,0,0,0,1.87.49,3.09,3.09,0,0,0,2.64-2.62,3.81,3.81,0,0,0-1.3-3.57,4,4,0,0,0-3.74-.55,4.89,4.89,0,0,0-2.87,2.59,6.11,6.11,0,0,0-.26,3.94,5.76,5.76,0,0,0,2.22,3.21,6,6,0,0,0,3.77,1,7.64,7.64,0,0,0,6.41-4.34,9.14,9.14,0,0,0,.85-4,9.72,9.72,0,0,0-.87-4,9.07,9.07,0,0,0-6.12-5.1l-1-.24.47-2Z"/><path class="cls-2" d="M213.32,100.39a104.53,104.53,0,0,1-.07,11.62c-.22,3.82-.7,7.62-1.29,11.41a91.07,91.07,0,0,1-6.64,22.26,62.13,62.13,0,0,1-13.64,19.46A48,48,0,0,1,170.61,177l-.83.21h-.6l-87.35-1-.09-6.95L169,166l-1.43.21a36.44,36.44,0,0,0,15.48-9.76c.54-.56,1.07-1.14,1.57-1.74s1-1.21,1.48-1.83c1-1.24,1.78-2.61,2.69-3.89s1.56-2.78,2.34-4.16,1.37-2.9,2-4.4a76.84,76.84,0,0,0,4.66-19c.35-3.3.6-6.62.63-10a88,88,0,0,0-.41-9.82Z"/><path class="cls-3" d="M124.65,196.31a103.48,103.48,0,0,0-19.35-14.95,108.22,108.22,0,0,0-26.85-11.49,131.06,131.06,0,0,0,25.72-9.38A124.76,124.76,0,0,0,123,149.14a82.3,82.3,0,0,0-2.58,23.5A84.35,84.35,0,0,0,124.65,196.31Z"/><path class="cls-2" d="M131.31,51.22a11.47,11.47,0,0,1-6.4-7.21,11.15,11.15,0,0,1,1.57-9.54,9.19,9.19,0,0,1,9-3.56,8.83,8.83,0,0,1,2.4.76,7.22,7.22,0,0,1,2.09,1.5A7.52,7.52,0,0,1,142,37.73a7.25,7.25,0,0,1-1.31,4.84A6.06,6.06,0,0,1,136.34,45a6,6,0,0,1-2.51-.36,5,5,0,0,1-2.11-1.46,4.77,4.77,0,0,1-.78-4.84A3.84,3.84,0,0,1,135,35.86a3.41,3.41,0,0,1,2.2,1.18,3,3,0,0,1,.64,2.38,2.59,2.59,0,0,1-1.42,2,2.34,2.34,0,0,1-2.34-.22,1.84,1.84,0,0,1-.59-2.16,1.42,1.42,0,0,1,1.93-.77,1.35,1.35,0,0,0-1.79.82,1.61,1.61,0,0,0,.63,1.86,1.94,1.94,0,0,0,2,.06,2.06,2.06,0,0,0,1-1.63,2.39,2.39,0,0,0-.6-1.83,2.59,2.59,0,0,0-1.73-.81,2.93,2.93,0,0,0-3,2,3.67,3.67,0,0,0,.75,3.64,4.2,4.2,0,0,0,3.54,1.24,4.6,4.6,0,0,0,3.23-1.93,5.59,5.59,0,0,0,.85-3.73,5.76,5.76,0,0,0-1.68-3.45,6.26,6.26,0,0,0-3.5-1.65,7.28,7.28,0,0,0-7,2.9,8.25,8.25,0,0,0-1.46,3.69,9.21,9.21,0,0,0,.26,4,9.36,9.36,0,0,0,5.17,5.93l.93.41-.81,1.87Z"/><path class="cls-2" d="M134.34,100.6a9.74,9.74,0,0,0-3.56,6.88,8.36,8.36,0,0,0,2.81,7,6.91,6.91,0,0,0,7.27.74,6.66,6.66,0,0,0,2.9-2.49,5.81,5.81,0,0,0,.86-3.65,5.08,5.08,0,0,0-1.63-3.31,4.25,4.25,0,0,0-3.52-.88,4.45,4.45,0,0,0-3,2.12,3.56,3.56,0,0,0,.08,3.61,2.68,2.68,0,0,0,3.3,1,2.75,2.75,0,0,0,1.45-1.23,2.39,2.39,0,0,0,.17-1.87,1.79,1.79,0,0,0-1.35-1.25,2,2,0,0,0-1.82.6,1.58,1.58,0,0,0-.19,1.9,1.29,1.29,0,0,0,1.88.29,1.36,1.36,0,0,1-2-.2,1.82,1.82,0,0,1,.08-2.18,2.35,2.35,0,0,1,2.13-.85,2.33,2.33,0,0,1,1.82,1.48,3,3,0,0,1-.09,2.4,3.55,3.55,0,0,1-1.76,1.66,3.75,3.75,0,0,1-2.43.22,3.51,3.51,0,0,1-2-1.42,4.61,4.61,0,0,1-.31-4.75,5.75,5.75,0,0,1,3.85-2.91,5.67,5.67,0,0,1,4.77,1,6.59,6.59,0,0,1,2.34,4.3,7.53,7.53,0,0,1-1,4.78,8.57,8.57,0,0,1-3.61,3.25,8.92,8.92,0,0,1-7.18.4,8.65,8.65,0,0,1-2.17-1.24,10.32,10.32,0,0,1-3.62-8.7,11.76,11.76,0,0,1,4.38-8.28l.77-.62,1.25,1.54Z"/><path class="cls-2" d="M44.67,149.24a104.36,104.36,0,0,1,.07-11.61c.22-3.82.7-7.62,1.29-11.41A90.49,90.49,0,0,1,52.67,104,61.89,61.89,0,0,1,66.3,84.53,47.88,47.88,0,0,1,87.36,72.7l.82-.21h.6l87.3,1,.09,6.94L88.93,83.69l1.42-.21a36.19,36.19,0,0,0-15.46,9.76c-.54.56-1.07,1.13-1.57,1.73s-1,1.21-1.49,1.83c-1,1.24-1.78,2.61-2.68,3.89s-1.56,2.78-2.34,4.16-1.37,2.89-2,4.39a76.87,76.87,0,0,0-4.66,19c-.35,3.3-.6,6.62-.63,9.94A90.6,90.6,0,0,0,60,148Z"/><path class="cls-4" d="M133.3,52.38a103.35,103.35,0,0,0,19.33,14.94A108.27,108.27,0,0,0,179.46,78.8a130.6,130.6,0,0,0-25.7,9.37A124.61,124.61,0,0,0,135,99.52,82.27,82.27,0,0,0,137.55,76,85,85,0,0,0,133.3,52.38Z"/></svg>