<?xml version="1.0" encoding="utf-8"?>
<!-- Generator: Adobe Illustrator 23.1.1, SVG Export Plug-In . SVG Version: 6.00 Build 0)  -->
<svg version="1.1" id="Layer_1" xmlns="http://www.w3.org/2000/svg" xmlns:xlink="http://www.w3.org/1999/xlink" x="0px" y="0px"
	 viewBox="0 0 544 77" style="enable-background:new 0 0 544 77;" xml:space="preserve">
<style type="text/css">
	.st0{fill:#FFC324;}
	.st1{fill:#FFC52A;}
	.st2{fill:#FFFFFF;}
</style>
<path class="st0" d="M25.5,43.6c-0.9-0.1-1.1-0.2-1.2-0.1c-1.2,0.7-2.4,3.1-3.9,0.7c-1.1-1.8-0.1-3.5,1.6-4.6c2-1.3,4.8-0.5,6.1,1.7
	c1.7,2.9,1.3,8.5-0.8,10.8c-2.4,2.7-6,3.3-10,1.6C7.5,49.4,5,40,11.5,31.4c2.7-3.6,6.1-6.1,10.2-7.9c12.8-5.5,25.5-4.8,38,1.1
	c10.7,5,21.1,10.5,31.6,15.8c12.8,6.3,26.2,10.7,40.1,13.4c16.9,3.3,32-1.1,45-12.4c6.5-5.6,6.5-10.8,0.3-16.6
	c-2.2-2.1-4.8-3.9-7.5-5.4c-4.8-2.8-9.1-2.5-12.9,1.4c-2.3,2.4-4,5.6-5.3,8.7c-1,2.4,0.5,4.6,2.6,6c1.8,1.3,3.7,1.6,5.3-0.9
	c-1.4-1.1-4.4-1.6-2.5-4.5c1.3-1.9,2.9-2.7,5.1-1.8c2.2,0.9,2.8,2.6,2.3,4.9c-0.9,3.8-4.7,7.1-8.1,6.8c-4.3-0.4-8.3-4.9-8.3-9.4
	c0.1-11.5,13.7-19.6,23.5-13.8c3.4,2,6.6,4.5,9.4,7.3c5.6,5.6,5.6,12.2,0,17.8c-11.7,11.6-25.9,17.4-42.4,16
	c-16.5-1.4-31.9-6.8-46.7-13.8C80,38.6,68.9,32.4,57.4,27.1c-11-5.1-22.5-5.5-33.8-0.9c-5.7,2.4-10.4,6-11.8,12.6
	c-1.4,6.2,2.7,11.8,9,12.4c2.8,0.3,4.5-1,4.9-3.8C25.9,46.2,25.6,44.9,25.5,43.6z"/>
<path class="st1" d="M518.3,52.6c0.5,0.8,1,1.2,1,1.7c0.2,1.6,0.9,2.4,2.5,2.1c0.8-0.2,2-0.9,2-1.4c0.1-1.1-0.2-2.6-0.9-3.4
	c-1.8-2-6.5-2.1-9.7-0.5c-3,1.5-3.3,2.4-2.7,6.8c0.3,2.2,0.6,4.3,0.9,6.5c0.4,3,2.1,4.8,5,4.8c4.2,0.1,8.4,0.1,12.4-0.7
	c2-0.4,4-2.3,5.3-4.1c1.2-1.7,1.7-4,1.9-6.1c0.5-5.9,1-11.9,1-17.9c0-1.9-1.1-4.2-2.4-5.8c-5.8-6.9-13.1-11.9-21.4-15.5
	c-7-3-14.4-2.6-21.5-1.5c-21.6,3.3-42.5,9.1-61.3,20.9c-8.8,5.5-18.2,9.7-28,13.2c-10,3.5-20.2,2.9-30,0.3
	c-6.7-1.7-11.9-6.8-16.1-12.4c-2.4-3.2-2.8-6.7-0.5-10.2c2.5-3.7,5.6-6.9,10.4-6.8c2.3,0.1,4.7,0.8,6.7,1.9c3.3,1.6,4.3,4.2,3.6,7.7
	c-0.7,3.4-3.3,6.2-6.3,6.8c-4,0.7-7-2.4-5.9-6.1c0.6-2,1.8-3.1,3.9-3c1.4,0,2.8,0,4,0c1-2.4-0.2-3.2-1.5-3.8c-2.4-1-4.7-1.7-7.3-0.5
	c-7.2,3.6-8.1,9.7-2.5,15.4c6.4,6.5,13.7,10.1,23.1,10.3c8.2,0.2,15.9-0.7,23.3-4.1c7.1-3.3,14.3-6.3,20.9-10.4
	c15.8-9.8,33-15.8,51.1-19.5c7.1-1.4,14.3-2.5,21.5-2.9c11.2-0.7,20.1,5,28.7,11.2c0.3,0.2,0.5,0.5,0.8,0.8
	c7.3,7.4,11.7,7.2,8.6,22.5c-0.6,2.8,0,5.8-0.1,8.7c-0.3,8.8-4.6,13.3-13.3,14c-2.9,0.2-5.8,0.2-8.7,0.1c-4.5-0.3-6.7-2.1-7.6-6.4
	c-0.7-3.2-1.2-6.4-1.4-9.7c-0.1-1.3,0.4-3,1.1-4.1c2.8-4.1,11.2-5.4,15.4-2.5c2.8,1.9,3.7,5.1,2.2,7.5c-1.4,2.2-5.3,3.1-7.8,1.8
	C516,57.1,515.9,55.6,518.3,52.6z M372.7,32.6c-1.8,0-3.3-0.1-4.8,0.1c-0.4,0.1-1,1.1-1,1.6c0,0.5,0.6,1.4,1.1,1.5
	C370.5,36.6,372.1,35.8,372.7,32.6z"/>
<path class="st2" d="M372.7,32.6c-0.6,3.1-2.2,4-4.7,3.2c-0.5-0.2-1.1-1-1.1-1.5c0-0.6,0.6-1.6,1-1.6
	C369.4,32.5,370.9,32.6,372.7,32.6z"/>
</svg>
