<svg id="Layer_1" data-name="Layer 1" xmlns="http://www.w3.org/2000/svg" viewBox="0 0 1008 626.4"><defs><style>.cls-1{fill:#e48dbb;}.cls-1,.cls-10,.cls-12,.cls-13,.cls-14,.cls-17,.cls-18,.cls-2,.cls-20,.cls-23,.cls-24,.cls-25,.cls-26,.cls-3,.cls-4,.cls-5,.cls-6,.cls-9{stroke:#231f20;}.cls-1,.cls-10,.cls-12,.cls-13,.cls-14,.cls-15,.cls-16,.cls-17,.cls-18,.cls-2,.cls-20,.cls-21,.cls-22,.cls-23,.cls-24,.cls-25,.cls-26,.cls-3,.cls-4,.cls-5,.cls-6,.cls-9{stroke-miterlimit:10;}.cls-1,.cls-2,.cls-4{stroke-width:8.05px;}.cls-2{fill:#d860a4;}.cls-3,.cls-4{fill:#96567e;}.cls-3{stroke-width:8.07px;}.cls-10,.cls-5,.cls-9{fill:#ef8e23;}.cls-5{stroke-width:1.69px;}.cls-14,.cls-23,.cls-6,.cls-7{fill:#f8d2af;}.cls-6{stroke-width:5.38px;}.cls-12,.cls-13,.cls-17,.cls-18,.cls-8{fill:#231f20;}.cls-14,.cls-24,.cls-9{stroke-width:1.79px;}.cls-10{stroke-width:1.38px;}.cls-11{fill:#fff;}.cls-12{stroke-width:3.8px;}.cls-13{stroke-width:2.85px;}.cls-15,.cls-16,.cls-19,.cls-20,.cls-21,.cls-22{fill:#e6e7e7;}.cls-15{stroke:#fff;stroke-width:1.45px;}.cls-16{stroke:#f2f2f2;stroke-width:5.2px;}.cls-17{stroke-width:1.54px;}.cls-18{stroke-width:1.15px;}.cls-20{stroke-width:1.37px;}.cls-21,.cls-22{stroke:#e6e7e7;}.cls-21{stroke-width:1.61px;}.cls-22{stroke-width:1.7px;}.cls-23{stroke-width:1.35px;}.cls-24{fill:#b61e7a;}.cls-25{fill:#50c8f4;stroke-width:3.62px;}.cls-26{font-size:17.94px;fill:#010101;stroke-width:0.9px;font-family:Harrington;}</style></defs><title>IntroBackground</title><rect class="cls-1" x="286.82" y="115.46" width="442.04" height="350.68"/><path class="cls-2" d="M1008,561.32,728.86,466.14V115.46L846.56,0H1008Z"/><path class="cls-2" d="M0,626.45l286.82-158V117.81L151.21,0H0Z"/><path class="cls-3" d="M1006.62,626.45H-4.19L274.64,467.63h444.7l288.66,95Z"/><path class="cls-4" d="M846.56,0H151.21L286.82,117.81l442-2.35Z"/><path class="cls-5" d="M894.33,181.75a46.33,46.33,0,0,1,16.25,17.6,42.68,42.68,0,0,1,4.55,26.45c7.22-3.41,16.25-.31,20.81,6.46,5.25,7.79,3.53,18.93-4.68,23.28,6.69.54,12.9,5.36,15.47,11.93,2.78,7.11.77,14.85-5,18.69a15.56,15.56,0,0,1,13,9.91c2,5.18,1,10.82-2.53,14.29,5.25-1.63,11.24,1.34,13.76,6.36,2.84,5.68.63,12.76-5.32,14.75l31,62.8-27.55,9-12.66-77.61c-.47,0-7.8-.4-11.75-6.3a14.19,14.19,0,0,1,2.94-18.74c-9.42,1.43-18.48-5.9-19.95-14.12a13.8,13.8,0,0,1,8.94-15.38,17.43,17.43,0,0,1-16-8.55c-4.09-7-2.51-16.43,4.36-20.89a39.61,39.61,0,0,1-24-18.29,37,37,0,0,1-4.64-23l-8.86-8c-3.25,2.68-24.49,19.83-37.24,11.68-17.18-11-13.86-64.77,3.57-68.43C860.38,133.21,880,152.32,894.33,181.75Z"/><ellipse class="cls-6" cx="868.32" cy="114.62" rx="74.38" ry="93.12" transform="translate(182.88 659.86) rotate(-46.02)"/><path class="cls-7" d="M892.38,157.08c.72.1,10.6,1.18,17.23-6.62,6.22-7.31,4.25-16.17,4-17.08"/><path class="cls-8" d="M892.38,157.08a39.87,39.87,0,0,0,8.49-3.11,24.72,24.72,0,0,0,3.47-2.21,17.33,17.33,0,0,0,1.52-1.3c.24-.24.51-.43.73-.68l.67-.75a19.18,19.18,0,0,0,2.39-3.2,20.37,20.37,0,0,0,1.83-3.68,38,38,0,0,0,2.16-8.77,15.23,15.23,0,0,1,2,9.75,16.21,16.21,0,0,1-1.42,5.06,20.43,20.43,0,0,1-1.27,2.34,24.1,24.1,0,0,1-1.64,2.1,18.25,18.25,0,0,1-4.11,3.38,17.87,17.87,0,0,1-4.88,1.93A15.56,15.56,0,0,1,892.38,157.08Z"/><path class="cls-7" d="M877.27,122.76c4.77,3.76,8.84,4.85,11.76,5.12,2.57.24,4.46-.15,5.55,1.08,1.69,1.93,0,6.23-1.8,9.66"/><path class="cls-8" d="M877.27,122.76a41.22,41.22,0,0,0,6.49,3.08,21,21,0,0,0,6.83,1.23c.6,0,1.21,0,1.87.11a4.5,4.5,0,0,1,2.11.66,3.43,3.43,0,0,1,1.31,2,5.11,5.11,0,0,1,0,2.09,16.72,16.72,0,0,1-3.15,6.73,29.45,29.45,0,0,0,1.76-6.87,2.64,2.64,0,0,0-.9-2.48,7.27,7.27,0,0,0-3.11-.41,19.24,19.24,0,0,1-3.75-.47,17.72,17.72,0,0,1-3.56-1.26A20.19,20.19,0,0,1,877.27,122.76Z"/><path class="cls-9" d="M802.43,46a139,139,0,0,1,10.84,44.54A140.6,140.6,0,0,1,802,156.27c-4.11-4-21.94-22.42-23.14-51.73C777.44,71,799,49.37,802.43,46Z"/><path class="cls-10" d="M804.12,44.38a80.55,80.55,0,0,0,36.79,10.46c25.87.89,44.36-11.27,50.42-15.65-3.48-2.65-26.76-19.74-56-12.81A64.81,64.81,0,0,0,804.12,44.38Z"/><path class="cls-11" d="M853.59,107.4c12,11.57,26.42,15.83,32.28,9.51s.91-20.8-11.06-32.36S848.38,68.72,842.52,75,841.62,95.84,853.59,107.4Z"/><path class="cls-8" d="M854.43,106.53a49.13,49.13,0,0,0,14.72,10.17,24.54,24.54,0,0,0,8.53,2.08c2.86.13,5.78-.64,7.56-2.7s2.25-5,1.94-7.88a26.52,26.52,0,0,0-2.54-8.41A50.51,50.51,0,0,0,874,85.43a49.6,49.6,0,0,0-14.82-9.92,24.35,24.35,0,0,0-8.43-2c-2.81-.11-5.58.68-7.25,2.61s-2.18,4.78-1.91,7.58A26.64,26.64,0,0,0,844,92.07,50.29,50.29,0,0,0,854.43,106.53Zm-1.68,1.74a52.62,52.62,0,0,1-11.23-15.06A28.86,28.86,0,0,1,838.74,84a16.14,16.14,0,0,1,.25-5,10.42,10.42,0,0,1,2.34-4.71,9.8,9.8,0,0,1,4.44-2.86,14,14,0,0,1,5-.65A26.74,26.74,0,0,1,860.18,73a51.46,51.46,0,0,1,15.48,10.65,52.71,52.71,0,0,1,11,15.18,28.7,28.7,0,0,1,2.65,9.16,16,16,0,0,1-.27,4.91,10.16,10.16,0,0,1-2.28,4.52,9.74,9.74,0,0,1-4.26,2.77,14,14,0,0,1-4.9.66,26.81,26.81,0,0,1-9.28-2.18A51.51,51.51,0,0,1,852.75,108.27Z"/><path class="cls-11" d="M837.32,125.77c12,11.61,26.4,16,32.11,9.88S870,115.09,858,103.48s-26.4-16-32.12-9.88S825.3,114.15,837.32,125.77Z"/><path class="cls-8" d="M838.13,124.93a51,51,0,0,0,14.61,10.29,25.45,25.45,0,0,0,8.5,2.28c2.87.18,5.85-.52,7.66-2.59a7.91,7.91,0,0,0,1.74-3.68,14.26,14.26,0,0,0,.09-4.28,27.78,27.78,0,0,0-2.7-8.4,51.76,51.76,0,0,0-10.81-14.25,50.81,50.81,0,0,0-14.76-10,25,25,0,0,0-8.39-2.12c-2.8-.16-5.6.55-7.23,2.47a7.52,7.52,0,0,0-1.64,3.43,13.42,13.42,0,0,0-.11,4.11,27.67,27.67,0,0,0,2.55,8.3A51.85,51.85,0,0,0,838.13,124.93Zm-1.62,1.67a54.21,54.21,0,0,1-11.3-14.9,29.59,29.59,0,0,1-2.93-9.13,16.33,16.33,0,0,1,.14-5,10.14,10.14,0,0,1,2.29-4.74A9.68,9.68,0,0,1,829.19,90a14.41,14.41,0,0,1,5-.52,27.72,27.72,0,0,1,9.29,2.43,53.35,53.35,0,0,1,15.31,10.74,54.57,54.57,0,0,1,11,15,29.27,29.27,0,0,1,2.78,9,15.6,15.6,0,0,1-.16,4.86,9.87,9.87,0,0,1-2.18,4.49,9.27,9.27,0,0,1-4.24,2.68,14,14,0,0,1-4.84.53A27.35,27.35,0,0,1,852,137,53.25,53.25,0,0,1,836.51,126.6Z"/><path class="cls-8" d="M824.52,101.49a10.54,10.54,0,0,1,1,7.88,8.59,8.59,0,0,1-5.39,5.92,6.92,6.92,0,0,1-4.2-.05,7.9,7.9,0,0,1-3.42-2.3,7.62,7.62,0,0,1-1.8-3.69,6.64,6.64,0,0,1,.57-4.09,5.49,5.49,0,0,1,3.12-2.8,4.67,4.67,0,0,1,4.12.72,5.14,5.14,0,0,1,2.11,3.52,4,4,0,0,1-1.62,3.75,2.91,2.91,0,0,1-2.1.52,3.3,3.3,0,0,1-2.75-2.88,2.69,2.69,0,0,1,.62-2,2,2,0,0,1,2-.66,2.11,2.11,0,0,1,1.46,1.41,1.67,1.67,0,0,1-.6,1.87,1.23,1.23,0,0,1-1.78-.5L816,108a.93.93,0,0,0,1.37.34,1.28,1.28,0,0,0,.36-1.45,1.6,1.6,0,0,0-1.15-1,1.33,1.33,0,0,0-1.32.54,2,2,0,0,0-.37,1.47,2.33,2.33,0,0,0,.72,1.37,2.06,2.06,0,0,0,2.75.23,3,3,0,0,0,1-2.78,3.83,3.83,0,0,0-1.68-2.58,3.33,3.33,0,0,0-2.92-.43,4.07,4.07,0,0,0-2.16,2.12,4.91,4.91,0,0,0-.36,3.12,5.82,5.82,0,0,0,1.47,2.83,5.53,5.53,0,0,0,5.76,1.72,6.19,6.19,0,0,0,2.59-1.79,7.21,7.21,0,0,0,1.51-2.87,8.65,8.65,0,0,0-.77-6.45Z"/><path class="cls-8" d="M853.35,71.31a8.28,8.28,0,0,0,6.37-.23,6.51,6.51,0,0,0,3.79-4.78,5.69,5.69,0,0,0-2.59-5.39,5.75,5.75,0,0,0-3-1,4.74,4.74,0,0,0-3,.84,3.88,3.88,0,0,0-1.66,2.47,3.39,3.39,0,0,0,.88,2.8A3.85,3.85,0,0,0,857,67.26a2.86,2.86,0,0,0,2.51-1.48,2.12,2.12,0,0,0-.68-2.67,2.33,2.33,0,0,0-1.44-.5,1.85,1.85,0,0,0-1.35.6,1.31,1.31,0,0,0-.3,1.38,1.59,1.59,0,0,0,1.14,1,1.21,1.21,0,0,0,1.34-.58,1,1,0,0,0-.55-1.3l.08-.22a1.25,1.25,0,0,1,.78,1.66,1.63,1.63,0,0,1-1.73.9,2.16,2.16,0,0,1-1.59-1.22,2,2,0,0,1,.3-2,2.59,2.59,0,0,1,1.85-.93,3.16,3.16,0,0,1,2,.58,3.25,3.25,0,0,1,1.24,1.68,2.91,2.91,0,0,1-.14,2.13A3.91,3.91,0,0,1,857,68.44a5.08,5.08,0,0,1-3.76-1.55A4.79,4.79,0,0,1,851.9,63a5.43,5.43,0,0,1,2.17-3.54A6.37,6.37,0,0,1,858,58.24a7.3,7.3,0,0,1,3.87,1.23,7.41,7.41,0,0,1,3.5,7.07,8.38,8.38,0,0,1-4.82,6.29,10.12,10.12,0,0,1-7.86.25Z"/><path class="cls-12" d="M850.12,97.64c7.77,7.5,16.77,10.66,20.11,7.06s-.24-12.6-8-20.1-16.76-10.66-20.11-7.06S842.36,90.14,850.12,97.64Z"/><path class="cls-11" d="M857.43,88a4.37,4.37,0,0,0-2.41-2.3,3.91,3.91,0,0,0-3.16.18,3.6,3.6,0,0,0-1.94,2.34,3.81,3.81,0,0,0,.36,3c1,1.73,4.3.12,4.41-1.72,0-.93-1-2-2-1.6a1.38,1.38,0,0,0-1,1,1.45,1.45,0,0,0,.81,1.35A1.52,1.52,0,0,1,851.42,89a1.73,1.73,0,0,1,1.13-1.47,1.83,1.83,0,0,1,1.91.27,2.56,2.56,0,0,1,1,1.72,2.61,2.61,0,0,1-.69,1.87,4.72,4.72,0,0,1-1.52,1.18,3.4,3.4,0,0,1-2,.35,2.53,2.53,0,0,1-1.75-1.11,4.69,4.69,0,0,1-.45-3.77,4.3,4.3,0,0,1,2.52-2.76,4.48,4.48,0,0,1,3.64.07A4.35,4.35,0,0,1,857.43,88Z"/><path class="cls-11" d="M857.69,87.94a4.13,4.13,0,0,1-2.85-2.16,4.82,4.82,0,0,1-.19-3.71,4.6,4.6,0,0,1,2.58-2.8,4.5,4.5,0,0,1,3.87.14,3,3,0,0,1,.79.75,2.81,2.81,0,0,1,.38,1,3.7,3.7,0,0,1-.27,2,5.07,5.07,0,0,1-1.07,1.63,2.71,2.71,0,0,1-1.81.91,2.43,2.43,0,0,1-1.84-.85,1.92,1.92,0,0,1-.35-1.94,1.86,1.86,0,0,1,1.37-1.29,1.44,1.44,0,0,1,1.46,1,1.36,1.36,0,0,0-1.41-.73,1.51,1.51,0,0,0-1,1.18,1.36,1.36,0,0,0,.36,1.39,1.74,1.74,0,0,0,1.35.53,3.16,3.16,0,0,0,2.08-2.14,2,2,0,0,0-.56-2.62,3.61,3.61,0,0,0-3-.11,3.93,3.93,0,0,0-2.23,2.22,4.28,4.28,0,0,0-.07,3.26A4.12,4.12,0,0,0,857.69,87.94Z"/><path class="cls-11" d="M862.93,82.65a56.1,56.1,0,0,1-5,6.07,56.21,56.21,0,0,1-5.69,5.43,66.18,66.18,0,0,1,10.68-11.5Z"/><path class="cls-13" d="M833.18,115.22c7.58,7.33,16.5,10.27,19.92,6.59s.06-12.62-7.52-19.94-16.51-10.27-19.93-6.59-.06,12.62,7.53,19.94"/><path class="cls-11" d="M841.79,103.86a58.45,58.45,0,0,1-5,6.08,57.24,57.24,0,0,1-5.69,5.42,65.16,65.16,0,0,1,10.68-11.5Z"/><path class="cls-11" d="M836.1,110a4.31,4.31,0,0,0-2.4-2.29,3.91,3.91,0,0,0-3.16.17,3.61,3.61,0,0,0-1.95,2.34,3.81,3.81,0,0,0,.37,3c1,1.73,4.29.12,4.41-1.72,0-.93-1-2-2-1.59a1.37,1.37,0,0,0-1,1,1.46,1.46,0,0,0,.82,1.35,1.52,1.52,0,0,1-1.07-1.36,1.71,1.71,0,0,1,1.12-1.47,1.82,1.82,0,0,1,1.91.27,2.57,2.57,0,0,1,1,1.72,2.66,2.66,0,0,1-.7,1.88,4.59,4.59,0,0,1-1.52,1.17,3.38,3.38,0,0,1-2,.35,2.58,2.58,0,0,1-1.76-1.11,4.67,4.67,0,0,1-.44-3.76,4.22,4.22,0,0,1,2.51-2.76,4.48,4.48,0,0,1,3.64.06A4.29,4.29,0,0,1,836.1,110Z"/><path class="cls-11" d="M836.36,109.86a4.13,4.13,0,0,1-2.85-2.15,4.94,4.94,0,0,1-.19-3.72,4.56,4.56,0,0,1,2.58-2.79,4.45,4.45,0,0,1,3.88.14,2.65,2.65,0,0,1,.78.75,2.56,2.56,0,0,1,.39,1,3.69,3.69,0,0,1-.28,2,5,5,0,0,1-1.06,1.63,2.81,2.81,0,0,1-1.82.92,2.44,2.44,0,0,1-1.83-.86,1.92,1.92,0,0,1-.36-1.94,1.88,1.88,0,0,1,1.38-1.29,1.44,1.44,0,0,1,1.45,1,1.37,1.37,0,0,0-1.41-.73,1.53,1.53,0,0,0-1,1.18,1.38,1.38,0,0,0,.35,1.4,1.84,1.84,0,0,0,1.35.53,3.22,3.22,0,0,0,2.09-2.14,2,2,0,0,0-.56-2.63,3.67,3.67,0,0,0-3-.11,4,4,0,0,0-2.23,2.22,4.28,4.28,0,0,0-.06,3.26A4.07,4.07,0,0,0,836.36,109.86Z"/><path class="cls-14" d="M931.49,181.21l15.82,15.38a6.93,6.93,0,0,0,7.84.4,7,7,0,0,0,1.91-9.29L941.3,171.23Z"/><path class="cls-15" d="M933.44,147.83a71.09,71.09,0,0,0,16,13.84c20.84,13.13,42.8,11.43,51.17,10.33a23.62,23.62,0,0,0,10-27.09,47.85,47.85,0,0,0-12.87-7.59c-10-3.93-18.79-3.35-25-2.86C955.22,135.83,941.46,142.82,933.44,147.83Z"/><ellipse class="cls-16" cx="945.7" cy="123.92" rx="29.03" ry="35.17" transform="translate(8.37 300.33) rotate(-18.12)"/><path class="cls-11" d="M944.33,110.25c1.63,6.34.15,12.2-3.32,13.08s-7.6-3.56-9.24-9.91-.14-12.2,3.33-13.08S942.7,103.9,944.33,110.25Z"/><path class="cls-8" d="M944.81,110.12a19.64,19.64,0,0,1,.45,7.48,10.51,10.51,0,0,1-1.17,3.63,5,5,0,0,1-3,2.5,5,5,0,0,1-3.83-.78,10.81,10.81,0,0,1-2.77-2.62,20.49,20.49,0,0,1-3.74-14.28,10.65,10.65,0,0,1,1.15-3.68A5,5,0,0,1,935,99.78a5.12,5.12,0,0,1,3.93.83,10.72,10.72,0,0,1,2.78,2.67A19.82,19.82,0,0,1,944.81,110.12Zm-.95.25a18.76,18.76,0,0,0-3-6.43,10.06,10.06,0,0,0-2.5-2.38,4,4,0,0,0-3.07-.66,4,4,0,0,0-2.38,2,9.56,9.56,0,0,0-1.06,3.29,18.49,18.49,0,0,0,.44,7.09,18.74,18.74,0,0,0,3,6.48,9.82,9.82,0,0,0,2.5,2.44,4.2,4.2,0,0,0,3.17.71,4.13,4.13,0,0,0,2.47-2.11,9.79,9.79,0,0,0,1-3.34A18.57,18.57,0,0,0,943.86,110.37Z"/><path class="cls-11" d="M954.26,108c1.64,6.37.22,12.23-3.16,13.09s-7.45-3.62-9.09-10-.22-12.24,3.16-13.09S952.62,101.6,954.26,108Z"/><path class="cls-8" d="M954.72,107.85a20,20,0,0,1,.47,7.43,10.9,10.9,0,0,1-1.09,3.62,4.32,4.32,0,0,1-6.69,1.68,10.8,10.8,0,0,1-2.7-2.65,21.05,21.05,0,0,1-3.75-14.2,10.64,10.64,0,0,1,1.07-3.68A4.43,4.43,0,0,1,949,98.3a11.33,11.33,0,0,1,2.72,2.72A20.25,20.25,0,0,1,954.72,107.85Zm-.92.24a19.23,19.23,0,0,0-3-6.43,9.91,9.91,0,0,0-2.46-2.42,3.92,3.92,0,0,0-3-.71,3.82,3.82,0,0,0-2.33,2,9.91,9.91,0,0,0-1,3.3,20.23,20.23,0,0,0,3.39,13.58,10,10,0,0,0,2.46,2.49,4.09,4.09,0,0,0,3.17.77,4,4,0,0,0,2.43-2.17,9.88,9.88,0,0,0,1-3.36A19.11,19.11,0,0,0,953.8,108.09Z"/><path class="cls-17" d="M939.36,108.74c1.06,4.12.31,7.86-1.66,8.36s-4.45-2.43-5.5-6.55-.31-7.85,1.67-8.35S938.31,104.63,939.36,108.74Z"/><path class="cls-11" d="M934.42,109.51a1.63,1.63,0,0,1-.5-1.32,1.85,1.85,0,0,1,.75-1.27,1.88,1.88,0,0,1,2.73.52,1,1,0,0,1,0,.84,1.55,1.55,0,0,1-.53.6,1.51,1.51,0,0,1-1.51.21.92.92,0,0,1-.43-.67.72.72,0,0,1,.3-.72.75.75,0,0,1,.73-.13.57.57,0,0,1,.28.64.52.52,0,0,0-.32-.54.61.61,0,0,0-.58.17.62.62,0,0,0,.17,1c.67.28,1.92-.53,1.53-1.23a1.48,1.48,0,0,0-1-.69,1.63,1.63,0,0,0-1.23.24A1.6,1.6,0,0,0,934.42,109.51Z"/><path class="cls-11" d="M934.33,109.58a1.53,1.53,0,0,0-.34-1.31,1.72,1.72,0,0,0-1.2-.56,1.78,1.78,0,0,0-1.23.37,1.49,1.49,0,0,0-.59,1.09c0,.4.39.64.83.69a1.42,1.42,0,0,0,1.19-.34.59.59,0,0,0-.33-1,.65.65,0,0,0-.62.11.54.54,0,0,0,0,.64.57.57,0,0,1,0-.71.8.8,0,0,1,.72-.23.74.74,0,0,1,.63.5.93.93,0,0,1-.09.81,1.63,1.63,0,0,1-1.46.51,1.48,1.48,0,0,1-.77-.26,1,1,0,0,1-.41-.76,2,2,0,0,1,2.23-1.76,1.93,1.93,0,0,1,1.31.74A1.55,1.55,0,0,1,934.33,109.58Z"/><path class="cls-11" d="M931.36,110.44a24.42,24.42,0,0,1,3.11-1,26.35,26.35,0,0,1,3.21-.61,26.83,26.83,0,0,1-3.12,1A26.21,26.21,0,0,1,931.36,110.44Z"/><path class="cls-18" d="M949.15,106.08c1,4,.23,7.69-1.79,8.21s-4.51-2.33-5.54-6.35-.23-7.7,1.79-8.21,4.51,2.33,5.54,6.35"/><path class="cls-11" d="M943.31,107a28.92,28.92,0,0,1,6.32-1.6,24.42,24.42,0,0,1-3.11,1A26.35,26.35,0,0,1,943.31,107Z"/><path class="cls-11" d="M946.67,106.12a1.63,1.63,0,0,1-.5-1.32,1.89,1.89,0,0,1,3.48-.74,1,1,0,0,1,0,.84,1.36,1.36,0,0,1-.52.59,1.51,1.51,0,0,1-1.51.22,1,1,0,0,1-.44-.68.76.76,0,0,1,.3-.72.74.74,0,0,1,.74-.12.56.56,0,0,1,.28.63.54.54,0,0,0-.32-.54.64.64,0,0,0-.58.18.61.61,0,0,0,.17,1c.67.28,1.91-.52,1.53-1.22a1.48,1.48,0,0,0-1-.7,1.64,1.64,0,0,0-1.64,2.59Z"/><path class="cls-11" d="M946.58,106.2a1.49,1.49,0,0,0-.35-1.31,1.82,1.82,0,0,0-2.42-.19,1.47,1.47,0,0,0-.59,1.09c0,.39.39.64.83.68a1.46,1.46,0,0,0,1.19-.33.61.61,0,0,0-.33-1,.71.71,0,0,0-.62.11.54.54,0,0,0,0,.64.54.54,0,0,1,0-.7.83.83,0,0,1,.73-.24.79.79,0,0,1,.63.5,1,1,0,0,1-.09.82,1.64,1.64,0,0,1-1.47.51,1.54,1.54,0,0,1-.76-.26,1,1,0,0,1-.41-.76,2,2,0,0,1,2.23-1.77,1.93,1.93,0,0,1,1.31.74A1.56,1.56,0,0,1,946.58,106.2Z"/><path class="cls-19" d="M950,123.11q-1.47,3.27-3,6.52l-5.32-4.56"/><path class="cls-8" d="M950,123.11a23.57,23.57,0,0,1-1,3.48c-.19.57-.43,1.12-.64,1.68s-.46,1.1-.71,1.64l-.36.82-.69-.58c-.88-.77-1.74-1.57-2.56-2.4a23.85,23.85,0,0,1-2.32-2.68,24.82,24.82,0,0,1,3,1.88c.95.69,1.87,1.41,2.76,2.17l-1.05.24c.25-.55.5-1.09.77-1.62s.53-1.07.84-1.58A25.35,25.35,0,0,1,950,123.11Z"/><path class="cls-20" d="M947.1,129.77l1.06,5"/><path class="cls-8" d="M948.45,133.48a7.78,7.78,0,0,0,3.49,5.15,6.74,6.74,0,0,0,6,.67,5.54,5.54,0,0,0,3.36-4.71,5,5,0,0,0-.58-2.93,4.43,4.43,0,0,0-2.17-1.95,4.1,4.1,0,0,0-2.86-.13,3.39,3.39,0,0,0-1.69,4.83,2.7,2.7,0,0,0,2.42,1.26,2,2,0,0,0,1.9-1.75,2,2,0,0,0-.25-1.38,1.71,1.71,0,0,0-1.14-.78,1.35,1.35,0,0,0-1.28.4,1.4,1.4,0,0,0-.29,1.35,1.13,1.13,0,0,0,1.11.78.9.9,0,0,0,.84-1l.22,0a1.2,1.2,0,0,1-1,1.44,1.57,1.57,0,0,1-1.61-1,2,2,0,0,1,.29-1.92A2,2,0,0,1,957,131a2.47,2.47,0,0,1,1.7,1,2.9,2.9,0,0,1,.48,1.95,3.1,3.1,0,0,1-.86,1.82,3,3,0,0,1-1.85.89,3.75,3.75,0,0,1-3.51-1.67,4.56,4.56,0,0,1-.48-3.88,4.63,4.63,0,0,1,2.66-2.9,5.38,5.38,0,0,1,3.93.05,6,6,0,0,1,2.93,2.58,6.55,6.55,0,0,1,.79,3.78,7,7,0,0,1-4.31,6,8.22,8.22,0,0,1-7.33-.89,8.93,8.93,0,0,1-3.87-6.17Z"/><path class="cls-8" d="M948.54,133.59a9,9,0,0,1-1.09,7.41,8.42,8.42,0,0,1-6.59,3.76,7.24,7.24,0,0,1-6.53-3.91,6.65,6.65,0,0,1-.84-3.88,6,6,0,0,1,1.71-3.64,5.56,5.56,0,0,1,3.71-1.61,4.9,4.9,0,0,1,3.69,1.65,4.65,4.65,0,0,1,1.16,3.84,3.79,3.79,0,0,1-2.65,3,3.17,3.17,0,0,1-3.65-1.46,2.9,2.9,0,0,1-.37-2,2.49,2.49,0,0,1,1.19-1.68,2.11,2.11,0,0,1,2-.06,2,2,0,0,1,1.07,1.69,1.58,1.58,0,0,1-1.13,1.57,1.26,1.26,0,0,1-1.55-.94l.22-.06a.94.94,0,0,0,1.22.63,1.11,1.11,0,0,0,.73-1.17,1.48,1.48,0,0,0-.84-1.16,1.4,1.4,0,0,0-1.37.14,1.72,1.72,0,0,0-.76,1.19,2,2,0,0,0,.34,1.39,2.14,2.14,0,0,0,2.53.89,2.67,2.67,0,0,0,1.76-2.16,3.39,3.39,0,0,0-.93-2.74,3.54,3.54,0,0,0-2.66-1.11,4.12,4.12,0,0,0-2.66,1.26,4.45,4.45,0,0,0-1.26,2.71,5.1,5.1,0,0,0,.68,3,5.83,5.83,0,0,0,5.13,3.08,6.89,6.89,0,0,0,5.39-3,7.83,7.83,0,0,0,1.16-6.27Z"/><path class="cls-21" d="M934.42,92.35c-8-30.44-19.24-53.62-27.07-58.22-2.66-1.56-5.61-1.38-6.27,2C899.53,44,911.1,68,929.85,96.9"/><path class="cls-22" d="M938.4,90.89c-7.23-31.33-7.79-57.49-2.39-65.24,1.83-2.63,4.8-3.8,7.11-1.06,5.46,6.48,6,33.5,2,68.35"/><ellipse class="cls-23" cx="982.18" cy="130.52" rx="14.47" ry="2.81" transform="translate(284.16 833.71) rotate(-52.78)"/><path class="cls-24" d="M941.09,193.62a6.77,6.77,0,1,0,9.78-9.37q12.48-9,25.16-18.38,12.24-9.06,24.06-18.09L1018.68,171l-27.82,20.17a294.08,294.08,0,0,0,21.73,27.61,292.64,292.64,0,0,0,30.81,29.9l-40.92,36.93a128.48,128.48,0,0,0-57-51.61q-7.32,17.22-14.66,34.45l-28.71-16.13Q910,241.85,918,230.21C926.64,217.64,934.29,205.38,941.09,193.62Z"/><path class="cls-8" d="M1046.36,102.28l-4.2-.42-4.23-.14-4.24.11c-1.42.11-2.83.26-4.24.39a72.66,72.66,0,0,0-16.65,4,81.42,81.42,0,0,0-15.57,7.64c-1.23.78-2.43,1.6-3.65,2.41s-2.34,1.74-3.52,2.61l-3.42,2.77-3.28,3,2.9-3.35,3.09-3.2c1.09-1,2.17-2,3.28-3s2.29-1.91,3.46-2.83a80.24,80.24,0,0,1,15.34-9.33,74.86,74.86,0,0,1,17.28-5.5c1.51-.22,3-.47,4.53-.67s3-.28,4.58-.38l4.6,0,4.6.29Z"/><path class="cls-8" d="M1006.7,156.22l11.66-9.87c3.85-3.32,7.69-6.66,11.39-10.14s7.35-7,10.85-10.72a86.57,86.57,0,0,0,9.71-11.79,72.38,72.38,0,0,1-8.18,13.08c-3.08,4.13-6.4,8.08-9.81,11.95s-7,7.56-10.68,11.18-7.4,7.14-11.2,10.58Z"/><path class="cls-8" d="M915,259.43a57,57,0,0,1-4.65,7.45,80.26,80.26,0,0,1-5.44,6.75,70.33,70.33,0,0,1-13.17,11.28,64.59,64.59,0,0,1-15.68,7.49l-4.2,1.15c-1.4.36-2.85.53-4.27.8l-2.13.36c-.72.09-1.44.13-2.16.2-1.43.12-2.87.27-4.31.25a64.07,64.07,0,0,1-17-2,63.12,63.12,0,0,1-15.7-6.46,67.55,67.55,0,0,1-13.36-10.17,66,66,0,0,1-10.2-13.1,70.47,70.47,0,0,0,11.45,11.7,64.94,64.94,0,0,0,13.66,8.59,61.19,61.19,0,0,0,30.91,5.74,36.33,36.33,0,0,0,3.9-.43c.65-.09,1.3-.17,1.94-.28l1.91-.43c1.27-.32,2.56-.52,3.8-.92l3.7-1.21a62.08,62.08,0,0,0,13.74-7.2,64,64,0,0,0,11.56-10.44,73.4,73.4,0,0,0,4.87-6.12,63.45,63.45,0,0,0,4.1-6.51Z"/><rect class="cls-25" x="775.7" y="179.16" width="54.37" height="84.31" transform="translate(161.05 752.02) rotate(-55)"/><text class="cls-26" transform="matrix(0.61, -0.92, 0.83, 0.55, 782.04, 232.4)">Bible</text><ellipse class="cls-23" cx="800.13" cy="253.59" rx="2.81" ry="14.47" transform="translate(-38.11 296.89) rotate(-20.54)"/></svg>