<svg id="Layer_1" data-name="Layer 1" xmlns="http://www.w3.org/2000/svg" xmlns:xlink="http://www.w3.org/1999/xlink" viewBox="0 0 1008 576"><defs><style>.cls-1,.cls-13,.cls-15,.cls-4{fill:#fff;}.cls-2,.cls-22,.cls-24,.cls-25,.cls-27,.cls-29,.cls-3,.cls-38,.cls-39,.cls-43,.cls-5{fill:none;}.cls-15,.cls-29,.cls-3,.cls-4,.cls-5{stroke:#fff;}.cls-15,.cls-18,.cls-25,.cls-27,.cls-29,.cls-3,.cls-4,.cls-5{stroke-linecap:round;}.cls-10,.cls-13,.cls-14,.cls-15,.cls-16,.cls-18,.cls-22,.cls-24,.cls-25,.cls-27,.cls-29,.cls-3,.cls-38,.cls-39,.cls-4,.cls-43,.cls-5,.cls-7,.cls-8,.cls-9{stroke-miterlimit:10;}.cls-3,.cls-4{stroke-width:3px;}.cls-5{stroke-width:5px;}.cls-6{clip-path:url(#clip-path);}.cls-7{fill:#91acc1;}.cls-10,.cls-13,.cls-14,.cls-16,.cls-18,.cls-22,.cls-24,.cls-25,.cls-27,.cls-38,.cls-39,.cls-43,.cls-7,.cls-8,.cls-9{stroke:#231f20;}.cls-10,.cls-7,.cls-8,.cls-9{stroke-width:7.35px;}.cls-8{fill:#6da4d1;}.cls-9{fill:#2275b9;}.cls-10{fill:#67879e;}.cls-11{fill:#b2946d;}.cls-12,.cls-14,.cls-18,.cls-33,.cls-40,.cls-42{fill:#231f20;}.cls-13,.cls-14{stroke-width:1.31px;}.cls-15{stroke-width:0.66px;}.cls-16,.cls-23{fill:#b89571;}.cls-16,.cls-18{stroke-width:1.35px;}.cls-17{fill:#40c4f1;}.cls-19{opacity:0.12;fill:url(#New_Pattern_Swatch_1);}.cls-20{clip-path:url(#clip-path-2);}.cls-21{clip-path:url(#clip-path-3);}.cls-22{stroke-width:0.46px;}.cls-24,.cls-25{stroke-width:0.09px;}.cls-26{fill:#b68a6b;}.cls-27,.cls-29{stroke-width:0.05px;}.cls-28{fill:#b2966c;}.cls-30{opacity:0.12;}.cls-31{clip-path:url(#clip-path-4);}.cls-32{fill:url(#Unnamed_Pattern_2);}.cls-33{font-size:2.53px;}.cls-33,.cls-42{font-family:HelveticaNeue-Light, Helvetica Neue;font-weight:300;}.cls-34{letter-spacing:-0.02em;}.cls-35{letter-spacing:-0.02em;}.cls-36{letter-spacing:0em;}.cls-37{letter-spacing:0em;}.cls-38{stroke-width:0.16px;}.cls-39{stroke-width:0.74px;}.cls-40{font-size:4.55px;font-family:Loopiejuice-Regular, Loopiejuice;}.cls-41{clip-path:url(#clip-path-6);}.cls-42{font-size:1.56px;}.cls-43{stroke-width:0.04px;}</style><clipPath id="clip-path"><rect class="cls-2" width="210.66" height="107.59"/></clipPath><pattern id="New_Pattern_Swatch_1" data-name="New Pattern Swatch 1" width="210.66" height="107.59" patternTransform="matrix(-0.14, 0.12, 0.11, 0.14, 479.71, -786.2)" patternUnits="userSpaceOnUse" viewBox="0 0 210.66 107.59"><rect class="cls-2" width="210.66" height="107.59"/><line class="cls-3" x1="3.54" y1="95.58" x2="209.16" y2="94.45"/><path class="cls-4" d="M105.49,94.75a140.6,140.6,0,0,1,103.67-.58"/><path class="cls-4" d="M3.56,95.34a130.74,130.74,0,0,1,101.73-1"/><path class="cls-1" d="M51.8,43.76a8.6,8.6,0,0,1,3.51,5.38,11.38,11.38,0,0,1-.63,6.47,10.67,10.67,0,0,1-4.32,5.06,14.51,14.51,0,0,1-6.31,2,14.9,14.9,0,0,1-6.65-.84,12.58,12.58,0,0,1-5.6-4.06,14.76,14.76,0,0,1-2.9-6.28,18.14,18.14,0,0,1,0-6.85,17.6,17.6,0,0,1,2.53-6.42,16.79,16.79,0,0,1,4.92-5,23.57,23.57,0,0,1,13-3.85,22.67,22.67,0,0,1,13.3,4,21.35,21.35,0,0,1,5,5.13,23.7,23.7,0,0,1,3.15,6.4,28,28,0,0,1,.59,14,29.81,29.81,0,0,1-2.2,6.67c-.25.54-.52,1.08-.82,1.6l-.44.79-.51.75a22.12,22.12,0,0,1-2.17,2.9A30.94,30.94,0,0,1,53.8,79.77a39.15,39.15,0,0,1-27.35.89l-1.69-.61c-.57-.21-1.11-.5-1.66-.75l-1.65-.79c-.53-.3-1.06-.6-1.59-.92a33.16,33.16,0,0,1-5.75-4.53A35,35,0,0,1,9.5,67.43a31.61,31.61,0,0,1-1.81-3.09c-.28-.54-.58-1.07-.83-1.62l-.72-1.67a39.93,39.93,0,0,1-2.94-14,46.39,46.39,0,0,1,1.57-14A43.81,43.81,0,0,1,10.58,20,41.17,41.17,0,0,1,20.69,9.53,51.36,51.36,0,0,1,46.77.22,59.82,59.82,0,0,1,73.61,4a49.38,49.38,0,0,1,6.21,3l1.49.88c.51.32,1,.65,1.49,1,1,.67,1.89,1.36,2.77,2.09a51.45,51.45,0,0,1,9.29,9.83,45.7,45.7,0,0,1,3.53,5.73c.25.5.53,1,.76,1.5l.67,1.52c.42,1,.93,2,1.26,3.05l1.08,3.07c.32,1,.6,2.06.9,3.08s.56,2.06.79,3.09.49,2,.68,3.09a145.1,145.1,0,0,1,2.4,24.71c0,2,0,4.1,0,6.14s-.09,4.09-.19,6.13q-.24,6.12-.88,12.2c-.75-8.11-1.72-16.16-3-24.1A161,161,0,0,0,97.4,46.79,79,79,0,0,0,93.08,36.1c-.38-.87-.9-1.63-1.35-2.44L91,32.47c-.23-.4-.5-.77-.75-1.15a43.26,43.26,0,0,0-11.38-11.4c-.74-.49-1.49-1-2.23-1.37-.37-.21-.74-.41-1.11-.59l-1.18-.56a37.83,37.83,0,0,0-4.93-1.85,46.68,46.68,0,0,0-21.08-1.42,45,45,0,0,0-19,7.43,29.06,29.06,0,0,0-3.77,3.1,28.61,28.61,0,0,0-3.22,3.58,34.1,34.1,0,0,0-2.6,4.11,32.94,32.94,0,0,0-2,4.63,34.69,34.69,0,0,0-1.33,4.92A33.32,33.32,0,0,0,15.89,47a27,27,0,0,0,1.42,9.8l.42,1.16c.15.38.34.73.5,1.11a22.06,22.06,0,0,0,1.13,2.22,23.71,23.71,0,0,0,2.87,3.93,21.83,21.83,0,0,0,3.61,3.19c.33.23.67.43,1,.66l1.07.58c.36.18.7.41,1.08.56l1.15.49a29.22,29.22,0,0,0,20.24.39,21.79,21.79,0,0,0,8.45-5.29,13.3,13.3,0,0,0,1.57-1.87l.38-.48.33-.52c.23-.34.43-.71.63-1.08a22,22,0,0,0,1.86-4.75A20.24,20.24,0,0,0,63.84,47a16.32,16.32,0,0,0-1.92-4.59,14.55,14.55,0,0,0-3.22-3.72,16.39,16.39,0,0,0-9.45-3.39,18,18,0,0,0-10.13,2.3,12.57,12.57,0,0,0-5.94,8.06,12.18,12.18,0,0,0,1.52,10,9.12,9.12,0,0,0,3.91,3.25,11.85,11.85,0,0,0,5.26,1c3.65-.06,7.39-1.78,9-5.09a9.71,9.71,0,0,0,.94-5.41,7.38,7.38,0,0,0-2.62-4.78"/><line class="cls-5" x1="2.5" y1="105.09" x2="208.12" y2="103.96"/><path class="cls-1" d="M160,43.76a8.6,8.6,0,0,0-3.51,5.38,11.38,11.38,0,0,0,.63,6.47,10.61,10.61,0,0,0,4.32,5.06,14.51,14.51,0,0,0,6.31,2,14.9,14.9,0,0,0,6.65-.84,12.58,12.58,0,0,0,5.6-4.06,14.76,14.76,0,0,0,2.9-6.28,18.14,18.14,0,0,0,0-6.85,17.78,17.78,0,0,0-2.53-6.42,16.71,16.71,0,0,0-4.93-5,23.52,23.52,0,0,0-13-3.85,22.67,22.67,0,0,0-13.3,4,21.35,21.35,0,0,0-5,5.13,23.7,23.7,0,0,0-3.15,6.4,27.89,27.89,0,0,0-.59,14,29.31,29.31,0,0,0,2.2,6.67,17.25,17.25,0,0,0,.82,1.6l.44.79.51.75a22.12,22.12,0,0,0,2.17,2.9A30.94,30.94,0,0,0,158,79.77a39.15,39.15,0,0,0,27.35.89l1.69-.61c.57-.21,1.11-.5,1.66-.75l1.64-.79c.53-.3,1.07-.6,1.59-.92a32.86,32.86,0,0,0,5.76-4.53,35,35,0,0,0,4.61-5.63,31.61,31.61,0,0,0,1.81-3.09c.27-.54.58-1.07.83-1.62l.71-1.67a39.72,39.72,0,0,0,3-14,46.39,46.39,0,0,0-1.57-14A43.81,43.81,0,0,0,201.21,20,41.17,41.17,0,0,0,191.1,9.53,51.36,51.36,0,0,0,165,.22,59.82,59.82,0,0,0,138.18,4,49.38,49.38,0,0,0,132,7l-1.49.88c-.51.32-1,.65-1.49,1-1,.67-1.89,1.36-2.77,2.09a51.14,51.14,0,0,0-9.29,9.83,45.7,45.7,0,0,0-3.53,5.73c-.25.5-.53,1-.76,1.5L112,29.56c-.42,1-.93,2-1.26,3.05l-1.08,3.07c-.32,1-.6,2.06-.9,3.08s-.56,2.06-.79,3.09-.49,2-.68,3.09a145.1,145.1,0,0,0-2.4,24.71c-.06,2,0,4.1,0,6.14s.09,4.09.19,6.13q.24,6.12.88,12.2c.75-8.11,1.72-16.16,3-24.1a161,161,0,0,1,5.46-23.23,79,79,0,0,1,4.32-10.69c.38-.87.9-1.63,1.35-2.44l.69-1.19c.23-.4.5-.77.75-1.15a43.26,43.26,0,0,1,11.38-11.4c.73-.49,1.49-1,2.23-1.37.37-.21.74-.41,1.11-.59l1.18-.56a37.83,37.83,0,0,1,4.93-1.85,46.67,46.67,0,0,1,21.08-1.42,45,45,0,0,1,19,7.43,28.49,28.49,0,0,1,3.78,3.1,28.61,28.61,0,0,1,3.22,3.58,34.1,34.1,0,0,1,2.6,4.11A32.94,32.94,0,0,1,194,37a32.74,32.74,0,0,1,1.88,10,26.83,26.83,0,0,1-1.43,9.8l-.41,1.16c-.15.38-.34.73-.5,1.11a22.16,22.16,0,0,1-1.14,2.22,23.1,23.1,0,0,1-2.86,3.93,21.5,21.5,0,0,1-3.62,3.19c-.32.23-.67.43-1,.66l-1.07.58c-.36.18-.7.41-1.08.56l-1.15.49a29.22,29.22,0,0,1-20.24.39A21.79,21.79,0,0,1,153,65.76a14.08,14.08,0,0,1-1.58-1.87l-.38-.48-.32-.52c-.23-.34-.43-.71-.63-1.08a22,22,0,0,1-1.87-4.75A20.35,20.35,0,0,1,148,47a16,16,0,0,1,1.92-4.59,14.71,14.71,0,0,1,3.21-3.72,16.45,16.45,0,0,1,9.45-3.39,18,18,0,0,1,10.14,2.3,12.6,12.6,0,0,1,5.94,8.06,12.18,12.18,0,0,1-1.52,10,9.12,9.12,0,0,1-3.91,3.25,11.87,11.87,0,0,1-5.27,1c-3.64-.06-7.38-1.78-9-5.09A9.62,9.62,0,0,1,158,49.4a7.33,7.33,0,0,1,2.62-4.78"/></pattern><clipPath id="clip-path-2"><path class="cls-1" d="M800.87,307.81l84.2-48.63q-17.18-29.75-34.36-59.49l-32.44-56.18-84.21,48.64Z"/></clipPath><clipPath id="clip-path-3"><rect class="cls-2" x="760.95" y="158.88" width="97.24" height="133.57" transform="translate(-4.33 435.16) rotate(-30.01)"/></clipPath><clipPath id="clip-path-4"><rect class="cls-2" x="865.81" y="251.83" width="5.54" height="4.26" transform="translate(-10.57 468.48) rotate(-30.01)"/></clipPath><pattern id="Unnamed_Pattern_2" data-name="Unnamed Pattern 2" width="210.66" height="107.59" patternTransform="matrix(-0.01, 0, 0, -0.01, 150.25, 275.47)" patternUnits="userSpaceOnUse" viewBox="0 0 210.66 107.59"><rect class="cls-2" width="210.66" height="107.59"/><g class="cls-6"><line class="cls-3" x1="3.54" y1="12.01" x2="209.16" y2="13.14"/><path class="cls-1" d="M105.49,12.84A139.57,139.57,0,0,0,161.67,23a138.1,138.1,0,0,0,47.49-9.58"/><path class="cls-3" d="M105.49,12.84A139.57,139.57,0,0,0,161.67,23a138.1,138.1,0,0,0,47.49-9.58"/><path class="cls-1" d="M3.56,12.24A130.14,130.14,0,0,0,58.65,23a129.23,129.23,0,0,0,46.64-9.8"/><path class="cls-3" d="M3.56,12.24A130.14,130.14,0,0,0,58.65,23a129.23,129.23,0,0,0,46.64-9.8"/><path class="cls-1" d="M51.8,63.83a8.6,8.6,0,0,0,3.51-5.38A11.42,11.42,0,0,0,54.68,52a10.76,10.76,0,0,0-4.32-5.06,14.5,14.5,0,0,0-6.31-2,15,15,0,0,0-6.65.83,12.66,12.66,0,0,0-5.6,4.06A14.87,14.87,0,0,0,28.9,56a18.14,18.14,0,0,0,0,6.85,17.65,17.65,0,0,0,2.53,6.43,16.88,16.88,0,0,0,4.92,5,23.41,23.41,0,0,0,13,3.85,22.53,22.53,0,0,0,13.3-4,21.49,21.49,0,0,0,5-5.12,23.7,23.7,0,0,0,3.15-6.4,28,28,0,0,0,.59-13.95A29.64,29.64,0,0,0,69.26,42a17.25,17.25,0,0,0-.82-1.6L68,39.65l-.51-.75A22.22,22.22,0,0,0,65.32,36,31.06,31.06,0,0,0,53.8,27.81a39.23,39.23,0,0,0-27.35-.88l-1.69.61c-.57.2-1.11.5-1.66.74l-1.65.79c-.53.31-1.06.6-1.58.93a32.86,32.86,0,0,0-5.76,4.53A34.91,34.91,0,0,0,9.5,40.15a31.61,31.61,0,0,0-1.81,3.09c-.28.54-.58,1.07-.83,1.62l-.72,1.67a40,40,0,0,0-2.94,14,46.43,46.43,0,0,0,1.57,14,43.81,43.81,0,0,0,5.81,13.12A41.5,41.5,0,0,0,20.69,98.06a51.54,51.54,0,0,0,26.08,9.31,59.69,59.69,0,0,0,26.84-3.8,48,48,0,0,0,6.21-3l1.49-.89c.51-.31,1-.64,1.49-1,1-.67,1.89-1.35,2.77-2.08a50.91,50.91,0,0,0,9.29-9.84A45,45,0,0,0,98.39,81c.25-.5.53-1,.76-1.49L99.82,78c.42-1,.93-2,1.26-3l1.08-3.07c.32-1,.6-2.06.9-3.08s.56-2.06.79-3.09.49-2.06.68-3.09a145.2,145.2,0,0,0,2.4-24.71c0-2,0-4.1,0-6.15s-.09-4.08-.19-6.13q-.24-6.1-.88-12.19c-.75,8.1-1.72,16.15-3,24.1A161.3,161.3,0,0,1,97.4,60.8a78.9,78.9,0,0,1-4.32,10.68c-.38.87-.9,1.63-1.35,2.44L91,75.12c-.23.39-.5.76-.75,1.14A39.77,39.77,0,0,1,87,80.56a40.45,40.45,0,0,1-8,7.1c-.73.5-1.49,1-2.23,1.38-.37.21-.74.4-1.11.59l-1.18.55A36.44,36.44,0,0,1,69.46,92a46.68,46.68,0,0,1-21.08,1.43,45,45,0,0,1-19-7.43,28.33,28.33,0,0,1-3.77-3.11,27.27,27.27,0,0,1-3.22-3.58,31.11,31.11,0,0,1-4.59-8.73,34.82,34.82,0,0,1-1.33-4.93,33.19,33.19,0,0,1-.55-5.05,27.06,27.06,0,0,1,1.42-9.81l.42-1.15c.15-.38.34-.74.5-1.11a21,21,0,0,1,1.13-2.22,23.38,23.38,0,0,1,2.87-3.94,22.23,22.23,0,0,1,3.61-3.18c.33-.23.68-.44,1-.66L27.92,38c.36-.18.7-.41,1.08-.57l1.15-.48a29.1,29.1,0,0,1,20.24-.39,21.79,21.79,0,0,1,8.45,5.29,13.22,13.22,0,0,1,1.57,1.86l.38.49.33.52c.23.34.43.7.63,1.07a22.79,22.79,0,0,1,1.87,4.75,20.36,20.36,0,0,1,.22,10.1,16.1,16.1,0,0,1-1.92,4.6,14.34,14.34,0,0,1-3.22,3.71,16.33,16.33,0,0,1-9.45,3.4A18.16,18.16,0,0,1,39.12,70,12.59,12.59,0,0,1,33.18,62a12.18,12.18,0,0,1,1.52-10,9.19,9.19,0,0,1,3.91-3.25,12,12,0,0,1,5.27-1c3.64.05,7.38,1.78,9,5.09a9.68,9.68,0,0,1,.94,5.41A7.4,7.4,0,0,1,51.19,63"/><line class="cls-5" x1="2.5" y1="2.5" x2="208.12" y2="3.63"/><path class="cls-1" d="M160,63.83a8.6,8.6,0,0,1-3.51-5.38,11.42,11.42,0,0,1,.63-6.48,10.7,10.7,0,0,1,4.32-5.06,14.5,14.5,0,0,1,6.31-2,15.05,15.05,0,0,1,6.65.83,12.66,12.66,0,0,1,5.6,4.06,14.87,14.87,0,0,1,2.9,6.28,18.14,18.14,0,0,1,0,6.85,17.83,17.83,0,0,1-2.53,6.43,16.79,16.79,0,0,1-4.93,5,23.36,23.36,0,0,1-13,3.85,22.53,22.53,0,0,1-13.3-4,21.49,21.49,0,0,1-5-5.12,23.7,23.7,0,0,1-3.15-6.4,27.89,27.89,0,0,1-.59-13.95,29.15,29.15,0,0,1,2.2-6.67,17.25,17.25,0,0,1,.82-1.6l.44-.79.51-.75A22.22,22.22,0,0,1,146.47,36,31.06,31.06,0,0,1,158,27.81a39.22,39.22,0,0,1,27.35-.88l1.69.61c.57.2,1.11.5,1.66.74l1.64.79c.53.31,1.07.6,1.59.93a32.86,32.86,0,0,1,5.76,4.53,34.91,34.91,0,0,1,4.61,5.62,31.61,31.61,0,0,1,1.81,3.09c.27.54.58,1.07.83,1.62l.71,1.67a39.82,39.82,0,0,1,3,14,46.43,46.43,0,0,1-1.57,14,43.59,43.59,0,0,1-5.82,13.12,41.29,41.29,0,0,1-10.1,10.44A51.54,51.54,0,0,1,165,107.37a59.69,59.69,0,0,1-26.84-3.8,48,48,0,0,1-6.21-3l-1.49-.89c-.51-.31-1-.64-1.49-1-1-.67-1.89-1.35-2.77-2.08a50.91,50.91,0,0,1-9.29-9.84A45,45,0,0,1,113.4,81c-.25-.5-.53-1-.76-1.49L112,78c-.42-1-.93-2-1.26-3l-1.08-3.07c-.32-1-.6-2.06-.9-3.08s-.56-2.06-.79-3.09-.49-2.06-.68-3.09a145.2,145.2,0,0,1-2.4-24.71c-.06-2,0-4.1,0-6.15s.09-4.08.19-6.13q.24-6.1.88-12.19c.75,8.1,1.72,16.15,3,24.1a161.3,161.3,0,0,0,5.46,23.23,78.9,78.9,0,0,0,4.32,10.68c.38.87.9,1.63,1.35,2.44l.69,1.2c.23.39.5.76.75,1.14a39.77,39.77,0,0,0,3.33,4.3,40.45,40.45,0,0,0,8,7.1c.73.5,1.49,1,2.23,1.38.37.21.74.4,1.11.59l1.18.55A36.44,36.44,0,0,0,142.33,92a46.67,46.67,0,0,0,21.08,1.43,45,45,0,0,0,19-7.43,27.8,27.8,0,0,0,3.78-3.11,27.27,27.27,0,0,0,3.22-3.58A31.11,31.11,0,0,0,194,70.61a32.89,32.89,0,0,0,1.88-10,26.85,26.85,0,0,0-1.43-9.81l-.41-1.15c-.15-.38-.34-.74-.5-1.11a21.13,21.13,0,0,0-1.14-2.22,22.32,22.32,0,0,0-2.87-3.94,21.82,21.82,0,0,0-3.61-3.18c-.32-.23-.67-.44-1-.66L183.87,38c-.36-.18-.7-.41-1.08-.57l-1.15-.48a29.1,29.1,0,0,0-20.24-.39A21.79,21.79,0,0,0,153,41.83a14,14,0,0,0-1.58,1.86l-.38.49-.32.52c-.23.34-.43.7-.63,1.07a22.25,22.25,0,0,0-1.87,4.75,20.36,20.36,0,0,0-.22,10.1,16.1,16.1,0,0,0,1.92,4.6,14.49,14.49,0,0,0,3.21,3.71,16.38,16.38,0,0,0,9.45,3.4A18.17,18.17,0,0,0,172.67,70,12.62,12.62,0,0,0,178.61,62a12.18,12.18,0,0,0-1.52-10,9.25,9.25,0,0,0-3.91-3.25,12,12,0,0,0-5.27-1c-3.64.05-7.38,1.78-9,5.09a9.59,9.59,0,0,0-.94,5.41A7.36,7.36,0,0,0,160.6,63"/></g></pattern><clipPath id="clip-path-6"><rect class="cls-2" x="858.23" y="263.35" width="24.74" height="1.46" transform="translate(-15.37 470.84) rotate(-30.01)"/></clipPath></defs><title>MySchmo</title><rect class="cls-7" x="259.36" y="106.16" width="400.58" height="322.44"/><path class="cls-8" d="M1007.44,548.82,659.94,428.6V106.16L766.61,0h240.83Z"/><path class="cls-8" d="M-.56,576,259.36,430.76V108.32L136.47,0H-.56Z"/><path class="cls-9" d="M1006.79,576H-.56L250.61,430H651.19l356,119.56Z"/><path class="cls-10" d="M766.61,0H136.47L259.36,108.32l400.58-2.16Z"/><ellipse class="cls-11" cx="893.56" cy="92.27" rx="83.97" ry="77.81" transform="translate(322.37 785.6) rotate(-56.41)"/><path class="cls-12" d="M842.18,156.56a70.47,70.47,0,0,0,27.49,13.9,75.22,75.22,0,0,0,30.83,1.18,81.78,81.78,0,0,0,29-10.85,87.46,87.46,0,0,0,23.14-20.58A88.8,88.8,0,0,0,967.41,113a85,85,0,0,0,4.28-30.73,78.13,78.13,0,0,0-7.48-30.09,72.05,72.05,0,0,0-19-24.43,70.81,70.81,0,0,0-27.63-14,75.47,75.47,0,0,0-31-1.19,82.28,82.28,0,0,0-29.1,10.88,88.17,88.17,0,0,0-23.26,20.68A92.14,92.14,0,0,0,825.34,57a82.89,82.89,0,0,0-6.14,14.42,85.54,85.54,0,0,0-4,30.91,78.08,78.08,0,0,0,7.79,30A72.37,72.37,0,0,0,842.18,156.56Zm-2.06,2.49a74.55,74.55,0,0,1-19.71-25.44,81.65,81.65,0,0,1-7.7-31.15,87.68,87.68,0,0,1,4.39-31.72A98.67,98.67,0,0,1,823.44,56,85.61,85.61,0,0,1,832,42.37a90.79,90.79,0,0,1,24-21.27A84.94,84.94,0,0,1,886.12,9.92a78.24,78.24,0,0,1,32.06,1.31,73.5,73.5,0,0,1,28.59,14.54A75,75,0,0,1,966.65,51a81.63,81.63,0,0,1,8,31.11,89.92,89.92,0,0,1-19.23,60.35,90.89,90.89,0,0,1-24.13,21.36A85.23,85.23,0,0,1,901.06,175a78.45,78.45,0,0,1-32.21-1.32A73.84,73.84,0,0,1,840.12,159.05Z"/><ellipse class="cls-13" cx="850.1" cy="101.29" rx="15.49" ry="25.42" transform="translate(111.14 533.56) rotate(-37.12)"/><ellipse class="cls-13" cx="868.89" cy="87.52" rx="15.9" ry="26.06" transform="translate(118.26 533.82) rotate(-36.49)"/><path class="cls-12" d="M881.73,115.34a7.4,7.4,0,0,1,3.27.38,3.84,3.84,0,0,1,1.52,1,3.06,3.06,0,0,1,.82,1.81,5.6,5.6,0,0,1-1,3.45,15,15,0,0,1-2.11,2.54,24.47,24.47,0,0,1-2.45,2.13,7.19,7.19,0,0,1-1.58.85,3.42,3.42,0,0,1-2.07.14,3.21,3.21,0,0,1-1.68-1.21,5,5,0,0,1-.72-1.68,7,7,0,0,1,.09-3.32.35.35,0,0,1,.69.08h0a8.14,8.14,0,0,0,.53,2.83c.33.85.94,1.53,1.51,1.59a3.15,3.15,0,0,0,2.09-.86c.75-.55,1.48-1.29,2.23-2a16.39,16.39,0,0,0,1.94-2.17,4.36,4.36,0,0,0,1-2.31,2.15,2.15,0,0,0-1.26-1.86,8.85,8.85,0,0,0-2.78-.93h0a.25.25,0,0,1-.2-.3A.24.24,0,0,1,881.73,115.34Z"/><path class="cls-1" d="M897.66,120.81a17,17,0,0,1-4.12,13.61,16.69,16.69,0,0,1-13.42,5c6.25,7.71,16.59,8.16,21.29,3.6C906.32,138.26,906,127.15,897.66,120.81Z"/><path class="cls-12" d="M897.81,121.05a.16.16,0,0,0,.17,0l0,.21,0,.47c0,.31.05.62.07.94,0,.62,0,1.25,0,1.87a18.81,18.81,0,0,1-.58,3.73,16.52,16.52,0,0,1-3.63,6.61,16,16,0,0,1-6.32,4.2,18.21,18.21,0,0,1-3.7.92,17.37,17.37,0,0,1-1.91.17c-.32,0-.64,0-1,0a1,1,0,0,1-.94-.36h0l.33-.6a17.8,17.8,0,0,0,10.18,5.7,14.44,14.44,0,0,0,5.75-.19,9.38,9.38,0,0,0,4.81-2.73,10.56,10.56,0,0,0,2.38-5.06,15.77,15.77,0,0,0,0-5.81,16.9,16.9,0,0,0-2.13-5.49,15.93,15.93,0,0,0-1.74-2.44c-.32-.38-.66-.75-1-1.1l-.49-.49C898,121.46,898,121.26,897.81,121.05Zm-.29-.48a5.48,5.48,0,0,1,.89.43,3.87,3.87,0,0,1,.37.28l.31.24c.41.33.79.69,1.17,1.06a17.5,17.5,0,0,1,2.06,2.4,18,18,0,0,1,2.63,5.8,16,16,0,0,1,.28,6.43,12,12,0,0,1-2.73,6,11,11,0,0,1-5.74,3.25,15,15,0,0,1-6.47,0,17.4,17.4,0,0,1-5.9-2.44,17.89,17.89,0,0,1-4.56-4.37l-.51-.72.84.13h0a1,1,0,0,1,.9-.26h.88a17.35,17.35,0,0,0,1.77-.14,17.74,17.74,0,0,0,3.46-.8,15.14,15.14,0,0,0,9.49-9.89,17.47,17.47,0,0,0,.73-3.52c.07-.6.09-1.2.1-1.81,0-.3,0-.6,0-.9l0-.45,0-.25A.88.88,0,0,1,897.52,120.57Z"/><path class="cls-12" d="M1020,57.71a48.11,48.11,0,0,1,6,9.5A44.09,44.09,0,0,1,1029.47,78a38.5,38.5,0,0,1,.38,11.29,36.78,36.78,0,0,1-3,10.93A31,31,0,0,1,1011,115.89a38.88,38.88,0,0,1-11,3,44.09,44.09,0,0,1-11.36,0,1,1,0,0,1,.28-2h0a42.12,42.12,0,0,0,10.82.1,37,37,0,0,0,10.45-2.73,29.32,29.32,0,0,0,15.1-14.73,34.9,34.9,0,0,0,2.89-10.42,36.89,36.89,0,0,0-.28-10.85,43.26,43.26,0,0,0-3.2-10.41,47.18,47.18,0,0,0-5.8-9.24v0a.67.67,0,0,1,.1-.95A.68.68,0,0,1,1020,57.71Z"/><path class="cls-12" d="M932,188.79a8.7,8.7,0,0,1-1.3,2.07c-.49.65-1,1.27-1.51,1.91-1,1.25-2.09,2.48-3.2,3.66a75.74,75.74,0,0,1-7,6.73,73,73,0,0,1-16.32,10.52A67.16,67.16,0,0,1,884,219.37a64.44,64.44,0,0,1-19.41-.06.68.68,0,0,1,.21-1.34,62.84,62.84,0,0,0,19-.12,66.3,66.3,0,0,0,18.12-5.62,71.19,71.19,0,0,0,15.92-10.34,75.12,75.12,0,0,0,6.86-6.61c1.08-1.17,2.11-2.37,3.12-3.6.49-.62,1-1.24,1.47-1.87a10.73,10.73,0,0,1,1.57-1.8h0a.7.7,0,0,1,1,.07A.71.71,0,0,1,932,188.79Z"/><ellipse class="cls-14" cx="841.19" cy="101.34" rx="7.71" ry="15.49" transform="translate(108.92 527.54) rotate(-37.07)"/><ellipse class="cls-14" cx="860.11" cy="88.21" rx="7.87" ry="15.45" transform="translate(100.67 501.52) rotate(-34.41)"/><path class="cls-15" d="M855.85,98l9.46-6.91"/><path class="cls-1" d="M860.26,94.67A3.85,3.85,0,0,1,859,92.18a3.51,3.51,0,0,1,.9-2.64,4.12,4.12,0,0,1,2.37-1.39,2.36,2.36,0,0,1,2.49,1.15,1.86,1.86,0,0,1,.15,1.44,3.17,3.17,0,0,1-.71,1.19,3.79,3.79,0,0,1-1.07.84,1.86,1.86,0,0,1-1.39.21,1.2,1.2,0,0,1-.88-1.08,2,2,0,0,1,.51-1.28A1.44,1.44,0,0,1,862.6,90a1,1,0,0,1,.85,1h0s0,.06-.07.06a.06.06,0,0,1-.06-.06.8.8,0,0,0-.74-.79,1.26,1.26,0,0,0-1,.55,1.69,1.69,0,0,0-.39,1.11.87.87,0,0,0,.67.78,2.33,2.33,0,0,0,2-1,1.81,1.81,0,0,0,.45-2.11,1.86,1.86,0,0,0-2-.83,3.58,3.58,0,0,0-2,1.27,2.82,2.82,0,0,0-.71,2.14,3.46,3.46,0,0,0,1,2.08.34.34,0,0,1,0,.47A.33.33,0,0,1,860.26,94.67Z"/><path class="cls-1" d="M860.17,94.5a2.27,2.27,0,0,0-1.43-1.6,3.87,3.87,0,0,0-2.32.11,3.68,3.68,0,0,0-2,1.32,2.13,2.13,0,0,0-.24,2.22,1.49,1.49,0,0,0,.86.72,2,2,0,0,0,1.17-.07A2.47,2.47,0,0,0,858,95.62a1,1,0,0,0-.41-1,1.41,1.41,0,0,0-1.16-.06,1.23,1.23,0,0,0-.85.79.81.81,0,0,0,.5,1,.09.09,0,0,1,.06.12.09.09,0,0,1-.12,0h0a1,1,0,0,1-.62-1.16,1.39,1.39,0,0,1,1-1,1.61,1.61,0,0,1,1.37.05,1.24,1.24,0,0,1,.55,1.26,2.75,2.75,0,0,1-1.89,1.88,2.37,2.37,0,0,1-1.4.11,1.94,1.94,0,0,1-1.13-.89A2.69,2.69,0,0,1,854,94a4.28,4.28,0,0,1,2.2-1.69,4.18,4.18,0,0,1,2.82-.16,2.76,2.76,0,0,1,1.81,2.21h0a.32.32,0,0,1-.28.36A.31.31,0,0,1,860.17,94.5Z"/><path class="cls-15" d="M837.25,109.49l9.46-6.91"/><path class="cls-1" d="M841.66,106.14a3.85,3.85,0,0,1-1.24-2.49,3.48,3.48,0,0,1,.9-2.64,4.19,4.19,0,0,1,2.37-1.4,2.37,2.37,0,0,1,2.49,1.16,1.86,1.86,0,0,1,.15,1.44,3.26,3.26,0,0,1-.71,1.19,4,4,0,0,1-1.07.84,1.91,1.91,0,0,1-1.39.21,1.21,1.21,0,0,1-.88-1.08,1.94,1.94,0,0,1,.51-1.28,1.39,1.39,0,0,1,1.21-.58,1,1,0,0,1,.85,1h0a.07.07,0,0,1-.07.06.06.06,0,0,1-.06-.06.79.79,0,0,0-.74-.79,1.23,1.23,0,0,0-1,.55,1.67,1.67,0,0,0-.39,1.1.9.9,0,0,0,.67.79,2.33,2.33,0,0,0,2-1,1.68,1.68,0,0,0-1.51-2.94,3.61,3.61,0,0,0-2,1.26,2.86,2.86,0,0,0-.71,2.15,3.49,3.49,0,0,0,1,2.08.33.33,0,0,1,0,.46A.32.32,0,0,1,841.66,106.14Z"/><path class="cls-1" d="M841.57,106a2.27,2.27,0,0,0-1.43-1.6,3.87,3.87,0,0,0-2.32.11,3.67,3.67,0,0,0-2,1.31,2.13,2.13,0,0,0-.24,2.22,1.51,1.51,0,0,0,.86.73,2.05,2.05,0,0,0,1.17-.07,2.47,2.47,0,0,0,1.73-1.58,1,1,0,0,0-.41-1,1.37,1.37,0,0,0-1.16-.06,1.23,1.23,0,0,0-.85.79.81.81,0,0,0,.5,1,.09.09,0,0,1,.06.12.1.1,0,0,1-.12.05h0a1,1,0,0,1-.62-1.17,1.39,1.39,0,0,1,1-.94,1.61,1.61,0,0,1,1.37.05,1.23,1.23,0,0,1,.55,1.26,2.72,2.72,0,0,1-1.89,1.87,2.23,2.23,0,0,1-1.4.11,1.89,1.89,0,0,1-1.13-.88,2.69,2.69,0,0,1,.14-2.75,4.73,4.73,0,0,1,5-1.86,2.76,2.76,0,0,1,1.81,2.21h0a.33.33,0,0,1-.28.37A.32.32,0,0,1,841.57,106Z"/><path class="cls-16" d="M955.27,140.3l6.13,5.84a4.59,4.59,0,0,1-1,3.71,4.16,4.16,0,0,1-4.1,1.37l-5.61-5.61"/><path class="cls-17" d="M956.58,150.76l-27.2,36a254.93,254.93,0,0,1,48.34,30.36L1024,158.57c-6.5-5.86-13.29-12.5-20.17-20s-13-14.87-18.36-21.9L961.84,145a4.23,4.23,0,0,1,.22,3.8A4.41,4.41,0,0,1,956.58,150.76Z"/><path class="cls-12" d="M956.86,151.73,943.4,169.37l-13.49,17.8-.24-1a259.51,259.51,0,0,1,48.68,30.19l-1.41.16,46.21-58.57.12,1.39q-10.68-9.51-20.45-20-4.89-5.22-9.53-10.67t-9-11.15l2.16,0L974.64,131.7l-6,7-6,7h0l.1-1.16a5.65,5.65,0,0,1,.71,3.06,4.58,4.58,0,0,1-1.35,2.93,5.49,5.49,0,0,1-2.77,1.46,5.88,5.88,0,0,1-1.57.09,5,5,0,0,1-.77-.13C956.56,151.84,956.84,151.9,956.86,151.73Zm-.55-1.95a3.58,3.58,0,0,1,.72.07l.4.11c.16,0,.33,0,.49.08a3.74,3.74,0,0,0,1-.06,3.48,3.48,0,0,0,1.73-.9,2.54,2.54,0,0,0,.76-1.64,3.68,3.68,0,0,0-.44-1.89l-.34-.62.43-.54h0l5.75-7.2,5.81-7.16,11.72-14.21,1.11-1.34,1,1.38q4.29,5.66,8.83,11.11c3,3.64,6.1,7.23,9.28,10.73q9.54,10.51,20,20.12l.71.65-.59.75-46.25,58.54-.63.8-.78-.63a251.62,251.62,0,0,0-48-30.55l-.74-.36.5-.65,13.72-18.21Z"/><path class="cls-18" d="M1024.17,158.18c7.31,6.31,15.29,12.76,24,19.2,8.44,6.28,16.69,11.93,24.63,17q-11.12,15.17-22.21,30.34A152.57,152.57,0,0,0,1014,200.51a174.22,174.22,0,0,0,13.07,18.9,171.1,171.1,0,0,0,14.18,15.77l-22.35,27.94A216.87,216.87,0,0,0,1001,240a213,213,0,0,0-23.11-22.22"/><path class="cls-19" d="M931.37,186.07c3.31,2.67,42.39,27.11,46.53,29.22,14.3-17.83,31.75-38.88,46.05-56.72-2.67,1.18-37.7-37.81-39.09-39.87C973,133.6,941.91,170.47,931.37,186.07Z"/><path class="cls-12" d="M831.19,47.24A20.18,20.18,0,0,1,819.93,57a16.72,16.72,0,0,1-7.74.76,14.36,14.36,0,0,1-3.82-1.14A11.42,11.42,0,0,1,805,54.34a12.53,12.53,0,0,1-3.72-7.16,15.79,15.79,0,0,1-.14-4.06,17,17,0,0,1,.88-3.94,17.85,17.85,0,0,1,.76-1.87c.33-.59.61-1.19,1-1.76a14.67,14.67,0,0,1,2.65-3.13A13.52,13.52,0,0,1,813.84,29a10.06,10.06,0,0,1,8,2.5,9.29,9.29,0,0,1,2.56,8,11.61,11.61,0,0,1-1.34,4,10.1,10.1,0,0,1-2.73,3.24,8.87,8.87,0,0,1-3.9,1.75,7.12,7.12,0,0,1-4.33-.54,5.57,5.57,0,0,1-3-3.33,6.76,6.76,0,0,1,.06-4.29,7.1,7.1,0,0,1,2.44-3.43,5.39,5.39,0,0,1,4.1-1,4,4,0,0,1,2,1,3.56,3.56,0,0,1,1.07,1.92,4.49,4.49,0,0,1-1.14,3.88,3.26,3.26,0,0,1-3.75.87,2.08,2.08,0,0,1-1.1-1.6,2.66,2.66,0,0,1,.48-1.81,2.57,2.57,0,0,0-.27,1.77,1.71,1.71,0,0,0,1.07,1.24,2.65,2.65,0,0,0,3-1,3.63,3.63,0,0,0,.66-3.1,2.43,2.43,0,0,0-2.19-1.76,3.9,3.9,0,0,0-2.88,1A5.25,5.25,0,0,0,811,40.85a5,5,0,0,0,.09,3,3.42,3.42,0,0,0,1.95,2,5.81,5.81,0,0,0,5.77-1.15,8.62,8.62,0,0,0,2.94-5.58,6.68,6.68,0,0,0-1.8-5.68c-.18-.17-.38-.31-.57-.47s-.41-.28-.64-.39l-.71-.33-.74-.26a8.33,8.33,0,0,0-3.15-.22c-9,.85-14.12,14.27-7.63,21a12,12,0,0,0,6,3.13,15.28,15.28,0,0,0,7-.26A20.81,20.81,0,0,0,831.19,47.24Z"/><path class="cls-1" d="M800.87,307.81l84.2-48.63q-17.18-29.75-34.36-59.49l-32.44-56.18-84.21,48.64Z"/><g class="cls-20"><g class="cls-21"><path class="cls-1" d="M856.24,217.24c-12.3,5.68-25.68,12.47-39.76,20.62-13.73,7.95-26,16-36.85,23.64-5.3-10.76-11.2-21.9-17.76-33.33-7.1-12.36-14.31-23.88-21.46-34.57,12.3-6.28,25.11-13.2,38.32-20.82,13.62-7.85,26.39-15.71,38.29-23.44,4.82,10.74,10.53,22.17,17.34,34a380.85,380.85,0,0,0,21.88,33.88"/><path class="cls-22" d="M856.24,217.24c-12.3,5.68-25.68,12.47-39.76,20.62-13.73,7.95-26,16-36.85,23.64-5.3-10.76-11.2-21.9-17.76-33.33-7.1-12.36-14.31-23.88-21.46-34.57,12.3-6.28,25.11-13.2,38.32-20.82,13.62-7.85,26.39-15.71,38.29-23.44,4.82,10.74,10.53,22.17,17.34,34A380.85,380.85,0,0,0,856.24,217.24Z"/><path class="cls-11" d="M859.81,248.89a5.43,5.43,0,1,0,1.72-7.84,5.7,5.7,0,0,0-1.72,7.84"/><path class="cls-12" d="M859.9,248.83a6.11,6.11,0,0,0,3.37,2.76,5.11,5.11,0,0,0,2.12.25,4.79,4.79,0,0,0,2-.63,4.93,4.93,0,0,0,1.56-1.42,5.09,5.09,0,0,0,.86-2,6.22,6.22,0,0,0-4.08-7.09,5.59,5.59,0,0,0-2.14-.25,5,5,0,0,0-2,.64l-.45.28-.42.33-.38.38-.33.43a5.3,5.3,0,0,0-.84,2,6.18,6.18,0,0,0,.74,4.3m-.19.11a6.39,6.39,0,0,1-.72-4.45,5.5,5.5,0,0,1,.89-2l.34-.43.39-.4.41-.35.46-.31a5.08,5.08,0,0,1,2.08-.66,5.53,5.53,0,0,1,2.21.26,6.39,6.39,0,0,1,3.48,2.87,6.59,6.59,0,0,1,.79,2.17,6.24,6.24,0,0,1,0,2.28,5.62,5.62,0,0,1-.87,2.06,5.06,5.06,0,0,1-3.71,2.15,5.67,5.67,0,0,1-2.23-.26,6.43,6.43,0,0,1-3.49-2.89"/><path class="cls-12" d="M861.69,241a1.75,1.75,0,0,1-1.29.62,1.87,1.87,0,0,1-.73-.18,1,1,0,0,1-.31-.26.81.81,0,0,1-.12-.39.59.59,0,0,1,.12-.38.42.42,0,0,1,.37-.1,1,1,0,0,1,.36.16.37.37,0,0,1,.13.38.41.41,0,0,1-.27.27.42.42,0,0,1-.37-.08.24.24,0,0,1-.09-.18.26.26,0,0,1,.07-.19.19.19,0,0,1,.19,0,.28.28,0,0,1,.16.12v0l0,0,0,0a.18.18,0,0,0-.27-.06.2.2,0,0,0,0,.29.38.38,0,0,0,.33,0,.33.33,0,0,0,.21-.22.27.27,0,0,0-.11-.29.77.77,0,0,0-.32-.14.3.3,0,0,0-.29.08.47.47,0,0,0-.09.31.65.65,0,0,0,.11.33.8.8,0,0,0,.26.22,1.78,1.78,0,0,0,.68.16,1.7,1.7,0,0,0,1.23-.57l0,0,.06.07Z"/><path class="cls-23" d="M867.59,251.27c.1.19.19.38.29.58a.28.28,0,0,1-.14.21.26.26,0,0,1-.29,0l-.26-.54"/><path class="cls-24" d="M867.59,251.27c.1.19.19.38.29.58a.28.28,0,0,1-.14.21.26.26,0,0,1-.29,0l-.26-.54"/><path class="cls-1" d="M860.58,246.11c.38,1,1.14,1.63,1.69,1.42s.68-1.19.3-2.18-1.14-1.63-1.69-1.42-.68,1.19-.3,2.18"/><path class="cls-24" d="M860.58,246.11c.38,1,1.14,1.63,1.69,1.42s.68-1.19.3-2.18-1.14-1.63-1.69-1.42S860.2,245.12,860.58,246.11Z"/><path class="cls-1" d="M862.05,245.55c.41,1,1.19,1.66,1.75,1.44s.69-1.22.29-2.24-1.18-1.65-1.75-1.43-.69,1.22-.29,2.23"/><path class="cls-24" d="M862.05,245.55c.41,1,1.19,1.66,1.75,1.44s.69-1.22.29-2.24-1.18-1.65-1.75-1.43S861.65,244.54,862.05,245.55Z"/><path class="cls-12" d="M863.28,247.34a.47.47,0,0,1,.2.12.26.26,0,0,1,.1.23.3.3,0,0,1-.13.22.93.93,0,0,1-.19.11l-.21.07a.32.32,0,0,1-.26-.06.33.33,0,0,1-.09-.25.52.52,0,0,1,.07-.22s0,0,0,0,0,0,0,0a1.5,1.5,0,0,0,0,.2.24.24,0,0,0,.07.16c.07.05.22,0,.34-.05s.25-.12.28-.22-.1-.22-.22-.3,0,0,0,0h0"/><path class="cls-1" d="M864.21,248.19a1,1,0,0,1-.53.78,1.1,1.1,0,0,1-1-.09c.26.7.92,1.05,1.32.9s.6-.91.18-1.59"/><path class="cls-12" d="M864.21,248.21h0v0s0,0,0,.07,0,.08,0,.12a1.63,1.63,0,0,1-.11.23.87.87,0,0,1-.38.33.94.94,0,0,1-.5.07l-.25-.05-.13-.05-.06,0s0,0,0,0l0,0h0a1.7,1.7,0,0,0,.53.68.84.84,0,0,0,.76.16.59.59,0,0,0,.27-.27,1.07,1.07,0,0,0,.1-.4,1.28,1.28,0,0,0,0-.43,1.17,1.17,0,0,0-.06-.2l0-.11a.32.32,0,0,1,0-.09m0,0a.39.39,0,0,1,.08.1l.05.1a.85.85,0,0,1,.09.22,1.14,1.14,0,0,1,.06.45,1,1,0,0,1-.1.45.71.71,0,0,1-.31.33.69.69,0,0,1-.47,0,1.14,1.14,0,0,1-.41-.21,1.57,1.57,0,0,1-.52-.75h0l.06,0a.06.06,0,0,1,.06,0l.06,0,.11,0,.23.06a.94.94,0,0,0,.47-.06.87.87,0,0,0,.36-.3,2.12,2.12,0,0,0,.11-.21.56.56,0,0,0,0-.12l0-.06v-.05l0,0"/><path class="cls-17" d="M867.48,252,865,253.54a20,20,0,0,1,1.36,1.69c.47.64.87,1.25,1.21,1.81l4.14-2.43q-.47-.88-.93-2c-.31-.71-.56-1.38-.78-2l-2.08,1.14a.3.3,0,0,1-.06.26.29.29,0,0,1-.39-.05"/><path class="cls-12" d="M867.47,252.07,865,253.58v-.07a23.52,23.52,0,0,1,2.6,3.5l-.1,0,4.14-2.43,0,.09a28.09,28.09,0,0,1-1.74-4l.14.06-1,.57-1,.55h0l0-.08a.54.54,0,0,1,0,.22.3.3,0,0,1-.16.17.37.37,0,0,1-.21,0l-.1,0,0,0s0,0,0,0m0-.14,0,0,0,0,0,0,.07,0a.15.15,0,0,0,.13,0,.2.2,0,0,0,.08-.08.33.33,0,0,0,0-.14v-.05l0,0h0l1-.59,1-.57.1-.06,0,.12a29.21,29.21,0,0,0,1.68,4l0,.06,0,0-4.15,2.44-.06,0,0-.06a22.63,22.63,0,0,0-2.55-3.51l0,0,0,0Z"/><path class="cls-12" d="M871.74,254.59c.36.64.75,1.32,1.2,2s.86,1.31,1.28,1.89l-2,1.32a12.53,12.53,0,0,0-.83-1.37,14.6,14.6,0,0,0-1.08-1.37,14.55,14.55,0,0,0,.48,1.66c.2.55.41,1,.62,1.48l-2,1.15a19.49,19.49,0,0,0-.73-2.08,18.66,18.66,0,0,0-1.08-2.19"/><path class="cls-25" d="M871.74,254.59c.36.64.75,1.32,1.2,2s.86,1.31,1.28,1.89l-2,1.32a12.53,12.53,0,0,0-.83-1.37,14.6,14.6,0,0,0-1.08-1.37,14.55,14.55,0,0,0,.48,1.66c.2.55.41,1,.62,1.48l-2,1.15a19.49,19.49,0,0,0-.73-2.08,18.66,18.66,0,0,0-1.08-2.19"/><path class="cls-12" d="M873.43,260.9a3.44,3.44,0,0,0-.74-1.73.1.1,0,0,1,0-.14.11.11,0,0,1,.14,0h0a3.63,3.63,0,0,1,.68,1.85s0,.05,0,.05a0,0,0,0,1-.05-.05"/><path class="cls-12" d="M870.42,262.76c.05.11.37,0,.71-.16s.55-.43.49-.53-.37,0-.71.16-.55.43-.49.53"/><path class="cls-24" d="M870.42,262.76c.05.11.37,0,.71-.16s.55-.43.49-.53-.37,0-.71.16S870.36,262.66,870.42,262.76Z"/><path class="cls-12" d="M871.57,262.09a4,4,0,0,1-1.21-1.3.1.1,0,1,1,.17-.1h0a3.83,3.83,0,0,0,1.09,1.31,0,0,0,0,1,0,.07s0,0-.06,0"/><path class="cls-12" d="M873.5,261c.07.11.43,0,.8-.19s.63-.49.57-.6-.43,0-.81.19-.63.49-.56.6"/><path class="cls-24" d="M873.5,261c.07.11.43,0,.8-.19s.63-.49.57-.6-.43,0-.81.19S873.43,260.84,873.5,261Z"/><path class="cls-12" d="M875,252.3a8.82,8.82,0,0,0-4.79-1.4.07.07,0,0,1-.07-.07s0-.07.06-.07h0a8.86,8.86,0,0,1,4.85,1.46,0,0,0,0,1,0,.06,0,0,0,0,1-.06,0"/><path class="cls-26" d="M875,252.24s.08.25.29.44.42.29.46.24-.08-.26-.29-.44-.42-.3-.46-.24"/><path class="cls-27" d="M875,252.24s.08.25.29.44.42.29.46.24-.08-.26-.29-.44S875.05,252.18,875,252.24Z"/><path class="cls-12" d="M865.13,253.75a1.06,1.06,0,0,1-.27.18l-.29.15a5.5,5.5,0,0,1-.61.23,4.27,4.27,0,0,1-1.29.17,4.7,4.7,0,0,1-2.52-.8.07.07,0,0,1,0-.07,0,0,0,0,1,.07,0,4.53,4.53,0,0,0,2.47.77,3.84,3.84,0,0,0,1.26-.18,4.19,4.19,0,0,0,.59-.22l.28-.15c.1,0,.18-.11.28-.15a0,0,0,0,1,.06,0s0,0,0,.05"/><path class="cls-28" d="M859.41,253c0,.06.1.25.31.42s.43.27.48.21-.1-.24-.32-.42-.43-.27-.47-.21"/><path class="cls-12" d="M859.43,253s0,.07,0,.1a.44.44,0,0,0,.08.11,1.7,1.7,0,0,0,.19.19l.22.16.12,0a.13.13,0,0,0,.12,0s0-.08,0-.12l-.08-.1a1.8,1.8,0,0,0-.2-.19l-.23-.14-.11-.06s-.09,0-.1,0m0,0a.11.11,0,0,1,.08,0l.07,0a.67.67,0,0,1,.12.06,1.19,1.19,0,0,1,.23.16,1.8,1.8,0,0,1,.2.19.76.76,0,0,1,.08.11s.06.09,0,.14-.09,0-.13,0l-.13,0-.23-.15a1.8,1.8,0,0,1-.2-.19l-.09-.11,0-.07a.09.09,0,0,1,0-.09"/><path class="cls-12" d="M860.6,246.13c.23.61.64,1,.92.91s.31-.67.08-1.28-.65-1-.92-.91-.31.67-.08,1.28"/><path class="cls-24" d="M860.6,246.13c.23.61.64,1,.92.91s.31-.67.08-1.28-.65-1-.92-.91S860.37,245.52,860.6,246.13Z"/><path class="cls-12" d="M862.06,245.53c.25.6.68,1,1,.88s.3-.67.05-1.27-.69-1-1-.88-.31.67-.05,1.27"/><path class="cls-24" d="M862.06,245.53c.25.6.68,1,1,.88s.3-.67.05-1.27-.69-1-1-.88S861.8,244.93,862.06,245.53Z"/><line class="cls-1" x1="862.66" y1="245.18" x2="861.91" y2="245.47"/><line class="cls-29" x1="862.66" y1="245.18" x2="861.91" y2="245.47"/><path class="cls-1" d="M862.26,245.32c0-.12-.13-.22-.24-.2a.2.2,0,0,0-.15.07.13.13,0,0,0,.12.22c.06,0,.12,0,.14-.09a.05.05,0,0,0,0-.07.11.11,0,0,0-.08,0s-.06,0-.07,0a.07.07,0,0,0,0,.08h0a.08.08,0,0,1,0-.09.09.09,0,0,1,.08,0,.13.13,0,0,1,.09,0,.1.1,0,0,1,0,.1.17.17,0,0,1-.15.11.17.17,0,0,1-.18-.08.16.16,0,0,1,0-.2.26.26,0,0,1,.17-.09.22.22,0,0,1,.19.06.27.27,0,0,1,.1.18s0,0,0,0,0,0,0,0"/><path class="cls-1" d="M862.27,245.33a.2.2,0,0,1-.07-.2.27.27,0,0,1,.1-.17.32.32,0,0,1,.19-.07.25.25,0,0,1,.17.11.2.2,0,0,1,0,.11.22.22,0,0,1,0,.08.19.19,0,0,1-.19,0,.11.11,0,0,1,0-.09.13.13,0,0,1,0-.09.12.12,0,0,1,.1,0,.09.09,0,0,1,0,.09h0a.07.07,0,0,0,0-.07.08.08,0,0,0-.08,0,.09.09,0,0,0,0,.07.08.08,0,0,0,0,.07c.1,0,.26-.08.19-.19a.15.15,0,0,0-.14-.08.2.2,0,0,0-.15.06.31.31,0,0,0-.09.14.19.19,0,0,0,0,.16,0,0,0,0,1,0,0h0"/><line class="cls-1" x1="861.31" y1="245.84" x2="860.56" y2="246.13"/><line class="cls-29" x1="861.31" y1="245.84" x2="860.56" y2="246.13"/><path class="cls-1" d="M860.91,246c0-.12-.13-.22-.24-.2a.24.24,0,0,0-.15.07.13.13,0,0,0,.12.22c.06,0,.12,0,.14-.09a.06.06,0,0,0,0-.07.08.08,0,0,0-.08,0,.07.07,0,0,0-.07,0,.05.05,0,0,0,0,.07h0a.08.08,0,0,1,0-.09.09.09,0,0,1,.08,0,.18.18,0,0,1,.1,0,.12.12,0,0,1,0,.1.17.17,0,0,1-.15.11.17.17,0,0,1-.18-.08.17.17,0,0,1,0-.2.28.28,0,0,1,.17-.09.26.26,0,0,1,.19.06.34.34,0,0,1,.11.18s0,0,0,0,0,0,0,0"/><path class="cls-1" d="M860.92,246a.2.2,0,0,1-.07-.2.27.27,0,0,1,.1-.17.26.26,0,0,1,.19-.06.19.19,0,0,1,.17.1.2.2,0,0,1,0,.11.22.22,0,0,1-.05.08.19.19,0,0,1-.19,0,.11.11,0,0,1-.05-.09.13.13,0,0,1,0-.09.09.09,0,0,1,.1,0,.07.07,0,0,1,0,.08h0a.07.07,0,0,0,0-.07.08.08,0,0,0-.08,0,.09.09,0,0,0,0,.07.08.08,0,0,0,0,.07c.1,0,.26-.08.19-.19a.17.17,0,0,0-.14-.08.25.25,0,0,0-.15.06.31.31,0,0,0-.09.14.19.19,0,0,0,.05.16,0,0,0,0,1,0,0h0"/><g class="cls-30"><g class="cls-31"><path class="cls-32" d="M865.15,253.55c.17.28,2.24,3.11,2.47,3.38,1.28-.74,2.82-1.59,4.1-2.32a28.93,28.93,0,0,1-1.78-3.85c-1.06.62-3.8,2.09-4.79,2.79"/></g></g></g><text class="cls-33" transform="matrix(0.82, -0.47, 0.5, 0.87, 786.16, 262.07)">Draw and/or write down a time when you we<tspan class="cls-34" x="48.78" y="0">r</tspan><tspan x="49.54" y="0">e not partial; whe</tspan><tspan class="cls-35" x="68.28" y="0">r</tspan><tspan class="cls-36" x="69.04" y="0">e instead of </tspan></text><text class="cls-33" transform="matrix(0.82, -0.47, 0.5, 0.87, 789.3, 263.76)">being extra nice to someone because you wanted something, you we<tspan class="cls-35" x="75.64" y="0">r</tspan><tspan x="76.39" y="0">e </tspan></text><text class="cls-33" transform="matrix(0.82, -0.47, 0.5, 0.87, 792.58, 265.37)">extra nice to someone even though they couldn<tspan class="cls-35" x="51.78" y="0">’</tspan><tspan class="cls-37" x="52.44" y="0">t give you anything! </tspan></text><g class="cls-21"><line class="cls-12" x1="789.12" y1="272.44" x2="861.46" y2="230.65"/><line class="cls-38" x1="789.12" y1="272.44" x2="861.46" y2="230.65"/><line class="cls-12" x1="791.78" y1="277.04" x2="864.12" y2="235.26"/><line class="cls-38" x1="791.78" y1="277.04" x2="864.12" y2="235.26"/><line class="cls-12" x1="797.1" y1="286.25" x2="855.55" y2="252.49"/><line class="cls-38" x1="797.1" y1="286.25" x2="855.55" y2="252.49"/><line class="cls-12" x1="799.76" y1="290.85" x2="858.21" y2="257.09"/><line class="cls-38" x1="799.76" y1="290.85" x2="858.21" y2="257.09"/><line class="cls-12" x1="802.42" y1="295.46" x2="862.83" y2="260.56"/><line class="cls-38" x1="802.42" y1="295.46" x2="862.83" y2="260.56"/><line class="cls-12" x1="794.44" y1="281.64" x2="855" y2="246.67"/><line class="cls-38" x1="794.44" y1="281.64" x2="855" y2="246.67"/><path class="cls-1" d="M795.2,171.69c-4.59,2.11-9.39,4.55-14.31,7.39s-9.38,5.75-13.48,8.66a19.57,19.57,0,0,0-5.13-8.89,156.85,156.85,0,0,0,27.78-16,21.7,21.7,0,0,0,1.88,4.5,21,21,0,0,0,3.26,4.38"/><path class="cls-39" d="M795.2,171.69c-4.59,2.11-9.39,4.55-14.31,7.39s-9.38,5.75-13.48,8.66a19.57,19.57,0,0,0-5.13-8.89,156.85,156.85,0,0,0,27.78-16,21.7,21.7,0,0,0,1.88,4.5A21,21,0,0,0,795.2,171.69Z"/></g><text class="cls-40" transform="matrix(0.82, -0.47, 0.5, 0.87, 768.19, 183)">My Schmoment:</text><g class="cls-41"><text class="cls-42" transform="matrix(0.82, -0.47, 0.5, 0.87, 860.04, 270.65)"><tspan xml:space="preserve">Copyright   2020 By the Book the Bible </tspan></text><ellipse class="cls-43" cx="865.64" cy="266.87" rx="0.4" ry="0.43" transform="translate(-17.42 468.73) rotate(-30.01)"/><path class="cls-12" d="M865.68,266.67l0,0h0l-.05,0a.12.12,0,0,0,0,.05s0,0,0,.07a.22.22,0,0,0,0,.08l0,.07,0,.06.06,0,.07,0a.11.11,0,0,0,.07,0,.1.1,0,0,0,0,0s0,0,0-.05v-.05a.14.14,0,0,0,0-.06l0,0a.19.19,0,0,1,0,.08V267l0,.06-.06.05-.09,0-.08,0-.08-.05-.06-.07,0-.09a.28.28,0,0,1,0-.09l0-.08s0-.05.07-.06l.06,0h.07l.06,0,0,.05,0,0,0,0"/></g></g><ellipse class="cls-28" cx="858.41" cy="216.27" rx="1.98" ry="6.79" transform="translate(344.94 937.38) rotate(-68.69)"/><path class="cls-12" d="M852.4,213.92a.67.67,0,0,0,.13.56,3.6,3.6,0,0,0,.55.64,9,9,0,0,0,1.42,1.08,19.92,19.92,0,0,0,3.24,1.69,19.41,19.41,0,0,0,3.49,1.11,9.31,9.31,0,0,0,1.81.21,3.69,3.69,0,0,0,.89-.08.93.93,0,0,0,.67-.41.85.85,0,0,0-.15-.75,3.73,3.73,0,0,0-.59-.67,9.27,9.27,0,0,0-1.47-1.08,19.23,19.23,0,0,0-3.31-1.56,21,21,0,0,0-3.53-1,9.75,9.75,0,0,0-1.78-.17,3.28,3.28,0,0,0-.84.09A.74.74,0,0,0,852.4,213.92Zm-.61-.29a1.32,1.32,0,0,1,1-.66,4.3,4.3,0,0,1,1-.1,10.84,10.84,0,0,1,1.9.22,21.32,21.32,0,0,1,6.89,2.86,10.4,10.4,0,0,1,1.5,1.14,4.42,4.42,0,0,1,.62.74,1.13,1.13,0,0,1,.16,1,1.19,1.19,0,0,1-.84.56,3.93,3.93,0,0,1-1,.11,11.72,11.72,0,0,1-1.87-.18,21.32,21.32,0,0,1-3.6-1,19.92,19.92,0,0,1-3.4-1.61,9.28,9.28,0,0,1-1.54-1.14,4.1,4.1,0,0,1-.66-.76A1.26,1.26,0,0,1,851.79,213.63Z"/></svg>