<svg id="Layer_1" data-name="Layer 1" xmlns="http://www.w3.org/2000/svg" xmlns:xlink="http://www.w3.org/1999/xlink" viewBox="0 0 2457.59 1475.54"><defs><style>.cls-1{fill:url(#linear-gradient);}.cls-13,.cls-15,.cls-18,.cls-19,.cls-2,.cls-22{fill:#fff;}.cls-2,.cls-22{stroke:#059ece;}.cls-14,.cls-15,.cls-16,.cls-18,.cls-2,.cls-22,.cls-5,.cls-6{stroke-miterlimit:10;}.cls-2{stroke-width:5.64px;}.cls-16,.cls-3{fill:#231f20;}.cls-4{fill:#29abe2;}.cls-5{fill:#606161;stroke-width:8.19px;}.cls-14,.cls-15,.cls-16,.cls-18,.cls-5,.cls-6{stroke:#231f20;}.cls-6{fill:#555554;stroke-width:10.87px;}.cls-7{fill:url(#linear-gradient-2);}.cls-8{fill:url(#linear-gradient-3);}.cls-9{fill:url(#linear-gradient-4);}.cls-10{fill:url(#linear-gradient-5);}.cls-11{fill:url(#linear-gradient-6);}.cls-12{fill:#09799f;}.cls-14{fill:#a87d50;stroke-width:1.23px;}.cls-15{stroke-width:0.48px;}.cls-16{stroke-width:0.95px;}.cls-17,.cls-23{fill:#010101;}.cls-18{stroke-linecap:round;stroke-width:2px;}.cls-19{opacity:0.5;}.cls-20{opacity:0.7;}.cls-21{opacity:0.8;}.cls-22{stroke-width:5.85px;}.cls-23{font-size:30px;font-family:Helvetica-Light, Helvetica;font-weight:300;}</style><linearGradient id="linear-gradient" x1="3025.14" y1="5875.53" x2="4500.68" y2="5875.53" gradientTransform="translate(-2534.74 -4147.46) scale(1 0.83)" gradientUnits="userSpaceOnUse"><stop offset="0.12" stop-color="#49273d"/><stop offset="0.23" stop-color="#4d283f"/><stop offset="0.35" stop-color="#592c46"/><stop offset="0.46" stop-color="#6d3251"/><stop offset="0.57" stop-color="#893a60"/><stop offset="0.69" stop-color="#ae4574"/><stop offset="0.8" stop-color="#d9528b"/><stop offset="0.85" stop-color="#ef5897"/></linearGradient><linearGradient id="linear-gradient-2" x1="13954.6" y1="141.1" x2="14393.79" y2="141.1" gradientTransform="matrix(-1.29, 0.16, 0.14, 0.99, 20234.6, -2374.47)" gradientUnits="userSpaceOnUse"><stop offset="0" stop-color="#2bace2" stop-opacity="0"/><stop offset="1" stop-color="#2bace2"/></linearGradient><linearGradient id="linear-gradient-3" x1="14161.02" y1="292.47" x2="14600.4" y2="292.47" gradientTransform="matrix(-1.29, 0.16, 0.14, 0.99, 20234.6, -2374.47)" gradientUnits="userSpaceOnUse"><stop offset="0" stop-color="#2bace2" stop-opacity="0"/><stop offset="0.48" stop-color="#2bace2"/><stop offset="0.92" stop-color="#2bace2" stop-opacity="0"/></linearGradient><linearGradient id="linear-gradient-4" x1="13914.91" y1="211.01" x2="14354.11" y2="211.01" xlink:href="#linear-gradient-2"/><linearGradient id="linear-gradient-5" x1="13961.22" y1="171.44" x2="14400.59" y2="171.44" gradientTransform="matrix(-1.29, 0.16, 0.14, 0.99, 20234.6, -2374.47)" gradientUnits="userSpaceOnUse"><stop offset="0" stop-color="#fff" stop-opacity="0"/><stop offset="0.35" stop-color="#fff" stop-opacity="0.92"/><stop offset="0.98" stop-color="#fff" stop-opacity="0"/></linearGradient><linearGradient id="linear-gradient-6" x1="13998.24" y1="261.99" x2="14437.44" y2="261.99" xlink:href="#linear-gradient-5"/></defs><title>SpeedyZoomBackground</title><rect class="cls-1" x="490.41" y="-490.41" width="1475.54" height="2456.35" transform="translate(1965.94 -490.41) rotate(90)"/><path class="cls-2" d="M2463.34,269.29q.61-76.73,1.21-153.45C1096,281.21,124.64,430.65,130.9,523.13c3.68,54.37,345.9,78,346.8,164.34,1,93.59-419.13,148.66-419.56,266.1-.37,98.17,292.89,130,299.13,254.85,4.51,90.06-142.6,186-309.81,267.12H2456.35c-917.6-215.9-1506.09-322.08-1900.83-378.67-48-6.89-362.95-51.11-365.42-137.48C186.9,847.54,698.35,757.57,694.28,657c-3.67-90.79-427.3-97.66-428.95-137.73C263,461.87,1118.23,373.33,2463.34,269.29Z"/><path class="cls-3" d="M1662.34,106.13a8.35,8.35,0,0,1-7.74,2.27,11.25,11.25,0,0,1-6.8-4.5,8.82,8.82,0,0,1-1.17-8.15,6.41,6.41,0,0,1,2.82-3.35,6,6,0,0,1,4.37-.46,7.51,7.51,0,0,1,3.64,2.27,6.46,6.46,0,0,1,1.65,4,4.89,4.89,0,0,1-1.72,4,3.71,3.71,0,0,1-2.2.78,4.53,4.53,0,0,1-2.18-.52,5.34,5.34,0,0,1-1.67-1.43,4.22,4.22,0,0,1-.8-2.07,3.49,3.49,0,0,1,.51-2.19,2.5,2.5,0,0,1,2-1.17,3,3,0,0,1,2.06.77,2.71,2.71,0,0,1,1,1.93,1.9,1.9,0,0,1-1,1.88,1.79,1.79,0,0,1-2-.57.17.17,0,0,1,0-.24.16.16,0,0,1,.23,0,1.22,1.22,0,0,0,2.16-1,2.21,2.21,0,0,0-2.34-1.85,1.92,1.92,0,0,0-1.47,2.34,3.41,3.41,0,0,0,2,2.5,2.78,2.78,0,0,0,3-.22,3.49,3.49,0,0,0,1.12-2.89,4.89,4.89,0,0,0-1.34-3,6,6,0,0,0-2.89-1.73,4.28,4.28,0,0,0-3.17.33,4.8,4.8,0,0,0-2.06,2.48,7.41,7.41,0,0,0,1,6.63,9.81,9.81,0,0,0,5.76,4,7.21,7.21,0,0,0,6.63-1.62.56.56,0,0,1,.8.79Z"/><path class="cls-4" d="M1353.13,285.43c8.48-11.72,79.59-106.35,216.33-116.4a334.34,334.34,0,0,1,90.25,5.88,328.59,328.59,0,0,0,74-2.42,294.4,294.4,0,0,0,59.49-15.13c25.94-9.6,70.07-22.75,127.64-25.18a445.62,445.62,0,0,1,79.23,3.73,68.51,68.51,0,0,1,10.56,26.66c4.41,28.08-12.5,49.72-20.12,58.23Z"/><ellipse class="cls-5" cx="1528.04" cy="260.64" rx="36.58" ry="53.35" transform="translate(1247.26 1785.11) rotate(-89.24)"/><path class="cls-4" d="M1934.92,147.7c-11.63-9.29-41-30.29-90-41.11a285.46,285.46,0,0,0-114.36-1.34c6.59,4.6,20.19,15.31,26.52,32a49.1,49.1,0,0,1,.64,33.6"/><path class="cls-3" d="M1730.56,105.25,1569.46,169a628.76,628.76,0,0,0,113.4,10.86,628.14,628.14,0,0,0,87.89-5.69c1.51-6.4,3.61-20.7-5.53-37.13C1755.38,119.37,1738.09,109.21,1730.56,105.25Z"/><ellipse class="cls-6" cx="1915.47" cy="213.1" rx="48.57" ry="70.85" transform="translate(1677.12 2125.59) rotate(-89.24)"/><polygon class="cls-7" points="1746.05 108.7 2313.99 60.55 2313.08 55.87 1745.13 104.02 1746.05 108.7"/><polygon class="cls-8" points="1502.8 294.63 2070.74 246.48 2068.92 237.12 1500.98 285.27 1502.8 294.63"/><polygon class="cls-9" points="1807.16 171.41 2375.1 123.26 2374.19 118.58 1806.24 166.74 1807.16 171.41"/><polygon class="cls-10" points="1742.25 142.17 2310.19 94.02 2308.37 84.66 1740.42 132.81 1742.25 142.17"/><polygon class="cls-11" points="1707.37 235.5 2275.31 187.35 2274.4 182.67 1706.45 230.82 1707.37 235.5"/><path class="cls-12" d="M1770.75,174.2c-10-18.1-32.12-28.25-51.72-24.66-16.24,3-28.47,14.94-31,30.35,13.88,0,28.74-.54,44.41-1.69C1746.05,177.2,1758.82,175.82,1770.75,174.2Z"/><path class="cls-3" d="M1971,247.4a71.48,71.48,0,0,1-21.48,11.37,85.72,85.72,0,0,1-23.66,4.31,80.63,80.63,0,0,1-24-2.66,63.57,63.57,0,0,1-22.15-10.66,22,22,0,0,1-2.48-2.08c-.78-.75-1.58-1.49-2.34-2.27l-2.13-2.54-.52-.64-.46-.7-.92-1.4a31.42,31.42,0,0,1-4.62-12.68,33.31,33.31,0,0,1,7.59-24.85,44.62,44.62,0,0,1,4.3-4.69c.76-.73,1.59-1.36,2.38-2a25,25,0,0,1,2.49-1.93,45.37,45.37,0,0,1,11.07-5.84,52.46,52.46,0,0,1,12-3,55.23,55.23,0,0,1,12.26-.27,53.55,53.55,0,0,1,12.06,2.6,41.71,41.71,0,0,1,11.11,6l1.29,1,1.2,1.17a20.87,20.87,0,0,1,2.24,2.53,10.8,10.8,0,0,1,1,1.41l.91,1.46.75,1.58.37.79.28.83.53,1.68c.12.57.22,1.16.33,1.73l.15.87,0,.88.08,1.76-.13,1.75-.08.87-.18.85-.36,1.7-.56,1.62a25.33,25.33,0,0,1-7.61,10.6,30.7,30.7,0,0,1-11.07,6.08,36.54,36.54,0,0,1-12.27,1.58,32.53,32.53,0,0,1-12.08-2.91,24.4,24.4,0,0,1-2.79-1.54c-.45-.3-.9-.56-1.34-.89l-1.31-1a15.53,15.53,0,0,1-4.07-5.54,13,13,0,0,1-.91-7,14.16,14.16,0,0,1,2.6-6.29,19.36,19.36,0,0,1,4.63-4.5,20.09,20.09,0,0,1,5.74-2.71,22.61,22.61,0,0,1,12.29-.21,17.33,17.33,0,0,1,5.7,2.69,11.66,11.66,0,0,1,2.4,2.36,9.25,9.25,0,0,1,1.5,3.15,8.67,8.67,0,0,1-1.2,6.65,12,12,0,0,1-4.77,4.21,14.3,14.3,0,0,1-6,1.41,13.23,13.23,0,0,1-6-1.25,8.79,8.79,0,0,1-2.58-1.84,5.52,5.52,0,0,1-1.46-3,5.19,5.19,0,0,1,.6-3.23,7.05,7.05,0,0,1,2.08-2.32l.85,1.1a4.38,4.38,0,0,0-1.79,4.16,4.79,4.79,0,0,0,3.19,3.17,11.69,11.69,0,0,0,9.79-.69,9.11,9.11,0,0,0,3.38-3.34,5.34,5.34,0,0,0,.55-4.15,6,6,0,0,0-1-1.84,8.31,8.31,0,0,0-1.69-1.47,13.77,13.77,0,0,0-4.54-1.81,18.65,18.65,0,0,0-9.91.63,15.71,15.71,0,0,0-4.29,2.27,14.68,14.68,0,0,0-3.25,3.44,8.06,8.06,0,0,0-.76,8.08,10,10,0,0,0,2.72,3.32l.93.66c.31.22.69.41,1,.61a20.3,20.3,0,0,0,2.19,1.09,28.55,28.55,0,0,0,19.63.23c.78-.27,1.54-.6,2.3-.92s1.49-.68,2.16-1.14l1-.63c.33-.22.65-.47,1-.7a20.76,20.76,0,0,0,1.87-1.55,17.81,17.81,0,0,0,5.15-7.61c2-5.62-.56-11.51-5.66-15.07a33.32,33.32,0,0,0-8.79-4.32,44.78,44.78,0,0,0-9.93-1.79,45.65,45.65,0,0,0-10.18.45,42.75,42.75,0,0,0-9.77,2.64,36,36,0,0,0-8.66,4.8,16.48,16.48,0,0,0-1.91,1.56c-.62.56-1.28,1.07-1.86,1.65A36.82,36.82,0,0,0,1882,209a31.48,31.48,0,0,0-2.6,4l-1,2.12a5.32,5.32,0,0,0-.4,1.07l-.34,1.09a19.5,19.5,0,0,0,2.51,17l.62.95.31.47.38.44,1.5,1.76,1.72,1.62a13.71,13.71,0,0,0,1.84,1.51,24,24,0,0,0,2,1.42l2.15,1.3a39.69,39.69,0,0,0,4.48,2.35,59.19,59.19,0,0,0,9.63,3.42,70.53,70.53,0,0,0,20.61,2.08c13.89-.53,27.79-4.94,38.64-13.11Z"/><path class="cls-3" d="M1569.49,288.85a61,61,0,0,1-17.59,6.1,71.73,71.73,0,0,1-18.44,1.05,65.26,65.26,0,0,1-18.15-4,46.55,46.55,0,0,1-16.17-10,25.53,25.53,0,0,1-5.86-8.42,21.9,21.9,0,0,1-1.72-10.48,23.26,23.26,0,0,1,3.34-9.89,28.76,28.76,0,0,1,6.53-7.52,40.11,40.11,0,0,1,3.91-2.88c.67-.42,1.37-.8,2.06-1.2a21.45,21.45,0,0,1,2.12-1.12,39.82,39.82,0,0,1,9-3.11,43.72,43.72,0,0,1,9.38-1.06c1.57-.05,3.14.07,4.7.16s3.13.35,4.68.69a34.31,34.31,0,0,1,17.11,8.44,17,17,0,0,1,1.73,2c.27.35.54.69.8,1l.68,1.16a16.42,16.42,0,0,1,1.14,2.48c.14.44.26.88.38,1.33l.17.67.09.69a14.14,14.14,0,0,1-.26,5.5,14.51,14.51,0,0,1-.89,2.55,15.3,15.3,0,0,1-1.26,2.33,21.37,21.37,0,0,1-7.34,6.73,26.6,26.6,0,0,1-9.06,3.27,27.75,27.75,0,0,1-18.53-3.12,18,18,0,0,1-3.89-3.15,10.71,10.71,0,0,1-2.55-4.78,9.21,9.21,0,0,1,.44-5.5,11.72,11.72,0,0,1,3-4.26,17,17,0,0,1,4.11-2.7,17.57,17.57,0,0,1,4.64-1.39,18.49,18.49,0,0,1,9.4.93,13.42,13.42,0,0,1,4.18,2.52,6.94,6.94,0,0,1,2.37,4.73,6.59,6.59,0,0,1-2,4.81,10.34,10.34,0,0,1-4.16,2.5,12.31,12.31,0,0,1-4.7.48,10.59,10.59,0,0,1-4.48-1.44,6.49,6.49,0,0,1-1.83-1.65,3.77,3.77,0,0,1-.74-2.5,4,4,0,0,1,1-2.33,6,6,0,0,1,1.91-1.43l.5.94a3.59,3.59,0,0,0-2.06,2.88,3.26,3.26,0,0,0,2,2.67,9.69,9.69,0,0,0,7.65.36,8.11,8.11,0,0,0,3.11-2.11,4,4,0,0,0,1.13-3,4.15,4.15,0,0,0-1.63-2.72,10.6,10.6,0,0,0-3.33-1.75,15.38,15.38,0,0,0-7.74-.39,13.73,13.73,0,0,0-3.6,1.26,12.76,12.76,0,0,0-3,2.19c-1.71,1.72-2.55,3.95-2,5.9a6.53,6.53,0,0,0,1.65,2.72,13.62,13.62,0,0,0,3,2.14,23.48,23.48,0,0,0,15.19,1.89,21.22,21.22,0,0,0,7.09-2.83,15.61,15.61,0,0,0,5.22-5.05,8.84,8.84,0,0,0,.75-1.51,8.28,8.28,0,0,0,.49-1.56,8,8,0,0,0,0-3.12l-.06-.39-.12-.37-.23-.75a11.51,11.51,0,0,0-.74-1.44l-.44-.7-.54-.66a10.82,10.82,0,0,0-1.2-1.25,27.57,27.57,0,0,0-13.89-6.17c-1.29-.27-2.62-.36-3.93-.5s-2.65-.13-4-.05a36.72,36.72,0,0,0-7.83,1.06,31.86,31.86,0,0,0-7.3,2.68,15,15,0,0,0-1.7,1c-.55.34-1.13.66-1.67,1a33.4,33.4,0,0,0-3,2.34,20.88,20.88,0,0,0-4.69,5.61,15,15,0,0,0-2.06,6.47,13.67,13.67,0,0,0,1.22,6.46,17,17,0,0,0,4.08,5.67,37.89,37.89,0,0,0,13.26,8,57.31,57.31,0,0,0,15.73,3.27,59.58,59.58,0,0,0,31.33-6Z"/><path class="cls-13" d="M1961,142.89l-25.59-.95-25.58-1.06h-.11l-.09-.06a230.56,230.56,0,0,0-36.93-18.11c-6.41-2.46-12.94-4.57-19.53-6.46s-13.29-3.46-20-4.73-13.55-2.22-20.38-2.86-13.7-1-20.57-1a218.84,218.84,0,0,0-41,3.71,206.15,206.15,0,0,1,41-4.46,212.63,212.63,0,0,1,41.14,3.6,220.53,220.53,0,0,1,76.75,29.62l-.21-.07,25.57,1.39Z"/><path class="cls-13" d="M1632.44,250l43.79-6.5,43.81-6.36,43.82-6.24,43.84-6.15-.46.48a74,74,0,0,1,7.54-26.52,66.69,66.69,0,0,1,7.45-11.66l2.13-2.73,2.35-2.54a64.58,64.58,0,0,1,4.94-4.85,33.07,33.07,0,0,1,2.63-2.24l2.7-2.17,2.82-2c1-.66,1.88-1.34,2.88-1.92l3-1.8c1-.61,2-1.11,3-1.66,2-1.13,4.12-2.05,6.19-3a111.46,111.46,0,0,1,26.36-7.87,111.09,111.09,0,0,0-26.18,8.27c-2,1-4.14,2-6.11,3.12-1,.57-2,1.09-3,1.69l-2.91,1.82c-1,.58-1.91,1.26-2.84,1.93l-2.79,2-2.65,2.18a30.57,30.57,0,0,0-2.59,2.24,65,65,0,0,0-4.84,4.84l-2.3,2.54-2.09,2.71a66.42,66.42,0,0,0-7.25,11.57,73,73,0,0,0-7.36,26.18l0,.42-.42.06L1764,232.06l-43.84,6.11-43.86,6Z"/><path class="cls-13" d="M1569.75,175.33q13.08,2.86,26.29,5.12t26.47,4c17.71,2.21,35.51,3.68,53.34,4.2s35.69.29,53.5-.86q13.37-.84,26.67-2.37t26.53-3.64q-13.17,2.44-26.46,4.21t-26.68,2.7a515.08,515.08,0,0,1-53.59,1.13c-8.94-.28-17.86-.84-26.77-1.57s-17.8-1.68-26.66-2.91-17.67-2.65-26.46-4.3S1578.43,177.43,1569.75,175.33Z"/><ellipse class="cls-14" cx="1683.03" cy="142.25" rx="24.88" ry="33.72" transform="translate(388.03 1226.6) rotate(-44.77)"/><path class="cls-15" d="M1673.22,135c3,4.17,3.34,8.64.8,10s-7-.91-10-5.08-3.34-8.64-.81-10S1670.24,130.79,1673.22,135Z"/><path class="cls-15" d="M1664.84,139.05c3,4.17,3.34,8.64.81,10s-7-.91-10-5.08-3.34-8.64-.81-10S1661.86,134.89,1664.84,139.05Z"/><path class="cls-16" d="M1669.35,135.23c1.58,2.46,1.6,5.08,0,5.84s-4.09-.61-5.67-3.08-1.59-5.07,0-5.83S1667.77,132.77,1669.35,135.23Z"/><path class="cls-16" d="M1660.93,139.63c1.58,2.46,1.6,5.08,0,5.84s-4.09-.61-5.67-3.08-1.6-5.07,0-5.83S1659.36,137.17,1660.93,139.63Z"/><path class="cls-13" d="M1666.24,138.89a1.55,1.55,0,0,1-.66-.77,1.06,1.06,0,0,1,.05-.89.83.83,0,0,1,.76-.4,1.52,1.52,0,0,1,1,.41.88.88,0,0,1,.25.52.73.73,0,0,1-.13.45.83.83,0,0,1-.33.28.65.65,0,0,1-.5,0,.87.87,0,0,1-.43-.37.46.46,0,0,1,0-.49.35.35,0,0,1,.4-.16.53.53,0,0,1,.33.37.5.5,0,0,0-.33-.31.27.27,0,0,0-.29.17c-.13.22.13.54.37.62.48.11,1-.56.53-1a1.19,1.19,0,0,0-.77-.33.7.7,0,0,0-.64.3.87.87,0,0,0-.11.75,1.54,1.54,0,0,0,.55.78"/><path class="cls-13" d="M1666.21,138.94a1.46,1.46,0,0,0-.56-.78,1.26,1.26,0,0,0-.85-.24.76.76,0,0,0-.62.38.85.85,0,0,0,0,.75.65.65,0,0,0,.66.34.62.62,0,0,0,.6-.34.53.53,0,0,0-.11-.37.46.46,0,0,0-.36-.2c-.13,0-.28,0-.32.15s0,.28.16.4a.46.46,0,0,1-.22-.44.34.34,0,0,1,.35-.23.53.53,0,0,1,.27.06.68.68,0,0,1,.23.18.76.76,0,0,1,.19.52.53.53,0,0,1-.27.37,1.07,1.07,0,0,1-.44.13,1,1,0,0,1-.53-.09.87.87,0,0,1-.26-.18,1.14,1.14,0,0,1-.18-.25,1.08,1.08,0,0,1,0-.95.91.91,0,0,1,.77-.42,1.59,1.59,0,0,1,1,.34,1.4,1.4,0,0,1,.5.87"/><path class="cls-13" d="M1656.14,144.26a11,11,0,0,1,1.57-1,12.28,12.28,0,0,1,1.73-.77,10.2,10.2,0,0,1-1.57,1,11.23,11.23,0,0,1-1.73.77"/><path class="cls-13" d="M1657.89,143.32a1.64,1.64,0,0,1-.69-.8,1.08,1.08,0,0,1,.06-.92.83.83,0,0,1,.79-.41,1.57,1.57,0,0,1,1,.42.89.89,0,0,1,.26.54.74.74,0,0,1-.13.46.9.9,0,0,1-.35.29.7.7,0,0,1-.52,0,1,1,0,0,1-.44-.39.5.5,0,0,1,0-.51.36.36,0,0,1,.42-.16.55.55,0,0,1,.35.38.58.58,0,0,0-.35-.32.29.29,0,0,0-.3.18c-.13.22.14.56.39.64.49.11,1-.58.55-1a1.37,1.37,0,0,0-.8-.34.76.76,0,0,0-.67.31.94.94,0,0,0-.11.78,1.6,1.6,0,0,0,.57.81"/><path class="cls-13" d="M1657.86,143.38a1.5,1.5,0,0,0-.58-.82,1.43,1.43,0,0,0-.89-.25.77.77,0,0,0-.63.39.89.89,0,0,0,0,.78.68.68,0,0,0,.69.36c.27,0,.56-.13.62-.35a.55.55,0,0,0-.12-.39.48.48,0,0,0-.37-.21.32.32,0,0,0-.33.16c0,.12,0,.29.17.41a.49.49,0,0,1-.24-.45.37.37,0,0,1,.37-.24.59.59,0,0,1,.28.06.63.63,0,0,1,.24.19.75.75,0,0,1,.19.54.52.52,0,0,1-.27.38,1.18,1.18,0,0,1-.46.14,1.22,1.22,0,0,1-.55-.09,1.48,1.48,0,0,1-.27-.19,1,1,0,0,1-.14-1.25.92.92,0,0,1,.79-.43,1.57,1.57,0,0,1,1,.35,1.45,1.45,0,0,1,.52.91"/><path class="cls-17" d="M1669.9,147.87a1.37,1.37,0,0,0-1.41.42,1.56,1.56,0,0,0,.11,1.35,2.59,2.59,0,0,0,2.61,1.22,2.86,2.86,0,0,0,2.26-1.75,2.38,2.38,0,0,0,.09-1.45,2.67,2.67,0,0,0-.89-1.33l.07-.09a2.73,2.73,0,0,1,1.25,1.33,2.55,2.55,0,0,1,.09,1.74,3.2,3.2,0,0,1-.95,1.47,3.44,3.44,0,0,1-1.75.79,3.53,3.53,0,0,1-2-.34,2.8,2.8,0,0,1-1.37-1.41,2.52,2.52,0,0,1-.18-.89,1.5,1.5,0,0,1,.29-.89,1.26,1.26,0,0,1,.88-.43,2.33,2.33,0,0,1,1,.13Z"/><path class="cls-3" d="M1668.86,147.67a1.88,1.88,0,0,1,.85,0,1.2,1.2,0,0,1,.74.5.77.77,0,0,1,0,.85,1.1,1.1,0,0,1-.76.44,1,1,0,0,1-.88-.3.61.61,0,0,1-.16-.42.51.51,0,0,1,.18-.38.72.72,0,0,1,.87,0,.41.41,0,0,1,.16.39.36.36,0,0,1-.12.18l-.09.06-.05,0s0,0-.06,0,0,0,0,0l0,0,.07-.06a.23.23,0,0,0,.08-.14.29.29,0,0,0-.14-.29.54.54,0,0,0-.66.07.38.38,0,0,0,0,.57.76.76,0,0,0,.66.2.68.68,0,0,0,.56-1,1.07,1.07,0,0,0-.51-.52,1.29,1.29,0,0,0-.82-.09"/><path class="cls-3" d="M1673.38,146.83a1.5,1.5,0,0,0-1.31-.56.7.7,0,0,0-.54.23.46.46,0,0,0,0,.54.85.85,0,0,0,.57.33c.23,0,.49,0,.52-.21s-.14-.4-.37-.46a.47.47,0,0,0-.33,0,.18.18,0,0,0-.09.12.17.17,0,0,0,0,.07.06.06,0,0,0,0,0s0,0,0,.05a.21.21,0,0,1,0-.34.49.49,0,0,1,.41,0,.59.59,0,0,1,.5.58.38.38,0,0,1-.26.31.86.86,0,0,1-.42,0,1.15,1.15,0,0,1-.74-.39.67.67,0,0,1-.11-.78.83.83,0,0,1,.76-.33,1.82,1.82,0,0,1,1.33.79"/><path class="cls-18" d="M1672.22,157c.79.06,5.41.31,8.08-2.47,2.43-2.54,2.27-6.6-.4-10.35,8.23,3.5,11.65,10.51,9.68,13.7S1679.54,161.81,1672.22,157Z"/><path class="cls-19" d="M1654.33,156.05l41.12-14.71q-4.35-8.13-8.68-16.27L1647,139.31c.73,2.29,1.62,4.73,2.7,7.3A91.35,91.35,0,0,0,1654.33,156.05Z"/><path class="cls-4" d="M1686.77,125.07,1647,139.31c-2.75-16.3,6.52-32.15,24.09-38.44,21.68-7.75,47.78,2,58.3,21.71s1.49,42-20.18,49.77c-19.59,7-42.8-.26-54.85-16.3l41.12-14.71Z"/><g class="cls-20"><path class="cls-4" d="M1650,139.8a37.8,37.8,0,0,0,2,6.58,39.71,39.71,0,0,0,2.9,5.67"/><path class="cls-13" d="M1650,139.8c.91,2.06,1.65,4.1,2.48,6.11s1.7,4,2.46,6.14a18.24,18.24,0,0,1-3.54-5.7A18,18,0,0,1,1650,139.8Z"/></g><g class="cls-21"><path class="cls-4" d="M1723,127.38c-6.73-12.85-20.74-21.75-35.89-22.79a39.87,39.87,0,0,0-32.7,13.24"/><path class="cls-13" d="M1723,127.38a46.7,46.7,0,0,0-32.2-21.17,42.35,42.35,0,0,0-19.46,1.37,43.35,43.35,0,0,0-16.93,10.25,37.06,37.06,0,0,1,16.33-12,38.55,38.55,0,0,1,10.08-2.3l2.59-.18,2.59,0c.44,0,.87,0,1.3,0l1.29.13a24.87,24.87,0,0,1,2.58.31,45.4,45.4,0,0,1,10,2.8,44.63,44.63,0,0,1,9,5.06A39,39,0,0,1,1723,127.38Z"/></g><path class="cls-22" d="M1425.13,172.29c-16.16-3-38.73-9.58-60.47-25.43-19.75-14.41-29.16-29.47-36-38.11S1299.45,75,1199.35,56.66c-62.56-11.45-142.29-25.21-247-3.46-61.9,12.87-134.52,28-141.86,66.71-7.23,38.11,52,81.43,87.51,100.64,92.62,50.13,224.15,44.7,319.43,2.19,26.66-11.89,69.7-35.26,136.35-45.59A419.16,419.16,0,0,1,1425.13,172.29Z"/><text class="cls-23" transform="translate(843.68 111.11) scale(1.11 1)">Hi I’m Schuper Schpeed! I help <tspan x="3.34" y="31">you memorize by starting slow, </tspan><tspan x="4.15" y="62">and then speeding up till we’re </tspan><tspan x="70.83" y="93">at schuper schpeed!</tspan></text></svg>