<?xml version="1.0" encoding="utf-8"?>
<!-- Generator: Adobe Illustrator 24.1.0, SVG Export Plug-In . SVG Version: 6.00 Build 0)  -->
<svg version="1.1" xmlns="http://www.w3.org/2000/svg" xmlns:xlink="http://www.w3.org/1999/xlink" x="0px" y="0px"
	 viewBox="0 0 1366 126" style="enable-background:new 0 0 1366 126;" xml:space="preserve">
<style type="text/css">
	.st0{display:none;}
	.st1{display:inline;opacity:0.3;fill:#FFDA00;stroke:#FFDA00;stroke-width:0.8145;stroke-miterlimit:10;}
	.st2{opacity:0.5;}
	.st3{fill:url(#SVGID_1_);}
	.st4{fill:url(#SVGID_2_);}
	.st5{fill:#FFAE1F;}
	.st6{fill:url(#SVGID_3_);}
	.st7{fill:#FFDA00;}
	.st8{fill:url(#SVGID_4_);}
	.st9{display:inline;fill:none;}
	.st10{display:inline;fill:#FFFFFF;}
	.st11{font-family:'Loopiejuice-Regular';}
	.st12{font-size:43px;}
	.st13{display:inline;fill:none;stroke:#FFDA00;stroke-width:4;stroke-miterlimit:10;}
</style>
<g id="Layer_3" class="st0">
	<rect x="0.5" y="-143.5" class="st1" width="1366" height="769"/>
</g>
<g id="Layer_4">
	<g class="st2">
		
			<linearGradient id="SVGID_1_" gradientUnits="userSpaceOnUse" x1="-91.8812" y1="-271" x2="-70.3274" y2="-271" gradientTransform="matrix(0 -2.4863 -1 0 413.5 -102.4476)">
			<stop  offset="0" style="stop-color:#E9A900;stop-opacity:0"/>
			<stop  offset="1" style="stop-color:#AA7600"/>
		</linearGradient>
		<rect x="3" y="72.41" class="st3" width="1363" height="53.59"/>
	</g>
	<g class="st2">
		
			<radialGradient id="SVGID_2_" cx="-108.3595" cy="492.8465" r="61.5716" gradientTransform="matrix(0 -2.4863 -6.6702 0 3358.3403 -176.0238)" gradientUnits="userSpaceOnUse">
			<stop  offset="0" style="stop-color:#AA7600"/>
			<stop  offset="1" style="stop-color:#E9A900;stop-opacity:0"/>
		</radialGradient>
		<rect x="-419.81" y="-62.04" class="st4" width="981.56" height="310.87"/>
	</g>
</g>
<g id="Layer_1">
	<g>
		<rect y="42" class="st5" width="1366" height="35"/>
	</g>
	<g class="st2">
		
			<linearGradient id="SVGID_3_" gradientUnits="userSpaceOnUse" x1="-199.5" y1="-269.5" x2="-169.5" y2="-269.5" gradientTransform="matrix(0 1 -1 0 413.5 246.5)">
			<stop  offset="0" style="stop-color:#E9A900;stop-opacity:0"/>
			<stop  offset="0.6086" style="stop-color:#C08800;stop-opacity:0.6086"/>
			<stop  offset="1" style="stop-color:#AA7600"/>
		</linearGradient>
		<rect y="47" class="st6" width="1366" height="30"/>
	</g>
	<g>
		<g>
			<path class="st7" d="M351.62,60.02c-1.68-0.89-3.69-1.29-5.52-0.78c-0.9,0.25-1.71,0.81-2.19,1.59
				c-0.47,0.78-0.47,1.77-0.07,2.57c0.4,0.81,1.13,1.41,1.97,1.77c0.84,0.37,1.75,0.58,2.68,0.67c1.84,0.17,3.77-0.09,5.39-0.88
				c1.6-0.79,2.84-2.35,2.73-4.05c-0.04-0.84-0.35-1.67-0.84-2.37c-0.49-0.7-1.17-1.25-1.94-1.69c-1.56-0.86-3.4-1.26-5.22-1.38
				c-1.83-0.12-3.69,0.03-5.45,0.49c-1.75,0.45-3.38,1.25-4.61,2.46c-1.24,1.22-1.98,2.77-1.93,4.4c0.01,1.63,0.74,3.26,1.86,4.49
				c1.11,1.24,2.68,2.13,4.34,2.75c3.36,1.23,7.13,1.52,10.74,1.17c3.62-0.37,7.19-1.42,9.88-3.54c1.35-1.03,2.45-2.38,3.17-3.81
				c0.69-1.44,1-3.04,0.82-4.63c-0.14-1.59-0.74-3.16-1.61-4.54c-0.88-1.39-2.03-2.56-3.41-3.55c-2.79-1.95-6.24-3.17-9.77-3.94
				c-3.55-0.75-7.25-1.04-10.93-0.86c-3.67,0.2-7.35,0.78-10.78,2.02c-1.7,0.59-3.33,1.42-4.87,2.38c-1.54,0.96-2.98,2.09-4.23,3.39
				c-2.49,2.66-4.48,5.91-5.72,9.43c-1.31,3.52-1.7,7.36-1.93,11.19c-0.32-3.82-0.29-7.74,0.64-11.57
				c0.95-3.83,2.75-7.44,5.26-10.59c2.62-3.12,5.99-5.48,9.74-7.06c3.72-1.56,7.66-2.41,11.63-2.77c3.97-0.35,7.99-0.23,11.96,0.48
				c3.96,0.73,7.93,2.07,11.39,4.61c3.49,2.52,6.03,6.63,6.3,11.1c0.16,2.23-0.37,4.54-1.42,6.5c-1.09,1.95-2.56,3.56-4.29,4.81
				c-1.72,1.25-3.65,2.14-5.62,2.74c-1.97,0.6-3.97,0.92-5.98,1.05c-4.01,0.24-8.07-0.19-11.88-1.72c-1.88-0.78-3.74-1.88-5.15-3.55
				c-1.39-1.65-2.27-3.77-2.22-5.99c0.02-1.1,0.29-2.21,0.77-3.2c0.49-0.99,1.16-1.84,1.94-2.56c1.56-1.44,3.54-2.3,5.5-2.74
				c1.97-0.44,3.99-0.53,5.97-0.34c1.98,0.21,3.97,0.69,5.75,1.75c0.88,0.53,1.7,1.24,2.29,2.14c0.58,0.89,0.93,1.93,0.95,3.02
				c0.02,1.08-0.37,2.16-1.02,2.99c-0.63,0.84-1.5,1.47-2.42,1.89c-1.87,0.82-3.9,0.99-5.86,0.74c-0.98-0.13-1.95-0.39-2.84-0.83
				c-0.89-0.43-1.72-1.15-2.13-2.09c-0.43-0.92-0.39-2.08,0.19-2.94c0.56-0.84,1.46-1.41,2.41-1.63
				C347.97,58.57,349.97,59.07,351.62,60.02z"/>
		</g>
		<g>
			<path class="st7" d="M276.42,59.24c1.65-0.95,3.65-1.45,5.57-1c0.95,0.22,1.85,0.79,2.41,1.63c0.57,0.85,0.62,2.01,0.19,2.94
				c-0.41,0.94-1.24,1.66-2.13,2.09c-0.9,0.44-1.87,0.7-2.84,0.83c-1.95,0.25-3.98,0.08-5.86-0.74c-0.92-0.42-1.79-1.05-2.42-1.89
				c-0.65-0.83-1.04-1.91-1.02-2.99c0.01-1.08,0.37-2.13,0.95-3.02c0.58-0.89,1.41-1.61,2.29-2.14c1.78-1.06,3.77-1.54,5.75-1.75
				c1.99-0.2,4-0.1,5.97,0.34c1.96,0.44,3.94,1.29,5.5,2.74c0.78,0.72,1.45,1.57,1.94,2.56c0.49,0.99,0.75,2.09,0.77,3.2
				c0.05,2.22-0.84,4.34-2.22,5.99c-1.41,1.67-3.26,2.77-5.15,3.55c-3.81,1.53-7.88,1.97-11.88,1.72c-2.01-0.14-4.01-0.46-5.98-1.05
				c-1.97-0.59-3.9-1.48-5.62-2.74c-1.73-1.25-3.21-2.86-4.29-4.81c-1.05-1.96-1.58-4.26-1.42-6.5c0.26-4.48,2.8-8.58,6.3-11.1
				c3.46-2.54,7.44-3.88,11.39-4.61c3.97-0.71,7.99-0.83,11.96-0.48c3.97,0.37,7.91,1.21,11.63,2.77c3.75,1.58,7.11,3.93,9.74,7.06
				c2.52,3.15,4.31,6.76,5.26,10.59c0.93,3.84,0.96,7.75,0.64,11.57c-0.23-3.83-0.62-7.67-1.93-11.19
				c-1.24-3.52-3.23-6.77-5.72-9.43c-1.25-1.31-2.68-2.43-4.23-3.39c-1.55-0.96-3.17-1.79-4.87-2.38
				c-3.43-1.24-7.11-1.81-10.78-2.02c-3.68-0.18-7.38,0.12-10.93,0.86c-3.53,0.77-6.98,1.99-9.77,3.94
				c-1.38,0.99-2.53,2.16-3.41,3.55c-0.87,1.38-1.47,2.95-1.61,4.54c-0.18,1.59,0.12,3.18,0.82,4.63c0.72,1.43,1.82,2.78,3.17,3.81
				c2.7,2.11,6.27,3.17,9.88,3.54c3.61,0.35,7.38,0.06,10.74-1.17c1.66-0.62,3.23-1.51,4.34-2.75c1.12-1.23,1.85-2.86,1.86-4.49
				c0.04-1.64-0.7-3.19-1.93-4.4c-1.22-1.21-2.85-2.01-4.61-2.46c-1.75-0.46-3.62-0.61-5.45-0.49c-1.82,0.13-3.67,0.52-5.22,1.38
				c-0.77,0.43-1.45,0.99-1.94,1.69c-0.49,0.7-0.8,1.53-0.84,2.37c-0.1,1.7,1.13,3.26,2.73,4.05c1.62,0.79,3.54,1.05,5.39,0.88
				c0.92-0.09,1.84-0.29,2.68-0.67c0.84-0.37,1.57-0.96,1.97-1.77c0.41-0.8,0.41-1.79-0.07-2.57c-0.47-0.78-1.29-1.35-2.19-1.59
				C280.12,57.96,278.1,58.36,276.42,59.24z"/>
		</g>
	</g>
	<g>
		<g>
			<path class="st7" d="M464.94,60.57c-1.68-0.89-3.69-1.29-5.52-0.78c-0.9,0.25-1.71,0.81-2.19,1.59
				c-0.47,0.78-0.47,1.77-0.07,2.57c0.4,0.81,1.13,1.41,1.97,1.77c0.84,0.37,1.75,0.58,2.68,0.67c1.84,0.17,3.77-0.09,5.39-0.88
				c1.6-0.79,2.84-2.35,2.73-4.05c-0.04-0.84-0.35-1.67-0.84-2.37c-0.49-0.7-1.17-1.25-1.94-1.69c-1.56-0.86-3.4-1.26-5.22-1.38
				c-1.83-0.12-3.69,0.03-5.45,0.49c-1.75,0.45-3.38,1.25-4.61,2.46c-1.24,1.22-1.98,2.77-1.93,4.4c0.01,1.63,0.74,3.26,1.86,4.49
				c1.11,1.24,2.68,2.13,4.34,2.75c3.36,1.23,7.13,1.52,10.74,1.17c3.62-0.37,7.19-1.42,9.88-3.54c1.35-1.03,2.45-2.38,3.17-3.81
				c0.69-1.44,1-3.04,0.82-4.63c-0.14-1.59-0.74-3.16-1.61-4.54c-0.88-1.39-2.03-2.56-3.41-3.55c-2.79-1.95-6.24-3.17-9.77-3.94
				c-3.55-0.75-7.25-1.04-10.93-0.86c-3.67,0.2-7.35,0.78-10.78,2.02c-1.7,0.59-3.33,1.42-4.87,2.38c-1.54,0.96-2.98,2.09-4.23,3.39
				c-2.49,2.66-4.48,5.91-5.72,9.43c-1.31,3.52-1.7,7.36-1.93,11.19c-0.32-3.82-0.29-7.74,0.64-11.57
				c0.95-3.83,2.75-7.44,5.26-10.59c2.62-3.12,5.99-5.48,9.74-7.06c3.72-1.56,7.66-2.41,11.63-2.77c3.97-0.35,7.99-0.23,11.96,0.48
				c3.96,0.73,7.93,2.07,11.39,4.61c3.49,2.52,6.03,6.63,6.3,11.1c0.16,2.23-0.37,4.54-1.42,6.5c-1.09,1.95-2.56,3.56-4.29,4.81
				c-1.72,1.25-3.65,2.14-5.62,2.74c-1.97,0.6-3.97,0.92-5.98,1.05c-4.01,0.24-8.07-0.19-11.88-1.72c-1.88-0.78-3.74-1.88-5.15-3.55
				c-1.39-1.65-2.27-3.77-2.22-5.99c0.02-1.1,0.29-2.21,0.77-3.2c0.49-0.99,1.16-1.84,1.94-2.56c1.56-1.44,3.54-2.3,5.5-2.74
				c1.97-0.44,3.99-0.53,5.97-0.34c1.98,0.21,3.97,0.69,5.75,1.75c0.88,0.53,1.7,1.24,2.29,2.14c0.58,0.89,0.93,1.93,0.95,3.02
				c0.02,1.08-0.37,2.16-1.02,2.99c-0.63,0.84-1.5,1.47-2.42,1.89c-1.87,0.82-3.9,0.99-5.86,0.74c-0.98-0.13-1.95-0.39-2.84-0.83
				c-0.89-0.43-1.72-1.15-2.13-2.09c-0.43-0.92-0.39-2.08,0.19-2.94c0.56-0.84,1.46-1.41,2.41-1.63
				C461.29,59.13,463.29,59.63,464.94,60.57z"/>
		</g>
		<g>
			<path class="st7" d="M389.74,59.8c1.65-0.95,3.65-1.45,5.57-1c0.95,0.22,1.85,0.79,2.41,1.63c0.57,0.85,0.62,2.01,0.19,2.94
				c-0.41,0.94-1.24,1.66-2.13,2.09c-0.9,0.44-1.87,0.7-2.84,0.83c-1.95,0.25-3.98,0.08-5.86-0.74c-0.92-0.42-1.79-1.05-2.42-1.89
				c-0.65-0.83-1.04-1.91-1.02-2.99c0.01-1.08,0.37-2.13,0.95-3.02c0.58-0.89,1.41-1.61,2.29-2.14c1.78-1.06,3.77-1.54,5.75-1.75
				c1.99-0.2,4-0.1,5.97,0.34c1.96,0.44,3.94,1.29,5.5,2.74c0.78,0.72,1.45,1.57,1.94,2.56c0.49,0.99,0.75,2.09,0.77,3.2
				c0.05,2.22-0.84,4.34-2.22,5.99c-1.41,1.67-3.26,2.77-5.15,3.55c-3.81,1.53-7.88,1.97-11.88,1.72c-2.01-0.14-4.01-0.46-5.98-1.05
				c-1.97-0.59-3.9-1.48-5.62-2.74c-1.73-1.25-3.21-2.86-4.29-4.81c-1.05-1.96-1.58-4.26-1.42-6.5c0.26-4.48,2.8-8.58,6.3-11.1
				c3.46-2.54,7.44-3.88,11.39-4.61c3.97-0.71,7.99-0.83,11.96-0.48c3.97,0.37,7.91,1.21,11.63,2.77c3.75,1.58,7.11,3.93,9.74,7.06
				c2.52,3.15,4.31,6.76,5.26,10.59c0.93,3.84,0.96,7.75,0.64,11.57c-0.23-3.83-0.62-7.67-1.93-11.19
				c-1.24-3.52-3.23-6.77-5.72-9.43c-1.25-1.31-2.68-2.43-4.23-3.39c-1.55-0.96-3.17-1.79-4.87-2.38
				c-3.43-1.24-7.11-1.81-10.78-2.02c-3.68-0.18-7.38,0.12-10.93,0.86c-3.53,0.77-6.98,1.99-9.77,3.94
				c-1.38,0.99-2.53,2.16-3.41,3.55c-0.87,1.38-1.47,2.95-1.61,4.54c-0.18,1.59,0.12,3.18,0.82,4.63c0.72,1.43,1.82,2.78,3.17,3.81
				c2.7,2.11,6.27,3.17,9.88,3.54c3.61,0.35,7.38,0.06,10.74-1.17c1.66-0.62,3.23-1.51,4.34-2.75c1.12-1.23,1.85-2.86,1.86-4.49
				c0.04-1.64-0.7-3.19-1.93-4.4c-1.22-1.21-2.85-2.01-4.61-2.46c-1.75-0.46-3.62-0.61-5.45-0.49c-1.82,0.13-3.67,0.52-5.22,1.38
				c-0.77,0.43-1.45,0.99-1.94,1.69c-0.49,0.7-0.8,1.53-0.84,2.37c-0.1,1.7,1.13,3.26,2.73,4.05c1.62,0.79,3.54,1.05,5.39,0.88
				c0.92-0.09,1.84-0.29,2.68-0.67c0.84-0.37,1.57-0.96,1.97-1.77c0.41-0.8,0.41-1.79-0.07-2.57c-0.47-0.78-1.29-1.35-2.19-1.59
				C393.44,58.51,391.43,58.91,389.74,59.8z"/>
		</g>
	</g>
	<g>
		<g>
			<path class="st7" d="M578.28,60.3c-1.68-0.89-3.69-1.29-5.52-0.78c-0.9,0.25-1.71,0.81-2.19,1.59c-0.47,0.78-0.47,1.77-0.07,2.57
				c0.4,0.81,1.13,1.41,1.97,1.77c0.84,0.37,1.75,0.58,2.68,0.67c1.84,0.17,3.77-0.09,5.39-0.88c1.6-0.79,2.84-2.35,2.73-4.05
				c-0.04-0.84-0.35-1.67-0.84-2.37c-0.49-0.7-1.17-1.25-1.94-1.69c-1.56-0.86-3.4-1.26-5.22-1.38c-1.83-0.12-3.69,0.03-5.45,0.49
				c-1.75,0.45-3.38,1.25-4.61,2.46c-1.24,1.22-1.98,2.77-1.93,4.4c0.01,1.63,0.74,3.26,1.86,4.49c1.11,1.24,2.68,2.13,4.34,2.75
				c3.36,1.23,7.13,1.52,10.74,1.17c3.62-0.37,7.19-1.42,9.88-3.54c1.35-1.03,2.45-2.38,3.17-3.81c0.69-1.44,1-3.04,0.82-4.63
				c-0.14-1.59-0.74-3.16-1.61-4.54c-0.88-1.39-2.03-2.56-3.41-3.55c-2.79-1.95-6.24-3.17-9.77-3.94
				c-3.55-0.75-7.25-1.04-10.93-0.86c-3.67,0.2-7.35,0.78-10.78,2.02c-1.7,0.59-3.33,1.42-4.87,2.38c-1.54,0.96-2.98,2.09-4.23,3.39
				c-2.49,2.66-4.48,5.91-5.72,9.43c-1.31,3.52-1.7,7.36-1.93,11.19c-0.32-3.82-0.29-7.74,0.64-11.57
				c0.95-3.83,2.75-7.44,5.26-10.59c2.62-3.12,5.99-5.48,9.74-7.06c3.72-1.56,7.66-2.41,11.63-2.77c3.97-0.35,7.99-0.23,11.96,0.48
				c3.96,0.73,7.93,2.07,11.39,4.61c3.49,2.52,6.03,6.63,6.3,11.1c0.16,2.23-0.37,4.54-1.42,6.5c-1.09,1.95-2.56,3.56-4.29,4.81
				c-1.72,1.25-3.65,2.14-5.62,2.74c-1.97,0.6-3.97,0.92-5.98,1.05c-4.01,0.24-8.07-0.19-11.88-1.72c-1.88-0.78-3.74-1.88-5.15-3.55
				c-1.39-1.65-2.27-3.77-2.22-5.99c0.02-1.1,0.29-2.21,0.77-3.2c0.49-0.99,1.16-1.84,1.94-2.56c1.56-1.44,3.54-2.3,5.5-2.74
				c1.97-0.44,3.99-0.53,5.97-0.34c1.98,0.21,3.97,0.69,5.75,1.75c0.88,0.53,1.7,1.24,2.29,2.14c0.58,0.89,0.93,1.93,0.95,3.02
				c0.02,1.08-0.37,2.16-1.02,2.99c-0.63,0.84-1.5,1.47-2.42,1.89c-1.87,0.82-3.9,0.99-5.86,0.74c-0.98-0.13-1.95-0.39-2.84-0.83
				c-0.89-0.43-1.72-1.15-2.13-2.09c-0.43-0.92-0.39-2.08,0.19-2.94c0.56-0.84,1.46-1.41,2.41-1.63
				C574.63,58.85,576.63,59.35,578.28,60.3z"/>
		</g>
		<g>
			<path class="st7" d="M503.08,59.52c1.65-0.95,3.65-1.45,5.57-1c0.95,0.22,1.85,0.79,2.41,1.63c0.57,0.85,0.62,2.01,0.19,2.94
				c-0.41,0.94-1.24,1.66-2.13,2.09c-0.9,0.44-1.87,0.7-2.84,0.83c-1.95,0.25-3.98,0.08-5.86-0.74c-0.92-0.42-1.79-1.05-2.42-1.89
				c-0.65-0.83-1.04-1.91-1.02-2.99c0.01-1.08,0.37-2.13,0.95-3.02c0.58-0.89,1.41-1.61,2.29-2.14c1.78-1.06,3.77-1.54,5.75-1.75
				c1.99-0.2,4-0.1,5.97,0.34c1.96,0.44,3.94,1.29,5.5,2.74c0.78,0.72,1.45,1.57,1.94,2.56c0.49,0.99,0.75,2.09,0.77,3.2
				c0.05,2.22-0.84,4.34-2.22,5.99c-1.41,1.67-3.26,2.77-5.15,3.55c-3.81,1.53-7.88,1.97-11.88,1.72c-2.01-0.14-4.01-0.46-5.98-1.05
				c-1.97-0.59-3.9-1.48-5.62-2.74c-1.73-1.25-3.21-2.86-4.29-4.81c-1.05-1.96-1.58-4.26-1.42-6.5c0.26-4.48,2.8-8.58,6.3-11.1
				c3.46-2.54,7.44-3.88,11.39-4.61c3.97-0.71,7.99-0.83,11.96-0.48c3.97,0.37,7.91,1.21,11.63,2.77c3.75,1.58,7.11,3.93,9.74,7.06
				c2.52,3.15,4.31,6.76,5.26,10.59c0.93,3.84,0.96,7.75,0.64,11.57c-0.23-3.83-0.62-7.67-1.93-11.19
				c-1.24-3.52-3.23-6.77-5.72-9.43c-1.25-1.31-2.68-2.43-4.23-3.39c-1.55-0.96-3.17-1.79-4.87-2.38
				c-3.43-1.24-7.11-1.81-10.78-2.02c-3.68-0.18-7.38,0.12-10.93,0.86c-3.53,0.77-6.98,1.99-9.77,3.94
				c-1.38,0.99-2.53,2.16-3.41,3.55c-0.87,1.38-1.47,2.95-1.61,4.54c-0.18,1.59,0.12,3.18,0.82,4.63c0.72,1.43,1.82,2.78,3.17,3.81
				c2.7,2.11,6.27,3.17,9.88,3.54c3.61,0.35,7.38,0.06,10.74-1.17c1.66-0.62,3.23-1.51,4.34-2.75c1.12-1.23,1.85-2.86,1.86-4.49
				c0.04-1.64-0.7-3.19-1.93-4.4c-1.22-1.21-2.85-2.01-4.61-2.46c-1.75-0.46-3.62-0.61-5.45-0.49c-1.82,0.13-3.67,0.52-5.22,1.38
				c-0.77,0.43-1.45,0.99-1.94,1.69c-0.49,0.7-0.8,1.53-0.84,2.37c-0.1,1.7,1.13,3.26,2.73,4.05c1.62,0.79,3.54,1.05,5.39,0.88
				c0.92-0.09,1.84-0.29,2.68-0.67c0.84-0.37,1.57-0.96,1.97-1.77c0.41-0.8,0.41-1.79-0.07-2.57c-0.47-0.78-1.29-1.35-2.19-1.59
				C506.78,58.23,504.77,58.63,503.08,59.52z"/>
		</g>
	</g>
	<g>
		<g>
			<path class="st7" d="M691.6,60.85c-1.68-0.89-3.69-1.29-5.52-0.78c-0.9,0.25-1.71,0.81-2.19,1.59c-0.47,0.78-0.47,1.77-0.07,2.57
				c0.4,0.81,1.13,1.41,1.97,1.77c0.84,0.37,1.75,0.58,2.68,0.67c1.84,0.17,3.77-0.09,5.39-0.88c1.6-0.79,2.84-2.35,2.73-4.05
				c-0.04-0.84-0.35-1.67-0.84-2.37c-0.49-0.7-1.17-1.25-1.94-1.69c-1.56-0.86-3.4-1.26-5.22-1.38c-1.83-0.12-3.69,0.03-5.45,0.49
				c-1.75,0.45-3.38,1.25-4.61,2.46c-1.24,1.22-1.98,2.77-1.93,4.4c0.01,1.63,0.74,3.26,1.86,4.49c1.11,1.24,2.68,2.13,4.34,2.75
				c3.36,1.23,7.13,1.52,10.74,1.17c3.62-0.37,7.19-1.42,9.88-3.54c1.35-1.03,2.45-2.38,3.17-3.81c0.69-1.44,1-3.04,0.82-4.63
				c-0.14-1.59-0.74-3.16-1.61-4.54c-0.88-1.39-2.03-2.56-3.41-3.55c-2.79-1.95-6.24-3.17-9.77-3.94
				c-3.55-0.75-7.25-1.04-10.93-0.86c-3.67,0.2-7.35,0.78-10.78,2.02c-1.7,0.59-3.33,1.42-4.87,2.38c-1.54,0.96-2.98,2.09-4.23,3.39
				c-2.49,2.66-4.48,5.91-5.72,9.43c-1.31,3.52-1.7,7.36-1.93,11.19c-0.32-3.82-0.29-7.74,0.64-11.57
				c0.95-3.83,2.75-7.44,5.26-10.59c2.62-3.12,5.99-5.48,9.74-7.06c3.72-1.56,7.66-2.41,11.63-2.77c3.97-0.35,7.99-0.23,11.96,0.48
				c3.96,0.73,7.93,2.07,11.39,4.61c3.49,2.52,6.03,6.63,6.3,11.1c0.16,2.23-0.37,4.54-1.42,6.5c-1.09,1.95-2.56,3.56-4.29,4.81
				c-1.72,1.25-3.65,2.14-5.62,2.74c-1.97,0.6-3.97,0.92-5.98,1.05c-4.01,0.24-8.07-0.19-11.88-1.72c-1.88-0.78-3.74-1.88-5.15-3.55
				c-1.39-1.65-2.27-3.77-2.22-5.99c0.02-1.1,0.29-2.21,0.77-3.2c0.49-0.99,1.16-1.84,1.94-2.56c1.56-1.44,3.54-2.3,5.5-2.74
				c1.97-0.44,3.99-0.53,5.97-0.34c1.98,0.21,3.97,0.69,5.75,1.75c0.88,0.53,1.7,1.24,2.29,2.14c0.58,0.89,0.93,1.93,0.95,3.02
				c0.02,1.08-0.37,2.16-1.02,2.99c-0.63,0.84-1.5,1.47-2.42,1.89c-1.87,0.82-3.9,0.99-5.86,0.74c-0.98-0.13-1.95-0.39-2.84-0.83
				c-0.89-0.43-1.72-1.15-2.13-2.09c-0.43-0.92-0.39-2.08,0.19-2.94c0.56-0.84,1.46-1.41,2.41-1.63
				C687.95,59.41,689.96,59.9,691.6,60.85z"/>
		</g>
		<g>
			<path class="st7" d="M616.4,60.07c1.65-0.95,3.65-1.45,5.57-1c0.95,0.22,1.85,0.79,2.41,1.63c0.57,0.85,0.62,2.01,0.19,2.94
				c-0.41,0.94-1.24,1.66-2.13,2.09c-0.9,0.44-1.87,0.7-2.84,0.83c-1.95,0.25-3.98,0.08-5.86-0.74c-0.92-0.42-1.79-1.05-2.42-1.89
				c-0.65-0.83-1.04-1.91-1.02-2.99c0.01-1.08,0.37-2.13,0.95-3.02c0.58-0.89,1.41-1.61,2.29-2.14c1.78-1.06,3.77-1.54,5.75-1.75
				c1.99-0.2,4-0.1,5.97,0.34c1.96,0.44,3.94,1.29,5.5,2.74c0.78,0.72,1.45,1.57,1.94,2.56c0.49,0.99,0.75,2.09,0.77,3.2
				c0.05,2.22-0.84,4.34-2.22,5.99c-1.41,1.67-3.26,2.77-5.15,3.55c-3.81,1.53-7.88,1.97-11.88,1.72c-2.01-0.14-4.01-0.46-5.98-1.05
				c-1.97-0.59-3.9-1.48-5.62-2.74c-1.73-1.25-3.21-2.86-4.29-4.81c-1.05-1.96-1.58-4.26-1.42-6.5c0.26-4.48,2.8-8.58,6.3-11.1
				c3.46-2.54,7.44-3.88,11.39-4.61c3.97-0.71,7.99-0.83,11.96-0.48c3.97,0.37,7.91,1.21,11.63,2.77c3.75,1.58,7.11,3.93,9.74,7.06
				c2.52,3.15,4.31,6.76,5.26,10.59c0.93,3.84,0.96,7.75,0.64,11.57c-0.23-3.83-0.62-7.67-1.93-11.19
				c-1.24-3.52-3.23-6.77-5.72-9.43c-1.25-1.31-2.68-2.43-4.23-3.39c-1.55-0.96-3.17-1.79-4.87-2.38
				c-3.43-1.24-7.11-1.81-10.78-2.02c-3.68-0.18-7.38,0.12-10.93,0.86c-3.53,0.77-6.98,1.99-9.77,3.94
				c-1.38,0.99-2.53,2.16-3.41,3.55c-0.87,1.38-1.47,2.95-1.61,4.54c-0.18,1.59,0.12,3.18,0.82,4.63c0.72,1.43,1.82,2.78,3.17,3.81
				c2.7,2.11,6.27,3.17,9.88,3.54c3.61,0.35,7.38,0.06,10.74-1.17c1.66-0.62,3.23-1.51,4.34-2.75c1.12-1.23,1.85-2.86,1.86-4.49
				c0.04-1.64-0.7-3.19-1.93-4.4c-1.22-1.21-2.85-2.01-4.61-2.46c-1.75-0.46-3.62-0.61-5.45-0.49c-1.82,0.13-3.67,0.52-5.22,1.38
				c-0.77,0.43-1.45,0.99-1.94,1.69c-0.49,0.7-0.8,1.53-0.84,2.37c-0.1,1.7,1.13,3.26,2.73,4.05c1.62,0.79,3.54,1.05,5.39,0.88
				c0.92-0.09,1.84-0.29,2.68-0.67c0.84-0.37,1.57-0.96,1.97-1.77c0.41-0.8,0.41-1.79-0.07-2.57c-0.47-0.78-1.29-1.35-2.19-1.59
				C620.1,58.79,618.09,59.19,616.4,60.07z"/>
		</g>
	</g>
	<g>
		<g>
			<path class="st7" d="M804.28,59.3c-1.68-0.89-3.69-1.29-5.52-0.78c-0.9,0.25-1.71,0.81-2.19,1.59c-0.47,0.78-0.47,1.77-0.07,2.57
				c0.4,0.81,1.13,1.41,1.97,1.77c0.84,0.37,1.75,0.58,2.68,0.67c1.84,0.17,3.77-0.09,5.39-0.88c1.6-0.79,2.84-2.35,2.73-4.05
				c-0.04-0.84-0.35-1.67-0.84-2.37c-0.49-0.7-1.17-1.25-1.94-1.69c-1.56-0.86-3.4-1.26-5.22-1.38c-1.83-0.12-3.69,0.03-5.45,0.49
				c-1.75,0.45-3.38,1.25-4.61,2.46c-1.24,1.22-1.98,2.77-1.93,4.4c0.01,1.63,0.74,3.26,1.86,4.49c1.11,1.24,2.68,2.13,4.34,2.75
				c3.36,1.23,7.13,1.52,10.74,1.17c3.62-0.37,7.19-1.42,9.88-3.54c1.35-1.03,2.45-2.38,3.17-3.81c0.69-1.44,1-3.04,0.82-4.63
				c-0.14-1.59-0.74-3.16-1.61-4.54c-0.88-1.39-2.03-2.56-3.41-3.55c-2.79-1.95-6.24-3.17-9.77-3.94
				c-3.55-0.75-7.25-1.04-10.93-0.86c-3.67,0.2-7.35,0.78-10.78,2.02c-1.7,0.59-3.33,1.42-4.87,2.38c-1.54,0.96-2.98,2.09-4.23,3.39
				c-2.49,2.66-4.48,5.91-5.72,9.43c-1.31,3.52-1.7,7.36-1.93,11.19c-0.32-3.82-0.29-7.74,0.64-11.57
				c0.95-3.83,2.75-7.44,5.26-10.59c2.62-3.12,5.99-5.48,9.74-7.06c3.72-1.56,7.66-2.41,11.63-2.77c3.97-0.35,7.99-0.23,11.96,0.48
				c3.96,0.73,7.93,2.07,11.39,4.61c3.49,2.52,6.03,6.63,6.3,11.1c0.16,2.23-0.37,4.54-1.42,6.5c-1.09,1.95-2.56,3.56-4.29,4.81
				c-1.72,1.25-3.65,2.14-5.62,2.74c-1.97,0.6-3.97,0.92-5.98,1.05c-4.01,0.24-8.07-0.19-11.88-1.72c-1.88-0.78-3.74-1.88-5.15-3.55
				c-1.39-1.65-2.27-3.77-2.22-5.99c0.02-1.1,0.29-2.21,0.77-3.2c0.49-0.99,1.16-1.84,1.94-2.56c1.56-1.44,3.54-2.3,5.5-2.74
				c1.97-0.44,3.99-0.53,5.97-0.34c1.98,0.21,3.97,0.69,5.75,1.75c0.88,0.53,1.7,1.24,2.29,2.14c0.58,0.89,0.93,1.93,0.95,3.02
				c0.02,1.08-0.37,2.16-1.02,2.99c-0.63,0.84-1.5,1.47-2.42,1.89c-1.87,0.82-3.9,0.99-5.86,0.74c-0.98-0.13-1.95-0.39-2.84-0.83
				c-0.89-0.43-1.72-1.15-2.13-2.09c-0.43-0.92-0.39-2.08,0.19-2.94c0.56-0.84,1.46-1.41,2.41-1.63
				C800.63,57.85,802.63,58.35,804.28,59.3z"/>
		</g>
		<g>
			<path class="st7" d="M729.08,58.52c1.65-0.95,3.65-1.45,5.57-1c0.95,0.22,1.85,0.79,2.41,1.63c0.57,0.85,0.62,2.01,0.19,2.94
				c-0.41,0.94-1.24,1.66-2.13,2.09c-0.9,0.44-1.87,0.7-2.84,0.83c-1.95,0.25-3.98,0.08-5.86-0.74c-0.92-0.42-1.79-1.05-2.42-1.89
				c-0.65-0.83-1.04-1.91-1.02-2.99c0.01-1.08,0.37-2.13,0.95-3.02c0.58-0.89,1.41-1.61,2.29-2.14c1.78-1.06,3.77-1.54,5.75-1.75
				c1.99-0.2,4-0.1,5.97,0.34c1.96,0.44,3.94,1.29,5.5,2.74c0.78,0.72,1.45,1.57,1.94,2.56c0.49,0.99,0.75,2.09,0.77,3.2
				c0.05,2.22-0.84,4.34-2.22,5.99c-1.41,1.67-3.26,2.77-5.15,3.55c-3.81,1.53-7.88,1.97-11.88,1.72c-2.01-0.14-4.01-0.46-5.98-1.05
				c-1.97-0.59-3.9-1.48-5.62-2.74c-1.73-1.25-3.21-2.86-4.29-4.81c-1.05-1.96-1.58-4.26-1.42-6.5c0.26-4.48,2.8-8.58,6.3-11.1
				c3.46-2.54,7.44-3.88,11.39-4.61c3.97-0.71,7.99-0.83,11.96-0.48c3.97,0.37,7.91,1.21,11.63,2.77c3.75,1.58,7.11,3.93,9.74,7.06
				c2.52,3.15,4.31,6.76,5.26,10.59c0.93,3.84,0.96,7.75,0.64,11.57c-0.23-3.83-0.62-7.67-1.93-11.19
				c-1.24-3.52-3.23-6.77-5.72-9.43c-1.25-1.31-2.68-2.43-4.23-3.39c-1.55-0.96-3.17-1.79-4.87-2.38
				c-3.43-1.24-7.11-1.81-10.78-2.02c-3.68-0.18-7.38,0.12-10.93,0.86c-3.53,0.77-6.98,1.99-9.77,3.94
				c-1.38,0.99-2.53,2.16-3.41,3.55c-0.87,1.38-1.47,2.95-1.61,4.54c-0.18,1.59,0.12,3.18,0.82,4.63c0.72,1.43,1.82,2.78,3.17,3.81
				c2.7,2.11,6.27,3.17,9.88,3.54c3.61,0.35,7.38,0.06,10.74-1.17c1.66-0.62,3.23-1.51,4.34-2.75c1.12-1.23,1.85-2.86,1.86-4.49
				c0.04-1.64-0.7-3.19-1.93-4.4c-1.22-1.21-2.85-2.01-4.61-2.46c-1.75-0.46-3.62-0.61-5.45-0.49c-1.82,0.13-3.67,0.52-5.22,1.38
				c-0.77,0.43-1.45,0.99-1.94,1.69c-0.49,0.7-0.8,1.53-0.84,2.37c-0.1,1.7,1.13,3.26,2.73,4.05c1.62,0.79,3.54,1.05,5.39,0.88
				c0.92-0.09,1.84-0.29,2.68-0.67c0.84-0.37,1.57-0.96,1.97-1.77c0.41-0.8,0.41-1.79-0.07-2.57c-0.47-0.78-1.29-1.35-2.19-1.59
				C732.78,57.23,730.77,57.63,729.08,58.52z"/>
		</g>
	</g>
	<g>
		<g>
			<path class="st7" d="M917.6,59.85c-1.68-0.89-3.69-1.29-5.52-0.78c-0.9,0.25-1.71,0.81-2.19,1.59c-0.47,0.78-0.47,1.77-0.07,2.57
				c0.4,0.81,1.13,1.41,1.97,1.77c0.84,0.37,1.75,0.58,2.68,0.67c1.84,0.17,3.77-0.09,5.39-0.88c1.6-0.79,2.84-2.35,2.73-4.05
				c-0.04-0.84-0.35-1.67-0.84-2.37c-0.49-0.7-1.17-1.25-1.94-1.69c-1.56-0.86-3.4-1.26-5.22-1.38c-1.83-0.12-3.69,0.03-5.45,0.49
				c-1.75,0.45-3.38,1.25-4.61,2.46c-1.24,1.22-1.98,2.77-1.93,4.4c0.01,1.63,0.74,3.26,1.86,4.49c1.11,1.24,2.68,2.13,4.34,2.75
				c3.36,1.23,7.13,1.52,10.74,1.17c3.62-0.37,7.19-1.42,9.88-3.54c1.35-1.03,2.45-2.38,3.17-3.81c0.69-1.44,1-3.04,0.82-4.63
				c-0.14-1.59-0.74-3.16-1.61-4.54c-0.88-1.39-2.03-2.56-3.41-3.55c-2.79-1.95-6.24-3.17-9.77-3.94
				c-3.55-0.75-7.25-1.04-10.93-0.86c-3.67,0.2-7.35,0.78-10.78,2.02c-1.7,0.59-3.33,1.42-4.87,2.38c-1.54,0.96-2.98,2.09-4.23,3.39
				c-2.49,2.66-4.48,5.91-5.72,9.43c-1.31,3.52-1.7,7.36-1.93,11.19c-0.32-3.82-0.29-7.74,0.64-11.57
				c0.95-3.83,2.75-7.44,5.26-10.59c2.62-3.12,5.99-5.48,9.74-7.06c3.72-1.56,7.66-2.41,11.63-2.77c3.97-0.35,7.99-0.23,11.96,0.48
				c3.96,0.73,7.93,2.07,11.39,4.61c3.49,2.52,6.03,6.63,6.3,11.1c0.16,2.23-0.37,4.54-1.42,6.5c-1.09,1.95-2.56,3.56-4.29,4.81
				c-1.72,1.25-3.65,2.14-5.62,2.74c-1.97,0.6-3.97,0.92-5.98,1.05c-4.01,0.24-8.07-0.19-11.88-1.72c-1.88-0.78-3.74-1.88-5.15-3.55
				c-1.39-1.65-2.27-3.77-2.22-5.99c0.02-1.1,0.29-2.21,0.77-3.2c0.49-0.99,1.16-1.84,1.94-2.56c1.56-1.44,3.54-2.3,5.5-2.74
				c1.97-0.44,3.99-0.53,5.97-0.34c1.98,0.21,3.97,0.69,5.75,1.75c0.88,0.53,1.7,1.24,2.29,2.14c0.58,0.89,0.93,1.93,0.95,3.02
				c0.02,1.08-0.37,2.16-1.02,2.99c-0.63,0.84-1.5,1.47-2.42,1.89c-1.87,0.82-3.9,0.99-5.86,0.74c-0.98-0.13-1.95-0.39-2.84-0.83
				c-0.89-0.43-1.72-1.15-2.13-2.09c-0.43-0.92-0.39-2.08,0.19-2.94c0.56-0.84,1.46-1.41,2.41-1.63
				C913.95,58.41,915.96,58.9,917.6,59.85z"/>
		</g>
		<g>
			<path class="st7" d="M842.4,59.07c1.65-0.95,3.65-1.45,5.57-1c0.95,0.22,1.85,0.79,2.41,1.63c0.57,0.85,0.62,2.01,0.19,2.94
				c-0.41,0.94-1.24,1.66-2.13,2.09c-0.9,0.44-1.87,0.7-2.84,0.83c-1.95,0.25-3.98,0.08-5.86-0.74c-0.92-0.42-1.79-1.05-2.42-1.89
				c-0.65-0.83-1.04-1.91-1.02-2.99c0.01-1.08,0.37-2.13,0.95-3.02c0.58-0.89,1.41-1.61,2.29-2.14c1.78-1.06,3.77-1.54,5.75-1.75
				c1.99-0.2,4-0.1,5.97,0.34c1.96,0.44,3.94,1.29,5.5,2.74c0.78,0.72,1.45,1.57,1.94,2.56c0.49,0.99,0.75,2.09,0.77,3.2
				c0.05,2.22-0.84,4.34-2.22,5.99c-1.41,1.67-3.26,2.77-5.15,3.55c-3.81,1.53-7.88,1.97-11.88,1.72c-2.01-0.14-4.01-0.46-5.98-1.05
				c-1.97-0.59-3.9-1.48-5.62-2.74c-1.73-1.25-3.21-2.86-4.29-4.81c-1.05-1.96-1.58-4.26-1.42-6.5c0.26-4.48,2.8-8.58,6.3-11.1
				c3.46-2.54,7.44-3.88,11.39-4.61c3.97-0.71,7.99-0.83,11.96-0.48c3.97,0.37,7.91,1.21,11.63,2.77c3.75,1.58,7.11,3.93,9.74,7.06
				c2.52,3.15,4.31,6.76,5.26,10.59c0.93,3.84,0.96,7.75,0.64,11.57c-0.23-3.83-0.62-7.67-1.93-11.19
				c-1.24-3.52-3.23-6.77-5.72-9.43c-1.25-1.31-2.68-2.43-4.23-3.39c-1.55-0.96-3.17-1.79-4.87-2.38
				c-3.43-1.24-7.11-1.81-10.78-2.02c-3.68-0.18-7.38,0.12-10.93,0.86c-3.53,0.77-6.98,1.99-9.77,3.94
				c-1.38,0.99-2.53,2.16-3.41,3.55c-0.87,1.38-1.47,2.95-1.61,4.54c-0.18,1.59,0.12,3.18,0.82,4.63c0.72,1.43,1.82,2.78,3.17,3.81
				c2.7,2.11,6.27,3.17,9.88,3.54c3.61,0.35,7.38,0.06,10.74-1.17c1.66-0.62,3.23-1.51,4.34-2.75c1.12-1.23,1.85-2.86,1.86-4.49
				c0.04-1.64-0.7-3.19-1.93-4.4c-1.22-1.21-2.85-2.01-4.61-2.46c-1.75-0.46-3.62-0.61-5.45-0.49c-1.82,0.13-3.67,0.52-5.22,1.38
				c-0.77,0.43-1.45,0.99-1.94,1.69c-0.49,0.7-0.8,1.53-0.84,2.37c-0.1,1.7,1.13,3.26,2.73,4.05c1.62,0.79,3.54,1.05,5.39,0.88
				c0.92-0.09,1.84-0.29,2.68-0.67c0.84-0.37,1.57-0.96,1.97-1.77c0.41-0.8,0.41-1.79-0.07-2.57c-0.47-0.78-1.29-1.35-2.19-1.59
				C846.1,57.79,844.09,58.19,842.4,59.07z"/>
		</g>
	</g>
	<g>
		<g>
			<path class="st7" d="M1031.74,61.21c-1.68-0.89-3.69-1.29-5.52-0.78c-0.9,0.25-1.71,0.81-2.19,1.59
				c-0.47,0.78-0.47,1.77-0.07,2.57c0.4,0.81,1.13,1.41,1.97,1.77c0.84,0.37,1.75,0.58,2.68,0.67c1.84,0.17,3.77-0.09,5.39-0.88
				c1.6-0.79,2.84-2.35,2.73-4.05c-0.04-0.84-0.35-1.67-0.84-2.37c-0.49-0.7-1.17-1.25-1.94-1.69c-1.56-0.86-3.4-1.26-5.22-1.38
				c-1.83-0.12-3.69,0.03-5.45,0.49c-1.75,0.45-3.38,1.25-4.61,2.46c-1.24,1.22-1.98,2.77-1.93,4.4c0.01,1.63,0.74,3.26,1.86,4.49
				c1.11,1.24,2.68,2.13,4.34,2.75c3.36,1.23,7.13,1.52,10.74,1.17c3.62-0.37,7.19-1.42,9.88-3.54c1.35-1.03,2.45-2.38,3.17-3.81
				c0.69-1.44,1-3.04,0.82-4.63c-0.14-1.59-0.74-3.16-1.61-4.54c-0.88-1.39-2.03-2.56-3.41-3.55c-2.79-1.95-6.24-3.17-9.77-3.94
				c-3.55-0.75-7.25-1.04-10.93-0.86c-3.67,0.2-7.35,0.78-10.78,2.02c-1.7,0.59-3.33,1.42-4.87,2.38c-1.54,0.96-2.98,2.09-4.23,3.39
				c-2.49,2.66-4.48,5.91-5.72,9.43c-1.31,3.52-1.7,7.36-1.93,11.19c-0.32-3.82-0.29-7.74,0.64-11.57
				c0.95-3.83,2.75-7.44,5.26-10.59c2.62-3.12,5.99-5.48,9.74-7.06c3.72-1.56,7.66-2.41,11.63-2.77c3.97-0.35,7.99-0.23,11.96,0.48
				c3.96,0.73,7.93,2.07,11.39,4.61c3.49,2.52,6.03,6.63,6.3,11.1c0.16,2.23-0.37,4.54-1.42,6.5c-1.09,1.95-2.56,3.56-4.29,4.81
				c-1.72,1.25-3.65,2.14-5.62,2.74c-1.97,0.6-3.97,0.92-5.98,1.05c-4.01,0.24-8.07-0.19-11.88-1.72c-1.88-0.78-3.74-1.88-5.15-3.55
				c-1.39-1.65-2.27-3.77-2.22-5.99c0.02-1.1,0.29-2.21,0.77-3.2c0.49-0.99,1.16-1.84,1.94-2.56c1.56-1.44,3.54-2.3,5.5-2.74
				c1.97-0.44,3.99-0.53,5.97-0.34c1.98,0.21,3.97,0.69,5.75,1.75c0.88,0.53,1.7,1.24,2.29,2.14c0.58,0.89,0.93,1.93,0.95,3.02
				c0.02,1.08-0.37,2.16-1.02,2.99c-0.63,0.84-1.5,1.47-2.42,1.89c-1.87,0.82-3.9,0.99-5.86,0.74c-0.98-0.13-1.95-0.39-2.84-0.83
				c-0.89-0.43-1.72-1.15-2.13-2.09c-0.43-0.92-0.39-2.08,0.19-2.94c0.56-0.84,1.46-1.41,2.41-1.63
				C1028.09,59.77,1030.09,60.26,1031.74,61.21z"/>
		</g>
		<g>
			<path class="st7" d="M956.54,60.44c1.65-0.95,3.65-1.45,5.57-1c0.95,0.22,1.85,0.79,2.41,1.63c0.57,0.85,0.62,2.01,0.19,2.94
				c-0.41,0.94-1.24,1.66-2.13,2.09c-0.9,0.44-1.87,0.7-2.84,0.83c-1.95,0.25-3.98,0.08-5.86-0.74c-0.92-0.42-1.79-1.05-2.42-1.89
				c-0.65-0.83-1.04-1.91-1.02-2.99c0.01-1.08,0.37-2.13,0.95-3.02c0.58-0.89,1.41-1.61,2.29-2.14c1.78-1.06,3.77-1.54,5.75-1.75
				c1.99-0.2,4-0.1,5.97,0.34c1.96,0.44,3.94,1.29,5.5,2.74c0.78,0.72,1.45,1.57,1.94,2.56c0.49,0.99,0.75,2.09,0.77,3.2
				c0.05,2.22-0.84,4.34-2.22,5.99c-1.41,1.67-3.26,2.77-5.15,3.55c-3.81,1.53-7.88,1.97-11.88,1.72c-2.01-0.14-4.01-0.46-5.98-1.05
				c-1.97-0.59-3.9-1.48-5.62-2.74c-1.73-1.25-3.21-2.86-4.29-4.81c-1.05-1.96-1.58-4.26-1.42-6.5c0.26-4.48,2.8-8.58,6.3-11.1
				c3.46-2.54,7.44-3.88,11.39-4.61c3.97-0.71,7.99-0.83,11.96-0.48c3.97,0.37,7.91,1.21,11.63,2.77c3.75,1.58,7.11,3.93,9.74,7.06
				c2.52,3.15,4.31,6.76,5.26,10.59c0.93,3.84,0.96,7.75,0.64,11.57c-0.23-3.83-0.62-7.67-1.93-11.19
				c-1.24-3.52-3.23-6.77-5.72-9.43c-1.25-1.31-2.68-2.43-4.23-3.39c-1.55-0.96-3.17-1.79-4.87-2.38
				c-3.43-1.24-7.11-1.81-10.78-2.02c-3.68-0.18-7.38,0.12-10.93,0.86c-3.53,0.77-6.98,1.99-9.77,3.94
				c-1.38,0.99-2.53,2.16-3.41,3.55c-0.87,1.38-1.47,2.95-1.61,4.54c-0.18,1.59,0.12,3.18,0.82,4.63c0.72,1.43,1.82,2.78,3.17,3.81
				c2.7,2.11,6.27,3.17,9.88,3.54c3.61,0.35,7.38,0.06,10.74-1.17c1.66-0.62,3.23-1.51,4.34-2.75c1.12-1.23,1.85-2.86,1.86-4.49
				c0.04-1.64-0.7-3.19-1.93-4.4c-1.22-1.21-2.85-2.01-4.61-2.46c-1.75-0.46-3.62-0.61-5.45-0.49c-1.82,0.13-3.67,0.52-5.22,1.38
				c-0.77,0.43-1.45,0.99-1.94,1.69c-0.49,0.7-0.8,1.53-0.84,2.37c-0.1,1.7,1.13,3.26,2.73,4.05c1.62,0.79,3.54,1.05,5.39,0.88
				c0.92-0.09,1.84-0.29,2.68-0.67c0.84-0.37,1.57-0.96,1.97-1.77c0.41-0.8,0.41-1.79-0.07-2.57c-0.47-0.78-1.29-1.35-2.19-1.59
				C960.24,59.15,958.23,59.55,956.54,60.44z"/>
		</g>
	</g>
	<g>
		<g>
			<path class="st7" d="M1145.06,61.77c-1.68-0.89-3.69-1.29-5.52-0.78c-0.9,0.25-1.71,0.81-2.19,1.59
				c-0.47,0.78-0.47,1.77-0.07,2.57c0.4,0.81,1.13,1.41,1.97,1.77c0.84,0.37,1.75,0.58,2.68,0.67c1.84,0.17,3.77-0.09,5.39-0.88
				c1.6-0.79,2.84-2.35,2.73-4.05c-0.04-0.84-0.35-1.67-0.84-2.37c-0.49-0.7-1.17-1.25-1.94-1.69c-1.56-0.86-3.4-1.26-5.22-1.38
				c-1.83-0.12-3.69,0.03-5.45,0.49c-1.75,0.45-3.38,1.25-4.61,2.46c-1.24,1.22-1.98,2.77-1.93,4.4c0.01,1.63,0.74,3.26,1.86,4.49
				c1.11,1.24,2.68,2.13,4.34,2.75c3.36,1.23,7.13,1.52,10.74,1.17c3.62-0.37,7.19-1.42,9.88-3.54c1.35-1.03,2.45-2.38,3.17-3.81
				c0.69-1.44,1-3.04,0.82-4.63c-0.14-1.59-0.74-3.16-1.61-4.54c-0.88-1.39-2.03-2.56-3.41-3.55c-2.79-1.95-6.24-3.17-9.77-3.94
				c-3.55-0.75-7.25-1.04-10.93-0.86c-3.67,0.2-7.35,0.78-10.78,2.02c-1.7,0.59-3.33,1.42-4.87,2.38c-1.54,0.96-2.98,2.09-4.23,3.39
				c-2.49,2.66-4.48,5.91-5.72,9.43c-1.31,3.52-1.7,7.36-1.93,11.19c-0.32-3.82-0.29-7.74,0.64-11.57
				c0.95-3.83,2.75-7.44,5.26-10.59c2.62-3.12,5.99-5.48,9.74-7.06c3.72-1.56,7.66-2.41,11.63-2.77c3.97-0.35,7.99-0.23,11.96,0.48
				c3.96,0.73,7.93,2.07,11.39,4.61c3.49,2.52,6.03,6.63,6.3,11.1c0.16,2.23-0.37,4.54-1.42,6.5c-1.09,1.95-2.56,3.56-4.29,4.81
				c-1.72,1.25-3.65,2.14-5.62,2.74c-1.97,0.6-3.97,0.92-5.98,1.05c-4.01,0.24-8.07-0.19-11.88-1.72c-1.88-0.78-3.74-1.88-5.15-3.55
				c-1.39-1.65-2.27-3.77-2.22-5.99c0.02-1.1,0.29-2.21,0.77-3.2c0.49-0.99,1.16-1.84,1.94-2.56c1.56-1.44,3.54-2.3,5.5-2.74
				c1.97-0.44,3.99-0.53,5.97-0.34c1.98,0.21,3.97,0.69,5.75,1.75c0.88,0.53,1.7,1.24,2.29,2.14c0.58,0.89,0.93,1.93,0.95,3.02
				c0.02,1.08-0.37,2.16-1.02,2.99c-0.63,0.84-1.5,1.47-2.42,1.89c-1.87,0.82-3.9,0.99-5.86,0.74c-0.98-0.13-1.95-0.39-2.84-0.83
				c-0.89-0.43-1.72-1.15-2.13-2.09c-0.43-0.92-0.39-2.08,0.19-2.94c0.56-0.84,1.46-1.41,2.41-1.63
				C1141.41,60.32,1143.42,60.82,1145.06,61.77z"/>
		</g>
		<g>
			<path class="st7" d="M1069.86,60.99c1.65-0.95,3.65-1.45,5.57-1c0.95,0.22,1.85,0.79,2.41,1.63c0.57,0.85,0.62,2.01,0.19,2.94
				c-0.41,0.94-1.24,1.66-2.13,2.09c-0.9,0.44-1.87,0.7-2.84,0.83c-1.95,0.25-3.98,0.08-5.86-0.74c-0.92-0.42-1.79-1.05-2.42-1.89
				c-0.65-0.83-1.04-1.91-1.02-2.99c0.01-1.08,0.37-2.13,0.95-3.02c0.58-0.89,1.41-1.61,2.29-2.14c1.78-1.06,3.77-1.54,5.75-1.75
				c1.99-0.2,4-0.1,5.97,0.34c1.96,0.44,3.94,1.29,5.5,2.74c0.78,0.72,1.45,1.57,1.94,2.56c0.49,0.99,0.75,2.09,0.77,3.2
				c0.05,2.22-0.84,4.34-2.22,5.99c-1.41,1.67-3.26,2.77-5.15,3.55c-3.81,1.53-7.88,1.97-11.88,1.72c-2.01-0.14-4.01-0.46-5.98-1.05
				c-1.97-0.59-3.9-1.48-5.62-2.74c-1.73-1.25-3.21-2.86-4.29-4.81c-1.05-1.96-1.58-4.26-1.42-6.5c0.26-4.48,2.8-8.58,6.3-11.1
				c3.46-2.54,7.44-3.88,11.39-4.61c3.97-0.71,7.99-0.83,11.96-0.48c3.97,0.37,7.91,1.21,11.63,2.77c3.75,1.58,7.11,3.93,9.74,7.06
				c2.52,3.15,4.31,6.76,5.26,10.59c0.93,3.84,0.96,7.75,0.64,11.57c-0.23-3.83-0.62-7.67-1.93-11.19
				c-1.24-3.52-3.23-6.77-5.72-9.43c-1.25-1.31-2.68-2.43-4.23-3.39c-1.55-0.96-3.17-1.79-4.87-2.38
				c-3.43-1.24-7.11-1.81-10.78-2.02c-3.68-0.18-7.38,0.12-10.93,0.86c-3.53,0.77-6.98,1.99-9.77,3.94
				c-1.38,0.99-2.53,2.16-3.41,3.55c-0.87,1.38-1.47,2.95-1.61,4.54c-0.18,1.59,0.12,3.18,0.82,4.63c0.72,1.43,1.82,2.78,3.17,3.81
				c2.7,2.11,6.27,3.17,9.88,3.54c3.61,0.35,7.38,0.06,10.74-1.17c1.66-0.62,3.23-1.51,4.34-2.75c1.12-1.23,1.85-2.86,1.86-4.49
				c0.04-1.64-0.7-3.19-1.93-4.4c-1.22-1.21-2.85-2.01-4.61-2.46c-1.75-0.46-3.62-0.61-5.45-0.49c-1.82,0.13-3.67,0.52-5.22,1.38
				c-0.77,0.43-1.45,0.99-1.94,1.69c-0.49,0.7-0.8,1.53-0.84,2.37c-0.1,1.7,1.13,3.26,2.73,4.05c1.62,0.79,3.54,1.05,5.39,0.88
				c0.92-0.09,1.84-0.29,2.68-0.67c0.84-0.37,1.57-0.96,1.97-1.77c0.41-0.8,0.41-1.79-0.07-2.57c-0.47-0.78-1.29-1.35-2.19-1.59
				C1073.56,59.7,1071.55,60.1,1069.86,60.99z"/>
		</g>
	</g>
	<g>
		<g>
			<path class="st7" d="M1258.4,61.49c-1.68-0.89-3.69-1.29-5.52-0.78c-0.9,0.25-1.71,0.81-2.19,1.59
				c-0.47,0.78-0.47,1.77-0.07,2.57c0.4,0.81,1.13,1.41,1.97,1.77c0.84,0.37,1.75,0.58,2.68,0.67c1.84,0.17,3.77-0.09,5.39-0.88
				c1.6-0.79,2.84-2.35,2.73-4.05c-0.04-0.84-0.35-1.67-0.84-2.37c-0.49-0.7-1.17-1.25-1.94-1.69c-1.56-0.86-3.4-1.26-5.22-1.38
				c-1.83-0.12-3.69,0.03-5.45,0.49c-1.75,0.45-3.38,1.25-4.61,2.46c-1.24,1.22-1.97,2.77-1.93,4.4c0.01,1.63,0.74,3.26,1.86,4.49
				c1.11,1.24,2.68,2.13,4.34,2.75c3.36,1.23,7.13,1.52,10.74,1.17c3.62-0.37,7.19-1.42,9.88-3.54c1.35-1.03,2.45-2.38,3.17-3.81
				c0.69-1.44,1-3.04,0.82-4.63c-0.14-1.59-0.74-3.16-1.61-4.54c-0.88-1.39-2.03-2.56-3.41-3.55c-2.79-1.95-6.24-3.17-9.77-3.94
				c-3.55-0.75-7.25-1.04-10.93-0.86c-3.67,0.2-7.35,0.78-10.78,2.02c-1.7,0.59-3.33,1.42-4.87,2.38c-1.54,0.96-2.98,2.09-4.23,3.39
				c-2.49,2.66-4.48,5.91-5.72,9.43c-1.31,3.52-1.7,7.36-1.93,11.19c-0.32-3.82-0.29-7.74,0.64-11.57
				c0.95-3.83,2.75-7.44,5.26-10.59c2.62-3.12,5.99-5.48,9.74-7.06c3.72-1.56,7.66-2.41,11.63-2.77c3.97-0.35,7.99-0.23,11.96,0.48
				c3.96,0.73,7.93,2.07,11.39,4.61c3.49,2.52,6.03,6.63,6.3,11.1c0.16,2.23-0.37,4.54-1.42,6.5c-1.09,1.95-2.56,3.56-4.29,4.81
				c-1.72,1.25-3.65,2.14-5.62,2.74c-1.97,0.6-3.97,0.92-5.98,1.05c-4.01,0.24-8.07-0.19-11.88-1.72c-1.88-0.78-3.74-1.88-5.15-3.55
				c-1.39-1.65-2.27-3.77-2.22-5.99c0.02-1.1,0.29-2.21,0.77-3.2c0.49-0.99,1.16-1.84,1.94-2.56c1.56-1.44,3.54-2.3,5.5-2.74
				c1.97-0.44,3.99-0.53,5.97-0.34c1.98,0.21,3.97,0.69,5.75,1.75c0.88,0.53,1.7,1.24,2.29,2.14c0.58,0.89,0.93,1.93,0.95,3.02
				c0.02,1.08-0.37,2.16-1.02,2.99c-0.63,0.84-1.5,1.47-2.42,1.89c-1.87,0.82-3.9,0.99-5.86,0.74c-0.98-0.13-1.95-0.39-2.84-0.83
				c-0.89-0.43-1.72-1.15-2.13-2.09c-0.43-0.92-0.39-2.08,0.19-2.94c0.56-0.84,1.46-1.41,2.41-1.63
				C1254.75,60.04,1256.76,60.54,1258.4,61.49z"/>
		</g>
		<g>
			<path class="st7" d="M1183.2,60.71c1.65-0.95,3.65-1.45,5.57-1c0.95,0.22,1.85,0.79,2.41,1.63c0.57,0.85,0.62,2.01,0.19,2.94
				c-0.41,0.94-1.24,1.66-2.13,2.09c-0.9,0.44-1.87,0.7-2.84,0.83c-1.95,0.25-3.98,0.08-5.86-0.74c-0.92-0.42-1.79-1.05-2.42-1.89
				c-0.65-0.83-1.04-1.91-1.02-2.99c0.01-1.08,0.37-2.13,0.95-3.02c0.58-0.89,1.41-1.61,2.29-2.14c1.78-1.06,3.77-1.54,5.75-1.75
				c1.99-0.2,4-0.1,5.97,0.34c1.96,0.44,3.94,1.29,5.5,2.74c0.78,0.72,1.45,1.57,1.94,2.56c0.49,0.99,0.75,2.09,0.77,3.2
				c0.05,2.22-0.84,4.34-2.22,5.99c-1.41,1.67-3.26,2.77-5.15,3.55c-3.81,1.53-7.88,1.97-11.88,1.72c-2.01-0.14-4.01-0.46-5.98-1.05
				c-1.97-0.59-3.9-1.48-5.62-2.74c-1.73-1.25-3.21-2.86-4.29-4.81c-1.05-1.96-1.58-4.26-1.42-6.5c0.26-4.48,2.8-8.58,6.3-11.1
				c3.46-2.54,7.44-3.88,11.39-4.61c3.97-0.71,7.99-0.83,11.96-0.48c3.97,0.37,7.91,1.21,11.63,2.77c3.75,1.58,7.11,3.93,9.74,7.06
				c2.52,3.15,4.31,6.76,5.26,10.59c0.93,3.84,0.96,7.75,0.64,11.57c-0.23-3.83-0.62-7.67-1.93-11.19
				c-1.24-3.52-3.23-6.77-5.72-9.43c-1.25-1.31-2.68-2.43-4.23-3.39c-1.55-0.96-3.17-1.79-4.87-2.38
				c-3.43-1.24-7.11-1.81-10.78-2.02c-3.68-0.18-7.38,0.12-10.93,0.86c-3.53,0.77-6.98,1.99-9.77,3.94
				c-1.38,0.99-2.53,2.16-3.41,3.55c-0.87,1.38-1.47,2.95-1.61,4.54c-0.18,1.59,0.12,3.18,0.82,4.63c0.72,1.43,1.82,2.78,3.17,3.81
				c2.7,2.11,6.27,3.17,9.88,3.54c3.61,0.35,7.38,0.06,10.74-1.17c1.66-0.62,3.23-1.51,4.34-2.75c1.12-1.23,1.85-2.86,1.86-4.49
				c0.04-1.64-0.7-3.19-1.93-4.4c-1.22-1.21-2.85-2.01-4.61-2.46c-1.75-0.46-3.62-0.61-5.45-0.49c-1.82,0.13-3.67,0.52-5.22,1.38
				c-0.77,0.43-1.45,0.99-1.94,1.69c-0.49,0.7-0.8,1.53-0.84,2.37c-0.1,1.7,1.13,3.26,2.73,4.05c1.62,0.79,3.54,1.05,5.39,0.88
				c0.92-0.09,1.84-0.29,2.68-0.67c0.84-0.37,1.57-0.96,1.97-1.77c0.41-0.8,0.41-1.79-0.07-2.57c-0.47-0.78-1.29-1.35-2.19-1.59
				C1186.9,59.43,1184.89,59.83,1183.2,60.71z"/>
		</g>
	</g>
	<g>
		<g>
			<path class="st7" d="M1371.73,62.04c-1.68-0.89-3.69-1.29-5.52-0.78c-0.9,0.25-1.71,0.81-2.19,1.59
				c-0.47,0.78-0.47,1.77-0.07,2.57c0.4,0.81,1.13,1.41,1.97,1.77c0.84,0.37,1.75,0.58,2.68,0.67c1.84,0.17,3.77-0.09,5.39-0.88
				c1.6-0.79,2.84-2.35,2.73-4.05c-0.04-0.84-0.35-1.67-0.84-2.37c-0.49-0.7-1.17-1.25-1.94-1.69c-1.56-0.86-3.4-1.26-5.22-1.38
				c-1.83-0.12-3.69,0.03-5.45,0.49c-1.75,0.45-3.38,1.25-4.61,2.46c-1.24,1.22-1.97,2.77-1.93,4.4c0.01,1.63,0.74,3.26,1.86,4.49
				c1.11,1.24,2.68,2.13,4.34,2.75c3.36,1.23,7.13,1.52,10.74,1.17c3.62-0.37,7.19-1.42,9.88-3.54c1.35-1.03,2.45-2.38,3.17-3.81
				c0.69-1.44,1-3.04,0.82-4.63c-0.14-1.59-0.74-3.16-1.61-4.54c-0.88-1.39-2.03-2.56-3.41-3.55c-2.79-1.95-6.24-3.17-9.77-3.94
				c-3.55-0.75-7.25-1.04-10.93-0.86c-3.67,0.2-7.35,0.78-10.78,2.02c-1.7,0.59-3.33,1.42-4.87,2.38c-1.54,0.96-2.98,2.09-4.23,3.39
				c-2.49,2.66-4.48,5.91-5.72,9.43c-1.31,3.52-1.7,7.36-1.93,11.19c-0.32-3.82-0.29-7.74,0.64-11.57
				c0.95-3.83,2.75-7.44,5.26-10.59c2.62-3.12,5.99-5.48,9.74-7.06c3.72-1.56,7.66-2.41,11.63-2.77c3.97-0.35,7.99-0.23,11.96,0.48
				c3.96,0.73,7.93,2.07,11.39,4.61c3.49,2.52,6.03,6.63,6.3,11.1c0.16,2.23-0.37,4.54-1.42,6.5c-1.09,1.95-2.56,3.56-4.29,4.81
				c-1.72,1.25-3.65,2.14-5.62,2.74c-1.97,0.6-3.97,0.92-5.98,1.05c-4.01,0.24-8.07-0.19-11.88-1.72c-1.88-0.78-3.74-1.88-5.15-3.55
				c-1.39-1.65-2.27-3.77-2.22-5.99c0.02-1.1,0.29-2.21,0.77-3.2c0.49-0.99,1.16-1.84,1.94-2.56c1.56-1.44,3.54-2.3,5.5-2.74
				c1.97-0.44,3.99-0.53,5.97-0.34c1.98,0.21,3.97,0.69,5.75,1.75c0.88,0.53,1.7,1.24,2.29,2.14c0.58,0.89,0.93,1.93,0.95,3.02
				c0.02,1.08-0.37,2.16-1.02,2.99c-0.63,0.84-1.5,1.47-2.42,1.89c-1.87,0.82-3.9,0.99-5.86,0.74c-0.98-0.13-1.95-0.39-2.84-0.83
				c-0.89-0.43-1.72-1.15-2.13-2.09c-0.43-0.92-0.39-2.08,0.19-2.94c0.56-0.84,1.46-1.41,2.41-1.63
				C1368.07,60.6,1370.08,61.1,1371.73,62.04z"/>
		</g>
		<g>
			<path class="st7" d="M1296.53,61.27c1.65-0.95,3.65-1.45,5.57-1c0.95,0.22,1.85,0.79,2.41,1.63c0.57,0.85,0.62,2.01,0.19,2.94
				c-0.41,0.94-1.24,1.66-2.13,2.09c-0.9,0.44-1.87,0.7-2.84,0.83c-1.95,0.25-3.98,0.08-5.86-0.74c-0.92-0.42-1.79-1.05-2.42-1.89
				c-0.65-0.83-1.04-1.91-1.02-2.99c0.01-1.08,0.37-2.13,0.95-3.02c0.58-0.89,1.41-1.61,2.29-2.14c1.78-1.06,3.77-1.54,5.75-1.75
				c1.99-0.2,4-0.1,5.97,0.34c1.96,0.44,3.94,1.29,5.5,2.74c0.78,0.72,1.45,1.57,1.94,2.56c0.49,0.99,0.75,2.09,0.77,3.2
				c0.05,2.22-0.84,4.34-2.22,5.99c-1.41,1.67-3.26,2.77-5.15,3.55c-3.81,1.53-7.88,1.97-11.88,1.72c-2.01-0.14-4.01-0.46-5.98-1.05
				c-1.97-0.59-3.9-1.48-5.62-2.74c-1.73-1.25-3.21-2.86-4.29-4.81c-1.05-1.96-1.58-4.26-1.42-6.5c0.26-4.48,2.8-8.58,6.3-11.1
				c3.46-2.54,7.44-3.88,11.39-4.61c3.97-0.71,7.99-0.83,11.96-0.48c3.97,0.37,7.91,1.21,11.63,2.77c3.75,1.58,7.11,3.93,9.74,7.06
				c2.52,3.15,4.31,6.76,5.26,10.59c0.93,3.84,0.96,7.75,0.64,11.57c-0.23-3.83-0.62-7.67-1.93-11.19
				c-1.24-3.52-3.23-6.77-5.72-9.43c-1.25-1.31-2.68-2.43-4.23-3.39c-1.55-0.96-3.17-1.79-4.87-2.38
				c-3.43-1.24-7.11-1.81-10.78-2.02c-3.68-0.18-7.38,0.12-10.93,0.86c-3.53,0.77-6.98,1.99-9.77,3.94
				c-1.38,0.99-2.53,2.16-3.41,3.55c-0.87,1.38-1.47,2.95-1.61,4.54c-0.18,1.59,0.12,3.18,0.82,4.63c0.72,1.43,1.82,2.78,3.17,3.81
				c2.7,2.11,6.27,3.17,9.88,3.54c3.61,0.35,7.38,0.06,10.74-1.17c1.66-0.62,3.23-1.51,4.34-2.75c1.12-1.23,1.85-2.86,1.86-4.49
				c0.04-1.64-0.7-3.19-1.93-4.4c-1.22-1.21-2.85-2.01-4.61-2.46c-1.75-0.46-3.62-0.61-5.45-0.49c-1.82,0.13-3.67,0.52-5.22,1.38
				c-0.77,0.43-1.45,0.99-1.94,1.69c-0.49,0.7-0.8,1.53-0.84,2.37c-0.1,1.7,1.13,3.26,2.73,4.05c1.62,0.79,3.54,1.05,5.39,0.88
				c0.92-0.09,1.84-0.29,2.68-0.67c0.84-0.37,1.57-0.96,1.97-1.77c0.41-0.8,0.41-1.79-0.07-2.57c-0.47-0.78-1.29-1.35-2.19-1.59
				C1300.22,59.98,1298.21,60.38,1296.53,61.27z"/>
		</g>
	</g>
	<g>
		<path class="st7" d="M15.45,59.27c-1.68-0.89-3.69-1.29-5.52-0.78c-0.9,0.25-1.71,0.81-2.19,1.59c-0.47,0.78-0.47,1.77-0.07,2.57
			c0.4,0.81,1.13,1.41,1.97,1.77c0.84,0.37,1.75,0.58,2.68,0.67c1.84,0.17,3.77-0.09,5.39-0.88c1.6-0.79,2.84-2.35,2.73-4.05
			c-0.04-0.84-0.35-1.67-0.84-2.37c-0.49-0.7-1.17-1.25-1.94-1.69c-1.56-0.86-3.4-1.26-5.22-1.38c-1.83-0.12-3.69,0.03-5.45,0.49
			c-1.75,0.45-3.38,1.25-4.61,2.46c-1.24,1.22-1.98,2.77-1.93,4.4c0.01,1.63,0.74,3.26,1.86,4.49c1.11,1.24,2.68,2.13,4.34,2.75
			c3.36,1.23,7.13,1.52,10.74,1.17c3.62-0.37,7.19-1.42,9.88-3.54c1.35-1.03,2.45-2.38,3.17-3.81c0.69-1.44,1-3.04,0.82-4.63
			c-0.14-1.59-0.74-3.16-1.61-4.54c-0.88-1.39-2.03-2.56-3.41-3.55c-2.79-1.95-6.24-3.17-9.77-3.94c-3.55-0.75-7.25-1.04-10.93-0.86
			c-3.67,0.2-7.35,0.78-10.78,2.02c-1.7,0.59-3.33,1.42-4.87,2.38c-1.54,0.96-2.98,2.09-4.23,3.39c-2.49,2.66-4.48,5.91-5.72,9.43
			c-1.31,3.52-1.7,7.36-1.93,11.19c-0.32-3.82-0.29-7.74,0.64-11.57c0.95-3.83,2.75-7.44,5.26-10.59c2.62-3.12,5.99-5.48,9.74-7.06
			c3.72-1.56,7.66-2.41,11.63-2.77c3.97-0.35,7.99-0.23,11.96,0.48c3.96,0.73,7.93,2.07,11.39,4.61c3.49,2.52,6.03,6.63,6.3,11.1
			c0.16,2.23-0.37,4.54-1.42,6.5c-1.09,1.95-2.56,3.56-4.29,4.81c-1.72,1.25-3.65,2.14-5.62,2.74c-1.97,0.6-3.97,0.92-5.98,1.05
			c-4.01,0.24-8.07-0.19-11.88-1.72c-1.88-0.78-3.74-1.88-5.15-3.55c-1.39-1.65-2.27-3.77-2.22-5.99c0.02-1.1,0.29-2.21,0.77-3.2
			c0.49-0.99,1.16-1.84,1.94-2.56c1.56-1.44,3.54-2.3,5.5-2.74c1.97-0.44,3.99-0.53,5.97-0.34c1.98,0.21,3.97,0.69,5.75,1.75
			c0.88,0.53,1.7,1.24,2.29,2.14c0.58,0.89,0.93,1.93,0.95,3.02c0.02,1.08-0.37,2.16-1.02,2.99c-0.63,0.84-1.5,1.47-2.42,1.89
			c-1.87,0.82-3.9,0.99-5.86,0.74c-0.98-0.13-1.95-0.39-2.84-0.83c-0.89-0.43-1.72-1.15-2.13-2.09c-0.43-0.92-0.39-2.08,0.19-2.94
			c0.56-0.84,1.46-1.41,2.41-1.63C11.79,57.83,13.8,58.32,15.45,59.27z"/>
	</g>
	<g>
		<g>
			<path class="st7" d="M128.13,57.72c-1.68-0.89-3.69-1.29-5.52-0.78c-0.9,0.25-1.71,0.81-2.19,1.59
				c-0.47,0.78-0.47,1.77-0.07,2.57c0.4,0.81,1.13,1.41,1.97,1.77c0.84,0.37,1.75,0.58,2.68,0.67c1.84,0.17,3.77-0.09,5.39-0.88
				c1.6-0.79,2.84-2.35,2.73-4.05c-0.04-0.84-0.35-1.67-0.84-2.37c-0.49-0.7-1.17-1.25-1.94-1.69c-1.56-0.86-3.4-1.26-5.22-1.38
				c-1.83-0.12-3.69,0.03-5.45,0.49c-1.75,0.45-3.38,1.25-4.61,2.46c-1.24,1.22-1.98,2.77-1.93,4.4c0.01,1.63,0.74,3.26,1.86,4.49
				c1.11,1.24,2.68,2.13,4.34,2.75c3.36,1.23,7.13,1.52,10.74,1.17c3.62-0.37,7.19-1.42,9.88-3.54c1.35-1.03,2.45-2.38,3.17-3.81
				c0.69-1.44,1-3.04,0.82-4.63c-0.14-1.59-0.74-3.16-1.61-4.54c-0.88-1.39-2.03-2.56-3.41-3.55c-2.79-1.95-6.24-3.17-9.77-3.94
				c-3.55-0.75-7.25-1.04-10.93-0.86c-3.67,0.2-7.35,0.78-10.78,2.02c-1.7,0.59-3.33,1.42-4.87,2.38c-1.54,0.96-2.98,2.09-4.23,3.39
				c-2.49,2.66-4.48,5.91-5.72,9.43c-1.31,3.52-1.7,7.36-1.93,11.19c-0.32-3.82-0.29-7.74,0.64-11.57
				c0.95-3.83,2.75-7.44,5.26-10.59c2.62-3.12,5.99-5.48,9.74-7.06c3.72-1.56,7.66-2.41,11.63-2.77c3.97-0.35,7.99-0.23,11.96,0.48
				c3.96,0.73,7.93,2.07,11.39,4.61c3.49,2.52,6.03,6.63,6.3,11.1c0.16,2.23-0.37,4.54-1.42,6.5c-1.09,1.95-2.56,3.56-4.29,4.81
				c-1.72,1.25-3.65,2.14-5.62,2.74c-1.97,0.6-3.97,0.92-5.98,1.05c-4.01,0.24-8.07-0.19-11.88-1.72c-1.88-0.78-3.74-1.88-5.15-3.55
				c-1.39-1.65-2.27-3.77-2.22-5.99c0.02-1.1,0.29-2.21,0.77-3.2c0.49-0.99,1.16-1.84,1.94-2.56c1.56-1.44,3.54-2.3,5.5-2.74
				c1.97-0.44,3.99-0.53,5.97-0.34c1.98,0.21,3.97,0.69,5.75,1.75c0.88,0.53,1.7,1.24,2.29,2.14c0.58,0.89,0.93,1.93,0.95,3.02
				c0.02,1.08-0.37,2.16-1.02,2.99c-0.63,0.84-1.5,1.47-2.42,1.89c-1.87,0.82-3.9,0.99-5.86,0.74c-0.98-0.13-1.95-0.39-2.84-0.83
				c-0.89-0.43-1.72-1.15-2.13-2.09c-0.43-0.92-0.39-2.08,0.19-2.94c0.56-0.84,1.46-1.41,2.41-1.63
				C124.47,56.27,126.48,56.77,128.13,57.72z"/>
		</g>
		<g>
			<path class="st7" d="M52.93,56.94c1.65-0.95,3.65-1.45,5.57-1c0.95,0.22,1.85,0.79,2.41,1.63c0.57,0.85,0.62,2.01,0.19,2.94
				c-0.41,0.94-1.24,1.66-2.13,2.09c-0.9,0.44-1.87,0.7-2.84,0.83c-1.95,0.25-3.98,0.08-5.86-0.74c-0.92-0.42-1.79-1.05-2.42-1.89
				c-0.65-0.83-1.04-1.91-1.02-2.99c0.01-1.08,0.37-2.13,0.95-3.02c0.58-0.89,1.41-1.61,2.29-2.14c1.78-1.06,3.77-1.54,5.75-1.75
				c1.99-0.2,4-0.1,5.97,0.34c1.96,0.44,3.94,1.29,5.5,2.74c0.78,0.72,1.45,1.57,1.94,2.56c0.49,0.99,0.75,2.09,0.77,3.2
				c0.05,2.22-0.84,4.34-2.22,5.99c-1.41,1.67-3.26,2.77-5.15,3.55c-3.81,1.53-7.88,1.97-11.88,1.72c-2.01-0.14-4.01-0.46-5.98-1.05
				c-1.97-0.59-3.9-1.48-5.62-2.74c-1.73-1.25-3.21-2.86-4.29-4.81c-1.05-1.96-1.58-4.26-1.42-6.5c0.26-4.48,2.8-8.58,6.3-11.1
				c3.46-2.54,7.44-3.88,11.39-4.61c3.97-0.71,7.99-0.83,11.96-0.48c3.97,0.37,7.91,1.21,11.63,2.77c3.75,1.58,7.11,3.93,9.74,7.06
				c2.52,3.15,4.31,6.76,5.26,10.59c0.93,3.84,0.96,7.75,0.64,11.57c-0.23-3.83-0.62-7.67-1.93-11.19
				c-1.24-3.52-3.23-6.77-5.72-9.43c-1.25-1.31-2.68-2.43-4.23-3.39c-1.55-0.96-3.17-1.79-4.87-2.38
				c-3.43-1.24-7.11-1.81-10.78-2.02c-3.68-0.18-7.38,0.12-10.93,0.86c-3.53,0.77-6.98,1.99-9.77,3.94
				c-1.38,0.99-2.53,2.16-3.41,3.55c-0.87,1.38-1.47,2.95-1.61,4.54c-0.18,1.59,0.12,3.18,0.82,4.63c0.72,1.43,1.82,2.78,3.17,3.81
				c2.7,2.11,6.27,3.17,9.88,3.54c3.61,0.35,7.38,0.06,10.74-1.17c1.66-0.62,3.23-1.51,4.34-2.75c1.12-1.23,1.85-2.86,1.86-4.49
				c0.04-1.64-0.7-3.19-1.93-4.4c-1.22-1.21-2.85-2.01-4.61-2.46c-1.75-0.46-3.62-0.61-5.45-0.49c-1.82,0.13-3.67,0.52-5.22,1.38
				c-0.77,0.43-1.45,0.99-1.94,1.69c-0.49,0.7-0.8,1.53-0.84,2.37c-0.1,1.7,1.13,3.26,2.73,4.05c1.62,0.79,3.54,1.05,5.39,0.88
				c0.92-0.09,1.84-0.29,2.68-0.67c0.84-0.37,1.57-0.96,1.97-1.77c0.41-0.8,0.41-1.79-0.07-2.57c-0.47-0.78-1.29-1.35-2.19-1.59
				C56.62,55.65,54.61,56.05,52.93,56.94z"/>
		</g>
	</g>
	<g>
		<g>
			<path class="st7" d="M241.45,58.27c-1.68-0.89-3.69-1.29-5.52-0.78c-0.9,0.25-1.71,0.81-2.19,1.59
				c-0.47,0.78-0.47,1.77-0.07,2.57c0.4,0.81,1.13,1.41,1.97,1.77c0.84,0.37,1.75,0.58,2.68,0.67c1.84,0.17,3.77-0.09,5.39-0.88
				c1.6-0.79,2.84-2.35,2.73-4.05c-0.04-0.84-0.35-1.67-0.84-2.37c-0.49-0.7-1.17-1.25-1.94-1.69c-1.56-0.86-3.4-1.26-5.22-1.38
				c-1.83-0.12-3.69,0.03-5.45,0.49c-1.75,0.45-3.38,1.25-4.61,2.46c-1.24,1.22-1.98,2.77-1.93,4.4c0.01,1.63,0.74,3.26,1.86,4.49
				c1.11,1.24,2.68,2.13,4.34,2.75c3.36,1.23,7.13,1.52,10.74,1.17c3.62-0.37,7.19-1.42,9.88-3.54c1.35-1.03,2.45-2.38,3.17-3.81
				c0.69-1.44,1-3.04,0.82-4.63c-0.14-1.59-0.74-3.16-1.61-4.54c-0.88-1.39-2.03-2.56-3.41-3.55c-2.79-1.95-6.24-3.17-9.77-3.94
				c-3.55-0.75-7.25-1.04-10.93-0.86c-3.67,0.2-7.35,0.78-10.78,2.02c-1.7,0.59-3.33,1.42-4.87,2.38c-1.54,0.96-2.98,2.09-4.23,3.39
				c-2.49,2.66-4.48,5.91-5.72,9.43c-1.31,3.52-1.7,7.36-1.93,11.19c-0.32-3.82-0.29-7.74,0.64-11.57
				c0.95-3.83,2.75-7.44,5.26-10.59c2.62-3.12,5.99-5.48,9.74-7.06c3.72-1.56,7.66-2.41,11.63-2.77c3.97-0.35,7.99-0.23,11.96,0.48
				c3.96,0.73,7.93,2.07,11.39,4.61c3.49,2.52,6.03,6.63,6.3,11.1c0.16,2.23-0.37,4.54-1.42,6.5c-1.09,1.95-2.56,3.56-4.29,4.81
				c-1.72,1.25-3.65,2.14-5.62,2.74c-1.97,0.6-3.97,0.92-5.98,1.05c-4.01,0.24-8.07-0.19-11.88-1.72c-1.88-0.78-3.74-1.88-5.15-3.55
				c-1.39-1.65-2.27-3.77-2.22-5.99c0.02-1.1,0.29-2.21,0.77-3.2c0.49-0.99,1.16-1.84,1.94-2.56c1.56-1.44,3.54-2.3,5.5-2.74
				c1.97-0.44,3.99-0.53,5.97-0.34c1.98,0.21,3.97,0.69,5.75,1.75c0.88,0.53,1.7,1.24,2.29,2.14c0.58,0.89,0.93,1.93,0.95,3.02
				c0.02,1.08-0.37,2.16-1.02,2.99c-0.63,0.84-1.5,1.47-2.42,1.89c-1.87,0.82-3.9,0.99-5.86,0.74c-0.98-0.13-1.95-0.39-2.84-0.83
				c-0.89-0.43-1.72-1.15-2.13-2.09c-0.43-0.92-0.39-2.08,0.19-2.94c0.56-0.84,1.46-1.41,2.41-1.63
				C237.79,56.83,239.8,57.32,241.45,58.27z"/>
		</g>
		<g>
			<path class="st7" d="M166.25,57.49c1.65-0.95,3.65-1.45,5.57-1c0.95,0.22,1.85,0.79,2.41,1.63c0.57,0.85,0.62,2.01,0.19,2.94
				c-0.41,0.94-1.24,1.66-2.13,2.09c-0.9,0.44-1.87,0.7-2.84,0.83c-1.95,0.25-3.98,0.08-5.86-0.74c-0.92-0.42-1.79-1.05-2.42-1.89
				c-0.65-0.83-1.04-1.91-1.02-2.99c0.01-1.08,0.37-2.13,0.95-3.02c0.58-0.89,1.41-1.61,2.29-2.14c1.78-1.06,3.77-1.54,5.75-1.75
				c1.99-0.2,4-0.1,5.97,0.34c1.96,0.44,3.94,1.29,5.5,2.74c0.78,0.72,1.45,1.57,1.94,2.56c0.49,0.99,0.75,2.09,0.77,3.2
				c0.05,2.22-0.84,4.34-2.22,5.99c-1.41,1.67-3.26,2.77-5.15,3.55c-3.81,1.53-7.88,1.97-11.88,1.72c-2.01-0.14-4.01-0.46-5.98-1.05
				c-1.97-0.59-3.9-1.48-5.62-2.74c-1.73-1.25-3.21-2.86-4.29-4.81c-1.05-1.96-1.58-4.26-1.42-6.5c0.26-4.48,2.8-8.58,6.3-11.1
				c3.46-2.54,7.44-3.88,11.39-4.61c3.97-0.71,7.99-0.83,11.96-0.48c3.97,0.37,7.91,1.21,11.63,2.77c3.75,1.58,7.11,3.93,9.74,7.06
				c2.52,3.15,4.31,6.76,5.26,10.59c0.93,3.84,0.96,7.75,0.64,11.57c-0.23-3.83-0.62-7.67-1.93-11.19
				c-1.24-3.52-3.23-6.77-5.72-9.43c-1.25-1.31-2.68-2.43-4.23-3.39c-1.55-0.96-3.17-1.79-4.87-2.38
				c-3.43-1.24-7.11-1.81-10.78-2.02c-3.68-0.18-7.38,0.12-10.93,0.86c-3.53,0.77-6.98,1.99-9.77,3.94
				c-1.38,0.99-2.53,2.16-3.41,3.55c-0.87,1.38-1.47,2.95-1.61,4.54c-0.18,1.59,0.12,3.18,0.82,4.63c0.72,1.43,1.82,2.78,3.17,3.81
				c2.7,2.11,6.27,3.17,9.88,3.54c3.61,0.35,7.38,0.06,10.74-1.17c1.66-0.62,3.23-1.51,4.34-2.75c1.12-1.23,1.85-2.86,1.86-4.49
				c0.04-1.64-0.7-3.19-1.93-4.4c-1.22-1.21-2.85-2.01-4.61-2.46c-1.75-0.46-3.62-0.61-5.45-0.49c-1.82,0.13-3.67,0.52-5.22,1.38
				c-0.77,0.43-1.45,0.99-1.94,1.69c-0.49,0.7-0.8,1.53-0.84,2.37c-0.1,1.7,1.13,3.26,2.73,4.05c1.62,0.79,3.54,1.05,5.39,0.88
				c0.92-0.09,1.84-0.29,2.68-0.67c0.84-0.37,1.57-0.96,1.97-1.77c0.41-0.8,0.41-1.79-0.07-2.57c-0.47-0.78-1.29-1.35-2.19-1.59
				C169.94,56.21,167.93,56.61,166.25,57.49z"/>
		</g>
	</g>
	<g class="st2">
		
			<linearGradient id="SVGID_4_" gradientUnits="userSpaceOnUse" x1="-206.1055" y1="-271" x2="-72.3384" y2="-271" gradientTransform="matrix(0 -2.4863 -1 0 413.5 -102.4476)">
			<stop  offset="0" style="stop-color:#E9A900;stop-opacity:0"/>
			<stop  offset="0.0994" style="stop-color:#E3A500;stop-opacity:9.946979e-03"/>
			<stop  offset="0.2312" style="stop-color:#D29900;stop-opacity:0.0231"/>
			<stop  offset="0.3815" style="stop-color:#B78400;stop-opacity:0.0382"/>
			<stop  offset="0.5452" style="stop-color:#906900;stop-opacity:0.0546"/>
			<stop  offset="0.72" style="stop-color:#5F4500;stop-opacity:0.0721"/>
			<stop  offset="0.9012" style="stop-color:#231A00;stop-opacity:0.0902"/>
			<stop  offset="0.9988" style="stop-color:#000000;stop-opacity:0.1"/>
			<stop  offset="1" style="stop-color:#AF7A00;stop-opacity:0.9148"/>
		</linearGradient>
		<rect x="3" y="77.41" class="st8" width="1363" height="332.59"/>
	</g>
	<g>
		<path class="st5" d="M313.5,91.03c-53.83-2.09-108.44-3.15-162.31-3.15h-1.3C96.81,87.9,43,88.95-10.07,90.99V25.01
			C43,27.05,96.81,28.1,149.89,28.11h1.3c53.91,0,108.54-1.06,162.4-3.15c6.12,6.44,12.77,12.49,19.76,18.01
			c6.03,4.76,12.41,9.18,18.99,13.19c-7.17,4.72-14.01,9.99-20.38,15.68C325.34,77.75,319.13,84.2,313.5,91.03z"/>
		<path class="st7" d="M312.8,26.92c6.02,6.27,12.52,12.17,19.36,17.56c5.3,4.19,10.88,8.12,16.63,11.74
			c-6.34,4.33-12.41,9.08-18.11,14.17c-6.45,5.76-12.52,12.04-18.05,18.68c-53.55-2.06-107.85-3.11-161.43-3.11l-1.3,0
			C97.45,85.98,44.3,86.99-8.14,88.99V27.01c52.44,1.99,105.59,3.01,158.03,3.03l1.3,0C204.83,30.04,259.19,28.99,312.8,26.92
			 M314.39,23c-52.49,2.05-106.93,3.18-163.2,3.18c-0.43,0-0.87,0-1.3,0C94.09,26.16,40.08,25.03-12,23c0,23.33,0,46.67,0,70
			c52.08-2.03,106.09-3.16,161.89-3.18c0.44,0,0.86,0,1.3,0c56.27,0,110.71,1.13,163.2,3.18c4.94-6.07,11.16-12.86,18.86-19.73
			c8.05-7.19,15.88-12.82,22.76-17.18c-6.58-3.85-13.88-8.66-21.46-14.64C326.5,35.11,319.83,28.77,314.39,23L314.39,23z"/>
	</g>
	<g>
		<path class="st7" d="M326.16,37.55c-3.99-4.47-8.34-8.67-13.43-11.67c-1.27-0.75-2.58-1.43-3.93-2.07
			c-1.35-0.64-2.74-1.23-4.15-1.98c-1.4-0.74-2.8-1.78-3.84-3.12c-1.02-1.34-1.72-2.83-2.23-4.34c-0.56-1.62-0.64-3.46-0.15-5.12
			c0.46-1.67,1.4-3.13,2.49-4.34c2.24-2.42,5.09-4.03,8.06-5.09c2.99-1.05,6.17-1.56,9.4-1.28c3.21,0.31,6.37,1.56,8.84,3.71
			c2.48,2.12,4.17,5.32,4.21,8.67c0.06,1.68-0.38,3.4-1.22,4.85c-0.83,1.46-2.02,2.67-3.38,3.58c-2.74,1.82-6.09,2.5-9.32,1.94
			c-1.6-0.33-3.16-0.97-4.44-2.02c-1.29-1.02-2.31-2.45-2.76-4.07c-0.48-1.59-0.34-3.44,0.51-4.91c0.83-1.48,2.22-2.54,3.73-3.11
			c1.52-0.57,3.18-0.73,4.78-0.35c1.58,0.39,3.06,1.37,3.84,2.85c0.39,0.73,0.6,1.57,0.54,2.39c-0.04,0.85-0.39,1.65-0.92,2.27
			c-1.08,1.26-2.76,1.8-4.33,1.65c-1.57-0.14-3.13-1.3-3.3-2.94c-0.1-0.8,0.27-1.61,0.87-2.09c0.59-0.5,1.38-0.73,2.13-0.71
			c-0.76,0.02-1.51,0.29-2.05,0.8c-0.55,0.5-0.83,1.25-0.7,1.97c0.21,1.47,1.68,2.45,3.09,2.52c1.43,0.08,2.93-0.5,3.79-1.61
			c0.9-1.09,0.85-2.67,0.14-3.84c-0.68-1.2-1.97-2.01-3.32-2.29c-1.36-0.29-2.85-0.1-4.13,0.44c-1.29,0.53-2.41,1.48-3.03,2.67
			c-0.63,1.18-0.69,2.6-0.27,3.89c0.82,2.61,3.4,4.44,6.12,4.89c2.74,0.43,5.74-0.24,8.01-1.82c2.29-1.57,3.81-4.18,3.64-6.88
			c-0.09-2.75-1.52-5.33-3.62-7.14c-2.11-1.82-4.86-2.9-7.66-3.16c-2.81-0.23-5.76,0.24-8.46,1.21c-2.7,0.97-5.27,2.47-7.14,4.53
			c-0.93,1.02-1.67,2.19-2.03,3.44c-0.38,1.25-0.33,2.57,0.08,3.81c0.45,1.36,1.07,2.64,1.87,3.72c0.82,1.07,1.89,1.89,3.15,2.57
			c1.25,0.69,2.65,1.29,4.03,1.96c1.39,0.66,2.76,1.4,4.08,2.21c5.3,3.27,9.73,7.66,13.65,12.32L326.16,37.55z"/>
	</g>
	<g>
		<path class="st7" d="M329.6,74.19c-3.22,5.43-6.91,10.74-11.81,14.99c-1.22,1.06-2.52,2.03-3.84,2.92
			c-1.32,0.9-2.65,1.72-3.78,2.64c-1.13,0.92-2,1.98-2.6,3.27c-0.61,1.27-0.99,2.75-1.24,4.19c-0.49,2.77,0.56,5.59,2.48,7.73
			c1.9,2.18,4.54,3.75,7.33,4.71c2.8,0.94,5.87,1.28,8.68,0.7c2.82-0.58,5.37-2.26,7.07-4.58c1.7-2.32,2.55-5.25,2.31-8.15
			c-0.18-2.86-1.76-5.54-4.09-7.21c-2.31-1.68-5.47-2.27-8.17-1.45c-2.71,0.83-4.81,3.35-5.16,6.2c-0.19,1.43,0,2.89,0.69,4.13
			c0.67,1.25,1.81,2.25,3.13,2.79c1.32,0.55,2.88,0.64,4.19,0.15c1.33-0.5,2.41-1.63,2.86-3c0.45-1.36,0.34-2.97-0.57-4.12
			c-0.87-1.16-2.42-1.82-3.89-1.57c-0.72,0.13-1.4,0.52-1.89,1.09c-0.49,0.57-0.76,1.32-0.77,2.08c-0.03,0.76,0.27,1.53,0.84,2.06
			c0.55,0.54,1.34,0.84,2.12,0.78c-0.78,0.09-1.6-0.17-2.2-0.7c-0.61-0.52-0.97-1.33-0.98-2.14c-0.02-0.81,0.23-1.64,0.74-2.29
			c0.5-0.65,1.24-1.13,2.06-1.31c1.63-0.36,3.42,0.29,4.5,1.59c1.13,1.3,1.37,3.19,0.89,4.81c-0.49,1.63-1.72,3.04-3.32,3.7
			c-1.61,0.65-3.41,0.59-5.01,0c-1.6-0.6-3-1.74-3.86-3.24c-0.89-1.49-1.18-3.29-1.01-4.97c0.17-1.7,0.84-3.36,1.91-4.71
			c1.08-1.34,2.54-2.38,4.18-2.94c3.31-1.06,6.96-0.41,9.78,1.53c2.81,1.92,4.77,5.13,5.06,8.57c0.35,3.36-0.56,6.88-2.59,9.63
			c-1.99,2.76-5.02,4.77-8.37,5.48c-3.36,0.7-6.74,0.3-9.89-0.72c-3.13-1.06-6.1-2.78-8.36-5.33c-1.12-1.28-2.04-2.78-2.59-4.44
			c-0.55-1.66-0.69-3.48-0.39-5.2c0.3-1.64,0.71-3.23,1.47-4.8c0.72-1.56,1.91-2.98,3.23-4.02c1.32-1.06,2.68-1.87,3.96-2.73
			c1.29-0.86,2.52-1.75,3.7-2.73c4.7-3.91,8.41-8.99,11.68-14.27L329.6,74.19z"/>
	</g>
</g>
<g id="Layer_2" class="st0">
	<rect x="-1.77" y="47.2" class="st9" width="251.44" height="135.53"/>
	<text transform="matrix(1 0 0 1 60.0088 72.9175)" class="st10 st11 st12">James 1</text>
</g>
<g id="Layer_5" class="st0">
	<rect x="30" y="105" class="st13" width="98" height="148"/>
	<rect x="160" y="105" class="st13" width="98" height="148"/>
	<rect x="285" y="108" class="st13" width="98" height="148"/>
	<rect x="415" y="108" class="st13" width="98" height="148"/>
	<rect x="551" y="115" class="st13" width="98" height="148"/>
	<rect x="681" y="115" class="st13" width="98" height="148"/>
	<rect x="806" y="118" class="st13" width="98" height="148"/>
	<rect x="936" y="118" class="st13" width="98" height="148"/>
	<rect x="1063" y="120" class="st13" width="98" height="148"/>
	<rect x="1193" y="120" class="st13" width="98" height="148"/>
	<rect x="1318" y="123" class="st13" width="98" height="148"/>
</g>
</svg>
