<svg xmlns="http://www.w3.org/2000/svg" xmlns:xlink="http://www.w3.org/1999/xlink" viewBox="0 0 1811.06 472.04"><defs><style>.cls-1{opacity:0.5;}.cls-2{fill:url(#linear-gradient);}.cls-3{fill:url(#radial-gradient);}.cls-4{fill:#ffae1f;}.cls-5{fill:url(#linear-gradient-2);}.cls-6{fill:#ffda00;}.cls-7{fill:url(#linear-gradient-3);}</style><linearGradient id="linear-gradient" x1="-91.88" y1="-121" x2="-70.33" y2="-121" gradientTransform="matrix(0, -2.49, -1, 0, 983.31, -40.4)" gradientUnits="userSpaceOnUse"><stop offset="0" stop-color="#e9a900" stop-opacity="0"/><stop offset="0.57" stop-color="#c48b00" stop-opacity="0.58"/><stop offset="1" stop-color="#aa7600"/></linearGradient><radialGradient id="radial-gradient" cx="-108.36" cy="642.85" r="61.57" gradientTransform="matrix(0, -2.49, -6.67, 0, 4778.68, -113.98)" gradientUnits="userSpaceOnUse"><stop offset="0" stop-color="#aa7600"/><stop offset="1" stop-color="#e9a900" stop-opacity="0"/></radialGradient><linearGradient id="linear-gradient-2" x1="-199.5" y1="-119.5" x2="-169.5" y2="-119.5" gradientTransform="translate(983.31 308.54) rotate(90)" gradientUnits="userSpaceOnUse"><stop offset="0" stop-color="#e9a900" stop-opacity="0"/><stop offset="0.01" stop-color="#e8a800" stop-opacity="0.01"/><stop offset="0.5" stop-color="#c78d00" stop-opacity="0.54"/><stop offset="0.84" stop-color="#b27d00" stop-opacity="0.87"/><stop offset="1" stop-color="#aa7600"/></linearGradient><linearGradient id="linear-gradient-3" x1="-206.11" y1="-121" x2="-72.34" y2="-121" gradientTransform="matrix(0, -2.49, -1, 0, 983.31, -40.4)" gradientUnits="userSpaceOnUse"><stop offset="0" stop-color="#e9a900" stop-opacity="0"/><stop offset="1" stop-opacity="0.1"/><stop offset="1" stop-color="#af7a00" stop-opacity="0.91"/></linearGradient></defs><g id="Layer_4" data-name="Layer 4"><g class="cls-1"><rect class="cls-2" x="422.81" y="134.45" width="1363" height="53.59"/></g><g class="cls-1"><rect class="cls-3" width="981.56" height="310.87"/></g></g><g id="Layer_1" data-name="Layer 1"><rect class="cls-4" x="419.81" y="104.04" width="1366" height="35"/><g class="cls-1"><rect class="cls-5" x="419.81" y="109.04" width="1366" height="30"/></g><path class="cls-6" d="M351.62,210a7.66,7.66,0,0,0-5.51-.78,3.74,3.74,0,0,0-2.19,1.59,2.67,2.67,0,0,0-.06,2.57,3.82,3.82,0,0,0,2,1.77,8.51,8.51,0,0,0,2.68.67,10.3,10.3,0,0,0,5.39-.88,4.49,4.49,0,0,0,2.73-4.05,4.56,4.56,0,0,0-.84-2.37,5.74,5.74,0,0,0-1.94-1.68,12.74,12.74,0,0,0-5.23-1.39,17.41,17.41,0,0,0-5.44.5,10.11,10.11,0,0,0-4.61,2.46,6,6,0,0,0-1.93,4.41,6.94,6.94,0,0,0,1.86,4.49,10.94,10.94,0,0,0,4.34,2.75,24.61,24.61,0,0,0,10.74,1.16,19.14,19.14,0,0,0,9.88-3.53,11.2,11.2,0,0,0,3.17-3.81,8.51,8.51,0,0,0,.82-4.63,10.51,10.51,0,0,0-1.61-4.54,13.22,13.22,0,0,0-3.41-3.55,27.41,27.41,0,0,0-9.77-3.94,43.45,43.45,0,0,0-10.93-.86,37.73,37.73,0,0,0-10.78,2,24.74,24.74,0,0,0-4.88,2.38,21.65,21.65,0,0,0-4.22,3.39,27.05,27.05,0,0,0-5.72,9.43,38.69,38.69,0,0,0-1.93,11.19,36.11,36.11,0,0,1,.64-11.57,27.62,27.62,0,0,1,5.27-10.59,25.61,25.61,0,0,1,9.74-7.06,39.42,39.42,0,0,1,11.63-2.77,45.32,45.32,0,0,1,12,.48,27.51,27.51,0,0,1,11.39,4.61,15.07,15.07,0,0,1,6.3,11.11,12.1,12.1,0,0,1-1.42,6.49,14.8,14.8,0,0,1-4.3,4.82,18.64,18.64,0,0,1-5.62,2.73,26.72,26.72,0,0,1-6,1.06,27.17,27.17,0,0,1-11.88-1.73,13.16,13.16,0,0,1-5.15-3.55,9.08,9.08,0,0,1-2.22-6,7.64,7.64,0,0,1,.77-3.19,8.74,8.74,0,0,1,1.95-2.56,11.78,11.78,0,0,1,5.5-2.74,18.47,18.47,0,0,1,6-.34,14,14,0,0,1,5.75,1.75,7.16,7.16,0,0,1,2.29,2.13,5.75,5.75,0,0,1,.94,3,4.79,4.79,0,0,1-1,3,6.26,6.26,0,0,1-2.42,1.89,11,11,0,0,1-5.86.74,9.18,9.18,0,0,1-2.84-.83,4.37,4.37,0,0,1-2.13-2.09,3,3,0,0,1,.19-2.94,4,4,0,0,1,2.41-1.63A7.75,7.75,0,0,1,351.62,210Z" transform="translate(419.81 -87.96)"/><path class="cls-6" d="M276.42,209.24a7.83,7.83,0,0,1,5.58-1,4,4,0,0,1,2.41,1.63,3.07,3.07,0,0,1,.19,2.94,4.37,4.37,0,0,1-2.13,2.09,9.24,9.24,0,0,1-2.85.83,11.11,11.11,0,0,1-5.85-.73,6.31,6.31,0,0,1-2.42-1.9,4.8,4.8,0,0,1-1-3,5.76,5.76,0,0,1,.95-3,7,7,0,0,1,2.28-2.13,14,14,0,0,1,5.75-1.75,18.53,18.53,0,0,1,6,.34,11.88,11.88,0,0,1,5.5,2.74,8.67,8.67,0,0,1,1.94,2.56,7.65,7.65,0,0,1,.78,3.19,9.09,9.09,0,0,1-2.23,6,13.2,13.2,0,0,1-5.14,3.55,27.22,27.22,0,0,1-11.89,1.73,26.92,26.92,0,0,1-6-1.06,18.76,18.76,0,0,1-5.62-2.73,14.78,14.78,0,0,1-4.29-4.82,11.92,11.92,0,0,1-1.42-6.49,15.09,15.09,0,0,1,6.29-11.11,27.5,27.5,0,0,1,11.4-4.61,45.72,45.72,0,0,1,12-.48,39.44,39.44,0,0,1,11.63,2.78,25.56,25.56,0,0,1,9.74,7,27.74,27.74,0,0,1,5.26,10.59,36.11,36.11,0,0,1,.64,11.57,38.35,38.35,0,0,0-1.93-11.19,27.18,27.18,0,0,0-5.71-9.43A22,22,0,0,0,302,200a24.66,24.66,0,0,0-4.87-2.38,38.15,38.15,0,0,0-10.78-2,43.38,43.38,0,0,0-10.93.86,27.34,27.34,0,0,0-9.77,3.94,13,13,0,0,0-3.41,3.56,10.35,10.35,0,0,0-1.61,4.53,8.42,8.42,0,0,0,.81,4.63,11.2,11.2,0,0,0,3.17,3.81,19.24,19.24,0,0,0,9.89,3.54,24.65,24.65,0,0,0,10.74-1.17,11.09,11.09,0,0,0,4.34-2.75,7,7,0,0,0,1.86-4.49,6,6,0,0,0-1.94-4.41,10,10,0,0,0-4.6-2.46,17.2,17.2,0,0,0-5.45-.49,12.53,12.53,0,0,0-5.22,1.38,5.89,5.89,0,0,0-1.95,1.68,4.63,4.63,0,0,0-.84,2.37,4.53,4.53,0,0,0,2.74,4.06,10.26,10.26,0,0,0,5.39.87,8.39,8.39,0,0,0,2.67-.67,3.88,3.88,0,0,0,2-1.77,2.64,2.64,0,0,0-.07-2.57,3.69,3.69,0,0,0-2.18-1.59A7.73,7.73,0,0,0,276.42,209.24Z" transform="translate(419.81 -87.96)"/><path class="cls-6" d="M464.94,210.57a7.71,7.71,0,0,0-5.51-.78,3.71,3.71,0,0,0-2.19,1.6,2.65,2.65,0,0,0-.06,2.56,3.81,3.81,0,0,0,2,1.77,8.51,8.51,0,0,0,2.68.67,10.29,10.29,0,0,0,5.39-.87,4.5,4.5,0,0,0,2.73-4.05,4.56,4.56,0,0,0-.84-2.37,5.77,5.77,0,0,0-1.94-1.69,12.73,12.73,0,0,0-5.22-1.38,17.18,17.18,0,0,0-5.45.49,10,10,0,0,0-4.61,2.47,6,6,0,0,0-1.93,4.4,6.9,6.9,0,0,0,1.86,4.49,10.84,10.84,0,0,0,4.34,2.75,24.63,24.63,0,0,0,10.74,1.17,19.23,19.23,0,0,0,9.88-3.54,11.09,11.09,0,0,0,3.17-3.81,8.48,8.48,0,0,0,.82-4.62,10.34,10.34,0,0,0-1.61-4.54,12.93,12.93,0,0,0-3.41-3.55A27.23,27.23,0,0,0,466,197.8a43,43,0,0,0-10.93-.87,38.15,38.15,0,0,0-10.78,2,24.4,24.4,0,0,0-4.87,2.38,21.11,21.11,0,0,0-4.23,3.4,27,27,0,0,0-5.72,9.42,38.74,38.74,0,0,0-1.93,11.19,35.85,35.85,0,0,1,.65-11.57,27.6,27.6,0,0,1,5.26-10.59,25.59,25.59,0,0,1,9.74-7.05,39.11,39.11,0,0,1,11.63-2.77,45.29,45.29,0,0,1,12,.48,27.19,27.19,0,0,1,11.39,4.61,15.05,15.05,0,0,1,6.3,11.1,12.13,12.13,0,0,1-1.42,6.5,14.77,14.77,0,0,1-4.3,4.81,18.59,18.59,0,0,1-5.61,2.73,26.9,26.9,0,0,1-6,1.06,27.33,27.33,0,0,1-11.88-1.72,13.37,13.37,0,0,1-5.15-3.56,9.13,9.13,0,0,1-2.22-6,7.69,7.69,0,0,1,.77-3.2,9,9,0,0,1,1.95-2.56,11.83,11.83,0,0,1,5.5-2.74,19.05,19.05,0,0,1,6-.34,14,14,0,0,1,5.75,1.75,7.08,7.08,0,0,1,2.29,2.14,5.69,5.69,0,0,1,.94,3,4.84,4.84,0,0,1-1,3,6.36,6.36,0,0,1-2.42,1.89,11,11,0,0,1-5.86.73,9,9,0,0,1-2.84-.83,4.37,4.37,0,0,1-2.13-2.09,3,3,0,0,1,.19-2.93,4,4,0,0,1,2.41-1.64A7.86,7.86,0,0,1,464.94,210.57Z" transform="translate(419.81 -87.96)"/><path class="cls-6" d="M389.74,209.8a7.78,7.78,0,0,1,5.58-1,4,4,0,0,1,2.41,1.63,3.05,3.05,0,0,1,.19,2.93,4.37,4.37,0,0,1-2.13,2.09,9,9,0,0,1-2.85.83,11,11,0,0,1-5.85-.73,6.28,6.28,0,0,1-2.42-1.89,4.83,4.83,0,0,1-1-3,5.73,5.73,0,0,1,.95-3,7,7,0,0,1,2.29-2.14,13.94,13.94,0,0,1,5.74-1.75,19.11,19.11,0,0,1,6,.34,11.92,11.92,0,0,1,5.5,2.74A8.8,8.8,0,0,1,406,209.4a7.55,7.55,0,0,1,.78,3.2,9.13,9.13,0,0,1-2.22,6,13.37,13.37,0,0,1-5.15,3.56,28.64,28.64,0,0,1-17.87.67,19,19,0,0,1-5.62-2.74,14.85,14.85,0,0,1-4.29-4.81,12.13,12.13,0,0,1-1.42-6.5,15.07,15.07,0,0,1,6.29-11.1,27.23,27.23,0,0,1,11.4-4.61,45.29,45.29,0,0,1,12-.48,39.11,39.11,0,0,1,11.63,2.77,25.51,25.51,0,0,1,9.74,7.06A27.63,27.63,0,0,1,426.53,213a36.44,36.44,0,0,1,.65,11.57,39.15,39.15,0,0,0-1.93-11.19,27.25,27.25,0,0,0-5.72-9.42,21.39,21.39,0,0,0-4.23-3.4,24.66,24.66,0,0,0-4.87-2.38,38.14,38.14,0,0,0-10.78-2,42.47,42.47,0,0,0-10.93.86A27.23,27.23,0,0,0,379,201a12.78,12.78,0,0,0-3.41,3.55,10.34,10.34,0,0,0-1.61,4.54,8.52,8.52,0,0,0,.81,4.63,11.29,11.29,0,0,0,3.18,3.8A19.08,19.08,0,0,0,387.8,221a24.65,24.65,0,0,0,10.74-1.17,10.91,10.91,0,0,0,4.34-2.75,7,7,0,0,0,1.86-4.49,6,6,0,0,0-1.94-4.4,10.14,10.14,0,0,0-4.6-2.47,17.2,17.2,0,0,0-5.45-.49,12.73,12.73,0,0,0-5.22,1.38,5.8,5.8,0,0,0-1.95,1.69,4.55,4.55,0,0,0-.83,2.37,4.49,4.49,0,0,0,2.73,4.05,10.28,10.28,0,0,0,5.39.87,8.65,8.65,0,0,0,2.67-.66,3.9,3.9,0,0,0,2-1.78,2.65,2.65,0,0,0-.06-2.56,3.71,3.71,0,0,0-2.19-1.6A7.69,7.69,0,0,0,389.74,209.8Z" transform="translate(419.81 -87.96)"/><path class="cls-6" d="M578.28,210.3a7.61,7.61,0,0,0-5.51-.78,3.7,3.7,0,0,0-2.19,1.59,2.67,2.67,0,0,0-.06,2.57,3.86,3.86,0,0,0,2,1.77,8.79,8.79,0,0,0,2.68.67,10.3,10.3,0,0,0,5.39-.88,4.5,4.5,0,0,0,2.73-4.05,4.56,4.56,0,0,0-.84-2.37,5.88,5.88,0,0,0-1.94-1.69,12.73,12.73,0,0,0-5.22-1.38,17.15,17.15,0,0,0-5.45.49,10.22,10.22,0,0,0-4.61,2.47,6,6,0,0,0-1.93,4.4,6.9,6.9,0,0,0,1.86,4.49,10.84,10.84,0,0,0,4.34,2.75,24.63,24.63,0,0,0,10.74,1.17,19.06,19.06,0,0,0,9.88-3.54,11.26,11.26,0,0,0,3.17-3.8,8.53,8.53,0,0,0,.82-4.63,10.34,10.34,0,0,0-1.61-4.54,12.93,12.93,0,0,0-3.41-3.55,27.23,27.23,0,0,0-9.77-3.94,43,43,0,0,0-10.93-.86,38.14,38.14,0,0,0-10.78,2,25.31,25.31,0,0,0-4.88,2.38,21.7,21.7,0,0,0-4.22,3.4,27.05,27.05,0,0,0-5.72,9.43,38.69,38.69,0,0,0-1.93,11.19,35.91,35.91,0,0,1,.65-11.58,27.42,27.42,0,0,1,5.26-10.58,25.61,25.61,0,0,1,9.74-7.06,39.42,39.42,0,0,1,11.63-2.77,45.29,45.29,0,0,1,12,.48,27.33,27.33,0,0,1,11.39,4.61,15.05,15.05,0,0,1,6.3,11.1,12.13,12.13,0,0,1-1.42,6.5,14.77,14.77,0,0,1-4.3,4.81,18.79,18.79,0,0,1-5.62,2.74,26.7,26.7,0,0,1-6,1.05,27.19,27.19,0,0,1-11.88-1.72,13.37,13.37,0,0,1-5.15-3.56,9.13,9.13,0,0,1-2.22-6,7.72,7.72,0,0,1,.77-3.2,9,9,0,0,1,1.95-2.56,11.92,11.92,0,0,1,5.5-2.74,19.05,19.05,0,0,1,6-.34,14.13,14.13,0,0,1,5.75,1.75,7.19,7.19,0,0,1,2.29,2.14,5.72,5.72,0,0,1,.94,3,4.8,4.8,0,0,1-1,3,6.26,6.26,0,0,1-2.42,1.89,11,11,0,0,1-5.86.74,9.28,9.28,0,0,1-2.84-.84,4.33,4.33,0,0,1-2.13-2.09,3,3,0,0,1,.19-2.93,4,4,0,0,1,2.41-1.63A7.75,7.75,0,0,1,578.28,210.3Z" transform="translate(419.81 -87.96)"/><path class="cls-6" d="M503.08,209.52a7.78,7.78,0,0,1,5.58-1,4,4,0,0,1,2.41,1.63,3.05,3.05,0,0,1,.19,2.93,4.33,4.33,0,0,1-2.13,2.09,9.26,9.26,0,0,1-2.85.84,11,11,0,0,1-5.85-.74,6.19,6.19,0,0,1-2.42-1.89,4.8,4.8,0,0,1-1-3,5.73,5.73,0,0,1,.95-3,7.09,7.09,0,0,1,2.29-2.14,14.07,14.07,0,0,1,5.74-1.74,18.81,18.81,0,0,1,6,.33,12,12,0,0,1,5.5,2.74,8.8,8.8,0,0,1,1.94,2.56,7.73,7.73,0,0,1,.78,3.2,9.11,9.11,0,0,1-2.23,6,13.31,13.31,0,0,1-5.14,3.55,27.21,27.21,0,0,1-11.89,1.72,26.34,26.34,0,0,1-6-1.05,18.55,18.55,0,0,1-5.62-2.74A14.85,14.85,0,0,1,485,215a12.11,12.11,0,0,1-1.42-6.5,15.09,15.09,0,0,1,6.29-11.1,27.37,27.37,0,0,1,11.4-4.61,45.29,45.29,0,0,1,12-.48,39.42,39.42,0,0,1,11.63,2.77,25.69,25.69,0,0,1,9.74,7.06,27.74,27.74,0,0,1,5.26,10.59,36.11,36.11,0,0,1,.64,11.57,38.68,38.68,0,0,0-1.92-11.19,27.35,27.35,0,0,0-5.72-9.43,21.35,21.35,0,0,0-4.23-3.39,24.71,24.71,0,0,0-4.87-2.39,38.14,38.14,0,0,0-10.78-2,42.92,42.92,0,0,0-10.93.86,27.16,27.16,0,0,0-9.77,3.94,12.78,12.78,0,0,0-3.41,3.55,10.34,10.34,0,0,0-1.61,4.54,8.51,8.51,0,0,0,.81,4.63,11.12,11.12,0,0,0,3.18,3.81,19.07,19.07,0,0,0,9.88,3.53,24.5,24.5,0,0,0,10.74-1.17,10.91,10.91,0,0,0,4.34-2.75,7,7,0,0,0,1.86-4.49,6,6,0,0,0-1.94-4.4,10.14,10.14,0,0,0-4.6-2.47,17.5,17.5,0,0,0-5.45-.49,12.58,12.58,0,0,0-5.22,1.39,5.77,5.77,0,0,0-1.95,1.68,4.56,4.56,0,0,0-.84,2.37,4.51,4.51,0,0,0,2.74,4.05,10.28,10.28,0,0,0,5.39.88,8.66,8.66,0,0,0,2.67-.67,3.88,3.88,0,0,0,2-1.77,2.64,2.64,0,0,0-.07-2.57,3.65,3.65,0,0,0-2.18-1.59A7.64,7.64,0,0,0,503.08,209.52Z" transform="translate(419.81 -87.96)"/><path class="cls-6" d="M691.6,210.85a7.71,7.71,0,0,0-5.51-.78,3.74,3.74,0,0,0-2.19,1.59,2.67,2.67,0,0,0-.06,2.57,3.86,3.86,0,0,0,2,1.77,8.51,8.51,0,0,0,2.68.67,10.3,10.3,0,0,0,5.39-.88,4.47,4.47,0,0,0,2.73-4,4.56,4.56,0,0,0-.84-2.37,5.85,5.85,0,0,0-1.94-1.68,12.57,12.57,0,0,0-5.22-1.38,17.18,17.18,0,0,0-5.45.49,10.11,10.11,0,0,0-4.61,2.46,6,6,0,0,0-1.93,4.41,6.94,6.94,0,0,0,1.86,4.49,10.94,10.94,0,0,0,4.34,2.75,24.78,24.78,0,0,0,10.74,1.17,19.23,19.23,0,0,0,9.88-3.54,11.09,11.09,0,0,0,3.17-3.81,8.42,8.42,0,0,0,.82-4.63,10.39,10.39,0,0,0-1.61-4.54A13.06,13.06,0,0,0,702.4,202a27.41,27.41,0,0,0-9.77-3.94,43.38,43.38,0,0,0-10.93-.86,37.8,37.8,0,0,0-10.78,2,24.4,24.4,0,0,0-4.87,2.38,21.42,21.42,0,0,0-4.23,3.39,27.05,27.05,0,0,0-5.72,9.43,39,39,0,0,0-1.93,11.19,36.12,36.12,0,0,1,.65-11.57,27.6,27.6,0,0,1,5.26-10.59,25.48,25.48,0,0,1,9.74-7.05,39.13,39.13,0,0,1,11.63-2.78,45.72,45.72,0,0,1,12,.48,27.4,27.4,0,0,1,11.39,4.61,15.07,15.07,0,0,1,6.3,11.11,12.1,12.1,0,0,1-1.42,6.49,14.78,14.78,0,0,1-4.29,4.82,18.76,18.76,0,0,1-5.62,2.73,26.9,26.9,0,0,1-6,1.06,27.19,27.19,0,0,1-11.88-1.73,13.23,13.23,0,0,1-5.15-3.55,9.13,9.13,0,0,1-2.22-6,7.5,7.5,0,0,1,.78-3.19,8.67,8.67,0,0,1,1.94-2.56,11.83,11.83,0,0,1,5.5-2.74,18.47,18.47,0,0,1,6-.34,14,14,0,0,1,5.75,1.75,7.16,7.16,0,0,1,2.29,2.13,5.66,5.66,0,0,1,.94,3,4.79,4.79,0,0,1-1,3,6.26,6.26,0,0,1-2.42,1.89,11,11,0,0,1-5.86.74,9.26,9.26,0,0,1-2.84-.83,4.37,4.37,0,0,1-2.13-2.09,3,3,0,0,1,.19-2.94,4,4,0,0,1,2.41-1.63A7.8,7.8,0,0,1,691.6,210.85Z" transform="translate(419.81 -87.96)"/><path class="cls-6" d="M616.4,210.07a7.83,7.83,0,0,1,5.58-1,4,4,0,0,1,2.41,1.63,3.07,3.07,0,0,1,.19,2.94,4.37,4.37,0,0,1-2.13,2.09,9.24,9.24,0,0,1-2.85.83,11,11,0,0,1-5.85-.73,6.31,6.31,0,0,1-2.42-1.9,4.8,4.8,0,0,1-1-3,5.76,5.76,0,0,1,1-3,7.06,7.06,0,0,1,2.29-2.13,13.94,13.94,0,0,1,5.75-1.75,18.76,18.76,0,0,1,6,.34,11.83,11.83,0,0,1,5.5,2.74,8.67,8.67,0,0,1,1.94,2.56,7.5,7.5,0,0,1,.78,3.19,9.13,9.13,0,0,1-2.22,6,13.23,13.23,0,0,1-5.15,3.55,27.22,27.22,0,0,1-11.89,1.73,26.92,26.92,0,0,1-6-1.06,18.76,18.76,0,0,1-5.62-2.73,14.78,14.78,0,0,1-4.29-4.82,12.1,12.1,0,0,1-1.42-6.49,15.07,15.07,0,0,1,6.3-11.11,27.4,27.4,0,0,1,11.39-4.61,45.72,45.72,0,0,1,12-.48,39.44,39.44,0,0,1,11.63,2.78,25.48,25.48,0,0,1,9.74,7.05,27.74,27.74,0,0,1,5.26,10.59,36.4,36.4,0,0,1,.65,11.57,39.09,39.09,0,0,0-1.93-11.19,27.05,27.05,0,0,0-5.72-9.43,21.71,21.71,0,0,0-4.23-3.39,24.4,24.4,0,0,0-4.87-2.38,38.15,38.15,0,0,0-10.78-2,43.38,43.38,0,0,0-10.93.86,27.59,27.59,0,0,0-9.77,3.94,13,13,0,0,0-3.41,3.56,10.35,10.35,0,0,0-1.61,4.53,8.51,8.51,0,0,0,.81,4.63,11.23,11.23,0,0,0,3.18,3.81,19.17,19.17,0,0,0,9.88,3.54,24.65,24.65,0,0,0,10.74-1.17,11,11,0,0,0,4.34-2.75,6.92,6.92,0,0,0,1.86-4.49,6,6,0,0,0-1.94-4.41,10,10,0,0,0-4.6-2.46,17.18,17.18,0,0,0-5.45-.49,12.57,12.57,0,0,0-5.22,1.38,5.77,5.77,0,0,0-1.94,1.69,4.16,4.16,0,0,0,1.89,6.42,10.28,10.28,0,0,0,5.39.87,8.51,8.51,0,0,0,2.68-.67,3.81,3.81,0,0,0,2-1.77,2.67,2.67,0,0,0-.06-2.57,3.74,3.74,0,0,0-2.19-1.59A7.74,7.74,0,0,0,616.4,210.07Z" transform="translate(419.81 -87.96)"/><path class="cls-6" d="M804.28,209.3a7.61,7.61,0,0,0-5.51-.78,3.7,3.7,0,0,0-2.19,1.59,2.67,2.67,0,0,0-.06,2.57,3.86,3.86,0,0,0,2,1.77,8.79,8.79,0,0,0,2.68.67,10.3,10.3,0,0,0,5.39-.88,4.5,4.5,0,0,0,2.73-4.05,4.56,4.56,0,0,0-.84-2.37,5.88,5.88,0,0,0-1.94-1.69,12.73,12.73,0,0,0-5.22-1.38,17.15,17.15,0,0,0-5.45.49,10.22,10.22,0,0,0-4.61,2.47,6,6,0,0,0-1.93,4.4,6.9,6.9,0,0,0,1.86,4.49,10.84,10.84,0,0,0,4.34,2.75,24.63,24.63,0,0,0,10.74,1.17,19.06,19.06,0,0,0,9.88-3.54,11.26,11.26,0,0,0,3.17-3.8,8.53,8.53,0,0,0,.82-4.63,10.34,10.34,0,0,0-1.61-4.54,12.93,12.93,0,0,0-3.41-3.55,27.23,27.23,0,0,0-9.77-3.94,43,43,0,0,0-10.93-.86,38.14,38.14,0,0,0-10.78,2,25.31,25.31,0,0,0-4.88,2.38,21.7,21.7,0,0,0-4.22,3.4,27.05,27.05,0,0,0-5.72,9.43,38.69,38.69,0,0,0-1.93,11.19,35.91,35.91,0,0,1,.65-11.58,27.42,27.42,0,0,1,5.26-10.58,25.61,25.61,0,0,1,9.74-7.06,39.42,39.42,0,0,1,11.63-2.77,45.29,45.29,0,0,1,12,.48,27.33,27.33,0,0,1,11.39,4.61,15.05,15.05,0,0,1,6.3,11.1,12.13,12.13,0,0,1-1.42,6.5,14.77,14.77,0,0,1-4.3,4.81,18.79,18.79,0,0,1-5.62,2.74,26.7,26.7,0,0,1-6,1.05,27.19,27.19,0,0,1-11.88-1.72,13.37,13.37,0,0,1-5.15-3.56,9.13,9.13,0,0,1-2.22-6,7.72,7.72,0,0,1,.77-3.2,9,9,0,0,1,1.95-2.56,11.92,11.92,0,0,1,5.5-2.74,19.05,19.05,0,0,1,6-.34,14.13,14.13,0,0,1,5.75,1.75,7.19,7.19,0,0,1,2.29,2.14,5.72,5.72,0,0,1,.94,3,4.8,4.8,0,0,1-1,3,6.26,6.26,0,0,1-2.42,1.89,11,11,0,0,1-5.86.74,9.28,9.28,0,0,1-2.84-.84,4.33,4.33,0,0,1-2.13-2.09,3,3,0,0,1,.19-2.93,4,4,0,0,1,2.41-1.63A7.75,7.75,0,0,1,804.28,209.3Z" transform="translate(419.81 -87.96)"/><path class="cls-6" d="M729.08,208.52a7.78,7.78,0,0,1,5.58-1,4,4,0,0,1,2.41,1.63,3.05,3.05,0,0,1,.19,2.93,4.33,4.33,0,0,1-2.13,2.09,9.26,9.26,0,0,1-2.85.84,11,11,0,0,1-5.85-.74,6.19,6.19,0,0,1-2.42-1.89,4.8,4.8,0,0,1-1-3,5.73,5.73,0,0,1,.95-3,7.09,7.09,0,0,1,2.29-2.14,14.07,14.07,0,0,1,5.74-1.74,18.81,18.81,0,0,1,6,.33,12,12,0,0,1,5.5,2.74,8.8,8.8,0,0,1,1.94,2.56,7.73,7.73,0,0,1,.78,3.2,9.11,9.11,0,0,1-2.23,6,13.31,13.31,0,0,1-5.14,3.55,27.21,27.21,0,0,1-11.89,1.72,26.34,26.34,0,0,1-6-1.05,18.55,18.55,0,0,1-5.62-2.74A14.85,14.85,0,0,1,711,214a12.11,12.11,0,0,1-1.42-6.5,15.09,15.09,0,0,1,6.29-11.1,27.37,27.37,0,0,1,11.4-4.61,45.29,45.29,0,0,1,12-.48,39.42,39.42,0,0,1,11.63,2.77,25.69,25.69,0,0,1,9.74,7.06,27.74,27.74,0,0,1,5.26,10.59,36.11,36.11,0,0,1,.64,11.57,38.68,38.68,0,0,0-1.92-11.19,27.35,27.35,0,0,0-5.72-9.43,21.35,21.35,0,0,0-4.23-3.39,24.71,24.71,0,0,0-4.87-2.39,38.14,38.14,0,0,0-10.78-2,42.92,42.92,0,0,0-10.93.86,27.16,27.16,0,0,0-9.77,3.94,12.78,12.78,0,0,0-3.41,3.55,10.34,10.34,0,0,0-1.61,4.54,8.51,8.51,0,0,0,.81,4.63,11.12,11.12,0,0,0,3.18,3.81,19.07,19.07,0,0,0,9.88,3.53,24.5,24.5,0,0,0,10.74-1.17,10.91,10.91,0,0,0,4.34-2.75,7,7,0,0,0,1.86-4.49,6,6,0,0,0-1.94-4.4,10.14,10.14,0,0,0-4.6-2.47,17.5,17.5,0,0,0-5.45-.49,12.58,12.58,0,0,0-5.22,1.39,5.77,5.77,0,0,0-2,1.68,4.56,4.56,0,0,0-.84,2.37,4.51,4.51,0,0,0,2.74,4.05,10.28,10.28,0,0,0,5.39.88,8.66,8.66,0,0,0,2.67-.67,3.88,3.88,0,0,0,2-1.77,2.64,2.64,0,0,0-.07-2.57,3.65,3.65,0,0,0-2.18-1.59A7.64,7.64,0,0,0,729.08,208.52Z" transform="translate(419.81 -87.96)"/><path class="cls-6" d="M917.6,209.85a7.71,7.71,0,0,0-5.51-.78,3.74,3.74,0,0,0-2.19,1.59,2.67,2.67,0,0,0-.06,2.57,3.86,3.86,0,0,0,2,1.77,8.51,8.51,0,0,0,2.68.67,10.3,10.3,0,0,0,5.39-.88,4.47,4.47,0,0,0,2.73-4,4.56,4.56,0,0,0-.84-2.37,5.85,5.85,0,0,0-1.94-1.68,12.57,12.57,0,0,0-5.22-1.38,17.18,17.18,0,0,0-5.45.49,10.11,10.11,0,0,0-4.61,2.46,6,6,0,0,0-1.93,4.41,6.94,6.94,0,0,0,1.86,4.49,10.94,10.94,0,0,0,4.34,2.75,24.78,24.78,0,0,0,10.74,1.17,19.23,19.23,0,0,0,9.88-3.54,11.09,11.09,0,0,0,3.17-3.81,8.42,8.42,0,0,0,.82-4.63,10.39,10.39,0,0,0-1.61-4.54A13.06,13.06,0,0,0,928.4,201a27.41,27.41,0,0,0-9.77-3.94,43.38,43.38,0,0,0-10.93-.86,37.8,37.8,0,0,0-10.78,2,24.4,24.4,0,0,0-4.87,2.38,21.42,21.42,0,0,0-4.23,3.39,27.05,27.05,0,0,0-5.72,9.43,39,39,0,0,0-1.93,11.19,36.12,36.12,0,0,1,.65-11.57,27.6,27.6,0,0,1,5.26-10.59,25.48,25.48,0,0,1,9.74-7.05,39.13,39.13,0,0,1,11.63-2.78,45.72,45.72,0,0,1,12,.48,27.4,27.4,0,0,1,11.39,4.61,15.07,15.07,0,0,1,6.3,11.11,12.1,12.1,0,0,1-1.42,6.49,14.78,14.78,0,0,1-4.29,4.82,18.76,18.76,0,0,1-5.62,2.73,26.9,26.9,0,0,1-6,1.06,27.19,27.19,0,0,1-11.88-1.73,13.23,13.23,0,0,1-5.15-3.55,9.13,9.13,0,0,1-2.22-6,7.5,7.5,0,0,1,.78-3.19,8.67,8.67,0,0,1,1.94-2.56,11.83,11.83,0,0,1,5.5-2.74,18.47,18.47,0,0,1,6-.34,14,14,0,0,1,5.75,1.75,7.16,7.16,0,0,1,2.29,2.13,5.66,5.66,0,0,1,.94,3,4.79,4.79,0,0,1-1,3,6.26,6.26,0,0,1-2.42,1.89,11,11,0,0,1-5.86.74,9.26,9.26,0,0,1-2.84-.83,4.37,4.37,0,0,1-2.13-2.09,3,3,0,0,1,.19-2.94,4,4,0,0,1,2.41-1.63A7.8,7.8,0,0,1,917.6,209.85Z" transform="translate(419.81 -87.96)"/><path class="cls-6" d="M842.4,209.07a7.83,7.83,0,0,1,5.58-1,4,4,0,0,1,2.41,1.63,3.07,3.07,0,0,1,.19,2.94,4.37,4.37,0,0,1-2.13,2.09,9.24,9.24,0,0,1-2.85.83,11,11,0,0,1-5.85-.73,6.31,6.31,0,0,1-2.42-1.9,4.8,4.8,0,0,1-1-3,5.76,5.76,0,0,1,1-3,7.06,7.06,0,0,1,2.29-2.13,13.94,13.94,0,0,1,5.75-1.75,18.76,18.76,0,0,1,6,.34,11.83,11.83,0,0,1,5.5,2.74,8.67,8.67,0,0,1,1.94,2.56,7.5,7.5,0,0,1,.78,3.19,9.13,9.13,0,0,1-2.22,6,13.23,13.23,0,0,1-5.15,3.55,27.22,27.22,0,0,1-11.89,1.73,26.92,26.92,0,0,1-6-1.06,18.76,18.76,0,0,1-5.62-2.73,14.78,14.78,0,0,1-4.29-4.82,12.1,12.1,0,0,1-1.42-6.49,15.07,15.07,0,0,1,6.3-11.11,27.4,27.4,0,0,1,11.39-4.61,45.72,45.72,0,0,1,12-.48,39.44,39.44,0,0,1,11.63,2.78,25.48,25.48,0,0,1,9.74,7.05,27.74,27.74,0,0,1,5.26,10.59,36.4,36.4,0,0,1,.65,11.57,39.09,39.09,0,0,0-1.93-11.19,27.05,27.05,0,0,0-5.72-9.43,21.71,21.71,0,0,0-4.23-3.39,24.4,24.4,0,0,0-4.87-2.38,38.15,38.15,0,0,0-10.78-2,43.38,43.38,0,0,0-10.93.86,27.59,27.59,0,0,0-9.77,3.94,13,13,0,0,0-3.41,3.56,10.35,10.35,0,0,0-1.61,4.53,8.51,8.51,0,0,0,.81,4.63,11.23,11.23,0,0,0,3.18,3.81,19.17,19.17,0,0,0,9.88,3.54,24.65,24.65,0,0,0,10.74-1.17,11,11,0,0,0,4.34-2.75,6.92,6.92,0,0,0,1.86-4.49,6,6,0,0,0-1.94-4.41,10,10,0,0,0-4.6-2.46,17.18,17.18,0,0,0-5.45-.49,12.57,12.57,0,0,0-5.22,1.38,5.77,5.77,0,0,0-1.94,1.69,4.16,4.16,0,0,0,1.89,6.42,10.28,10.28,0,0,0,5.39.87,8.51,8.51,0,0,0,2.68-.67,3.81,3.81,0,0,0,2-1.77,2.67,2.67,0,0,0-.06-2.57,3.74,3.74,0,0,0-2.19-1.59A7.74,7.74,0,0,0,842.4,209.07Z" transform="translate(419.81 -87.96)"/><path class="cls-6" d="M1031.74,211.21a7.71,7.71,0,0,0-5.51-.78A3.74,3.74,0,0,0,1024,212a2.67,2.67,0,0,0-.06,2.57,3.81,3.81,0,0,0,2,1.77,8.51,8.51,0,0,0,2.68.67,10.29,10.29,0,0,0,5.39-.87,4.5,4.5,0,0,0,2.73-4,4.56,4.56,0,0,0-.84-2.37,5.77,5.77,0,0,0-1.94-1.69,12.57,12.57,0,0,0-5.22-1.38,17.15,17.15,0,0,0-5.45.49,10.11,10.11,0,0,0-4.61,2.46,6,6,0,0,0-1.93,4.41,6.9,6.9,0,0,0,1.86,4.49,10.94,10.94,0,0,0,4.34,2.75,24.63,24.63,0,0,0,10.74,1.17,19.23,19.23,0,0,0,9.88-3.54,11.09,11.09,0,0,0,3.17-3.81,8.48,8.48,0,0,0,.82-4.62,10.34,10.34,0,0,0-1.61-4.54,12.93,12.93,0,0,0-3.41-3.55,27.23,27.23,0,0,0-9.77-3.94,43,43,0,0,0-10.93-.87,38.15,38.15,0,0,0-10.78,2,24.74,24.74,0,0,0-4.88,2.38,21.65,21.65,0,0,0-4.22,3.39,27.14,27.14,0,0,0-5.72,9.43A38.74,38.74,0,0,0,994.31,226a35.85,35.85,0,0,1,.65-11.57,27.6,27.6,0,0,1,5.26-10.59,25.48,25.48,0,0,1,9.74-7,39.11,39.11,0,0,1,11.63-2.77,45.28,45.28,0,0,1,12,.47,27.46,27.46,0,0,1,11.39,4.61,15.07,15.07,0,0,1,6.3,11.11,12.08,12.08,0,0,1-1.42,6.49,14.7,14.7,0,0,1-4.3,4.82,18.53,18.53,0,0,1-5.62,2.73,26.72,26.72,0,0,1-6,1.06,27.19,27.19,0,0,1-11.88-1.73,13.23,13.23,0,0,1-5.15-3.55,9.13,9.13,0,0,1-2.22-6,7.69,7.69,0,0,1,.77-3.2,9,9,0,0,1,1.95-2.56,11.83,11.83,0,0,1,5.5-2.74,18.76,18.76,0,0,1,6-.34,14,14,0,0,1,5.75,1.75,7.08,7.08,0,0,1,2.29,2.14,5.69,5.69,0,0,1,.94,3,4.84,4.84,0,0,1-1,3,6.46,6.46,0,0,1-2.42,1.89,11,11,0,0,1-5.86.73,9.26,9.26,0,0,1-2.84-.83,4.37,4.37,0,0,1-2.13-2.09,3,3,0,0,1,.19-2.94,4,4,0,0,1,2.41-1.63A7.81,7.81,0,0,1,1031.74,211.21Z" transform="translate(419.81 -87.96)"/><path class="cls-6" d="M956.54,210.44a7.78,7.78,0,0,1,5.58-1,4,4,0,0,1,2.41,1.63,3.05,3.05,0,0,1,.19,2.93,4.37,4.37,0,0,1-2.13,2.09,9,9,0,0,1-2.85.83,11,11,0,0,1-5.85-.73,6.28,6.28,0,0,1-2.42-1.89,4.85,4.85,0,0,1-1-3,5.7,5.7,0,0,1,.95-3,7,7,0,0,1,2.29-2.14,13.94,13.94,0,0,1,5.74-1.75,19.11,19.11,0,0,1,6,.34,11.88,11.88,0,0,1,5.5,2.74,8.8,8.8,0,0,1,1.94,2.56,7.7,7.7,0,0,1,.78,3.2,9.08,9.08,0,0,1-2.23,6,13.33,13.33,0,0,1-5.14,3.56,27.36,27.36,0,0,1-11.89,1.72,26.92,26.92,0,0,1-6-1.06,18.76,18.76,0,0,1-5.62-2.73,14.85,14.85,0,0,1-4.29-4.81,12.13,12.13,0,0,1-1.42-6.5,15.07,15.07,0,0,1,6.29-11.1,27.23,27.23,0,0,1,11.4-4.61,45.29,45.29,0,0,1,12-.48A39.11,39.11,0,0,1,978.33,196a25.58,25.58,0,0,1,9.74,7.06,27.63,27.63,0,0,1,5.26,10.58A36.14,36.14,0,0,1,994,225.2,38.74,38.74,0,0,0,992.05,214a27.16,27.16,0,0,0-5.72-9.42,21.39,21.39,0,0,0-4.23-3.4,24.66,24.66,0,0,0-4.87-2.38,38.15,38.15,0,0,0-10.78-2,42.93,42.93,0,0,0-10.93.87,27.16,27.16,0,0,0-9.77,3.94,12.78,12.78,0,0,0-3.41,3.55,10.34,10.34,0,0,0-1.61,4.54,8.47,8.47,0,0,0,.81,4.62,11.23,11.23,0,0,0,3.18,3.81,19.17,19.17,0,0,0,9.88,3.54,24.65,24.65,0,0,0,10.74-1.17,10.91,10.91,0,0,0,4.34-2.75,7,7,0,0,0,1.86-4.49,6,6,0,0,0-1.94-4.4,10,10,0,0,0-4.6-2.47,17.2,17.2,0,0,0-5.45-.49,12.73,12.73,0,0,0-5.22,1.38,5.8,5.8,0,0,0-2,1.69,4.56,4.56,0,0,0-.84,2.37,4.51,4.51,0,0,0,2.74,4,10.28,10.28,0,0,0,5.39.87,8.39,8.39,0,0,0,2.67-.67,3.84,3.84,0,0,0,2-1.77,2.62,2.62,0,0,0-.07-2.56,3.66,3.66,0,0,0-2.18-1.6A7.69,7.69,0,0,0,956.54,210.44Z" transform="translate(419.81 -87.96)"/><path class="cls-6" d="M1145.06,211.77a7.61,7.61,0,0,0-5.51-.78,3.7,3.7,0,0,0-2.19,1.59,2.65,2.65,0,0,0-.06,2.56,3.83,3.83,0,0,0,2,1.78,8.79,8.79,0,0,0,2.68.67,10.3,10.3,0,0,0,5.39-.88,4.49,4.49,0,0,0,2.73-4.05,4.56,4.56,0,0,0-.84-2.37,5.88,5.88,0,0,0-1.94-1.69,12.73,12.73,0,0,0-5.22-1.38,17.18,17.18,0,0,0-5.45.49,10.22,10.22,0,0,0-4.61,2.47,6,6,0,0,0-1.93,4.4,6.9,6.9,0,0,0,1.86,4.49,10.91,10.91,0,0,0,4.34,2.75A24.65,24.65,0,0,0,1147,223a19.06,19.06,0,0,0,9.88-3.54,11.15,11.15,0,0,0,3.17-3.8,8.44,8.44,0,0,0,.82-4.63,10.34,10.34,0,0,0-1.61-4.54,12.78,12.78,0,0,0-3.41-3.55,27.23,27.23,0,0,0-9.77-3.94,42.92,42.92,0,0,0-10.93-.86,38.14,38.14,0,0,0-10.78,2,25,25,0,0,0-4.87,2.38,21.76,21.76,0,0,0-4.23,3.4,27.05,27.05,0,0,0-5.72,9.43,39,39,0,0,0-1.93,11.19,36.19,36.19,0,0,1,.65-11.58,27.49,27.49,0,0,1,5.26-10.58,25.61,25.61,0,0,1,9.74-7.06,39.42,39.42,0,0,1,11.63-2.77,45.29,45.29,0,0,1,12,.48,27.27,27.27,0,0,1,11.39,4.61,15.05,15.05,0,0,1,6.3,11.1,12.13,12.13,0,0,1-1.42,6.5,14.85,14.85,0,0,1-4.29,4.81,19,19,0,0,1-5.62,2.74,26.88,26.88,0,0,1-6,1.05,27.19,27.19,0,0,1-11.88-1.72,13.37,13.37,0,0,1-5.15-3.56,9.13,9.13,0,0,1-2.22-6,7.58,7.58,0,0,1,.78-3.2,8.8,8.8,0,0,1,1.94-2.56,11.92,11.92,0,0,1,5.5-2.74,19.05,19.05,0,0,1,6-.34,14.13,14.13,0,0,1,5.75,1.75,7.19,7.19,0,0,1,2.29,2.14,5.63,5.63,0,0,1,.94,3,4.8,4.8,0,0,1-1,3,6.26,6.26,0,0,1-2.42,1.89,11,11,0,0,1-5.86.74,9.28,9.28,0,0,1-2.84-.84,4.33,4.33,0,0,1-2.13-2.09,3,3,0,0,1,.19-2.93,4,4,0,0,1,2.41-1.63A7.75,7.75,0,0,1,1145.06,211.77Z" transform="translate(419.81 -87.96)"/><path class="cls-6" d="M1069.86,211a7.78,7.78,0,0,1,5.58-1,4,4,0,0,1,2.41,1.63,3,3,0,0,1,.19,2.93,4.33,4.33,0,0,1-2.13,2.09,9.28,9.28,0,0,1-2.84.84,11,11,0,0,1-5.86-.74,6.26,6.26,0,0,1-2.42-1.89,4.8,4.8,0,0,1-1-3,5.73,5.73,0,0,1,1-3,7.09,7.09,0,0,1,2.29-2.14,14.07,14.07,0,0,1,5.75-1.74,18.75,18.75,0,0,1,6,.33,11.92,11.92,0,0,1,5.5,2.74,8.8,8.8,0,0,1,1.94,2.56,7.58,7.58,0,0,1,.78,3.2,9.13,9.13,0,0,1-2.22,6,13.26,13.26,0,0,1-5.15,3.56,27.19,27.19,0,0,1-11.88,1.72,26.88,26.88,0,0,1-6-1.05,18.55,18.55,0,0,1-5.62-2.74,14.85,14.85,0,0,1-4.29-4.81,12.11,12.11,0,0,1-1.42-6.5,15.07,15.07,0,0,1,6.3-11.1,27.27,27.27,0,0,1,11.39-4.61,45.29,45.29,0,0,1,12-.48,39.42,39.42,0,0,1,11.63,2.77,25.61,25.61,0,0,1,9.74,7.06,27.63,27.63,0,0,1,5.26,10.58,36.19,36.19,0,0,1,.65,11.58,39,39,0,0,0-1.93-11.19,27.05,27.05,0,0,0-5.72-9.43,21.76,21.76,0,0,0-4.23-3.4,25,25,0,0,0-4.87-2.38,38.14,38.14,0,0,0-10.78-2,42.92,42.92,0,0,0-10.93.86,27.23,27.23,0,0,0-9.77,3.94,12.78,12.78,0,0,0-3.41,3.55,10.34,10.34,0,0,0-1.61,4.54,8.42,8.42,0,0,0,.82,4.63,11,11,0,0,0,3.17,3.8,19,19,0,0,0,9.88,3.54,24.5,24.5,0,0,0,10.74-1.17,10.91,10.91,0,0,0,4.34-2.75,6.9,6.9,0,0,0,1.86-4.49,6,6,0,0,0-1.94-4.4,10.14,10.14,0,0,0-4.6-2.47,17.47,17.47,0,0,0-5.45-.49,12.58,12.58,0,0,0-5.22,1.39,5.74,5.74,0,0,0-1.94,1.68,4.16,4.16,0,0,0,1.89,6.42,10.3,10.3,0,0,0,5.39.88,8.79,8.79,0,0,0,2.68-.67,3.86,3.86,0,0,0,2-1.77,2.67,2.67,0,0,0-.06-2.57,3.7,3.7,0,0,0-2.19-1.59A7.64,7.64,0,0,0,1069.86,211Z" transform="translate(419.81 -87.96)"/><path class="cls-6" d="M1258.4,211.49a7.66,7.66,0,0,0-5.51-.78,3.74,3.74,0,0,0-2.19,1.59,2.67,2.67,0,0,0-.06,2.57,3.86,3.86,0,0,0,2,1.77,8.79,8.79,0,0,0,2.68.67,10.3,10.3,0,0,0,5.39-.88,4.47,4.47,0,0,0,2.73-4.05,4.56,4.56,0,0,0-.84-2.37,5.74,5.74,0,0,0-1.94-1.68,12.74,12.74,0,0,0-5.22-1.39,17.47,17.47,0,0,0-5.45.5,10.11,10.11,0,0,0-4.61,2.46,6,6,0,0,0-1.93,4.41,6.94,6.94,0,0,0,1.86,4.49,10.82,10.82,0,0,0,4.34,2.74,24.48,24.48,0,0,0,10.74,1.17,19.14,19.14,0,0,0,9.88-3.53,11.09,11.09,0,0,0,3.17-3.81,8.42,8.42,0,0,0,.82-4.63,10.39,10.39,0,0,0-1.61-4.54,13.07,13.07,0,0,0-3.41-3.55,27.41,27.41,0,0,0-9.77-3.94,43.42,43.42,0,0,0-10.93-.86,37.8,37.8,0,0,0-10.78,2,24.4,24.4,0,0,0-4.87,2.38,21.42,21.42,0,0,0-4.23,3.39,27.05,27.05,0,0,0-5.72,9.43,39,39,0,0,0-1.93,11.19,36.12,36.12,0,0,1,.65-11.57,27.6,27.6,0,0,1,5.26-10.59,25.61,25.61,0,0,1,9.74-7.06,39.42,39.42,0,0,1,11.63-2.77,45.29,45.29,0,0,1,12,.48,27.46,27.46,0,0,1,11.39,4.61,15.07,15.07,0,0,1,6.3,11.11,12.1,12.1,0,0,1-1.42,6.49,14.8,14.8,0,0,1-4.3,4.82,18.59,18.59,0,0,1-5.61,2.73,26.32,26.32,0,0,1-6,1.05,27,27,0,0,1-11.88-1.72,13.23,13.23,0,0,1-5.15-3.55,9.13,9.13,0,0,1-2.22-6,7.64,7.64,0,0,1,.77-3.19,8.92,8.92,0,0,1,2-2.57,11.91,11.91,0,0,1,5.5-2.73,18.47,18.47,0,0,1,6-.34,14,14,0,0,1,5.75,1.75,7.16,7.16,0,0,1,2.29,2.13,5.75,5.75,0,0,1,.94,3,4.79,4.79,0,0,1-1,3,6.26,6.26,0,0,1-2.42,1.89,11,11,0,0,1-5.86.74,9.26,9.26,0,0,1-2.84-.83,4.37,4.37,0,0,1-2.13-2.09,3,3,0,0,1,.19-2.94,4,4,0,0,1,2.41-1.63A7.75,7.75,0,0,1,1258.4,211.49Z" transform="translate(419.81 -87.96)"/><path class="cls-6" d="M1183.2,210.71a7.83,7.83,0,0,1,5.58-1,4,4,0,0,1,2.41,1.63,3.07,3.07,0,0,1,.19,2.94,4.37,4.37,0,0,1-2.13,2.09,9.24,9.24,0,0,1-2.85.83,11,11,0,0,1-5.85-.74,6.19,6.19,0,0,1-2.42-1.89,4.8,4.8,0,0,1-1-3,5.76,5.76,0,0,1,1-3,7.06,7.06,0,0,1,2.29-2.13,13.94,13.94,0,0,1,5.74-1.75,18.53,18.53,0,0,1,6,.34,11.83,11.83,0,0,1,5.5,2.74,8.67,8.67,0,0,1,1.94,2.56,7.5,7.5,0,0,1,.78,3.19,9.13,9.13,0,0,1-2.22,6,13.23,13.23,0,0,1-5.15,3.55,27.22,27.22,0,0,1-11.89,1.73,26.92,26.92,0,0,1-6-1.06,18.76,18.76,0,0,1-5.62-2.73,14.78,14.78,0,0,1-4.29-4.82,12.1,12.1,0,0,1-1.42-6.49,15.07,15.07,0,0,1,6.3-11.11A27.4,27.4,0,0,1,1181.4,194a45.72,45.72,0,0,1,12-.48,39.13,39.13,0,0,1,11.63,2.78,25.48,25.48,0,0,1,9.74,7,27.74,27.74,0,0,1,5.26,10.59,36.4,36.4,0,0,1,.65,11.57,39,39,0,0,0-1.93-11.19,27.2,27.2,0,0,0-5.72-9.43,21.71,21.71,0,0,0-4.23-3.39,24.4,24.4,0,0,0-4.87-2.38,38.15,38.15,0,0,0-10.78-2,43.38,43.38,0,0,0-10.93.86,27.41,27.41,0,0,0-9.77,3.94,13.06,13.06,0,0,0-3.41,3.55,10.43,10.43,0,0,0-1.61,4.54,8.51,8.51,0,0,0,.81,4.63,11.23,11.23,0,0,0,3.18,3.81,19.17,19.17,0,0,0,9.88,3.54,24.65,24.65,0,0,0,10.74-1.17,11,11,0,0,0,4.34-2.75,7,7,0,0,0,1.86-4.49,6,6,0,0,0-1.94-4.41,10,10,0,0,0-4.6-2.46,17.18,17.18,0,0,0-5.45-.49,12.57,12.57,0,0,0-5.22,1.38,5.89,5.89,0,0,0-2,1.68,4.58,4.58,0,0,0-.83,2.37,4.47,4.47,0,0,0,2.73,4.05,10.28,10.28,0,0,0,5.39.88,8.51,8.51,0,0,0,2.68-.67,3.86,3.86,0,0,0,2-1.77,2.67,2.67,0,0,0-.06-2.57,3.74,3.74,0,0,0-2.19-1.59A7.74,7.74,0,0,0,1183.2,210.71Z" transform="translate(419.81 -87.96)"/><path class="cls-6" d="M1371.73,212a7.74,7.74,0,0,0-5.52-.78,3.71,3.71,0,0,0-2.19,1.6,2.65,2.65,0,0,0-.06,2.56,3.81,3.81,0,0,0,2,1.77,8.51,8.51,0,0,0,2.68.67A10.28,10.28,0,0,0,1374,217a4.16,4.16,0,0,0,1.89-6.42,5.77,5.77,0,0,0-1.94-1.69,12.73,12.73,0,0,0-5.22-1.38,17.18,17.18,0,0,0-5.45.49,10,10,0,0,0-4.6,2.46,6,6,0,0,0-1.94,4.41,6.9,6.9,0,0,0,1.86,4.49,10.91,10.91,0,0,0,4.34,2.75,24.65,24.65,0,0,0,10.74,1.17,19.17,19.17,0,0,0,9.88-3.54,11.23,11.23,0,0,0,3.18-3.81,8.47,8.47,0,0,0,.81-4.62,10.34,10.34,0,0,0-1.61-4.54,12.78,12.78,0,0,0-3.41-3.55,27.23,27.23,0,0,0-9.77-3.94,42.93,42.93,0,0,0-10.93-.87,38.15,38.15,0,0,0-10.78,2,24.4,24.4,0,0,0-4.87,2.38,21.39,21.39,0,0,0-4.23,3.4,27,27,0,0,0-5.72,9.42,39.09,39.09,0,0,0-1.93,11.19,36.42,36.42,0,0,1,.65-11.57,27.74,27.74,0,0,1,5.26-10.59,25.59,25.59,0,0,1,9.74-7.05,39.11,39.11,0,0,1,11.63-2.77,45.28,45.28,0,0,1,12,.47,27.29,27.29,0,0,1,11.39,4.62,15,15,0,0,1,6.3,11.1,12.08,12.08,0,0,1-1.42,6.49,14.78,14.78,0,0,1-4.29,4.82,18.76,18.76,0,0,1-5.62,2.73,26.92,26.92,0,0,1-6,1.06A27.36,27.36,0,0,1,1362,224.4a13.37,13.37,0,0,1-5.15-3.56,9.13,9.13,0,0,1-2.22-6,7.55,7.55,0,0,1,.78-3.2,8.8,8.8,0,0,1,1.94-2.56,11.83,11.83,0,0,1,5.5-2.74,19.07,19.07,0,0,1,6-.34,13.94,13.94,0,0,1,5.75,1.75,7,7,0,0,1,2.29,2.14,5.7,5.7,0,0,1,.95,3,4.85,4.85,0,0,1-1,3,6.38,6.38,0,0,1-2.42,1.89,11,11,0,0,1-5.85.73,9,9,0,0,1-2.85-.83,4.37,4.37,0,0,1-2.13-2.09,3.05,3.05,0,0,1,.19-2.93,4,4,0,0,1,2.41-1.64A7.88,7.88,0,0,1,1371.73,212Z" transform="translate(419.81 -87.96)"/><path class="cls-6" d="M1296.53,211.27a7.75,7.75,0,0,1,5.57-1,4,4,0,0,1,2.41,1.63,3,3,0,0,1,.19,2.93,4.37,4.37,0,0,1-2.13,2.09,9,9,0,0,1-2.84.83,11,11,0,0,1-5.86-.73,6.36,6.36,0,0,1-2.42-1.89,4.84,4.84,0,0,1-1-3,5.6,5.6,0,0,1,.94-3,7.08,7.08,0,0,1,2.29-2.14,14,14,0,0,1,5.75-1.75,19.05,19.05,0,0,1,6,.34,11.92,11.92,0,0,1,5.5,2.74,8.8,8.8,0,0,1,1.94,2.56,7.55,7.55,0,0,1,.78,3.2,9.13,9.13,0,0,1-2.22,6,13.37,13.37,0,0,1-5.15,3.56,28.66,28.66,0,0,1-17.87.67,19,19,0,0,1-5.62-2.74,14.85,14.85,0,0,1-4.29-4.81,12.13,12.13,0,0,1-1.42-6.5,15.05,15.05,0,0,1,6.3-11.1,27.14,27.14,0,0,1,11.39-4.61,45.29,45.29,0,0,1,12-.48,39.11,39.11,0,0,1,11.63,2.77,25.51,25.51,0,0,1,9.74,7.06,27.49,27.49,0,0,1,5.26,10.58A36.15,36.15,0,0,1,1334,226a39.15,39.15,0,0,0-1.93-11.19,27.1,27.1,0,0,0-5.72-9.42,21.11,21.11,0,0,0-4.23-3.4,24.4,24.4,0,0,0-4.87-2.38,38.5,38.5,0,0,0-10.78-2,42.93,42.93,0,0,0-10.93.87,27.23,27.23,0,0,0-9.77,3.94,12.78,12.78,0,0,0-3.41,3.55,10.34,10.34,0,0,0-1.61,4.54,8.44,8.44,0,0,0,.82,4.63,11.15,11.15,0,0,0,3.17,3.8,19.23,19.23,0,0,0,9.88,3.54,24.63,24.63,0,0,0,10.74-1.17,10.84,10.84,0,0,0,4.34-2.75,6.9,6.9,0,0,0,1.86-4.49,6,6,0,0,0-1.93-4.4,10.13,10.13,0,0,0-4.61-2.47,17.18,17.18,0,0,0-5.45-.49,12.73,12.73,0,0,0-5.22,1.38,5.77,5.77,0,0,0-1.94,1.69,4.56,4.56,0,0,0-.84,2.37,4.49,4.49,0,0,0,2.73,4.05,10.29,10.29,0,0,0,5.39.87,8.51,8.51,0,0,0,2.68-.67,3.81,3.81,0,0,0,2-1.77,2.65,2.65,0,0,0-.06-2.56,3.71,3.71,0,0,0-2.19-1.6A7.66,7.66,0,0,0,1296.53,211.27Z" transform="translate(419.81 -87.96)"/><path class="cls-6" d="M15.45,209.27a7.73,7.73,0,0,0-5.52-.78,3.69,3.69,0,0,0-2.18,1.59,2.64,2.64,0,0,0-.07,2.57,3.88,3.88,0,0,0,2,1.77,8.39,8.39,0,0,0,2.67.67,10.26,10.26,0,0,0,5.39-.87,4.53,4.53,0,0,0,2.74-4.06,4.63,4.63,0,0,0-.84-2.37,5.89,5.89,0,0,0-1.95-1.68,12.53,12.53,0,0,0-5.22-1.38,17.2,17.2,0,0,0-5.45.49,10,10,0,0,0-4.6,2.46,6,6,0,0,0-1.94,4.41,7,7,0,0,0,1.86,4.49,11.09,11.09,0,0,0,4.34,2.75,24.65,24.65,0,0,0,10.74,1.17A19.17,19.17,0,0,0,27.27,217a11.12,11.12,0,0,0,3.18-3.81,8.42,8.42,0,0,0,.81-4.63A10.35,10.35,0,0,0,29.65,204a13,13,0,0,0-3.41-3.56,27.34,27.34,0,0,0-9.77-3.94,43.38,43.38,0,0,0-10.93-.86,38.15,38.15,0,0,0-10.78,2A24.66,24.66,0,0,0-10.11,200a22,22,0,0,0-4.23,3.39A27.18,27.18,0,0,0-20,212.85,38.35,38.35,0,0,0-22,224a36.11,36.11,0,0,1,.64-11.57,27.74,27.74,0,0,1,5.26-10.59,25.56,25.56,0,0,1,9.74-7,39.44,39.44,0,0,1,11.63-2.78,45.72,45.72,0,0,1,12,.48,27.5,27.5,0,0,1,11.4,4.61,15.09,15.09,0,0,1,6.29,11.11,11.92,11.92,0,0,1-1.42,6.49,14.78,14.78,0,0,1-4.29,4.82,18.76,18.76,0,0,1-5.62,2.73,26.92,26.92,0,0,1-6,1.06,27.22,27.22,0,0,1-11.89-1.73A13.2,13.2,0,0,1,.6,218.07a9.09,9.09,0,0,1-2.23-6,7.65,7.65,0,0,1,.78-3.19,8.67,8.67,0,0,1,1.94-2.56,11.88,11.88,0,0,1,5.5-2.74,18.53,18.53,0,0,1,6-.34A14,14,0,0,1,18.32,205a7,7,0,0,1,2.28,2.13,5.76,5.76,0,0,1,.95,3,4.8,4.8,0,0,1-1,3A6.31,6.31,0,0,1,18.1,215a11.11,11.11,0,0,1-5.85.73,9.24,9.24,0,0,1-2.85-.83,4.37,4.37,0,0,1-2.13-2.09,3.07,3.07,0,0,1,.19-2.94,4,4,0,0,1,2.41-1.63A7.83,7.83,0,0,1,15.45,209.27Z" transform="translate(419.81 -87.96)"/><path class="cls-6" d="M128.13,207.72a7.64,7.64,0,0,0-5.52-.78,3.7,3.7,0,0,0-2.19,1.59,2.67,2.67,0,0,0-.06,2.57,3.84,3.84,0,0,0,2,1.77,8.66,8.66,0,0,0,2.67.67,10.28,10.28,0,0,0,5.39-.88,4.49,4.49,0,0,0,2.73-4,4.55,4.55,0,0,0-.83-2.37,5.77,5.77,0,0,0-1.95-1.68,12.58,12.58,0,0,0-5.22-1.39,17.5,17.5,0,0,0-5.45.49,10.14,10.14,0,0,0-4.6,2.47,6,6,0,0,0-1.94,4.4A7,7,0,0,0,115,215a10.91,10.91,0,0,0,4.34,2.75,24.65,24.65,0,0,0,10.74,1.17A19,19,0,0,0,140,215.4a11.1,11.1,0,0,0,3.18-3.8,8.52,8.52,0,0,0,.81-4.63,10.34,10.34,0,0,0-1.61-4.54,12.78,12.78,0,0,0-3.41-3.55,27.23,27.23,0,0,0-9.77-3.94,42.92,42.92,0,0,0-10.93-.86,38.14,38.14,0,0,0-10.78,2,25.23,25.23,0,0,0-4.87,2.38,21.76,21.76,0,0,0-4.23,3.4,27.2,27.2,0,0,0-5.72,9.43,39,39,0,0,0-1.93,11.19,36.48,36.48,0,0,1,.65-11.58,27.77,27.77,0,0,1,5.26-10.58,25.61,25.61,0,0,1,9.74-7.06A39.42,39.42,0,0,1,118,190.5a45.29,45.29,0,0,1,12,.48,27.27,27.27,0,0,1,11.39,4.61,15.07,15.07,0,0,1,6.3,11.1,12.13,12.13,0,0,1-1.42,6.5,14.85,14.85,0,0,1-4.29,4.81,18.55,18.55,0,0,1-5.62,2.74,26.9,26.9,0,0,1-6,1,27.21,27.21,0,0,1-11.89-1.72,13.26,13.26,0,0,1-5.15-3.56,9.13,9.13,0,0,1-2.22-6,7.58,7.58,0,0,1,.78-3.2,8.8,8.8,0,0,1,1.94-2.56,11.92,11.92,0,0,1,5.5-2.74,18.81,18.81,0,0,1,6-.33,13.92,13.92,0,0,1,5.74,1.74,7.09,7.09,0,0,1,2.29,2.14,5.73,5.73,0,0,1,.95,3,4.8,4.8,0,0,1-1,3,6.19,6.19,0,0,1-2.42,1.89,11,11,0,0,1-5.85.74,9.26,9.26,0,0,1-2.85-.84,4.33,4.33,0,0,1-2.13-2.09,3.05,3.05,0,0,1,.19-2.93,4,4,0,0,1,2.41-1.63A7.78,7.78,0,0,1,128.13,207.72Z" transform="translate(419.81 -87.96)"/><path class="cls-6" d="M52.93,206.94a7.75,7.75,0,0,1,5.57-1,4,4,0,0,1,2.41,1.63,3,3,0,0,1,.19,2.94A4.37,4.37,0,0,1,59,212.6a9.54,9.54,0,0,1-2.84.83,11,11,0,0,1-5.86-.74,6.26,6.26,0,0,1-2.42-1.89,4.79,4.79,0,0,1-1-3,5.75,5.75,0,0,1,.94-3,7,7,0,0,1,2.29-2.13,14,14,0,0,1,5.75-1.75,18.47,18.47,0,0,1,6,.34,11.81,11.81,0,0,1,5.5,2.73,9,9,0,0,1,2,2.56,7.72,7.72,0,0,1,.77,3.2,9.13,9.13,0,0,1-2.22,6,13.23,13.23,0,0,1-5.15,3.55A27.19,27.19,0,0,1,50.75,221a26.32,26.32,0,0,1-6-1,18.39,18.39,0,0,1-5.61-2.74,14.77,14.77,0,0,1-4.3-4.81,12.1,12.1,0,0,1-1.42-6.49,15.07,15.07,0,0,1,6.3-11.11,27.33,27.33,0,0,1,11.39-4.61,45.29,45.29,0,0,1,12-.48,39.42,39.42,0,0,1,11.63,2.77,25.61,25.61,0,0,1,9.74,7.06,27.6,27.6,0,0,1,5.26,10.59,36.12,36.12,0,0,1,.65,11.57,39,39,0,0,0-1.93-11.19,27.05,27.05,0,0,0-5.72-9.43,21.42,21.42,0,0,0-4.23-3.39,24.4,24.4,0,0,0-4.87-2.38,37.8,37.8,0,0,0-10.78-2,43,43,0,0,0-10.93.86,27.23,27.23,0,0,0-9.77,3.94,12.93,12.93,0,0,0-3.41,3.55,10.34,10.34,0,0,0-1.61,4.54,8.42,8.42,0,0,0,.82,4.63,11.09,11.09,0,0,0,3.17,3.81A19.14,19.14,0,0,0,51,218.16,24.48,24.48,0,0,0,61.72,217a10.84,10.84,0,0,0,4.34-2.75,6.9,6.9,0,0,0,1.86-4.49,6,6,0,0,0-1.93-4.4,10.11,10.11,0,0,0-4.61-2.46,17.18,17.18,0,0,0-5.45-.5,12.74,12.74,0,0,0-5.22,1.39,5.74,5.74,0,0,0-1.94,1.68,4.56,4.56,0,0,0-.84,2.37,4.49,4.49,0,0,0,2.73,4,10.3,10.3,0,0,0,5.39.88,8.79,8.79,0,0,0,2.68-.67,3.86,3.86,0,0,0,2-1.77,2.67,2.67,0,0,0-.06-2.57,3.74,3.74,0,0,0-2.19-1.59A7.61,7.61,0,0,0,52.93,206.94Z" transform="translate(419.81 -87.96)"/><path class="cls-6" d="M241.45,208.27a7.73,7.73,0,0,0-5.52-.78,3.69,3.69,0,0,0-2.18,1.59,2.64,2.64,0,0,0-.07,2.57,3.88,3.88,0,0,0,2,1.77,8.39,8.39,0,0,0,2.67.67,10.26,10.26,0,0,0,5.39-.87,4.53,4.53,0,0,0,2.74-4.06,4.63,4.63,0,0,0-.84-2.37,5.89,5.89,0,0,0-2-1.68,12.53,12.53,0,0,0-5.22-1.38,17.2,17.2,0,0,0-5.45.49,10,10,0,0,0-4.6,2.46,6,6,0,0,0-1.94,4.41,7,7,0,0,0,1.86,4.49,11.09,11.09,0,0,0,4.34,2.75,24.65,24.65,0,0,0,10.74,1.17,19.17,19.17,0,0,0,9.88-3.54,11.12,11.12,0,0,0,3.18-3.81,8.42,8.42,0,0,0,.81-4.63,10.35,10.35,0,0,0-1.61-4.53,13,13,0,0,0-3.41-3.56,27.34,27.34,0,0,0-9.77-3.94,43.38,43.38,0,0,0-10.93-.86,38.15,38.15,0,0,0-10.78,2,24.66,24.66,0,0,0-4.87,2.38,22,22,0,0,0-4.23,3.39,27.18,27.18,0,0,0-5.71,9.43A38.35,38.35,0,0,0,204,223a36.11,36.11,0,0,1,.64-11.57,27.74,27.74,0,0,1,5.26-10.59,25.56,25.56,0,0,1,9.74-7,39.44,39.44,0,0,1,11.63-2.78,45.72,45.72,0,0,1,12,.48,27.5,27.5,0,0,1,11.4,4.61,15.09,15.09,0,0,1,6.29,11.11,11.92,11.92,0,0,1-1.42,6.49,14.78,14.78,0,0,1-4.29,4.82,18.76,18.76,0,0,1-5.62,2.73,26.92,26.92,0,0,1-6,1.06,27.22,27.22,0,0,1-11.89-1.73,13.2,13.2,0,0,1-5.14-3.55,9.09,9.09,0,0,1-2.23-6,7.65,7.65,0,0,1,.78-3.19,8.67,8.67,0,0,1,1.94-2.56,11.88,11.88,0,0,1,5.5-2.74,18.53,18.53,0,0,1,6-.34,14,14,0,0,1,5.75,1.75,7,7,0,0,1,2.28,2.13,5.76,5.76,0,0,1,1,3,4.8,4.8,0,0,1-1,3,6.31,6.31,0,0,1-2.42,1.9,11.11,11.11,0,0,1-5.85.73,9.24,9.24,0,0,1-2.85-.83,4.37,4.37,0,0,1-2.13-2.09,3.07,3.07,0,0,1,.19-2.94,4,4,0,0,1,2.41-1.63A7.83,7.83,0,0,1,241.45,208.27Z" transform="translate(419.81 -87.96)"/><path class="cls-6" d="M166.25,207.49a7.81,7.81,0,0,1,5.57-1,4,4,0,0,1,2.41,1.63,3,3,0,0,1,.19,2.94,4.37,4.37,0,0,1-2.13,2.09,9.26,9.26,0,0,1-2.84.83,11,11,0,0,1-5.86-.73,6.39,6.39,0,0,1-2.42-1.9,4.79,4.79,0,0,1-1-3,5.75,5.75,0,0,1,.94-3,7.16,7.16,0,0,1,2.29-2.13,14,14,0,0,1,5.75-1.75,18.76,18.76,0,0,1,6,.34,11.78,11.78,0,0,1,5.5,2.74,8.87,8.87,0,0,1,2,2.56,7.64,7.64,0,0,1,.77,3.19,9.08,9.08,0,0,1-2.22,6,13.16,13.16,0,0,1-5.15,3.55,27.19,27.19,0,0,1-11.88,1.73,26.72,26.72,0,0,1-6-1.06,18.64,18.64,0,0,1-5.62-2.73,14.7,14.7,0,0,1-4.3-4.82,12.1,12.1,0,0,1-1.42-6.49,15.07,15.07,0,0,1,6.3-11.11,27.51,27.51,0,0,1,11.39-4.61,45.32,45.32,0,0,1,12-.47A39.11,39.11,0,0,1,188,193.05a25.48,25.48,0,0,1,9.74,7A27.62,27.62,0,0,1,203,210.69a36.11,36.11,0,0,1,.64,11.57,38.74,38.74,0,0,0-1.93-11.19,27.05,27.05,0,0,0-5.72-9.43,21.65,21.65,0,0,0-4.22-3.39,24.74,24.74,0,0,0-4.88-2.38,38.08,38.08,0,0,0-10.78-2,43,43,0,0,0-10.93.87,27.23,27.23,0,0,0-9.77,3.94,13.08,13.08,0,0,0-3.41,3.55,10.47,10.47,0,0,0-1.61,4.54,8.49,8.49,0,0,0,.82,4.62,11.2,11.2,0,0,0,3.17,3.81,19.23,19.23,0,0,0,9.88,3.54A24.63,24.63,0,0,0,175,217.55a10.94,10.94,0,0,0,4.34-2.75,6.92,6.92,0,0,0,1.86-4.49,6,6,0,0,0-1.93-4.41,10.11,10.11,0,0,0-4.61-2.46,17.15,17.15,0,0,0-5.45-.49,12.57,12.57,0,0,0-5.22,1.38,5.77,5.77,0,0,0-1.94,1.69,4.56,4.56,0,0,0-.84,2.37,4.51,4.51,0,0,0,2.73,4.05,10.29,10.29,0,0,0,5.39.87,8.51,8.51,0,0,0,2.68-.67,3.78,3.78,0,0,0,2-1.77,2.67,2.67,0,0,0-.06-2.57,3.74,3.74,0,0,0-2.19-1.59A7.71,7.71,0,0,0,166.25,207.49Z" transform="translate(419.81 -87.96)"/><g class="cls-1"><rect class="cls-7" x="422.81" y="139.45" width="1363" height="332.59"/></g><path class="cls-4" d="M313.5,241c-53.83-2.08-108.43-3.14-162.31-3.14h-1.3C96.81,237.9,43,239-10.07,241V175c53.07,2,106.88,3.09,160,3.1h1.3c53.91,0,108.54-1.06,162.4-3.15a188.45,188.45,0,0,0,19.76,18,190.67,190.67,0,0,0,19,13.19A175.15,175.15,0,0,0,313.5,241Z" transform="translate(419.81 -87.96)"/><path class="cls-6" d="M312.8,176.92a189.46,189.46,0,0,0,19.35,17.56,192.14,192.14,0,0,0,16.63,11.74,180.55,180.55,0,0,0-18.11,14.17,176.78,176.78,0,0,0-18,18.68C259.08,237,204.77,236,151.19,236h-1.3c-52.44,0-105.59,1-158,3V177c52.44,2,105.59,3,158,3h1.3c53.64,0,108-1,161.61-3.12m1.59-3.92q-78.74,3.08-163.2,3.18h-1.3Q66.19,176.15-12,173v70q78.12-3,161.89-3.18h1.3q84.41,0,163.2,3.18a172.34,172.34,0,0,1,18.85-19.73A174.56,174.56,0,0,1,356,206.09a187.67,187.67,0,0,1-21.46-14.64A185.82,185.82,0,0,1,314.39,173Z" transform="translate(419.81 -87.96)"/><path class="cls-6" d="M326.16,187.55a58.25,58.25,0,0,0-13.43-11.68c-1.27-.75-2.58-1.42-3.93-2.06s-2.74-1.23-4.15-2a11.77,11.77,0,0,1-3.83-3.12,15.4,15.4,0,0,1-2.24-4.33,8.63,8.63,0,0,1-.15-5.13,11,11,0,0,1,2.5-4.34,19.83,19.83,0,0,1,8.06-5.09,22.63,22.63,0,0,1,9.4-1.28,15.82,15.82,0,0,1,8.84,3.71,11.9,11.9,0,0,1,4.21,8.67,9.23,9.23,0,0,1-1.21,4.85,10.73,10.73,0,0,1-3.38,3.58,12.91,12.91,0,0,1-9.32,1.95,10.32,10.32,0,0,1-4.45-2,7.89,7.89,0,0,1-2.75-4.07,6.29,6.29,0,0,1,.51-4.91,7.15,7.15,0,0,1,3.73-3.11,8.21,8.21,0,0,1,4.78-.35,6,6,0,0,1,3.84,2.85,4.56,4.56,0,0,1,.54,2.4,3.83,3.83,0,0,1-.92,2.27,5.09,5.09,0,0,1-4.33,1.65,3.57,3.57,0,0,1-3.3-2.94A2.36,2.36,0,0,1,316,161a3.19,3.19,0,0,1,2.13-.71,3.09,3.09,0,0,0-2.05.81,2.2,2.2,0,0,0-.7,2,3.23,3.23,0,0,0,3.1,2.52,4.54,4.54,0,0,0,3.78-1.61,3.39,3.39,0,0,0,.15-3.85,5,5,0,0,0-3.33-2.29,7.06,7.06,0,0,0-4.13.44,5.93,5.93,0,0,0-3,2.67,5,5,0,0,0-.27,3.89,7.7,7.7,0,0,0,6.13,4.89,11.24,11.24,0,0,0,8-1.83,8,8,0,0,0,3.64-6.88,10,10,0,0,0-3.62-7.14,13.67,13.67,0,0,0-7.66-3.16,20.43,20.43,0,0,0-8.46,1.21,17.75,17.75,0,0,0-7.14,4.53,8.86,8.86,0,0,0-2,3.44,6.35,6.35,0,0,0,.09,3.81,13.05,13.05,0,0,0,1.87,3.73,9.62,9.62,0,0,0,3.15,2.57c1.26.69,2.65,1.29,4,2a43.47,43.47,0,0,1,4.08,2.21,58,58,0,0,1,13.65,12.32Z" transform="translate(419.81 -87.96)"/><path class="cls-6" d="M329.6,224.19c-3.22,5.44-6.91,10.74-11.81,15A38.46,38.46,0,0,1,314,242.1c-1.31.9-2.65,1.72-3.78,2.64a9.09,9.09,0,0,0-2.6,3.28,16.13,16.13,0,0,0-1.24,4.19,9.27,9.27,0,0,0,2.49,7.73,17.08,17.08,0,0,0,7.33,4.7,16.84,16.84,0,0,0,8.68.7,11.82,11.82,0,0,0,7.07-4.58,12.09,12.09,0,0,0,2.31-8.15,9.8,9.8,0,0,0-4.09-7.21A9.55,9.55,0,0,0,322,244a7.58,7.58,0,0,0-5.16,6.2,6.75,6.75,0,0,0,.69,4.13,6.29,6.29,0,0,0,3.14,2.79,5.78,5.78,0,0,0,4.19.15,4.88,4.88,0,0,0,2.87-3,4.45,4.45,0,0,0-.57-4.12,4.14,4.14,0,0,0-3.9-1.57,3.24,3.24,0,0,0-1.88,1.09,3.31,3.31,0,0,0-.78,2.07,2.76,2.76,0,0,0,.84,2.06,2.8,2.8,0,0,0,2.12.79,2.84,2.84,0,0,1-2.2-.71,2.88,2.88,0,0,1-1-2.14,3.56,3.56,0,0,1,.74-2.28,3.68,3.68,0,0,1,2.05-1.32,4.7,4.7,0,0,1,4.51,1.59,5.17,5.17,0,0,1,.89,4.81,5.8,5.8,0,0,1-3.32,3.69,6.93,6.93,0,0,1-5,0,7.55,7.55,0,0,1-3.87-3.24,8.07,8.07,0,0,1-1-5,9,9,0,0,1,6.1-7.64,11.32,11.32,0,0,1,9.78,1.53,11.77,11.77,0,0,1,5.06,8.57,13.91,13.91,0,0,1-2.59,9.62,14.09,14.09,0,0,1-8.36,5.49,20.24,20.24,0,0,1-18.26-6.06,12.73,12.73,0,0,1-2.58-4.44,10.8,10.8,0,0,1-.39-5.2,18.33,18.33,0,0,1,1.47-4.8,11.29,11.29,0,0,1,3.22-4c1.32-1.05,2.68-1.86,4-2.73a41.87,41.87,0,0,0,3.69-2.73c4.71-3.91,8.42-9,11.69-14.27Z" transform="translate(419.81 -87.96)"/></g></svg>