<?xml version="1.0" encoding="utf-8"?>
<!-- Generator: Adobe Illustrator 23.1.1, SVG Export Plug-In . SVG Version: 6.00 Build 0)  -->
<svg version="1.1" xmlns="http://www.w3.org/2000/svg" xmlns:xlink="http://www.w3.org/1999/xlink" x="0px" y="0px"
	 viewBox="0 0 1024 768" style="enable-background:new 0 0 1024 768;" xml:space="preserve">
<g id="Background">
	<g>
		<g>
			<defs>
				<rect id="SVGID_1_" x="-2" y="3" width="1023.2" height="767"/>
			</defs>
			<clipPath id="SVGID_2_">
				<use xlink:href="#SVGID_1_"  style="overflow:visible;"/>
			</clipPath>
			<g style="clip-path:url(#SVGID_2_);">
				<defs>
					<rect id="SVGID_3_" x="-2" y="3" width="1023.2" height="767"/>
				</defs>
				<clipPath id="SVGID_4_">
					<use xlink:href="#SVGID_3_"  style="overflow:visible;"/>
				</clipPath>
				<g style="clip-path:url(#SVGID_4_);">
					
						<image style="overflow:visible;" width="2732" height="2048" xlink:href="8795952D8120FB94.jpg"  transform="matrix(0.3745 0 0 0.3745 -2 3)">
					</image>
				</g>
			</g>
		</g>
	</g>
</g>
<g id="Jewel">
	<g>
		<defs>
			<path id="SVGID_5_" d="M164-114c-31,1.5-92.8,638.6-101,660c-17.9,46.9,54.8,94.3,92,98c40.8,4.1,123.1-33.7,106-84
				C252.5,535,196.7-115.5,164-114z"/>
		</defs>
		<clipPath id="SVGID_6_">
			<use xlink:href="#SVGID_5_"  style="overflow:visible;"/>
		</clipPath>
		<g style="clip-path:url(#SVGID_6_);">
			<g>
				<defs>
					<rect id="SVGID_7_" x="1" y="6.5" width="1016" height="761.6"/>
				</defs>
				<clipPath id="SVGID_8_">
					<use xlink:href="#SVGID_7_"  style="overflow:visible;"/>
				</clipPath>
				<g style="clip-path:url(#SVGID_8_);">
					<defs>
						<rect id="SVGID_9_" x="1" y="6.5" width="1016" height="761.6"/>
					</defs>
					<clipPath id="SVGID_10_">
						<use xlink:href="#SVGID_9_"  style="overflow:visible;"/>
					</clipPath>
					<g transform="matrix(1 0 0 1 5.960464e-08 4.768372e-07)" style="clip-path:url(#SVGID_10_);">
						
							<image style="overflow:visible;" width="2732" height="2048" xlink:href="8795952D8120FB95.jpg"  transform="matrix(0.3719 0 0 0.3719 1 6.4629)">
						</image>
					</g>
				</g>
			</g>
		</g>
	</g>
</g>
<g id="Rock" style="display:none;">
	<g style="display:inline;">
		<defs>
			<path id="SVGID_11_" d="M169,259c-39.7-0.1-67.1,37-77,64c-17.6,48.1,2.6,112,41,125c46.3,15.7,120.2-42.4,116-105
				C246.3,303.6,212.5,259.1,169,259z"/>
		</defs>
		<clipPath id="SVGID_12_">
			<use xlink:href="#SVGID_11_"  style="overflow:visible;"/>
		</clipPath>
		<g style="clip-path:url(#SVGID_12_);">
			<g>
				<defs>
					<rect id="SVGID_13_" x="6" y="7" width="1012.6" height="759.1"/>
				</defs>
				<clipPath id="SVGID_14_">
					<use xlink:href="#SVGID_13_"  style="overflow:visible;"/>
				</clipPath>
				<g style="clip-path:url(#SVGID_14_);">
					<defs>
						<rect id="SVGID_15_" x="6" y="7" width="1012.6" height="759.1"/>
					</defs>
					<clipPath id="SVGID_16_">
						<use xlink:href="#SVGID_15_"  style="overflow:visible;"/>
					</clipPath>
					<g style="clip-path:url(#SVGID_16_);">
						
							<image style="overflow:visible;" width="2732" height="2048" xlink:href="8795952D8120FB93.jpg"  transform="matrix(0.3706 0 0 0.3706 6 7)">
						</image>
					</g>
				</g>
			</g>
		</g>
	</g>
</g>
<g id="versebar" style="display:none;">
	<g style="display:inline;">
		<defs>
			<path id="SVGID_17_" d="M273.5,624.5c-0.8,25.6-7.4,34.8-14,38c-8.4,4.1-16.9-1.6-26,5c-6.2,4.5-8.3,11.5-10,17
				c-1.7,5.7-4.8,15.9,0,26c5.1,10.8,17.9,18.7,31,17c15.2-2,27.6-16.5,27-34c68.1,19.8,160.5,39.4,271,42
				c125.8,3,230.3-16.9,304-37c0.3,1.2,4.6,16.7,20,22c0.9,0.3,13.8,4.5,26-3c12.2-7.5,19.6-24.3,14-36c-4.2-8.9-14.5-12-21-14
				c-10.3-3.1-19.2-2-24-1c0.3-10,0.7-20,1-30c-71,22.5-181.2,48.1-317,43C436.1,675,339.3,648.3,273.5,624.5z"/>
		</defs>
		<clipPath id="SVGID_18_">
			<use xlink:href="#SVGID_17_"  style="overflow:visible;"/>
		</clipPath>
		<g style="clip-path:url(#SVGID_18_);">
			<g>
				<defs>
					<rect id="SVGID_19_" x="7" y="6" width="1012.6" height="759.1"/>
				</defs>
				<clipPath id="SVGID_20_">
					<use xlink:href="#SVGID_19_"  style="overflow:visible;"/>
				</clipPath>
				<g style="clip-path:url(#SVGID_20_);">
					<defs>
						<rect id="SVGID_21_" x="7" y="6" width="1012.6" height="759.1"/>
					</defs>
					<clipPath id="SVGID_22_">
						<use xlink:href="#SVGID_21_"  style="overflow:visible;"/>
					</clipPath>
					<g transform="matrix(1 0 0 1 4.768372e-07 0)" style="clip-path:url(#SVGID_22_);">
						
							<image style="overflow:visible;" width="2732" height="2048" xlink:href="8795952D8120FB9C.jpg"  transform="matrix(0.3706 0 0 0.3706 7 6)">
						</image>
					</g>
				</g>
			</g>
		</g>
	</g>
</g>
</svg>
