<?xml version="1.0" encoding="utf-8"?>
<!-- Generator: Adobe Illustrator 24.1.0, SVG Export Plug-In . SVG Version: 6.00 Build 0)  -->
<svg version="1.1" xmlns="http://www.w3.org/2000/svg" xmlns:xlink="http://www.w3.org/1999/xlink" x="0px" y="0px"
	 viewBox="0 0 361 360" style="enable-background:new 0 0 361 360;" xml:space="preserve">
<style type="text/css">
	.st0{fill:none;}
	.st1{fill:none;stroke:#FFFFFF;stroke-width:3;stroke-linecap:round;stroke-miterlimit:10;}
	.st2{fill:#FFFFFF;stroke:#FFFFFF;stroke-width:3;stroke-linecap:round;stroke-miterlimit:10;}
	.st3{fill:#FFFFFF;}
	.st4{fill:none;stroke:#FFFFFF;stroke-width:5;stroke-linecap:round;stroke-miterlimit:10;}
	.st5{fill:#FFCC1F;}
	.st6{fill:#8A5D3B;stroke:#231F20;stroke-width:3.7714;stroke-miterlimit:10;}
	.st7{fill:#FFFFFF;stroke:#231F20;stroke-width:1.8857;stroke-miterlimit:10;}
	.st8{fill:none;stroke:#231F20;stroke-width:0.9429;stroke-linecap:round;stroke-miterlimit:10;}
	.st9{fill:#FFFFFF;stroke:#231F20;stroke-width:0.9429;stroke-miterlimit:10;}
	.st10{fill:#EC3292;stroke:#231F20;stroke-width:3.7714;stroke-linecap:round;stroke-miterlimit:10;}
	.st11{fill:none;stroke:#231F20;stroke-width:1.8857;stroke-miterlimit:10;}
	.st12{fill:#7ED2F6;stroke:#231F20;stroke-width:1.8857;stroke-miterlimit:10;}
	.st13{fill:#231F20;}
	.st14{fill:#C3996B;}
	.st15{fill:none;stroke:#FFFFFF;stroke-width:0.9429;stroke-linecap:round;stroke-miterlimit:10;}
	.st16{fill:none;stroke:#231F20;stroke-width:3.7714;stroke-linecap:round;stroke-miterlimit:10;}
	.st17{fill:none;stroke:#231F20;stroke-width:2.8286;stroke-linecap:round;stroke-miterlimit:10;}
	.st18{fill:#231F20;stroke:#231F20;stroke-width:1.0104;stroke-miterlimit:10;}
	.st19{fill:#8A5D3B;stroke:#231F20;stroke-width:0.9425;stroke-miterlimit:10;}
	.st20{fill:none;stroke:#231F20;stroke-width:1.8849;stroke-miterlimit:10;}
	.st21{fill:#B2946D;}
	.st22{fill:#B89571;stroke:#231F20;stroke-width:0.9389;stroke-miterlimit:10;}
	.st23{fill:#FFFFFF;stroke:#231F20;stroke-width:0.9389;stroke-miterlimit:10;}
	.st24{fill:#39C5F3;}
	.st25{fill:#231F20;stroke:#231F20;stroke-width:0.9389;stroke-linecap:round;stroke-miterlimit:10;}
	.st26{fill:#231F20;stroke:#231F20;stroke-width:0.9389;stroke-miterlimit:10;}
	.st27{fill:#B78A6B;stroke:#231F20;stroke-width:0.4695;stroke-linecap:round;stroke-miterlimit:10;}
	.st28{fill:#B3966C;}
	.st29{fill:#FFFFFF;stroke:#FFFFFF;stroke-width:0.4695;stroke-linecap:round;stroke-miterlimit:10;}
	.st30{opacity:0.12;fill:url(#SVGID_7_);}
	.st31{opacity:0.12;fill:url(#SVGID_8_);}
	.st32{fill:#D7C1B4;}
	.st33{fill:#D7C1B4;stroke:#231F20;stroke-width:1.1281;stroke-linecap:round;stroke-miterlimit:10;}
	.st34{fill:#D7C1B3;stroke:#231F20;stroke-width:1.1281;stroke-miterlimit:10;}
	.st35{fill:#D7C1B3;stroke:#231F20;stroke-width:6.7686;stroke-miterlimit:10;}
	.st36{fill:#E3E4E5;}
	.st37{fill:#231F20;stroke:#231F20;stroke-width:2.2562;stroke-linecap:round;stroke-miterlimit:10;}
	.st38{fill:none;stroke:#FFFFFF;stroke-width:1.1281;stroke-linecap:round;stroke-miterlimit:10;}
	.st39{fill:#231F20;stroke:#231F20;stroke-width:2.2562;stroke-miterlimit:10;}
	.st40{fill:none;stroke:#231F20;stroke-width:2.2562;stroke-linecap:round;stroke-miterlimit:10;}
	.st41{fill:#81D3F6;stroke:#231F20;stroke-width:2.2562;stroke-linecap:round;stroke-miterlimit:10;}
	.st42{fill:#D7C1B3;stroke:#231F20;stroke-width:2.2562;stroke-miterlimit:10;}
	.st43{opacity:0.12;fill:url(#SVGID_9_);}
	.st44{fill:none;stroke:#231F20;stroke-width:1.7381;stroke-miterlimit:10;}
	.st45{fill:#B89571;stroke:#231F20;stroke-width:1.3665;stroke-miterlimit:10;}
	.st46{fill:#FFFFFF;stroke:#231F20;stroke-width:1.3665;stroke-miterlimit:10;}
	.st47{fill:#231F20;stroke:#231F20;stroke-width:1.3665;stroke-linecap:round;stroke-miterlimit:10;}
	.st48{fill:#231F20;stroke:#231F20;stroke-width:1.3665;stroke-miterlimit:10;}
	.st49{fill:#B78A6B;stroke:#231F20;stroke-width:0.6833;stroke-linecap:round;stroke-miterlimit:10;}
	.st50{fill:#FFFFFF;stroke:#FFFFFF;stroke-width:0.6833;stroke-linecap:round;stroke-miterlimit:10;}
	.st51{fill:none;stroke:#231F20;stroke-width:2;stroke-linecap:round;stroke-miterlimit:10;}
	.st52{clip-path:url(#SVGID_11_);}
	.st53{clip-path:url(#SVGID_13_);fill:#F075AC;}
	.st54{fill:#B9744A;}
	.st55{fill:#F9DFD3;}
	.st56{fill:#F9DFD3;stroke:#231F20;stroke-miterlimit:10;}
	.st57{fill:#231F20;stroke:#231F20;stroke-width:4;stroke-miterlimit:10;}
	.st58{fill:#231F20;stroke:#231F20;stroke-width:3;stroke-miterlimit:10;}
	.st59{opacity:0.12;fill:url(#SVGID_14_);}
	.st60{opacity:0.12;fill:url(#SVGID_15_);}
	.st61{clip-path:url(#SVGID_17_);}
	.st62{clip-path:url(#SVGID_19_);fill:#F075AC;}
	.st63{opacity:0.12;fill:url(#SVGID_20_);}
	.st64{opacity:0.12;fill:url(#SVGID_21_);}
</style>
<pattern  x="-1362" y="-336" width="210.66" height="107.59" patternUnits="userSpaceOnUse" id="New_Pattern_Swatch_1" viewBox="0 -107.59 210.66 107.59" style="overflow:visible;">
	<g>
		<rect y="-107.59" class="st0" width="210.66" height="107.59"/>
		<line class="st1" x1="3.54" y1="-12.01" x2="209.16" y2="-13.14"/>
		<path class="st2" d="M105.49-12.84c9.43-3.86,29.56-10.82,56.19-10.15c21.76,0.55,38.37,5.95,47.49,9.57"/>
		<path class="st2" d="M3.56-12.24C12.8-16.3,32.52-23.6,58.65-23c21.36,0.49,37.67,6.06,46.63,9.79"/>
		<path class="st3" d="M51.8-63.83c1.84,1.22,3.05,3.23,3.5,5.38c0.44,2.16,0.2,4.42-0.63,6.47c-0.82,2.08-2.41,3.9-4.32,5.06
			c-1.92,1.17-4.09,1.86-6.3,2.05c-2.21,0.21-4.49-0.03-6.65-0.83c-2.18-0.77-4.16-2.24-5.6-4.06c-1.46-1.81-2.43-4.01-2.9-6.28
			c-0.46-2.28-0.42-4.6,0-6.85c0.44-2.24,1.21-4.44,2.53-6.43c1.26-2.01,2.99-3.71,4.93-5c3.88-2.61,8.46-3.83,13.02-3.85
			c4.55-0.06,9.3,1.17,13.3,3.99c1.97,1.41,3.67,3.16,5.04,5.13c1.35,1.92,2.44,4.13,3.15,6.4c1.44,4.57,1.51,9.39,0.59,13.95
			c-0.47,2.29-1.2,4.52-2.21,6.67c-0.25,0.54-0.51,1.08-0.81,1.6L68-39.65l-0.51,0.75c-0.69,1-1.34,2.03-2.18,2.9
			c-3.16,3.67-7.22,6.38-11.52,8.18c-4.32,1.8-8.9,2.76-13.52,2.91c-4.62,0.15-9.31-0.46-13.83-2.02l-1.69-0.61
			c-0.56-0.2-1.1-0.5-1.66-0.75l-1.64-0.79c-0.53-0.31-1.07-0.6-1.59-0.92c-2.08-1.29-4.02-2.82-5.76-4.53
			c-1.73-1.72-3.28-3.6-4.61-5.63c-0.68-1.02-1.24-1.99-1.81-3.09c-0.28-0.54-0.58-1.07-0.83-1.62l-0.71-1.67
			c-1.88-4.47-2.76-9.25-2.95-13.98C3-65.24,3.55-69.95,4.77-74.5c1.2-4.55,3.07-9.01,5.81-13.12c2.73-4.08,6.21-7.63,10.11-10.44
			c7.82-5.65,16.99-8.57,26.08-9.31c9.1-0.75,18.3,0.43,26.84,3.8c2.13,0.85,4.2,1.86,6.21,3.01l1.5,0.88
			c0.51,0.32,1.01,0.65,1.49,0.98c0.96,0.67,1.89,1.36,2.77,2.08c3.54,2.88,6.66,6.18,9.29,9.84c1.32,1.82,2.49,3.74,3.53,5.73
			c0.25,0.5,0.53,0.99,0.76,1.49l0.67,1.52c0.42,1.02,0.93,2.02,1.26,3.05l1.08,3.07c0.32,1.03,0.6,2.06,0.9,3.08
			c0.31,1.02,0.56,2.05,0.79,3.09c0.23,1.03,0.49,2.06,0.68,3.09c1.54,8.26,2.29,16.5,2.4,24.71c0.06,2.05,0.04,4.1,0.04,6.14
			c-0.05,2.05-0.09,4.09-0.19,6.13c-0.16,4.08-0.45,8.15-0.88,12.2c-0.75-8.11-1.72-16.16-3.04-24.1
			c-1.34-7.93-3.03-15.78-5.46-23.23c-1.28-3.69-2.58-7.36-4.33-10.68c-0.38-0.87-0.9-1.63-1.34-2.44l-0.69-1.2
			c-0.24-0.39-0.5-0.76-0.75-1.14c-1-1.52-2.14-2.93-3.33-4.3c-2.37-2.73-5.11-5.13-8.06-7.1c-0.73-0.5-1.48-0.95-2.23-1.37
			c-0.37-0.21-0.74-0.41-1.11-0.59l-1.18-0.55c-1.59-0.73-3.23-1.35-4.92-1.85c-6.73-2.12-14.1-2.53-21.08-1.43
			c-6.98,1.1-13.65,3.6-19.02,7.43c-1.36,0.93-2.62,1.98-3.78,3.11c-1.2,1.09-2.24,2.31-3.22,3.58c-0.96,1.27-1.81,2.65-2.61,4.1
			c-0.74,1.48-1.46,3.02-1.99,4.63c-0.58,1.6-0.97,3.26-1.33,4.93c-0.27,1.68-0.52,3.37-0.55,5.05c-0.11,3.37,0.33,6.73,1.42,9.8
			l0.41,1.15c0.15,0.38,0.34,0.74,0.5,1.11c0.31,0.72,0.72,1.54,1.13,2.22c0.82,1.41,1.79,2.73,2.87,3.93
			c1.09,1.19,2.3,2.26,3.61,3.18c0.33,0.23,0.67,0.44,1,0.66l1.07,0.58c0.36,0.18,0.7,0.41,1.08,0.57l1.15,0.48
			c6.17,2.52,13.78,2.71,20.25,0.39c3.23-1.15,6.18-2.93,8.45-5.29c0.62-0.55,1.07-1.23,1.58-1.87l0.38-0.48l0.33-0.52
			c0.23-0.34,0.43-0.71,0.63-1.08c0.8-1.47,1.42-3.09,1.87-4.75c0.89-3.32,1.03-6.87,0.23-10.1c-0.41-1.62-1.03-3.14-1.92-4.6
			c-0.86-1.42-1.95-2.68-3.22-3.71c-2.52-2.03-5.91-3.23-9.45-3.39c-3.52-0.22-7.16,0.55-10.13,2.3c-3.02,1.71-5.06,4.58-5.94,8.06
			c-0.89,3.44-0.48,7.16,1.52,10.02c0.98,1.42,2.3,2.56,3.91,3.25c1.6,0.72,3.43,1.06,5.26,1c3.65-0.06,7.39-1.78,8.99-5.09
			c0.81-1.65,1.17-3.57,0.94-5.41c-0.23-1.82-1.15-3.63-2.62-4.78"/>
		<line class="st4" x1="2.5" y1="-2.5" x2="208.12" y2="-3.63"/>
		<path class="st3" d="M159.99-63.83c-1.84,1.22-3.05,3.23-3.5,5.38c-0.44,2.16-0.2,4.42,0.63,6.47c0.82,2.08,2.41,3.9,4.32,5.06
			c1.92,1.17,4.09,1.86,6.3,2.05c2.21,0.21,4.49-0.03,6.65-0.83c2.18-0.77,4.16-2.24,5.6-4.06c1.46-1.81,2.43-4.01,2.9-6.28
			c0.46-2.28,0.42-4.6,0-6.85c-0.44-2.24-1.21-4.44-2.53-6.43c-1.26-2.01-2.99-3.71-4.93-5c-3.88-2.61-8.46-3.83-13.02-3.85
			c-4.55-0.06-9.3,1.17-13.3,3.99c-1.97,1.41-3.67,3.16-5.04,5.13c-1.35,1.92-2.44,4.13-3.15,6.4c-1.44,4.57-1.51,9.39-0.59,13.95
			c0.47,2.29,1.2,4.52,2.21,6.67c0.25,0.54,0.51,1.08,0.81,1.6l0.44,0.79l0.51,0.75c0.69,1,1.34,2.03,2.18,2.9
			c3.16,3.67,7.22,6.38,11.52,8.18c4.32,1.8,8.9,2.76,13.52,2.91c4.62,0.15,9.31-0.46,13.83-2.02l1.69-0.61
			c0.56-0.2,1.1-0.5,1.66-0.75l1.64-0.79c0.53-0.31,1.07-0.6,1.59-0.92c2.08-1.29,4.02-2.82,5.76-4.53c1.73-1.72,3.28-3.6,4.61-5.63
			c0.68-1.02,1.24-1.99,1.81-3.09c0.28-0.54,0.58-1.07,0.83-1.62l0.71-1.67c1.88-4.47,2.76-9.25,2.95-13.98
			c0.2-4.73-0.35-9.44-1.58-13.99c-1.2-4.55-3.07-9.01-5.81-13.12c-2.73-4.08-6.21-7.63-10.11-10.44
			c-7.82-5.65-16.99-8.57-26.08-9.31c-9.1-0.75-18.3,0.43-26.84,3.8c-2.13,0.85-4.2,1.86-6.21,3.01l-1.5,0.88
			c-0.51,0.32-1.01,0.65-1.49,0.98c-0.96,0.67-1.89,1.36-2.77,2.08c-3.54,2.88-6.66,6.18-9.29,9.84c-1.32,1.82-2.49,3.74-3.53,5.73
			c-0.25,0.5-0.53,0.99-0.76,1.49l-0.67,1.52c-0.42,1.02-0.93,2.02-1.26,3.05l-1.08,3.07c-0.32,1.03-0.6,2.06-0.9,3.08
			c-0.31,1.02-0.56,2.05-0.79,3.09c-0.23,1.03-0.49,2.06-0.68,3.09c-1.54,8.26-2.29,16.5-2.4,24.71c-0.06,2.05-0.04,4.1-0.04,6.14
			c0.05,2.05,0.09,4.09,0.19,6.13c0.16,4.08,0.45,8.15,0.88,12.2c0.75-8.11,1.72-16.16,3.04-24.1c1.34-7.93,3.03-15.78,5.46-23.23
			c1.28-3.69,2.58-7.36,4.33-10.68c0.38-0.87,0.9-1.63,1.34-2.44l0.69-1.2c0.24-0.39,0.5-0.76,0.75-1.14c1-1.52,2.14-2.93,3.33-4.3
			c2.37-2.73,5.11-5.13,8.06-7.1c0.73-0.5,1.48-0.95,2.23-1.37c0.37-0.21,0.74-0.41,1.11-0.59l1.18-0.55
			c1.59-0.73,3.23-1.35,4.92-1.85c6.73-2.12,14.1-2.53,21.08-1.43c6.98,1.1,13.65,3.6,19.02,7.43c1.36,0.93,2.62,1.98,3.78,3.11
			c1.2,1.09,2.24,2.31,3.22,3.58c0.96,1.27,1.81,2.65,2.61,4.1c0.74,1.48,1.46,3.02,1.99,4.63c0.58,1.6,0.97,3.26,1.33,4.93
			c0.27,1.68,0.52,3.37,0.55,5.05c0.11,3.37-0.33,6.73-1.42,9.8l-0.41,1.15c-0.15,0.38-0.34,0.74-0.5,1.11
			c-0.31,0.72-0.72,1.54-1.13,2.22c-0.82,1.41-1.79,2.73-2.87,3.93c-1.09,1.19-2.3,2.26-3.61,3.18c-0.33,0.23-0.67,0.44-1,0.66
			l-1.07,0.58c-0.36,0.18-0.7,0.41-1.08,0.57l-1.15,0.48c-6.17,2.52-13.78,2.71-20.25,0.39c-3.23-1.15-6.18-2.93-8.45-5.29
			c-0.62-0.55-1.07-1.23-1.58-1.87l-0.38-0.48l-0.33-0.52c-0.23-0.34-0.43-0.71-0.63-1.08c-0.8-1.47-1.42-3.09-1.87-4.75
			c-0.89-3.32-1.03-6.87-0.23-10.1c0.41-1.62,1.03-3.14,1.92-4.6c0.86-1.42,1.95-2.68,3.22-3.71c2.52-2.03,5.91-3.23,9.45-3.39
			c3.52-0.22,7.16,0.55,10.13,2.3c3.02,1.71,5.06,4.58,5.94,8.06c0.89,3.44,0.48,7.16-1.52,10.02c-0.98,1.42-2.3,2.56-3.91,3.25
			c-1.6,0.72-3.43,1.06-5.26,1c-3.65-0.06-7.39-1.78-8.99-5.09c-0.81-1.65-1.17-3.57-0.94-5.41c0.23-1.82,1.15-3.63,2.62-4.78"/>
	</g>
</pattern>
<g id="Background">
</g>
<g id="SchmoHouse">
</g>
<g id="PinkHouse">
</g>
<g id="YellowHouse">
</g>
<g id="Layer_6">
</g>
<g id="Layer_5">
	<g>
		<g>
			<ellipse class="st21" cx="104.24" cy="108.46" rx="80.77" ry="82.7"/>
			<path class="st13" d="M186.64,108.46c0.01,10.9-2.04,21.82-6.09,31.96c-4.04,10.14-10.05,19.49-17.63,27.36
				c-7.57,7.87-16.7,14.27-26.75,18.59c-10.04,4.34-20.98,6.59-31.92,6.6c-10.94-0.01-21.87-2.33-31.88-6.7
				c-10.02-4.35-19.11-10.77-26.63-18.65c-7.52-7.88-13.51-17.2-17.51-27.32c-4.02-10.11-6.03-20.98-6.01-31.84
				c0-10.86,2.04-21.72,6.08-31.82c4.02-10.09,10.01-19.4,17.56-27.23c7.53-7.84,16.63-14.19,26.63-18.49
				c9.99-4.31,20.88-6.55,31.77-6.56c5.45,0.02,10.86,0.8,16.16,1.95c5.3,1.15,10.52,2.7,15.51,4.84c10,4.23,19.1,10.52,26.67,18.31
				c7.57,7.79,13.65,17.04,17.75,27.13C184.44,86.67,186.59,97.55,186.64,108.46z M183.37,108.46c0.03-10.5-1.86-21.01-5.72-30.79
				c-3.84-9.78-9.58-18.85-16.87-26.45c-7.28-7.62-16.06-13.81-25.75-18.01c-4.84-2.08-9.88-3.76-15.07-4.75
				c-5.19-1-10.47-1.29-15.72-1.28c-10.51-0.01-21.02,2.12-30.69,6.27c-9.67,4.13-18.48,10.26-25.79,17.83
				c-7.32,7.57-13.14,16.57-17.06,26.35c-3.93,9.77-5.94,20.3-5.96,30.85c0.03,10.54,2.07,21.07,6.02,30.82
				c3.94,9.75,9.77,18.75,17.11,26.26c7.33,7.53,16.14,13.6,25.79,17.67c9.65,4.1,20.11,6.15,30.57,6.13
				c10.46,0.01,20.91-2.1,30.53-6.23c9.63-4.1,18.39-10.2,25.67-17.73c7.29-7.53,13.09-16.49,16.99-26.22
				C181.35,129.44,183.34,118.96,183.37,108.46z"/>
		</g>
		<g>
			<path class="st13" d="M101.83,24.61c3.36,0.86,6.85,1.21,10.29,1.03c1.72-0.12,3.41-0.4,5.06-0.82c1.65-0.45,3.23-1.1,4.72-1.9
				c2.93-1.68,5.68-3.98,7.62-6.72c0.96-1.37,1.67-2.92,1.83-4.52c0.04-0.4,0.08-0.8,0.02-1.19l-0.04-0.6
				c-0.04-0.2-0.07-0.39-0.12-0.59c-0.19-0.79-0.51-1.56-0.91-2.27c-0.8-1.42-2-2.69-3.47-3.15c-1.46-0.5-3.08,0.02-4.37,1.04
				c-1.27,1.02-2.48,2.38-3.13,3.85c-0.68,1.47-0.46,3.2,0.73,4.29c1.15,1.09,2.92,1.59,4.49,1.24c1.57-0.36,3.09-1.45,3.75-2.91
				c0.33-0.73,0.33-1.52-0.11-2.19c-0.41-0.67-1.08-1.23-1.83-1.43c-0.75-0.21-1.57,0.02-2.14,0.57c-0.58,0.54-0.93,1.34-0.98,2.15
				l-0.02,0.3l-0.6-0.04l0.02-0.3c0.05-0.95,0.43-1.9,1.14-2.59c0.69-0.7,1.79-1.03,2.77-0.77c0.97,0.25,1.77,0.9,2.3,1.72
				c0.27,0.41,0.44,0.91,0.48,1.42c0.03,0.52-0.09,1.01-0.27,1.47c-0.79,1.8-2.44,3-4.29,3.49c-1.89,0.44-3.94-0.07-5.4-1.39
				c-0.73-0.66-1.26-1.57-1.44-2.57c-0.2-1,0.01-2.02,0.36-2.91c0.36-0.89,0.88-1.69,1.46-2.41c0.59-0.72,1.2-1.39,1.95-1.99
				c0.74-0.59,1.59-1.1,2.55-1.36c0.96-0.29,2.03-0.27,2.99,0.02c1.96,0.6,3.36,2.12,4.32,3.73c0.48,0.82,0.85,1.7,1.1,2.63
				c0.06,0.23,0.1,0.47,0.16,0.71l0.07,0.73c0.07,0.49,0.04,0.97,0,1.46c-0.17,1.94-0.98,3.73-2.02,5.27
				c-1.04,1.54-2.3,2.9-3.66,4.12c-0.68,0.61-1.39,1.18-2.13,1.73c-0.73,0.53-1.54,1.01-2.32,1.49c-1.63,0.87-3.34,1.58-5.11,2.06
				c-1.78,0.46-3.6,0.74-5.42,0.83c-3.65,0.16-7.28-0.34-10.75-1.38l-0.65-0.2l0.36-1.29L101.83,24.61z"/>
		</g>
		<path class="st45" d="M102.16,191.51c0.2,2.99,0.39,5.97,0.59,8.96c0.11,0.14,1.34,1.71,3.38,1.62c1.53-0.07,2.9-1.04,3.53-2.5
			c-0.24-2.79-0.49-5.58-0.73-8.37"/>
		<g>
			
				<ellipse transform="matrix(0.9844 -0.176 0.176 0.9844 -12.3869 25.6803)" class="st46" cx="138.58" cy="82.67" rx="15.89" ry="26.93"/>
			
				<ellipse transform="matrix(0.9862 -0.1658 0.1658 0.9862 -12.694 20.2522)" class="st46" cx="114.94" cy="86.15" rx="16.31" ry="27.6"/>
		</g>
		<g>
			<path class="st13" d="M129.01,114.26c-0.44,0.91-0.84,1.87-0.97,2.81c-0.17,0.94-0.01,1.83,0.49,2.33
				c0.48,0.52,1.33,0.77,2.25,0.83c0.92,0.06,1.9,0,2.88-0.16c0.99-0.18,2.04-0.3,2.91-0.58c0.89-0.26,1.62-0.66,1.85-1.22
				c0.28-0.58,0.14-1.5-0.27-2.32c-0.4-0.84-1.03-1.6-1.76-2.3l-0.01-0.01c-0.14-0.14-0.15-0.36-0.01-0.5
				c0.11-0.12,0.28-0.14,0.42-0.07c0.99,0.49,1.87,1.22,2.55,2.17c0.65,0.94,1.19,2.22,0.74,3.65c-0.21,0.71-0.74,1.28-1.27,1.65
				c-0.54,0.38-1.1,0.64-1.65,0.81c-1.12,0.35-2.15,0.52-3.22,0.66c-1.09,0.13-2.2,0.22-3.36,0.05c-0.57-0.08-1.16-0.21-1.74-0.47
				c-0.57-0.25-1.15-0.64-1.56-1.21c-0.4-0.55-0.63-1.22-0.65-1.86c-0.03-0.64,0.08-1.23,0.27-1.77c0.4-1.07,0.96-2.01,1.69-2.82
				c0.1-0.11,0.26-0.11,0.36-0.02c0.09,0.08,0.11,0.2,0.06,0.3L129.01,114.26z"/>
		</g>
		<g>
			<path class="st3" d="M122.93,130.79c0.61,0.74,5.31,6.21,12.64,5.61c7.45-0.61,11.44-7,11.93-7.82
				c1.9,10.3-4.1,19.17-10.35,20.04C130.6,149.55,122.57,141.88,122.93,130.79z"/>
			<path class="st13" d="M122.84,130.53c0.12,0.02,0.33,0.1,0.44,0.23l0.17,0.18l0.31,0.32c0.21,0.21,0.43,0.41,0.65,0.61
				c0.45,0.39,0.91,0.77,1.39,1.12c0.96,0.7,2,1.29,3.08,1.75c2.15,0.95,4.53,1.33,6.85,1.06c1.16-0.14,2.29-0.42,3.38-0.83
				c1.08-0.44,2.11-0.99,3.06-1.65c0.95-0.68,1.83-1.46,2.63-2.31c0.4-0.43,0.77-0.88,1.14-1.34c0.17-0.24,0.35-0.47,0.51-0.71
				c0.17-0.24,0.29-0.5,0.74-0.56l0,0l0.46-0.84l0.23,0.97c0.5,2.08,0.64,4.26,0.49,6.42c-0.19,2.16-0.72,4.3-1.6,6.31
				c-0.87,2.01-2.15,3.87-3.79,5.4c-0.41,0.38-0.84,0.75-1.31,1.06c-0.45,0.35-0.95,0.62-1.46,0.88c-0.49,0.29-1.07,0.44-1.6,0.66
				l-0.86,0.19c-0.28,0.07-0.57,0.12-0.87,0.12c-2.35,0.18-4.65-0.54-6.53-1.75c-1.88-1.22-3.46-2.83-4.65-4.67
				c-1.2-1.83-2.08-3.86-2.57-5.97c-0.16-0.52-0.2-1.06-0.29-1.59c-0.1-0.53-0.15-1.06-0.17-1.6c-0.02-0.56-0.11-1.01-0.05-1.69
				C122.63,131.65,122.77,131.04,122.84,130.53z M123.02,131.06c0.08,0.54,0.24,0.98,0.29,1.38c0.02,0.37,0.13,0.96,0.2,1.45
				c0.07,0.51,0.16,1.02,0.3,1.51c0.14,0.49,0.22,1,0.41,1.48c0.59,1.95,1.5,3.8,2.7,5.41c1.2,1.61,2.64,3.03,4.33,4.04
				c1.67,1.02,3.6,1.58,5.44,1.41c1.85-0.12,3.6-1.15,5.05-2.43c1.47-1.3,2.63-2.96,3.54-4.75c0.9-1.8,1.49-3.76,1.77-5.77
				c0.33-2.01,0.31-4.07,0.08-6.13l0.68,0.12l0,0c0.13,0.45-0.07,0.7-0.26,0.96c-0.18,0.26-0.37,0.51-0.56,0.76
				c-0.39,0.49-0.8,0.97-1.24,1.42c-0.87,0.91-1.83,1.73-2.86,2.45c-1.05,0.71-2.17,1.29-3.36,1.75c-1.19,0.43-2.44,0.72-3.7,0.82
				c-2.52,0.21-5.09-0.28-7.34-1.36c-1.12-0.55-2.18-1.23-3.14-2c-0.49-0.38-0.95-0.8-1.39-1.23c-0.22-0.22-0.44-0.44-0.64-0.67
				l-0.31-0.35c-0.04-0.05-0.12-0.14-0.13-0.16C122.89,131.19,123,131.15,123.02,131.06z"/>
		</g>
		<g>
			<g>
				<path class="st24" d="M109.12,199.54c14.47,0.44,28.94,0.88,43.41,1.32c-1.99,9.01-3.77,19.03-5.05,29.97
					c-1.27,10.92-1.85,21.07-1.98,30.29c-23.93-0.17-47.87-0.33-71.8-0.5c-0.38-9.28-1.16-19.32-2.5-29.98
					c-1.35-10.7-3.09-20.65-5.03-29.77c11.83-0.25,23.66-0.5,35.49-0.75c0.04,0.13,0.79,2.26,2.69,2.71
					C106.2,203.24,108.42,201.92,109.12,199.54z"/>
				<path class="st13" d="M108.52,198.71l44.03,1.48l0.81,0.03l-0.17,0.79c-2.13,9.88-3.76,19.86-4.88,29.9
					c-1.1,10.04-1.7,20.13-1.78,30.22l-0.01,1.02l-1.02-0.01l-35.9-0.22l-35.9-0.28l-0.01,0l-0.96-0.01l-0.05-0.97
					c-0.27-5-0.64-10-1.12-14.98c-0.45-4.99-1.01-9.96-1.67-14.93c-0.67-4.96-1.39-9.91-2.24-14.85c-0.85-4.93-1.8-9.85-2.85-14.74
					l-0.36-1.66l1.7-0.03l8.87-0.15l8.87-0.13l8.87-0.08l8.87,0h0.01h0.74l0.25,0.7c0.21,0.59,0.64,1.25,1.12,1.62
					c0.48,0.38,1.03,0.52,1.65,0.44c0.61-0.07,1.22-0.4,1.71-0.86c0.24-0.23,0.45-0.5,0.63-0.79c0.08-0.15,0.17-0.3,0.23-0.46
					l0.18-0.42C108.24,199.09,108.38,198.89,108.52,198.71z M109.72,200.37c0.07,0.03,0.14,0.02,0.17,0c0.01,0.01,0.04-0.05,0.02,0
					l-0.08,0.18c-0.1,0.24-0.22,0.47-0.35,0.69c-0.27,0.44-0.59,0.86-0.97,1.22c-0.77,0.71-1.74,1.26-2.84,1.41
					c-1.09,0.17-2.34-0.16-3.2-0.87c-0.87-0.72-1.41-1.55-1.79-2.58l0.99,0.7l-0.01,0l-8.87,0.37l-8.87,0.29l-8.87,0.24l-8.87,0.22
					l1.34-1.69c1.04,4.94,1.97,9.89,2.8,14.87c0.82,4.98,1.57,9.97,2.16,14.97c0.59,5.01,1.09,10.03,1.47,15.05
					c0.36,5.03,0.61,10.06,0.76,15.1l-1.02-0.98h0.01l35.9,0.22l35.9,0.28l-1.03,1.01c0.44-20.32,2.93-40.58,7.4-60.38l0.64,0.82
					l-21.46-0.61L109.72,200.37z"/>
			</g>
			<path class="st47" d="M73.28,260.52c0.21,10.25,0.12,21.15-0.4,32.62c-0.5,11.17-1.35,21.75-2.44,31.71
				c12.05,0.57,24.09,1.14,36.14,1.7c-0.25-6.64-0.16-14.15,0.57-22.34c0.79-8.98,2.19-17.04,3.78-24.01
				c2.22,6.85,4.35,14.67,6.05,23.38c1.56,8.03,2.5,15.49,3.03,22.22c11.48,0,22.96,0,34.44,0c-2.39-8.87-4.58-19-6.15-30.24
				c-1.74-12.49-2.36-23.91-2.37-33.9"/>
		</g>
		<g>
			<path class="st13" d="M97.43,349.08c-4.27-8.16-6.07-17.68-5-26.99c0.09-0.79,0.8-1.36,1.59-1.27s1.36,0.8,1.27,1.59
				c0,0.03-0.01,0.06-0.01,0.08c-1.49,8.66-0.32,17.84,3.38,25.98c0.16,0.34,0,0.75-0.34,0.91
				C97.99,349.53,97.6,349.39,97.43,349.08z"/>
		</g>
		<ellipse class="st48" cx="141.08" cy="349.97" rx="10.42" ry="2.95"/>
		<g>
			<path class="st13" d="M130.28,349.28c3.32-7.36,4.78-15.47,4.27-23.41c-0.05-0.79,0.55-1.48,1.35-1.53
				c0.79-0.05,1.48,0.55,1.53,1.35c0,0.03,0,0.06,0,0.08v0.01c0.02,8.42-2.05,16.76-5.92,24.1c-0.18,0.33-0.59,0.46-0.92,0.29
				C130.26,350,130.13,349.61,130.28,349.28z"/>
		</g>
		<ellipse class="st48" cx="86.27" cy="349.57" rx="11.81" ry="3.35"/>
		<g>
			<path class="st13" d="M12.73,255c2.96-5.4,6.3-10.59,9.99-15.51c3.69-4.93,7.75-9.58,12.11-13.93
				c8.74-8.69,18.73-16.12,29.59-21.98c0.49-0.26,1.09-0.08,1.35,0.4c0.26,0.49,0.08,1.09-0.4,1.35l-0.01,0
				c-10.74,5.68-20.66,12.91-29.35,21.42c-4.35,4.25-8.39,8.81-12.08,13.65c-3.7,4.83-7.04,9.94-10.01,15.25
				c-0.18,0.33-0.6,0.45-0.93,0.26C12.67,255.74,12.55,255.33,12.73,255z"/>
		</g>
		
			<ellipse transform="matrix(0.3303 -0.9439 0.9439 0.3303 -239.4742 185.7295)" class="st49" cx="11.15" cy="261.62" rx="7.13" ry="1.93"/>
		<g>
			<path class="st13" d="M152.54,202.94c0.8-0.16,1.58-0.12,2.37-0.1c0.79,0.02,1.57,0.02,2.36,0.02c1.57-0.03,3.15-0.09,4.72-0.22
				c3.14-0.26,6.26-0.71,9.34-1.39c3.07-0.69,6.1-1.59,9.06-2.67c1.45-0.61,2.94-1.13,4.35-1.84l2.14-1.01l2.08-1.12
				c5.53-3.02,10.58-6.91,15-11.4c4.43-4.49,8.22-9.61,11.23-15.17c0.18-0.33,0.59-0.46,0.93-0.28c0.33,0.18,0.45,0.59,0.28,0.92
				c-3.01,5.7-6.83,10.97-11.32,15.61c-4.51,4.62-9.66,8.62-15.32,11.73l-2.13,1.16l-2.19,1.04c-1.44,0.73-2.97,1.27-4.46,1.9
				c-3.03,1.12-6.13,2.05-9.27,2.77c-3.15,0.7-6.35,1.18-9.57,1.46c-1.61,0.14-3.22,0.21-4.84,0.24c-0.81,0-1.62,0.01-2.42-0.01
				c-0.81-0.01-1.62-0.04-2.41-0.28c-0.37-0.11-0.58-0.51-0.47-0.88c0.08-0.26,0.29-0.44,0.54-0.48L152.54,202.94z"/>
		</g>
		<g>
			
				<ellipse transform="matrix(0.3833 -0.9236 0.9236 0.3833 -15.0967 301.6546)" class="st28" cx="218.35" cy="162.13" rx="7.13" ry="1.93"/>
			<path class="st13" d="M221.22,155.23c0.5,0.25,0.6,0.72,0.67,1.05c0.05,0.35,0.07,0.7,0.04,1.04c-0.04,0.67-0.16,1.32-0.3,1.96
				c-0.31,1.27-0.76,2.5-1.28,3.69c-0.53,1.19-1.13,2.34-1.84,3.43c-0.35,0.54-0.73,1.07-1.18,1.56c-0.22,0.24-0.47,0.46-0.74,0.66
				c-0.27,0.18-0.63,0.37-1.03,0.23c-0.38-0.18-0.49-0.57-0.56-0.89c-0.05-0.33-0.07-0.67-0.05-0.99c0.03-0.66,0.13-1.3,0.27-1.93
				c0.27-1.27,0.66-2.51,1.13-3.72c0.48-1.2,1.02-2.39,1.71-3.51c0.35-0.55,0.72-1.1,1.17-1.6c0.22-0.25,0.48-0.49,0.76-0.7
				C220.28,155.31,220.68,155.06,221.22,155.23z M220.95,155.86c-0.1-0.05-0.35,0.02-0.58,0.18c-0.23,0.17-0.46,0.36-0.66,0.59
				c-0.42,0.45-0.79,0.96-1.13,1.49c-0.69,1.06-1.28,2.19-1.8,3.35c-0.5,1.17-0.95,2.37-1.25,3.61c-0.14,0.62-0.26,1.25-0.29,1.88
				c-0.02,0.31-0.01,0.63,0.03,0.93c0.05,0.29,0.17,0.59,0.39,0.7c0.23,0.08,0.53-0.05,0.77-0.22c0.24-0.18,0.48-0.39,0.68-0.63
				c0.42-0.47,0.78-0.99,1.12-1.53c0.67-1.09,1.2-2.25,1.67-3.43c0.46-1.19,0.84-2.41,1.1-3.64c0.13-0.62,0.23-1.24,0.26-1.85
				c0.02-0.31,0-0.61-0.05-0.89C221.18,156.13,221.06,155.9,220.95,155.86z"/>
		</g>
		
			<ellipse transform="matrix(0.9849 -0.1729 0.1729 0.9849 -11.0622 26.0899)" class="st48" cx="144.19" cy="76.53" rx="7.91" ry="16.41"/>
		
			<ellipse transform="matrix(0.9916 -0.1297 0.1297 0.9916 -9.2685 16.3225)" class="st48" cx="120.73" cy="79.35" rx="8.07" ry="16.35"/>
		<g>
			<path class="st50" d="M118.24,78.17c3.96-0.58,7.93-1.15,11.89-1.73"/>
			<g>
				<path class="st3" d="M123.84,77.24c-0.31-0.91-0.36-1.95,0.01-2.88c0.35-0.93,1.13-1.71,2.06-2.05c0.9-0.34,1.92-0.46,2.87-0.12
					c0.94,0.33,1.71,1.25,1.72,2.28c0.02,0.51-0.17,1.04-0.52,1.41c-0.35,0.37-0.78,0.61-1.22,0.77c-0.44,0.17-0.91,0.26-1.4,0.26
					c-0.47-0.01-1-0.13-1.37-0.5c-0.37-0.36-0.5-0.96-0.29-1.43c0.22-0.47,0.64-0.76,1.07-0.95c0.43-0.19,0.99-0.23,1.4,0.07
					c0.43,0.28,0.53,0.89,0.31,1.31l0,0c-0.02,0.03-0.06,0.05-0.09,0.03c-0.03-0.02-0.05-0.06-0.03-0.09
					c0.18-0.39,0.06-0.88-0.3-1.1c-0.35-0.23-0.81-0.18-1.19,0c-0.38,0.18-0.74,0.47-0.88,0.84c-0.14,0.37-0.04,0.8,0.25,1.06
					c0.6,0.54,1.6,0.4,2.36,0.09c0.8-0.3,1.46-0.95,1.38-1.76c-0.03-0.8-0.65-1.49-1.4-1.73c-0.77-0.25-1.65-0.13-2.42,0.19
					c-0.76,0.31-1.37,0.91-1.65,1.67c-0.29,0.76-0.26,1.62-0.02,2.42c0.05,0.18-0.05,0.37-0.23,0.43
					C124.09,77.51,123.9,77.41,123.84,77.24z"/>
			</g>
			<g>
				<path class="st3" d="M123.84,77.05c0.17-0.8-0.02-1.62-0.54-2.19c-0.51-0.58-1.33-0.9-2.16-1.07c-0.83-0.17-1.71-0.15-2.44,0.24
					c-0.72,0.36-1.28,1.14-1.26,1.95c0.02,0.41,0.16,0.81,0.44,1.1c0.28,0.29,0.68,0.45,1.1,0.53c0.82,0.14,1.83,0.04,2.34-0.62
					c0.24-0.32,0.29-0.78,0.09-1.14c-0.2-0.36-0.62-0.56-1.04-0.63c-0.42-0.08-0.88,0-1.15,0.32c-0.28,0.31-0.25,0.8,0.03,1.12
					c0.03,0.04,0.03,0.1-0.01,0.14c-0.04,0.03-0.1,0.03-0.14-0.01l-0.01-0.01c-0.33-0.36-0.38-0.99-0.04-1.38
					c0.33-0.4,0.89-0.49,1.35-0.41c0.46,0.08,0.96,0.28,1.23,0.73c0.27,0.44,0.22,1.03-0.07,1.44c-0.29,0.42-0.77,0.65-1.23,0.77
					c-0.47,0.11-0.95,0.12-1.42,0.05c-0.47-0.08-0.96-0.24-1.33-0.61c-0.37-0.36-0.56-0.87-0.6-1.36c-0.07-1.03,0.55-1.99,1.41-2.5
					c0.87-0.52,1.91-0.62,2.86-0.47c0.94,0.15,1.94,0.47,2.65,1.28c0.72,0.78,0.91,1.97,0.59,2.91l0,0.01
					c-0.06,0.18-0.25,0.28-0.43,0.21C123.9,77.39,123.8,77.22,123.84,77.05z"/>
			</g>
		</g>
		<g>
			<path class="st50" d="M140.63,76.75c3.96-0.58,7.93-1.15,11.89-1.73"/>
			<g>
				<path class="st3" d="M146.24,75.82c-0.31-0.91-0.36-1.95,0.01-2.88c0.35-0.93,1.13-1.71,2.06-2.05c0.9-0.34,1.92-0.46,2.87-0.12
					c0.94,0.33,1.71,1.25,1.72,2.28c0.02,0.51-0.17,1.04-0.52,1.41c-0.35,0.37-0.78,0.61-1.22,0.77c-0.44,0.17-0.91,0.26-1.4,0.26
					c-0.47-0.01-1-0.13-1.37-0.5c-0.37-0.36-0.5-0.96-0.29-1.43c0.22-0.47,0.64-0.76,1.07-0.95c0.43-0.19,0.99-0.23,1.4,0.07
					c0.43,0.28,0.53,0.89,0.31,1.31l0,0c-0.02,0.03-0.06,0.05-0.09,0.03c-0.03-0.02-0.05-0.06-0.03-0.09
					c0.18-0.39,0.06-0.88-0.3-1.1c-0.35-0.23-0.81-0.18-1.19,0c-0.38,0.18-0.74,0.47-0.88,0.84c-0.14,0.37-0.04,0.8,0.25,1.06
					c0.6,0.54,1.6,0.4,2.36,0.09c0.8-0.3,1.46-0.95,1.38-1.76c-0.03-0.8-0.65-1.49-1.4-1.73c-0.77-0.25-1.65-0.13-2.42,0.19
					c-0.76,0.31-1.37,0.91-1.65,1.67c-0.29,0.76-0.26,1.62-0.02,2.42c0.05,0.18-0.05,0.37-0.23,0.43
					C146.48,76.09,146.3,75.99,146.24,75.82z"/>
			</g>
			<g>
				<path class="st3" d="M146.23,75.63c0.17-0.8-0.02-1.62-0.54-2.19c-0.51-0.58-1.33-0.9-2.16-1.07c-0.83-0.17-1.71-0.15-2.44,0.24
					c-0.72,0.36-1.28,1.14-1.26,1.95c0.02,0.41,0.16,0.81,0.44,1.1c0.28,0.29,0.68,0.45,1.1,0.53c0.82,0.14,1.83,0.04,2.34-0.62
					c0.24-0.32,0.29-0.78,0.09-1.14c-0.2-0.36-0.62-0.56-1.04-0.63c-0.42-0.08-0.88,0-1.15,0.32c-0.28,0.31-0.25,0.8,0.03,1.12
					c0.03,0.04,0.03,0.1-0.01,0.14c-0.04,0.03-0.1,0.03-0.14-0.01l-0.01-0.01c-0.33-0.36-0.38-0.99-0.04-1.38
					c0.33-0.4,0.89-0.49,1.35-0.41c0.46,0.08,0.96,0.28,1.23,0.73c0.27,0.44,0.22,1.03-0.07,1.44c-0.29,0.42-0.77,0.65-1.23,0.77
					c-0.47,0.11-0.95,0.12-1.42,0.05c-0.47-0.08-0.96-0.24-1.33-0.61c-0.37-0.36-0.56-0.87-0.6-1.36c-0.07-1.03,0.55-1.99,1.41-2.5
					c0.87-0.52,1.91-0.62,2.86-0.47c0.94,0.15,1.94,0.47,2.65,1.28c0.72,0.78,0.91,1.97,0.59,2.91l0,0.01
					c-0.06,0.18-0.25,0.28-0.43,0.21C146.29,75.96,146.19,75.79,146.23,75.63z"/>
			</g>
		</g>
	</g>
	<g>
		<path class="st51" d="M247.34,324.93c0.22-0.14,0.44-0.28,0.65-0.42c4.95-3.1,12.24-6.56,20.58-6.02
			c11.19,0.72,15.23,8.05,26.77,9.43c5.5,0.67,13.83,0.11,25.23-6.21"/>
		<g>
			<g>
				<defs>
					<rect id="SVGID_10_" x="247.99" y="265.76" width="73.06" height="61.38"/>
				</defs>
				<clipPath id="SVGID_2_">
					<use xlink:href="#SVGID_10_"  style="overflow:visible;"/>
				</clipPath>
				<g style="clip-path:url(#SVGID_2_);">
					<defs>
						<rect id="SVGID_12_" x="247.99" y="265.76" width="73.06" height="61.38"/>
					</defs>
					<clipPath id="SVGID_4_">
						<use xlink:href="#SVGID_12_"  style="overflow:visible;"/>
					</clipPath>
					<path style="clip-path:url(#SVGID_4_);fill:#F075AC;" d="M321.05,320.34l-0.47,0.37c-11.4,6.32-19.73,6.88-25.23,6.21
						c-11.54-1.38-15.58-8.71-26.77-9.43c-8.34-0.54-15.63,2.92-20.58,6.02c12.17-11.11,16.15-29.77,17.12-34.84l0.01-1.08
						l44.72,0.35l-0.01,0.74C310.54,293.14,313.25,308.21,321.05,320.34"/>
					<path style="clip-path:url(#SVGID_4_);fill:#F075AC;" d="M315.18,267.83c-1.72,6.7-3.43,13.41-5.15,20.11h-0.2l-44.72-0.35
						h-0.23c-2.7-7.28-5.42-14.55-8.12-21.83c6.82,0.23,13.63,0.46,20.44,0.7l10.55,0.48C296.9,267.24,306.04,267.53,315.18,267.83"
						/>
				</g>
			</g>
			<g>
				<path class="st54" d="M323.5,121.36c1.56,1.53,5.37,4.85,11.1,5.65c7.56,1.06,16.6-2.5,19.02-8.89
					c3.5-9.25-8.6-19.82-11.58-22.43c-12.41-10.84-33.33-16.43-39.35-9c-4.48,5.53-0.56,18.14,7.12,24.84
					c6.29,5.5,18.01,9.58,23.91,4c3.71-3.5,4.12-9.86,2.25-14.37c-4.07-9.79-19.6-12.38-23.51-8.05c-2.64,2.92-1.2,10.33,3.28,13.47
					c3.3,2.32,8.7,2.62,10.02,0.41c1.54-2.59-2.45-8.72-5.2-8.36c-0.48,0.06-1.48,0.4-2.46,2.49"/>
				<g>
					<path class="st55" d="M355.02,182.9c0,41.42-33.58,75-75,75c-41.42,0-75-33.58-75-75c0-41.42,33.58-75,75-75
						C321.44,107.9,355.02,141.48,355.02,182.9"/>
					<g>
						<path class="st13" d="M257.16,209.12c-0.42,1.49-0.3,2.95,0.34,3.97c0.65,1.03,1.75,1.56,2.9,1.52
							c1.17-0.04,2.26-0.57,2.77-1.63c0.53-1.07,0.5-2.52-0.48-3.75c0.74,0.26,1.38,0.87,1.75,1.65c0.36,0.79,0.44,1.72,0.21,2.6
							c-0.2,0.89-0.81,1.73-1.58,2.28c-0.78,0.55-1.7,0.81-2.62,0.84c-0.91,0.02-1.88-0.21-2.66-0.74c-0.76-0.52-1.4-1.26-1.7-2.12
							C255.45,212.03,256.03,210.17,257.16,209.12z"/>
					</g>
					<g>
						<path class="st13" d="M252.57,238.91c3.38,0.89,6.65,1.32,9.96,1.18c1.65-0.05,3.29-0.25,4.92-0.57
							c1.64-0.33,3.26-0.78,4.91-1.35c-1.28,1.22-2.87,2.08-4.54,2.69c-1.67,0.63-3.45,0.93-5.24,1.01
							c-1.79,0.05-3.58-0.12-5.3-0.62C255.59,240.77,253.95,240.01,252.57,238.91z"/>
					</g>
					<g>
						<path class="st13" d="M290.91,326c0.08,4.03,0.15,8.06,0.23,12.09c0.43-0.35,6.84-5.28,11.09-1.51
							c1.2,1.07,2.71,3.25,2.31,4.84c-0.57,2.28-4.71,2.71-7.54,2.02c-2.86-0.7-4.86-2.64-5.86-3.77"/>
						<g>
							<path class="st13" d="M291.65,325.86c0.81,4.05,0.85,8.25,0.26,12.34l-1.22-0.74c2.34-1.64,5.08-2.93,8.13-2.89
								c1.49,0.04,3.16,0.58,4.25,1.75c1.03,1.09,1.92,2.3,2.24,3.96c0.06,0.42,0.07,0.87-0.04,1.33c-0.14,0.45-0.35,0.89-0.66,1.21
								c-0.61,0.67-1.37,1.02-2.1,1.26c-1.48,0.44-2.96,0.48-4.42,0.31c-1.46-0.17-2.92-0.68-4.18-1.43
								c-1.27-0.75-2.38-1.73-3.33-2.81c-0.28-0.31-0.25-0.78,0.06-1.06c0.31-0.28,0.78-0.25,1.06,0.06l0,0
								c1.73,1.97,4.01,3.46,6.57,3.73c1.27,0.15,2.61,0.1,3.78-0.26c0.58-0.18,1.1-0.46,1.42-0.82c0.33-0.36,0.43-0.76,0.34-1.3
								c-0.19-1.08-0.96-2.24-1.82-3.11c-0.82-0.88-1.98-1.25-3.22-1.3c-2.51-0.05-5.05,1.09-7.18,2.61l-1.48,1.06l0.27-1.8
								c0.58-3.93,0.46-7.93-0.2-11.84c-0.07-0.41,0.2-0.8,0.61-0.87C291.19,325.2,291.57,325.47,291.65,325.86z"/>
						</g>
					</g>
					<g>
						<path class="st13" d="M283.16,322.77c-0.05,5.25-0.09,10.49-0.14,15.74c-0.45-0.26-7.11-4.06-11.53-1.16
							c-1.25,0.82-2.81,2.5-2.4,3.71c0.59,1.74,5.04,2,7.84,1.55c3.23-0.52,5.27-2.15,6.09-2.9"/>
						<g>
							<path class="st13" d="M284.16,323.05c-1.39,4.94-1.47,10.24-0.23,15.23l0.52,2.11l-1.91-1.07c-2.17-1.21-4.7-2.13-7.13-2.15
								c-1.21-0.01-2.39,0.25-3.36,0.86c-0.95,0.58-1.96,1.61-2.17,2.43c-0.04,0.19-0.03,0.3,0.03,0.4c0,0.06,0.1,0.11,0.13,0.18
								c0.09,0.06,0.15,0.14,0.27,0.19c0.42,0.25,1.01,0.43,1.6,0.55c1.21,0.23,2.51,0.26,3.78,0.18c2.52-0.15,4.95-1.12,6.81-2.8
								c0.31-0.28,0.78-0.25,1.06,0.06c0.27,0.31,0.25,0.78-0.05,1.05c-2.09,1.93-4.89,3.07-7.69,3.27
								c-1.39,0.11-2.79,0.1-4.21-0.15c-0.71-0.14-1.43-0.31-2.17-0.74c-0.18-0.09-0.37-0.26-0.54-0.4
								c-0.17-0.2-0.35-0.35-0.47-0.61c-0.29-0.48-0.3-1.09-0.2-1.54c0.22-0.93,0.71-1.54,1.19-2.11c0.51-0.55,1.05-1.04,1.7-1.44
								c1.29-0.83,2.83-1.16,4.28-1.17c1.46-0.01,2.87,0.26,4.21,0.67c1.35,0.42,2.61,0.95,3.87,1.65l-1.39,1.04
								c-1.38-5.29-1.37-10.94,0.05-16.24c0.15-0.55,0.71-0.88,1.26-0.73c0.55,0.15,0.88,0.71,0.73,1.26
								C284.16,323.03,284.16,323.04,284.16,323.05z"/>
						</g>
					</g>
					<g>
						<g>
							<path class="st13" d="M316.82,268.26c1.94,3.92,4.58,7.53,7.8,10.56c3.21,3.04,6.99,5.52,11.1,7.27
								c0.27,0.12,0.4,0.43,0.29,0.71c-0.11,0.26-0.41,0.39-0.68,0.3c-4.33-1.55-8.41-3.88-11.96-6.87
								c-3.56-2.99-6.6-6.63-8.92-10.71c-0.37-0.64-0.14-1.47,0.5-1.83c0.64-0.37,1.47-0.14,1.83,0.5
								C316.79,268.21,316.8,268.24,316.82,268.26z"/>
						</g>
						<path class="st56" d="M338.81,283.04c2.46-0.98,4.7-1.16,5-0.4c0.3,0.76-1.44,2.17-3.9,3.15c-2.46,0.98-4.7,1.16-5,0.4
							C334.6,285.44,336.35,284.03,338.81,283.04z"/>
					</g>
					<g>
						<g>
							<path class="st13" d="M258.1,268.09c-2.28,4.06-5.27,7.7-8.79,10.69c-3.51,3-7.54,5.33-11.84,6.89
								c-0.28,0.1-0.59-0.04-0.69-0.32c-0.1-0.27,0.03-0.57,0.29-0.68c4.07-1.76,7.81-4.24,10.97-7.29
								c3.17-3.04,5.77-6.63,7.67-10.54c0.32-0.67,1.13-0.95,1.8-0.62c0.67,0.32,0.95,1.13,0.62,1.8
								C258.12,268.04,258.11,268.07,258.1,268.09z"/>
						</g>
						<path class="st56" d="M234.03,281.62c-2.43-0.98-4.64-1.16-4.94-0.4c-0.3,0.76,1.43,2.17,3.85,3.15
							c2.43,0.98,4.64,1.16,4.94,0.4C238.18,284.02,236.46,282.6,234.03,281.62z"/>
					</g>
					<g>
						<g>
							<path class="st3" d="M263.18,176.94c0,17.46-7.38,31.61-16.49,31.61c-9.11,0-16.49-14.15-16.49-31.61
								c0-17.46,7.38-31.61,16.49-31.61C255.8,145.34,263.18,159.49,263.18,176.94z"/>
							<path class="st13" d="M264.46,176.94c-0.06,6.58-1.09,13.19-3.52,19.38c-1.23,3.08-2.82,6.08-5.1,8.63
								c-1.14,1.26-2.45,2.43-4.01,3.28c-1.54,0.87-3.33,1.37-5.14,1.39c-1.82,0-3.61-0.51-5.15-1.38
								c-1.56-0.84-2.87-2.02-4.02-3.28c-2.29-2.55-3.88-5.55-5.12-8.63c-2.43-6.2-3.44-12.82-3.49-19.4
								c-0.02-6.58,0.92-13.22,3.29-19.48c1.21-3.11,2.79-6.15,5.08-8.77c1.15-1.29,2.48-2.51,4.08-3.39
								c1.58-0.91,3.44-1.47,5.34-1.47c1.89,0.02,3.76,0.56,5.34,1.47c1.6,0.88,2.93,2.09,4.09,3.39c2.3,2.61,3.89,5.65,5.1,8.76
								C263.57,163.72,264.49,170.37,264.46,176.94z M261.91,176.94c-0.06-6.31-1.06-12.65-3.35-18.44
								c-1.15-2.88-2.63-5.64-4.63-7.86c-1.96-2.22-4.54-3.83-7.24-3.81c-2.69-0.01-5.28,1.58-7.24,3.8c-2,2.22-3.49,4.98-4.65,7.86
								c-2.28,5.8-3.27,12.15-3.31,18.45c-0.03,6.31,0.89,12.67,3.11,18.53c1.13,2.91,2.6,5.71,4.61,7.99
								c1.97,2.28,4.62,4,7.49,4.01c2.87,0.02,5.53-1.71,7.51-3.98c2.02-2.28,3.5-5.08,4.63-7.99
								C261.05,189.63,261.95,183.25,261.91,176.94z"/>
						</g>
						<g>
							<path class="st3" d="M289.11,177.54c0,17.53-7.2,31.74-16.08,31.74c-8.88,0-16.08-14.21-16.08-31.74
								c0-17.53,7.2-31.74,16.08-31.74C281.91,145.81,289.11,160.02,289.11,177.54z"/>
							<path class="st13" d="M290.33,177.54c-0.08,6.54-1.08,13.12-3.44,19.28c-1.2,3.06-2.74,6.05-4.94,8.62
								c-1.1,1.27-2.36,2.46-3.88,3.33c-1.5,0.89-3.26,1.43-5.05,1.43c-0.89-0.02-1.79-0.13-2.64-0.38
								c-0.85-0.26-1.67-0.59-2.42-1.04c-1.52-0.87-2.79-2.05-3.91-3.32c-2.21-2.57-3.74-5.57-4.94-8.64
								c-2.34-6.18-3.32-12.76-3.38-19.3c-0.03-6.54,0.85-13.14,3.12-19.4c1.16-3.11,2.66-6.16,4.88-8.81
								c1.12-1.31,2.41-2.55,3.98-3.47c1.55-0.94,3.41-1.53,5.32-1.55c1.91,0,3.77,0.59,5.33,1.53c1.58,0.92,2.87,2.16,4,3.47
								c2.23,2.66,3.74,5.7,4.92,8.81C289.52,164.39,290.39,171,290.33,177.54z M287.88,177.54c-0.07-6.29-1.06-12.62-3.28-18.42
								c-1.11-2.88-2.55-5.66-4.48-7.92c-1.91-2.25-4.44-3.92-7.1-3.9c-2.66-0.05-5.21,1.63-7.13,3.88
								c-1.95,2.26-3.4,5.04-4.52,7.92c-2.21,5.82-3.17,12.15-3.23,18.45c-0.04,6.3,0.83,12.65,2.96,18.55
								c1.09,2.92,2.5,5.75,4.46,8.1c1.93,2.32,4.55,4.17,7.45,4.16c2.9,0.02,5.54-1.81,7.49-4.13c1.96-2.35,3.37-5.19,4.46-8.11
								C287.1,190.2,287.94,183.84,287.88,177.54z"/>
						</g>
						<g>
							<path class="st13" d="M281.95,149.77c0.69,2.23,2.31,4.16,4.37,5.2c2.02,1.09,4.61,1.16,6.55,0.14
								c1.94-1.04,3.1-3.36,2.91-5.64c-0.07-1.15-0.42-2.28-1.08-3.17c-0.65-0.91-1.59-1.62-2.65-1.94
								c-1.03-0.34-2.26-0.29-3.19,0.18c-0.94,0.48-1.62,1.45-1.82,2.54c-0.19,1.08,0.04,2.3,0.74,3.14
								c0.68,0.86,1.82,1.35,2.89,1.16c1.06-0.14,1.86-1.16,1.84-2.28c-0.01-0.56-0.17-1.12-0.52-1.54
								c-0.34-0.42-0.86-0.71-1.4-0.75c-0.55-0.04-1.08,0.16-1.38,0.63c-0.3,0.45-0.33,1.09-0.09,1.59c0.24,0.5,0.81,0.85,1.38,0.75
								c0.56-0.07,0.93-0.72,0.75-1.29l0.23-0.07c0.27,0.66-0.13,1.57-0.91,1.72c-0.73,0.18-1.51-0.23-1.87-0.87
								c-0.36-0.65-0.38-1.46,0-2.13c0.36-0.69,1.18-1.07,1.92-1.04c0.76,0.02,1.48,0.38,1.98,0.94c0.51,0.56,0.77,1.31,0.8,2.04
								c0.03,0.74-0.17,1.51-0.62,2.13c-0.44,0.62-1.16,1.09-1.91,1.23c-1.49,0.34-3.1-0.28-4.06-1.42c-1-1.15-1.35-2.71-1.15-4.17
								c0.21-1.47,1.1-2.88,2.46-3.65c1.38-0.75,2.94-0.82,4.38-0.43c1.44,0.4,2.69,1.31,3.58,2.49c0.91,1.18,1.38,2.63,1.5,4.06
								c0.14,1.45-0.13,2.94-0.76,4.27c-0.65,1.33-1.69,2.48-3.01,3.22c-2.66,1.43-5.86,1.28-8.42-0.03
								c-2.57-1.31-4.53-3.69-5.36-6.42L281.95,149.77z"/>
						</g>
						<g>
							<path class="st13" d="M237.73,151.77c-1.11,2.6-3.24,4.75-5.89,5.82c-2.64,1.08-5.82,0.97-8.32-0.72
								c-1.23-0.86-2.13-2.13-2.62-3.51c-0.47-1.39-0.56-2.88-0.26-4.29c0.27-1.39,0.89-2.76,1.89-3.84
								c0.98-1.08,2.3-1.86,3.75-2.13c1.45-0.27,3-0.06,4.29,0.82c1.27,0.89,1.99,2.4,2.02,3.87c0.03,1.46-0.48,2.94-1.57,3.98
								c-1.05,1.03-2.68,1.52-4.13,1.04c-0.73-0.21-1.39-0.75-1.76-1.41c-0.38-0.67-0.48-1.45-0.37-2.17c0.12-0.72,0.45-1.42,1-1.93
								c0.54-0.5,1.29-0.8,2.04-0.76c0.74,0.03,1.52,0.5,1.8,1.22c0.3,0.7,0.18,1.5-0.24,2.1c-0.42,0.6-1.22,0.94-1.93,0.69
								c-0.36-0.11-0.65-0.41-0.77-0.75c-0.12-0.35-0.09-0.73,0.06-1.04l0.22,0.1c-0.24,0.55,0.04,1.23,0.59,1.35
								c0.54,0.15,1.14-0.15,1.42-0.62c0.29-0.47,0.33-1.11,0.09-1.58c-0.23-0.49-0.74-0.75-1.28-0.75c-0.53,0-1.07,0.24-1.45,0.62
								c-0.38,0.38-0.6,0.92-0.67,1.47c-0.14,1.1,0.52,2.2,1.55,2.42c1.03,0.28,2.2-0.11,2.95-0.9c0.76-0.77,1.12-1.94,1.06-3.03
								c-0.06-1.1-0.63-2.12-1.49-2.68c-0.86-0.55-2.06-0.71-3.11-0.46c-1.07,0.23-2.07,0.84-2.8,1.68c-0.74,0.82-1.2,1.9-1.4,3.02
								c-0.44,2.23,0.43,4.64,2.22,5.85c0.87,0.6,2,0.93,3.12,1.01c1.12,0.08,2.27-0.14,3.32-0.57c2.13-0.85,3.9-2.6,4.82-4.73
								L237.73,151.77z"/>
						</g>
					</g>
					<g>
						<path class="st57" d="M249.1,177.37c0,11.32-4.21,20.49-9.41,20.49c-5.2,0-9.41-9.18-9.41-20.49
							c0-11.32,4.21-20.49,9.41-20.49C244.89,156.87,249.1,166.05,249.1,177.37z"/>
						<g>
							<g>
								<path class="st3" d="M236.43,176.12c-0.66-1.05-0.82-2.43-0.43-3.67c0.41-1.24,1.4-2.27,2.6-2.82
									c1.2-0.57,2.71-0.6,3.93,0.02c1.2,0.61,2.22,1.64,2.57,3.07c0.15,0.71,0,1.54-0.46,2.14c-0.44,0.6-1.05,0.99-1.68,1.24
									c-0.64,0.24-1.31,0.36-1.99,0.33c-0.67-0.04-1.42-0.22-1.95-0.8c-0.5-0.57-0.67-1.29-0.61-1.99
									c0.04-0.71,0.55-1.41,1.19-1.65c0.61-0.26,1.4-0.31,1.94,0.18c0.53,0.48,0.51,1.26,0.26,1.8c0.15-0.59,0.03-1.28-0.43-1.6
									c-0.45-0.32-1.09-0.21-1.55,0.06c-1.04,0.48-0.94,1.99-0.24,2.67c1.5,1.2,5.08-0.14,4.55-2.17c-0.21-1-1.05-1.92-2.02-2.42
									c-0.96-0.54-2.15-0.54-3.21-0.16c-1.06,0.39-1.99,1.22-2.44,2.29C235.96,173.69,235.97,174.98,236.43,176.12z"/>
							</g>
							<g>
								<path class="st3" d="M236.16,176.26c0.5-1.16,0.52-2.48,0-3.55c-0.48-1.09-1.46-1.89-2.56-2.28
									c-1.1-0.38-2.31-0.38-3.32,0.15c-1,0.49-1.9,1.4-2.14,2.41c-0.28,1,0.53,1.9,1.59,2.3c1.02,0.43,2.37,0.51,3.15-0.08
									c0.37-0.32,0.6-0.88,0.59-1.41c0-0.54-0.29-1.01-0.81-1.27c-0.48-0.27-1.13-0.39-1.61-0.09c-0.49,0.3-0.65,1.01-0.48,1.61
									c-0.26-0.56-0.25-1.36,0.32-1.82c0.57-0.45,1.36-0.4,1.98-0.14c0.32,0.14,0.62,0.34,0.85,0.65c0.22,0.3,0.34,0.66,0.38,1.02
									c0.05,0.72-0.16,1.45-0.69,2.01c-0.57,0.55-1.32,0.72-2,0.74c-0.69,0.02-1.37-0.1-2.02-0.34c-0.64-0.25-1.27-0.62-1.73-1.22
									c-0.24-0.29-0.4-0.66-0.5-1.04c-0.07-0.38-0.07-0.78,0.01-1.15c0.39-1.46,1.48-2.46,2.71-3.05c1.26-0.59,2.78-0.56,4-0.01
									c1.23,0.54,2.28,1.54,2.73,2.81C237.04,173.79,236.86,175.21,236.16,176.26z"/>
							</g>
							<g>
								<path class="st3" d="M228.28,176.51c2.77-0.39,5.53-0.48,8.3-0.5c2.77,0.01,5.53,0.1,8.3,0.5c-2.77,0.4-5.53,0.49-8.3,0.5
									C233.81,177,231.05,176.91,228.28,176.51z"/>
							</g>
						</g>
						<path class="st58" d="M274.93,176.89c0,11.06-4.32,20.02-9.64,20.02c-5.32,0-9.64-8.96-9.64-20.02
							c0-11.05,4.32-20.02,9.64-20.02C270.62,156.87,274.93,165.84,274.93,176.89"/>
						<g>
							<g>
								<path class="st3" d="M259.96,175.4c2.77-0.39,5.53-0.48,8.3-0.5c2.77,0.01,5.53,0.1,8.3,0.5c-2.77,0.4-5.53,0.49-8.3,0.5
									C265.49,175.89,262.72,175.8,259.96,175.4z"/>
							</g>
							<g>
								<path class="st3" d="M268.78,175.38c-0.66-1.05-0.82-2.43-0.43-3.67c0.41-1.24,1.4-2.27,2.6-2.82
									c1.2-0.57,2.71-0.6,3.93,0.02c1.2,0.61,2.22,1.64,2.57,3.07c0.15,0.71,0,1.54-0.46,2.14c-0.44,0.6-1.05,0.99-1.68,1.24
									c-0.64,0.24-1.31,0.36-1.99,0.33c-0.67-0.04-1.42-0.22-1.95-0.8c-0.5-0.57-0.67-1.29-0.61-1.99
									c0.04-0.71,0.55-1.41,1.19-1.65c0.61-0.26,1.4-0.31,1.94,0.18c0.53,0.48,0.51,1.26,0.26,1.8c0.15-0.59,0.03-1.28-0.43-1.6
									c-0.45-0.32-1.09-0.21-1.55,0.06c-1.04,0.47-0.94,1.99-0.24,2.67c1.5,1.2,5.08-0.15,4.55-2.17c-0.21-1-1.05-1.92-2.02-2.42
									c-0.96-0.54-2.15-0.54-3.21-0.16c-1.06,0.39-1.99,1.22-2.44,2.29C268.31,172.95,268.32,174.23,268.78,175.38z"/>
							</g>
							<g>
								<path class="st3" d="M268.51,175.51c0.5-1.16,0.52-2.48,0-3.55c-0.48-1.09-1.46-1.89-2.56-2.28
									c-1.1-0.38-2.31-0.38-3.32,0.15c-1,0.49-1.9,1.4-2.14,2.41c-0.28,1,0.53,1.9,1.59,2.3c1.02,0.43,2.37,0.51,3.15-0.08
									c0.37-0.32,0.6-0.89,0.59-1.41c0-0.54-0.29-1.01-0.81-1.27c-0.48-0.27-1.13-0.39-1.61-0.09c-0.49,0.3-0.65,1.01-0.48,1.61
									c-0.26-0.56-0.25-1.36,0.32-1.82c0.57-0.45,1.36-0.4,1.98-0.14c0.32,0.14,0.62,0.34,0.85,0.65c0.22,0.3,0.34,0.66,0.38,1.02
									c0.05,0.72-0.16,1.45-0.69,2.01c-0.57,0.55-1.32,0.71-2.01,0.74c-0.69,0.02-1.37-0.1-2.02-0.34
									c-0.64-0.25-1.27-0.61-1.73-1.22c-0.24-0.29-0.4-0.66-0.5-1.04c-0.07-0.38-0.07-0.78,0.01-1.15
									c0.39-1.46,1.48-2.46,2.71-3.05c1.26-0.59,2.78-0.57,4-0.01c1.23,0.54,2.28,1.54,2.73,2.81
									C269.39,173.04,269.21,174.46,268.51,175.51z"/>
							</g>
						</g>
					</g>
					<g>
						<g>
							<path class="st54" d="M242.16,118.44c1.95-0.99,6.3-3.56,8.88-8.73c3.4-6.83,2.89-16.53-2.41-20.85
								c-7.66-6.25-21.53,1.87-24.95,3.88c-14.21,8.33-26.14,26.41-21.01,34.47c3.83,6,17.03,6.27,25.82,1.12
								c7.21-4.23,14.79-14.05,11.37-21.42c-2.15-4.62-8.05-7.03-12.91-6.68c-10.58,0.76-17.95,14.67-15.09,19.75
								c1.93,3.43,9.42,4.41,13.82,1.16c3.24-2.4,5.24-7.42,3.57-9.37c-1.96-2.28-9.05-0.43-9.58,2.28
								c-0.09,0.48-0.09,1.53,1.59,3.13"/>
							<g>
								<path class="st13" d="M242.16,118.44c3.66-3.88,6.48-7.35,8.01-11.71c1.46-4.32,1.45-9.38-0.45-13.29
									c-0.95-1.94-2.42-3.47-4.31-4.23c-1.89-0.78-4.17-0.88-6.46-0.58c-4.62,0.65-9.21,2.68-13.51,5.07
									c-4.31,2.36-8.21,5.39-11.71,8.89c-3.47,3.5-6.55,7.45-8.77,11.81c-1.08,2.18-1.94,4.48-2.24,6.8
									c-0.32,2.31,0.05,4.64,1.52,6.25c1.5,1.61,3.76,2.56,6.09,3.06c2.35,0.48,4.82,0.53,7.25,0.28
									c4.86-0.54,9.62-2.3,13.34-5.46c1.88-1.55,3.56-3.36,4.97-5.32c1.39-1.97,2.56-4.12,3.09-6.36
									c0.52-2.22,0.47-4.53-0.58-6.39c-1.01-1.88-2.83-3.32-4.89-4.25c-2.06-0.92-4.4-1.35-6.61-1.16
									c-2.21,0.19-4.36,1.07-6.26,2.37c-1.9,1.31-3.56,3.04-4.9,4.99c-1.33,1.94-2.38,4.13-2.84,6.33
									c-0.23,1.09-0.27,2.21-0.04,3.09c0.1,0.46,0.32,0.77,0.58,1.12c0.3,0.32,0.66,0.65,1.11,0.9c1.8,1.04,4.24,1.37,6.47,1.04
									c1.12-0.17,2.22-0.5,3.19-1.03c0.96-0.52,1.8-1.27,2.53-2.16c0.73-0.88,1.32-1.9,1.7-2.96c0.4-1.03,0.52-2.21,0.21-2.9
									c-0.24-0.61-1.32-0.99-2.44-1.01c-1.13-0.02-2.31,0.2-3.4,0.6c-0.53,0.21-1.07,0.46-1.5,0.78c-0.45,0.31-0.81,0.7-0.92,1.08
									c-0.17,0.35-0.04,0.83,0.21,1.31c0.25,0.48,0.63,0.94,1.05,1.37l0.01,0.01c0.21,0.22,0.21,0.58-0.02,0.79
									c-0.21,0.2-0.55,0.21-0.76,0.01c-0.49-0.45-0.97-0.94-1.36-1.55c-0.37-0.59-0.72-1.43-0.46-2.31
									c0.22-0.86,0.79-1.44,1.34-1.88c0.56-0.47,1.18-0.78,1.8-1.07c1.26-0.54,2.59-0.86,4-0.92c0.71,0.01,1.43,0.02,2.19,0.29
									c0.73,0.24,1.57,0.74,2.01,1.58c0.44,0.8,0.5,1.63,0.47,2.38c-0.03,0.76-0.19,1.46-0.41,2.13
									c-0.43,1.34-1.09,2.57-1.93,3.68c-0.83,1.11-1.88,2.11-3.12,2.85c-1.23,0.73-2.59,1.19-3.96,1.44
									c-1.37,0.25-2.78,0.3-4.17,0.14c-1.39-0.17-2.79-0.53-4.11-1.27c-0.66-0.35-1.29-0.85-1.85-1.45
									c-0.54-0.62-1.02-1.4-1.21-2.19c-0.44-1.56-0.35-3.05-0.1-4.44c0.52-2.78,1.7-5.25,3.2-7.51c1.51-2.24,3.38-4.26,5.63-5.86
									c2.24-1.6,4.94-2.72,7.79-2.96c2.85-0.24,5.65,0.33,8.19,1.51c2.52,1.17,4.86,3.09,6.18,5.75c0.34,0.65,0.53,1.37,0.77,2.06
									l0.19,1.08l0.09,0.54l0.02,0.54l0.02,1.08c-0.02,0.36-0.07,0.7-0.11,1.06c-0.05,0.71-0.25,1.38-0.41,2.05
									c-0.74,2.68-2.14,5.01-3.73,7.11c-1.61,2.1-3.49,3.96-5.56,5.58c-2.05,1.63-4.38,2.98-6.84,3.92
									c-2.45,0.95-5.02,1.56-7.62,1.85c-2.6,0.29-5.26,0.28-7.88-0.23c-2.59-0.53-5.27-1.54-7.28-3.64
									c-0.98-1.08-1.7-2.41-2.02-3.81c-0.34-1.4-0.36-2.81-0.21-4.16c0.29-2.72,1.21-5.24,2.29-7.63
									c2.24-4.76,5.35-8.99,8.88-12.8c3.55-3.78,7.62-7.17,12.15-9.78c2.23-1.32,4.55-2.54,6.98-3.56
									c2.43-1.02,4.98-1.87,7.69-2.31c2.7-0.43,5.67-0.43,8.5,0.72c2.85,1.11,5.11,3.5,6.38,6.09c0.36,0.64,0.58,1.32,0.85,1.99
									c0.2,0.68,0.43,1.36,0.56,2.05c0.32,1.38,0.42,2.77,0.47,4.16c0.01,2.77-0.38,5.52-1.31,8.14
									c-0.45,1.31-1.04,2.59-1.77,3.78c-0.75,1.18-1.64,2.27-2.67,3.19C247.34,116.81,244.84,118.11,242.16,118.44z"/>
							</g>
						</g>
						<g>
							<path class="st13" d="M323.5,121.36c2.16,1.42,4.34,2.59,6.62,3.39c2.28,0.81,4.64,1.17,7.01,1.19
								c4.72-0.01,9.67-1.63,12.94-4.87c1.62-1.61,2.69-3.65,2.81-5.85c0.15-2.21-0.56-4.48-1.61-6.61
								c-2.18-4.27-5.62-7.97-9.3-11.29c-3.66-3.34-7.84-6.06-12.3-8.24c-4.46-2.15-9.22-3.79-14.09-4.47
								c-2.43-0.32-4.9-0.38-7.21,0.1c-2.31,0.46-4.42,1.58-5.47,3.51c-1.05,1.95-1.23,4.41-0.95,6.77
								c0.29,2.39,1.04,4.74,2.06,6.96c2.09,4.43,5.26,8.36,9.42,10.89c2.07,1.28,4.3,2.32,6.61,3.04c2.3,0.7,4.71,1.14,7.01,0.94
								c2.27-0.2,4.45-0.97,5.9-2.56c1.48-1.54,2.32-3.73,2.54-5.99c0.25-2.26-0.07-4.64-0.95-6.7c-0.86-2.07-2.38-3.87-4.24-5.28
								c-1.86-1.41-4.05-2.45-6.34-3.12c-2.28-0.66-4.71-0.98-6.99-0.7c-1.13,0.13-2.23,0.45-3.04,0.98
								c-0.8,0.5-1.22,1.33-1.47,2.38c-0.45,2.1,0.04,4.56,1.08,6.61c0.52,1.03,1.2,1.98,2.03,2.76c0.83,0.77,1.83,1.34,2.92,1.76
								c1.09,0.42,2.26,0.66,3.41,0.68c1.13,0.04,2.34-0.19,2.98-0.78c0.59-0.55,0.57-1.76,0.23-2.85c-0.35-1.11-0.95-2.18-1.69-3.1
								c-0.38-0.45-0.79-0.89-1.26-1.21c-0.45-0.34-0.97-0.58-1.44-0.57c-0.46-0.04-0.92,0.27-1.31,0.69
								c-0.39,0.42-0.71,0.94-0.99,1.48l0,0.01c-0.09,0.18-0.32,0.25-0.5,0.16c-0.17-0.09-0.24-0.3-0.17-0.48
								c0.27-0.6,0.57-1.19,1.02-1.73c0.43-0.51,1.07-1.07,1.91-1.09c0.81-0.06,1.51,0.27,2.09,0.65c0.6,0.37,1.08,0.84,1.55,1.34
								c0.89,1.01,1.61,2.15,2.09,3.44c0.21,0.66,0.42,1.33,0.4,2.09c0,0.73-0.19,1.63-0.8,2.26c-0.58,0.62-1.31,0.93-2,1.14
								c-0.7,0.21-1.4,0.28-2.09,0.28c-1.38,0.02-2.73-0.22-4.03-0.66c-1.29-0.43-2.55-1.09-3.62-2.02
								c-1.06-0.92-1.91-2.04-2.57-3.24c-1.29-2.41-2.02-5.17-1.53-8.07c0.11-0.72,0.38-1.45,0.76-2.15
								c0.41-0.68,0.97-1.35,1.63-1.77c1.3-0.88,2.72-1.26,4.09-1.46c2.76-0.38,5.46-0.05,8.05,0.64c2.58,0.71,5.07,1.83,7.29,3.44
								c2.2,1.6,4.12,3.76,5.27,6.36c1.12,2.6,1.49,5.41,1.21,8.18c-0.31,2.75-1.35,5.57-3.43,7.68c-0.5,0.53-1.13,0.94-1.7,1.39
								l-0.96,0.53l-0.48,0.26l-0.51,0.19l-1.02,0.36c-0.34,0.1-0.69,0.16-1.04,0.23c-0.69,0.18-1.39,0.2-2.08,0.26
								c-2.77,0.16-5.43-0.42-7.94-1.27c-2.5-0.86-4.87-2.05-7.06-3.5c-2.2-1.43-4.23-3.2-5.89-5.25c-1.67-2.03-3.05-4.29-4.14-6.67
								c-1.09-2.38-1.92-4.9-2.26-7.55c-0.31-2.62-0.19-5.47,1.17-8.03c0.72-1.25,1.75-2.35,2.97-3.08c1.21-0.75,2.54-1.2,3.86-1.48
								c2.66-0.56,5.32-0.47,7.92-0.18c5.19,0.66,10.15,2.3,14.84,4.48c4.67,2.19,9.11,5.01,12.97,8.48c1.93,1.7,3.79,3.52,5.5,5.49
								c1.7,1.97,3.27,4.1,4.5,6.49c1.22,2.37,2.08,5.11,1.9,7.99c-0.16,2.89-1.62,5.62-3.59,7.56c-0.98,0.99-2.09,1.82-3.27,2.5
								c-1.16,0.71-2.41,1.23-3.67,1.7c-2.54,0.86-5.21,1.34-7.9,1.28C331.69,128.44,326.41,125.62,323.5,121.36z"/>
						</g>
						<g>
							<path class="st13" d="M296.74,136c1.46-1.62,2.93-3.23,4.42-4.82l4.51-4.73l4.57-4.65c1.53-1.54,3.09-3.06,4.66-4.56
								c0.62-0.59,1.6-0.57,2.19,0.05c0.59,0.62,0.57,1.6-0.05,2.19c-0.01,0.01-0.03,0.03-0.05,0.05c-1.63,1.43-3.28,2.85-4.95,4.25
								l-5.03,4.16l-5.1,4.08C300.22,133.36,298.49,134.69,296.74,136z"/>
						</g>
						<g>
							<path class="st13" d="M314.64,139.83c0.46-1.83,1.1-3.57,1.8-5.28c0.7-1.71,1.46-3.39,2.3-5.03
								c0.83-1.65,1.73-3.25,2.69-4.83c0.96-1.58,1.99-3.12,3.19-4.58c-0.46,1.83-1.1,3.57-1.8,5.28c-0.7,1.71-1.46,3.39-2.3,5.03
								c-0.83,1.64-1.73,3.25-2.69,4.83C316.87,136.83,315.84,138.38,314.64,139.83z"/>
						</g>
						<g>
							<path class="st13" d="M327.52,144.6c-0.28-1.8-0.37-3.59-0.39-5.37c-0.02-1.78,0.03-3.56,0.16-5.33
								c0.12-1.77,0.33-3.54,0.6-5.3c0.27-1.76,0.62-3.51,1.16-5.25c0.29,1.8,0.37,3.59,0.39,5.37c0.02,1.78-0.03,3.56-0.17,5.33
								c-0.13,1.77-0.33,3.54-0.61,5.3C328.41,141.1,328.06,142.85,327.52,144.6z"/>
						</g>
						<g>
							<path class="st13" d="M336.91,145.81c-0.79-1.28-1.38-2.61-1.91-3.96c-0.53-1.35-0.99-2.72-1.38-4.11
								c-0.39-1.39-0.7-2.8-0.95-4.23c-0.25-1.43-0.43-2.88-0.41-4.38c0.79,1.28,1.39,2.61,1.92,3.96c0.53,1.35,0.99,2.72,1.37,4.11
								c0.39,1.39,0.7,2.8,0.95,4.23C336.74,142.86,336.92,144.31,336.91,145.81z"/>
						</g>
						<g>
							<path class="st13" d="M271.49,114.75c-1.98,0.38-3.95,0.56-5.92,0.67c-1.97,0.11-3.94,0.15-5.91,0.12
								c-1.97-0.03-3.93-0.15-5.9-0.33c-1.97-0.18-3.93-0.43-5.89-0.89c1.98-0.38,3.95-0.56,5.92-0.67
								c1.97-0.11,3.94-0.15,5.91-0.11c1.97,0.03,3.93,0.15,5.9,0.33C267.57,114.05,269.53,114.3,271.49,114.75z"/>
						</g>
						<g>
							<path class="st13" d="M259.62,120.24c-1.71,0.04-3.38-0.12-5.03-0.34c-1.65-0.22-3.29-0.52-4.91-0.89
								c-1.62-0.36-3.22-0.81-4.81-1.32c-1.59-0.51-3.16-1.09-4.69-1.86c1.71-0.04,3.38,0.12,5.03,0.34
								c1.65,0.23,3.29,0.52,4.91,0.89c1.62,0.37,3.22,0.81,4.81,1.32C256.52,118.9,258.09,119.47,259.62,120.24z"/>
						</g>
						<g>
							<path class="st13" d="M247.88,131.58c-1.29-0.66-2.45-1.46-3.55-2.31c-1.11-0.85-2.17-1.75-3.17-2.71
								c-1.01-0.95-1.96-1.97-2.87-3.03c-0.9-1.06-1.76-2.18-2.48-3.43c1.29,0.65,2.45,1.45,3.55,2.3c1.11,0.85,2.17,1.75,3.17,2.71
								c1.01,0.96,1.96,1.97,2.86,3.03C246.3,129.21,247.16,130.32,247.88,131.58z"/>
						</g>
						<g>
							<path class="st13" d="M237.25,137.15c-0.89-0.72-1.59-1.55-2.25-2.4c-0.65-0.86-1.23-1.75-1.76-2.68
								c-0.52-0.93-0.99-1.89-1.38-2.89c-0.38-1.01-0.73-2.04-0.88-3.17c0.89,0.72,1.59,1.55,2.25,2.4
								c0.65,0.86,1.23,1.75,1.75,2.68c0.52,0.93,0.99,1.89,1.38,2.89C236.75,134.99,237.09,136.02,237.25,137.15z"/>
						</g>
						<g>
							<path class="st13" d="M226.65,140.77c-0.4-0.81-0.58-1.61-0.72-2.41c-0.13-0.8-0.17-1.6-0.15-2.39
								c0.02-0.8,0.11-1.59,0.28-2.38c0.18-0.79,0.41-1.58,0.85-2.37c0.4,0.81,0.59,1.61,0.72,2.41c0.13,0.8,0.17,1.6,0.15,2.39
								c-0.02,0.8-0.11,1.59-0.28,2.38C227.32,139.2,227.09,139.99,226.65,140.77z"/>
						</g>
						<path class="st55" d="M278.72,258.63l-0.09,7.85c0.55,2.01,1.84,3.36,3.29,3.47c1.41,0.11,2.76-0.99,3.46-2.83
							c-0.09-3.17-0.17-6.35-0.26-9.52"/>
						<g>
							<path class="st13" d="M357.3,182.9c0.01,10.11-1.97,20.24-5.85,29.59c-3.86,9.36-9.6,17.93-16.75,25.1
								c-7.15,7.16-15.72,12.91-25.08,16.8c-9.35,3.9-19.48,5.9-29.61,5.91c-10.13,0.01-20.26-1.98-29.63-5.86
								c-9.37-3.87-17.96-9.61-25.13-16.77c-7.17-7.16-12.93-15.74-16.82-25.11c-3.9-9.37-5.91-19.51-5.92-29.65
								c0.01-10.14,2.01-20.29,5.92-29.65c3.89-9.37,9.65-17.95,16.82-25.11c7.18-7.16,15.76-12.9,25.13-16.77
								c9.37-3.88,19.51-5.86,29.63-5.86c10.13,0.01,20.26,2.01,29.61,5.91c9.36,3.88,17.92,9.63,25.08,16.8
								c7.15,7.16,12.88,15.74,16.75,25.1C355.33,162.66,357.31,172.79,357.3,182.9z M352.74,182.9
								c-0.01-9.53-1.89-19.04-5.55-27.82c-3.65-8.79-9.05-16.84-15.79-23.56c-6.74-6.72-14.8-12.11-23.58-15.74
								c-8.79-3.64-18.29-5.5-27.8-5.49c-9.51,0.01-19.01,1.89-27.78,5.54c-8.77,3.64-16.81,9.04-23.53,15.76
								c-6.71,6.73-12.09,14.77-15.71,23.55c-3.63,8.77-5.49,18.26-5.49,27.76c-0.01,9.5,1.85,18.99,5.48,27.76
								c3.62,8.78,9,16.82,15.71,23.55c6.71,6.72,14.75,12.12,23.53,15.76c8.77,3.65,18.27,5.53,27.78,5.54
								c9.51,0.01,19.02-1.85,27.8-5.49c8.79-3.63,16.85-9.01,23.58-15.74c6.73-6.72,12.14-14.77,15.79-23.56
								C350.85,201.94,352.73,192.43,352.74,182.9z"/>
						</g>
						<g>
							<path class="st13" d="M286.72,123.35c1.72-0.98,3.44-1.94,5.18-2.88l5.22-2.77c3.51-1.79,7.01-3.59,10.58-5.24
								c0.78-0.36,1.7-0.02,2.06,0.76c0.36,0.78,0.02,1.7-0.76,2.06c-0.02,0.01-0.04,0.02-0.05,0.02
								c-3.63,1.51-7.33,2.86-11.02,4.23l-5.58,1.96C290.48,122.14,288.61,122.75,286.72,123.35z"/>
						</g>
						<g>
							<path class="st13" d="M281.03,114.66c1.3-0.5,2.61-0.98,3.92-1.44l3.94-1.32c2.64-0.82,5.28-1.66,7.96-2.32
								c0.83-0.21,1.67,0.3,1.88,1.13c0.21,0.83-0.3,1.67-1.13,1.88c-0.02,0.01-0.06,0.01-0.08,0.02c-2.71,0.52-5.45,0.88-8.2,1.24
								l-4.13,0.46C283.81,114.46,282.42,114.57,281.03,114.66z"/>
						</g>
					</g>
					<g>
						<g>
							<path class="st13" d="M266.09,288.86c-0.52,3.29-1.27,6.54-2.2,9.74c-0.95,3.2-2.08,6.35-3.45,9.41
								c-1.39,3.05-2.97,6.03-4.89,8.82c-1.91,2.77-4.02,5.52-6.89,7.42c-0.47,0.31-1.09,0.18-1.4-0.28
								c-0.24-0.37-0.22-0.83,0.03-1.17l0.02-0.03c1.95-2.59,4.08-4.9,5.9-7.54c1.84-2.61,3.37-5.45,4.74-8.37
								c2.76-5.83,4.73-12.05,6.17-18.38c0.12-0.54,0.66-0.88,1.2-0.76C265.84,287.84,266.17,288.34,266.09,288.86z"/>
						</g>
						<g>
							<path class="st13" d="M286,266.15l29.21,0.84l1.04,0.03l-0.26,1.01c-0.87,3.44-2.15,6.7-3.21,9.98
								c-1.05,3.26-1.94,6.59-1.83,9.9l-0.92,0.95c-7.53,0.07-15.05-0.01-22.58-0.11l-11.29-0.2l-11.28-0.29l-0.58-0.01l-0.08-0.56
								v0c-0.55-3.76-1.93-7.39-3.46-10.93c-1.54-3.55-3.26-7.06-4.64-10.75l-0.36-0.97l1.04,0.03l21.15,0.71
								c0.39,0.01,0.7,0.34,0.69,0.73c-0.01,0.39-0.34,0.7-0.73,0.69l0,0l-21.15-0.74l0.67-0.93c1.34,3.61,3.05,7.1,4.6,10.69
								c1.54,3.59,2.97,7.32,3.54,11.28v0l-0.67-0.58c3.77-0.06,7.53-0.1,11.29-0.11l11.29-0.02l11.29,0.06
								c3.76,0.04,7.53,0.1,11.28,0.18l-0.92,0.95c-0.08-3.69,0.91-7.18,2-10.5c1.11-3.33,2.39-6.55,3.26-9.85l0.78,1.04l-29.2-1.06
								c-0.4-0.01-0.71-0.35-0.7-0.75C285.27,266.45,285.6,266.14,286,266.15z"/>
						</g>
						
							<pattern  id="SVGID_6_" xlink:href="#New_Pattern_Swatch_1" patternTransform="matrix(0.2645 -0.0545 0.0538 0.261 -4108.5024 -5593.8525)">
						</pattern>
						<path style="opacity:0.12;fill:url(#SVGID_6_);" d="M265.76,286.75c-0.71-2.79-1.63-5.82-2.82-9.02
							c-1.63-4.37-3.44-8.19-5.21-11.45c6.68,0.33,13.36,0.65,20.04,0.98c0.44,2.26,2.45,3.82,4.59,3.71
							c1.87-0.1,3.52-1.47,4.03-3.38c9.24,0.4,18.47,0.81,27.71,1.21c-0.95,2.45-1.88,5.11-2.74,7.98c-1.08,3.6-1.89,7.01-2.5,10.15
							"/>
						<g>
							<path class="st13" d="M319.03,315.76c0.88,1.94,2.23,3.67,3.74,5.19c1.52,1.52,3.25,2.84,5.1,3.91
								c1.84,1.07,3.83,1.91,5.85,2.33c2.01,0.45,4.1,0.44,5.9-0.26c3.76-1.37,6.54-5.06,6.85-9.09c0.17-1.99-0.24-4.1-1.23-5.83
								c-0.97-1.74-2.64-3.09-4.55-3.75c-1.91-0.68-4.06-0.62-5.95,0.13c-1.87,0.7-3.34,2.3-3.93,4.19
								c-0.59,1.87-0.27,4.08,0.86,5.6c1.13,1.54,3.19,2.35,5.07,1.99c0.95-0.16,1.83-0.56,2.47-1.22c0.65-0.65,1.05-1.55,1.11-2.47
								c0.07-0.91-0.2-1.89-0.74-2.58c-0.56-0.7-1.44-1.15-2.36-1.18c-0.92-0.03-1.87,0.32-2.39,1.05c-0.55,0.7-0.67,1.76-0.26,2.59
								c0.4,0.82,1.42,1.29,2.37,1.07c0.96-0.17,1.63-1.27,1.28-2.28c-0.02-0.07,0.01-0.14,0.08-0.16c0.06-0.02,0.13,0.01,0.16,0.06
								c0.27,0.53,0.29,1.2,0.04,1.77c-0.24,0.57-0.77,1.03-1.37,1.23c-1.19,0.45-2.68-0.06-3.37-1.22
								c-0.68-1.12-0.64-2.61,0.1-3.73c0.36-0.56,0.89-1.01,1.5-1.29c0.59-0.28,1.23-0.43,1.89-0.43c1.3-0.01,2.61,0.56,3.49,1.56
								c0.89,1.02,1.24,2.35,1.17,3.64c-0.07,1.29-0.61,2.56-1.51,3.5c-0.9,0.96-2.13,1.54-3.36,1.76c-2.5,0.47-5.2-0.6-6.71-2.65
								c-1.5-2.07-1.81-4.74-1.08-7.1c0.75-2.34,2.58-4.34,4.88-5.22c2.24-0.91,4.8-0.96,7.1-0.23c2.31,0.72,4.36,2.31,5.64,4.4
								c1.29,2.09,1.86,4.52,1.75,6.95c-0.12,2.42-0.94,4.83-2.4,6.8c-1.45,1.97-3.47,3.51-5.77,4.37c-2.39,0.86-4.94,0.76-7.23,0.2
								c-2.3-0.59-4.42-1.63-6.35-2.88c-1.93-1.27-3.68-2.77-5.2-4.48c-1.52-1.71-2.83-3.64-3.7-5.79c-0.12-0.3,0.02-0.63,0.32-0.75
								C318.58,315.34,318.9,315.47,319.03,315.76L319.03,315.76z"/>
						</g>
						<g>
							<path class="st13" d="M254.78,316.47c-1.12,2.41-2.82,4.45-4.7,6.24c-1.89,1.78-4.01,3.33-6.27,4.62
								c-2.27,1.29-4.68,2.34-7.24,3.03c-2.55,0.66-5.27,0.96-7.99,0.55c-1.37-0.21-2.67-0.61-3.92-1.15
								c-1.25-0.54-2.44-1.24-3.52-2.1c-2.17-1.69-3.85-4.17-4.36-6.98c-0.54-2.81,0.21-5.74,1.85-8.01
								c1.68-2.25,4.12-3.74,6.69-4.5c2.57-0.77,5.32-0.89,7.94-0.33c2.61,0.52,5.25,1.97,6.71,4.44c0.7,1.23,1.09,2.7,0.91,4.15
								c-0.16,1.42-0.73,2.82-1.71,3.89c-1.96,2.13-4.83,3.02-7.56,2.87c-1.37-0.09-2.75-0.41-4-1.17c-1.22-0.74-2.27-1.98-2.56-3.5
								c-0.29-1.51,0.22-3.14,1.33-4.17c1.09-1.03,2.5-1.52,3.9-1.61c0.7-0.04,1.41,0.02,2.09,0.2c0.69,0.17,1.37,0.49,1.93,0.98
								c0.56,0.49,0.99,1.18,1.11,1.95c0.13,0.77-0.07,1.56-0.5,2.18c-0.92,1.24-2.47,1.62-3.81,1.37c-0.66-0.11-1.36-0.42-1.8-0.98
								c-0.47-0.54-0.55-1.38-0.21-1.98c0.03-0.06,0.11-0.08,0.17-0.05c0.06,0.03,0.08,0.1,0.06,0.16
								c-0.23,0.56-0.07,1.17,0.33,1.56c0.39,0.41,0.96,0.6,1.54,0.65c1.14,0.1,2.39-0.36,2.93-1.25c0.57-0.91,0.25-2.07-0.6-2.68
								c-0.81-0.66-2.03-0.85-3.14-0.75c-1.12,0.11-2.22,0.58-2.95,1.33c-0.72,0.73-1.05,1.82-0.84,2.8
								c0.2,0.99,0.92,1.86,1.86,2.41c0.93,0.56,2.09,0.82,3.24,0.88c2.29,0.14,4.72-0.66,6.22-2.3c0.74-0.8,1.18-1.86,1.31-2.94
								c0.14-1.08-0.15-2.19-0.68-3.16c-1.13-1.95-3.32-3.19-5.64-3.64c-2.34-0.49-4.82-0.37-7.08,0.38
								c-2.25,0.73-4.34,2.08-5.63,3.97c-1.26,1.87-1.77,4.29-1.27,6.46c0.47,2.2,1.87,4.14,3.67,5.56c1.8,1.43,4.09,2.36,6.36,2.77
								c2.3,0.4,4.73,0.18,7.09-0.36c2.37-0.52,4.68-1.43,6.87-2.54c2.2-1.12,4.28-2.49,6.15-4.09c1.86-1.61,3.57-3.45,4.66-5.62
								l0.01-0.01c0.14-0.28,0.49-0.4,0.78-0.25C254.8,315.85,254.91,316.18,254.78,316.47z"/>
						</g>
						
							<pattern  id="SVGID_7_" xlink:href="#New_Pattern_Swatch_1" patternTransform="matrix(0.2645 -0.0545 0.0538 0.261 -4108.5024 -5593.8525)">
						</pattern>
						<path class="st30" d="M253.73,319.27c2.49-3.29,5.42-7.83,7.86-13.63c2.84-6.75,4.01-12.84,4.52-17.31
							c14.24,0.22,28.47,0.44,42.71,0.66c0.77,4.35,1.97,9.36,3.83,14.78c2.19,6.34,4.77,11.71,7.2,16.05
							c-14.23,7.4-23.69,6.93-29.84,4.91c-7.01-2.3-10.71-6.95-19.57-8.03C263.61,315.85,257.71,317.62,253.73,319.27z"/>
					</g>
				</g>
			</g>
		</g>
		<g>
			<path class="st13" d="M310.81,288.52c0.44,2.75,1,5.49,1.63,8.21c0.64,2.72,1.4,5.41,2.28,8.05c0.88,2.65,1.86,5.26,3,7.8
				c0.27,0.64,0.58,1.27,0.87,1.9c0.28,0.64,0.58,1.27,0.9,1.89c0.59,1.27,1.35,2.43,1.66,3.89l0,0.01
				c0.02,0.08-0.03,0.15-0.11,0.17c-0.04,0.01-0.09,0-0.12-0.03c-1.14-0.95-1.9-2.17-2.61-3.4c-0.76-1.21-1.39-2.49-2.04-3.76
				c-1.24-2.56-2.29-5.22-3.24-7.9c-1.87-5.37-3.3-10.9-4.21-16.52c-0.09-0.55,0.28-1.06,0.83-1.15
				C310.21,287.6,310.73,287.97,310.81,288.52L310.81,288.52z"/>
		</g>
	</g>
</g>
</svg>
