<svg id="Layer_1" data-name="Layer 1" xmlns="http://www.w3.org/2000/svg" xmlns:xlink="http://www.w3.org/1999/xlink" viewBox="0 0 367 833"><defs><style>.cls-1{opacity:0.5;}.cls-2{fill:none;}.cls-3{filter:url(#glow);}.cls-4{fill:#fff;}</style><filter id="glow" name="glow"><feGaussianBlur stdDeviation="10" in="SourceGraphic"/></filter></defs><g id="Buttons" class="cls-1"><line class="cls-2" x2="367" y2="833"/><g id="MemoryPalace" class="cls-3"><path class="cls-4" d="M89.24,285.53c-30.41.36-50.68,95.53-41,124.38,4.36,13,72.22,13,80.38,2C145.49,389.24,119.52,285.17,89.24,285.53Z" transform="translate(-6.6 -3.2)"/></g><g id="NextVerse" class="cls-3"><path class="cls-4" d="M150.31,413.83c-7.68-7.68-17.16-76.27-5.81-88.94,15.05-16.81,65.72-17.61,83.4-3.59,8.7,6.9,10.5,81.66.11,90.7S159.15,422.67,150.31,413.83Z" transform="translate(-6.6 -3.2)"/></g><g id="NextActivity" class="cls-3"><path class="cls-4" d="M244.61,409c-4.53-19.75-.61-84.83,12.81-103.5,11.39-15.86,46.45-19.37,58.57-4.05,15.73,19.9,32.16,95.7,22.56,112.4C331.85,425.44,248.73,426.9,244.61,409Z" transform="translate(-6.6 -3.2)"/></g><g id="Continue" class="cls-3"><path class="cls-4" d="M65.8,508.74c-1.16-46.25,39.51-41.62,132.82-43.31,103.09-1.86,124.58,5,124.58,45.42s-21.37,40.36-122.65,43.3C86.85,557.45,66.8,548.5,65.8,508.74Z" transform="translate(-6.6 -3.2)"/></g></g></svg>