<svg id="Layer_1" data-name="Layer 1" xmlns="http://www.w3.org/2000/svg" xmlns:xlink="http://www.w3.org/1999/xlink" viewBox="0 0 3560 2000"><defs><style>.cls-1,.cls-10,.cls-100,.cls-101,.cls-104,.cls-105,.cls-6{fill:none;}.cls-2{opacity:0.05;}.cls-11,.cls-3,.cls-34,.cls-5{fill:#fff;}.cls-10,.cls-11,.cls-4,.cls-5,.cls-6{opacity:0.5;}.cls-10,.cls-11,.cls-5,.cls-6{stroke:#fff;}.cls-10,.cls-100,.cls-101,.cls-102,.cls-104,.cls-105,.cls-11,.cls-14,.cls-16,.cls-5,.cls-6,.cls-98{stroke-miterlimit:10;}.cls-10,.cls-5{stroke-width:7.97px;}.cls-10,.cls-108,.cls-109,.cls-11,.cls-12,.cls-13,.cls-15,.cls-16,.cls-19,.cls-20,.cls-29,.cls-32,.cls-33,.cls-34,.cls-37,.cls-40,.cls-43,.cls-46,.cls-49,.cls-5,.cls-52,.cls-55,.cls-58,.cls-6,.cls-61,.cls-64,.cls-67,.cls-70,.cls-73,.cls-76,.cls-79,.cls-82,.cls-85,.cls-88,.cls-91,.cls-94{isolation:isolate;}.cls-6{stroke-width:9.31px;}.cls-7{fill:url(#radial-gradient);}.cls-8{fill:url(#radial-gradient-2);}.cls-9{fill:url(#radial-gradient-3);}.cls-100,.cls-101,.cls-102,.cls-104,.cls-105,.cls-11,.cls-98{stroke-linecap:round;}.cls-11{stroke-width:5.7px;}.cls-12,.cls-19,.cls-22{opacity:0.3;}.cls-12{fill:url(#linear-gradient);}.cls-13,.cls-21,.cls-34{opacity:0.1;}.cls-13{fill:url(#radial-gradient-4);}.cls-14{fill:#f7af3c;stroke:#c19c00;stroke-width:7.84px;}.cls-15,.cls-16,.cls-20{opacity:0.7;}.cls-15{fill:url(#linear-gradient-2);}.cls-16{fill:#8e8339;}.cls-100,.cls-101,.cls-16,.cls-98{stroke:#fff100;}.cls-101,.cls-102,.cls-105,.cls-16,.cls-98{stroke-width:1.62px;}.cls-17{fill:url(#linear-gradient-3);}.cls-18{fill:url(#linear-gradient-4);}.cls-20{fill:url(#linear-gradient-5);}.cls-23{fill:url(#linear-gradient-6);}.cls-24{fill:url(#linear-gradient-7);}.cls-25{fill:url(#radial-gradient-5);}.cls-26{fill:url(#radial-gradient-6);}.cls-27{fill:url(#radial-gradient-7);}.cls-28{fill:url(#radial-gradient-8);}.cls-29,.cls-32,.cls-37,.cls-40,.cls-43,.cls-46,.cls-49,.cls-52,.cls-55,.cls-58,.cls-61,.cls-64,.cls-67,.cls-70,.cls-73,.cls-76,.cls-79,.cls-82,.cls-85,.cls-88,.cls-91,.cls-94{opacity:0.11;}.cls-29{fill:url(#radial-gradient-9);}.cls-30{fill:url(#radial-gradient-10);}.cls-31{fill:url(#radial-gradient-11);}.cls-32{fill:url(#radial-gradient-12);}.cls-33,.cls-99{fill:#fff100;}.cls-33{opacity:0.2;}.cls-35{fill:url(#radial-gradient-13);}.cls-36{fill:url(#radial-gradient-14);}.cls-37{fill:url(#radial-gradient-15);}.cls-38{fill:url(#radial-gradient-16);}.cls-39{fill:url(#radial-gradient-17);}.cls-40{fill:url(#radial-gradient-18);}.cls-41{fill:url(#radial-gradient-19);}.cls-42{fill:url(#radial-gradient-20);}.cls-43{fill:url(#radial-gradient-21);}.cls-44{fill:url(#radial-gradient-22);}.cls-45{fill:url(#radial-gradient-23);}.cls-46{fill:url(#radial-gradient-24);}.cls-47{fill:url(#radial-gradient-25);}.cls-48{fill:url(#radial-gradient-26);}.cls-49{fill:url(#radial-gradient-27);}.cls-50{fill:url(#radial-gradient-28);}.cls-51{fill:url(#radial-gradient-29);}.cls-52{fill:url(#radial-gradient-30);}.cls-53{fill:url(#radial-gradient-31);}.cls-54{fill:url(#radial-gradient-32);}.cls-55{fill:url(#radial-gradient-33);}.cls-56{fill:url(#radial-gradient-34);}.cls-57{fill:url(#radial-gradient-35);}.cls-58{fill:url(#radial-gradient-36);}.cls-59{fill:url(#radial-gradient-37);}.cls-60{fill:url(#radial-gradient-38);}.cls-61{fill:url(#radial-gradient-39);}.cls-62{fill:url(#radial-gradient-40);}.cls-63{fill:url(#radial-gradient-41);}.cls-64{fill:url(#radial-gradient-42);}.cls-65{fill:url(#radial-gradient-43);}.cls-66{fill:url(#radial-gradient-44);}.cls-67{fill:url(#radial-gradient-45);}.cls-68{fill:url(#radial-gradient-46);}.cls-69{fill:url(#radial-gradient-47);}.cls-70{fill:url(#radial-gradient-48);}.cls-71{fill:url(#radial-gradient-49);}.cls-72{fill:url(#radial-gradient-50);}.cls-73{fill:url(#radial-gradient-51);}.cls-74{fill:url(#radial-gradient-52);}.cls-75{fill:url(#radial-gradient-53);}.cls-76{fill:url(#radial-gradient-54);}.cls-77{fill:url(#radial-gradient-55);}.cls-78{fill:url(#radial-gradient-56);}.cls-79{fill:url(#radial-gradient-57);}.cls-80{fill:url(#radial-gradient-58);}.cls-81{fill:url(#radial-gradient-59);}.cls-82{fill:url(#radial-gradient-60);}.cls-83{fill:url(#radial-gradient-61);}.cls-84{fill:url(#radial-gradient-62);}.cls-85{fill:url(#radial-gradient-63);}.cls-86{fill:url(#radial-gradient-64);}.cls-87{fill:url(#radial-gradient-65);}.cls-88{fill:url(#radial-gradient-66);}.cls-89{fill:url(#radial-gradient-67);}.cls-90{fill:url(#radial-gradient-68);}.cls-91{fill:url(#radial-gradient-69);}.cls-92{fill:url(#radial-gradient-70);}.cls-93{fill:url(#radial-gradient-71);}.cls-94{fill:url(#radial-gradient-72);}.cls-95{fill:url(#radial-gradient-73);}.cls-96{fill:#2b2824;}.cls-97{fill:url(#radial-gradient-74);}.cls-102,.cls-103,.cls-98{fill:#231f20;}.cls-100,.cls-104{stroke-width:2.7px;}.cls-102,.cls-104,.cls-105{stroke:#231f20;}.cls-106{fill:url(#radial-gradient-75);}.cls-107{fill:url(#linear-gradient-8);}.cls-108,.cls-109{opacity:0.43;}.cls-108{fill:url(#New_Pattern);}.cls-109{fill:#020202;}</style><radialGradient id="radial-gradient" cx="9228.16" cy="11883.37" r="41.89" gradientTransform="matrix(4.37, 0, 0, -4.49, -39977.77, 53686.77)" gradientUnits="userSpaceOnUse"><stop offset="0.03" stop-color="#fff"/><stop offset="0.04" stop-color="#fff" stop-opacity="0.96"/><stop offset="0.08" stop-color="#fff" stop-opacity="0.78"/><stop offset="0.12" stop-color="#fff" stop-opacity="0.61"/><stop offset="0.17" stop-color="#fff" stop-opacity="0.47"/><stop offset="0.22" stop-color="#fff" stop-opacity="0.34"/><stop offset="0.28" stop-color="#fff" stop-opacity="0.23"/><stop offset="0.34" stop-color="#fff" stop-opacity="0.15"/><stop offset="0.42" stop-color="#fff" stop-opacity="0.08"/><stop offset="0.51" stop-color="#fff" stop-opacity="0.03"/><stop offset="0.64" stop-color="#fff" stop-opacity="0.01"/><stop offset="1" stop-color="#fff" stop-opacity="0"/></radialGradient><radialGradient id="radial-gradient-2" cx="4630.35" cy="13436.24" r="56.21" gradientTransform="matrix(1.44, -0.37, -0.24, -2.27, -3083.72, 32562.56)" gradientUnits="userSpaceOnUse"><stop offset="0" stop-color="#fff"/><stop offset="0.07" stop-color="#fffef4" stop-opacity="0.96"/><stop offset="0.19" stop-color="#fefbd8" stop-opacity="0.87"/><stop offset="0.36" stop-color="#fcf7a9" stop-opacity="0.71"/><stop offset="0.56" stop-color="#fbf16a" stop-opacity="0.5"/><stop offset="0.73" stop-color="#f9ec31" stop-opacity="0.31"/></radialGradient><radialGradient id="radial-gradient-3" cx="4045.72" cy="13109.79" r="71.86" gradientTransform="matrix(1.46, 0, 0, -2.3, -5544.72, 30467.51)" gradientUnits="userSpaceOnUse"><stop offset="0" stop-color="#fff"/><stop offset="0.48" stop-color="#fff" stop-opacity="0.31"/></radialGradient><linearGradient id="linear-gradient" x1="-79.6" y1="17234.48" x2="85.7" y2="17234.48" gradientTransform="matrix(1, 0, 0, -1, 313.43, 17601.5)" gradientUnits="userSpaceOnUse"><stop offset="0.56" stop-color="#fff"/><stop offset="1" stop-color="#fff" stop-opacity="0.31"/></linearGradient><radialGradient id="radial-gradient-4" cx="533.78" cy="15202.96" r="260.93" gradientTransform="matrix(1.08, 0, 0, -1.29, -288.02, 19937.89)" gradientUnits="userSpaceOnUse"><stop offset="0.13" stop-color="#fff"/><stop offset="0.19" stop-color="#fff" stop-opacity="0.82"/><stop offset="0.27" stop-color="#fff" stop-opacity="0.63"/><stop offset="0.36" stop-color="#fff" stop-opacity="0.46"/><stop offset="0.44" stop-color="#fff" stop-opacity="0.32"/><stop offset="0.53" stop-color="#fff" stop-opacity="0.2"/><stop offset="0.63" stop-color="#fff" stop-opacity="0.11"/><stop offset="0.73" stop-color="#fff" stop-opacity="0.05"/><stop offset="0.85" stop-color="#fff" stop-opacity="0.01"/><stop offset="1" stop-color="#fff" stop-opacity="0"/></radialGradient><linearGradient id="linear-gradient-2" x1="-239.74" y1="17497.35" x2="-74.95" y2="17497.35" gradientTransform="matrix(1, 0, 0, -1, 313.43, 17668.12)" gradientUnits="userSpaceOnUse"><stop offset="0" stop-color="#fff23a"/><stop offset="0.2" stop-color="#fee62e"/><stop offset="0.2" stop-color="#fde52d"/><stop offset="0.31" stop-color="#f4d41a"/><stop offset="0.43" stop-color="#eec90f"/><stop offset="0.55" stop-color="#ecc60b"/><stop offset="0.81" stop-color="#b3882c"/></linearGradient><linearGradient id="linear-gradient-3" x1="22334.95" y1="12926.72" x2="22452.8" y2="12926.72" gradientTransform="matrix(-0.64, -0.32, 0.31, -0.61, 10346.59, 15082.71)" gradientUnits="userSpaceOnUse"><stop offset="0.06" stop-color="#8a5d3b"/><stop offset="0.11" stop-color="#8f6339"/><stop offset="0.18" stop-color="#9c7432"/><stop offset="0.26" stop-color="#b29027"/><stop offset="0.35" stop-color="#d1b717"/><stop offset="0.44" stop-color="#f8e804"/><stop offset="0.45" stop-color="#fff100"/><stop offset="0.57" stop-color="#fdee01"/><stop offset="0.66" stop-color="#f5e503"/><stop offset="0.73" stop-color="#e8d507"/><stop offset="0.8" stop-color="#d5bf0c"/><stop offset="0.87" stop-color="#bda213"/><stop offset="0.93" stop-color="#9f7e1c"/><stop offset="0.99" stop-color="#7d5526"/><stop offset="1" stop-color="#754c28"/></linearGradient><linearGradient id="linear-gradient-4" x1="-5918.98" y1="21009.09" x2="-5804.38" y2="21009.09" gradientTransform="matrix(0.67, 0.03, 0.03, -0.65, 3579.93, 13877.99)" gradientUnits="userSpaceOnUse"><stop offset="0.03" stop-color="#8a5d3b"/><stop offset="0.15" stop-color="#9f7830"/><stop offset="0.39" stop-color="#d4bb16"/><stop offset="0.57" stop-color="#fff100"/><stop offset="0.65" stop-color="#fcee01"/><stop offset="0.72" stop-color="#f3e303"/><stop offset="0.78" stop-color="#e4d108"/><stop offset="0.84" stop-color="#cfb80e"/><stop offset="0.9" stop-color="#b49716"/><stop offset="0.96" stop-color="#936f1f"/><stop offset="1" stop-color="#754c28"/></linearGradient><linearGradient id="linear-gradient-5" x1="-311.13" y1="17385.93" x2="-147.41" y2="17385.93" gradientTransform="matrix(1, 0, 0, -1, 313.43, 17524.9)" gradientUnits="userSpaceOnUse"><stop offset="0.31" stop-color="#9e6500"/><stop offset="0.4" stop-color="#ac7c03"/><stop offset="0.58" stop-color="#d1b60a"/><stop offset="0.79" stop-color="#ffff13"/></linearGradient><linearGradient id="linear-gradient-6" x1="18787.84" y1="12601.26" x2="18867.69" y2="12601.26" gradientTransform="matrix(-0.01, -1, -3.48, 0.05, 44125.62, 18291.19)" gradientUnits="userSpaceOnUse"><stop offset="0.18" stop-color="#8a5d3b" stop-opacity="0"/><stop offset="0.21" stop-color="#805737" stop-opacity="0.02"/><stop offset="1" stop-opacity="0.3"/></linearGradient><linearGradient id="linear-gradient-7" x1="-294.92" y1="17485.74" x2="-163.62" y2="17485.74" gradientTransform="matrix(1, 0, 0, -1, 313.43, 17524.9)" gradientUnits="userSpaceOnUse"><stop offset="0.18" stop-color="#8a5d3b"/><stop offset="0.2" stop-color="#936836"/><stop offset="0.28" stop-color="#b49226"/><stop offset="0.37" stop-color="#cfb418"/><stop offset="0.45" stop-color="#e4cf0e"/><stop offset="0.54" stop-color="#f3e206"/><stop offset="0.63" stop-color="#fced01"/><stop offset="0.72" stop-color="#fff100"/><stop offset="1" stop-color="#754c28"/></linearGradient><radialGradient id="radial-gradient-5" cx="-18918.8" cy="16271" r="56.42" gradientTransform="matrix(0.38, 0.12, 0.07, -0.63, 6202.15, 12757.98)" xlink:href="#radial-gradient-3"/><radialGradient id="radial-gradient-6" cx="-1772.28" cy="23200.68" r="77.18" gradientTransform="matrix(0.73, -0.1, -0.12, -0.63, 4218, 14672.07)" gradientUnits="userSpaceOnUse"><stop offset="0" stop-color="#fff"/><stop offset="0.48" stop-color="#f9ec31" stop-opacity="0.31"/></radialGradient><radialGradient id="radial-gradient-7" cx="-11428.83" cy="20917.79" r="56.42" gradientTransform="matrix(0.49, 0, 0, -0.69, 5637.89, 14563.49)" xlink:href="#radial-gradient-3"/><radialGradient id="radial-gradient-8" cx="-9145.45" cy="23571.89" r="77.18" gradientTransform="matrix(0.49, -0.11, -0.08, -0.68, 6405.75, 15155.42)" xlink:href="#radial-gradient-6"/><radialGradient id="radial-gradient-9" cx="-11430.39" cy="20921.49" r="32.42" gradientTransform="matrix(0.49, 0, 0, -0.69, 5637.9, 14563.48)" gradientUnits="userSpaceOnUse"><stop offset="0.29" stop-color="#fff"/><stop offset="1" stop-color="#fff" stop-opacity="0.31"/></radialGradient><radialGradient id="radial-gradient-10" cx="-8088.56" cy="21956.72" r="56.42" gradientTransform="matrix(0.56, 0, 0, -0.64, 4668.41, 14103.24)" xlink:href="#radial-gradient-3"/><radialGradient id="radial-gradient-11" cx="-5758.87" cy="24049.84" r="77.18" gradientTransform="matrix(0.56, -0.1, -0.09, -0.63, 5532.99, 14630.89)" xlink:href="#radial-gradient-6"/><radialGradient id="radial-gradient-12" cx="-8090.11" cy="21960.42" r="32.42" gradientTransform="matrix(0.56, 0, 0, -0.64, 4668.41, 14103.23)" xlink:href="#radial-gradient-9"/><radialGradient id="radial-gradient-13" cx="-127892.37" cy="77726.4" r="56.42" gradientTransform="matrix(0.08, 0, 0, -0.12, 10432.7, 10485.49)" xlink:href="#radial-gradient-3"/><radialGradient id="radial-gradient-14" cx="-116488.78" cy="106814.71" r="77.18" gradientTransform="matrix(0.08, -0.02, -0.01, -0.11, 10541.29, 10512.37)" xlink:href="#radial-gradient-6"/><radialGradient id="radial-gradient-15" cx="-127893.93" cy="77730.11" r="32.42" gradientTransform="matrix(0.08, 0, 0, -0.12, 10432.7, 10485.49)" xlink:href="#radial-gradient-9"/><radialGradient id="radial-gradient-16" cx="-18697.01" cy="7412.61" r="56.42" gradientTransform="matrix(1, 0, 0, -1, 313.43, 19620.47)" xlink:href="#radial-gradient-3"/><radialGradient id="radial-gradient-17" cx="-20583.39" cy="10127.56" r="77.18" gradientTransform="matrix(1, 0, 0, -1, 313.43, 19620.47)" xlink:href="#radial-gradient-6"/><radialGradient id="radial-gradient-18" cx="-127332.53" cy="77313.96" r="32.42" gradientTransform="matrix(0.08, 0, 0, -0.12, 10432.7, 10485.49)" xlink:href="#radial-gradient-9"/><radialGradient id="radial-gradient-19" cx="-19056.28" cy="7172.08" r="56.42" gradientTransform="matrix(1, 0, 0, -1, 313.43, 19620.47)" xlink:href="#radial-gradient-3"/><radialGradient id="radial-gradient-20" cx="-20977.09" cy="9948.87" r="77.18" gradientTransform="matrix(1, 0, 0, -1, 313.43, 19620.47)" xlink:href="#radial-gradient-6"/><radialGradient id="radial-gradient-21" cx="-127691.81" cy="77073.43" r="32.42" gradientTransform="matrix(0.08, 0, 0, -0.12, 10432.7, 10485.49)" xlink:href="#radial-gradient-9"/><radialGradient id="radial-gradient-22" cx="-19676.89" cy="6756.83" r="56.42" gradientTransform="matrix(1, 0, 0, -1, 313.43, 19620.47)" xlink:href="#radial-gradient-3"/><radialGradient id="radial-gradient-23" cx="-21657.14" cy="9640.43" r="77.18" gradientTransform="matrix(1, 0, 0, -1, 313.43, 19620.47)" xlink:href="#radial-gradient-6"/><radialGradient id="radial-gradient-24" cx="-128312.42" cy="76658.18" r="32.42" gradientTransform="matrix(0.08, 0, 0, -0.12, 10432.7, 10485.49)" xlink:href="#radial-gradient-9"/><radialGradient id="radial-gradient-25" cx="-19690.9" cy="8254.34" r="56.42" gradientTransform="matrix(1, 0, 0, -1, 313.43, 19620.47)" xlink:href="#radial-gradient-3"/><radialGradient id="radial-gradient-26" cx="-21426.63" cy="11120.17" r="77.18" gradientTransform="matrix(1, 0, 0, -1, 313.43, 19620.47)" xlink:href="#radial-gradient-6"/><radialGradient id="radial-gradient-27" cx="-128326.43" cy="78155.69" r="32.42" gradientTransform="matrix(0.08, 0, 0, -0.12, 10432.7, 10485.49)" xlink:href="#radial-gradient-9"/><radialGradient id="radial-gradient-28" cx="-18126.17" cy="7237.83" r="56.42" gradientTransform="matrix(1, 0, 0, -1, 313.43, 19620.47)" xlink:href="#radial-gradient-3"/><radialGradient id="radial-gradient-29" cx="-20048.72" cy="9861.98" r="77.18" gradientTransform="matrix(1, 0, 0, -1, 313.43, 19620.47)" xlink:href="#radial-gradient-6"/><radialGradient id="radial-gradient-30" cx="-126761.7" cy="77139.17" r="32.42" gradientTransform="matrix(0.08, 0, 0, -0.12, 10432.7, 10485.49)" xlink:href="#radial-gradient-9"/><radialGradient id="radial-gradient-31" cx="-19451.19" cy="10994.58" r="56.42" gradientTransform="matrix(1, 0, 0, -1, 313.43, 19620.47)" xlink:href="#radial-gradient-3"/><radialGradient id="radial-gradient-32" cx="-20743.05" cy="13784.58" r="77.18" gradientTransform="matrix(1, 0, 0, -1, 313.43, 19620.47)" xlink:href="#radial-gradient-6"/><radialGradient id="radial-gradient-33" cx="-128086.72" cy="80895.93" r="32.42" gradientTransform="matrix(0.08, 0, 0, -0.12, 10432.7, 10485.49)" xlink:href="#radial-gradient-9"/><radialGradient id="radial-gradient-34" cx="-19676.89" cy="9784.05" r="56.42" gradientTransform="matrix(1, 0, 0, -1, 313.43, 19620.47)" xlink:href="#radial-gradient-3"/><radialGradient id="radial-gradient-35" cx="-21163.23" cy="12627.09" r="77.18" gradientTransform="matrix(1, 0, 0, -1, 313.43, 19620.47)" xlink:href="#radial-gradient-6"/><radialGradient id="radial-gradient-36" cx="-128312.42" cy="79685.39" r="32.42" gradientTransform="matrix(0.08, 0, 0, -0.12, 10432.7, 10485.49)" xlink:href="#radial-gradient-9"/><radialGradient id="radial-gradient-37" cx="-20322.38" cy="7816.3" r="56.42" gradientTransform="matrix(1, 0, 0, -1, 313.43, 19620.47)" xlink:href="#radial-gradient-3"/><radialGradient id="radial-gradient-38" cx="-22121.12" cy="10791.03" r="77.18" gradientTransform="matrix(1, 0, 0, -1, 313.43, 19620.47)" xlink:href="#radial-gradient-6"/><radialGradient id="radial-gradient-39" cx="-128957.9" cy="77717.65" r="32.42" gradientTransform="matrix(0.08, 0, 0, -0.12, 10432.7, 10485.49)" xlink:href="#radial-gradient-9"/><radialGradient id="radial-gradient-40" cx="-17883.77" cy="9348.16" r="56.42" gradientTransform="matrix(1, 0, 0, -1, 313.43, 19620.47)" xlink:href="#radial-gradient-3"/><radialGradient id="radial-gradient-41" cx="-19465.26" cy="11904.48" r="77.18" gradientTransform="matrix(1, 0, 0, -1, 313.43, 19620.47)" xlink:href="#radial-gradient-6"/><radialGradient id="radial-gradient-42" cx="-126519.3" cy="79249.51" r="32.42" gradientTransform="matrix(0.08, 0, 0, -0.12, 10432.7, 10485.49)" xlink:href="#radial-gradient-9"/><radialGradient id="radial-gradient-43" cx="-20549.93" cy="10876.61" r="56.42" gradientTransform="matrix(1, 0, 0, -1, 313.43, 19620.47)" xlink:href="#radial-gradient-3"/><radialGradient id="radial-gradient-44" cx="-21846.31" cy="13847.45" r="77.18" gradientTransform="matrix(1, 0, 0, -1, 313.43, 19620.47)" xlink:href="#radial-gradient-6"/><radialGradient id="radial-gradient-45" cx="-129185.45" cy="80777.96" r="32.42" gradientTransform="matrix(0.08, 0, 0, -0.12, 10432.7, 10485.49)" xlink:href="#radial-gradient-9"/><radialGradient id="radial-gradient-46" cx="-18096.42" cy="7816.3" r="56.42" gradientTransform="matrix(1, 0, 0, -1, 313.43, 19620.47)" xlink:href="#radial-gradient-3"/><radialGradient id="radial-gradient-47" cx="-19924.98" cy="10427.85" r="77.18" gradientTransform="matrix(1, 0, 0, -1, 313.43, 19620.47)" xlink:href="#radial-gradient-6"/><radialGradient id="radial-gradient-48" cx="-126731.94" cy="77717.65" r="32.42" gradientTransform="matrix(0.08, 0, 0, -0.12, 10432.7, 10485.49)" xlink:href="#radial-gradient-9"/><radialGradient id="radial-gradient-49" cx="-19212.1" cy="12205.29" r="56.42" gradientTransform="matrix(1, 0, 0, -1, 313.43, 19620.47)" xlink:href="#radial-gradient-3"/><radialGradient id="radial-gradient-50" cx="-20309.63" cy="14940.05" r="77.18" gradientTransform="matrix(1, 0, 0, -1, 313.43, 19620.47)" xlink:href="#radial-gradient-6"/><radialGradient id="radial-gradient-51" cx="-127847.63" cy="82106.64" r="32.42" gradientTransform="matrix(0.08, 0, 0, -0.12, 10432.7, 10485.49)" xlink:href="#radial-gradient-9"/><radialGradient id="radial-gradient-52" cx="-18408.66" cy="11150.98" r="56.42" gradientTransform="matrix(1, 0, 0, -1, 313.43, 19620.47)" xlink:href="#radial-gradient-3"/><radialGradient id="radial-gradient-53" cx="-19688.97" cy="13768.79" r="77.18" gradientTransform="matrix(1, 0, 0, -1, 313.43, 19620.47)" xlink:href="#radial-gradient-6"/><radialGradient id="radial-gradient-54" cx="-127044.19" cy="81052.33" r="32.42" gradientTransform="matrix(0.08, 0, 0, -0.12, 10432.7, 10485.49)" xlink:href="#radial-gradient-9"/><radialGradient id="radial-gradient-55" cx="-20103.57" cy="11475.66" r="56.42" gradientTransform="matrix(1, 0, 0, -1, 313.43, 19620.47)" xlink:href="#radial-gradient-3"/><radialGradient id="radial-gradient-56" cx="-21308.2" cy="14365.65" r="77.18" gradientTransform="matrix(1, 0, 0, -1, 313.43, 19620.47)" xlink:href="#radial-gradient-6"/><radialGradient id="radial-gradient-57" cx="-128739.1" cy="81377" r="32.42" gradientTransform="matrix(0.08, 0, 0, -0.12, 10432.7, 10485.49)" xlink:href="#radial-gradient-9"/><radialGradient id="radial-gradient-58" cx="-18188.37" cy="10117.21" r="56.42" gradientTransform="matrix(1, 0, 0, -1, 313.43, 19620.47)" xlink:href="#radial-gradient-3"/><radialGradient id="radial-gradient-59" cx="-19640.3" cy="12712.92" r="77.18" gradientTransform="matrix(1, 0, 0, -1, 313.43, 19620.47)" xlink:href="#radial-gradient-6"/><radialGradient id="radial-gradient-60" cx="-126823.9" cy="80018.55" r="32.42" gradientTransform="matrix(0.08, 0, 0, -0.12, 10432.7, 10485.49)" xlink:href="#radial-gradient-9"/><radialGradient id="radial-gradient-61" cx="-19801.23" cy="10254.75" r="56.42" gradientTransform="matrix(1, 0, 0, -1, 313.43, 19620.47)" xlink:href="#radial-gradient-3"/><radialGradient id="radial-gradient-62" cx="-21209.1" cy="13111.77" r="77.18" gradientTransform="matrix(1, 0, 0, -1, 313.43, 19620.47)" xlink:href="#radial-gradient-6"/><radialGradient id="radial-gradient-63" cx="-128436.75" cy="80156.09" r="32.42" gradientTransform="matrix(0.08, 0, 0, -0.12, 10432.7, 10485.49)" xlink:href="#radial-gradient-9"/><radialGradient id="radial-gradient-64" cx="-20472.02" cy="9828.93" r="56.42" gradientTransform="matrix(1, 0, 0, -1, 313.43, 19620.47)" xlink:href="#radial-gradient-3"/><radialGradient id="radial-gradient-65" cx="-21940.38" cy="12801.09" r="77.18" gradientTransform="matrix(1, 0, 0, -1, 313.43, 19620.47)" xlink:href="#radial-gradient-6"/><radialGradient id="radial-gradient-66" cx="-129107.54" cy="79730.27" r="32.42" gradientTransform="matrix(0.08, 0, 0, -0.12, 10432.7, 10485.49)" xlink:href="#radial-gradient-9"/><radialGradient id="radial-gradient-67" cx="-18547.26" cy="9426.36" r="56.42" gradientTransform="matrix(1, 0, 0, -1, 313.43, 19620.47)" xlink:href="#radial-gradient-3"/><radialGradient id="radial-gradient-68" cx="-20107.09" cy="12089.89" r="77.18" gradientTransform="matrix(1, 0, 0, -1, 313.43, 19620.47)" xlink:href="#radial-gradient-6"/><radialGradient id="radial-gradient-69" cx="-127182.78" cy="79327.71" r="32.42" gradientTransform="matrix(0.08, 0, 0, -0.12, 10432.7, 10485.49)" xlink:href="#radial-gradient-9"/><radialGradient id="radial-gradient-70" cx="-19934.59" cy="8894.67" r="56.42" gradientTransform="matrix(1, 0, 0, -1, 313.43, 19620.47)" xlink:href="#radial-gradient-3"/><radialGradient id="radial-gradient-71" cx="-21562.59" cy="11791.67" r="77.18" gradientTransform="matrix(1, 0, 0, -1, 313.43, 19620.47)" xlink:href="#radial-gradient-6"/><radialGradient id="radial-gradient-72" cx="-128570.12" cy="78796.01" r="32.42" gradientTransform="matrix(0.08, 0, 0, -0.12, 10432.7, 10485.49)" xlink:href="#radial-gradient-9"/><radialGradient id="radial-gradient-73" cx="9213.67" cy="12336.71" r="43.51" gradientTransform="matrix(4.68, 0, 0, -3.48, -42981.99, 43109.68)" xlink:href="#radial-gradient"/><radialGradient id="radial-gradient-74" cx="-4316.27" cy="9635.07" fx="-4404.883109486919" fy="9541.600945282482" r="128.8" gradientTransform="matrix(0.78, 0.56, 0.71, -0.83, -3289.8, 10583.73)" gradientUnits="userSpaceOnUse"><stop offset="0.01" stop-color="#d4eeff"/><stop offset="0.26" stop-color="#abb3ad" stop-opacity="0.68"/><stop offset="0.81" stop-color="#553600" stop-opacity="0"/></radialGradient><radialGradient id="radial-gradient-75" cx="-7619.21" cy="10008.08" fx="-7611.771188013414" fy="10136.667177107483" r="128.8" gradientTransform="matrix(0.66, 0.44, 0.6, -0.65, -798.17, 10092.83)" gradientUnits="userSpaceOnUse"><stop offset="0.01" stop-color="#000b2a"/><stop offset="0.04" stop-color="#e9ca00" stop-opacity="0.96"/><stop offset="0.21" stop-color="#c8a900" stop-opacity="0.75"/><stop offset="0.81" stop-color="#553600" stop-opacity="0"/></radialGradient><linearGradient id="linear-gradient-8" y1="1304" x2="3567.63" y2="1304" gradientTransform="matrix(1, 0, 0, -1, 0, 2304)" gradientUnits="userSpaceOnUse"><stop offset="0" stop-color="#1b2f33"/><stop offset="0.44" stop-color="#00002a"/><stop offset="0.7"/><stop offset="1" stop-color="#231f20"/></linearGradient><pattern id="New_Pattern" data-name="New Pattern" width="737.98" height="585.01" patternTransform="matrix(1.04, 0, 0, -0.87, -454.97, 657.43)" patternUnits="userSpaceOnUse" viewBox="0 0 737.98 585.01"><rect class="cls-1" width="737.98" height="585.01"/><rect class="cls-1" width="737.98" height="585.01"/><g class="cls-2"><path class="cls-3" d="M376.1,301.72a203.94,203.94,0,0,0-70.5-60.78c-28.06-14.85-59.9-23-92.24-24.19-4-.14-8.09-.09-12.15-.08l-6.08.29c-2,.11-4.06.14-6.08.38l-6.08.58c-1,.1-2,.18-3,.3l-3,.44-6,.88c-1,.13-2,.32-3,.52l-3,.58a220.84,220.84,0,0,0-47,14.66,216.4,216.4,0,0,0-42.66,25c-3.28,2.53-6.62,4.91-9.81,7.72-1.6,1.38-3.24,2.7-4.8,4.13l-4.63,4.33c-1.57,1.42-3,3-4.48,4.49s-3,3-4.37,4.62c-2.76,3.21-5.59,6.37-8.14,9.78a185.23,185.23,0,0,0-25.54,44.1c-1.53,4-3.13,8-4.38,12s-2.45,8.19-3.58,12.32c-.52,2.08-1,4.18-1.43,6.27l-.69,3.13-.55,3.17c-.36,2.11-.76,4.22-1.06,6.34l-.78,6.39A187.32,187.32,0,0,0,18.24,489.82c2,3.86,3.82,7.78,6,11.5l1.61,2.83c.53.94,1.07,1.88,1.67,2.78L31,512.41l.88,1.36.93,1.33,1.89,2.64,1.89,2.64,1,1.32,1,1.28,4,5.08,1,1.27,1.1,1.26L47,533.1A155.44,155.44,0,0,0,242.88,563a163.59,163.59,0,0,0,21.76-15.68A128.76,128.76,0,0,0,306.5,422.15a127.39,127.39,0,0,0-22.91-49.63c-1.34-1.86-2.82-3.6-4.28-5.35s-3.07-3.5-4.66-5.24a101.44,101.44,0,0,0-10.5-9.59,104.44,104.44,0,0,0-130.33-.44c-.9.71-1.77,1.48-2.65,2.22s-1.76,1.46-2.64,2.31-1.76,1.63-2.61,2.47l-2.5,2.59a85.23,85.23,0,0,0-22.23,65.64,83.36,83.36,0,0,0,7.27,27,85.34,85.34,0,0,0,6.91,12.12c1.29,1.93,2.72,3.75,4.15,5.57l2.25,2.62.56.66.64.64,1.26,1.28a67.74,67.74,0,0,0,51.35,20.43,65.46,65.46,0,0,0,26.79-7l3-1.63c.5-.29,1-.54,1.51-.85l1.43-1a53.35,53.35,0,0,0,5.57-4,51.19,51.19,0,0,0,5.15-4.61c.82-.85,1.68-1.66,2.44-2.55l2.22-2.76c.36-.47.75-.91,1.07-1.4l1-1.47c.63-1,1.29-2,1.89-3l1.61-3.12c.26-.53.55-1,.78-1.57l.65-1.63a51.79,51.79,0,0,0,3.54-13.4,54.34,54.34,0,0,0,.37-6.87c0-1.14,0-2.29-.11-3.42l-.37-3.4a31.91,31.91,0,0,0-.59-3.36l-.35-1.67L233,428l-.24-.81-1-3.24-.26-.81-.32-.78-.66-1.56A48,48,0,0,0,214,400a40.56,40.56,0,0,0-12.16-5.67,39.37,39.37,0,0,0-36.57,8.07,31.19,31.19,0,0,0-7.77,10,30,30,0,0,0-3.07,12,29.65,29.65,0,0,0,1.92,11.87,28.27,28.27,0,0,0,6.38,9.78A27.52,27.52,0,0,1,158,424.71a26.41,26.41,0,0,1,4-9.79,25.48,25.48,0,0,1,7.4-7.19,31,31,0,0,1,19.38-5.17,30.36,30.36,0,0,1,17.71,7.3,35.66,35.66,0,0,1,10,16.18l.35,1.14.18.57.11.59.45,2.34.12.58v.59l.11,1.18a18.59,18.59,0,0,1,.16,2.36v2.35c0,.79-.14,1.57-.19,2.34a35.84,35.84,0,0,1-.75,4.6c-.16.76-.43,1.49-.64,2.23a14,14,0,0,1-.74,2.18l-.84,2.13c-.32.69-.71,1.35-1,2l-.52,1c-.17.34-.41.64-.61,1l-1.22,1.9c-.45.6-1,1.17-1.41,1.76l-.69.88c-.23.3-.52.54-.78.82l-1.56,1.6a20.7,20.7,0,0,1-1.71,1.44,34.18,34.18,0,0,1-3.73,2.72,32.72,32.72,0,0,1-4,2.35l-1,.56c-.34.18-.71.3-1.07.46l-2.13.89a43,43,0,0,1-35.12-1.48,42.53,42.53,0,0,1-13.62-10.75l-.71-.82-.36-.41-.34-.47-1.37-1.86c-.84-1.28-1.71-2.55-2.45-3.89a55.29,55.29,0,0,1-3.9-8.23A56.31,56.31,0,0,1,132,425a54.26,54.26,0,0,1,2.46-17.58,52,52,0,0,1,8-15.52,56.18,56.18,0,0,1,5.74-6.5l1.59-1.47c.54-.48,1.11-.93,1.66-1.4s1.18-.93,1.79-1.39,1.22-.94,1.85-1.38a68.2,68.2,0,0,1,68.72-6.08,67.23,67.23,0,0,1,21.09,15.86c1,1.14,1.93,2.18,2.88,3.47s1.95,2.45,2.81,3.76a88,88,0,0,1,14.5,33.94,89.2,89.2,0,0,1-.8,36.74,86.91,86.91,0,0,1-28.39,46.22,119.26,119.26,0,0,1-15.74,11.13,111.08,111.08,0,0,1-35.79,13.59,112.53,112.53,0,0,1-38.35.9A115,115,0,0,1,127.24,535a117.17,117.17,0,0,1-17.73-7.52,115.15,115.15,0,0,1-16.26-10.38A123.63,123.63,0,0,1,79,504l-1.64-1.79-.82-.89-.8-1-3.24-3.82-.81-1-.75-1-1.5-2-1.51-2-.75-1-.7-1-2.8-4.18c-.49-.69-.92-1.41-1.35-2.13L61,480c-1.81-2.83-3.31-5.84-4.92-8.79-.78-1.49-1.45-3-2.19-4.54l-1.08-2.28c-.36-.76-.65-1.55-1-2.32l-1.94-4.66-1.7-4.76c-.28-.79-.6-1.57-.85-2.38l-.74-2.41c-.47-1.62-1-3.21-1.45-4.85-.83-3.27-1.73-6.52-2.32-9.85-.76-3.3-1.17-6.66-1.72-10-.21-1.68-.36-3.36-.55-5l-.28-2.53L40.17,413a147,147,0,0,1,0-20.35,151.12,151.12,0,0,1,26.93-76.5c1.91-2.87,4.1-5.54,6.2-8.28,1.06-1.37,2.24-2.64,3.34-4A51,51,0,0,1,80.07,300l3.57-3.79c1.2-1.26,2.49-2.42,3.74-3.63,2.42-2.46,5.23-4.72,7.89-7.06l2-1.75,2.1-1.64,4.21-3.29c1.38-1.13,2.85-2.13,4.31-3.15l4.38-3.08c1.44-1.05,3-1.92,4.49-2.9l4.52-2.88c3.1-1.77,6.19-3.57,9.33-5.28a202,202,0,0,1,40-15.89,199.4,199.4,0,0,1,42.91-7.15,208.9,208.9,0,0,1,43.92,2.18,204.93,204.93,0,0,1,43,11.47A219.37,219.37,0,0,1,376.1,301.72Z"/></g><g class="cls-2"><path class="cls-3" d="M364.3,288a203.91,203.91,0,0,0,71.83,59.22c28.38,14.22,60.39,21.67,92.75,22.15,4,0,8.09-.09,12.15-.2l6.07-.42c2-.16,4.06-.23,6.07-.51l6.06-.72c1-.12,2-.23,3-.37l3-.5,6-1c1-.16,2-.37,3-.59l3-.65a220.09,220.09,0,0,0,46.52-15.69,216.9,216.9,0,0,0,42.1-25.89c3.22-2.61,6.51-5.07,9.63-8,1.57-1.41,3.19-2.76,4.71-4.22l4.53-4.44c1.54-1.45,3-3,4.39-4.58s2.91-3.08,4.26-4.72c2.69-3.27,5.45-6.5,7.92-10a185.43,185.43,0,0,0,24.56-44.65c1.45-4,3-8,4.11-12.14,1.31-4.08,2.27-8.25,3.31-12.41.48-2.08.86-4.19,1.29-6.29l.62-3.15.48-3.18c.31-2.12.67-4.23.93-6.36l.64-6.41A187.36,187.36,0,0,0,717.92,92c-2-3.82-4-7.69-6.29-11.37L710,77.85c-.55-.93-1.11-1.86-1.73-2.75l-3.62-5.39-.91-1.35-1-1.3-1.94-2.6-1.95-2.6-1-1.3-1-1.25-4.15-5-1-1.24-1.13-1.23-2.26-2.46a155.81,155.81,0,0,0-19.82-18,159.12,159.12,0,0,0-22.72-14.25,155.84,155.84,0,0,0-154,6.63A162.07,162.07,0,0,0,470.32,40a128.76,128.76,0,0,0-39.09,126,127.37,127.37,0,0,0,24,49.11c1.38,1.83,2.9,3.54,4.39,5.26s3.15,3.43,4.78,5.13a103.57,103.57,0,0,0,10.71,9.36,104.92,104.92,0,0,0,80,20.32,103.81,103.81,0,0,0,50.3-22.76c.89-.74,1.74-1.52,2.61-2.28s1.72-1.5,2.58-2.37,1.73-1.66,2.56-2.53l2.44-2.64a87.94,87.94,0,0,0,8.58-11.55,85.2,85.2,0,0,0,12.2-54.57,83.34,83.34,0,0,0-7.87-26.87,85.17,85.17,0,0,0-7.18-12c-1.33-1.9-2.8-3.69-4.26-5.48l-2.31-2.57-.58-.64-.65-.63-1.29-1.25a67.64,67.64,0,0,0-51.79-19.29,65.43,65.43,0,0,0-26.63,7.55l-3,1.71c-.49.29-1,.55-1.48.87l-1.42,1a67.18,67.18,0,0,0-10.52,8.87c-.8.87-1.64,1.7-2.38,2.61l-2.16,2.8a14.14,14.14,0,0,0-1,1.42l-.94,1.5c-.61,1-1.24,2-1.82,3l-1.54,3.16c-.25.53-.53,1-.74,1.58l-.62,1.64A51.75,51.75,0,0,0,502.91,139a52.67,52.67,0,0,0-.22,6.88,29.9,29.9,0,0,0,.19,3.42l.44,3.4A28.83,28.83,0,0,0,504,156l.38,1.66.2.82.26.81,1.08,3.22.27.8.34.78.69,1.54a48,48,0,0,0,17,20.47,40.69,40.69,0,0,0,12.29,5.4,39.4,39.4,0,0,0,36.38-8.87,31.26,31.26,0,0,0,7.55-10.14,29.88,29.88,0,0,0,.62-23.86,28.53,28.53,0,0,0-6.6-9.64,27.57,27.57,0,0,1,5.25,21.15A26.55,26.55,0,0,1,575.9,170a25.2,25.2,0,0,1-7.24,7.34A31,31,0,0,1,549.4,183a30.26,30.26,0,0,1-17.86-6.91,35.6,35.6,0,0,1-10.35-15.95L520.8,159l-.19-.57-.12-.59-.51-2.32-.12-.58-.07-.59-.13-1.18a18.5,18.5,0,0,1-.22-2.35l-.05-2.36c0-.78.11-1.56.14-2.34a39.62,39.62,0,0,1,.64-4.61c.15-.76.41-1.5.59-2.24a14,14,0,0,1,.69-2.2l.8-2.15c.31-.7.68-1.37,1-2.05l.49-1c.17-.33.4-.64.59-1l1.18-1.92c.44-.62.92-1.2,1.37-1.8l.67-.89c.22-.3.51-.55.76-.83l1.53-1.64c.52-.53,1.12-1,1.67-1.48a33.34,33.34,0,0,1,3.68-2.8,31.42,31.42,0,0,1,4-2.44l1-.58c.34-.19.71-.32,1.06-.48l2.12-.94a42.88,42.88,0,0,1,49,11.15l.72.81.37.39.35.46,1.41,1.84c.88,1.26,1.77,2.51,2.54,3.83a53.78,53.78,0,0,1,7.86,25.7,54.34,54.34,0,0,1-2.07,17.62,52.31,52.31,0,0,1-7.62,15.7,58.09,58.09,0,0,1-5.6,6.63l-1.56,1.5c-.53.49-1.09,1-1.63,1.43s-1.15,1-1.75,1.43-1.2,1-1.82,1.43A68.24,68.24,0,0,1,515,212.6a67.33,67.33,0,0,1-21.44-15.39c-1-1.12-2-2.13-3-3.41s-2-2.41-2.89-3.69a87.83,87.83,0,0,1-15.24-33.61,89.23,89.23,0,0,1,0-36.75A86.78,86.78,0,0,1,499.78,73a118.14,118.14,0,0,1,15.49-11.47,111,111,0,0,1,35.48-14.38,112.44,112.44,0,0,1,38.32-1.75,114,114,0,0,1,53.3,21,122.35,122.35,0,0,1,14.56,12.73l1.68,1.76.84.87.83,1,3.3,3.81.82,1,.78,1,1.54,2,1.56,2,.77,1,.72,1,2.9,4.13a18.48,18.48,0,0,1,1.39,2.09l1.35,2.13c1.87,2.79,3.43,5.77,5.11,8.68.82,1.47,1.52,3,2.29,4.49L684,118.3c.37.75.68,1.53,1,2.3l2,4.61,1.8,4.72c.3.79.64,1.56.9,2.36l.79,2.4c.52,1.6,1.11,3.19,1.57,4.81.89,3.25,1.86,6.49,2.53,9.8.83,3.28,1.32,6.63,1.94,10,.25,1.67.43,3.35.66,5l.33,2.52.21,2.53a147.09,147.09,0,0,1,.42,20.35,151.06,151.06,0,0,1-25.24,77.07c-1.84,2.92-4,5.64-6,8.42-1,1.39-2.17,2.69-3.25,4s-2.15,2.71-3.34,4L656.79,287c-1.17,1.28-2.44,2.47-3.65,3.71-2.37,2.51-5.13,4.83-7.74,7.23l-2,1.8-2.06,1.68-4.14,3.38c-1.35,1.16-2.81,2.19-4.24,3.25l-4.31,3.17c-1.42,1.09-3,2-4.43,3l-4.45,3c-3.06,1.84-6.11,3.71-9.21,5.49a202.5,202.5,0,0,1-39.66,16.77,200.46,200.46,0,0,1-42.74,8.09,210.17,210.17,0,0,1-44-1.2A205.39,205.39,0,0,1,441,335.82,219.2,219.2,0,0,1,364.3,288Z"/></g></pattern><symbol id="Spotlight" data-name="Spotlight" viewBox="0 0 251.62 1335.56"><path class="cls-33" d="M251.62,1310A322.41,322.41,0,0,1,0,1310C27.24,883.4,63.39,426.59,90.64,0H173C197.21,426.59,227.42,883.42,251.62,1310Z"/><polygon class="cls-34" points="214.86 1317.42 184.15 1326.18 136.12 7.08 143.74 7.08 214.86 1317.42"/><polygon class="cls-34" points="86.99 1326.96 124.57 1326.96 129.68 5.4 122.97 2.61 86.99 1326.96"/><polygon class="cls-34" points="13.95 1258.26 44.78 1253.47 104.43 2.61 98.38 2.61 13.95 1258.26"/><g id="sparkles"><path class="cls-35" d="M128.1,1107.42l-2-4.49-.92,5.26.14-5.22-2.84,3.5,2.49-4.27-3.93.71,3.72-1.5-3.35-2.54,3.53,1.65-1.49-4.62,2.16,4.23.76-5-.11,5,2.81-3.33-2.3,4.19,3.74-.62-3.66,1.46,3.3,2.57-3.56-2.09Z"/><path class="cls-36" d="M131,1109.8l-4.91-6.39-3.22,8.28,2.39-8.66-6.22-1.31,6.38-.06-.62-8,1.5,7.86,5.89-2.87-5.43,4Z"/><ellipse class="cls-37" cx="125.64" cy="1101.24" rx="2.74" ry="3.73"/><path class="cls-38" d="M175.47,1155.42l-2-4.49-.93,5.26.14-5.23-2.84,3.5,2.49-4.27-3.93.71,3.72-1.49-3.35-2.55,3.53,1.66-1.49-4.63,2.16,4.23.77-5-.12,5.06,2.82-3.33-2.31,4.18,3.75-.62-3.67,1.46,3.3,2.58-3.56-2.09Z"/><path class="cls-39" d="M178.39,1157.73l-4.91-6.39-3.22,8.28,2.39-8.65-6.22-1.31,6.38-.07-.62-8,1.5,7.86,5.89-2.87-5.43,3.94Z"/><ellipse class="cls-40" cx="173.01" cy="1149.17" rx="2.74" ry="3.73"/><path class="cls-41" d="M145.15,1183.07l-2-4.49-.92,5.26.14-5.22-2.84,3.5,2.48-4.27-3.92.71,3.71-1.5-3.34-2.54,3.53,1.65-1.5-4.62,2.16,4.23.77-5-.11,5,2.81-3.33-2.3,4.19,3.74-.62-3.66,1.46,3.29,2.57-3.56-2.09Z"/><path class="cls-42" d="M148.07,1185.42l-4.9-6.39-3.22,8.28,2.38-8.66-6.21-1.31,6.38-.06-.62-8,1.49,7.86,5.9-2.87-5.44,4Z"/><ellipse class="cls-43" cx="142.69" cy="1176.88" rx="2.74" ry="3.73"/><path class="cls-44" d="M92.76,1230.91l-2-4.5-.92,5.27.14-5.23-2.84,3.5,2.48-4.27-3.92.71,3.71-1.49-3.34-2.55L89.6,1224l-1.5-4.62,2.16,4.23.77-5-.11,5,2.81-3.32-2.3,4.18,3.74-.62-3.66,1.46,3.29,2.58-3.55-2.1Z"/><path class="cls-45" d="M95.7,1233.27l-4.9-6.39-3.22,8.28,2.38-8.65-6.21-1.32,6.38-.06-.62-8L91,1225l5.9-2.88-5.44,4Z"/><ellipse class="cls-46" cx="90.33" cy="1224.71" rx="2.74" ry="3.73"/><path class="cls-47" d="M91.6,1058.42l-2-4.49-.92,5.26.13-5.22-2.83,3.5,2.48-4.27-3.92.7,3.71-1.49-3.35-2.54,3.54,1.65-1.5-4.62,2.16,4.23.77-5-.11,5,2.81-3.33-2.3,4.19,3.74-.63-3.67,1.47,3.3,2.57-3.56-2.09Z"/><path class="cls-48" d="M94.52,1060.77l-4.9-6.38-3.22,8.28,2.38-8.66-6.21-1.31,6.38-.06-.62-8,1.49,7.86,5.9-2.87-5.44,4Z"/><ellipse class="cls-49" cx="89.14" cy="1052.22" rx="2.74" ry="3.73"/><path class="cls-50" d="M223.64,1175.5l-2-4.49-.93,5.26.14-5.22-2.84,3.5,2.49-4.27-3.93.7,3.72-1.49-3.35-2.54,3.53,1.65L219,1164l2.16,4.23.77-5-.12,5,2.81-3.33-2.3,4.19,3.74-.63-3.66,1.47,3.3,2.57-3.56-2.09Z"/><path class="cls-51" d="M226.56,1177.86l-4.91-6.39-3.22,8.28,2.39-8.65-6.22-1.31,6.38-.07-.62-8,1.5,7.86,5.89-2.87-5.43,3.94Z"/><ellipse class="cls-52" cx="221.18" cy="1169.31" rx="2.74" ry="3.73"/><path class="cls-53" d="M111.83,742.77l-2-4.49-.93,5.26.14-5.22-2.84,3.5,2.49-4.27-3.93.71,3.72-1.5-3.35-2.54,3.53,1.65-1.49-4.62,2.16,4.23.77-5-.12,5,2.81-3.33-2.3,4.19,3.75-.62-3.67,1.46,3.3,2.57-3.56-2.09Z"/><path class="cls-54" d="M114.76,745.14l-4.91-6.39L106.63,747l2.39-8.66-6.22-1.31,6.38-.06-.62-8,1.5,7.86L116,734l-5.43,4Z"/><ellipse class="cls-55" cx="109.37" cy="736.58" rx="2.74" ry="3.73"/><path class="cls-56" d="M92.76,882.21l-2-4.49L89.84,883l.14-5.23-2.84,3.51L89.62,877l-3.92.7,3.71-1.49-3.34-2.54,3.53,1.65-1.5-4.63,2.16,4.24.77-5-.11,5,2.81-3.33-2.3,4.19,3.74-.63-3.66,1.47,3.29,2.57-3.55-2.09Z"/><path class="cls-57" d="M95.7,884.57l-4.9-6.39-3.22,8.28L90,877.81l-6.21-1.31,6.38-.07-.62-8L91,876.29l5.9-2.87-5.44,4Z"/><ellipse class="cls-58" cx="90.33" cy="876.02" rx="2.74" ry="3.73"/><path class="cls-59" d="M38.32,1108.87l-2-4.49-.92,5.26.14-5.23-2.84,3.5,2.49-4.27-3.93.71,3.72-1.49-3.35-2.55,3.53,1.66-1.5-4.63,2.17,4.23.76-5-.11,5.06,2.81-3.33-2.3,4.18,3.74-.62-3.66,1.46,3.29,2.58-3.55-2.09Z"/><path class="cls-60" d="M41.24,1111.23l-4.91-6.39-3.22,8.28,2.38-8.65-6.21-1.31,6.38-.07-.62-8,1.49,7.86,5.9-2.87L37,1104Z"/><ellipse class="cls-61" cx="35.86" cy="1102.67" rx="2.74" ry="3.73"/><path class="cls-62" d="M244.09,932.42l-2-4.49-.92,5.26.14-5.23-2.84,3.5L241,927.2l-3.92.7,3.73-1.48-3.34-2.55,3.53,1.66-1.5-4.63,2.16,4.24.77-5-.11,5.06,2.81-3.33-2.3,4.19,3.74-.63-3.66,1.46,3.29,2.58-3.56-2.09Z"/><path class="cls-63" d="M247,934.78l-4.9-6.39-3.22,8.28,2.38-8.65-6.21-1.31,6.38-.07-.62-8,1.49,7.86,5.9-2.87-5.44,3.94Z"/><ellipse class="cls-64" cx="241.63" cy="926.23" rx="2.74" ry="3.73"/><path class="cls-65" d="M19.12,756.36l-2-4.49-.92,5.26.14-5.22-2.84,3.5L16,751.14l-3.92.7,3.71-1.49-3.34-2.54L16,749.46l-1.5-4.62,2.16,4.23.77-5-.11,5,2.81-3.33L17.79,750l3.74-.63-3.66,1.47,3.29,2.57-3.55-2.09Z"/><path class="cls-66" d="M22,758.72l-4.9-6.38-3.22,8.28L16.29,752l-6.21-1.31,6.38-.06-.62-8,1.49,7.86,5.9-2.87-5.44,4Z"/><ellipse class="cls-67" cx="16.66" cy="750.17" rx="2.74" ry="3.73"/><path class="cls-68" d="M226.15,1108.87l-2-4.49-.93,5.26.14-5.23-2.84,3.5,2.49-4.27-3.93.71,3.72-1.49-3.35-2.55L223,1102l-1.49-4.63,2.16,4.23.77-5-.12,5.06,2.82-3.33-2.31,4.18,3.75-.62-3.67,1.46,3.3,2.58-3.56-2.09Z"/><path class="cls-69" d="M229.07,1111.23l-4.91-6.39-3.22,8.28,2.39-8.65-6.22-1.31,6.38-.07-.62-8,1.5,7.86,5.89-2.87-5.43,3.94Z"/><ellipse class="cls-70" cx="223.69" cy="1102.67" rx="2.74" ry="3.73"/><path class="cls-71" d="M132,603.32l-2-4.5-.92,5.27.14-5.23-2.84,3.5,2.48-4.27-3.92.71,3.72-1.49-3.35-2.55,3.53,1.66-1.5-4.63,2.17,4.23.76-5-.11,5.06,2.81-3.33-2.3,4.18,3.74-.62-3.66,1.46,3.29,2.58-3.55-2.1Z"/><path class="cls-72" d="M134.92,605.68l-4.9-6.39-3.22,8.28,2.38-8.65L123,597.6l6.38-.06-.62-8,1.49,7.87,5.9-2.88-5.43,4Z"/><ellipse class="cls-73" cx="129.55" cy="597.12" rx="2.74" ry="3.73"/><path class="cls-74" d="M199.76,724.76l-2-4.49-.92,5.26.13-5.23-2.83,3.5,2.48-4.27-3.92.71,3.71-1.49-3.35-2.55,3.54,1.66-1.5-4.63,2.16,4.23.77-5-.11,5.06,2.81-3.33-2.3,4.18,3.74-.62-3.67,1.46,3.3,2.58-3.56-2.09Z"/><path class="cls-75" d="M202.76,727.12l-4.9-6.39L194.64,729l2.38-8.65-6.21-1.31,6.38-.07-.62-8,1.49,7.86L204,716l-5.43,3.94Z"/><ellipse class="cls-76" cx="197.34" cy="718.56" rx="2.74" ry="3.73"/><path class="cls-77" d="M56.76,687.36l-2-4.49-.93,5.26L54,682.9l-2.84,3.5,2.49-4.26-3.93.7,3.72-1.49-3.35-2.54,3.53,1.65-1.49-4.63,2.16,4.24.77-5-.12,5.06,2.81-3.33L55.42,681l3.75-.63-3.67,1.47,3.3,2.57-3.56-2.09Z"/><path class="cls-78" d="M59.7,689.72l-4.91-6.39-3.22,8.28L54,683l-6.22-1.31,6.38-.07-.62-8,1.5,7.86,5.89-2.87-5.43,3.94Z"/><ellipse class="cls-79" cx="54.32" cy="681.17" rx="2.74" ry="3.73"/><path class="cls-80" d="M218.39,843.84l-2-4.5-.93,5.27.14-5.23-2.83,3.5,2.48-4.27-3.93.71,3.72-1.49-3.35-2.55,3.53,1.65-1.49-4.62,2.16,4.23.77-5-.12,5,2.82-3.32-2.31,4.18,3.75-.62-3.67,1.46,3.3,2.58-3.56-2.1Z"/><path class="cls-81" d="M221.31,846.2l-4.91-6.39-3.22,8.28,2.39-8.65-6.21-1.32,6.37-.06-.62-8,1.5,7.86,5.89-2.87-5.43,4Z"/><ellipse class="cls-82" cx="215.93" cy="837.64" rx="2.74" ry="3.73"/><path class="cls-83" d="M82.29,828l-2-4.49-.92,5.26.13-5.22L76.67,827l2.48-4.27-3.92.7L78.94,822l-3.35-2.54,3.54,1.65-1.5-4.62,2.16,4.23.77-5-.11,5,2.81-3.33L81,821.61,84.7,821,81,822.45l3.3,2.57-3.56-2.09Z"/><path class="cls-84" d="M85.21,830.35,80.31,824l-3.22,8.28,2.38-8.66-6.21-1.31,6.38-.06-.62-8,1.49,7.86,5.9-2.87-5.44,4Z"/><ellipse class="cls-85" cx="79.83" cy="821.8" rx="2.74" ry="3.73"/><path class="cls-86" d="M25.69,877l-2-4.49-.93,5.26.14-5.22-2.84,3.5,2.49-4.27-3.93.7L22.34,871,19,868.49l3.53,1.65L21,865.52l2.16,4.23.76-5-.11,5,2.81-3.33-2.3,4.19,3.74-.63-3.66,1.47,3.3,2.57-3.56-2.09Z"/><path class="cls-87" d="M28.61,879.42,23.7,873l-3.22,8.28,2.39-8.66-6.22-1.31,6.38-.06-.62-8,1.5,7.86,5.89-2.87-5.43,3.94Z"/><path class="cls-88" d="M23.23,867.12c1.51,0,2.74,1.67,2.74,3.73s-1.23,3.73-2.74,3.73-2.74-1.67-2.74-3.73S21.72,867.12,23.23,867.12Z"/><path class="cls-89" d="M188.11,923.42l-2-4.49-.92,5.26.14-5.22-2.84,3.5L185,918.2l-3.93.7,3.71-1.48-3.35-2.54,3.53,1.65-1.49-4.62,2.16,4.23.76-5-.11,5,2.81-3.33-2.3,4.19,3.74-.63-3.66,1.47,3.29,2.57-3.55-2.09Z"/><path class="cls-90" d="M191,925.77l-4.91-6.38-3.22,8.27,2.38-8.65-6.21-1.31,6.38-.06-.62-8,1.49,7.86,5.9-2.87-5.43,3.94Z"/><ellipse class="cls-91" cx="185.65" cy="917.22" rx="2.74" ry="3.73"/><path class="cls-92" d="M71,984.66l-2-4.5-.93,5.27.14-5.23-2.84,3.5,2.49-4.27-3.93.71,3.72-1.49-3.35-2.55,3.53,1.65-1.49-4.62,2.16,4.23.76-5-.11,5L72,974l-2.3,4.18,3.74-.62-3.66,1.46,3.3,2.58-3.56-2.1Z"/><path class="cls-93" d="M74,987l-4.91-6.39-3.22,8.28,2.39-8.65L62,978.94l6.38-.06-.62-8,1.5,7.87,5.89-2.88-5.43,4Z"/><ellipse class="cls-94" cx="68.58" cy="978.46" rx="2.74" ry="3.73"/></g></symbol><symbol id="Pedistal" data-name="Pedistal" viewBox="0 0 309.58 359.38"><g id="pedistal-3" data-name="pedistal"><ellipse class="cls-14" cx="155.22" cy="320.58" rx="77.34" ry="12.38"/><path class="cls-15" d="M237.42,325.15a336.64,336.64,0,0,1-163.73-1.54A688.48,688.48,0,0,0,75.48,7a447.45,447.45,0,0,0,163,0,652.07,652.07,0,0,0-1,318.07Z"/><ellipse class="cls-16" cx="156.96" cy="7.89" rx="81.48" ry="7.08"/><path class="cls-17" d="M75.48,7.7C71.31,5.41,64.75,3.35,60.11,2.24l-1.75-.38c-.59-.14-1.18-.21-1.76-.32-1.18-.21-2.37-.33-3.55-.47C52.46,1,51.86,1,51.27.94l-.9-.06H45.91A51.11,51.11,0,0,0,19.26,9.49c-1,.68-1.93,1.34-2.83,2.08l-.69.55c-.23.18-.46.36-.68.55l-1.31,1.16-.33.3-.31.3-.63.61-.62.61-.32.31-.29.32-1.18,1.29-.3.32-.28.35-.58.7A40.57,40.57,0,0,0,2,31.6,41.68,41.68,0,0,0,3.21,60.44a44.34,44.34,0,0,0,8,12.73,46.1,46.1,0,0,0,5.51,5.22,38.64,38.64,0,0,0,22,8.46A37.19,37.19,0,0,0,54,84.48,35.36,35.36,0,0,0,60.83,81a34,34,0,0,0,5.77-4.87c.44-.45.84-.92,1.25-1.4s.81-1,1.21-1.5a26.62,26.62,0,0,0,2.11-3.32,28.15,28.15,0,0,0,2.73-7.33,28.79,28.79,0,0,0-1-15.5A30.32,30.32,0,0,0,64,34l-.77-.63c-.25-.2-.5-.41-.79-.62l-.85-.61-.88-.57A27.85,27.85,0,0,0,57,29.67a25.84,25.84,0,0,0-8-2,25,25,0,0,0-8,.69,23.27,23.27,0,0,0-7.17,3.21,22.6,22.6,0,0,0-3,2.43c-.47.45-.89.92-1.32,1.39l-.6.73-.15.19-.15.2-.29.4a17.48,17.48,0,0,0-3.08,7.26,18.06,18.06,0,0,0,.3,7.81A18.89,18.89,0,0,0,29,59a18.57,18.57,0,0,0,6.1,5,3.29,3.29,0,0,0,.46.23l.47.2c.31.13.63.27.94.38l1,.3.49.14.49.11c.33.06.65.14,1,.19l1,.11a8.34,8.34,0,0,0,1,0h1a15.81,15.81,0,0,0,1.93-.21c.32-.07.64-.1,1-.19L46.8,65a8,8,0,0,0,.9-.31l.44-.17.22-.09.21-.1.84-.43.21-.1.2-.13.39-.25.39-.25.2-.12.18-.15.72-.57.18-.14.17-.16.32-.32.33-.32c.11-.11.21-.21.31-.33A12.48,12.48,0,0,0,55,58a10.91,10.91,0,0,0,.85-3.55,10.6,10.6,0,0,0-.38-3.59,11.12,11.12,0,0,0-4-5.81l-.35-.26c-.11-.09-.25-.17-.37-.25a7.44,7.44,0,0,0-.78-.44l-.4-.2-.42-.16-.41-.16-.42-.12a8.5,8.5,0,0,0-3.4-.24,7.59,7.59,0,0,0-3,1.06,6.83,6.83,0,0,0-2.18,2.1,7.11,7.11,0,0,1,5.33-1.87,7.3,7.3,0,0,1,2.66.71l.31.15.28.18a2.2,2.2,0,0,1,.28.18l.27.2a5,5,0,0,1,.5.43l.24.22.23.25a7.87,7.87,0,0,1,2.06,4.58,6.94,6.94,0,0,1-1.1,4.41,8.28,8.28,0,0,1-3.54,2.82,9,9,0,0,1-4.44.65,4.85,4.85,0,0,1-.55-.09,2.35,2.35,0,0,1-.54-.11l-.54-.13-.51-.19-.26-.09-.25-.11-.49-.23L39.23,58,39,57.9c-.08,0-.14-.11-.21-.16l-.43-.31c-.14-.11-.27-.24-.4-.35a8.43,8.43,0,0,1-.8-.78,9.69,9.69,0,0,1-1.32-1.8,10,10,0,0,1-1.39-4,9.5,9.5,0,0,1,.38-4,8.81,8.81,0,0,1,2-3.33L37,43l.08-.09.1-.09.38-.37.41-.35.41-.32a12.14,12.14,0,0,1,5.75-2.43,13.14,13.14,0,0,1,4.15,0,13,13,0,0,1,3.86,1.32,15.42,15.42,0,0,1,1.71,1.09l.39.31.38.33c.13.1.27.24.4.36s.27.25.4.39a16.58,16.58,0,0,1,4.29,7.33,15.83,15.83,0,0,1,.54,4.11,15.44,15.44,0,0,1-.55,4,14.5,14.5,0,0,1-1.61,3.62,16.86,16.86,0,0,1-1.16,1.61c-.23.25-.42.5-.69.77s-.49.53-.77.77A20,20,0,0,1,52,68a20.76,20.76,0,0,1-3.94,1.84A21.88,21.88,0,0,1,27.32,66a31.36,31.36,0,0,1-3.41-3.31A27.52,27.52,0,0,1,19,54.8a26.24,26.24,0,0,1,.79-22.21,25.84,25.84,0,0,1,2.45-3.85l.35-.46.18-.23.2-.23.79-.92.2-.23.21-.22.43-.44.42-.44.21-.22.22-.21.89-.83a6.1,6.1,0,0,1,.46-.41l.46-.4c.61-.54,1.28-1,1.92-1.52.33-.25.67-.47,1-.7l.5-.35c.17-.12.35-.22.52-.33l1-.65,1.09-.59c.18-.1.35-.21.54-.3l.56-.27c.37-.18.74-.38,1.12-.54l1.14-.5.29-.12.29-.11.59-.22c.77-.31,1.58-.54,2.37-.81l1.22-.33L42,16l.62-.13a36.43,36.43,0,0,1,5-.81L48.9,15h3.86a42.93,42.93,0,0,1,5.17.53c.43.07.85.16,1.28.24l.64.12.64.16,1.27.31,1.26.37c.42.12.84.25,1.25.41s.84.27,1.25.43l1.23.49.3.12.3.13.61.27c.81.35,1.59.77,2.38,1.17.4.2.77.43,1.16.65s.78.43,1.15.67l1.13.72c.38.24.74.51,1.1.76.74.49,1.46,1.09,2.19,1.65l.55.42.53.45,1.06.9a11.11,11.11,0,0,1,1,.93C80,26.92,76.53,8.25,75.48,7.7Z"/><path class="cls-18" d="M237,11.74c.73-4.12,8.39-6.42,12.49-7.45,1-.24,2-.5,3.13-.68.54-.1,1.07-.21,1.61-.28l1.63-.22C256.43,3,257,3,257.52,3s1.09-.1,1.64-.12c1.09,0,2.19-.08,3.29,0a48.63,48.63,0,0,1,13.06,2l1.58.51c.53.16,1,.37,1.56.56,1,.37,2,.83,3.07,1.27.51.22,1,.47,1.5.72l.75.36.72.4c.49.27,1,.52,1.46.8l1.41.87a47.88,47.88,0,0,1,17.51,19.49c.46,1,.94,2,1.33,3l.31.77c.1.26.2.51.29.77l.52,1.57.13.39.12.4.22.79.22.8.11.4.09.4.36,1.6.09.41.07.42.15.84a38,38,0,0,1,.5,6.82,39,39,0,0,1-14.91,30,41,41,0,0,1-12.28,6.73,43.65,43.65,0,0,1-6.84,1.73A35.22,35.22,0,0,1,254,84.36a34.37,34.37,0,0,1-11.24-9.08,32.57,32.57,0,0,1-3.86-6.06,31.82,31.82,0,0,1-2.41-6.69c-.15-.57-.26-1.15-.37-1.73s-.2-1.2-.28-1.8a25.54,25.54,0,0,1-.18-3.71,26.75,26.75,0,0,1,9.07-19.57,28,28,0,0,1,13.13-6.49l.91-.16c.3,0,.59-.1.92-.13l1-.11,1-.07a24,24,0,0,1,3.88.14,23.12,23.12,0,0,1,13.51,6.44,22.19,22.19,0,0,1,4.3,6,22.79,22.79,0,0,1,1.3,3.39c.17.58.3,1.17.42,1.76l.15.88v.46l.06.46a17.21,17.21,0,0,1-.85,7.4A17.47,17.47,0,0,1,274.58,66a16.89,16.89,0,0,1-7.22,1.3h-.47l-.47-.06a5.92,5.92,0,0,1-.93-.12l-.92-.21-.45-.11-.45-.14c-.29-.1-.59-.19-.88-.31L262,66a7,7,0,0,1-.82-.41l-.79-.46a14.11,14.11,0,0,1-1.46-1.08c-.23-.2-.47-.38-.68-.59l-.62-.64a6.3,6.3,0,0,1-.58-.68l-.28-.35-.13-.17-.13-.19-.48-.74-.12-.18-.1-.2-.2-.38-.2-.39-.1-.2-.08-.2-.32-.81-.08-.2-.06-.2-.12-.42-.11-.41a2.13,2.13,0,0,1-.1-.42,11.42,11.42,0,0,1-.2-3.45,10.2,10.2,0,0,1,8.74-9l.4-.06h.42a3.84,3.84,0,0,1,.83,0H265a1,1,0,0,1,.41.06l.4.06.4.1a7.79,7.79,0,0,1,4.84,3.67,6.66,6.66,0,0,1,.79,2.75,6.66,6.66,0,0,0-3.44-4,6.52,6.52,0,0,0-2.47-.65h-1.24a5.31,5.31,0,0,0-.6.12,1.37,1.37,0,0,0-.29.07l-.3.1a7.32,7.32,0,0,0-3.76,2.8,6.58,6.58,0,0,0-1.13,4.15,7.78,7.78,0,0,0,1.55,4A8.29,8.29,0,0,0,263.46,60l.48.19a4,4,0,0,0,.49.16l.49.13.5.09.25,0h1.74l.49-.06a2.73,2.73,0,0,0,.48-.1,8.68,8.68,0,0,0,1-.27,10.36,10.36,0,0,0,1.89-.86,9.6,9.6,0,0,0,3-2.67,9.31,9.31,0,0,0,1.55-3.49,8.64,8.64,0,0,0,0-3.65v-.46l-.14-.48-.16-.47c0-.16-.13-.31-.19-.47a13.88,13.88,0,0,0-.9-1.76A12.27,12.27,0,0,0,271.82,43a12.05,12.05,0,0,0-3.37-1.89,11.7,11.7,0,0,0-5.58-.61l-.46.07a2.34,2.34,0,0,0-.46.09l-.49.11-.5.13a15.39,15.39,0,0,0-6.82,4A14.42,14.42,0,0,0,251.83,48a14.24,14.24,0,0,0-1.39,3.55,13.4,13.4,0,0,0-.37,3.73,13.05,13.05,0,0,0,.2,1.86c.07.32.1.61.2,1s.15.67.26,1a19.36,19.36,0,0,0,3.89,7.12,19.87,19.87,0,0,0,18.51,6.5,27.28,27.28,0,0,0,4.26-1.13,25.9,25.9,0,0,0,15.33-14.47A26.73,26.73,0,0,0,294,53.07a26.45,26.45,0,0,0,.56-4.25,28.22,28.22,0,0,0-.21-4.31l-.08-.54V43.7l-.06-.28L294,42.29l-.05-.28-.07-.28-.14-.56-.14-.56-.07-.28-.08-.27-.33-1.1a1.87,1.87,0,0,0-.18-.55l-.2-.54c-.23-.73-.55-1.43-.84-2.15-.15-.35-.33-.69-.49-1l-.25-.53c-.08-.17-.18-.34-.27-.51l-.54-1-.61-1c-.1-.17-.19-.34-.3-.5l-.32-.48c-.22-.32-.42-.66-.65-1l-.7-.94-.17-.23-.19-.23-.37-.45c-.48-.62-1-1.19-1.54-1.77-.27-.29-.55-.56-.83-.84l-.41-.43-.44-.4a35.06,35.06,0,0,0-3.67-3l-1-.68-1-.64-.5-.32-.53-.29-1-.59a44.62,44.62,0,0,0-4.4-2c-.38-.15-.77-.26-1.15-.4l-.57-.2-.58-.17-1.17-.33L267,15.5c-.39-.1-.79-.17-1.19-.24s-.8-.17-1.2-.23l-1.21-.17h-.61l-.61-.06c-.81-.1-1.63-.11-2.45-.16h-2.47l-1.24.06c-.41,0-.82.07-1.24.11-.81.06-1.67.22-2.51.34l-.64.09-.63.12-1.26.25c-.43.07-.84.18-1.25.28l-1.25.31a6.32,6.32,0,0,0-.62.18l-.62.18-1.24.37c-.81.28-1.62.56-2.43.86-6.43,2.47-6.16-.52-7.61,5.66C235,20,235.66,19.33,237,11.74Z"/><ellipse class="cls-19" cx="155.2" cy="332.06" rx="83.07" ry="27.32"/></g></symbol><symbol id="Power" data-name="Power" viewBox="0 0 201.18 287.77"><path class="cls-20" d="M20.45,43.15C22.45,41,34.53,31.23,39.06,29c11.07-5.5,39.64-8.5,58.55-7.1,10,.74,36.38,5.86,38.78,7.06,8.2,4.12,10,5.73,12.63,8.5a652.83,652.83,0,0,0,17,210A350,350,0,0,1,2.3,245.9,689.39,689.39,0,0,0,19.46,138.65C22.46,101.15,22.4,72.42,20.45,43.15Z"/><g class="cls-21"><path class="cls-3" d="M150.49,28.65c-17.18-6.91-35.72-10-54.18-10.54a208.48,208.48,0,0,0-27.26,1c-8.32.83-17.07,1.61-25,4.34C32.67,27.35,23.4,35.28,21.27,47.56,19.71,56.56,20,66.18,23,74.8,26.86,86.15,33.68,99,44.9,104.62c7.44,3.69,16.57,3.16,24.66,4,9.87,1,19.63,1.57,29.47-.06,7.35-1.22,13.9-3.21,19.42-8.4,5.83-5.47,9.49-13,8.65-21.06-2.16-20.86-27.35-18.93-42.44-16.16-17.36,3.18-33.81,12-45.07,25.69a91.32,91.32,0,0,0-12.71,20c-2.5,5.52-5.1,11.8-4.86,18,.26,6.57,5.58,12.91,9.72,17.56s8.61,7.14,14.4,9.18c8.18,2.87,16.42,5.56,24.45,8.84,8.29,3.39,16.63,6.73,25.76,6.47s19-3,24.63-10.85c5.26-7.37,4.91-17.43-1.63-23.94-6.83-6.8-16.67-7.78-25.64-5.4-8.78,2.33-15.85,6.51-22.85,12.06-5.14,4.09-11.59,6.3-16.85,10.3a47,47,0,0,0-15.42,20.36c-2.6,6.64-4.23,14.93-.54,21.5,3.21,5.72,8.79,7.7,14.47,10.1,1.29.54-.89-.47.23.09.46.23.9.51,1.36.76,1.28.7,2.59,1.35,3.92,2a52.09,52.09,0,0,1,9.44,5.84c7,5.33,15.47,7.89,24.18,8.55,14.13,1,39.41-6.23,32.33-25.58-3-8.31-12-12.87-20.57-12.09-9.61.88-18.15,7-25.14,13.28-6.76,6-13.61,14-16.13,22.89-1.86,6.53.68,12.52,3.34,18.43a62.9,62.9,0,0,0,8.73,14.64c6.69,8,18.08-3.5,11.44-11.44,1.4,1.68-.22-.34-.39-.61l-1.52-2.47c-1.18-2-2.26-4-3.27-6.11a42.65,42.65,0,0,1-2.28-5.45,10.89,10.89,0,0,1-.74-2.68c0,1.56.55-.9.69-1.27,2.24-5.64,7.14-10.54,11.57-14.49,3.7-3.3,12-10.75,17.54-8.37.68.29,1.74,1.49,1.72,1.27a11.46,11.46,0,0,1-3.5,2.44c-5.07,2.13-11.76,2-17,1A29.88,29.88,0,0,1,75,196.75c-4.2-3.4-9.5-5.63-14.33-8-2.79-1.37-7.29-2-8.48-4-.79-1.27,1.11-7,2.08-9.23,4.85-10.81,14.6-14.26,23.76-20.33,4.53-3,7.94-6.53,13-8.7,3.83-1.62,13.44-6,16.92-1.22,3.12,4.29-6.08,6.6-8.67,7-6.36.87-12.29-.9-18.16-3.16-6.43-2.48-12.76-5.15-19.26-7.43-3-1-6-2.06-8.94-3.09-1.17-.4-2.35-.8-3.52-1.22-.53-.19-3.67-1.81-1.74-.61a26.9,26.9,0,0,1-7-7.23c-.65-.92-1.26-1.88-1.84-2.86,0,0-1.12-2.77-.68-1.29.56,1.9-.05.18.15-.65-.21.85.57-2.19.68-2.58,6.58-23.17,26.9-39.35,50-43.6,5.07-.94,27.27-4.83,21.13,6.6-5.07,9.46-20.4,8.67-29.61,8.21-7.37-.37-14.68-1.4-22-2-4.08-.33-6.39-.52-9.62-3.61C43.13,82.32,39.46,74.47,37.45,67c-.22-.8-.39-1.6-.58-2.39-.1-.47-.18-.94-.26-1.42.14,1.09.17,1.21.09.35,0-1.62,0-3.24-.06-4.85,0-1.8,0-3.58.11-5.38A9.57,9.57,0,0,1,37.24,50c.84-3.46,1.77-5.48,5-7.86C46.16,39.2,51.6,37.91,56.42,37c29.44-5.47,61.88-3.93,89.78,7.29,4,1.63,8.88-1.78,10-5.65,1.26-4.61-1.58-8.31-5.65-9.95Z"/></g><g class="cls-22"><line class="cls-1" x1="48.47" y1="30.73" x2="39.58" y2="244.97"/><path class="cls-3" d="M53.86,31C53,48.8,52.52,66.67,52.25,84.54c-.18,8.94-.18,17.88-.27,26.82v26.83L52.24,165c.18,9,.27,17.9.54,26.85.45,17.9,1.06,35.81,2.16,53.74l-30.73-1.27c2.58-17.78,4.68-35.58,6.6-53.38,1-8.9,1.84-17.81,2.76-26.71l2.49-26.73,2.22-26.73c.66-8.91,1.39-17.83,2-26.75,1.21-17.83,2.26-35.67,2.83-53.53Z"/></g><g class="cls-22"><line class="cls-1" x1="123.01" y1="28.69" x2="134.98" y2="249.43"/><path class="cls-3" d="M128.4,28.4c.83,18.4,2.13,36.78,3.6,55.15.69,9.19,1.56,18.37,2.34,27.55L137,138.63l2.87,27.52c1,9.17,2,18.34,3.14,27.5,2.18,18.33,4.54,36.65,7.37,54.95l-30.71,1.66c.84-18.49,1.2-37,1.38-55.42.15-9.23.11-18.45.16-27.68L121,139.49l-.38-27.65c-.21-9.21-.35-18.43-.65-27.64-.52-18.42-1.22-36.83-2.38-55.21Z"/></g><g class="cls-22"><line class="cls-1" x1="85.56" y1="26.59" x2="88.76" y2="250.95"/><path class="cls-3" d="M91,26.52c.09,18.7.67,37.39,1.41,56.08.33,9.34.83,18.69,1.24,28l1.52,28,1.77,28c.69,9.34,1.28,18.68,2,28,1.46,18.68,3.08,37.35,5.19,56L73.32,251c1.58-18.72,2.67-37.44,3.59-56.15.51-9.36.83-18.71,1.25-28.07l1-28.06.71-28.06c.16-9.35.39-18.71.45-28.06.2-18.7.25-37.4-.19-56.1Z"/></g><path class="cls-23" d="M145.6,53.75a286.24,286.24,0,0,0,.54,74.55L24.33,132.5c1.28-20.14.59-17.15,0-39.94-.46-17.49,1.45-22.45,1.16-39.94,13.26,3,45.18,8.33,64.63,8.56C111.46,61.47,131.48,56.87,145.6,53.75Z"/><path class="cls-24" d="M22.1,49.69a10.54,10.54,0,0,1-3.28-4.54,6.61,6.61,0,0,1,.28-4.75A12.67,12.67,0,0,1,23,35.75a35.62,35.62,0,0,1,7.3-4.34c6-2.73,14-5.07,23.51-6.78,4.73-.85,9.81-1.52,15.08-2,1.32-.12,2.62-.25,4-.35l2.06-.15L77,22l2.11-.1,2.12-.08c1.42,0,2.84-.08,4.27-.09,5.72-.07,11.49.14,17.08.56l2.09.17,2.07.2c1.38.13,2.72.3,4.07.46l2,.26,1,.14,1,.14,1.94.3,1.9.33c10,1.78,18.51,4.45,24,7.63.66.41,1.35.8,1.93,1.22l.44.31a4.25,4.25,0,0,1,.43.31l.79.63.19.16.17.16L147,35l.34.32.17.16.14.17.57.65.15.16.12.17.24.35a6.13,6.13,0,0,1,1.11,2.79,5.56,5.56,0,0,1-.5,2.81c-1.68,3.74-7.78,7.26-16.88,9.8a110.46,110.46,0,0,1-15.5,3c-2.84.36-5.77.64-8.76.85s-6.33.33-9.55.33a135.38,135.38,0,0,1-18.66-1.23,80,80,0,0,1-15.2-3.49,33.44,33.44,0,0,1-5.4-2.41,14.94,14.94,0,0,1-3.58-2.69,6.62,6.62,0,0,1-.59-.7,5.27,5.27,0,0,1-.49-.74,3.87,3.87,0,0,1-.48-1.52,4.21,4.21,0,0,1,1-3c1.57-2,4.9-3.77,9.46-5.2a78,78,0,0,1,16.61-2.93c.39,0,.78-.06,1.17-.09l1.19-.07,1.25-.07,1.25-.05h5a90,90,0,0,1,9.7.72,59.45,59.45,0,0,1,8.26,1.64,27.43,27.43,0,0,1,6,2.36A11.68,11.68,0,0,1,117,38.5a6.4,6.4,0,0,1,.67.71l.25.36.06.09,0,.1.11.19a2.59,2.59,0,0,1-.62,3A11.76,11.76,0,0,1,113,45.61a38.47,38.47,0,0,1-7.55,1.82,62.84,62.84,0,0,1-9.29.69h-2.4l-1.21-.06H91.34L90.18,48l-1.13-.14A7.73,7.73,0,0,1,88,47.67L86.9,47.5c-.67-.14-1.36-.26-2-.42-.3-.07-.63-.14-.91-.23l-.86-.25c-.29-.08-.54-.17-.8-.26L82,46.2l-.19-.07-.17-.07-.67-.29-.17-.08-.14-.07-.29-.16L80,45.31l-.14-.08-.12-.08-.47-.33-.11-.08-.09-.08-.18-.17-.18-.17a.61.61,0,0,1-.15-.17,1.8,1.8,0,0,1-.49-1.41,2.26,2.26,0,0,1,1-1.38,8.58,8.58,0,0,1,2.34-1.18A27.88,27.88,0,0,1,89,38.75h4.26a26.82,26.82,0,0,1,3.78.51,11.74,11.74,0,0,1,2.7.9,2.38,2.38,0,0,1,1.21,1.11,10,10,0,0,0-4.73-1.58,27.15,27.15,0,0,0-3.25-.22h-1.6a3.25,3.25,0,0,0-.77.06h-.76a14.76,14.76,0,0,0-4.7,1.22c-1,.54-1.42,1.16-1.2,1.73a4,4,0,0,0,2.29,1.59,19.13,19.13,0,0,0,4.42,1l.64.07h5.17l.61-.06A9.58,9.58,0,0,0,98.3,45c.85-.1,1.66-.23,2.4-.39a15.22,15.22,0,0,0,3.67-1.16,3.73,3.73,0,0,0,1.77-1.46,1.29,1.29,0,0,0-.3-1.5l-.09-.09h0l-.22-.2-.24-.19c-.08-.06-.19-.12-.27-.19a10.85,10.85,0,0,0-1.3-.7,20.32,20.32,0,0,0-3.57-1.14,38,38,0,0,0-4.5-.71A46.55,46.55,0,0,0,90.78,37a24.16,24.16,0,0,0-2.42.08H86.55l-.64.07A37.54,37.54,0,0,0,77.33,39a13.89,13.89,0,0,0-2.81,1.33A4.83,4.83,0,0,0,73,41.77a1.9,1.9,0,0,0-.23,1.54,2.46,2.46,0,0,0,.38.76,3.79,3.79,0,0,0,.32.38,3.87,3.87,0,0,0,.41.4,10.92,10.92,0,0,0,2.28,1.52,22.27,22.27,0,0,0,3.24,1.33,49.72,49.72,0,0,0,8.59,2,78.56,78.56,0,0,0,10.4.6c1.77,0,3.54-.08,5.27-.2s3.7-.33,5.45-.56a66.75,66.75,0,0,0,9.6-1.88,31.29,31.29,0,0,0,7-2.76A12.87,12.87,0,0,0,128,43.33a6.3,6.3,0,0,0,1.37-1.71,3.48,3.48,0,0,0,.44-1.75,4,4,0,0,0-.56-1.77l-.13-.22-.06-.11-.09-.11-.36-.46-.09-.12L128.4,37l-.22-.22-.21-.23-.11-.11-.13-.12-.5-.44-.27-.22-.29-.22c-.36-.29-.82-.57-1.24-.86l-.7-.42-.35-.21-.39-.2-.78-.41-.84-.4-.43-.2-.45-.19c-.31-.12-.59-.26-.91-.38l-1-.37-.24-.09-.25-.09-.51-.18c-.67-.24-1.41-.47-2.13-.7l-1.12-.32-.57-.17-.59-.15c-1.55-.43-3.24-.8-5-1.16l-1.32-.26-1.36-.24-.68-.12-.7-.11L103.72,28q-2.85-.41-5.85-.72l-1.51-.13L95.6,27,94.84,27l-1.54-.12-1.56-.09-1.56-.07c-.53,0-1-.06-1.58-.07L87,26.58H77.43l-1.6.07c-1.06,0-2.16.13-3.25.19h-.82l-.81.07L69.33,27c-.55,0-1.08.09-1.61.14l-1.6.15-.79.09-.79.09L63,27.68l-3.1.41a114.53,114.53,0,0,0-21.77,5,54.2,54.2,0,0,0-8,3.51l-.44.24-.4.24-.8.49c-.28.16-.51.32-.76.49l-.73.5c-.23.16-.44.34-.66.5a6.59,6.59,0,0,0-.64.52l-.58.52a4.51,4.51,0,0,0-.55.52C21.83,43.59,21,46.63,22.1,49.69Z"/><path class="cls-25" d="M150.68,271.75q-3.12-13.72-6.25-27.44l-7.56,27.44,4-28.37-15.14,15.06,14-19.77-18.31-1.77,17.86-2.82-13.61-18.73,15,14.11q-1.93-13.71-3.85-27.43,3.56,13.13,7.13,26.24,3.35-13.12,6.67-26.25-1.86,13.74-3.73,27.48l14.92-14.17-13.14,19.59,17.42,2-17.6,2.75,13.35,18.8L147,241.83Z"/><path class="cls-26" d="M190.65,277.23l-43.16-35.56q-14.18,23-28.33,46.1l21-48.18L85.5,232.28l56.12-.36q-2.73-22.23-5.45-44.46,6.57,21.89,13.15,43.77l51.86-16-47.8,22Z"/><path class="cls-27" d="M53,157.75Q47.1,144.37,41.23,131l-5.4,31.36.81-31.14L20,152.05l14.53-25.43-23,4.21,21.74-8.89L13.72,106.75l20.66,9.85L25.64,89.05l12.64,25.21q2.25-14.9,4.48-29.8-.32,15.06-.65,30.12L58.56,94.75,45.09,119.69,67,116l-21.43,8.72L64.83,140,44,127.56Z"/><path class="cls-28" d="M70,171.75q-14.36-19-28.7-38.06L22.41,183q7-25.77,13.94-51.55L0,123.64l37.32-.38q-1.8-23.79-3.62-47.59,4.38,23.43,8.74,46.85l34.49-17.11L45.15,128.92Q57.6,150.36,70,171.75Z"/><ellipse class="cls-29" cx="38.51" cy="120.82" rx="16" ry="22.25"/><path class="cls-30" d="M158.87,76.05,145.5,51.22q-3.09,14.53-6.17,29.08l.93-28.88-19,19.34,16.59-23.58-26.21,3.9,24.81-8.24-22.3-14.09,23.58,9.14-10-25.56,14.43,23.39q2.55-13.83,5.11-27.64L146.52,36l18.77-18.39L150,40.75l25-3.45-24.46,8.08,22,14.23L148.75,48Z"/><path class="cls-31" d="M178.36,89.09,145.6,53.79,124.11,99.54q8-23.9,15.91-47.81L98.55,44.48l42.58-.36Q139.06,22.06,137,0q5,21.72,10,43.44l39.35-15.87-36.26,21.8Z"/><ellipse class="cls-32" cx="142.44" cy="41.84" rx="18.26" ry="20.63"/></symbol><symbol id="Gem" data-name="Gem" viewBox="0 0 580.78 652.14"><g class="cls-4"><path class="cls-3" d="M330.49,279.63l26.35.83q16,29,31.91,58.07l-57.4-21.75Q330.93,298.21,330.49,279.63Z"/><path class="cls-3" d="M330.49,279.63l12.74-.7,6.76-.32c2.28-.09,4.59-.21,6.92-.24H358l.68,1.09c2.9,4.71,5.87,9.38,8.71,14.12s5.69,9.47,8.47,14.24,5.54,9.56,8.28,14.35l4.07,7.22,4,7.24,5.21,9.39-10.1-3.76c-4.8-1.79-9.56-3.64-14.34-5.48s-9.52-3.72-14.26-5.65-9.48-3.85-14.21-5.81-9.43-4-14.13-6l-1.79-.78.06-1.67.32-9.72c.1-3.22.29-6.39.46-9.51l.24-4.65.29-4.54Zm0,0,1,9.78,1,9.39c.31,3.07.64,6.09.89,9.06l.75,8.86-1.83-2.41q7.31,2.37,14.57,4.86c4.84,1.66,9.68,3.33,14.49,5.06s9.63,3.47,14.43,5.23,9.59,3.56,14.36,5.4l-4.89,5.63-4-7.28-3.91-7.31c-2.58-4.88-5.16-9.76-7.67-14.68s-5-9.84-7.48-14.79-4.83-10-7.24-14.92l1.77,1.08c-2.07-.17-4.15-.43-6.25-.65l-6.42-.74C339.75,280.63,335.23,280.12,330.49,279.63Z"/></g><polygon class="cls-5" points="239.73 342.37 316.01 326.01 316.01 452.8 239.73 342.37"/><path class="cls-6" d="M237,339.63l52,27.56h50.39l52.67-30"/><path class="cls-3" d="M328.28,281c2.36-.61,4.73-1,7.1-1.42s4.74-.69,7.11-1,4.75-.49,7.12-.67,4.76-.31,7.14-.42l1.27-.06.71,1.06c1.32,2,2.63,4,3.89,6s2.49,4,3.67,6.11,2.33,4.14,3.42,6.27a65.09,65.09,0,0,1,3,6.52c-1.74-1.68-3.31-3.48-4.9-5.27s-3.07-3.65-4.54-5.52-2.89-3.78-4.29-5.7-2.74-3.87-4.07-5.83l2,1c-2.38.09-4.76.16-7.14.18s-4.77,0-7.16-.07-4.78-.18-7.17-.37S330.7,281.42,328.28,281Z"/><path class="cls-3" d="M278.37,322.59c-3.31,2-6.7,3.75-10.13,5.41s-6.88,3.27-10.37,4.79q-10.47,4.51-21.25,8.27l.82-3.27c2.33,3,4.62,6,6.8,9.08,1.11,1.54,2.18,3.1,3.24,4.68s2.08,3.18,3.06,4.83c-1.48-1.22-2.89-2.5-4.28-3.79s-2.76-2.61-4.1-3.95c-2.71-2.65-5.31-5.39-7.87-8.17l-1.92-2.08,2.75-1.19q10.47-4.51,21.25-8.27c3.6-1.23,7.21-2.42,10.88-3.48S274.6,323.38,278.37,322.59Z"/><path class="cls-3" d="M374.43,334.31c1.8.39,3.57.84,5.35,1.3s3.53,1,5.27,1.47,3.51,1,5.24,1.58l5.2,1.67,2.33.75-1.49,2.17q-7.87,11.5-16.55,22.42c-2.89,3.64-5.87,7.2-8.91,10.73s-6.19,7-9.53,10.27c2.24-4.12,4.69-8.1,7.21-12s5.13-7.76,7.83-11.55q8.06-11.37,16.91-22.15l.84,2.93-5-2.23c-1.66-.74-3.3-1.55-5-2.32s-3.28-1.61-4.91-2.43S376,335.24,374.43,334.31Z"/><polygon class="cls-5" points="300.13 330.52 338.51 330.52 316.48 435.94 300.13 330.52"/><path class="cls-7" d="M483.59,340.8c0,77.3-64.71,219.36-140,219.36S210.89,418.1,210.89,340.8s67.59-232.31,142.9-232.31S483.59,263.49,483.59,340.8Z"/><path class="cls-8" d="M390.54,392.65C363.35,351.77,360.24,344.17,355,351,345,409.49,339.06,453.44,327.86,510c3.24-56.81,10.27-107.31,13.21-166.1,1.74-11.23-1.92-12.25-36.36-20.65,35.36-.41,36.57,3.81,39.12-5.79-3.43-51.1,1.33-99.23-2.1-150.33,8.28,50.3,8.37,97.65,16.65,148,17.67-3,17.67-3,38-14-26.14,18.52-19.67,19.56-30.26,34.66C379.92,370.06,368.53,345.76,390.54,392.65Z"/><path class="cls-9" d="M377.7,409.55c-11.11-28.74-10.24-19.63-21.35-48.38-2.9,37-6.35,142.76-9.3,174.79.77-33.44-1.77-137.76-3.74-174.1-15.73,22.4-17.84,28.24-33.58,50.64,13.78-27.31,13.93-38.07,27.71-65.38-9.13-.33-9.13-.33-31.11,1.49,12.69-6.18,10.41-5.46,27.63-16.56-8.86-14-8.86-14-27.42-30.31,19.57,10.58,19.57,10.58,30.46,13.17-4.86-29.72-6.85-30.3-15.13-59.89,12,27.08,12,27.08,26.22,52.35,4.24-32,7.93-180.32,12.17-212.33-.62,32.35-.68,181-1.3,213.36,11-23.21,11.29-27.22,21.55-56.32-4.91,30.55-6.54,37.44-13.07,72.77l36.26-7c-20.3,9.36-14.65,13.73-35,23.09,18.26,16.47,14.35,15.93,32.62,32.41-19.72-13.39-17.26-9.77-37-23.16C372.78,382.61,369.23,377.15,377.7,409.55Z"/><path class="cls-10" d="M239.7,342.38l52-20.24h50.39l52.67,22"/><path class="cls-11" d="M282.46,282.31l17.36,33.16h40.09q6.31-16.16,12.62-32.32Z"/><path class="cls-12" d="M356.84,279.82l42.29,62.67L315.9,455.15l-82.07-116,44.52-60.26Z"/><ellipse class="cls-13" cx="290.39" cy="326.07" rx="290.39" ry="326.07"/></symbol><symbol id="Stone" data-name="Stone" viewBox="0 0 303.66 363.56"><path class="cls-95" d="M303.66,187c0,62.22-72,176.56-155.91,176.56S0,249.22,0,187,75.26,0,159.11,0,303.66,124.77,303.66,187Z"/><path class="cls-96" d="M236.34,183.84C229.56,258.6,196.19,321.2,148.4,321.2S59.76,245.3,59.76,170.3,102,70.06,149.76,70.06,243.27,107.37,236.34,183.84Z"/><path class="cls-97" d="M235.64,172.73c-6.7,67.73-39.68,124.44-86.91,124.44s-87.6-68.74-87.6-136.76,41.77-90.81,89-90.81S242.5,103.44,235.64,172.73Z"/><path class="cls-98" d="M149.79,206.14a72.39,72.39,0,0,1,55.91-.32"/><path class="cls-98" d="M94.82,206.46a70.52,70.52,0,0,1,54.86-.52"/><path class="cls-99" d="M114.64,179.81a6.87,6.87,0,0,1,2.87-1.58,4.09,4.09,0,0,1,3.29.46,4.55,4.55,0,0,1,1.85,2.86,6.07,6.07,0,0,1-.34,3.45,5.72,5.72,0,0,1-2.3,2.68,8.16,8.16,0,0,1-6.9.65,6.65,6.65,0,0,1-3-2.15,8,8,0,0,1-1.55-3.35,9.79,9.79,0,0,1,0-3.66,9.32,9.32,0,0,1,4-6.11,12.6,12.6,0,0,1,7-2.06,11.55,11.55,0,0,1,11.5,8.3,15.53,15.53,0,0,1-3,14.28,16.52,16.52,0,0,1-6.17,4.41,21,21,0,0,1-14.71.52,12.79,12.79,0,0,1-1.8-.73,14.46,14.46,0,0,1-1.74-.92,17.47,17.47,0,0,1-3.11-2.43,18.37,18.37,0,0,1-2.49-3,15.68,15.68,0,0,1-1-1.67A14.33,14.33,0,0,1,96.2,188a21.17,21.17,0,0,1-1.61-7.53,25,25,0,0,1,.85-7.55,22.59,22.59,0,0,1,8.6-12.7l1.6-1.09c.56-.32,1.13-.61,1.69-.91l.85-.45.87-.37c.59-.24,1.17-.48,1.76-.69a31.3,31.3,0,0,1,7.29-1.51,32.85,32.85,0,0,1,7.35.21,30.28,30.28,0,0,1,7.13,1.84l1.7.74c.55.28,1.1.6,1.64.89a15,15,0,0,1,1.62,1c.52.36,1,.73,1.49,1.12a28,28,0,0,1,5,5.31,27.23,27.23,0,0,1,3.35,6.36,42.61,42.61,0,0,1,1.86,6.65,77.26,77.26,0,0,1,1.29,13.32,107.69,107.69,0,0,1-.55,13.2c-.4-4.37-.93-8.71-1.64-13a86.86,86.86,0,0,0-2.94-12.52,42.44,42.44,0,0,0-2.33-5.77,23.46,23.46,0,0,0-3.3-4.89,22,22,0,0,0-4.34-3.83,13.55,13.55,0,0,0-2.45-1.34l-1.3-.57-1.35-.44a25.58,25.58,0,0,0-21.62,3.25,16,16,0,0,0-3.74,3.61,15.48,15.48,0,0,0-2.5,4.69,17.65,17.65,0,0,0-1,5.38,14.84,14.84,0,0,0,.75,5.29,12.1,12.1,0,0,0,6.91,7.52,15.78,15.78,0,0,0,11,.25,12,12,0,0,0,4.59-2.86,10.69,10.69,0,0,0,2.62-4.73,11.14,11.14,0,0,0,.11-5.5,8.55,8.55,0,0,0-2.81-4.54,9.94,9.94,0,0,0-10.67-.58,6.84,6.84,0,0,0-3.24,4.41,6.61,6.61,0,0,0,.84,5.47,5.73,5.73,0,0,0,5,2.34,5.45,5.45,0,0,0,4.92-2.8,5.26,5.26,0,0,0,.5-3,4,4,0,0,0-1.45-2.61,3.69,3.69,0,0,0-3-.61A6.69,6.69,0,0,0,114.64,179.81Z"/><path class="cls-99" d="M185.11,179.1a6.62,6.62,0,0,0-2.93-1.32,3.76,3.76,0,0,0-3,.64,4,4,0,0,0-1.42,2.63,5.28,5.28,0,0,0,.53,3,5.46,5.46,0,0,0,5,2.74,5.72,5.72,0,0,0,5-2.39,6.66,6.66,0,0,0,.78-5.48,6.9,6.9,0,0,0-3.29-4.37,9.91,9.91,0,0,0-10.66.7,8.46,8.46,0,0,0-2.76,4.57,11,11,0,0,0,.17,5.49,10.54,10.54,0,0,0,2.67,4.7,11.83,11.83,0,0,0,4.62,2.81,15.72,15.72,0,0,0,11-.36,12.09,12.09,0,0,0,6.82-7.6,14.39,14.39,0,0,0,.69-5.29,17.61,17.61,0,0,0-1.06-5.37,15.51,15.51,0,0,0-2.55-4.67,16.28,16.28,0,0,0-3.79-3.57,25.55,25.55,0,0,0-21.64-3l-1.35.45-1.29.58a13.27,13.27,0,0,0-2.44,1.37,22.3,22.3,0,0,0-4.3,3.87,22.77,22.77,0,0,0-3.24,4.94A41.5,41.5,0,0,0,154.4,180a88.34,88.34,0,0,0-2.81,12.56c-.66,4.29-1.14,8.64-1.49,13a109.65,109.65,0,0,1-.7-13.19A77.32,77.32,0,0,1,150.55,179a42.78,42.78,0,0,1,1.67-6.69,27.46,27.46,0,0,1,3.28-6.4,28.26,28.26,0,0,1,5-5.36c.48-.39,1-.77,1.49-1.14a13.84,13.84,0,0,1,1.6-1c.54-.31,1.08-.63,1.63-.91l1.7-.76a30.1,30.1,0,0,1,7.1-1.93,32.87,32.87,0,0,1,7.35-.28,31.88,31.88,0,0,1,7.3,1.43c.6.2,1.19.44,1.77.67l.88.36.85.43c.57.3,1.14.58,1.7.9s1.08.71,1.61,1.08a22.53,22.53,0,0,1,8.74,12.6,24.93,24.93,0,0,1,.94,7.54,21.45,21.45,0,0,1-1.53,7.55,14.34,14.34,0,0,1-.82,1.78,21.36,21.36,0,0,1-3.46,4.73,17.79,17.79,0,0,1-3.08,2.46,16,16,0,0,1-1.73.94,14.17,14.17,0,0,1-1.8.74,21,21,0,0,1-14.71-.35,16.56,16.56,0,0,1-6.21-4.34,15.5,15.5,0,0,1-3.12-14.25,11.52,11.52,0,0,1,11.4-8.42,12.57,12.57,0,0,1,7,2,9.29,9.29,0,0,1,4,6.06,9.79,9.79,0,0,1,0,3.66,7.94,7.94,0,0,1-1.51,3.36,6.72,6.72,0,0,1-3,2.2,8.05,8.05,0,0,1-3.54.47,7.67,7.67,0,0,1-3.37-1,5.74,5.74,0,0,1-2.33-2.66A6.05,6.05,0,0,1,177,181a4.47,4.47,0,0,1,1.82-2.88,4,4,0,0,1,3.28-.5A6.94,6.94,0,0,1,185.11,179.1Z"/><line class="cls-100" x1="94.25" y1="211.71" x2="205.13" y2="211.1"/><line class="cls-101" x1="94.82" y1="206.76" x2="205.7" y2="206.15"/><path class="cls-102" d="M150.08,206.07a72.26,72.26,0,0,1,30.3-5.74A71.33,71.33,0,0,1,206,205.76"/><path class="cls-102" d="M95.12,206.4a70.45,70.45,0,0,1,54.85-.52"/><path class="cls-103" d="M114.93,179.74a7,7,0,0,1,2.88-1.57,4.09,4.09,0,0,1,3.29.46,4.55,4.55,0,0,1,1.85,2.86,6.08,6.08,0,0,1-.35,3.45,5.57,5.57,0,0,1-2.3,2.68,7.66,7.66,0,0,1-3.35,1.09,7.8,7.8,0,0,1-3.55-.44,6.67,6.67,0,0,1-3-2.16,7.9,7.9,0,0,1-1.54-3.35,9.62,9.62,0,0,1,4-9.76,12.6,12.6,0,0,1,7-2.06,12.11,12.11,0,0,1,7.11,2.13,12,12,0,0,1,4.38,6.17,15.48,15.48,0,0,1-3,14.28,16.52,16.52,0,0,1-6.17,4.41,21,21,0,0,1-14.7.51,14.82,14.82,0,0,1-1.81-.72,16,16,0,0,1-1.74-.92,17.83,17.83,0,0,1-3.11-2.43,18.8,18.8,0,0,1-2.49-3,15.68,15.68,0,0,1-1-1.67,14.33,14.33,0,0,1-.84-1.77,21.17,21.17,0,0,1-1.61-7.53,25,25,0,0,1,.86-7.55,22.52,22.52,0,0,1,8.59-12.7c.53-.37,1.07-.74,1.61-1.09s1.12-.61,1.68-.92l.85-.44.88-.37c.58-.24,1.17-.48,1.76-.69a30.8,30.8,0,0,1,7.29-1.51,32.85,32.85,0,0,1,7.35.2,30.72,30.72,0,0,1,7.12,1.85l1.7.74c.56.28,1.1.59,1.64.89a15,15,0,0,1,1.62,1c.52.36,1,.73,1.49,1.12a28,28,0,0,1,5,5.31,26.86,26.86,0,0,1,3.35,6.36,42.61,42.61,0,0,1,1.86,6.65,77.27,77.27,0,0,1,1.3,13.32,109.71,109.71,0,0,1-.55,13.2c-.4-4.37-.94-8.72-1.64-13a88.53,88.53,0,0,0-3-12.53,44.19,44.19,0,0,0-2.33-5.76,22.46,22.46,0,0,0-3.3-4.89,21.68,21.68,0,0,0-4.34-3.83,13,13,0,0,0-2.45-1.35l-1.29-.56-1.36-.44A25.59,25.59,0,0,0,109,166.65a16.31,16.31,0,0,0-3.75,3.62,15.82,15.82,0,0,0-2.5,4.69,17.36,17.36,0,0,0-1,5.38,14.62,14.62,0,0,0,.74,5.29,12.07,12.07,0,0,0,6.91,7.52,15.78,15.78,0,0,0,11,.24,11.75,11.75,0,0,0,4.6-2.86,10.64,10.64,0,0,0,2.61-4.72,11,11,0,0,0,.11-5.5,8.45,8.45,0,0,0-2.81-4.54,9.92,9.92,0,0,0-10.67-.58A6.93,6.93,0,0,0,111,179.6a6.64,6.64,0,0,0,.84,5.47,5.73,5.73,0,0,0,5,2.33,5.46,5.46,0,0,0,4.93-2.8,5.26,5.26,0,0,0,.5-3,4,4,0,0,0-1.45-2.62,3.85,3.85,0,0,0-3-.61A6.93,6.93,0,0,0,114.93,179.74Z"/><path class="cls-103" d="M185.4,179a6.75,6.75,0,0,0-2.93-1.33,3.81,3.81,0,0,0-3,.65,4,4,0,0,0-1.42,2.63,5.27,5.27,0,0,0,.54,3,5.45,5.45,0,0,0,4.95,2.74,5.7,5.7,0,0,0,5-2.39,6.62,6.62,0,0,0,.79-5.48,6.9,6.9,0,0,0-3.29-4.37,9.92,9.92,0,0,0-10.67.7,8.59,8.59,0,0,0-2.76,4.56,10.91,10.91,0,0,0,.18,5.5,10.52,10.52,0,0,0,2.66,4.7,11.75,11.75,0,0,0,4.63,2.81,15.72,15.72,0,0,0,11-.36,12.08,12.08,0,0,0,6.83-7.6,14.88,14.88,0,0,0,.69-5.3,18.16,18.16,0,0,0-1.06-5.36,15.76,15.76,0,0,0-2.56-4.67,16.44,16.44,0,0,0-3.78-3.57,25.57,25.57,0,0,0-21.65-3l-1.35.45-1.29.58a13.15,13.15,0,0,0-2.43,1.36,22.4,22.4,0,0,0-4.31,3.88,23.72,23.72,0,0,0-3.24,4.93,41.63,41.63,0,0,0-2.27,5.79,89.71,89.71,0,0,0-2.8,12.56c-.66,4.29-1.15,8.64-1.5,13a109.65,109.65,0,0,1-.7-13.19,78.33,78.33,0,0,1,1.15-13.33,43.75,43.75,0,0,1,1.79-6.67,27.08,27.08,0,0,1,3.28-6.4,27.63,27.63,0,0,1,5-5.36c.47-.4,1-.77,1.48-1.14a14,14,0,0,1,1.61-1c.54-.31,1.08-.63,1.63-.92l1.69-.75a30.1,30.1,0,0,1,7.1-1.93,32.87,32.87,0,0,1,7.35-.28,31.42,31.42,0,0,1,7.31,1.42c.59.21,1.18.44,1.77.68l.87.36.86.43c.56.3,1.14.58,1.69.9s1.09.71,1.62,1.07A22.63,22.63,0,0,1,204.6,172a25.22,25.22,0,0,1,.93,7.53A21.07,21.07,0,0,1,204,187a16.83,16.83,0,0,1-.82,1.78,17.55,17.55,0,0,1-1,1.67,18.31,18.31,0,0,1-5.53,5.52,14.53,14.53,0,0,1-1.74.93,14.72,14.72,0,0,1-1.79.75,21,21,0,0,1-14.71-.36,16.46,16.46,0,0,1-6.22-4.33,15.52,15.52,0,0,1-3.12-14.26,11.52,11.52,0,0,1,11.4-8.42,12.59,12.59,0,0,1,7,2,9.3,9.3,0,0,1,4,6.07,9.79,9.79,0,0,1,0,3.66,7.88,7.88,0,0,1-1.51,3.36,6.63,6.63,0,0,1-3,2.19,8.06,8.06,0,0,1-3.54.48,7.71,7.71,0,0,1-3.37-1.06,5.62,5.62,0,0,1-2.33-2.65,6.05,6.05,0,0,1-.38-3.44,4.54,4.54,0,0,1,1.82-2.88,4.14,4.14,0,0,1,3.29-.51A7,7,0,0,1,185.4,179Z"/><line class="cls-104" x1="94.55" y1="211.65" x2="205.43" y2="211.04"/><line class="cls-105" x1="95.11" y1="206.7" x2="205.99" y2="206.09"/><path class="cls-106" d="M223,224.86c-5.68,52.91-33.62,97.2-73.63,97.2S75.11,268.37,75.11,215.25s35.38-70.95,75.39-70.95S228.75,170.75,223,224.86Z"/></symbol></defs><g id="Background"><rect class="cls-107" width="3567.63" height="2000"/><rect class="cls-108" width="3567.63" height="2000"/><rect class="cls-109" y="1087.2" width="3567.63" height="912.8"/></g><g id="module_1" class="module" transform="translate(1650 0)"><g transform="translate(25 0)"><use width="251.62" height="1335.56" xlink:href="#Spotlight"/></g><g transform="translate(0 950)"><use class="pedistal" width="309.58" height="359.38" xlink:href="#Pedistal"/></g><g transform="translate(70 1024)"><use class="power" width="201.18" height="287.77" xlink:href="#Power"/></g><g transform="translate(-170 437)"><use class="jewel" width="580.78" height="652.14" xlink:href="#Gem"/></g><g transform="translate(5 607)"><use class="rock" width="303.66" height="363.56" xlink:href="#Stone"/></g></g><g id="module_2" class="module" transform="translate(1930 0) scale(1.1)"><g transform="translate(25 0)"><use width="251.62" height="1335.56" xlink:href="#Spotlight"/></g><g transform="translate(0 950)"><use class="pedistal" width="309.58" height="359.38" xlink:href="#Pedistal"/></g><g transform="translate(70 1024)"><use class="power" width="201.18" height="287.77" xlink:href="#Power"/></g><g transform="translate(-170 437)"><use class="jewel" width="580.78" height="652.14" xlink:href="#Gem"/></g><g transform="translate(5 607)"><use class="rock" width="303.66" height="363.56" xlink:href="#Stone"/></g></g><g id="module_3" class="module" transform="translate(1330 0) scale(1.1)"><g transform="translate(25 0)"><use width="251.62" height="1335.56" xlink:href="#Spotlight"/></g><g transform="translate(0 950)"><use class="pedistal" width="309.58" height="359.38" xlink:href="#Pedistal"/></g><g transform="translate(70 1024)"><use class="power" width="201.18" height="287.77" xlink:href="#Power"/></g><g transform="translate(-170 437)"><use class="jewel" width="580.78" height="652.14" xlink:href="#Gem"/></g><g transform="translate(5 607)"><use class="rock" width="303.66" height="363.56" xlink:href="#Stone"/></g></g><g id="module_4" class="module" transform="translate(2200 0) scale(1.32)"><g transform="translate(25 0)"><use width="251.62" height="1335.56" xlink:href="#Spotlight"/></g><g transform="translate(0 950)"><use class="pedistal" width="309.58" height="359.38" xlink:href="#Pedistal"/></g><g transform="translate(70 1024)"><use class="power" width="201.18" height="287.77" xlink:href="#Power"/></g><g transform="translate(-170 437)"><use class="jewel" width="580.78" height="652.14" xlink:href="#Gem"/></g><g transform="translate(5 607)"><use class="rock" width="303.66" height="363.56" xlink:href="#Stone"/></g></g><g id="module_5" class="module" transform="translate(1025 0) scale(1.32)"><g transform="translate(25 0)"><use width="251.62" height="1335.56" xlink:href="#Spotlight"/></g><g transform="translate(0 950)"><use class="pedistal" width="309.58" height="359.38" xlink:href="#Pedistal"/></g><g transform="translate(70 1024)"><use class="power" width="201.18" height="287.77" xlink:href="#Power"/></g><g transform="translate(-170 437)"><use class="jewel" width="580.78" height="652.14" xlink:href="#Gem"/></g><g transform="translate(5 607)"><use class="rock" width="303.66" height="363.56" xlink:href="#Stone"/></g></g><g id="module_6" class="module" transform="translate(2520 0) scale(1.23)"><g transform="translate(25 0)"><use width="251.62" height="1335.56" xlink:href="#Spotlight"/></g><g transform="translate(0 950)"><use class="pedistal" width="309.58" height="359.38" xlink:href="#Pedistal"/></g><g transform="translate(70 1024)"><use class="power" width="201.18" height="287.77" xlink:href="#Power"/></g><g transform="translate(-170 437)"><use class="jewel" width="580.78" height="652.14" xlink:href="#Gem"/></g><g transform="translate(5 607)"><use class="rock" width="303.66" height="363.56" xlink:href="#Stone"/></g></g><g id="module_7" class="module" transform="translate(715 0) scale(1.23)"><g transform="translate(25 0)"><use width="251.62" height="1335.56" xlink:href="#Spotlight"/></g><g transform="translate(0 950)"><use class="pedistal" width="309.58" height="359.38" xlink:href="#Pedistal"/></g><g transform="translate(70 1024)"><use class="power" width="201.18" height="287.77" xlink:href="#Power"/></g><g transform="translate(-170 437)"><use class="jewel" width="580.78" height="652.14" xlink:href="#Gem"/></g><g transform="translate(5 607)"><use class="rock" width="303.66" height="363.56" xlink:href="#Stone"/></g></g><g id="module_8" class="module" transform="translate(2800 0) scale(1.5)"><g transform="translate(25 0)"><use width="251.62" height="1335.56" xlink:href="#Spotlight"/></g><g transform="translate(0 950)"><use class="pedistal" width="309.58" height="359.38" xlink:href="#Pedistal"/></g><g transform="translate(70 1024)"><use class="power" width="201.18" height="287.77" xlink:href="#Power"/></g><g transform="translate(-170 437)"><use class="jewel" width="580.78" height="652.14" xlink:href="#Gem"/></g><g transform="translate(5 607)"><use class="rock" width="303.66" height="363.56" xlink:href="#Stone"/></g></g><g id="module_9" class="module" transform="translate(350 0) scale(1.5)"><g transform="translate(25 0)"><use width="251.62" height="1335.56" xlink:href="#Spotlight"/></g><g transform="translate(0 950)"><use class="pedistal" width="309.58" height="359.38" xlink:href="#Pedistal"/></g><g transform="translate(70 1024)"><use class="power" width="201.18" height="287.77" xlink:href="#Power"/></g><g transform="translate(-170 437)"><use class="jewel" width="580.78" height="652.14" xlink:href="#Gem"/></g><g transform="translate(5 607)"><use class="rock" width="303.66" height="363.56" xlink:href="#Stone"/></g></g><g id="module_10" class="module" transform="translate(3170 0) scale(1.39)"><g transform="translate(25 0)"><use width="251.62" height="1335.56" xlink:href="#Spotlight"/></g><g transform="translate(0 950)"><use class="pedistal" width="309.58" height="359.38" xlink:href="#Pedistal"/></g><g transform="translate(70 1024)"><use class="power" width="201.18" height="287.77" xlink:href="#Power"/></g><g transform="translate(-170 437)"><use class="jewel" width="580.78" height="652.14" xlink:href="#Gem"/></g><g transform="translate(5 607)"><use class="rock" width="303.66" height="363.56" xlink:href="#Stone"/></g></g><g id="module_11" class="module" transform="translate(0 0) scale(1.39)"><g transform="translate(25 0)"><use width="251.62" height="1335.56" xlink:href="#Spotlight"/></g><g transform="translate(0 950)"><use class="pedistal" width="309.58" height="359.38" xlink:href="#Pedistal"/></g><g transform="translate(70 1024)"><use class="power" width="201.18" height="287.77" xlink:href="#Power"/></g><g transform="translate(-170 437)"><use class="jewel" width="580.78" height="652.14" xlink:href="#Gem"/></g><g transform="translate(5 607)"><use class="rock" width="303.66" height="363.56" xlink:href="#Stone"/></g></g><use id="BackgroundJewel" height="3000" xlink:href="#Gem"/></svg>