<svg id="Layer_1" data-name="Layer 1" xmlns="http://www.w3.org/2000/svg" xmlns:xlink="http://www.w3.org/1999/xlink" viewBox="0 0 2225.93 1232.03"><defs><style>.cls-1{opacity:0.5;}.cls-2{filter:url(#glow);}.cls-3{fill:#fff;}.cls-4{fill:none;}</style><filter id="glow" name="glow"><feGaussianBlur stdDeviation="20" in="SourceGraphic"/></filter></defs><g id="Buttons" class="cls-1"><g id="MySchmo" class="cls-2"><path class="cls-3" d="M223.78,1141.58C74.63,1010.22-30,522.08,83.66,359c79.14-113.59,435-181.18,545.14-97.27,158.37,120.68,179.57,573.4,196.73,771.78,3,34.47,15.33,115.12-10.64,138C703.8,1269.23,334.82,1239.38,223.78,1141.58Z"/></g><g id="JoSchmo" class="cls-2"><path class="cls-3" d="M836.22,1172.65c92.23,108.11,439.28,109.75,557.58,31,123.46-82.16,165.82-541.56,148.81-688.88-19.7-170.66-142.9-416.34-311.76-447.91C1079.92,38.66,702.1,282.71,743.64,430.53c42.59,151.57,80.22,449.61,85.62,603.78C830.36,1065.79,815.78,1148.68,836.22,1172.65Z"/></g><g id="RoSchmo" class="cls-2"><path class="cls-3" d="M1432.05,1203.67c-35.88-20,119.7-156.36,121.57-271.63,2.62-161.37-37.07-489.84,88.9-590.73,100.43-80.44,431.23-49.81,512.21,50.18,128.5,158.65,98.8,724.09-85.38,812.18C1985.05,1244,1482.83,1232,1432.05,1203.67Z"/></g><line class="cls-4" x2="2225.93" y2="1232"/></g></svg>