<svg id="Layer_1" data-name="Layer 1" xmlns="http://www.w3.org/2000/svg" xmlns:xlink="http://www.w3.org/1999/xlink" viewBox="0 0 3560 2006.62"><defs><style>.cls-1{opacity:0.5;}.cls-2{filter:url(#glow);}.cls-3{fill:#fff;}.cls-4{fill:none;}</style><filter id="glow" name="glow"><feGaussianBlur stdDeviation="20" in="SourceGraphic"/></filter></defs><g id="Buttons" class="cls-1"><g id="Karaoke" class="cls-2"><path class="cls-3" d="M266.68,1838.68c-159.13-171.22,176.45-1002,394.78-1151,199.79-136.28,653.19,334.22,785.8,536.47,84.28,128.53,92,367.45,114,585.2C1580.78,2002.61,327.72,1904.36,266.68,1838.68Z"/></g><g id="Dance" class="cls-2"><path class="cls-3" d="M1402.4,812.75c-95,29.94-117.36,106.43-85.25,220.86C1336.9,1104,1437,1197,1473.59,1260.34c86.3,149.24,48.32,493.24,119.24,603.61,131,203.92,743.32,135.58,984.83,115.14,191.13-16.18,711.65-70.9,720-262.53,6.13-139.79-71.85-469.35-196.84-584.62C2835.31,887,1553.42,765.16,1402.4,812.75Z"/></g><g id="Watch" class="cls-2"><path class="cls-3" d="M259.07,1239.18C178.52,1187.27,291.79,45.62,465.53,23,649.17-1,2965.2-2.45,3127.76,40.58,3328.4,93.7,3549.08,1367.68,3319.25,1432c-134.66,37.69,4.56-148.79-274.28-349.91C2764.1,879.5,1564.43,753.43,1362.31,809.76,985.36,914.81,967.36,616.91,691,659.47,480.07,692,351.09,1298.48,259.07,1239.18Z"/></g><line class="cls-4" x2="3560" y2="2000"/></g></svg>