<svg id="Layer_13" data-name="Layer 13" xmlns="http://www.w3.org/2000/svg" xmlns:xlink="http://www.w3.org/1999/xlink" viewBox="0 0 1780 1000"><defs><style>.cls-1{fill:#fff;}.cls-2{filter:url(#glow);}</style><filter id="glow" name="glow"><feGaussianBlur stdDeviation="10" in="SourceGraphic"/></filter></defs><line class="cls-1" x1="0.05" y1="0.17" x2="1777.55" y2="1000"/><g id="ArtHouse" class="cls-2"><path class="cls-1" d="M1137,157.68c-53,49.5-7.39,224.09,24.88,289,14.26,28.7,87.85,54.69,95.14,85.9,13.2,56.55-115,165.8-85.66,215.92,31.09,53.13,202.3,78.19,244,32.94,40.57-44-70.86-177.41-51-233.88,14.81-42.19,118.35-72.91,139-112.58,25.19-48.46,49.1-175.27,15-218C1458.14,141.66,1207.52,91.84,1137,157.68Z"/></g><g id="EchoWell" class="cls-2"><path class="cls-1" d="M640.22,840.74c15.53,20.6,225.85,25.57,232.47,5.66,15.9-47.81,8.55-154.63-15.43-198.94-20.6-38.06-72.81-118.64-111.91-100.09-33.12,15.71-77.14,61-90.94,88.38C628.28,687.63,605.25,794.34,640.22,840.74Z"/></g><g id="LooptyLair" class="cls-2"><path class="cls-1" d="M508.5,671.3c122,.09,180.24-89.5,230.09-125.11,38.35-27.4,33.79-72.55,28.54-97.37C758.51,408,697.48,338.56,659.44,321.5c-66.25-29.71-259.13-5.57-321.31,31.92-58,35-120.72,152.19-92.15,213.6,21.88,47.07,151.1-.92,194.55,37.25C471.82,631.76,477.8,671.28,508.5,671.3Z"/></g><g id="SchplashPond" class="cls-2"><path class="cls-1" d="M888.51,687.74c51.43,26.58,190.37,38.41,231.59-2.26,24.18-23.87,15.64-104.28,3.12-135.86-16.45-41.49-80.79-124-125.31-127.18S876,490.58,856.25,530.49c-12.29,24.83-8.28,84.37,0,110.8C860.48,654.78,876,681.25,888.51,687.74Z"/></g></svg>