<svg id="Layer_1" data-name="Layer 1" xmlns="http://www.w3.org/2000/svg" xmlns:xlink="http://www.w3.org/1999/xlink" viewBox="0 0 1780 1000"><defs><style>.cls-1{opacity:0.5;}.cls-2{filter:url(#glow);}.cls-3{fill:#fff;}.cls-4{fill:none;}</style><filter id="glow" name="glow"><feGaussianBlur stdDeviation="20" in="SourceGraphic"/></filter></defs><g id="Buttons" class="cls-1"><g id="bookmarks" class="cls-2"><path class="cls-3" d="M712.77,979.62c56.6,20.38,233,28.15,300.85,0,40-16.61,9.48-134.55-10-173.23C983.77,767,979,684.85,945.44,679.14,848.69,662.67,620.43,946.36,712.77,979.62Z"/></g><g id="princess" class="cls-2"><path class="cls-3" d="M210.54,526.34C231,441.67,372.11,295,458.12,281.18,565.1,264,811.19,372,845.92,474.67c22,65-60.85,213.18-120.8,246.64C623,778.32,350.78,749.12,259.53,676,228.82,651.36,201.3,564.6,210.54,526.34Z"/></g><g id="book" class="cls-2"><path class="cls-3" d="M1197.1,391.1c-57.4-.63-178.18,48-208.1,97-37.82,61.94-19.47,224.24,11,290.1,10.87,23.47,52.2,60.45,76.28,69.88,64,25.08,211.29,27.13,275,1.38,22.66-9.15,60.25-45.82,70-68.23,27.55-63.47,41.71-217.56,5.8-276.7C1393.83,449.77,1261.22,391.8,1197.1,391.1Z"/></g><line class="cls-4" x2="1779.54" y2="1000"/></g></svg>