<svg id="Layer_6" data-name="Layer 6" xmlns="http://www.w3.org/2000/svg" xmlns:xlink="http://www.w3.org/1999/xlink" viewBox="0 0 1780.51 1000"><defs><style>.cls-1{filter:url(#glow);}.cls-2{fill:#fff;}.cls-3{fill:none;}</style><filter id="glow" name="glow"><feGaussianBlur stdDeviation="20" in="SourceGraphic"/></filter></defs><g id="Buttons"><g id="Speed" class="cls-1"><path class="cls-2" d="M1404,725c17,12,4.6,151.94-30.16,181.49-108.29,92.06-660.1,81-552.79-12.2,56.43-49,196.4-168.82,283.14-165.42,74.67,2.93,290.95-52.8,299.81-3.87" transform="translate(0.51)"/></g><line class="cls-3" x2="1780.51" y2="1000"/><g id="Karaoke" class="cls-1"><path class="cls-2" d="M35.41,849C13.79,718,154,455,276.86,408.89c33.85-12.72,194.15,2.73,194,39.36-.18,55-70,118.25,11.09,271.24,43.61,82.33,43.61,136.43,43.61,176.86,0,78-302.72,51.11-398.18,22C100,910,40.14,877.68,35.41,849Z" transform="translate(0.51)"/></g><g id="Blooper" class="cls-1"><path class="cls-2" d="M1711.61,918.33c89.73-115.48-4.77-508.14-135.36-571.9-87.91-42.92-271.78,80.76-335.81,155.43C1206.06,542,1274,610.16,1184,713.92c-24.57,28.33,170.12-41.91,216.61-.56,41,36.46-21.41,166.85,18.13,205C1471.78,969.51,1666.28,976.67,1711.61,918.33Z" transform="translate(0.51)"/></g><g id="Dance" class="cls-1"><path class="cls-2" d="M525.6,896.35C531,809.94,501.74,762,485.5,719.49c-19.62-51.36-78.66-140.91-12.64-189.23,76.22-55.8,279.06-48.28,373-51.44,94.6-3.18,335.23-50.65,377,35.53,7.51,15.5,40,222.59-118.69,209.17-86.5-7.31-237,125.62-295.45,177.9C755.62,948.92,521.15,968,525.6,896.35Z" transform="translate(0.51)"/></g></g></svg>