<?xml version="1.0" encoding="utf-8"?>
<!-- Generator: Adobe Illustrator 23.0.3, SVG Export Plug-In . SVG Version: 6.00 Build 0)  -->
<svg version="1.1" id="Layer_1" xmlns="http://www.w3.org/2000/svg" xmlns:xlink="http://www.w3.org/1999/xlink" x="0px" y="0px"
	 viewBox="0 0 176.61 83.46" style="enable-background:new 0 0 176.61 83.46;" xml:space="preserve">
<style type="text/css">
	.st0{fill:none;stroke:#28B7FF;stroke-width:8;stroke-linecap:round;stroke-miterlimit:10;}
	.st1{fill:none;stroke:#D05F9D;stroke-width:8;stroke-linecap:round;stroke-miterlimit:10;}
	.st2{fill:none;stroke:#FF4BBD;stroke-width:8;stroke-linecap:round;stroke-miterlimit:10;}
	.st3{fill:none;stroke:#DD4CB8;stroke-width:8;stroke-linecap:round;stroke-miterlimit:10;}
	.st4{fill:#FFFF00;stroke:#272425;stroke-width:0.2;stroke-miterlimit:10;}
</style>
<path class="st0" d="M87.21,53.14C87.21,26,66.51,4,40.98,4C20.56,4,4,21.6,4,43.31c0,17.37,13.25,31.45,29.58,31.45
	c13.07,0,23.67-11.26,23.67-25.16c0-11.12-8.48-20.13-18.93-20.13c-8.37,0-15.15,7.21-15.15,16.1c0,7.11,5.43,12.88,12.12,12.88
	c5.35,0,9.69-4.61,9.69-10.31c0-4.37-4.23-8.61-7.76-8.24c-1.38,0.14-3.64,1.08-4.19,3.35c-0.54,2.2,0.91,4.16,1.09,4.39"/>
<path class="st1" d="M87.21,53.14c0.16,7.21,0.32,14.41,0.48,21.62"/>
<path class="st2" d="M87.94,53.14C87.94,26,109,4,134.98,4c20.78,0,37.63,17.6,37.63,39.31c0,17.37-13.48,31.45-30.11,31.45
	c-13.3,0-24.08-11.26-24.08-25.16c0-11.12,8.63-20.13,19.27-20.13c8.51,0,15.41,7.21,15.41,16.1c0,7.11-5.52,12.88-12.33,12.88
	c-5.45,0-9.86-4.61-9.86-10.31c0-4.37,4.3-8.61,7.89-8.24c1.4,0.14,3.7,1.08,4.26,3.35c0.55,2.2-0.93,4.16-1.11,4.39"/>
<path class="st3" d="M87.94,53.14c-0.16,7.21-0.33,14.41-0.49,21.62"/>
<path class="st4" d="M165.58,83.36C165.58,83.36,165.57,83.36,165.58,83.36L15.66,83.14c-1.61,0-2.91-1.51-2.91-3.38
	c0-1.86,1.31-3.37,2.91-3.37l0,0l149.92,0.22c1.61,0,2.91,1.51,2.91,3.38C168.49,81.85,167.18,83.36,165.58,83.36z"/>
</svg>
