<svg id="Layer_1" data-name="Layer 1" xmlns="http://www.w3.org/2000/svg" xmlns:xlink="http://www.w3.org/1999/xlink" viewBox="0 0 1008 626.4"><defs><style>.cls-1{opacity:0.5;}.cls-2{filter:url(#glow);}.cls-3{fill:#fff;}.cls-4{fill:none;}</style><filter id="glow" name="glow"><feGaussianBlur stdDeviation="20" in="SourceGraphic"/></filter></defs><g id="Buttons" class="cls-1"><g id="coloring" class="cls-2"><path class="cls-3" d="M230.53,205C250.85,175.08,354,181.82,390.1,182.44c32.65.57,113.88,7.05,128.3,39.18,10.64,23.72-3,69.25-.59,157.08,1.05,37.34,35.19,145.41,6.2,169-37.93,30.81-194.91,49-237.53,25.11-29.58-16.6-26.21-187.89-34-220.9C239.84,298.3,199.59,250.49,230.53,205Z"/></g><g id="craft" class="cls-2"><path class="cls-3" d="M687.91,540.62c9.48,20.94,30.23,66.4,50.81,76.66,45.83,22.86,190.31-1,229.89-33.53,26.41-21.68,21.72-103.16,22.72-137.31,1.18-40.31-18.54-138.12-50.7-162.44-14.12-10.67-61.32,28.3-78.84,30.73-60.65,8.39-180.3,54-205.31,109.92C644.22,452.07,675.53,513.25,687.91,540.62Z"/></g><g id="Pammela" class="cls-2"><path class="cls-3" d="M659.21,175.71c124.6,14.42,112.29,100.57,100.06,149.87-6.9,27.81-88.58,46.95-104.79,100.07-14,45.87,33.43,115-45,117.65-85.58,2.93-43.62-72.66-56.93-97.68-17.24-32.43-36.64-67-32.2-162.73C524,205,504.56,157.81,659.21,175.71Z"/></g><line class="cls-4" x2="1008.07" y2="626.77"/></g></svg>