<svg id="Layer_8" data-name="Layer 8" xmlns="http://www.w3.org/2000/svg" xmlns:xlink="http://www.w3.org/1999/xlink" viewBox="0 0 1780 1000"><defs><style>.cls-2{filter:url(#glow);}.cls-3{fill:#fff;}.cls-4{fill:none;}</style><filter id="glow" name="glow"><feGaussianBlur stdDeviation="10" in="SourceGraphic"/></filter></defs><g id="Buttons"><g id="FamilyDevotional" class="cls-2"><path class="cls-3" d="M568.12,479.31q-69-1.95-143-6.07-72-4.08-139-9.87-1.5,10.63-2.39,22.24c-.69,9.18-1,18-.95,26.39q67.23,6.09,139.36,10.26,73.74,4.22,142.74,5.68,1.65-12.77,2.55-26.56C567.78,493.79,568.07,486.44,568.12,479.31Z"/></g><g id="LifeApplicationPage" class="cls-2"><path class="cls-3" d="M600.14,595.57q-82.7,1.27-171.31.57-86.22-.75-166.8-3.41c-.68,7.15-1.14,14.6-1.26,22.33-.16,9.21.12,18,.75,26.42q80.73,3,167.17,3.79,88.37.76,170.91-.95c.7-8.54,1.11-17.42,1.14-26.66Q600.83,606.28,600.14,595.57Z"/></g><g id="ActivityPrintOut" class="cls-2"><path class="cls-3" d="M588.9,717.13q-78.64,2.16-163,2.41-82.08.19-158.81-1.6-.84,10.72-.91,22.34,0,13.8,1.07,26.39,76.86,2.1,159.18,2,84.09-.2,162.64-2.79c.56-8.54.83-17.44.74-26.66Q589.66,727.81,588.9,717.13Z"/></g><g id="ColoringPrintOut" class="cls-2"><path class="cls-3" d="M1531.88,458.2q-68.94.65-143-.72-72-1.41-139.15-4.69c-.67,7.13-1.16,14.58-1.39,22.34-.26,9.18-.14,18,.26,26.41q67.33,3.56,139.47,5.06,73.71,1.42,142.64.35c.7-8.54,1.18-17.42,1.33-26.64C1532.23,472.75,1532.15,465.33,1531.88,458.2Z"/></g><g id="BookMarkPrintOut" class="cls-2"><path class="cls-3" d="M1558.24,576.56q-78.66,1.31-163.06.65-82.1-.78-158.74-3.33c-.67,7.13-1.09,14.58-1.21,22.33-.16,9.2.12,18,.72,26.41q76.83,2.93,159.14,3.72,84.09.72,162.66-1c.67-8.52,1.07-17.42,1.11-26.64Q1558.88,587.26,1558.24,576.56Z"/></g><g id="MemoryGameIdea" class="cls-2"><path class="cls-3" d="M1549.34,689.41q-78.64,1.29-163,.64-82.08-.7-158.75-3.34-1,10.71-1.23,22.33c-.14,9.21.12,18,.72,26.42q76.86,2.91,159.16,3.71,84.09.72,162.65-1c.67-8.53,1.06-17.43,1.1-26.65Q1550,700.1,1549.34,689.41Z"/></g><line class="cls-4" x2="1780" y2="1000"/></g></svg>