<svg id="Layer_1" data-name="Layer 1" xmlns="http://www.w3.org/2000/svg" xmlns:xlink="http://www.w3.org/1999/xlink" viewBox="0 0 3560 2000"><defs><style>.cls-1{filter:url(#glow);}.cls-2{fill:#fff;}.cls-3{fill:none;}</style><filter id="glow" name="glow"><feGaussianBlur stdDeviation="20" in="SourceGraphic"/></filter></defs><g id="Buttons"><g id="MemoryPalace" class="cls-1"><path class="cls-2" d="M987,24c-48.57-34.88-113.39,87.08-187,232-32,63-67,126-48,217,4.26,20.39,7,105,7,105h444s4.84-112.3,2-132c-10.76-74.54-43.1-195.25-78-262C1070,75,1013,42.69,987,24Z"/></g><g id="MemoryMission" class="cls-1"><path class="cls-2" d="M2684.52,122.51c-13.39,30.6,40.37,84.05,85.29,102.56.69.29-56.38,18.94,15,57.49,46.15,24.91,72.13,15.77,130.35,30,19.94,4.87-65.59-50.34-65.21-50.19s63.53,16.27,86.42,5.83c.82-.37,41.95,57.93,116,78.28,62.5,17.16,443.46,208.72,443.46,208.72l41.44-73.09S3174.35,292.34,3089.5,249c-54.74-28-134-35.41-134.17-35.65-19.08-29.64-54.94-49-54.27-49.28,14.13-5.8,80,17.75,65.5,9.76-69.89-38.46-69.09-68.69-99.07-78.47-87.87-28.67-59,21.92-59.51,21.72C2762.78,98.87,2697,94,2684.52,122.51Z"/></g><g id="SchmideoCenter" class="cls-1"><path class="cls-2" d="M1549,1152l346,8s307.82-101.52,267-160c-99.69-142.84-37.58-275.89-72-355-22.73-52.25-682-30.2-691,2-22.15,79.1,35.18,162.33-68,353C1303.24,1051.3,1549,1152,1549,1152Z"/></g><g id="MemoryWood" class="cls-1"><path class="cls-2" d="M538.26,1471.16s-85.78-229.75-103.87-310.28c-19-84.51-6.16-213.6,161.9-215.81,106.51-1.4,143,65.08,201.46,65.75,66.2.76,212.56-97.88,278-87.55,113.85,18,143.78,127.11,144.31,188.54.76,88.8-133,96.89-151.92,173.72-11.27,45.86-34.39,188.16-34.39,188.16Z"/></g><g id="SuperStage" class="cls-1"><path class="cls-2" d="M1262.58,1897.18S987.3,1654.5,1057.2,1596.43c185.48-154.09,261.64-170.74,426.76-168.19,228.76,3.54,255,71,397.76,220,35,36.57-5.88,161.32-39.36,199.32-59.23,67.25-339.36,111.7-339.36,111.7Z"/></g><g id="SchmoTown" class="cls-1"><path class="cls-2" d="M3249,1195s-142,45.7-197.33,114.34l-326.46,39.24-43.19,131,8.3,198.89,60.58,58.11,154.28,17.06,342.32,20.09,129.59-33.51L3543,1712l16.55-200-72.84-93C3381.39,1299.68,3396.12,1272.89,3249,1195Z"/></g><g id="FamilySchmuddle" class="cls-1"><path class="cls-2" d="M2280,1249c-77.88-68.07-37-366-25-438,9.5-57,36.63-148.87,114.93-148.28,72.77.55,113.14,133.19,154.07,142.28,64.53,14.34,51.61-66.41,119.82-69.24C2706,733.18,2759.67,840.46,2760,887c1,139,13.1,251.43-61,336C2607,1328,2357.2,1316.48,2280,1249Z"/></g><g id="ReadingTree" class="cls-1"><path class="cls-2" d="M2968.24,980.61c0,.14,322.1,1,322.1,1l1.25-71.53s42-13,42.87-26.88c11.86-180.62,64.58-165.87,55.65-257.78-3.86-39.7-70.41-108.41-99.36-113.63-112.84-20.35-406.71-17-493.47,43-37.59,26-4.18,124.86,22.36,169,16.49,27.46-17.28,87.26,2.93,131.35C2843.39,900.69,2936.25,681.42,2968.24,980.61Z"/></g><g id="Button5" class="cls-1"><path class="cls-2" d="M97.46,1545.53H327.73a38.81,38.81,0,0,1,38.68,38.94v231.89a38.82,38.82,0,0,1-38.68,39H97.46a38.82,38.82,0,0,1-38.68-39V1584.47A38.81,38.81,0,0,1,97.46,1545.53Z"/></g><g id="Button4" class="cls-1"><path class="cls-2" d="M106.1,1185.09H336.37a38.82,38.82,0,0,1,38.68,39v231.89a38.81,38.81,0,0,1-38.68,38.94H106.1a38.81,38.81,0,0,1-38.68-38.94V1224A38.82,38.82,0,0,1,106.1,1185.09Z"/></g><g id="Button3" class="cls-1"><path class="cls-2" d="M99.62,829.85H329.9a38.8,38.8,0,0,1,38.67,38.94v231.89a38.81,38.81,0,0,1-38.67,39H99.62a38.81,38.81,0,0,1-38.67-39V868.79A38.8,38.8,0,0,1,99.62,829.85Z"/></g><g id="Button2" class="cls-1"><path class="cls-2" d="M106.1,471.22H336.37a38.82,38.82,0,0,1,38.68,38.95V742.06a38.82,38.82,0,0,1-38.68,39H106.1a38.82,38.82,0,0,1-38.68-39V510.17A38.82,38.82,0,0,1,106.1,471.22Z"/></g><g id="Button1" class="cls-1"><path class="cls-2" d="M109.05,124H339.32A38.81,38.81,0,0,1,378,163V394.87a38.82,38.82,0,0,1-38.68,38.95H109.05a38.82,38.82,0,0,1-38.68-38.95V163A38.81,38.81,0,0,1,109.05,124Z"/></g><g id="Help" class="cls-1"><ellipse class="cls-2" cx="3466.56" cy="79.17" rx="58.92" ry="59.33"/></g></g><line class="cls-3" x2="3560" y2="2000"/></svg>