<svg id="Layer_1" data-name="Layer 1" xmlns="http://www.w3.org/2000/svg" xmlns:xlink="http://www.w3.org/1999/xlink" viewBox="0 0 1780 1000"><defs><style>.cls-1{opacity:0.5;}.cls-2{isolation:isolate;filter:url(#glow);}.cls-3{fill:#fff;}.cls-4{fill:none;}</style><filter id="glow" name="glow"><feGaussianBlur stdDeviation="20" in="SourceGraphic"/></filter></defs><g id="Buttons" class="cls-1"><g id="Matthew" class="cls-2"><path class="cls-3" d="M309.64,632.67c.21,27,.64,49.25.83,64.12l143-1.85-.8-62.51c-2.58-173.29-5.87-211.17-24.32-253.84-8.24-19-22.76-46.58-49.37-76.35-26.93,30.11-41.39,58.05-49.53,77.33C313.15,418.29,308.1,456.22,309.64,632.67Z"/></g><g id="Psalm" class="cls-2"><path class="cls-3" d="M608.9,581.12c.19,22.33.53,40.75.69,53l100.58-1.3-.67-51.72C707.41,437.77,705,406.43,692,371.09a243,243,0,0,0-34.86-63.24,236.57,236.57,0,0,0-34.71,63.9C611,403.76,607.54,435.13,608.9,581.12Z"/></g><g id="James" class="cls-2"><path class="cls-3" d="M1042.85,598.35c.21,27,.63,49.25.83,64.12l143-1.85-.81-62.52c-2.57-173.28-5.86-211.17-24.31-253.84-8.24-19-22.76-46.57-49.38-76.34-26.92,30.11-41.38,58.05-49.52,77.33C1046.35,384,1041.31,421.9,1042.85,598.35Z"/></g><g id="Ephesians" class="cls-2"><path class="cls-3" d="M1355.89,661.43c.21,26.87.64,49,.83,63.83l143-1.85-.8-62.23c-2.57-172.5-5.85-210.21-24.3-252.68-8.24-18.93-22.76-46.37-49.37-76-26.92,30-41.39,57.79-49.53,77C1359.41,448,1354.37,485.78,1355.89,661.43Z"/></g><line class="cls-4" x2="1780" y2="1000"/></g></svg>