<svg id="Layer_1" data-name="Layer 1" xmlns="http://www.w3.org/2000/svg" xmlns:xlink="http://www.w3.org/1999/xlink" viewBox="0 0 1780 1000"><defs><style>.cls-1{opacity:0.5;}.cls-2{fill:none;}.cls-3{filter:url(#glow);}.cls-4{fill:#fff;}</style><filter id="glow" name="glow"><feGaussianBlur stdDeviation="20" in="SourceGraphic"/></filter></defs><g id="Buttons" class="cls-1"><line class="cls-2" x2="1780" y2="1000.37"/><g id="yellowHouse" class="cls-3"><path class="cls-4" d="M170.35,471.69c-10.39-57.11,47-195,99.68-219.43C353.35,213.68,623.4,199.35,715.14,216c58.93,10.66,188.76,159.79,130.47,173.53-117.23,27.64,27.3,224.91-58.54,262.92-97.64,43.24-392.52,125.46-483.53,66.32C255.54,687.52,205.93,667.14,170.35,471.69Z"/></g><g id="pinkHouse" class="cls-3"><path class="cls-4" d="M833.35,281.09c13.92-36.43,188.46-230.8,279-207.21,112.76,29.37,261.06,177.09,180,197.1-111.3,27.49-53.61,172.67-78.1,187.94-86.32,53.81-84.62,120.84-114.18,137.16-23.74,13.11-238.44,25.31-262.5-5.72-29-37.46-44.75-147.14-21-188.17,10.4-18,50.24,6.19,55.24-14C876.73,368.6,822.63,309.14,833.35,281.09Z"/></g><g id="blueHouse" class="cls-3"><path class="cls-4" d="M1677.93,580.52c14.92,47.61,13.5,150.68-25.06,200.08-54.61,69.95-434.16,100.44-498.63,39.46-51.3-48.52,46.67-151.56,11.81-213C1106.51,502.19,1273.93,395,1504,408.53,1586,413.36,1652,497.74,1677.93,580.52Z"/></g></g></svg>