<?xml version="1.0" encoding="utf-8"?>
<!-- Generator: Adobe Illustrator 24.1.0, SVG Export Plug-In . SVG Version: 6.00 Build 0)  -->
<svg version="1.1" id="Layer_1" xmlns="http://www.w3.org/2000/svg" xmlns:xlink="http://www.w3.org/1999/xlink" x="0px" y="0px"
	 viewBox="0 0 612 792" style="enable-background:new 0 0 612 792;" xml:space="preserve">
<style type="text/css">
	.st0{fill:#FFF791;stroke:#FFF200;stroke-miterlimit:10;}
	.st1{fill:#B5DA9F;stroke:#7AC79B;stroke-miterlimit:10;}
	.st2{fill:#FFFFFF;stroke:#F062A4;stroke-width:4;stroke-miterlimit:10;}
	.st3{fill:#FFFFFF;stroke:#F170AB;stroke-width:6;stroke-miterlimit:10;}
	.st4{fill:#FFFFFF;stroke:#F062A4;stroke-width:3;stroke-miterlimit:10;}
	.st5{fill:#F170AB;stroke:#F281B3;stroke-width:3;stroke-miterlimit:10;}
	.st6{fill:#FFFFFF;}
	.st7{fill:#FFF689;stroke:#FFF9AE;stroke-miterlimit:10;}
	.st8{fill:#FFFFFF;stroke:#4EC9F5;stroke-width:7;stroke-miterlimit:10;}
	.st9{fill:#74D1F6;stroke:#4EC9F5;stroke-width:7;stroke-miterlimit:10;}
	.st10{fill:#FFF56D;stroke:#FFF57C;stroke-width:7;stroke-linecap:round;stroke-miterlimit:10;}
	.st11{fill:none;stroke:#8E5444;stroke-width:7;stroke-linecap:round;stroke-miterlimit:10;}
</style>
<g id="non_moving">
	<path class="st0" d="M353.12,475.31"/>
	<path class="st1" d="M-96.36,802.55c0.27-19.1,10.87-403.9,265.95-524.91c30.91-14.67,180.91-80.25,293.17-12.44
		c50.72,30.64,72.23,75.51,102.65,136.86c42.89,86.51,106.71,212.28,193.63,373.27C473.91,784.41,188.78,793.48-96.36,802.55z"/>
</g>
<g id="Palace">
	<g id="glow_2_">
		<path class="st0" d="M385.49,46.82c-4.68,4.01-5.94,10.77-3.05,16.1c2.98,5.51,9.64,8.13,15.67,6.09
			c-5.19,3.59-6.88,10.56-3.92,16.1c2.98,5.58,9.78,8.05,15.67,5.66c-0.4,0.47-6.08,7.31-3.48,16.1
			c2.7,9.11,11.72,11.63,12.19,11.75c-6.44,2.02-10.74,8.13-10.45,14.8c0.3,6.85,5.37,12.67,12.19,13.93
			c-6.59,1.55-11.13,7.49-10.88,13.93c0.22,5.77,4.25,10.89,10.01,12.62c-5.7,1.7-9.83,6.54-10.45,12.19
			c-0.71,6.53,3.41,12.96,10.01,15.23c-5.24,2.71-8.47,8.15-8.27,13.93c0.29,8.27,7.46,12.41,7.83,12.62
			c-0.84,0.48-7.98,4.74-9.14,13.49c-1.3,9.78,6.04,16.13,6.53,16.54c-0.74-0.41-9.55-5.08-18.72-0.44
			c-6.5,3.29-10.68,10-10.88,17.41c-0.05-7.75-6.59-13.85-13.93-13.49c-6.87,0.33-12.59,6.25-12.62,13.49
			c-2.92-6.38-9.46-10.22-16.1-9.58c-7.57,0.74-13.79,7.15-14.36,15.23c-2.05-7.16-8.86-11.9-16.1-11.32
			c-6.84,0.55-12.6,5.72-13.93,12.62c-4.17-6.48-11.54-10.17-19.15-9.58c-8,0.63-14.98,5.9-17.84,13.49
			c-2.72-7.35-9.47-12.35-16.97-12.62c-9.91-0.36-15.71,7.7-16.1,8.27c-0.4-1.81-2.17-8.87-8.7-13.06
			c-7.25-4.64-17.41-3.85-25.24,2.18c1.19-0.79,8.55-5.87,10.01-15.67c1.61-10.76-5.24-18.25-6.09-19.15
			c6.36-3.58,10.11-10.39,9.58-17.41c-0.7-9.22-8.42-13.94-9.14-14.36c1.85-1.68,5.25-5.26,6.96-10.88
			c3.04-9.99-1.69-18.45-2.61-20.02c1.4,0.37,6.59,1.54,11.32-1.31c5.69-3.42,8.41-11.28,6.09-19.15c1.11,0.2,6.13,0.99,10.88-2.18
			c6.23-4.16,6.51-11.48,6.53-12.19c5.78,4.61,13.81,4.92,19.59,0.87c5.03-3.53,7.58-9.82,6.53-16.1c1.62,1.29,7.22,5.66,10.88,3.92
			c4.34-2.07,5.12-12.31,0.87-25.68c2.01-0.61,8.83-2.97,13.49-10.01c5.65-8.54,3.84-17.5,3.48-19.15c1.47,0.23,8.66,1.23,14.8-3.48
			c6.11-4.69,8.71-13.13,6.53-21.33c1.78,0.11,7.85,0.26,13.49-3.92c7.58-5.6,8.2-14.41,8.27-15.67c0.1,7.84,5.27,14.45,12.19,16.1
			c8.45,2.02,14.94-4.48,15.23-4.79c-0.21,0.71-2.04,7.17,1.31,10.88C369.16,53.96,378.47,53.95,385.49,46.82z"/>
	</g>
	<path class="st2" d="M295.69,256.68c0.42-49.63,0.84-99.27,1.26-148.9c31.76,0.63,63.52,1.26,95.27,1.89c0,46.9,0,93.8,0,140.7
		C360.05,252.47,327.87,254.58,295.69,256.68z"/>
	<path class="st3" d="M295.69,111.69c15.05-22.14,30.1-44.28,45.15-66.43c17.74,23.32,35.48,46.64,53.22,69.96"/>
	<circle class="st2" cx="346.32" cy="144.75" r="15.63"/>
	<path class="st4" d="M295.05,184.89c-14.97-11.16-29.95-22.32-44.92-33.47c-10.87,11.55-21.73,23.1-32.6,34.66"/>
	<path class="st4" d="M295.69,256.68c-25.25-1-50.5-2.01-75.75-3.01c-0.8-22.53-1.6-45.06-2.4-67.59
		c25.84-0.39,51.68-0.79,77.52-1.18"/>
	<path class="st5" d="M240.64,253.81c-0.73-17.02-1.46-34.05-2.2-51.07c9.92,0.59,19.85,1.19,29.77,1.78
		c-0.4,17.01-0.79,34.02-1.19,51.02"/>
	<rect x="246.71" y="210.02" class="st6" width="13.24" height="17.19"/>
	<circle class="st6" cx="262.26" cy="237.34" r="2.31"/>
</g>
<g id="glow">
    <path class="st10" d="M72.12,239.6c2.29,2.56,12.05,12.84,28.32,14.55c18.64,1.95,31.53-8.85,33.68-10.72
        c0.52,2.65,2.6,11.56,10.72,17.61c8.87,6.61,21.4,7.17,32.15,1.53c-7.44,10.39-8.32,23.8-2.3,33.68
        c7.76,12.72,25.89,17.84,41.34,9.95c-0.92,2.17-6.02,14.72,0,28.32c7.64,17.26,26.22,20.46,27.56,20.67
        c-2.21,2.72-7.36,9.85-7.66,19.9c-0.56,18.96,16.68,30.04,17.61,30.62c-2.55,0.48-13.49,2.82-19.14,12.25
        c-6.78,11.32-3.35,28.49,9.95,39.81c-1.41-0.07-20.11-0.73-28.32,11.48c-8.62,12.82-3.31,36.28,17.61,48.99
        c-16.76-3.11-33.27,6.18-39.04,21.43c-6.24,16.48,1.6,35.86,18.37,43.64c-1.79-0.45-20.1-4.83-32.15,6.12
        c-12.57,11.43-13.84,35.47,1.53,53.59c-3.03-1.12-16.24-5.61-29.86,0.77c-14,6.55-22.8,21.97-22.2,39.04
        c-0.53-1.75-6.24-19.64-22.2-24.5c-16.3-4.96-37.08,5.57-45.17,26.79c-0.44-2.53-4.28-22.99-20.67-30.62
        c-17.86-8.32-44.56,1.42-57.42,26.79C7.82,661.5,10.16,630.1-4.45,613.16c-9.97-11.55-27.37-15.87-44.4-12.25
        c16.89-11.23,25.62-31.41,22.2-51.29c-3.34-19.4-17.68-35.24-36.75-40.57c18.88-7.59,23.34-18.09,24.5-21.44
        c7.26-20.95-13.31-54.16-56.65-73.49c22.33,3.24,42.69-8.4,48.99-26.03c6.27-17.54-3.95-33.82-5.36-35.98
        c2.83,0.87,15.66,4.5,26.03-2.3c12.72-8.34,17.35-29.51,6.89-48.99c0.87,0.56,15.16,9.44,28.32,3.06
        c12.75-6.18,19.41-24.24,12.25-41.34c1.62,2.8,8.19,13.44,18.37,14.55C53.07,278.53,69.47,263.85,72.12,239.6z"/>
</g>
<g id="Branch1">
	<path class="st11" d="M-20.75,642.61c8.88,0.64,49.14,2.59,77.78-25.93c34.24-34.09,36.73-96.65,8.94-122.48
		c-11.45-10.64-32.6-19.28-49.17-10.73c-15.31,7.9-26.07,30.15-17.88,43.81c6.93,11.55,24.25,11.64,25.93,11.62
		c4.21-0.04,16.65-0.15,19.67-8.05c2.33-6.1-1.74-14.83-8.94-17.88c-7.49-3.18-14.6,1.39-15.2,1.79"/>
</g>
<g id="Branch2">
    <path class="st11" d="M144.34,630.31c-10.94-11.6-28.92-34.07-36.65-67.05c-4.6-19.61-10.87-46.39,4.47-67.94
		c15.58-21.88,50.63-34.43,65.26-21.46c13.11,11.63,10.88,44.72-6.26,55.43c-7.27,4.54-18.29,5.73-26.82,0.89
		c-7.75-4.39-15.03-14.66-11.62-20.56c2.88-4.99,12.08-4.55,13.41-4.47"/>
</g>
<g id="Branch3">
	<path class="st11" d="M97.66,515.99c-23.69-46.56-20.13-68-12.16-78.95c12.27-16.87,35.97-10.21,45.71-27.97
		c10.25-18.69-3.65-48.57-21.13-64.95c-21.2-19.86-60.97-32.33-84.1-12.59c-14.7,12.54-24.34,39.5-11.56,58.06
		c9.27,13.45,27.16,17.89,41.28,15.3c13.48-2.47,32.4-12.99,31.43-27.07c-0.58-8.53-8.42-17.66-19.14-19.39
		c-9.77-1.58-19.61,3.37-24.3,12.29"/>
</g>
<g id="Branch4">
	<path class="st11" d="M86.22,442.54c11.92-10.41,29.28-22.11,51.85-25.93c37.09-6.27,62.15,13.17,75.09,0
		c11.08-11.27,2.59-35.51,0-42.91c-1.23-3.52-14.16-40.46-39.34-40.23c-12.96,0.12-26.79,10.06-30.4,23.24
		c-0.42,1.53-4.37,16.85,5.36,24.14c6.1,4.56,15.06,4.11,21.46,0c6.7-4.3,10.24-12.39,8.94-20.56"/>
</g>
<g id="Branch5">
	<path class="st11" d="M42.31,480.64c-9.54-4.12-24.03-9.45-42.31-12.52c-25.85-4.34-35.25-0.13-44.4-8.05
		c-13.57-11.74-18.53-43.18-0.89-58.11c12.34-10.44,33.7-11.09,45.3,0c6.02,5.75,10.8,15.99,8.34,25.93
		c-0.46,1.85-2.11,8.51-8.34,12.39c-6.58,4.09-16.05,3.71-22.05-1.66s-8.75-15.9-4.47-19.67c3.54-3.12,10.53-0.43,11.62,0"/>
</g>
<g id="Branch6">
	<path class="st11" d="M113.23,341.36c-22.29-21.74-25.13-49.01-14.11-61.02c9.38-10.23,26.88-7.3,27.71-7.15
		c19.63,3.56,34.42,24.2,30.4,33.08c-3.09,6.83-17.51,7.12-25.93,5.36c-7.76-1.62-16.49-6.24-16.09-9.83c0,0,0.16-1.46,11.62-7.15
		l0,0"/>
</g>
</svg>
