<svg xmlns="http://www.w3.org/2000/svg" viewBox="0 0 264.36 262.45"><defs><style>.cls-1{fill:#fff;stroke-width:8px;}.cls-1,.cls-3,.cls-4{stroke:#00aeef;stroke-miterlimit:10;}.cls-2,.cls-3,.cls-4{fill:#00aeef;}.cls-3{stroke-width:7.64px;}.cls-4{stroke-width:7.62px;}</style></defs><g id="Layer_3" data-name="Layer 3"><circle class="cls-1" cx="133.41" cy="130.52" r="126.29"/><path class="cls-2" d="M214.54,104.71a99.9,99.9,0,0,1-.07,11.62c-.22,3.82-.69,7.63-1.28,11.42A90.46,90.46,0,0,1,206.54,150a62,62,0,0,1-13.63,19.46,48.12,48.12,0,0,1-21.08,11.84l-.82.21h-.6l-87.35-1L83,173.58l87.29-3.27-1.42.2a36.22,36.22,0,0,0,15.47-9.76c.54-.56,1.07-1.13,1.57-1.74s1-1.2,1.49-1.82c1-1.25,1.78-2.61,2.69-3.9s1.56-2.77,2.33-4.16,1.37-2.89,2-4.4a77.07,77.07,0,0,0,4.66-19c.34-3.3.6-6.61.62-9.94a85.7,85.7,0,0,0-.41-9.83Z"/><path class="cls-3" d="M125.87,200.63a103.79,103.79,0,0,0-19.34-14.95A108.13,108.13,0,0,0,79.68,174.2a131.42,131.42,0,0,0,25.71-9.38,125.08,125.08,0,0,0,18.8-11.35,82.3,82.3,0,0,0-2.58,23.5A84.92,84.92,0,0,0,125.87,200.63Z"/><path class="cls-2" d="M45.9,153.57A99.71,99.71,0,0,1,46,142c.22-3.82.69-7.63,1.28-11.42a90.72,90.72,0,0,1,6.64-22.23A62.11,62.11,0,0,1,67.52,88.86,47.94,47.94,0,0,1,88.58,77l.83-.21H90l87.3,1,.09,6.94L90.15,88l1.43-.2a36.29,36.29,0,0,0-15.47,9.75c-.54.56-1.07,1.13-1.57,1.74s-1,1.2-1.48,1.82c-1,1.25-1.78,2.61-2.69,3.9s-1.56,2.77-2.34,4.15-1.36,2.9-2,4.4a76.64,76.64,0,0,0-4.65,19c-.35,3.3-.61,6.61-.63,9.94a85.62,85.62,0,0,0,.41,9.82Z"/><path class="cls-4" d="M135.11,58a96.47,96.47,0,0,0,19,14.37,103.16,103.16,0,0,0,26.59,10.72,138.74,138.74,0,0,0-26,10,134.09,134.09,0,0,0-19.12,11.77,83,83,0,0,0,3.19-23.43A81.92,81.92,0,0,0,135.11,58Z"/><path class="cls-2" d="M132.54,55.54a11.44,11.44,0,0,1-6.41-7.2,11.2,11.2,0,0,1,1.57-9.55,9.2,9.2,0,0,1,9-3.56,8.62,8.62,0,0,1,2.4.77,7.09,7.09,0,0,1,2.08,1.49,7.54,7.54,0,0,1,2.12,4.56A7.25,7.25,0,0,1,142,46.9a6.15,6.15,0,0,1-4.39,2.41,5.93,5.93,0,0,1-2.51-.37A4.85,4.85,0,0,1,133,47.48a4.74,4.74,0,0,1-.79-4.83,3.84,3.84,0,0,1,4.09-2.46,3.37,3.37,0,0,1,2.2,1.18,3,3,0,0,1,.64,2.38,2.53,2.53,0,0,1-1.42,2,2.31,2.31,0,0,1-2.34-.22,1.84,1.84,0,0,1-.58-2.16,1.43,1.43,0,0,1,1.92-.77,1.35,1.35,0,0,0-1.78.82,1.63,1.63,0,0,0,.62,1.87,2,2,0,0,0,2,0,2,2,0,0,0,1-1.62,2.4,2.4,0,0,0-.59-1.84,2.61,2.61,0,0,0-1.74-.81,2.9,2.9,0,0,0-3,2,3.67,3.67,0,0,0,.74,3.64,4.24,4.24,0,0,0,3.54,1.23A4.6,4.6,0,0,0,140.67,46a5.56,5.56,0,0,0,.86-3.74,5.7,5.7,0,0,0-1.69-3.44,6.17,6.17,0,0,0-3.49-1.65,7.3,7.3,0,0,0-7,2.89,8.52,8.52,0,0,0-1.46,3.7,9.23,9.23,0,0,0,.27,4,9.37,9.37,0,0,0,5.16,5.93l.94.41-.81,1.86Z"/><path class="cls-2" d="M135.56,104.93a9.77,9.77,0,0,0-3.55,6.88,8.32,8.32,0,0,0,2.81,7,6.92,6.92,0,0,0,7.26.73A6.52,6.52,0,0,0,145,117a5.69,5.69,0,0,0,.86-3.66,5,5,0,0,0-1.63-3.31,4.25,4.25,0,0,0-3.51-.88,4.43,4.43,0,0,0-3,2.12,3.56,3.56,0,0,0,.07,3.61,2.69,2.69,0,0,0,3.31,1,2.75,2.75,0,0,0,1.44-1.22,2.31,2.31,0,0,0,.17-1.87,1.82,1.82,0,0,0-1.34-1.26,2,2,0,0,0-1.83.6,1.6,1.6,0,0,0-.18,1.91,1.28,1.28,0,0,0,1.87.28,1.35,1.35,0,0,1-2-.2,1.82,1.82,0,0,1,.07-2.18,2.38,2.38,0,0,1,2.13-.85,2.35,2.35,0,0,1,1.83,1.49,3,3,0,0,1-.1,2.39,3.49,3.49,0,0,1-1.75,1.66,3.78,3.78,0,0,1-2.44.23,3.56,3.56,0,0,1-2-1.42,4.61,4.61,0,0,1-.31-4.76,5.76,5.76,0,0,1,3.84-2.91,5.7,5.7,0,0,1,4.77,1,6.7,6.7,0,0,1,2.35,4.31,7.52,7.52,0,0,1-1,4.77,8.39,8.39,0,0,1-3.61,3.25,8.81,8.81,0,0,1-7.18.4,8.88,8.88,0,0,1-2.16-1.23,10.35,10.35,0,0,1-3.63-8.7,11.83,11.83,0,0,1,4.38-8.29l.78-.62,1.24,1.54Z"/><path class="cls-2" d="M122.71,152.53a9.73,9.73,0,0,0,5.61-5.32,8.31,8.31,0,0,0-.36-7.51,6.91,6.91,0,0,0-6.62-3.09,6.69,6.69,0,0,0-3.55,1.4,5.76,5.76,0,0,0-2,3.17,5.08,5.08,0,0,0,.45,3.66,4.27,4.27,0,0,0,3,2,4.38,4.38,0,0,0,3.56-1,3.53,3.53,0,0,0,1.12-3.43,2.69,2.69,0,0,0-2.78-2.06,2.76,2.76,0,0,0-1.77.68,2.37,2.37,0,0,0-.78,1.71,1.81,1.81,0,0,0,.86,1.63,2,2,0,0,0,1.92,0,1.59,1.59,0,0,0,.8-1.75,1.28,1.28,0,0,0-1.68-.88,1.37,1.37,0,0,1,1.83.84,1.84,1.84,0,0,1-.79,2,2.36,2.36,0,0,1-2.29.1,2.33,2.33,0,0,1-1.24-2,3,3,0,0,1,.88-2.23,3.55,3.55,0,0,1,2.2-1,3.81,3.81,0,0,1,2.38.6,3.5,3.5,0,0,1,1.46,2,4.62,4.62,0,0,1-1.27,4.59,5.81,5.81,0,0,1-8.76-1.06,6.71,6.71,0,0,1-.79-4.84,7.56,7.56,0,0,1,2.53-4.18,8.4,8.4,0,0,1,4.48-1.88,9.26,9.26,0,0,1,4.81.67,9.72,9.72,0,0,1,2.1,1.31,8.85,8.85,0,0,1,1.63,1.88,10.34,10.34,0,0,1,.57,9.41,11.81,11.81,0,0,1-6.86,6.38l-.94.33-.67-1.86Z"/><path class="cls-2" d="M126.16,201.29a11.2,11.2,0,0,1,7.64,6.22,11.82,11.82,0,0,1-.06,9.87,9.53,9.53,0,0,1-8.24,5.36,8.61,8.61,0,0,1-2.57-.3,7,7,0,0,1-2.37-1.15,7.62,7.62,0,0,1-2.85-4.29,7.72,7.72,0,0,1,.53-5.07,6.4,6.4,0,0,1,3.91-3.29,5.82,5.82,0,0,1,2.59-.14,4.7,4.7,0,0,1,2.39,1.1,4.88,4.88,0,0,1,1.54,4.76,4.06,4.06,0,0,1-3.62,3.26,3.22,3.22,0,0,1-2.43-.78,3,3,0,0,1-1-2.3,2.72,2.72,0,0,1,1.07-2.22,2.3,2.3,0,0,1,2.39-.25,1.87,1.87,0,0,1,.92,2.09,1.48,1.48,0,0,1-1.78,1.15,1.4,1.4,0,0,0,1.63-1.18,1.63,1.63,0,0,0-.91-1.78,1.94,1.94,0,0,0-2,.33,2.18,2.18,0,0,0-.74,1.84,2.39,2.39,0,0,0,.87,1.76,2.43,2.43,0,0,0,1.87.49,3.1,3.1,0,0,0,2.64-2.62,3.77,3.77,0,0,0-1.31-3.56,4,4,0,0,0-3.73-.56,4.86,4.86,0,0,0-2.87,2.59,6.07,6.07,0,0,0-.26,3.95,5.72,5.72,0,0,0,2.21,3.2,6,6,0,0,0,3.78,1,7.6,7.6,0,0,0,6.4-4.33,9.05,9.05,0,0,0,.86-4,10,10,0,0,0-.87-4,9.05,9.05,0,0,0-6.12-5.09l-1-.24.46-2Z"/></g></svg>